<svg width="255" height="36" viewBox="0 0 255 36" fill="none" xmlns="http://www.w3.org/2000/svg">
<path d="M17.8604 0.720703C7.93213 0.720703 0 8.4884 0 17.9596C0 27.4308 7.93541 35.2807 17.8604 35.2807C27.7855 35.2807 35.6387 27.513 35.6387 17.9596C35.6387 8.40618 27.5816 0.720703 17.8604 0.720703ZM17.8177 22.7774C15.2 22.7774 12.9999 20.6595 12.9999 17.9991C12.9999 15.3386 15.2 13.2207 17.8177 13.2207C20.4354 13.2207 22.5105 15.3813 22.5105 17.9991C22.5105 20.6168 20.3499 22.7774 17.8177 22.7774Z" fill="black"/>
<path d="M55.5743 21.656C55.5743 23.1523 54.4956 24.231 52.7921 24.231C51.3813 24.231 50.0494 23.1523 50.0494 21.656V1.38501H36.8818V34.6164H68.7419V1.38501H55.5743V21.656Z" fill="black"/>
<path d="M98.4838 20.8667C99.9373 18.8738 100.769 16.506 100.769 13.8883C100.769 6.99209 94.6624 1.38501 87.0197 1.38501H70.4023V34.6164H83.5699V26.4343H88.3483V34.6164H101.516V20.8667H98.4838ZM85.2734 17.5847C83.445 17.5847 81.9092 16.0884 81.9092 14.2632C81.9092 12.438 83.445 10.899 85.2734 10.899C87.1019 10.899 88.5982 12.3953 88.5982 14.2632C88.5982 16.1311 87.1019 17.5847 85.2734 17.5847Z" fill="black"/>
<path d="M123.398 1.38501H109.816V34.6164H123.398V1.38501Z" fill="black"/>
<path d="M125.062 34.6164H138.23V14.3454C138.23 12.8491 139.309 11.7704 141.012 11.7704C142.423 11.7704 143.755 12.8491 143.755 14.3454V34.6164H156.923V1.38501H125.062V34.6164Z" fill="black"/>
<path d="M175.365 1.38501H158.583V34.6164H175.365C184.919 34.6164 192.769 27.1381 192.769 18.0024C192.769 8.86659 184.919 1.3883 175.365 1.3883V1.38501ZM174.74 22.7774C172.123 22.7774 169.962 20.6168 169.962 17.9991C169.962 15.3813 172.123 13.2207 174.74 13.2207C177.358 13.2207 179.476 15.3813 179.476 17.9991C179.476 20.6168 177.358 22.7774 174.74 22.7774Z" fill="black"/>
<path d="M194.015 34.6164H219.643V23.4023H212.165V17.0059H208.426C207.222 17.0059 206.347 16.0917 206.347 14.8058C206.347 13.52 207.219 12.6058 208.426 12.6058H219.64V1.3916H194.012V34.623L194.015 34.6164Z" fill="black"/>
<path d="M254.66 1.38501H238.957V11.0206C238.957 13.8883 235.511 13.8883 235.511 11.0206V1.38501H220.64L224.254 14.8848H221.097V34.6164H234.264V24.3559H241.036V34.6164H254.203V14.8848H251.046L254.66 1.38501Z" fill="black"/>
</svg>
