<svg width="109" height="42" viewBox="0 0 109 42" fill="none" xmlns="http://www.w3.org/2000/svg">
<path fill-rule="evenodd" clip-rule="evenodd" d="M85.5284 16.2999H81.7184L79.3184 25.1499L77.2442 17.5014C79.2206 11.5615 84.1021 5.90991 92.4526 5.90991C98.3939 5.90991 102.77 9.15528 105.237 12.9753C107.498 16.4769 108.273 20.4831 108.273 23.8599V23.9199C108.273 24.6251 108.2 25.3131 108.061 25.977C108.079 26.9204 107.964 27.8712 107.71 28.8011C107.704 28.8233 107.701 28.8341 107.695 28.8597C107.688 28.8842 107.678 28.9223 107.658 28.997C107.629 29.1082 107.58 29.2893 107.52 29.4949C107.432 29.7985 107.279 30.2955 107.042 30.8792C104.964 36.413 99.8941 41.4199 92.5126 41.4199C83.3575 41.4199 78.167 34.5145 76.6699 27.7477L77.7584 30.9999H80.7584L85.5284 16.2999ZM90.6226 16.2207C90.6126 16.2243 90.6026 16.2278 90.5926 16.2315C89.4854 16.6312 88.5374 17.3842 87.8095 18.3812C87.2536 19.1425 86.826 20.046 86.5538 21.0431C86.4868 21.2885 86.4292 21.5396 86.3815 21.7956C86.3526 21.9502 86.3274 22.1065 86.3058 22.2645C86.2617 22.5868 86.233 22.9158 86.2202 23.2503C86.2151 23.3827 86.2126 23.5159 86.2126 23.6499V23.6799C86.2126 23.7602 86.2135 23.8402 86.2153 23.9199C86.2172 24.0002 86.22 24.0803 86.2238 24.1599C86.2279 24.2483 86.2332 24.3363 86.2396 24.4239C86.2561 24.6493 86.2801 24.8717 86.3112 25.0908C86.3627 25.453 86.4338 25.806 86.5233 26.1479C87.1411 28.5089 88.6351 30.3439 90.5926 31.0752C90.6026 31.0789 90.6126 31.0826 90.6226 31.0863C91.1965 31.2969 91.81 31.4128 92.4526 31.4196C92.4725 31.4198 92.4925 31.4199 92.5126 31.4199C93.0341 31.4199 93.5363 31.3424 94.0121 31.1927C94.0626 31.1769 94.1127 31.1602 94.1626 31.1427C95.5234 30.6653 96.6573 29.588 97.3951 28.0396C97.4588 27.9059 97.5195 27.7686 97.5772 27.628C97.6318 27.495 97.6836 27.3589 97.7326 27.2199C97.834 26.9968 97.908 26.7463 97.9731 26.5054C97.9876 26.4516 98.0017 26.3983 98.0155 26.346C98.0229 26.3182 98.0302 26.2906 98.0374 26.2634C98.0458 26.2318 98.0542 26.2006 98.0626 26.1699L94.4026 25.8999C94.3978 25.9477 94.3922 25.9948 94.3859 26.041C94.3527 26.2845 94.2982 26.5034 94.2226 26.6799C94.2029 26.7493 94.183 26.8169 94.1626 26.8827C93.9348 27.6172 93.6573 28.1256 93.3036 28.4183C93.0744 28.608 92.8131 28.7072 92.5126 28.7188C92.4927 28.7195 92.4727 28.7199 92.4526 28.7199C92.1684 28.7199 91.9126 28.6191 91.6881 28.4255C91.1661 27.9755 90.8134 27.0246 90.6678 25.6753C90.6635 25.6358 90.6595 25.596 90.6556 25.5558C90.6546 25.5455 90.6536 25.5352 90.6526 25.5249C90.6409 25.4012 90.6309 25.2744 90.6226 25.1444C90.6224 25.1419 90.6222 25.1394 90.6221 25.1368C90.6132 24.9974 90.6064 24.8543 90.6015 24.7078C90.5956 24.5302 90.5926 24.3475 90.5926 24.1599V23.9199H98.2726V23.8599C98.2726 23.7152 98.27 23.5705 98.265 23.4259C98.2516 23.0417 98.2203 22.6585 98.1709 22.2801C98.1509 22.1266 98.1279 21.9739 98.102 21.8222C98.0252 21.3733 97.9223 20.9334 97.7932 20.509C97.2918 18.8609 96.394 17.4453 95.086 16.6354C94.7981 16.4572 94.4904 16.3083 94.1626 16.1927C93.8709 16.0898 93.5634 16.0133 93.24 15.966C92.9872 15.9291 92.7248 15.9099 92.4526 15.9099C91.8061 15.9099 91.1934 16.0185 90.6226 16.2207ZM93.2589 18.7564C93.0322 18.5572 92.7634 18.4599 92.4526 18.4599C92.1514 18.4599 91.8829 18.5626 91.6503 18.7581C91.0719 19.2444 90.7156 20.3049 90.6314 21.7898C90.628 21.8492 90.6251 21.9092 90.6226 21.9699H94.1626C94.1595 21.8878 94.1558 21.8071 94.1516 21.728C94.0694 20.1796 93.7718 19.2071 93.2589 18.7564Z" fill="black"/>
<path fill-rule="evenodd" clip-rule="evenodd" d="M77.7585 41C73.4587 41 69.6402 38.2514 68.2755 34.1739L67.2132 31H71.0642V16.3H66.9242V30.1366L63.9081 21.1249V20.71C63.9081 20.2288 63.8724 19.7639 63.7987 19.3256C63.6499 18.4401 63.3462 17.6635 62.8689 17.081C62.6863 14.7492 63.3259 12.398 64.7225 10.4579C66.6016 7.84733 69.6219 6.30005 72.8385 6.30005H76.9185C77.7415 6.30005 78.546 6.40059 79.3185 6.59142C80.0909 6.40059 80.8954 6.30005 81.7185 6.30005H85.5285C88.7288 6.30005 91.7359 7.83184 93.6175 10.4206C95.0013 12.3245 95.6535 14.6309 95.5088 16.9289C94.6808 16.2889 93.6635 15.91 92.4526 15.91C91.022 15.91 89.7564 16.4417 88.7453 17.3439C88.5116 17.5524 88.2915 17.7808 88.0862 18.0269C87.9997 18.1305 87.9159 18.2372 87.8347 18.347C86.8712 19.6501 86.2867 21.3768 86.2192 23.2787C86.2148 23.4018 86.2126 23.5256 86.2126 23.65V23.68C86.2126 24.1364 86.2427 24.5827 86.3009 25.016C86.4048 25.7904 86.5981 26.5233 86.8689 27.1976C86.9591 27.4224 87.058 27.6406 87.1649 27.8518C87.4808 28.4752 87.8678 29.0365 88.3142 29.5194C89.1062 30.3762 90.0855 30.9864 91.1875 31.2596L90.2702 34.0865C88.9326 38.2086 85.0921 41 80.7585 41H77.7585ZM92.0372 28.6412L93.5691 23.92H90.5926V24.16C90.5926 26.6542 91.121 28.2752 92.0372 28.6412ZM90.6444 21.5926C90.6352 21.7153 90.6279 21.8412 90.6226 21.97H94.1626C94.1025 20.3684 93.8287 19.3413 93.3411 18.8352C93.0981 18.5829 92.8019 18.46 92.4526 18.46C92.3798 18.46 92.309 18.466 92.24 18.4779C91.8698 18.5416 91.5559 18.7742 91.3055 19.1546C90.9516 19.6923 90.7245 20.5251 90.6444 21.5926ZM85.5285 16.3H81.7185L79.3185 25.15L76.9185 16.3H72.8385L77.7585 31H80.7585L85.5285 16.3ZM66.8942 10V14.29H71.0642V10H66.8942Z" fill="black"/>
<path fill-rule="evenodd" clip-rule="evenodd" d="M66.924 41C61.4012 41 56.924 36.5228 56.924 31V20.3835C57.1368 19.5622 57.5212 19.0645 58.0206 18.9056C58.137 18.8686 58.2597 18.85 58.3879 18.85C59.2879 18.85 59.7379 19.81 59.7379 21.07V31H63.9079V20.71C63.9079 18.7119 63.2925 16.9952 61.9003 16.3C61.4739 16.0871 60.9746 15.97 60.3979 15.97C59.8921 15.97 59.3944 16.0667 58.9195 16.3C58.3988 16.5558 57.9056 16.9758 57.4593 17.6126C57.2721 17.8796 57.0932 18.1846 56.924 18.5317V16.3C56.924 16.0121 56.9362 15.727 56.9601 15.4453C56.9165 15.0662 56.894 14.6807 56.894 14.29V10C56.894 4.47715 61.3712 0 66.894 0H71.064C76.5869 0 81.064 4.47715 81.064 10V14.29C81.064 14.6292 81.0472 14.9645 81.0142 15.295C81.0472 15.6255 81.064 15.9608 81.064 16.3V18.7124L79.3183 25.15L76.9183 16.3H72.8383L77.7583 31H80.7583L81.064 30.0576V31C81.064 36.5228 76.5869 41 71.064 41H66.924ZM66.924 31H71.064V16.3H66.924V31ZM71.064 14.29V10H66.894V14.29H71.064Z" fill="black"/>
<path fill-rule="evenodd" clip-rule="evenodd" d="M42.5982 31.0755C42.6388 36.5636 47.1002 41 52.5979 41H56.7379C57.2477 41 57.7486 40.9618 58.2379 40.8882C58.7272 40.9618 59.2281 41 59.7379 41H63.9079C69.4307 41 73.9079 36.5228 73.9079 31V20.71C73.9079 20.2845 73.8939 19.8296 73.8598 19.3521L72.8383 16.3H73.3711C72.996 14.8348 72.3826 13.3007 71.4071 11.8311C71.2961 11.6639 71.1818 11.4996 71.0641 11.3384V14.29H66.8941V10H69.9462C68.9193 8.92337 67.7194 8.03135 66.3864 7.36261C65.2293 3.11943 61.3479 0 56.7379 0H52.5979C47.0751 0 42.5979 4.47715 42.5979 10V16.2518C43.2062 16.0287 43.8619 15.91 44.5534 15.91C45.356 15.91 46.0848 16.0623 46.7379 16.3467C47.0294 16.4736 47.3059 16.627 47.5671 16.8048C48.3279 17.323 48.959 18.0494 49.4561 18.94C49.7635 19.4907 50.0196 20.1042 50.2234 20.77C50.2475 20.854 50.2715 20.9284 50.2955 21.0028C50.3027 21.0251 50.3098 21.0474 50.317 21.07C50.3458 21.1603 50.3746 21.2548 50.4034 21.37L46.2934 21.91C46.2762 21.7373 46.249 21.5845 46.2233 21.4402C46.2043 21.3337 46.1862 21.2319 46.1734 21.13C45.9034 19.48 45.3934 18.64 44.5234 18.64C43.3834 18.64 42.6634 20.26 42.6634 23.65C42.6634 26.89 43.3834 28.63 44.5234 28.63C45.3634 28.63 45.9334 27.7 46.2334 25.9L46.3234 25.3L50.2834 25.81C50.2499 25.9779 50.2069 26.1364 50.165 26.2908C50.1513 26.3414 50.1377 26.3916 50.1246 26.4415C50.1062 26.5113 50.0889 26.5807 50.0734 26.65C49.974 26.9643 49.8619 27.2659 49.7379 27.5539C49.0573 29.1342 48.017 30.3062 46.7379 30.9246C46.6839 30.9507 46.6295 30.9759 46.5746 31C45.9504 31.2746 45.2722 31.42 44.5534 31.42C43.862 31.42 43.2064 31.3003 42.5982 31.0755ZM52.5979 31H56.7379V22.09C56.7379 21.7189 56.7579 21.3787 56.7963 21.07C56.8118 20.9448 56.8304 20.8248 56.8518 20.71C56.9743 20.0538 57.1913 19.5675 57.481 19.2571C57.6148 19.1137 57.7642 19.0078 57.9269 18.94C58.0706 18.8801 58.2248 18.85 58.3879 18.85C58.5504 18.85 58.6982 18.8813 58.8314 18.94C59.2494 19.1243 59.5229 19.5788 59.6518 20.1833C59.687 20.3484 59.7114 20.5249 59.725 20.71C59.7336 20.8267 59.7379 20.9469 59.7379 21.07V31H63.9079V20.71C63.9079 20.0849 63.8477 19.4874 63.7223 18.94C63.5214 18.0633 63.1534 17.3155 62.5979 16.7895C62.052 16.2726 61.3251 15.97 60.3979 15.97C59.6996 15.97 59.0166 16.1544 58.3879 16.6281C57.7742 17.0905 57.2121 17.8286 56.7379 18.94V10H52.5979V31ZM66.9241 16.3V31H71.0641V16.3H66.9241Z" fill="black"/>
<path fill-rule="evenodd" clip-rule="evenodd" d="M59.7379 21.0699C59.7379 20.2535 59.549 19.563 59.1711 19.178C58.9658 18.9689 58.7047 18.8499 58.3879 18.8499C58.1269 18.8499 57.8888 18.9271 57.6798 19.0797C57.4918 19.2169 57.3273 19.4151 57.1906 19.6731C56.9025 20.2169 56.7379 21.0262 56.7379 22.0899V30.9999H52.5979V9.99991H55.0187C52.4865 7.59787 49.0303 5.90991 44.5534 5.90991C36.8487 5.90991 31.9671 10.709 29.7255 16.2999H32.7981V20.4699C32.8178 20.4114 32.8377 20.3535 32.8578 20.2963C33.9057 17.3086 35.4136 16.2377 37.2681 16.1199L37.2381 20.6499C34.8541 20.3627 33.1302 21.4504 32.9877 23.6499C32.9813 23.7477 32.9781 23.8477 32.9781 23.9499V30.9999H29.7241C31.9587 36.5895 36.8258 41.4199 44.5534 41.4199C52.7933 41.4199 57.813 35.3397 59.6078 29.6659C59.6546 29.5178 59.698 29.3687 59.7379 29.2186V21.0699ZM59.1906 16.1822C58.3777 16.4906 57.6215 17.1646 56.9926 18.3945C56.9344 18.5082 56.8773 18.6267 56.8214 18.7501C56.7984 18.8007 56.7757 18.8521 56.7532 18.9043C56.7481 18.9161 56.743 18.928 56.7379 18.9399V11.9095C57.776 13.2565 58.5895 14.7212 59.1906 16.1822ZM28.8381 28.2151V19.0828C28.4672 20.621 28.2834 22.169 28.2834 23.6499C28.2834 25.1256 28.4669 26.6737 28.8381 28.2151ZM50.1885 20.658C50.1855 20.6484 50.1824 20.6388 50.1793 20.6292C50.1635 20.5799 50.1474 20.531 50.1311 20.4823C49.5685 18.8121 48.662 17.497 47.4292 16.714C46.8602 16.3526 46.2216 16.1046 45.5153 15.9873C45.2075 15.9362 44.8868 15.9099 44.5534 15.9099C44.5434 15.9099 44.5334 15.9099 44.5234 15.91C41.7336 15.9239 39.5329 17.8717 38.674 20.8096C38.5535 21.2219 38.4593 21.6537 38.3937 22.1024C38.3789 22.2039 38.3655 22.3063 38.3536 22.4095C38.3422 22.5079 38.3323 22.607 38.3236 22.7069C38.297 23.0146 38.2834 23.3291 38.2834 23.6499C38.2834 23.7997 38.2864 23.9482 38.2923 24.0952C38.2988 24.2591 38.3089 24.4212 38.3226 24.5814C38.3264 24.6261 38.3305 24.6707 38.3348 24.7151C38.3928 25.3064 38.4989 25.8719 38.6487 26.4059C39.4892 29.4008 41.7058 31.4057 44.5234 31.4198C44.5334 31.4199 44.5434 31.4199 44.5534 31.4199C44.8945 31.4199 45.2264 31.3872 45.5477 31.3235C46.2249 31.1891 46.8552 30.9171 47.4252 30.5235C48.5943 29.7163 49.5097 28.3975 50.0554 26.7063C50.0615 26.6875 50.0675 26.6687 50.0734 26.6499C50.0813 26.6147 50.0896 26.5794 50.0984 26.5441C50.1035 26.5234 50.1087 26.5027 50.114 26.482C50.1303 26.4187 50.1476 26.3551 50.165 26.2907C50.2001 26.1615 50.2359 26.0294 50.2663 25.8913C50.2722 25.8644 50.278 25.8373 50.2834 25.8099L46.3234 25.2999L46.2334 25.8999C45.937 27.6784 45.377 28.6076 44.5534 28.6295C44.5435 28.6298 44.5335 28.6299 44.5234 28.6299C43.6273 28.6299 42.9907 27.5548 42.7594 25.5211C42.754 25.4734 42.7487 25.4252 42.7438 25.3765C42.7418 25.3568 42.7398 25.3371 42.7379 25.3173C42.7282 25.2183 42.7195 25.1172 42.7116 25.014C42.7052 24.9293 42.6994 24.8431 42.6943 24.7555C42.6858 24.6107 42.679 24.4619 42.674 24.3093C42.6737 24.3021 42.6735 24.295 42.6733 24.2879L46.9959 25.1524C47.3571 24.9075 47.6328 24.6389 47.8306 24.3944C48.1016 24.0596 48.2152 23.795 48.2609 23.6522C48.2606 23.6515 48.2604 23.6507 48.2601 23.6499C48.2145 23.5114 48.1039 23.2599 47.8473 22.9411C47.6594 22.7076 47.3968 22.448 47.0513 22.2079L42.666 23.3043C42.6672 23.2293 42.6687 23.1552 42.6705 23.082C42.6719 23.0297 42.6734 22.9779 42.6751 22.9266C42.6828 22.6978 42.6942 22.4784 42.7092 22.2683C42.7218 22.0927 42.7369 21.9236 42.7544 21.7611C42.757 21.7366 42.7597 21.7123 42.7625 21.6881C42.7676 21.643 42.7729 21.5984 42.7785 21.5543C43.0244 19.589 43.6509 18.6399 44.5234 18.6399C44.5335 18.6399 44.5435 18.64 44.5534 18.6402C45.4052 18.6594 45.9066 19.499 46.1734 21.1299C46.1862 21.2318 46.2043 21.3336 46.2233 21.4401C46.2354 21.5083 46.2479 21.5784 46.2595 21.6515C46.2662 21.6935 46.2725 21.7365 46.2784 21.7807C46.2832 21.8173 46.2877 21.8548 46.2917 21.8933C46.2923 21.8988 46.2929 21.9043 46.2934 21.9099L50.4034 21.3699C50.3675 21.2259 50.3315 21.1143 50.2955 21.0027C50.2715 20.9283 50.2475 20.8539 50.2234 20.7699C50.212 20.7324 50.2003 20.6951 50.1885 20.658ZM48.2901 23.7685C48.2899 23.7686 48.2889 23.7631 48.2877 23.7516C48.2897 23.7626 48.2903 23.7684 48.2901 23.7685Z" fill="black"/>
<path fill-rule="evenodd" clip-rule="evenodd" d="M28.8381 40.9999C23.3153 40.9999 18.8381 36.5227 18.8381 30.9999V26.2299H21.34L22.6 30.9999H26.86L21.0037 10.0846C22.8356 7.77856 25.6642 6.29989 28.8381 6.29989H32.7981C33.3674 6.29989 33.9255 6.34745 34.4687 6.43882C35.1963 6.28233 35.9214 6.18526 36.6345 6.13999C39.4026 5.96423 42.1194 6.9461 44.1356 8.85094C46.1518 10.7558 47.2863 13.4125 47.2679 16.1861L47.2651 16.6141C46.9622 16.4373 46.6405 16.2917 46.3003 16.1797C45.7638 16.003 45.1812 15.9099 44.5534 15.9099C43.9672 15.9099 43.4068 15.9952 42.8791 16.1571C42.8518 16.1654 42.8246 16.174 42.7975 16.1828C42.6872 16.2185 42.5785 16.2575 42.4712 16.2999C40.8175 16.9529 39.5274 18.3871 38.8381 20.305C38.8185 20.3596 38.7994 20.4145 38.7807 20.4699C38.7596 20.5327 38.7391 20.5959 38.7192 20.6597C38.5543 21.189 38.4336 21.7518 38.3616 22.3422C38.31 22.7646 38.2834 23.2012 38.2834 23.6499C38.2834 23.7505 38.2848 23.8505 38.2874 23.9499C38.3068 24.6747 38.3963 25.3666 38.5486 26.0164C38.6282 26.3564 38.7251 26.6848 38.8381 27.0003C38.9719 27.3736 39.1282 27.7288 39.3054 28.0637C39.5466 28.5195 39.8264 28.9377 40.1406 29.3127C40.3467 29.5587 40.5676 29.7861 40.802 29.9933C41.2829 30.4184 41.8209 30.7586 42.4052 30.9999C42.591 31.0766 42.7814 31.1434 42.9762 31.1997C42.8698 36.6303 38.4342 40.9999 32.9781 40.9999H28.8381ZM43.7136 28.2702C43.7587 28.2318 43.8035 28.1931 43.848 28.1539C45.7141 26.5101 46.8909 24.2397 47.1725 21.7944L46.2934 21.9099C46.2762 21.7372 46.249 21.5844 46.2233 21.4401C46.2043 21.3336 46.1862 21.2318 46.1734 21.1299C46.1494 20.983 46.1235 20.8426 46.0956 20.7086C45.8098 19.337 45.316 18.6399 44.5234 18.6399C43.7907 18.6399 43.2315 19.3092 42.9254 20.6876C42.7553 21.4537 42.6634 22.4388 42.6634 23.6499C42.6634 23.7514 42.6642 23.8514 42.6656 23.9499C42.6737 24.5191 42.705 25.0389 42.7579 25.508C42.8106 25.9754 42.8846 26.3923 42.9781 26.7575C43.1563 27.4529 43.4055 27.9603 43.7136 28.2702ZM32.9781 23.9499C32.9781 22.5683 33.5647 21.5843 34.5376 21.0553C34.93 20.8419 35.3852 20.7026 35.8901 20.641C36.3079 20.59 36.7597 20.5923 37.2381 20.6499L37.2681 16.1199C36.9121 16.1425 36.5689 16.2002 36.2393 16.2999C34.8188 16.7294 33.6504 17.9376 32.7981 20.4699V16.2999H28.8381V30.9999H32.9781V23.9499ZM18.8381 23.2599V16.2999C18.8381 16.2161 18.8392 16.1325 18.8412 16.0491L20.59 23.2599H18.8381Z" fill="black"/>
<path fill-rule="evenodd" clip-rule="evenodd" d="M2.0166 37.022C0.126966 34.5168 -0.477202 31.27 0.384847 28.2528L6.38485 7.25279C7.61142 2.95977 11.5353 0 16.0001 0H20.9801C25.4645 0 29.4006 2.98536 30.6097 7.3037L33.7203 18.413C33.3814 18.9729 33.0733 19.6525 32.7982 20.47V16.3H28.8382V31H32.9782V23.95C32.9782 22.6004 33.5379 21.6302 34.4707 21.0929L36.4897 28.3037C37.3333 31.3164 36.7182 34.5503 34.8276 37.0431C32.937 39.5358 29.9887 41 26.8601 41H22.6001C21.1069 41 19.6753 40.6692 18.3851 40.0689C17.0951 40.6691 15.6636 41 14.1701 41H10.0001C6.86218 41 3.90623 39.5271 2.0166 37.022ZM26.8601 31H22.6001L21.3401 26.23H15.4001L14.1701 31H10.0001L16.0001 10H20.9801L26.8601 31ZM16.1801 23.26H20.5901L18.4001 14.23L16.1801 23.26Z" fill="black"/>
</svg>
