<svg width="59" height="18" viewBox="0 0 59 18" fill="none" xmlns="http://www.w3.org/2000/svg">
<path fill-rule="evenodd" clip-rule="evenodd" d="M47.4596 12.916C47.7171 12.686 47.9374 12.3899 48.1094 12.036C48.1676 11.9162 48.2204 11.7897 48.2671 11.657C48.3209 11.5387 48.3568 11.4027 48.3897 11.2783C48.3966 11.2522 48.4034 11.2267 48.4101 11.202L46.8241 11.085C46.8111 11.215 46.7851 11.332 46.7461 11.423C46.5771 12.021 46.3431 12.307 45.9791 12.307C45.7074 12.307 45.4954 12.0941 45.3572 11.7065C45.2538 11.2059 45.1988 10.7074 45.1919 10.227H48.5011V10.201C48.5011 10.175 48.5009 10.149 48.5006 10.123C48.5005 10.1186 48.5004 10.1143 48.5004 10.11C48.4956 9.82749 48.4686 9.54548 48.4191 9.27172C48.3237 8.74471 48.145 8.2483 47.8806 7.83793C47.75 7.63513 47.5985 7.45334 47.4259 7.29927C47.0465 6.96074 46.5652 6.75598 45.9791 6.75598C45.9621 6.75598 45.9451 6.75616 45.9282 6.75651C46.8941 4.60597 48.8345 2.75598 51.8951 2.75598C54.3372 2.75598 56.1363 4.08738 57.1551 5.66513C58.0917 7.11554 58.4171 8.78425 58.4171 10.201V10.227C58.4171 10.5221 58.3852 10.8098 58.3245 11.0868C58.3358 11.4766 58.29 11.87 58.1852 12.2544C58.1797 12.2746 58.1791 12.2774 58.1621 12.3414C58.1495 12.3888 58.1293 12.4642 58.1044 12.5495C58.0674 12.6764 58.0043 12.8814 57.9068 13.1211C57.0451 15.4214 54.9523 17.477 51.9211 17.477C48.9053 17.477 46.9221 15.6511 45.9333 13.4759C45.9571 13.4766 45.9811 13.477 46.0051 13.477C46.5539 13.477 47.0532 13.279 47.4596 12.916ZM51.1021 6.89067C51.0978 6.8922 51.0935 6.89375 51.0891 6.89532C50.2441 7.20039 49.6131 7.98043 49.3401 8.97639C49.3106 9.084 49.2853 9.19414 49.2643 9.30646C49.2518 9.37343 49.2409 9.44119 49.2315 9.50965C49.2273 9.54034 49.2235 9.57116 49.2199 9.60212C49.2073 9.71206 49.1988 9.82372 49.1944 9.93681C49.1922 9.99418 49.1911 10.0519 49.1911 10.11V10.123C49.1911 10.1578 49.1915 10.1925 49.1923 10.227C49.1932 10.2618 49.1944 10.2965 49.196 10.331C49.1978 10.3693 49.2001 10.4074 49.2029 10.4454C49.2065 10.4946 49.2109 10.5435 49.2161 10.592C49.2213 10.6398 49.2272 10.6873 49.2339 10.7344C49.4102 11.9752 50.118 12.9648 51.0891 13.3276C51.0935 13.3292 51.0978 13.3308 51.1021 13.3324C51.1517 13.3506 51.2019 13.3671 51.2527 13.382C51.4572 13.4418 51.6721 13.4745 51.8951 13.4768C51.9038 13.4769 51.9125 13.477 51.9211 13.477C52.1431 13.477 52.357 13.4446 52.5599 13.382C52.5636 13.3808 52.5673 13.3797 52.5709 13.3785C52.5928 13.3717 52.6145 13.3644 52.6361 13.3569C53.2258 13.15 53.7172 12.6832 54.0369 12.0122C54.0645 11.9542 54.0908 11.8948 54.1158 11.8338C54.1395 11.7762 54.1619 11.7172 54.1831 11.657C54.2369 11.5387 54.2729 11.4027 54.3058 11.2783C54.3089 11.2662 54.3121 11.2543 54.3152 11.2425C54.3189 11.2288 54.3225 11.2153 54.3261 11.202L52.7401 11.085C52.7401 11.085 52.7401 11.085 52.7401 11.085C52.7381 11.1057 52.7357 11.1261 52.7329 11.1461C52.7185 11.2516 52.6949 11.3465 52.6621 11.423C52.6536 11.4531 52.645 11.4823 52.6361 11.5108C52.6025 11.6195 52.5663 11.7167 52.5271 11.8027C52.3772 12.1319 52.1838 12.2964 51.9211 12.3065C51.9125 12.3068 51.9039 12.307 51.8951 12.307C51.6489 12.307 51.4517 12.1321 51.314 11.8108C51.2228 11.5979 51.1577 11.3208 51.1217 10.9877C51.1194 10.9662 51.1172 10.9444 51.1152 10.9225C51.1101 10.8689 51.1057 10.8139 51.1021 10.7576C51.1021 10.7565 51.102 10.7554 51.1019 10.7543C51.0981 10.6939 51.0951 10.6319 51.093 10.5684C51.0929 10.566 51.0928 10.5636 51.0928 10.5611C51.0904 10.4865 51.0891 10.4097 51.0891 10.331V10.227H54.4171V10.201C54.4171 10.1383 54.416 10.0756 54.4139 10.0129C54.408 9.84641 54.3945 9.68037 54.3731 9.5164C54.3644 9.44988 54.3545 9.3837 54.3432 9.31797C54.3423 9.31254 54.3414 9.30711 54.3404 9.30169C54.1793 8.37864 53.7634 7.54583 53.0817 7.09931C52.9441 7.00914 52.7956 6.93473 52.6361 6.8785C52.411 6.79911 52.1641 6.75598 51.8951 6.75598C51.615 6.75598 51.3495 6.80303 51.1021 6.89067ZM52.4745 8.35496C52.3504 8.02067 52.1573 7.86098 51.8951 7.86098C51.634 7.86098 51.4295 8.03912 51.293 8.3615C51.1849 8.61681 51.1194 8.96258 51.1021 9.38198H52.6361C52.6196 8.94122 52.5657 8.60085 52.4745 8.35496ZM45.2274 9.38198C45.2624 9.02435 45.323 8.65784 45.4097 8.28963C45.5453 8.01276 45.7381 7.86098 45.9791 7.86098C46.4341 7.86098 46.6811 8.34198 46.7201 9.38198H45.2274Z" fill="#0B0000"/>
<path fill-rule="evenodd" clip-rule="evenodd" d="M50.4378 12.9624C50.4416 12.9653 50.4453 12.9682 50.4491 12.9711C50.6335 13.1124 50.834 13.2273 51.0476 13.3117C51.2976 13.4105 51.5657 13.4674 51.847 13.4759C50.9099 15.6286 48.8793 17.477 46.0049 17.477C41.4752 17.477 39.2749 13.3577 39.2749 10.123V10.11C39.2749 9.46709 39.3635 8.77513 39.5451 8.08198H39.8751V11.787C39.8751 12.346 40.0441 12.736 40.3431 13.009C40.6551 13.295 41.1101 13.425 41.6431 13.425C41.6756 13.425 41.7072 13.4246 41.7379 13.4238C42.1005 13.4145 42.3496 13.3508 42.7091 13.243V11.969C42.5921 12.034 42.4361 12.073 42.2411 12.073C42.2362 12.073 42.2312 12.0729 42.2263 12.0729C42.0638 12.0706 41.9261 12.0309 41.8251 11.93C41.7341 11.839 41.6821 11.683 41.6821 11.449V8.08198H42.7091V6.92498H41.6821V4.77998H41.2931C42.3817 3.58581 43.9291 2.75598 45.9789 2.75598C48.4209 2.75598 50.22 4.08738 51.2388 5.66513C51.467 6.01845 51.6589 6.38472 51.8186 6.75715C51.2867 6.77351 50.8097 6.96063 50.4127 7.2731C50.2987 7.36288 50.1912 7.463 50.091 7.57239C49.685 8.01552 49.3974 8.61075 49.2679 9.28643C49.2174 9.55011 49.1909 9.82605 49.1909 10.11V10.123C49.1909 10.1491 49.1911 10.1751 49.1916 10.201C49.1917 10.2097 49.1919 10.2183 49.1921 10.227C49.2013 10.6195 49.262 10.9937 49.3671 11.3393C49.381 11.385 49.3956 11.4303 49.4111 11.475C49.4842 11.6869 49.5744 11.8869 49.6797 12.0726C49.6996 12.1077 49.7201 12.1422 49.741 12.1763C49.7649 12.2149 49.7894 12.2529 49.8146 12.2902C49.8383 12.3253 49.8626 12.3598 49.8874 12.3936C50.0482 12.6122 50.233 12.8037 50.4378 12.9624ZM52.2966 12.1471C52.3818 11.7969 52.4185 11.4404 52.4083 11.0868C52.4689 10.8098 52.5009 10.5221 52.5009 10.227H51.0889V10.331C51.0889 11.1173 51.2101 11.7033 51.429 12.0254C51.554 12.2092 51.7107 12.307 51.8949 12.307C51.9028 12.307 51.9107 12.3068 51.9185 12.3066C52.0165 12.3032 52.1049 12.2783 52.185 12.2315C52.2241 12.2087 52.2613 12.1805 52.2966 12.1471ZM52.4648 9.38198C52.4244 8.92432 52.3485 8.45129 52.2289 7.97639C52.1339 7.89888 52.0226 7.86098 51.8949 7.86098C51.6212 7.86098 51.4097 8.0567 51.2735 8.40911C51.1768 8.65916 51.1181 8.9881 51.1019 9.38198H52.4648ZM45.1859 6.89067C45.1816 6.8922 45.1772 6.89375 45.1729 6.89532C44.3279 7.20039 43.6969 7.98043 43.4239 8.97639C43.3944 9.084 43.3691 9.19414 43.3481 9.30646C43.3356 9.37343 43.3247 9.44119 43.3153 9.50965C43.3111 9.54034 43.3072 9.57116 43.3037 9.60212C43.2911 9.71206 43.2825 9.82372 43.2782 9.93681C43.276 9.99418 43.2749 10.0519 43.2749 10.11V10.123C43.2749 10.1578 43.2753 10.1925 43.2761 10.227C43.2769 10.2618 43.2781 10.2965 43.2798 10.331C43.2816 10.3693 43.2838 10.4074 43.2866 10.4454C43.2902 10.4946 43.2946 10.5435 43.2999 10.592C43.305 10.6398 43.3109 10.6873 43.3176 10.7344C43.494 11.9752 44.2018 12.9648 45.1729 13.3276C45.1772 13.3292 45.1816 13.3308 45.1859 13.3324C45.2354 13.3506 45.2856 13.3671 45.3365 13.382C45.541 13.4418 45.7559 13.4745 45.9789 13.4768C45.9876 13.4769 45.9962 13.477 46.0049 13.477C46.2269 13.477 46.4407 13.4446 46.6437 13.382C46.6473 13.3808 46.651 13.3797 46.6547 13.3785C46.6766 13.3717 46.6983 13.3644 46.7199 13.3569C47.3096 13.15 47.8009 12.6832 48.1207 12.0122C48.1483 11.9542 48.1746 11.8948 48.1996 11.8338C48.2232 11.7762 48.2457 11.7172 48.2669 11.657C48.3207 11.5387 48.3566 11.4027 48.3895 11.2783C48.3927 11.2662 48.3959 11.2543 48.399 11.2425C48.4026 11.2288 48.4063 11.2153 48.4099 11.202L46.8239 11.085C46.8239 11.085 46.8239 11.085 46.8239 11.085C46.8218 11.1057 46.8194 11.1261 46.8167 11.1461C46.8023 11.2516 46.7787 11.3465 46.7459 11.423C46.7374 11.4531 46.7287 11.4823 46.7199 11.5108C46.6862 11.6195 46.65 11.7167 46.6109 11.8027C46.4609 12.1319 46.2675 12.2964 46.0049 12.3065C45.9963 12.3068 45.9876 12.307 45.9789 12.307C45.7326 12.307 45.5354 12.1321 45.3977 11.8108C45.3066 11.5979 45.2415 11.3208 45.2055 10.9877C45.2032 10.9662 45.201 10.9444 45.1989 10.9225C45.1938 10.8689 45.1895 10.8139 45.1859 10.7576C45.1858 10.7565 45.1858 10.7554 45.1857 10.7543C45.1819 10.6939 45.1789 10.6319 45.1768 10.5684C45.1767 10.566 45.1766 10.5636 45.1765 10.5611C45.1741 10.4865 45.1729 10.4097 45.1729 10.331V10.227H48.5009V10.201C48.5009 10.1383 48.4998 10.0756 48.4976 10.0129C48.4918 9.84641 48.4782 9.68037 48.4569 9.5164C48.4482 9.44988 48.4382 9.3837 48.427 9.31797C48.4261 9.31254 48.4251 9.30711 48.4242 9.30169C48.2631 8.37864 47.8472 7.54583 47.1655 7.09931C47.0278 7.00914 46.8793 6.93473 46.7199 6.8785C46.4948 6.79911 46.2479 6.75598 45.9789 6.75598C45.6988 6.75598 45.4332 6.80303 45.1859 6.89067ZM46.5582 8.35496C46.4342 8.02067 46.2411 7.86098 45.9789 7.86098C45.7177 7.86098 45.5132 8.03912 45.3767 8.3615C45.2686 8.61681 45.2031 8.96258 45.1859 9.38198H46.7199C46.7034 8.94122 46.6495 8.60085 46.5582 8.35496Z" fill="#0B0000"/>
<path fill-rule="evenodd" clip-rule="evenodd" d="M43.799 8.08203C43.8231 8.04143 43.8479 8.00154 43.8734 7.96241C44.1832 7.48777 44.6005 7.1238 45.0952 6.92503C45.2805 6.85055 45.4767 6.79926 45.6822 6.77403C45.7791 6.76213 45.8781 6.75603 45.979 6.75603C46.2435 6.75603 46.4867 6.79776 46.7088 6.87467C46.6961 5.84352 46.2932 4.90633 45.641 4.2039C45.3617 2.26774 43.6956 0.780029 41.6822 0.780029H39.9922C37.9471 0.780029 36.2471 2.31852 36.0182 4.32278C35.4185 5.02229 35.0562 5.93135 35.0562 6.92503V8.08203C35.0562 8.99399 35.3613 9.83466 35.8752 10.5075V11.787C35.8752 13.231 36.3555 14.7828 37.643 15.9601C38.9584 17.1643 40.5421 17.425 41.6432 17.425C42.6285 17.425 43.32 17.2359 43.8585 17.0743C45.5126 16.5781 46.657 15.0786 46.7074 13.3613C46.4857 13.4375 46.2503 13.477 46.005 13.477C45.6362 13.477 45.2892 13.3942 44.9744 13.243C44.445 12.9888 44.0063 12.5413 43.7073 11.969C43.7054 11.9653 43.7035 11.9617 43.7016 11.958C43.6727 11.9021 43.6451 11.8451 43.6189 11.787C43.5697 11.6781 43.5254 11.5653 43.4862 11.449C43.3832 11.1433 43.3154 10.8134 43.2883 10.4669C43.2841 10.4128 43.2808 10.3582 43.2786 10.3033C43.2762 10.2436 43.275 10.1835 43.275 10.123V10.11C43.275 9.48197 43.4044 8.89304 43.6376 8.38931C43.6814 8.29473 43.7288 8.20315 43.7798 8.11488C43.7861 8.10388 43.7925 8.09293 43.799 8.08203ZM36.3893 6.92503V13.295H38.1833V6.92503H36.3893ZM39.8752 11.787C39.8752 11.8498 39.8773 11.9104 39.8815 11.969C39.9147 12.4321 40.0777 12.7667 40.3432 13.009C40.4137 13.0737 40.4915 13.1303 40.5759 13.1793C40.6153 13.2022 40.6561 13.2235 40.6983 13.243C40.9655 13.367 41.2869 13.425 41.6432 13.425C41.8743 13.425 42.0573 13.405 42.2412 13.3671C42.3882 13.3367 42.5358 13.295 42.7092 13.243V11.969C42.6163 12.0206 42.4988 12.0559 42.3567 12.0682C42.3198 12.0714 42.2813 12.073 42.2412 12.073C42.0952 12.073 41.9687 12.0439 41.8699 11.969C41.8543 11.9572 41.8393 11.9442 41.8252 11.93C41.7884 11.8933 41.758 11.8459 41.7348 11.787C41.7088 11.7211 41.6919 11.6408 41.6853 11.5449C41.6852 11.5431 41.6851 11.5412 41.685 11.5394C41.6831 11.5107 41.6822 11.4806 41.6822 11.449V8.08203H42.7092V6.92503H41.6822V4.78003H39.9922L39.8882 6.92503H39.0562V8.08203H39.8752V11.787ZM38.1833 6.05403V4.19503H36.3763V6.05403H38.1833ZM45.2369 8.86884C45.2107 9.02444 45.1936 9.19599 45.186 9.38203H46.4932C46.565 9.17275 46.6201 8.95562 46.6566 8.73228C46.6048 8.44123 46.524 8.22583 46.414 8.08203C46.3002 7.93319 46.1552 7.86103 45.979 7.86103C45.8074 7.86103 45.6603 7.9379 45.5408 8.08203C45.3983 8.25399 45.2952 8.5217 45.2369 8.86884ZM45.173 10.227V10.331C45.173 10.6508 45.193 10.9374 45.2315 11.1867C45.2458 11.2794 45.2627 11.3669 45.2821 11.449C45.3315 11.6588 45.397 11.8333 45.4773 11.969C45.6076 12.1891 45.7767 12.307 45.979 12.307C46.2053 12.307 46.3814 12.1964 46.5228 11.969C46.5855 11.8682 46.6414 11.7444 46.6919 11.5971C46.647 11.1161 46.5159 10.6527 46.3099 10.227H45.173Z" fill="#0B0000"/>
<path fill-rule="evenodd" clip-rule="evenodd" d="M36.3895 17.2949C34.1803 17.2949 32.3895 15.5041 32.3895 13.2949V8.22558C32.4841 8.13114 32.5988 8.08195 32.7324 8.08195C32.8303 8.08195 32.9114 8.11189 32.9779 8.16448C33.0541 8.22468 33.1114 8.31457 33.1534 8.42326C33.2256 8.61037 33.2524 8.85316 33.2524 9.09595V13.2949H35.0594V8.86195C35.0594 7.96756 34.7935 7.22511 34.2037 6.92495C34.0219 6.83245 33.8094 6.78195 33.5644 6.78195C33.3621 6.78195 33.164 6.82757 32.9754 6.92495C32.8296 7.00025 32.6894 7.10652 32.5573 7.24657C32.4997 7.30756 32.4437 7.37496 32.3895 7.449V6.92495C32.3895 6.79833 32.3953 6.67308 32.4069 6.54946C32.3868 6.3871 32.3765 6.22173 32.3765 6.05395V4.19495C32.3765 1.98581 34.1673 0.194946 36.3765 0.194946H38.1835C40.3926 0.194946 42.1835 1.98581 42.1835 4.19495V6.05395C42.1835 6.20111 42.1755 6.3464 42.16 6.48944C42.1755 6.63248 42.1835 6.77779 42.1835 6.92495H41.6823V4.77995H39.9923L39.8883 6.92495H39.0563V8.08195H39.8753V11.7869C39.8753 12.3459 40.0443 12.7359 40.3433 13.0089C40.3584 13.0228 40.3737 13.0362 40.3895 13.0493C40.5148 13.1536 40.6609 13.235 40.8241 13.2949C41.0642 13.3832 41.3412 13.4249 41.6433 13.4249C41.8499 13.4249 42.018 13.4089 42.1826 13.3785C42.1382 15.549 40.3647 17.2949 38.1835 17.2949H36.3895ZM42.1835 12.0713V8.08195H41.6823V11.4489C41.6823 11.6829 41.7343 11.8389 41.8253 11.9299C41.9172 12.0219 42.0396 12.063 42.1835 12.0713ZM38.1835 6.05395V4.19495H36.3765V6.05395H38.1835ZM36.3895 13.2949H38.1835V6.92495H36.3895V13.2949Z" fill="#0B0000"/>
<path fill-rule="evenodd" clip-rule="evenodd" d="M27.3501 17.295C25.141 17.295 23.3501 15.5041 23.3501 13.295V8.22562C23.4447 8.13117 23.5594 8.08198 23.693 8.08198C24.096 8.08198 24.213 8.58898 24.213 9.09598V13.295H26.02V8.86198C26.02 8.63382 26.0027 8.41555 25.9672 8.21198C25.8949 7.79863 25.7474 7.44593 25.5165 7.19422C25.4153 7.08397 25.2982 6.99309 25.1643 6.92498C24.9826 6.83248 24.77 6.78198 24.525 6.78198C24.3227 6.78198 24.1246 6.8276 23.936 6.92498C23.7267 7.03308 23.529 7.20497 23.3501 7.44904V6.92498C23.3501 4.71584 25.141 2.92498 27.3501 2.92498H29.1051C29.1912 2.92498 29.2767 2.9277 29.3614 2.93306C29.7618 2.83546 30.1918 2.78198 30.6521 2.78198C31.15 2.78198 31.6365 2.84857 32.1009 2.97852C32.5494 2.85233 33.0367 2.78198 33.5641 2.78198C34.9905 2.78198 36.258 3.30822 37.2098 4.19498H36.3762V6.05398H38.1832V5.40919C38.8968 6.61581 39.0591 7.90704 39.0591 8.86198V13.295C39.0591 15.5041 37.2682 17.295 35.0591 17.295H33.2521C33.0511 17.295 32.8536 17.2802 32.6606 17.2516C32.4676 17.2802 32.2701 17.295 32.0691 17.295H30.3271C30.1261 17.295 29.9286 17.2802 29.7356 17.2516C29.5426 17.2802 29.3451 17.295 29.1441 17.295H27.3501ZM27.3501 13.295H29.1441V9.47298C29.1441 9.33843 29.1501 9.21261 29.1618 9.09598C29.1792 8.92068 29.2094 8.76615 29.2509 8.63394C29.2904 8.50767 29.3403 8.40176 29.3992 8.31757C29.4274 8.27737 29.4576 8.24213 29.4897 8.21198C29.581 8.12644 29.6878 8.08198 29.8071 8.08198C29.9244 8.08198 30.0201 8.12923 30.0959 8.21198C30.1573 8.27899 30.2057 8.36928 30.242 8.47661C30.2588 8.52612 30.2729 8.57925 30.2846 8.6354C30.3134 8.77369 30.3271 8.93027 30.3271 9.09598V13.295H32.0691V9.47298C32.0691 9.40559 32.0705 9.34039 32.0732 9.27744C32.0759 9.2147 32.0799 9.1542 32.0852 9.09598C32.0928 9.01331 32.1031 8.93525 32.1159 8.86198C32.1558 8.63464 32.2207 8.45334 32.3093 8.32296C32.3382 8.28052 32.3695 8.24347 32.4033 8.21198C32.4565 8.16246 32.5157 8.12671 32.5808 8.10538C32.627 8.09025 32.6761 8.08238 32.7281 8.082C32.7294 8.08199 32.7308 8.08198 32.7321 8.08198C32.8565 8.08198 32.9536 8.13029 33.0285 8.21198C33.1277 8.32022 33.1878 8.48709 33.2203 8.67789C33.2304 8.73729 33.2379 8.799 33.243 8.86198C33.2493 8.93872 33.2521 9.01735 33.2521 9.09598V13.295H35.0591V8.86198C35.0591 8.44537 35.0014 8.06173 34.8802 7.7404C34.6982 7.25812 34.373 6.9162 33.8849 6.81386C33.7848 6.79289 33.678 6.78198 33.5641 6.78198C33.4076 6.78198 33.2537 6.80928 33.1047 6.8667C33.061 6.88352 33.0178 6.90292 32.9751 6.92498C32.8921 6.96783 32.811 7.0207 32.7321 7.08412C32.4489 7.31178 32.1951 7.67534 31.9911 8.19898C31.9061 7.66372 31.7046 7.22286 31.3501 6.98163C31.3202 6.96131 31.2893 6.94241 31.2572 6.92498C31.0876 6.83276 30.887 6.78198 30.6521 6.78198C30.4501 6.78198 30.2523 6.82746 30.065 6.92498C29.9765 6.97104 29.8903 7.02869 29.8071 7.09865C29.7447 7.15114 29.6839 7.21054 29.6251 7.27716C29.4261 7.50247 29.2493 7.81031 29.1051 8.21198V6.92498H27.3501V13.295ZM36.3892 6.92498V13.295H38.1832V6.92498H36.3892Z" fill="#0B0000"/>
<path fill-rule="evenodd" clip-rule="evenodd" d="M14.311 12.197C14.3898 12.2443 14.4766 12.268 14.5712 12.268C15.0652 12.268 15.3642 11.553 15.3642 10.11C15.3642 8.64098 15.0652 7.93898 14.5712 7.93898C14.4766 7.93898 14.3898 7.9622 14.311 8.00902V12.197ZM14.3145 13.464C14.4031 15.5947 16.1585 17.295 18.311 17.295H20.105C20.306 17.295 20.5035 17.2802 20.6965 17.2516C20.8896 17.2802 21.0871 17.295 21.288 17.295H23.03C23.231 17.295 23.4285 17.2802 23.6215 17.2516C23.8146 17.2802 24.0121 17.295 24.213 17.295H26.02C28.2292 17.295 30.02 15.5041 30.02 13.295V8.86198C30.02 8.63388 30.0108 8.3866 29.987 8.12586C29.9338 8.09734 29.874 8.08198 29.8071 8.08198C29.5089 8.08198 29.289 8.35953 29.1948 8.86198C29.1617 9.03862 29.1441 9.24305 29.1441 9.47298V13.295H27.3501V6.92498H29.1051V8.21198C29.2943 7.68496 29.5397 7.31948 29.8175 7.08999C29.6678 6.46922 29.4178 5.81895 29.013 5.19816C28.048 3.71851 26.4279 2.78198 24.525 2.78198C23.9976 2.78198 23.5104 2.85233 23.0618 2.97852C22.5974 2.84857 22.1109 2.78198 21.613 2.78198C21.1527 2.78198 20.7228 2.83546 20.3224 2.93306C20.2376 2.9277 20.1521 2.92498 20.066 2.92498H18.311C16.1541 2.92498 14.3959 4.63219 14.314 6.76906C14.3984 6.7604 14.4842 6.75598 14.5712 6.75598C14.8851 6.75598 15.1832 6.81477 15.4589 6.92498C15.6763 7.01185 15.8797 7.13067 16.066 7.27783C16.1699 7.35985 16.2684 7.45067 16.3611 7.54967C16.5404 7.74129 16.6978 7.96357 16.8291 8.21198C17.0237 8.57988 17.1611 9.00511 17.2283 9.47298C17.2578 9.67757 17.2737 9.89031 17.2752 10.11C17.2752 10.418 17.2456 10.7131 17.1897 10.9917C17.0262 11.8063 16.6377 12.4796 16.105 12.919C15.9155 13.0753 15.7077 13.202 15.4853 13.295C15.2018 13.4134 14.8946 13.477 14.5712 13.477C14.4844 13.477 14.3988 13.4726 14.3145 13.464ZM18.311 13.295H20.105V9.47298C20.105 9.33843 20.1111 9.21261 20.1227 9.09598C20.1402 8.92068 20.1703 8.76615 20.2118 8.63394C20.2514 8.50767 20.3012 8.40176 20.3602 8.31757C20.3883 8.27737 20.4185 8.24213 20.4507 8.21198C20.5419 8.12644 20.6487 8.08198 20.768 8.08198C20.8853 8.08198 20.981 8.12923 21.0569 8.21198C21.1183 8.27899 21.1667 8.36928 21.203 8.47661C21.2197 8.52612 21.2339 8.57925 21.2456 8.6354C21.2743 8.77369 21.288 8.93027 21.288 9.09598V13.295H23.03V9.47298C23.03 9.40559 23.0314 9.34039 23.0341 9.27744C23.0368 9.2147 23.0408 9.1542 23.0462 9.09598C23.0538 9.01331 23.064 8.93525 23.0768 8.86198C23.1167 8.63464 23.1817 8.45334 23.2703 8.32296C23.2991 8.28052 23.3304 8.24347 23.3642 8.21198C23.4174 8.16246 23.4766 8.12671 23.5417 8.10538C23.5879 8.09025 23.637 8.08238 23.689 8.082C23.6904 8.08199 23.6917 8.08198 23.693 8.08198C23.8174 8.08198 23.9146 8.13029 23.9894 8.21198C24.0886 8.32022 24.1487 8.48709 24.1812 8.67789C24.1914 8.73729 24.1988 8.799 24.204 8.86198C24.2102 8.93872 24.213 9.01735 24.213 9.09598V13.295H26.02V8.86198C26.02 8.44537 25.9623 8.06173 25.8411 7.7404C25.6591 7.25812 25.334 6.9162 24.8458 6.81386C24.7458 6.79289 24.6389 6.78198 24.525 6.78198C24.3685 6.78198 24.2146 6.80928 24.0656 6.8667C24.022 6.88352 23.9788 6.90292 23.936 6.92498C23.8531 6.96783 23.7719 7.0207 23.693 7.08412C23.4099 7.31178 23.1561 7.67534 22.952 8.19898C22.8671 7.66372 22.6655 7.22286 22.311 6.98163C22.2812 6.96131 22.2502 6.94241 22.2182 6.92498C22.0485 6.83276 21.8479 6.78198 21.613 6.78198C21.411 6.78198 21.2133 6.82746 21.0259 6.92498C20.9374 6.97104 20.8512 7.02869 20.768 7.09865C20.7056 7.15114 20.6448 7.21054 20.586 7.27716C20.3871 7.50247 20.2102 7.81031 20.066 8.21198V6.92498H18.311V13.295Z" fill="#0B0000"/>
<path fill-rule="evenodd" clip-rule="evenodd" d="M21.2754 10.0833L21.2755 10.11C21.2755 13.4154 19.0706 17.477 14.5715 17.477C11.5286 17.477 9.5369 15.6441 8.56118 13.4299C9.12531 13.3108 9.63213 13.0174 10.0482 12.5742C10.5051 12.0874 10.8525 11.4199 11.0463 10.604C11.0522 10.5563 11.0609 10.5087 11.0698 10.4598C11.0804 10.4019 11.0912 10.3424 11.0983 10.279L9.27826 9.96698L9.23926 10.279C9.04154 11.3293 8.6324 11.9333 8.07881 11.9905C7.92903 11.3594 7.85449 10.7227 7.85449 10.11C7.85449 8.78981 8.20233 7.35959 8.90349 6.11445C9.04319 6.36037 9.15243 6.676 9.22626 7.05498C9.24862 7.17795 9.26136 7.2817 9.27276 7.37448C9.27462 7.38959 9.27644 7.40442 9.27826 7.41898L11.1763 7.10698C11.1672 7.02513 11.1453 6.93691 11.1242 6.85124C11.1151 6.81445 11.1061 6.77813 11.0983 6.74298C11.02 6.46391 10.9229 6.20306 10.8089 5.96189C10.5742 5.46558 10.268 5.0526 9.90772 4.73562C11.0115 3.55514 12.5635 2.75598 14.5715 2.75598C17.7645 2.75598 19.7941 4.78922 20.709 7.15113C20.4598 7.38243 20.2395 7.72952 20.0663 8.21198V6.92498H18.3113V13.295H20.1053V9.47298C20.1053 8.58898 20.3653 8.08198 20.7683 8.08198C20.8749 8.08198 20.9636 8.12097 21.0358 8.19015C21.1917 8.8258 21.2713 9.46714 21.2754 10.0833ZM15.2724 9.64474C15.0458 9.53186 14.8 9.47698 14.5715 9.47698C14.32 9.47698 14.064 9.53863 13.838 9.65273C13.816 9.66384 13.7948 9.67521 13.7743 9.68678C13.802 9.0517 13.8953 8.59421 14.0484 8.30697C14.1799 8.06009 14.3555 7.93898 14.5715 7.93898C14.7762 7.93898 14.9474 8.05949 15.0777 8.30513C15.2302 8.59263 15.3268 9.05155 15.3555 9.68928C15.329 9.67402 15.3013 9.65913 15.2724 9.64474ZM17.2331 9.50448C17.2596 9.69938 17.2741 9.90156 17.2755 10.11C17.2755 10.3101 17.263 10.5049 17.2389 10.6932C17.0298 12.3273 15.947 13.477 14.5715 13.477C13.1721 13.477 12.0969 12.3367 11.8904 10.6942C11.8668 10.5058 11.8545 10.3107 11.8545 10.11C11.8545 9.90271 11.8677 9.70139 11.8933 9.50713C12.1067 7.88595 13.1784 6.75598 14.5715 6.75598C15.9415 6.75598 17.0109 7.87589 17.2331 9.50448ZM14.05 11.9001C14.1814 12.1457 14.3564 12.268 14.5715 12.268C14.7753 12.268 14.9459 12.1463 15.0761 11.9019C15.2279 11.6168 15.3246 11.1646 15.3546 10.5439C15.3278 10.5593 15.2998 10.5744 15.2706 10.5889C15.045 10.7011 14.8 10.756 14.5715 10.756C14.3317 10.756 14.0798 10.6981 13.8514 10.584C13.8249 10.5708 13.7995 10.5571 13.775 10.5432C13.8038 11.1629 13.8974 11.6147 14.05 11.9001ZM13.7655 10.1334L15.3645 10.1227C15.3645 10.1185 15.3645 10.1142 15.3645 10.11H13.7655C13.7655 10.1178 13.7655 10.1256 13.7655 10.1334Z" fill="#0B0000"/>
<path fill-rule="evenodd" clip-rule="evenodd" d="M14.9998 5.86173C14.9848 5.7952 14.968 5.72907 14.9496 5.6634C14.1153 2.68672 11.6562 0 7.97808 0C5.55657 0 3.52072 1.17499 2.21164 2.95137C0.965311 4.64257 0.455078 6.73503 0.455078 8.784C0.455078 10.834 0.966292 12.9274 2.23855 14.6137C3.57758 16.3886 5.61803 17.49 7.97808 17.49C10.9848 17.49 13.1106 15.6956 14.2369 13.4547C13.6373 13.3739 13.1112 13.0762 12.7069 12.6183C12.3427 12.2058 12.0773 11.6632 11.9463 11.0322C11.9311 10.9587 11.9177 10.884 11.9061 10.8082C11.9047 10.7989 11.9033 10.7896 11.9019 10.7802C11.8985 10.7569 11.8953 10.7334 11.8922 10.7098C11.8879 10.6764 11.884 10.6429 11.8804 10.6092C11.8718 10.5285 11.8653 10.4467 11.8609 10.3638C11.8596 10.3391 11.8585 10.3143 11.8576 10.2894C11.8554 10.2302 11.8543 10.1703 11.8543 10.11C11.8543 8.68248 12.4827 7.5374 13.4377 7.03378C13.7786 6.85403 14.161 6.756 14.5713 6.756C14.7771 6.756 14.9761 6.78128 15.1665 6.82974C15.1627 6.77506 15.1577 6.72022 15.1516 6.66525C15.1175 6.35864 15.0587 6.1064 15.0343 6.00313C15.0213 5.94848 15.0064 5.88869 15.003 5.87482C15.0015 5.86879 15.0005 5.86452 14.9998 5.86173ZM15.0216 8.21106C14.8996 8.0287 14.7479 7.939 14.5713 7.939C14.5 7.939 14.433 7.95222 14.3706 7.97883C13.9782 8.14612 13.7653 8.8426 13.7653 10.11C13.7653 10.1255 13.7653 10.141 13.7654 10.1564C13.7661 10.3043 13.7698 10.4443 13.7765 10.5766C13.7831 10.7084 13.7928 10.8325 13.8054 10.9489C13.8178 11.0634 13.8331 11.1704 13.8511 11.2699C13.9718 11.9367 14.2173 12.268 14.5713 12.268C14.6296 12.268 14.6851 12.2581 14.7377 12.2382C14.8147 12.0031 14.8814 11.7659 14.9379 11.528C14.9654 11.4119 14.9878 11.2947 15.0049 11.1768C15.0056 11.1726 15.0065 11.1677 15.0076 11.1619L15.0088 11.1552C15.0202 11.0926 15.0512 10.9223 15.0736 10.7207C15.1492 10.0402 15.0491 9.37876 14.8084 8.78311C14.8936 8.59901 14.965 8.40784 15.0216 8.21106ZM8.73221 4.0983C9.67807 4.35235 10.4585 5.08871 10.9083 6.18812C10.974 6.34881 11.0327 6.51726 11.0838 6.6931C11.0861 6.70073 11.0883 6.70837 11.0904 6.71602C11.093 6.725 11.0956 6.73399 11.0981 6.743C11.1059 6.77815 11.1149 6.81447 11.124 6.85126C11.1359 6.89935 11.148 6.94825 11.1579 6.99637C11.1657 7.03397 11.1721 7.0711 11.1761 7.107L9.27808 7.419C9.27626 7.40443 9.27444 7.38961 9.27258 7.3745C9.27037 7.35652 9.26811 7.33813 9.26574 7.31927C9.26328 7.29965 9.26069 7.27951 9.25792 7.2588C9.25351 7.22584 9.24862 7.19142 9.24298 7.15525C9.238 7.12326 9.23242 7.0899 9.22608 7.055C9.21543 7.00034 9.20405 6.947 9.19194 6.895C9.1055 6.52367 8.98227 6.2205 8.82763 5.99243C8.60732 5.6675 8.32327 5.495 7.99108 5.495C7.98674 5.495 7.9824 5.49503 7.97808 5.49508C7.41763 5.50207 6.99447 5.96171 6.76223 6.85725C6.7101 7.05828 6.66758 7.28128 6.6353 7.52605C6.63379 7.53751 6.6323 7.54901 6.63083 7.56057C6.62288 7.62319 6.61559 7.68721 6.60897 7.75263C6.59054 7.93486 6.5773 8.12794 6.56948 8.3318C6.5639 8.47707 6.56108 8.62781 6.56108 8.784C6.56108 8.90898 6.56317 9.03059 6.56729 9.14878C6.57314 9.31677 6.5831 9.47784 6.59697 9.63186C6.60162 9.68355 6.60672 9.73444 6.61225 9.78454C6.61857 9.84182 6.62546 9.89805 6.63291 9.95323C6.65961 10.1511 6.69349 10.3354 6.73405 10.5057C6.96334 11.4688 7.40649 11.9872 7.97808 11.9949C7.9824 11.995 7.98674 11.995 7.99108 11.995C8.3391 11.995 8.63428 11.7881 8.86126 11.3972C8.98623 11.182 9.09053 10.9111 9.17158 10.5883C9.18878 10.5197 9.20493 10.4489 9.22001 10.3757C9.22657 10.3439 9.23293 10.3117 9.23908 10.279L9.27808 9.967L11.0981 10.279C11.091 10.3424 11.0802 10.402 11.0696 10.4598C11.0668 10.4756 11.0639 10.4912 11.0612 10.5068C11.0554 10.5394 11.0501 10.5717 11.0461 10.604C11.0449 10.6088 11.0438 10.6137 11.0426 10.6185C11.0396 10.6311 11.0365 10.6438 11.0334 10.6563C10.9854 10.8503 10.9287 11.0357 10.8638 11.212C10.4357 12.3752 9.65279 13.1468 8.68965 13.3995C8.4658 13.4582 8.23221 13.4889 7.99108 13.49C7.98675 13.49 7.98241 13.49 7.97808 13.49C5.88508 13.49 4.45508 11.631 4.45508 8.784C4.45508 5.937 5.88508 4 7.97808 4C7.98241 4 7.98675 4.00001 7.99108 4.00003C8.24681 4.00112 8.49473 4.03451 8.73221 4.0983Z" fill="#0B0000"/>
</svg>
