<svg width="36" height="18" viewBox="0 0 36 18" fill="none" xmlns="http://www.w3.org/2000/svg">
<path fill-rule="evenodd" clip-rule="evenodd" d="M34.8373 4.20389C35.5001 4.91774 35.9054 5.87405 35.9054 6.92503V8.08203C35.9054 8.78771 35.7227 9.4507 35.402 10.0263C35.7268 10.6109 35.9054 11.2774 35.9054 11.969V13.243C35.9054 15.0095 34.7468 16.5668 33.0548 17.0743C32.5163 17.2359 31.8247 17.425 30.8394 17.425C29.7384 17.425 28.1547 17.1643 26.8392 15.9601C25.5518 14.7828 25.0714 13.231 25.0714 11.787V10.5075C24.7494 10.0858 24.5093 9.59814 24.375 9.06833C24.4272 8.53603 24.598 8.20338 24.8447 8.08203C24.915 8.04745 24.9915 8.03003 25.0731 8.03003C25.1579 8.03003 25.2324 8.04839 25.2974 8.08203C25.551 8.21344 25.6581 8.57801 25.6581 8.99203V13.295H27.4651V8.83603C27.4651 8.56909 27.4396 8.3149 27.3872 8.08203C27.3096 7.73744 27.1729 7.43955 26.9724 7.21619C26.944 7.18458 26.9144 7.15446 26.8834 7.12591C26.7968 7.04608 26.7002 6.97855 26.5931 6.92503C26.4083 6.83265 26.1925 6.78203 25.9441 6.78203C25.7211 6.78203 25.503 6.82356 25.2964 6.92503C24.9397 7.10028 24.6173 7.45433 24.3629 8.08203C24.3525 8.10757 24.3423 8.13357 24.3321 8.16003V6.92503H24.2524C24.2524 5.93135 24.6148 5.02229 25.2145 4.32278C25.4434 2.31852 27.1434 0.780029 29.1884 0.780029H30.8784C32.8919 0.780029 34.558 2.26773 34.8373 4.20389ZM30.8784 4.78003H29.1884L29.0844 6.92503H28.2524V8.08203H29.0714V11.787C29.0714 11.8498 29.0736 11.9104 29.0778 11.969C29.111 12.4321 29.274 12.7667 29.5394 13.009C29.61 13.0737 29.6878 13.1303 29.7721 13.1793C29.8116 13.2022 29.8524 13.2235 29.8946 13.243C30.1618 13.367 30.4832 13.425 30.8394 13.425C31.0706 13.425 31.2536 13.405 31.4374 13.3671C31.5845 13.3367 31.7321 13.295 31.9054 13.243V11.969C31.8125 12.0206 31.6951 12.0559 31.553 12.0682C31.5161 12.0714 31.4776 12.073 31.4374 12.073C31.2915 12.073 31.1649 12.0439 31.0661 11.969C31.0505 11.9572 31.0356 11.9442 31.0214 11.93C30.9847 11.8933 30.9543 11.8459 30.9311 11.787C30.9051 11.7211 30.8882 11.6408 30.8816 11.5448C30.8815 11.543 30.8814 11.5412 30.8812 11.5394C30.8794 11.5107 30.8784 11.4806 30.8784 11.449V8.08203H31.9054V6.92503H30.8784V4.78003Z" fill="#0B0000"/>
<path fill-rule="evenodd" clip-rule="evenodd" d="M18.564 12.0482C18.6862 12.2173 18.8375 12.3071 19.0139 12.3071C19.3779 12.3071 19.6119 12.0211 19.7809 11.4231C19.8199 11.3321 19.8459 11.2151 19.8589 11.0851L21.4449 11.2021C21.4382 11.2268 21.4315 11.2523 21.4246 11.2784C21.3917 11.4028 21.3557 11.5388 21.3019 11.6571C21.0932 12.2496 20.7659 12.7166 20.358 13.0291C20.218 13.1364 20.0686 13.2254 19.9112 13.2951C19.6415 13.4145 19.3486 13.4771 19.0399 13.4771C18.8775 13.4771 18.7193 13.461 18.5662 13.4301C18.6374 15.5768 20.4 17.2951 22.564 17.2951H24.358C24.5793 17.2951 24.7964 17.2771 25.008 17.2426C25.2195 17.2771 25.4366 17.2951 25.658 17.2951H27.465C29.652 17.2951 31.429 15.54 31.4644 13.3614C31.2713 13.403 31.0818 13.4251 30.8393 13.4251C30.5372 13.4251 30.2602 13.3833 30.02 13.2951C29.8874 13.2464 29.7661 13.1835 29.658 13.1056C29.6164 13.0757 29.5768 13.0435 29.5393 13.0091C29.2403 12.7361 29.0713 12.3461 29.0713 11.7871V8.0821H28.2523V6.92511H29.0843L29.1883 4.7801H30.1486C29.1552 3.53838 27.6591 2.7821 25.944 2.7821C25.5252 2.7821 25.0836 2.82842 24.6359 2.93648C24.5355 2.92894 24.4342 2.9251 24.332 2.9251H22.564C20.3975 2.9251 18.6333 4.6475 18.566 6.79766C18.7105 6.77031 18.86 6.7561 19.0139 6.7561C19.3314 6.7561 19.6182 6.8162 19.8747 6.92511C20.0396 6.99514 20.192 7.08535 20.332 7.19274C20.4384 7.27439 20.5376 7.36597 20.6297 7.46616C20.8139 7.66655 20.9696 7.90138 21.0972 8.1601C21.2864 8.54371 21.4137 8.97984 21.4805 9.4341C21.5175 9.68615 21.5359 9.94377 21.5359 10.2011V10.2271H18.564V12.0482ZM18.564 9.3821H19.7549C19.7159 8.3421 19.4689 7.8611 19.0139 7.8611C18.8367 7.8611 18.6855 7.94319 18.564 8.09677V9.3821ZM22.564 13.2951H24.358V9.4341C24.358 9.27328 24.3666 9.12588 24.3833 8.9921C24.39 8.93786 24.398 8.88585 24.4073 8.8361C24.4524 8.59456 24.5271 8.40614 24.6255 8.27243C24.6572 8.22927 24.6915 8.19181 24.728 8.1601C24.8274 8.07379 24.9437 8.0301 25.073 8.0301C25.2095 8.0301 25.3195 8.07773 25.4055 8.1601C25.5228 8.27228 25.5958 8.4489 25.6315 8.65745C25.6413 8.71481 25.6483 8.77459 25.6526 8.8361C25.6562 8.88704 25.658 8.93917 25.658 8.9921V13.2951H27.465V8.8361C27.465 8.59868 27.4448 8.37133 27.4034 8.1601C27.2925 7.59362 27.0291 7.1431 26.593 6.92511C26.4081 6.83273 26.1923 6.7821 25.944 6.7821C25.7209 6.7821 25.5028 6.82364 25.2963 6.92511C25.2202 6.96249 25.1456 7.00801 25.073 7.06259C24.7912 7.27427 24.5378 7.62221 24.332 8.1601V6.92511H22.564V13.2951ZM30.8783 5.97147V6.92511H31.2204C31.1354 6.61058 31.0236 6.29025 30.8783 5.97147ZM31.429 8.0821H30.8783V11.4491C30.8783 11.6831 30.9303 11.8391 31.0213 11.9301C31.1253 12.0341 31.2683 12.0731 31.4373 12.0731C31.4466 12.0731 31.4558 12.073 31.465 12.0728V8.8361C31.465 8.6016 31.4547 8.34833 31.429 8.0821Z" fill="#0B0000"/>
<path fill-rule="evenodd" clip-rule="evenodd" d="M22.5643 13.2951H24.3583V9.4341C24.3583 9.08873 24.3983 8.80525 24.4709 8.5857C24.5923 8.21849 24.8048 8.0301 25.0733 8.0301C25.1544 8.0301 25.2262 8.04693 25.2891 8.07787C25.4638 8.80877 25.5362 9.53296 25.5362 10.2011V10.2271C25.5362 10.5223 25.5043 10.81 25.4436 11.0869C25.4549 11.4767 25.4092 11.8701 25.3043 12.2546C25.3023 12.2618 25.301 12.2668 25.2993 12.2733C25.2962 12.2847 25.2921 12.3006 25.2812 12.3415C25.2686 12.3889 25.2484 12.4643 25.2235 12.5496C25.1865 12.6765 25.1234 12.8816 25.0259 13.1212C24.1642 15.4215 22.0714 17.4771 19.0402 17.4771C15.9412 17.4771 13.9325 15.549 12.9728 13.2951H13.9468L16.0138 6.9251H14.3628L13.3228 10.7601L12.5884 8.052C13.2916 5.40763 15.3501 2.7561 19.0142 2.7561C21.4563 2.7561 23.2554 4.0875 24.2742 5.66525C24.5764 6.13327 24.815 6.62401 24.9995 7.12169C24.7472 7.33699 24.52 7.66955 24.3323 8.1601V6.9251H22.5643V13.2951ZM18.2212 6.89079C18.2169 6.89233 18.2126 6.89388 18.2082 6.89544C17.3632 7.20051 16.7322 7.98057 16.4592 8.97653C16.4297 9.08413 16.4044 9.19426 16.3834 9.30658C16.3709 9.37355 16.36 9.44131 16.3506 9.50978C16.3464 9.54046 16.3426 9.57128 16.339 9.60224C16.3264 9.71218 16.3179 9.82384 16.3135 9.93694C16.3113 9.9943 16.3102 10.052 16.3102 10.1101V10.1231C16.3102 10.1579 16.3106 10.1926 16.3114 10.2271C16.3123 10.2619 16.3135 10.2966 16.3151 10.3311C16.3169 10.3694 16.3192 10.4075 16.322 10.4455C16.3256 10.4947 16.33 10.5436 16.3352 10.5921C16.3404 10.6399 16.3463 10.6874 16.353 10.7345C16.5293 11.9754 17.2372 12.9649 18.2082 13.3277C18.2126 13.3293 18.2169 13.3309 18.2212 13.3325C18.2708 13.3507 18.321 13.3672 18.3718 13.3821C18.5763 13.4419 18.7912 13.4746 19.0142 13.477C19.0229 13.4771 19.0316 13.4771 19.0402 13.4771C19.2622 13.4771 19.4761 13.4447 19.679 13.3821C19.6827 13.381 19.6864 13.3798 19.69 13.3787C19.7119 13.3718 19.7336 13.3646 19.7552 13.357C20.3449 13.1501 20.8363 12.6833 21.156 12.0123C21.1836 11.9543 21.2099 11.8949 21.2349 11.8339C21.2586 11.7763 21.281 11.7174 21.3022 11.6571C21.356 11.5388 21.392 11.4028 21.4249 11.2784C21.4281 11.2663 21.4312 11.2544 21.4343 11.2426C21.438 11.2289 21.4416 11.2154 21.4452 11.2021L19.8592 11.0851C19.8572 11.1058 19.8548 11.1262 19.852 11.1462C19.8376 11.2517 19.814 11.3466 19.7812 11.4231C19.7727 11.4532 19.7641 11.4825 19.7552 11.511C19.7216 11.6196 19.6854 11.7168 19.6462 11.8028C19.4963 12.132 19.3029 12.2965 19.0402 12.3066C19.0316 12.3069 19.023 12.3071 19.0142 12.3071C18.768 12.3071 18.5708 12.1323 18.4331 11.8109C18.3419 11.598 18.2768 11.3209 18.2408 10.9878C18.2385 10.9663 18.2363 10.9446 18.2343 10.9226C18.2292 10.869 18.2248 10.814 18.2212 10.7577C18.2212 10.7566 18.2211 10.7555 18.221 10.7544C18.2172 10.694 18.2142 10.632 18.2121 10.5685C18.212 10.5661 18.2119 10.5637 18.2119 10.5613C18.2095 10.4866 18.2082 10.4098 18.2082 10.3311V10.2271H21.5362V10.2011C21.5362 10.1384 21.5351 10.0757 21.533 10.0131C21.5271 9.84654 21.5136 9.68049 21.4922 9.51653C21.4835 9.45 21.4736 9.38382 21.4623 9.31809C21.4614 9.31266 21.4605 9.30723 21.4595 9.30181C21.2984 8.37876 20.8826 7.54596 20.2008 7.09943C20.0632 7.00927 19.9147 6.93485 19.7552 6.87862C19.5301 6.79923 19.2832 6.7561 19.0142 6.7561C18.7341 6.7561 18.4686 6.80315 18.2212 6.89079ZM19.5936 8.35509C19.4695 8.02079 19.2764 7.8611 19.0142 7.8611C18.7531 7.8611 18.5486 8.03924 18.4121 8.36163C18.304 8.61693 18.2385 8.9627 18.2212 9.3821H19.7552C19.7387 8.94134 19.6848 8.60098 19.5936 8.35509Z" fill="#0B0000"/>
<path fill-rule="evenodd" clip-rule="evenodd" d="M12.6467 17.295C10.9268 17.295 9.39945 16.1956 8.85357 14.5646L8.42866 13.295H10.5912V11.891H7.95875L7.00152 9.03105H9.47323V7.66605H6.78223V5.59905H10.3182V4.19505H7.59115C8.34234 3.39046 9.39901 2.92505 10.5147 2.92505H12.2827C12.6405 2.92505 12.9895 2.97254 13.3228 3.06224C13.656 2.97254 14.005 2.92505 14.3628 2.92505H16.0138C17.2939 2.92505 18.4967 3.53777 19.2494 4.57328C19.7654 5.28329 20.0271 6.13325 20.0133 6.98996C19.7228 6.84026 19.39 6.75605 19.0142 6.75605C18.3943 6.75605 17.8458 6.98645 17.4077 7.37738C17.3065 7.46775 17.2111 7.56669 17.1221 7.67334C16.9907 7.83079 16.8732 8.00504 16.7712 8.19333C16.4986 8.69613 16.3361 9.29902 16.3131 9.94912C16.3112 10.0025 16.3102 10.0561 16.3102 10.11V10.123C16.3102 10.6742 16.4116 11.1916 16.5946 11.6473C16.6996 11.9089 16.8315 12.1502 16.9865 12.3659C17.2933 12.7927 17.6905 13.1192 18.149 13.3046L17.7515 14.5296C17.2164 16.1785 15.6802 17.295 13.9467 17.295H12.6467ZM18.559 12.0409L19.1476 10.227H18.2082V10.331C18.2082 11.1301 18.3334 11.7223 18.559 12.0409ZM19.6694 8.61903L19.4218 9.38205H18.2212C18.2576 8.49699 18.5088 7.93985 18.9221 7.86878C18.952 7.86365 18.9827 7.86105 19.0142 7.86105C19.1656 7.86105 19.2939 7.91428 19.3992 8.0236C19.5191 8.14802 19.6091 8.34508 19.6694 8.61903ZM16.0138 6.92505H14.3628L13.3228 10.76L12.2827 6.92505H10.5147L12.6467 13.295H13.9467L16.0138 6.92505Z" fill="#0B0000"/>
<path fill-rule="evenodd" clip-rule="evenodd" d="M4.83203 17.2951C2.62289 17.2951 0.832031 15.5042 0.832031 13.2951V4.19507C0.832031 1.98593 2.62289 0.195068 4.83203 0.195068H10.318C12.5272 0.195068 14.318 1.98593 14.318 4.19507V5.59907C14.318 6.52631 14.0025 7.37985 13.473 8.05822V9.03107C13.473 9.05956 13.4727 9.08797 13.4721 9.11632C13.5513 9.19845 13.6269 9.28395 13.6988 9.3726L13.3226 10.7601L12.2826 6.92507H10.5146L12.6466 13.2951H13.9466L14.5613 11.4007C14.5809 11.5614 14.591 11.725 14.591 11.8911V13.2951C14.591 15.5042 12.8002 17.2951 10.591 17.2951H4.83203ZM10.591 11.8911H6.78203V9.03107H9.47303V7.66607H6.78203V5.59907H10.318V4.19507H4.83203V13.2951H10.591V11.8911Z" fill="#0B0000"/>
</svg>
