<svg width="40" height="18" viewBox="0 0 40 18" fill="none" xmlns="http://www.w3.org/2000/svg">
<path fill-rule="evenodd" clip-rule="evenodd" d="M27.1029 13.3872L27.0934 13.3635C27.0824 13.3361 27.0718 13.309 27.0617 13.2825C27.3849 13.0843 27.6601 12.7457 27.8683 12.3177C27.9205 12.2103 27.9686 12.0973 28.0121 11.9795C28.015 11.9717 28.0178 11.9638 28.0207 11.956V13.295H29.7887V4.19498H29.0789C30.2484 3.25358 31.7601 2.75598 33.2253 2.75598C35.6258 2.75598 37.8829 4.05363 38.983 6.28534C39.1159 6.55397 39.2273 6.84153 39.2495 6.89891C39.2514 6.90381 39.2526 6.90703 39.2532 6.90842C39.5917 7.75468 39.6282 8.68281 39.3713 9.54089C39.5973 10.2587 39.6515 10.9308 39.6428 11.4704C39.5928 15.0299 36.5443 17.477 33.2123 17.477C30.783 17.477 28.2125 16.1107 27.1029 13.3872ZM33.7442 6.80695C33.5855 6.77507 33.4206 6.75772 33.2513 6.7561C33.2426 6.75602 33.2339 6.75598 33.2253 6.75598C32.5685 6.75598 32.0221 6.95233 31.6324 7.27201C31.6206 7.28172 31.6089 7.29154 31.5973 7.30147C31.2465 7.60331 31.0303 8.00828 30.985 8.45898C30.9799 8.51041 30.9769 8.56244 30.9763 8.61498C30.9732 8.80981 30.9937 8.99109 31.0387 9.1595C31.0635 9.25241 31.0958 9.34141 31.1358 9.4266C31.1819 9.52498 31.2382 9.61828 31.3049 9.70667C31.3478 9.76345 31.3949 9.81821 31.4465 9.87099C31.5848 10.0126 31.7547 10.14 31.9573 10.254C31.9967 10.2761 32.0373 10.2978 32.0791 10.3189C32.145 10.3522 32.2139 10.3842 32.286 10.4151C32.2908 10.4188 32.2956 10.4225 32.3004 10.4262C32.3888 10.4938 32.4815 10.5506 32.5755 10.5968L32.5943 10.55L32.6467 10.573L32.6291 10.622C32.7632 10.6821 32.8993 10.7213 33.0299 10.7409L33.2513 10.838C33.2691 10.8457 33.2864 10.8534 33.3034 10.861C33.3107 10.8643 33.3179 10.8676 33.325 10.8709C33.3845 10.8983 33.4389 10.9257 33.4885 10.9534C33.4953 10.9573 33.502 10.9611 33.5086 10.9649C33.5389 10.9824 33.5672 11.0001 33.5937 11.0181C33.6196 11.0356 33.6438 11.0535 33.6662 11.0717C33.6706 11.0753 33.675 11.0789 33.6792 11.0825C33.7817 11.1688 33.8472 11.2641 33.8824 11.3791C33.8833 11.3822 33.8843 11.3854 33.8852 11.3885C33.905 11.4573 33.9143 11.533 33.9143 11.618C33.9143 11.6791 33.9079 11.7383 33.8955 11.7946C33.8286 12.0981 33.5871 12.32 33.2253 12.32C33.2209 12.32 33.2166 12.32 33.2123 12.3199C33.1396 12.3189 33.0684 12.3096 32.9995 12.2914C32.9856 12.2877 32.9718 12.2837 32.9581 12.2793C32.8637 12.249 32.774 12.2011 32.6908 12.134C32.6889 12.1325 32.6871 12.1309 32.6852 12.1294C32.5738 12.0379 32.4745 11.9115 32.3921 11.7459C32.3721 11.7056 32.3531 11.663 32.3351 11.618C32.3284 11.601 32.3217 11.5837 32.3153 11.566C32.3108 11.5555 32.3063 11.5447 32.3019 11.5336C32.2853 11.492 32.2692 11.4459 32.2557 11.3963C32.2533 11.3872 32.2509 11.3779 32.2486 11.3686C32.2471 11.3626 32.2457 11.3565 32.2443 11.3504C32.2437 11.3475 32.2431 11.3447 32.2425 11.3419C32.2399 11.3303 32.2376 11.3186 32.2354 11.3067C32.2348 11.3034 32.2342 11.3002 32.2337 11.2969C32.2298 11.2744 32.2266 11.2514 32.2243 11.228C32.2243 11.228 32.2243 11.228 32.2243 11.228L30.6773 11.475C30.6845 11.4991 30.6917 11.5236 30.699 11.5484C30.7058 11.5714 30.7126 11.5946 30.7196 11.618C30.7458 11.7054 30.7738 11.7944 30.8073 11.878C30.8361 11.9487 30.8674 12.0172 30.9011 12.0833C30.9136 12.1078 30.9263 12.1319 30.9394 12.1556C31.0255 12.3123 31.1251 12.4553 31.2358 12.5846C31.2617 12.6149 31.2883 12.6445 31.3154 12.6732C31.3236 12.6819 31.3318 12.6905 31.3401 12.6991C31.584 12.9504 31.8727 13.1419 32.1843 13.272C32.1884 13.2737 32.1924 13.2754 32.1965 13.2771C32.3183 13.3272 32.4436 13.368 32.5709 13.3993C32.7808 13.451 32.9965 13.477 33.2123 13.477C33.2166 13.477 33.2209 13.477 33.2253 13.477C34.1375 13.4733 34.8479 13.083 35.2562 12.5318C35.4592 12.2577 35.5875 11.9439 35.6288 11.618C35.6376 11.5491 35.6424 11.4797 35.6433 11.41C35.6463 11.2359 35.6336 11.0618 35.5956 10.8908C35.5941 10.884 35.5925 10.8772 35.5909 10.8704C35.5558 10.7204 35.5008 10.5729 35.4196 10.4302C35.3904 10.3787 35.3576 10.3279 35.3212 10.2777C35.1773 10.0796 34.9754 9.89266 34.6969 9.72332C34.5763 9.64999 34.4414 9.57996 34.2905 9.51373C34.2285 9.48649 34.1638 9.4599 34.0963 9.43398L33.1863 9.06998C33.1121 9.04337 33.0469 9.01649 32.9896 8.98924C32.9775 8.9835 32.9657 8.97774 32.9543 8.97196C32.9498 8.96967 32.9453 8.96737 32.9409 8.96508C32.9345 8.96175 32.9282 8.95843 32.9221 8.95509C32.9132 8.95027 32.9045 8.94544 32.896 8.94059C32.7313 8.84637 32.6508 8.74743 32.6146 8.64058C32.614 8.63896 32.6135 8.63733 32.613 8.6357C32.5945 8.57917 32.5883 8.52042 32.5883 8.45898C32.5883 8.43336 32.5897 8.40839 32.5926 8.3841C32.6297 8.07146 32.8985 7.87146 33.2253 7.86138C33.2339 7.86112 33.2426 7.86098 33.2513 7.86098C33.2945 7.86098 33.3375 7.86448 33.38 7.87144C33.3924 7.87349 33.4049 7.87583 33.4172 7.87847C33.4773 7.89132 33.5361 7.9112 33.5926 7.93802C33.6056 7.94419 33.6185 7.95072 33.6312 7.95761C33.7929 8.0451 33.9337 8.19139 34.0313 8.39398C34.0385 8.40671 34.045 8.41944 34.0509 8.4322C34.055 8.44111 34.0588 8.45003 34.0624 8.45898C34.0827 8.5102 34.0948 8.56239 34.1075 8.6178C34.1103 8.62995 34.1132 8.64225 34.1161 8.65473C34.1169 8.65783 34.1176 8.66095 34.1184 8.66408C34.1196 8.66935 34.1209 8.67465 34.1223 8.67998L35.5393 8.39398C35.5307 8.37263 35.5225 8.35197 35.5146 8.33191C35.5142 8.33102 35.5139 8.33014 35.5135 8.32926C35.4735 8.22831 35.4393 8.14214 35.3963 8.05598C35.3535 7.96905 35.3056 7.88555 35.2529 7.80578C35.2353 7.77911 35.2171 7.75284 35.1985 7.72701C35.1128 7.60853 35.0162 7.49905 34.91 7.39963C34.902 7.3921 34.8939 7.38463 34.8857 7.37722C34.858 7.35198 34.8296 7.32741 34.8006 7.30354C34.7955 7.29931 34.7903 7.2951 34.7851 7.29091C34.5933 7.13572 34.3755 7.01049 34.1383 6.92032C34.1117 6.9102 34.0848 6.90052 34.0577 6.89129C34.0312 6.88227 34.0045 6.87368 33.9776 6.86553C33.9434 6.85517 33.9088 6.84551 33.874 6.83657C33.8569 6.8322 33.8398 6.828 33.8225 6.82397C33.7966 6.8179 33.7705 6.81222 33.7442 6.80695ZM27.9687 5.37934C27.6366 5.8559 27.3742 6.39381 27.2028 6.99012C27.5287 7.21948 27.7887 7.60722 27.9687 8.10798V5.37934ZM26.6921 11.8195C26.8183 12.0896 26.9928 12.229 27.2147 12.229C27.4811 12.229 27.6858 12.0471 27.8239 11.6963C27.9622 11.3453 28.0337 10.8252 28.0337 10.149C28.0337 9.50337 27.9721 8.99778 27.8541 8.64131C27.8466 8.61866 27.8388 8.59661 27.8309 8.57517C27.8297 8.57203 27.8285 8.5689 27.8274 8.56578C27.6908 8.20375 27.4888 8.01698 27.2277 8.01698C27.1465 8.01698 27.071 8.03699 27.0014 8.07659C26.9872 8.23406 26.9789 8.39473 26.9767 8.55857C26.971 8.94402 27.0004 9.34074 27.0732 9.73988C26.761 10.3882 26.6305 11.107 26.6921 11.8195Z" fill="#0B0000"/>
<path fill-rule="evenodd" clip-rule="evenodd" d="M24.6061 10.8318C24.6447 11.2492 24.719 11.6261 24.824 11.9559C25.0275 12.595 25.3463 13.0573 25.7432 13.2949C25.9426 13.4143 26.1616 13.4769 26.3957 13.4769C26.6257 13.4769 26.8422 13.4124 27.041 13.2949C27.1005 13.2598 27.1584 13.2198 27.2147 13.1755C27.5207 12.9341 27.776 12.5615 27.9619 12.1083C27.9823 12.0585 28.0019 12.0077 28.0207 11.9559V13.2949H29.7887V4.19495H27.9687V8.10795C27.9502 8.05643 27.9308 8.0061 27.9106 7.95702C27.7395 7.54128 27.5088 7.21493 27.2277 7.008C27.0061 6.84487 26.7532 6.75595 26.4737 6.75595C26.229 6.75595 25.9988 6.82054 25.7887 6.94446C25.4219 7.1608 25.1167 7.55796 24.9042 8.10795C24.7715 8.45149 24.6749 8.85467 24.622 9.31065C24.6183 9.34234 24.6149 9.37428 24.6116 9.40648C24.5951 9.57015 24.5841 9.74035 24.579 9.91677C24.5783 9.94103 24.5777 9.96541 24.5772 9.9899C24.5762 10.0424 24.5757 10.0954 24.5757 10.1489C24.5757 10.1578 24.5757 10.1667 24.5757 10.1756C24.5758 10.193 24.5759 10.2105 24.5761 10.2278C24.5777 10.3955 24.5845 10.5581 24.5964 10.7152C24.5993 10.7544 24.6026 10.7933 24.6061 10.8318ZM26.7671 11.9559C26.7746 11.9675 26.7822 11.9786 26.79 11.9894C26.9037 12.1478 27.0454 12.2289 27.2147 12.2289C27.3505 12.2289 27.4702 12.1817 27.5733 12.0889C27.6051 12.0603 27.6353 12.0273 27.6639 11.9901C27.6724 11.9791 27.6807 11.9677 27.6889 11.9559C27.71 11.9256 27.7301 11.8929 27.7493 11.8576C27.8967 11.5869 27.9885 11.1713 28.0207 10.6209C28.0276 10.5033 28.0317 10.3795 28.0331 10.2496C28.0335 10.2165 28.0337 10.1829 28.0337 10.1489C28.0337 10.1059 28.0334 10.0635 28.0329 10.0218C28.0312 9.89666 28.0272 9.77713 28.0207 9.66328C27.9826 8.99367 27.8615 8.52035 27.6659 8.25805C27.6576 8.24693 27.6492 8.2362 27.6406 8.22585C27.6016 8.1786 27.5597 8.13927 27.5152 8.10795C27.4484 8.06098 27.3755 8.03203 27.2968 8.02148C27.2742 8.01846 27.2512 8.01695 27.2277 8.01695C27.1342 8.01695 27.0481 8.04351 26.97 8.09601C26.9643 8.09985 26.9586 8.10383 26.953 8.10795C26.9024 8.145 26.8552 8.19326 26.8117 8.25257C26.7479 8.33949 26.6919 8.45013 26.6442 8.58393C26.5621 8.81409 26.5045 9.11278 26.4737 9.47719C26.4737 9.47689 26.4737 9.47748 26.4737 9.47719C26.4565 9.68053 26.4477 9.9052 26.4477 10.1489C26.4477 10.3678 26.4545 10.5703 26.4681 10.7559C26.4868 11.0122 26.5184 11.2365 26.5627 11.4277C26.6088 11.6267 26.6687 11.7897 26.7423 11.9156C26.7504 11.9295 26.7587 11.943 26.7671 11.9559ZM22.808 7.44455C23.4299 8.04131 23.8183 8.98473 23.8258 10.1099C23.8258 10.123 23.8258 10.136 23.8257 10.1489C23.8166 11.2613 23.4208 12.2031 22.7925 12.7979C22.3379 13.2283 21.7615 13.4769 21.1218 13.4769C21.1203 13.4769 21.1188 13.4769 21.1172 13.4769C21.2469 13.8331 21.4033 14.1817 21.5902 14.5177C22.3729 15.9249 23.9685 17.4769 26.3957 17.4769C26.9139 17.4769 27.3894 17.4095 27.8247 17.2902C27.8896 17.2934 27.955 17.2949 28.0207 17.2949H29.7887C31.955 17.2949 33.7192 15.5728 33.7867 13.4228C33.6057 13.4581 33.4139 13.4769 33.2123 13.4769C32.8816 13.4769 32.5509 13.4158 32.2412 13.2949C32.1664 13.2657 32.0928 13.2331 32.0207 13.1969C31.8822 13.1275 31.7494 13.0453 31.6242 12.9504C31.2986 12.7036 31.025 12.3713 30.8405 11.9559C30.829 11.9303 30.818 11.9043 30.8073 11.8779C30.7649 11.772 30.7312 11.6575 30.699 11.5484C30.6917 11.5236 30.6845 11.499 30.6773 11.4749L32.2243 11.2279C32.2373 11.3579 32.2763 11.4749 32.3153 11.5659C32.5103 12.0989 32.8483 12.3199 33.2253 12.3199C33.4778 12.3199 33.6718 12.2118 33.7887 12.0432V11.196C33.685 11.0597 33.5121 10.9508 33.2513 10.8379L32.3023 10.4219C32.2071 10.3817 32.1174 10.3395 32.0329 10.2951C31.9447 10.2487 31.8623 10.2 31.7856 10.1489C31.6889 10.0846 31.6013 10.0165 31.5225 9.94445C31.4835 9.90883 31.4467 9.87225 31.4121 9.8347C31.3104 9.72467 31.2272 9.60628 31.1616 9.47914C31.0314 9.22662 30.9712 8.93959 30.9763 8.61495C30.9785 8.43917 31.0062 8.2691 31.0575 8.10795C31.1583 7.79085 31.35 7.50824 31.6174 7.28444C31.723 7.19601 31.8404 7.11676 31.9687 7.04819C32.3148 6.86319 32.7399 6.75595 33.2253 6.75595C33.4197 6.75595 33.6083 6.77666 33.7887 6.81626V4.19495C33.7887 1.98581 31.9978 0.194946 29.7887 0.194946H27.9687C26.0573 0.194946 24.459 1.53565 24.0629 3.32797C22.9706 3.88568 22.1629 4.77687 21.6517 5.66159C21.4482 6.01377 21.2786 6.3804 21.1388 6.75601C21.7808 6.76035 22.356 7.01094 22.808 7.44455ZM20.7478 12.1062C20.6261 11.4485 20.5757 10.7865 20.5757 10.1489C20.5757 9.47096 20.6324 8.7706 20.7687 8.07868C20.8704 7.98517 20.9884 7.93895 21.1218 7.93895C21.6158 7.93895 21.9148 8.64095 21.9148 10.1099C21.9148 10.123 21.9148 10.136 21.9148 10.1489C21.9094 11.5658 21.6114 12.2679 21.1218 12.2679C20.9792 12.2679 20.8542 12.2141 20.7478 12.1062ZM33.7887 8.06772C33.6331 7.9309 33.4447 7.86095 33.2513 7.86095C32.8873 7.86095 32.5883 8.09495 32.5883 8.45895C32.5883 8.69295 32.6793 8.88795 33.1863 9.06995L33.7887 9.31092V8.06772Z" fill="#0B0000"/>
<path fill-rule="evenodd" clip-rule="evenodd" d="M27.8257 10.0833L27.8258 10.11C27.8258 10.7522 27.7425 11.423 27.5754 12.087C27.4718 12.1811 27.3514 12.229 27.2146 12.229C26.7076 12.229 26.4476 11.501 26.4476 10.149C26.4476 10.1359 26.4476 10.1229 26.4477 10.11C26.4477 10.1041 26.4477 10.0983 26.4478 10.0925C26.4555 8.73793 26.7404 8.01698 27.2276 8.01698C27.3601 8.01698 27.4774 8.06508 27.5786 8.15974C27.7395 8.80534 27.8215 9.45731 27.8257 10.0833ZM27.2246 13.1676C26.9782 13.3649 26.6986 13.477 26.3956 13.477C26.0482 13.477 25.734 13.3389 25.4682 13.0826C24.9183 12.5524 24.5756 11.5161 24.5756 10.149C24.5756 10.136 24.5757 10.123 24.5757 10.11C24.5757 10.1083 24.5757 10.1066 24.5757 10.105C24.5831 8.73022 24.9361 7.70969 25.4878 7.17573C25.7708 6.90185 26.106 6.75598 26.4736 6.75598C26.7382 6.75598 26.9789 6.83566 27.1918 6.98252C26.2468 4.69328 24.2385 2.75598 21.1218 2.75598C18.1007 2.75598 16.1118 4.56494 15.1287 6.75985C15.7128 6.79253 16.237 7.03126 16.657 7.42644C17.2901 8.02213 17.6864 8.97329 17.6939 10.11C17.6939 11.2381 17.2971 12.1942 16.6627 12.796C16.2413 13.1958 15.715 13.4392 15.1306 13.4729C16.1131 15.6678 18.0987 17.477 21.1218 17.477C24.2673 17.477 26.2914 15.4917 27.2246 13.1676ZM14.6699 12.1552C14.7639 12.2304 14.8708 12.268 14.9899 12.268C15.4839 12.268 15.7829 11.553 15.7829 10.11C15.7829 8.64098 15.4839 7.93898 14.9899 7.93898C14.8735 7.93898 14.7688 7.97418 14.6764 8.04529C14.4951 8.73607 14.4048 9.43731 14.4048 10.11C14.4048 10.776 14.4929 11.4704 14.6699 12.1552ZM21.8227 9.64474C21.5961 9.53186 21.3503 9.47698 21.1218 9.47698C20.8703 9.47698 20.6143 9.53863 20.3883 9.65273C20.3663 9.66384 20.3451 9.67521 20.3245 9.68678C20.3523 9.0517 20.4457 8.59421 20.5987 8.30697C20.7302 8.06009 20.9058 7.93898 21.1218 7.93898C21.3265 7.93898 21.4977 8.05949 21.628 8.30513C21.7805 8.59263 21.8771 9.05155 21.9058 9.68928C21.8793 9.67402 21.8516 9.65913 21.8227 9.64474ZM23.7833 9.50448C23.8099 9.69938 23.8244 9.90156 23.8258 10.11C23.8258 10.3101 23.8133 10.5049 23.7892 10.6932C23.5801 12.3273 22.4973 13.477 21.1218 13.477C19.7224 13.477 18.6472 12.3367 18.4407 10.6942C18.417 10.5058 18.4048 10.3107 18.4048 10.11C18.4048 9.90271 18.418 9.70139 18.4436 9.50713C18.657 7.88595 19.7287 6.75598 21.1218 6.75598C22.4918 6.75598 23.5612 7.87589 23.7833 9.50448ZM20.6003 11.9001C20.7317 12.1457 20.9067 12.268 21.1218 12.268C21.3256 12.268 21.4962 12.1463 21.6263 11.9019C21.7782 11.6168 21.8749 11.1646 21.9049 10.5439C21.8781 10.5593 21.8501 10.5744 21.8209 10.5889C21.5953 10.7011 21.3503 10.756 21.1218 10.756C20.882 10.756 20.6301 10.6981 20.4017 10.584C20.3752 10.5708 20.3498 10.5571 20.3253 10.5432C20.3541 11.1629 20.4477 11.6147 20.6003 11.9001ZM20.3158 10.1334L21.9148 10.1227C21.9148 10.1185 21.9148 10.1142 21.9148 10.11H20.3158C20.3158 10.1178 20.3158 10.1256 20.3158 10.1334Z" fill="#0B0000"/>
<path fill-rule="evenodd" clip-rule="evenodd" d="M21.6939 10.0833L21.6939 10.11C21.6939 10.7753 21.6046 11.4713 21.4252 12.1586C21.3348 12.2316 21.2333 12.268 21.1218 12.268C20.6018 12.268 20.3158 11.553 20.3158 10.11C20.3158 10.1041 20.3158 10.0983 20.3158 10.0925C20.3181 8.63541 20.6039 7.93898 21.1218 7.93898C21.2295 7.93898 21.3279 7.97234 21.4159 8.0397C21.5972 8.72437 21.6894 9.41849 21.6939 10.0833ZM20.9633 13.4721C20.3755 13.4353 19.8509 13.1943 19.432 12.799C18.7968 12.1994 18.4048 11.245 18.4048 10.11C18.4048 10.1084 18.4048 10.1068 18.4048 10.1052C18.4059 8.9759 18.8004 8.02373 19.4388 7.42674C19.8568 7.03576 20.3795 6.79712 20.9646 6.76083C19.9834 4.56959 18.0056 2.75598 14.9899 2.75598C12.9539 2.75598 11.3867 3.57761 10.2802 4.78527C10.6801 5.14287 10.9704 5.59944 11.1325 6.1055C11.1339 6.10999 11.1354 6.11449 11.1368 6.11898C11.1695 6.18451 11.192 6.26552 11.2106 6.33275C11.2215 6.37222 11.2312 6.40694 11.2408 6.43098L9.32977 6.76898C9.32052 6.71348 9.29153 6.6185 9.2662 6.53553C9.25593 6.50189 9.24627 6.47023 9.23877 6.44398C9.22718 6.40755 9.21474 6.37182 9.20148 6.33682C8.90258 6.91059 8.67621 7.51881 8.52183 8.13398H11.2928V13.295H10.2008L9.86277 11.878C9.65226 12.4043 9.32 12.861 8.86349 13.1526C9.79197 15.4889 11.8209 17.477 14.9899 17.477C17.9971 17.477 19.9794 15.6625 20.9633 13.4721ZM8.47696 11.9029C8.95984 11.6991 9.32845 11.1014 9.43108 10.11C9.44989 9.92822 9.45977 9.73322 9.45977 9.52498V9.51198H8.29625C8.28071 9.71311 8.27295 9.91278 8.27295 10.11C8.27295 10.6943 8.34075 11.3005 8.47696 11.9029ZM15.6908 9.64474C15.4642 9.53186 15.2185 9.47698 14.9899 9.47698C14.7384 9.47698 14.4824 9.53863 14.2565 9.65273C14.2345 9.66384 14.2132 9.67521 14.1927 9.68678C14.2205 9.0517 14.3138 8.59421 14.4668 8.30697C14.5983 8.06009 14.774 7.93898 14.9899 7.93898C15.1946 7.93898 15.3658 8.05949 15.4962 8.30513C15.6487 8.59263 15.7452 9.05155 15.774 9.68928C15.7474 9.67402 15.7197 9.65913 15.6908 9.64474ZM17.6515 9.50448C17.6781 9.69938 17.6926 9.90156 17.6939 10.11C17.6939 10.3101 17.6815 10.5049 17.6574 10.6932C17.4483 12.3273 16.3654 13.477 14.9899 13.477C13.5905 13.477 12.5154 12.3367 12.3089 10.6942C12.2852 10.5058 12.2729 10.3107 12.2729 10.11C12.2729 9.90271 12.2862 9.70139 12.3118 9.50713C12.5252 7.88595 13.5969 6.75598 14.9899 6.75598C16.36 6.75598 17.4293 7.87589 17.6515 9.50448ZM14.4685 11.9001C14.5998 12.1457 14.7749 12.268 14.9899 12.268C15.1938 12.268 15.3644 12.1463 15.4945 11.9019C15.6464 11.6168 15.7431 11.1646 15.773 10.5439C15.7462 10.5593 15.7182 10.5744 15.689 10.5889C15.4635 10.7011 15.2184 10.756 14.9899 10.756C14.7501 10.756 14.4982 10.6981 14.2698 10.584C14.2434 10.5708 14.2179 10.5571 14.1935 10.5432C14.2223 11.1629 14.3159 11.6147 14.4685 11.9001ZM14.184 10.1334L15.7829 10.1227C15.7829 10.1185 15.7829 10.1142 15.7829 10.11H14.1839C14.1839 10.1178 14.184 10.1256 14.184 10.1334Z" fill="#0B0000"/>
<path fill-rule="evenodd" clip-rule="evenodd" d="M6.58071 8.38805C6.58381 8.30168 6.58796 8.21698 6.59313 8.134C6.61307 7.81407 6.64832 7.51954 6.69837 7.25231C6.70127 7.23682 6.70422 7.22141 6.70722 7.2061C6.70993 7.19231 6.71267 7.17859 6.71545 7.16495C6.91559 6.18427 7.32358 5.59127 7.91277 5.48594C7.97572 5.47469 8.04073 5.469 8.10777 5.469C8.21521 5.469 8.31641 5.48389 8.41109 5.512C8.80901 5.63016 9.09175 5.98194 9.23877 6.444C9.24627 6.47025 9.25594 6.50191 9.26621 6.53555C9.28218 6.58789 9.29962 6.64502 9.31264 6.694C9.31932 6.71914 9.32484 6.74213 9.3284 6.76123C9.3289 6.7639 9.32936 6.76649 9.32977 6.769L11.2408 6.431C11.2312 6.40696 11.2215 6.37224 11.2106 6.33277C11.192 6.26554 11.1695 6.18453 11.1368 6.119C11.1158 6.05232 11.0925 5.98649 11.0671 5.92162C11.0602 5.90401 11.0531 5.88647 11.0459 5.869C11.0408 5.85668 11.0356 5.84439 11.0304 5.83213C10.6897 5.03789 10.016 4.39994 9.09115 4.134C9.01362 4.11171 8.93432 4.09203 8.8533 4.07509C8.61878 4.02606 8.36988 4 8.10777 4C7.47969 4 6.92757 4.14357 6.4556 4.40771C5.30989 5.04892 4.63651 6.40066 4.4956 8.134C4.47843 8.3452 4.46917 8.56207 4.46792 8.784C4.46782 8.8013 4.46777 8.81864 4.46777 8.836C4.46777 9.06818 4.47728 9.29367 4.49574 9.512C4.62399 11.0291 5.18415 12.2002 5.98656 12.8674C6.47172 13.2708 7.04543 13.49 7.66577 13.49C7.75031 13.49 7.83264 13.4859 7.91277 13.4779C7.96352 13.4728 8.01337 13.4662 8.06235 13.4581C8.06884 13.457 8.07531 13.4559 8.08177 13.4548C8.26779 13.4223 8.44098 13.368 8.60143 13.295C8.94608 13.1383 9.23193 12.8955 9.45977 12.5976C9.56911 12.4546 9.66509 12.2989 9.74781 12.134C9.7895 12.0509 9.82781 11.9654 9.86277 11.878L10.2008 13.295H11.2928V8.134H7.91277V9.51168L9.45977 9.512V9.525C9.45977 10.0121 9.40575 10.4267 9.30966 10.769C9.22335 11.0764 9.1031 11.3254 8.95758 11.5159C8.7203 11.8266 8.41583 11.982 8.08177 11.982C8.02383 11.9812 7.96749 11.9759 7.91277 11.9662C7.82639 11.9508 7.74404 11.9245 7.66577 11.8879C7.52889 11.8239 7.40448 11.7283 7.29277 11.6047C7.08652 11.3765 6.92357 11.0526 6.80531 10.655C6.73162 10.4072 6.67529 10.1308 6.63664 9.83111C6.63165 9.79235 6.62695 9.75319 6.62254 9.71366C6.6167 9.66121 6.61137 9.60808 6.60658 9.55432C6.6057 9.54457 6.60485 9.5348 6.60401 9.525C6.60364 9.52067 6.60328 9.51634 6.60291 9.512C6.59014 9.35926 6.58155 9.20147 6.57717 9.03924C6.57536 8.97224 6.57428 8.90447 6.57391 8.836C6.57382 8.81871 6.57377 8.80138 6.57377 8.784C6.57377 8.64839 6.57609 8.51637 6.58071 8.38805ZM12.4575 8.83372C12.3914 9.04799 12.3421 9.27475 12.3111 9.512C12.3106 9.51633 12.31 9.52066 12.3095 9.525C12.2854 9.71374 12.273 9.90907 12.273 10.11C12.273 10.1721 12.2741 10.2336 12.2765 10.2946C12.2896 10.6388 12.3393 10.9649 12.4212 11.2677C12.5406 11.7091 12.7285 12.1011 12.9712 12.4278C13.0158 12.4877 13.0622 12.5455 13.1104 12.601C13.3776 12.9086 13.6992 13.1456 14.0608 13.295C14.3477 13.4135 14.6598 13.477 14.99 13.477C15.0915 13.477 15.1914 13.4707 15.2895 13.4585C15.2037 15.5918 13.4472 17.295 11.2928 17.295H10.2008C9.95916 17.295 9.72167 17.2734 9.49038 17.2317C8.93561 17.3969 8.32773 17.49 7.66577 17.49C5.26694 17.49 3.3296 16.224 2.1316 14.5353C0.970141 12.8981 0.467773 10.8707 0.467773 8.836C0.467773 6.88355 0.904361 4.76785 2.15798 3.02469C3.51602 1.13632 5.628 0 8.10777 0C11.3519 0 13.9254 1.97349 14.8818 4.70608C14.9081 4.77306 14.9298 4.83249 14.9472 4.88226C14.9939 5.01587 15.0269 5.12888 15.0446 5.19074C15.0471 5.1994 15.0495 5.2078 15.0517 5.2157C15.2128 5.72064 15.2704 6.24802 15.2266 6.76732C15.1681 6.76168 15.109 6.75813 15.0493 6.75671C15.0296 6.75624 15.0098 6.756 14.99 6.756C14.2045 6.756 13.5213 7.11518 13.0364 7.71906C12.9339 7.84679 12.8402 7.98546 12.7563 8.134C12.6355 8.34787 12.535 8.58219 12.4575 8.83372ZM14.2481 9.06848C14.2057 9.35826 14.184 9.70498 14.184 10.11C14.184 11.553 14.47 12.268 14.99 12.268C15.1012 12.268 15.2025 12.2318 15.2928 12.1591V8.134C15.2928 8.1045 15.2925 8.07508 15.2918 8.04573C15.2018 7.97433 15.1008 7.939 14.99 7.939C14.9747 7.939 14.9597 7.9396 14.9449 7.9408C14.8064 7.95206 14.6855 8.01601 14.5833 8.134C14.4259 8.31571 14.3129 8.62559 14.2481 9.06848Z" fill="#0B0000"/>
</svg>
