<svg width="23" height="23" viewBox="0 0 23 23" fill="none" xmlns="http://www.w3.org/2000/svg">
<path d="M12.2522 16.8485C12.3527 16.9486 12.4324 17.0677 12.4869 17.1987C12.5413 17.3298 12.5693 17.4703 12.5693 17.6122C12.5693 17.7541 12.5413 17.8946 12.4869 18.0256C12.4324 18.1566 12.3527 18.2757 12.2522 18.3758L11.7185 18.9095C10.7072 19.9208 9.33568 20.4889 7.90554 20.4889C6.4754 20.4889 5.10383 19.9208 4.09257 18.9095C3.0813 17.8982 2.51318 16.5267 2.51318 15.0965C2.51318 13.6664 3.0813 12.2948 4.09257 11.2836L6.2596 9.11743C7.23124 8.14338 8.53855 7.57771 9.91375 7.53628C11.2889 7.49486 12.6279 7.98082 13.6564 8.89462C13.7626 8.989 13.8492 9.10338 13.9112 9.23122C13.9731 9.35906 14.0093 9.49785 14.0177 9.63968C14.026 9.78151 14.0063 9.92359 13.9598 10.0578C13.9132 10.192 13.8407 10.3158 13.7463 10.422C13.6519 10.5281 13.5375 10.6147 13.4097 10.6767C13.2818 10.7387 13.143 10.7749 13.0012 10.7832C12.8594 10.7915 12.7173 10.7719 12.5831 10.7253C12.4489 10.6787 12.3251 10.6062 12.2189 10.5118C11.6022 9.96405 10.7994 9.67265 9.97492 9.6972C9.15041 9.72175 8.36643 10.0604 7.78335 10.6439L5.61811 12.8073C5.01145 13.414 4.67063 14.2368 4.67063 15.0947C4.67063 15.9527 5.01145 16.7755 5.61811 17.3822C6.22478 17.9888 7.04759 18.3296 7.90554 18.3296C8.76349 18.3296 9.5863 17.9888 10.193 17.3822L10.7266 16.8485C10.8268 16.7482 10.9457 16.6687 11.0765 16.6145C11.2074 16.5602 11.3477 16.5323 11.4894 16.5323C11.6311 16.5323 11.7714 16.5602 11.9023 16.6145C12.0331 16.6687 12.152 16.7482 12.2522 16.8485ZM18.9078 4.09067C17.8957 3.08096 16.5245 2.51392 15.0948 2.51392C13.6652 2.51392 12.294 3.08096 11.2819 4.09067L10.7482 4.62434C10.5457 4.82688 10.4319 5.10158 10.4319 5.38801C10.4319 5.67445 10.5457 5.94915 10.7482 6.15169C10.9507 6.35422 11.2254 6.46801 11.5119 6.46801C11.7983 6.46801 12.073 6.35422 12.2755 6.15169L12.8092 5.61801C13.4159 5.01135 14.2387 4.67053 15.0966 4.67053C15.9546 4.67053 16.7774 5.01135 17.3841 5.61801C17.9907 6.22468 18.3315 7.04749 18.3315 7.90544C18.3315 8.76339 17.9907 9.5862 17.3841 10.1929L15.2179 12.3599C14.6343 12.9431 13.8499 13.2813 13.0252 13.3052C12.2005 13.329 11.3978 13.0369 10.7814 12.4884C10.6752 12.394 10.5515 12.3214 10.4173 12.2749C10.2831 12.2283 10.141 12.2086 9.99916 12.217C9.85733 12.2253 9.71853 12.2615 9.59069 12.3235C9.46286 12.3855 9.34848 12.472 9.25409 12.5782C9.1597 12.6844 9.08716 12.8081 9.04059 12.9424C8.99402 13.0766 8.97435 13.2187 8.98269 13.3605C8.99103 13.5023 9.02723 13.6411 9.08921 13.7689C9.15119 13.8968 9.23775 14.0112 9.34393 14.1056C10.3717 15.0191 11.7098 15.5054 13.0844 15.4648C14.4589 15.4242 15.766 14.8599 16.7381 13.8872L18.9051 11.7211C19.916 10.7093 20.484 9.33763 20.4846 7.90734C20.4851 6.47706 19.918 5.10502 18.9078 4.09247V4.09067Z" fill="black"/>
</svg>
