<svg width="32" height="33" viewBox="0 0 32 33" fill="none" xmlns="http://www.w3.org/2000/svg">
<g clip-path="url(#clip0_209_8625)">
<path d="M27.9972 21.4969H22.1719V25.8514H28.0109V29.6032H18.4159V17.8105H27.9972V21.4969Z" fill="black"/>
<path d="M25.6725 8.03184C25.6725 6.68157 24.6286 5.60229 23.3159 5.59762C22.0122 5.59762 20.9502 6.67223 20.9365 8.01783C20.9274 9.34473 22.0031 10.452 23.3022 10.452C24.615 10.452 25.6725 9.37277 25.6725 8.03184ZM29 8.0225C29 11.2463 26.4474 13.8721 23.3022 13.8581C20.1069 13.8441 17.5771 11.1669 17.6227 7.9384C17.6683 4.7099 20.2938 2.12149 23.4389 2.19158C26.4838 2.26166 29.0045 4.83138 29 8.01783" fill="black"/>
<path d="M8.86185 8.12528C7.90919 8.12528 7.13885 8.90554 7.13429 9.87736C7.13429 10.8539 7.90007 11.6481 8.84362 11.6481C9.78261 11.6481 10.5621 10.8679 10.5666 9.91941C10.5712 8.91021 9.82363 8.12528 8.85729 8.12061M4.2216 7.7515H3.41479V4.71924H14.0764V7.73749H13.4428C13.9579 8.97095 14.0445 10.2138 13.6434 11.4706C13.2423 12.7274 12.4765 13.6899 11.3643 14.3533C9.58205 15.4139 7.35764 15.2878 5.7486 13.9328C3.79313 12.2929 3.38745 10.1857 4.22616 7.75618" fill="black"/>
<path d="M3 28.6877C4.95547 24.9219 6.90638 21.1701 8.86641 17.4043C10.8492 21.1701 12.8229 24.9125 14.8012 28.6737C13.6525 29.1409 12.5175 29.6034 11.3597 30.0753C10.5438 28.2485 9.72791 26.4263 8.89832 24.5668C8.07328 26.4217 7.26648 28.2438 6.45056 30.08C5.29733 29.6128 4.15778 29.1502 3.00456 28.6877" fill="black"/>
<path d="M11.8702 2H5.61182V4.28004H11.8702V2Z" fill="black"/>
</g>
<defs>
<clipPath id="clip0_209_8625">
<rect width="26" height="28.08" fill="white" transform="translate(3 2)"/>
</clipPath>
</defs>
</svg>
