<svg width="32" height="33" viewBox="0 0 32 33" fill="none" xmlns="http://www.w3.org/2000/svg">
<path fill-rule="evenodd" clip-rule="evenodd" d="M10.4045 2.0858C11.9294 2.0156 12.4156 2 16.3 2C20.1844 2 20.6706 2.0169 22.1942 2.0858C23.7178 2.1547 24.7578 2.3978 25.6678 2.7501C26.6207 3.1102 27.4852 3.6731 28.2002 4.4011C28.9282 5.1148 29.4898 5.978 29.8486 6.9322C30.2022 7.8422 30.444 8.8822 30.5142 10.4032C30.5844 11.9307 30.6 12.4169 30.6 16.3C30.6 20.1844 30.5831 20.6706 30.5142 22.1955C30.4453 23.7165 30.2022 24.7565 29.8486 25.6665C29.4898 26.6208 28.9273 27.4855 28.2002 28.2002C27.4852 28.9282 26.6207 29.4898 25.6678 29.8486C24.7578 30.2022 23.7178 30.444 22.1968 30.5142C20.6706 30.5844 20.1844 30.6 16.3 30.6C12.4156 30.6 11.9294 30.5831 10.4045 30.5142C8.8835 30.4453 7.8435 30.2022 6.9335 29.8486C5.9792 29.4898 5.11457 28.9272 4.3998 28.2002C3.67229 27.4861 3.10931 26.6219 2.7501 25.6678C2.3978 24.7578 2.156 23.7178 2.0858 22.1968C2.0156 20.6693 2 20.1831 2 16.3C2 12.4156 2.0169 11.9294 2.0858 10.4058C2.1547 8.8822 2.3978 7.8422 2.7501 6.9322C3.10984 5.97811 3.67325 5.11391 4.4011 4.3998C5.11485 3.67245 5.97861 3.10948 6.9322 2.7501C7.8422 2.3978 8.8835 2.156 10.4045 2.0858ZM22.0772 4.6598C20.5692 4.5909 20.1168 4.5766 16.2987 4.5766C12.4806 4.5766 12.0282 4.5909 10.5202 4.6598C9.1253 4.7235 8.3687 4.9562 7.8643 5.1525C7.1974 5.4125 6.7203 5.7206 6.2198 6.2211C5.74536 6.68267 5.38023 7.24457 5.1512 7.8656C4.9549 8.37 4.7222 9.1266 4.6585 10.5215C4.5896 12.0295 4.5753 12.4819 4.5753 16.3C4.5753 20.1181 4.5896 20.5705 4.6585 22.0785C4.7222 23.4734 4.9549 24.23 5.1512 24.7344C5.38 25.3545 5.7453 25.9174 6.2198 26.3789C6.6813 26.8534 7.2442 27.2187 7.8643 27.4475C8.3687 27.6438 9.1253 27.8765 10.5202 27.9402C12.0282 28.0091 12.4793 28.0234 16.2987 28.0234C20.1181 28.0234 20.5692 28.0091 22.0772 27.9402C23.4721 27.8765 24.2287 27.6438 24.7331 27.4475C25.4 27.1875 25.8771 26.8794 26.3776 26.3789C26.8521 25.9174 27.2174 25.3545 27.4462 24.7344C27.6425 24.23 27.8752 23.4734 27.9389 22.0785C28.0078 20.5705 28.0221 20.1181 28.0221 16.3C28.0221 12.4819 28.0078 12.0295 27.9389 10.5215C27.8752 9.1266 27.6425 8.37 27.4462 7.8656C27.1862 7.1987 26.8781 6.7216 26.3776 6.2211C25.916 5.74669 25.3541 5.38157 24.7331 5.1525C24.2287 4.9562 23.4721 4.7235 22.0772 4.6598ZM14.4722 20.7083C15.4923 21.1329 16.6281 21.1902 17.6857 20.8704C18.7433 20.5506 19.6571 19.8736 20.271 18.9549C20.8849 18.0362 21.1608 16.9329 21.0516 15.8334C20.9424 14.7339 20.4548 13.7065 19.6722 12.9265C19.1733 12.4279 18.5701 12.0462 17.9059 11.8087C17.2418 11.5712 16.5333 11.484 15.8313 11.5532C15.1294 11.6224 14.4516 11.8464 13.8466 12.2091C13.2417 12.5717 12.7247 13.064 12.3328 13.6504C11.9409 14.2368 11.6839 14.9029 11.5804 15.6005C11.4768 16.2982 11.5292 17.0102 11.7338 17.6852C11.9384 18.3602 12.2901 18.9814 12.7636 19.5041C13.2371 20.0269 13.8207 20.4381 14.4722 20.7083ZM11.1026 11.1026C11.7851 10.4201 12.5954 9.87865 13.4872 9.50927C14.379 9.13989 15.3348 8.94977 16.3 8.94977C17.2652 8.94977 18.221 9.13989 19.1128 9.50927C20.0046 9.87865 20.8149 10.4201 21.4974 11.1026C22.1799 11.7851 22.7213 12.5954 23.0907 13.4872C23.4601 14.379 23.6502 15.3348 23.6502 16.3C23.6502 17.2652 23.4601 18.221 23.0907 19.1128C22.7213 20.0046 22.1799 20.8149 21.4974 21.4974C20.119 22.8758 18.2494 23.6502 16.3 23.6502C14.3506 23.6502 12.481 22.8758 11.1026 21.4974C9.72416 20.119 8.94977 18.2494 8.94977 16.3C8.94977 14.3506 9.72416 12.481 11.1026 11.1026ZM25.2804 10.0444C25.4495 9.88485 25.5849 9.69299 25.6786 9.48017C25.7723 9.26735 25.8223 9.0379 25.8256 8.80541C25.829 8.57292 25.7857 8.34211 25.6983 8.12665C25.6109 7.91119 25.4812 7.71546 25.3168 7.55105C25.1523 7.38664 24.9566 7.25688 24.7411 7.16947C24.5257 7.08206 24.2949 7.03877 24.0624 7.04216C23.8299 7.04555 23.6005 7.09555 23.3876 7.18921C23.1748 7.28286 22.983 7.41826 22.8234 7.5874C22.5131 7.91634 22.3432 8.35326 22.3498 8.80541C22.3564 9.25756 22.539 9.68934 22.8587 10.0091C23.1785 10.3288 23.6102 10.5114 24.0624 10.518C24.5145 10.5246 24.9515 10.3547 25.2804 10.0444Z" fill="black"/>
</svg>
