<svg width="42" height="42" viewBox="0 0 42 42" fill="none" xmlns="http://www.w3.org/2000/svg">
<path d="M21.8957 26.4664C22.0362 26.607 22.1151 26.7976 22.1151 26.9963C22.1151 27.195 22.0362 27.3856 21.8957 27.5262L20.9641 28.4633C19.9789 29.4477 18.6429 30.0004 17.2501 30C15.8572 29.9996 14.5216 29.4459 13.537 28.4609C12.5524 27.4759 11.9996 26.1402 12 24.7476C12.0004 23.355 12.5542 22.0196 13.5394 21.0352L15.8 18.775C16.7463 17.8281 18.0187 17.2786 19.357 17.2389C20.6952 17.1992 21.998 17.6723 22.9988 18.5614C23.0727 18.6268 23.1329 18.7062 23.1761 18.7949C23.2192 18.8837 23.2445 18.98 23.2504 19.0785C23.2563 19.177 23.2428 19.2757 23.2105 19.369C23.1783 19.4623 23.128 19.5483 23.0625 19.6221C22.9971 19.696 22.9177 19.7562 22.8289 19.7993C22.7402 19.8425 22.6438 19.8677 22.5453 19.8737C22.4468 19.8796 22.348 19.866 22.2548 19.8338C22.1615 19.8016 22.0755 19.7513 22.0016 19.6858C21.2868 19.0512 20.3565 18.7135 19.4009 18.7419C18.4454 18.7703 17.5368 19.1626 16.8609 19.8386L14.6003 22.0959C13.8971 22.799 13.5021 23.7526 13.5021 24.7469C13.5021 25.7412 13.8971 26.6947 14.6003 27.3978C15.3035 28.1009 16.2573 28.4959 17.2517 28.4959C18.2462 28.4959 19.1999 28.1009 19.9031 27.3978L20.8348 26.4664C20.9044 26.3967 20.9871 26.3414 21.0781 26.3037C21.1691 26.2659 21.2667 26.2465 21.3652 26.2465C21.4638 26.2465 21.5613 26.2659 21.6523 26.3037C21.7434 26.3414 21.8261 26.3967 21.8957 26.4664ZM28.4638 13.535C27.4784 12.552 26.1434 12 24.7514 12C23.3595 12 22.0244 12.552 21.0391 13.535L20.1075 14.4674C19.9669 14.608 19.888 14.7988 19.8881 14.9976C19.8882 15.1964 19.9672 15.3871 20.1079 15.5276C20.2486 15.6682 20.4394 15.7471 20.6383 15.747C20.8371 15.7469 21.0278 15.6678 21.1684 15.5272L22.1 14.5957C22.8032 13.8927 23.757 13.4977 24.7514 13.4977C25.7459 13.4977 26.6997 13.8927 27.4029 14.5957C28.1061 15.2988 28.5011 16.2524 28.5011 17.2467C28.5011 18.241 28.1061 19.1945 27.4029 19.8976L25.1423 22.1597C24.466 22.8353 23.5572 23.227 22.6017 23.2549C21.6461 23.2828 20.716 22.9446 20.0016 22.3096C19.9277 22.2441 19.8417 22.1939 19.7484 22.1616C19.6551 22.1294 19.5564 22.1159 19.4579 22.1218C19.2589 22.1337 19.0729 22.2242 18.9406 22.3733C18.8751 22.4472 18.8248 22.5332 18.7926 22.6264C18.7604 22.7197 18.7468 22.8184 18.7528 22.9169C18.7647 23.1158 18.8552 23.3019 19.0043 23.4341C20.0049 24.3234 21.3076 24.7968 22.6458 24.7575C23.9841 24.7181 25.2566 24.1689 26.2032 23.2223L28.4638 20.9621C29.4475 19.9769 30 18.6416 30 17.2495C30 15.8574 29.4475 14.5221 28.4638 13.5369V13.535Z" fill="black"/>
</svg>
