<svg width="25" height="24" viewBox="0 0 25 24" fill="none" xmlns="http://www.w3.org/2000/svg">
<path d="M4.21533 18H20.2153C20.7653 18 21.2153 17.55 21.2153 17C21.2153 16.45 20.7653 16 20.2153 16H4.21533C3.66533 16 3.21533 16.45 3.21533 17C3.21533 17.55 3.66533 18 4.21533 18ZM4.21533 13H20.2153C20.7653 13 21.2153 12.55 21.2153 12C21.2153 11.45 20.7653 11 20.2153 11H4.21533C3.66533 11 3.21533 11.45 3.21533 12C3.21533 12.55 3.66533 13 4.21533 13ZM3.21533 7C3.21533 7.55 3.66533 8 4.21533 8H20.2153C20.7653 8 21.2153 7.55 21.2153 7C21.2153 6.45 20.7653 6 20.2153 6H4.21533C3.66533 6 3.21533 6.45 3.21533 7Z" fill="black"/>
</svg>
