<svg width="23" height="23" viewBox="0 0 23 23" fill="none" xmlns="http://www.w3.org/2000/svg">
<path d="M18.7315 17.206C18.934 17.4085 19.0478 17.6832 19.0478 17.9697C19.0478 18.2561 18.934 18.5308 18.7315 18.7333C18.5289 18.9359 18.2542 19.0496 17.9678 19.0496C17.6814 19.0496 17.4067 18.9359 17.2041 18.7333L11.5 13.0273L5.79398 18.7315C5.59145 18.9341 5.31675 19.0479 5.03031 19.0479C4.74388 19.0479 4.46918 18.9341 4.26664 18.7315C4.0641 18.529 3.95032 18.2543 3.95032 17.9679C3.95032 17.6814 4.0641 17.4067 4.26664 17.2042L9.97262 11.5L4.26844 5.79403C4.0659 5.59149 3.95211 5.31679 3.95211 5.03036C3.95211 4.74392 4.0659 4.46922 4.26844 4.26668C4.47098 4.06415 4.74568 3.95036 5.03211 3.95036C5.31854 3.95036 5.59324 4.06415 5.79578 4.26668L11.5 9.97266L17.2059 4.26579C17.4085 4.06325 17.6832 3.94946 17.9696 3.94946C18.256 3.94946 18.5307 4.06325 18.7333 4.26579C18.9358 4.46832 19.0496 4.74303 19.0496 5.02946C19.0496 5.31589 18.9358 5.59059 18.7333 5.79313L13.0273 11.5L18.7315 17.206Z" fill="black"/>
</svg>
