<svg width="27" height="18" viewBox="0 0 27 18" fill="none" xmlns="http://www.w3.org/2000/svg">
<path fill-rule="evenodd" clip-rule="evenodd" d="M26.6641 10.1464L26.6642 10.1731C26.6642 13.4785 24.4593 17.5401 19.9602 17.5401C15.4439 17.5401 13.2432 13.5025 13.2432 10.1731C13.2432 9.51233 13.3303 8.82399 13.5053 8.14509H13.9211V13.3581H15.7281V8.14509H16.8591V6.98809H15.7281V6.03909C15.7281 5.51909 15.9101 5.28509 16.3391 5.28509C16.497 5.28509 16.6464 5.30215 16.7734 5.32244C16.8033 5.32721 16.8319 5.33215 16.8591 5.33709V4.19309C16.7119 4.13004 16.4289 4.07548 16.1198 4.05689C17.1302 3.29587 18.4092 2.81909 19.9602 2.81909C24.4527 2.81909 26.6421 6.84411 26.6641 10.1464ZM13.9211 6.92766C13.9124 6.94777 13.9038 6.96792 13.8953 6.98809H13.9211V6.92766ZM20.661 9.70785C20.4344 9.59497 20.1887 9.54009 19.9602 9.54009C19.7086 9.54009 19.4527 9.60174 19.2267 9.71584C19.2047 9.72695 19.1835 9.73832 19.1629 9.74989C19.1907 9.11481 19.284 8.65732 19.437 8.37008C19.5686 8.1232 19.7442 8.00209 19.9602 8.00209C20.1648 8.00209 20.336 8.1226 20.4664 8.36824C20.6189 8.65574 20.7155 9.11466 20.7442 9.75239C20.7176 9.73713 20.6899 9.72225 20.661 9.70785ZM22.6217 9.56759C22.6483 9.76249 22.6628 9.96467 22.6642 10.1731C22.6642 10.3733 22.6517 10.568 22.6276 10.7563C22.4185 12.3904 21.3356 13.5401 19.9602 13.5401C18.5607 13.5401 17.4856 12.3998 17.2791 10.7573C17.2554 10.5689 17.2432 10.3738 17.2432 10.1731C17.2432 9.96582 17.2564 9.7645 17.282 9.57024C17.4954 7.94906 18.5671 6.81909 19.9602 6.81909C21.3302 6.81909 22.3995 7.939 22.6217 9.56759ZM19.4387 11.9632C19.57 12.2088 19.7451 12.3311 19.9602 12.3311C20.164 12.3311 20.3346 12.2094 20.4647 11.965C20.6166 11.6799 20.7133 11.2277 20.7432 10.607C20.7164 10.6224 20.6885 10.6375 20.6593 10.652C20.4337 10.7642 20.1886 10.8191 19.9602 10.8191C19.7204 10.8191 19.4684 10.7612 19.24 10.6471C19.2136 10.6339 19.1881 10.6203 19.1637 10.6063C19.1925 11.226 19.2861 11.6778 19.4387 11.9632ZM19.1542 10.1965L20.7532 10.1858C20.7532 10.1816 20.7532 10.1773 20.7532 10.1731H19.1542C19.1542 10.1809 19.1542 10.1887 19.1542 10.1965Z" fill="#0B0000"/>
<path fill-rule="evenodd" clip-rule="evenodd" d="M18.4345 0.516467C19.9053 1.14678 20.8589 2.59293 20.8589 4.19305V5.33705C20.8589 5.61629 20.8297 5.89215 20.7732 6.16065C20.8293 6.42762 20.8589 6.70438 20.8589 6.98805V6.99254C20.8552 6.99104 20.8514 6.98954 20.8477 6.98805C20.7495 6.94881 20.6485 6.9161 20.545 6.89023C20.3577 6.84343 20.1621 6.81905 19.96 6.81905C19.8816 6.81905 19.8042 6.82263 19.7279 6.82968C19.6832 6.8338 19.6389 6.83912 19.595 6.84561C19.41 6.87293 19.232 6.92099 19.0627 6.98805C18.6089 7.16779 18.2166 7.48408 17.9137 7.90392C17.8582 7.98088 17.8057 8.06133 17.7563 8.14505C17.7526 8.15136 17.7489 8.15769 17.7452 8.16403C17.6098 8.39738 17.4988 8.65577 17.416 8.93487C17.399 8.99211 17.3832 9.05021 17.3686 9.10915C17.3522 9.17504 17.3374 9.24198 17.3242 9.30991C17.271 9.58278 17.243 9.87161 17.243 10.173C17.243 10.8892 17.399 11.5334 17.6738 12.062C17.7478 12.2044 17.8304 12.3383 17.9209 12.4631C18.2156 12.8694 18.5941 13.1776 19.0309 13.358C19.2485 13.448 19.4807 13.5062 19.7243 13.5291C19.6347 15.6589 17.8797 17.358 15.7279 17.358H13.9209C11.7117 17.358 9.92087 15.5672 9.92087 13.358V10.5875C9.57683 10.1419 9.32471 9.62169 9.1929 9.05532C9.25344 8.56728 9.41945 8.26052 9.65422 8.14505C9.72452 8.11047 9.80099 8.09305 9.88264 8.09305C9.96743 8.09305 10.042 8.11141 10.1069 8.14505C10.3605 8.27646 10.4676 8.64103 10.4676 9.05505V13.358H12.2746V8.89905C12.2746 8.63211 12.2492 8.37792 12.1967 8.14505C12.1233 7.81909 11.997 7.53491 11.8139 7.31608C11.7887 7.28598 11.7624 7.25711 11.735 7.22954C11.6381 7.13183 11.5274 7.05042 11.4026 6.98805C11.2178 6.89567 11.002 6.84505 10.7536 6.84505C10.5306 6.84505 10.3125 6.88658 10.1059 6.98805C9.74917 7.1633 9.42676 7.51735 9.17236 8.14505C9.16201 8.17059 9.15177 8.19659 9.14164 8.22305V6.98805H9.08887C9.08887 5.96516 9.47282 5.03195 10.1045 4.32467C10.3163 3.45367 10.7448 2.52472 11.5539 1.71562C12.8872 0.382402 14.5783 0.0500488 15.8969 0.0500488C16.5247 0.0500488 17.5358 0.131278 18.4345 0.516467ZM15.7279 4.05359C15.4288 4.06642 15.1709 4.11387 14.9513 4.19305C14.9057 4.20947 14.8618 4.22726 14.8195 4.24639C14.8161 4.24792 14.8127 4.24946 14.8094 4.251C14.3478 4.46336 14.0811 4.83686 13.9749 5.33705C13.9384 5.50889 13.9209 5.69569 13.9209 5.89605V6.98805H13.0889V8.14505H13.9209V13.358H15.7279V8.14505H16.8589V6.98805H15.7279V6.03905C15.7279 5.98872 15.7296 5.94107 15.733 5.89605C15.7489 5.69022 15.8016 5.53942 15.8969 5.43912C15.938 5.39579 15.9871 5.36189 16.0446 5.33705C16.1256 5.30204 16.2233 5.28505 16.3389 5.28505C16.3562 5.28505 16.3735 5.28525 16.3906 5.28565C16.5206 5.28864 16.6437 5.30243 16.7517 5.31902C16.7894 5.3248 16.8252 5.33093 16.8589 5.33705V4.19305C16.8197 4.17628 16.771 4.1601 16.7147 4.14505C16.6108 4.11727 16.4812 4.0933 16.3389 4.07639C16.1996 4.05984 16.0483 4.05005 15.8969 4.05005C15.8391 4.05005 15.7828 4.05124 15.7279 4.05359ZM20.7035 9.25287C20.6349 8.69679 20.4971 8.33026 20.3034 8.14505C20.2033 8.04934 20.0882 8.00205 19.96 8.00205C19.9137 8.00205 19.8693 8.00761 19.8268 8.01876C19.7453 8.04016 19.6707 8.08214 19.6033 8.14505C19.5322 8.21139 19.4692 8.30099 19.4144 8.41423C19.2439 8.76712 19.154 9.34957 19.154 10.173C19.154 10.6453 19.1846 11.0396 19.2441 11.3564C19.3371 11.8521 19.5007 12.158 19.7279 12.2757V10.9323C20.1796 10.4674 20.5193 9.89307 20.7035 9.25287Z" fill="#0B0000"/>
<path fill-rule="evenodd" clip-rule="evenodd" d="M7.37354 17.3581C5.1644 17.3581 3.37354 15.5672 3.37354 13.3581V6.98809C3.37354 6.19669 3.60337 5.45896 3.99993 4.83802V13.3581H5.94993V4.25809H4.44997C5.18003 3.47661 6.21973 2.98809 7.37354 2.98809H9.14154C9.24377 2.98809 9.34512 2.99193 9.44543 2.99946C9.89321 2.89141 10.3348 2.84509 10.7535 2.84509C12.2517 2.84509 13.5829 3.42219 14.5578 4.39585C14.1158 4.71066 13.9208 5.22801 13.9208 5.89609V6.98809H13.0888V8.14509H13.9208V13.3581H15.7278V8.14509H16.2385C16.2643 8.41132 16.2745 8.66459 16.2745 8.89909V13.3581C16.2745 15.5672 14.4837 17.3581 12.2745 17.3581H10.4675C10.2462 17.3581 10.0291 17.3401 9.81754 17.3055C9.60599 17.3401 9.38886 17.3581 9.16754 17.3581H7.37354ZM7.37354 13.3581H9.16754V9.49709C9.16754 9.33627 9.17622 9.18887 9.19283 9.05509C9.19956 9.00085 9.2076 8.94884 9.21689 8.89909C9.262 8.65755 9.33663 8.46913 9.43503 8.33542C9.46679 8.29226 9.50102 8.2548 9.53754 8.22309C9.63694 8.13678 9.75324 8.09309 9.88253 8.09309C10.0191 8.09309 10.129 8.14072 10.2151 8.22309C10.3323 8.33527 10.4053 8.51189 10.441 8.72043C10.4509 8.7778 10.4579 8.83757 10.4622 8.89909C10.4658 8.95003 10.4675 9.00216 10.4675 9.05509V13.3581H12.2745V8.89909C12.2745 8.66167 12.2544 8.43432 12.213 8.22309C12.1021 7.65661 11.8386 7.20609 11.4025 6.98809C11.2177 6.89572 11.0019 6.84509 10.7535 6.84509C10.5305 6.84509 10.3124 6.88662 10.1058 6.98809C10.0297 7.02548 9.95519 7.071 9.88253 7.12558C9.60075 7.33726 9.3474 7.68519 9.14154 8.22309V6.98809H7.37354V13.3581ZM16.03 6.98809C15.9529 6.703 15.8538 6.41313 15.7278 6.12398V6.98809H16.03Z" fill="#0B0000"/>
<path fill-rule="evenodd" clip-rule="evenodd" d="M4 17.3581C1.79086 17.3581 0 15.5672 0 13.3581V4.25806C0 2.04892 1.79086 0.258057 4 0.258057H5.95C8.15914 0.258057 9.95 2.04892 9.95 4.25806V7.07783C9.6412 7.28337 9.36375 7.64261 9.1416 8.22306V6.98806H7.3736V13.3581H9.1676V9.49706C9.1676 8.57406 9.4536 8.09306 9.8826 8.09306C9.90583 8.09306 9.9283 8.09444 9.95 8.09713V13.3581C9.95 15.5672 8.15914 17.3581 5.95 17.3581H4ZM5.95 4.25806H4V13.3581H5.95V4.25806Z" fill="#0B0000"/>
</svg>
