<svg width="27" height="18" viewBox="0 0 27 18" fill="none" xmlns="http://www.w3.org/2000/svg">
<rect x="13.168" y="7.60303" width="12" height="7" fill="#0B0000"/>
<path d="M19.9597 13.7851C18.3997 13.7851 17.2427 12.3681 17.2427 10.4181C17.2427 8.48109 18.3997 7.06409 19.9597 7.06409C21.4937 7.06409 22.6507 8.46809 22.6637 10.4181C22.6637 12.3551 21.4937 13.7851 19.9597 13.7851ZM19.1537 10.4181C19.1537 11.8611 19.4397 12.5761 19.9597 12.5761C20.4537 12.5761 20.7527 11.8611 20.7527 10.4181C20.7527 8.94909 20.4537 8.24709 19.9597 8.24709C19.4397 8.24709 19.1537 8.94909 19.1537 10.4181Z" fill="white"/>
<path d="M13.9209 6.14104C13.9209 4.99704 14.4929 4.29504 15.8969 4.29504C16.2869 4.29504 16.6769 4.36004 16.8589 4.43804V5.58204C16.7159 5.55604 16.5339 5.53004 16.3389 5.53004C15.9099 5.53004 15.7279 5.76404 15.7279 6.28404V7.23304H16.8589V8.39004H15.7279V13.603H13.9209V8.39004H13.0889V7.23304H13.9209V6.14104Z" fill="white"/>
<path d="M7.37354 13.6031V7.23309H9.14154V8.46809C9.54454 7.41509 10.1295 7.09009 10.7535 7.09009C11.8065 7.09009 12.2745 8.00009 12.2745 9.14409V13.6031H10.4675V9.30009C10.4675 8.78009 10.2985 8.33809 9.88253 8.33809C9.45354 8.33809 9.16754 8.81909 9.16754 9.74209V13.6031H7.37354Z" fill="white"/>
<path d="M4 13.6031V4.50305H5.95V13.6031H4Z" fill="white"/>
<path fill-rule="evenodd" clip-rule="evenodd" d="M26.6636 10.3914L26.6637 10.4181C26.6637 13.7235 24.4588 17.7851 19.9597 17.7851C15.4434 17.7851 13.2427 13.7475 13.2427 10.4181C13.2427 9.75732 13.3298 9.06899 13.5048 8.39009H13.9206V13.6031H15.7276V8.39009H16.8586V7.23309H15.7276V6.28409C15.7276 5.76409 15.9096 5.53009 16.3386 5.53009C16.4965 5.53009 16.6459 5.54714 16.773 5.56744C16.8028 5.5722 16.8314 5.57714 16.8586 5.58209V4.43809C16.7114 4.37503 16.4284 4.32048 16.1193 4.30188C17.1298 3.54087 18.4087 3.06409 19.9597 3.06409C24.4522 3.06409 26.6416 7.0891 26.6636 10.3914ZM13.9206 7.17266C13.9119 7.19277 13.9033 7.21291 13.8948 7.23309H13.9206V7.17266ZM20.6605 9.95285C20.434 9.83997 20.1882 9.78509 19.9597 9.78509C19.7082 9.78509 19.4522 9.84674 19.2262 9.96084C19.2042 9.97195 19.183 9.98331 19.1624 9.99488C19.1902 9.35981 19.2835 8.90232 19.4366 8.61508C19.5681 8.36819 19.7437 8.24709 19.9597 8.24709C20.1644 8.24709 20.3356 8.36759 20.4659 8.61324C20.6184 8.90074 20.715 9.35965 20.7437 9.99739C20.7171 9.98213 20.6894 9.96724 20.6605 9.95285ZM22.6212 9.81259C22.6478 10.0075 22.6623 10.2097 22.6637 10.4181C22.6637 10.6183 22.6512 10.813 22.6271 11.0013C22.418 12.6354 21.3352 13.7851 19.9597 13.7851C18.5602 13.7851 17.4851 12.6448 17.2786 11.0023C17.2549 10.8139 17.2427 10.6188 17.2427 10.4181C17.2427 10.2108 17.2559 10.0095 17.2815 9.81523C17.4949 8.19405 18.5666 7.06409 19.9597 7.06409C21.3297 7.06409 22.399 8.184 22.6212 9.81259ZM19.4382 12.2082C19.5696 12.4538 19.7446 12.5761 19.9597 12.5761C20.1635 12.5761 20.3341 12.4544 20.4642 12.21C20.6161 11.9249 20.7128 11.4727 20.7427 10.852C20.716 10.8674 20.688 10.8825 20.6588 10.897C20.4332 11.0092 20.1882 11.0641 19.9597 11.0641C19.7199 11.0641 19.468 11.0062 19.2395 10.8921C19.2131 10.8789 19.1876 10.8652 19.1632 10.8513C19.192 11.471 19.2856 11.9228 19.4382 12.2082ZM19.1537 10.4415L20.7527 10.4308C20.7527 10.4266 20.7527 10.4223 20.7527 10.4181H19.1537C19.1537 10.4259 19.1537 10.4337 19.1537 10.4415Z" fill="#0B0000"/>
<path fill-rule="evenodd" clip-rule="evenodd" d="M18.4345 0.761462C19.9053 1.39178 20.8589 2.83793 20.8589 4.43804V5.58204C20.8589 5.86129 20.8297 6.13715 20.7732 6.40565C20.8293 6.67261 20.8589 6.94938 20.8589 7.23304V7.23754C20.8552 7.23603 20.8514 7.23453 20.8477 7.23304C20.7495 7.19381 20.6485 7.16109 20.545 7.13522C20.3577 7.08843 20.1621 7.06404 19.96 7.06404C19.8816 7.06404 19.8042 7.06762 19.7279 7.07467C19.6832 7.0788 19.6389 7.08412 19.595 7.0906C19.41 7.11793 19.232 7.16598 19.0627 7.23304C18.6089 7.41278 18.2166 7.72908 17.9137 8.14891C17.8582 8.22588 17.8057 8.30632 17.7563 8.39004C17.7526 8.39635 17.7489 8.40268 17.7452 8.40903C17.6098 8.64238 17.4988 8.90077 17.416 9.17987C17.399 9.2371 17.3832 9.2952 17.3686 9.35414C17.3522 9.42004 17.3374 9.48698 17.3242 9.5549C17.271 9.82777 17.243 10.1166 17.243 10.418C17.243 11.1342 17.399 11.7784 17.6738 12.307C17.7478 12.4494 17.8304 12.5833 17.9209 12.7081C18.2156 13.1144 18.5941 13.4226 19.0309 13.603C19.2485 13.693 19.4807 13.7512 19.7243 13.7741C19.6347 15.9039 17.8797 17.603 15.7279 17.603H13.9209C11.7117 17.603 9.92087 15.8122 9.92087 13.603V10.8324C9.57683 10.3869 9.32471 9.86668 9.1929 9.30031C9.25344 8.81227 9.41945 8.50551 9.65422 8.39004C9.72452 8.35547 9.80099 8.33804 9.88264 8.33804C9.96743 8.33804 10.042 8.3564 10.1069 8.39004C10.3605 8.52146 10.4676 8.88603 10.4676 9.30004V13.603H12.2746V9.14404C12.2746 8.87711 12.2492 8.62291 12.1967 8.39004C12.1233 8.06408 11.997 7.77991 11.8139 7.56108C11.7887 7.53098 11.7624 7.50211 11.735 7.47454C11.6381 7.37683 11.5274 7.29542 11.4026 7.23304C11.2178 7.14067 11.002 7.09004 10.7536 7.09004C10.5306 7.09004 10.3125 7.13157 10.1059 7.23304C9.74917 7.4083 9.42676 7.76235 9.17236 8.39004C9.16201 8.41559 9.15177 8.44159 9.14164 8.46804V7.23304H9.08887C9.08887 6.21015 9.47282 5.27694 10.1045 4.56966C10.3163 3.69866 10.7448 2.76971 11.5539 1.96062C12.8872 0.627397 14.5783 0.295044 15.8969 0.295044C16.5247 0.295044 17.5358 0.376273 18.4345 0.761462ZM15.7279 4.29859C15.4288 4.31141 15.1709 4.35887 14.9513 4.43804C14.9057 4.45447 14.8618 4.47226 14.8195 4.49139C14.8161 4.49291 14.8127 4.49445 14.8094 4.496C14.3478 4.70835 14.0811 5.08185 13.9749 5.58204C13.9384 5.75389 13.9209 5.94069 13.9209 6.14104V7.23304H13.0889V8.39004H13.9209V13.603H15.7279V8.39004H16.8589V7.23304H15.7279V6.28404C15.7279 6.23371 15.7296 6.18606 15.733 6.14104C15.7489 5.93522 15.8016 5.78441 15.8969 5.68412C15.938 5.64078 15.9871 5.60688 16.0446 5.58204C16.1256 5.54704 16.2233 5.53004 16.3389 5.53004C16.3562 5.53004 16.3735 5.53025 16.3906 5.53064C16.5206 5.53363 16.6437 5.54743 16.7517 5.56401C16.7894 5.5698 16.8252 5.57592 16.8589 5.58204V4.43804C16.8197 4.42127 16.771 4.4051 16.7147 4.39004C16.6108 4.36227 16.4812 4.3383 16.3389 4.32138C16.1996 4.30484 16.0483 4.29504 15.8969 4.29504C15.8391 4.29504 15.7828 4.29623 15.7279 4.29859ZM20.7035 9.49787C20.6349 8.94178 20.4971 8.57525 20.3034 8.39004C20.2033 8.29433 20.0882 8.24704 19.96 8.24704C19.9137 8.24704 19.8693 8.2526 19.8268 8.26376C19.7453 8.28515 19.6707 8.32714 19.6033 8.39004C19.5322 8.45638 19.4692 8.54598 19.4144 8.65923C19.2439 9.01211 19.154 9.59457 19.154 10.418C19.154 10.8903 19.1846 11.2846 19.2441 11.6014C19.3371 12.0971 19.5007 12.403 19.7279 12.5207V11.1773C20.1796 10.7124 20.5193 10.1381 20.7035 9.49787Z" fill="#0B0000"/>
<path fill-rule="evenodd" clip-rule="evenodd" d="M7.37354 17.6031C5.1644 17.6031 3.37354 15.8122 3.37354 13.6031V7.23309C3.37354 6.44168 3.60337 5.70395 3.99993 5.08301V13.6031H5.94993V4.50309H4.44997C5.18003 3.72161 6.21973 3.23309 7.37354 3.23309H9.14154C9.24377 3.23309 9.34512 3.23692 9.44543 3.24446C9.89321 3.13641 10.3348 3.09009 10.7535 3.09009C12.2517 3.09009 13.5829 3.66718 14.5578 4.64084C14.1158 4.95566 13.9208 5.473 13.9208 6.14109V7.23309H13.0888V8.39009H13.9208V13.6031H15.7278V8.39009H16.2385C16.2643 8.65631 16.2745 8.90958 16.2745 9.14409V13.6031C16.2745 15.8122 14.4837 17.6031 12.2745 17.6031H10.4675C10.2462 17.6031 10.0291 17.5851 9.81754 17.5505C9.60599 17.5851 9.38886 17.6031 9.16754 17.6031H7.37354ZM7.37354 13.6031H9.16754V9.74209C9.16754 9.58127 9.17622 9.43387 9.19283 9.30009C9.19956 9.24584 9.2076 9.19384 9.21689 9.14409C9.262 8.90254 9.33663 8.71413 9.43503 8.58041C9.46679 8.53725 9.50102 8.4998 9.53754 8.46809C9.63694 8.38178 9.75324 8.33809 9.88253 8.33809C10.0191 8.33809 10.129 8.38571 10.2151 8.46809C10.3323 8.58026 10.4053 8.75688 10.441 8.96543C10.4509 9.02279 10.4579 9.08257 10.4622 9.14409C10.4658 9.19502 10.4675 9.24715 10.4675 9.30009V13.6031H12.2745V9.14409C12.2745 8.90666 12.2544 8.67931 12.213 8.46809C12.1021 7.90161 11.8386 7.45109 11.4025 7.23309C11.2177 7.14071 11.0019 7.09009 10.7535 7.09009C10.5305 7.09009 10.3124 7.13162 10.1058 7.23309C10.0297 7.27047 9.95519 7.31599 9.88253 7.37057C9.60075 7.58226 9.3474 7.93019 9.14154 8.46809V7.23309H7.37354V13.6031ZM16.03 7.23309C15.9529 6.94799 15.8538 6.65813 15.7278 6.36897V7.23309H16.03Z" fill="#0B0000"/>
<path fill-rule="evenodd" clip-rule="evenodd" d="M4 17.6031C1.79086 17.6031 0 15.8122 0 13.6031V4.50305C0 2.29391 1.79086 0.503052 4 0.503052H5.95C8.15914 0.503052 9.95 2.29391 9.95 4.50305V7.32283C9.6412 7.52836 9.36375 7.8876 9.1416 8.46805V7.23305H7.3736V13.6031H9.1676V9.74205C9.1676 8.81905 9.4536 8.33805 9.8826 8.33805C9.90583 8.33805 9.9283 8.33943 9.95 8.34212V13.6031C9.95 15.8122 8.15914 17.6031 5.95 17.6031H4ZM5.95 4.50305H4V13.6031H5.95V4.50305Z" fill="#0B0000"/>
</svg>
