<svg width="755" height="723" viewBox="0 0 755 723" fill="none" xmlns="http://www.w3.org/2000/svg">
<path d="M74 453H755" stroke="#4D4D4D" stroke-width="3" stroke-linejoin="round"/>
<path d="M74 410H755" stroke="#4D4D4D" stroke-width="1.5" stroke-linejoin="round" stroke-dasharray="3 3"/>
<path d="M74 496H755" stroke="#4D4D4D" stroke-width="1.5" stroke-linejoin="round" stroke-dasharray="3 3"/>
<rect x="528" y="368" width="111" height="171" fill="#FED302"/>
<rect x="299" y="368" width="114" height="172" fill="#FF4802"/>
<rect x="185" y="367" width="114" height="172" fill="#A31AA3"/>
<path d="M129.058 14.256H132.166V17.637H129.058V14.256ZM138.004 6.339H141.091V17.616H138.004V6.339ZM124.837 15.201L124.522 13.08C125.768 13.08 127.091 13.08 128.491 13.08C129.891 13.066 131.312 13.038 132.754 12.996C134.196 12.94 135.603 12.842 136.975 12.702L137.122 14.592C135.722 14.788 134.308 14.935 132.88 15.033C131.452 15.117 130.059 15.166 128.701 15.18C127.343 15.194 126.055 15.201 124.837 15.201ZM127.231 18.183H141.091V22.908H130.318V24.273H127.273V20.997H138.025V20.262H127.231V18.183ZM127.273 23.727H141.49V25.827H127.273V23.727ZM134.665 15.348H138.949V17.154H134.665V15.348ZM130.696 6.591C131.676 6.591 132.53 6.717 133.258 6.969C133.986 7.207 134.56 7.55 134.98 7.998C135.4 8.432 135.61 8.943 135.61 9.531C135.61 10.119 135.4 10.637 134.98 11.085C134.56 11.519 133.986 11.862 133.258 12.114C132.53 12.352 131.676 12.471 130.696 12.471C129.73 12.471 128.876 12.352 128.134 12.114C127.392 11.862 126.811 11.519 126.391 11.085C125.985 10.637 125.782 10.119 125.782 9.531C125.782 8.943 125.985 8.432 126.391 7.998C126.811 7.55 127.392 7.207 128.134 6.969C128.876 6.717 129.73 6.591 130.696 6.591ZM130.696 8.607C130.066 8.607 129.569 8.684 129.205 8.838C128.841 8.978 128.659 9.209 128.659 9.531C128.659 9.839 128.841 10.07 129.205 10.224C129.569 10.378 130.066 10.455 130.696 10.455C131.34 10.455 131.837 10.378 132.187 10.224C132.551 10.07 132.733 9.839 132.733 9.531C132.733 9.209 132.551 8.978 132.187 8.838C131.837 8.684 131.34 8.607 130.696 8.607Z" fill="black"/>
<path d="M113.795 58V43.3H118.31L119.864 50.419C119.969 51.007 120.095 51.784 120.179 52.456C120.242 51.91 120.347 51.238 120.536 50.377L122.153 43.3H126.794V58H123.854V47.857C123.854 46.996 123.875 46.198 123.917 45.337L120.977 58H119.15L116.273 45.484C116.315 46.408 116.315 47.227 116.315 47.878V58H113.795ZM134.524 58.315C131.206 58.315 128.854 55.207 128.854 50.629C128.854 46.093 131.206 42.985 134.524 42.985C137.863 42.985 140.215 46.114 140.215 50.629C140.215 55.207 137.863 58.315 134.524 58.315ZM132.256 50.629C132.256 54.031 133.117 55.9 134.524 55.9C135.952 55.9 136.834 54.031 136.834 50.629C136.834 47.269 135.952 45.4 134.524 45.4C133.117 45.4 132.256 47.248 132.256 50.629ZM142.301 58V43.3H146.144L150.071 51.322V43.3H152.675V58H150.47L144.926 46.912V58H142.301Z" fill="black"/>
<path d="M231.527 58V45.694H228.272V43.3H237.89V45.694H234.677V58H231.527ZM244.553 58.315C241.592 58.315 239.429 56.362 239.429 53.317V43.3H242.579V53.149C242.579 54.976 243.482 55.753 244.616 55.753C245.792 55.753 246.695 54.976 246.695 53.149V43.3H249.656V53.212C249.656 56.425 247.451 58.315 244.553 58.315ZM252.208 58V43.3H261.07V45.568H255.358V48.907H259.705V51.112H255.358V55.732H261.511V58H252.208Z" fill="black"/>
<path d="M340.444 58L337.609 43.3H340.591L342.271 53.884L344.119 43.3H347.185L349.327 54.052L350.755 43.3H353.695L351.133 58H347.689L345.673 47.227L343.888 58H340.444ZM355.575 58V43.3H364.437V45.568H358.725V48.907H363.072V51.112H358.725V55.732H364.878V58H355.575ZM366.711 58V43.3H371.31C375.006 43.3 377.274 46.072 377.274 50.545V50.566C377.253 55.186 374.922 58 371.079 58H366.711ZM369.861 55.753H370.764C373.053 55.753 373.893 53.842 373.893 50.566V50.524C373.893 47.269 372.969 45.547 370.974 45.547H369.861V55.753Z" fill="black"/>
<path d="M457.619 58V45.694H454.364V43.3H463.982V45.694H460.769V58H457.619ZM472.851 58V51.322H468.777V58H465.627V43.3H468.777V49.033H472.851V43.3H476.001V58H472.851ZM483.689 58.315C480.728 58.315 478.565 56.362 478.565 53.317V43.3H481.715V53.149C481.715 54.976 482.618 55.753 483.752 55.753C484.928 55.753 485.831 54.976 485.831 53.149V43.3H488.792V53.212C488.792 56.425 486.587 58.315 483.689 58.315Z" fill="black"/>
<path d="M575.551 58V43.3H584.224V45.547H578.701V48.97H583.174V51.112H578.701V58H575.551ZM585.969 58V43.3H591.387C594.789 43.3 596.49 44.854 596.49 47.08C596.49 48.823 595.314 50.251 593.34 50.734L596.679 58H593.34L590.463 51.133H589.119V58H585.969ZM589.119 48.97H590.925C592.521 48.97 593.298 48.235 593.298 47.164C593.298 46.114 592.584 45.442 591.051 45.442H589.119V48.97ZM598.52 58V43.3H601.67V58H598.52Z" fill="black"/>
<path d="M687.184 58.315C684.79 58.315 682.795 56.929 682.081 54.388C682.018 54.199 681.976 54.01 681.955 53.821L684.916 53.38C684.937 53.527 684.979 53.674 685 53.821C685.357 55.249 686.239 55.942 687.184 55.942C688.381 55.942 689.116 55.144 689.116 54.073C689.116 52.981 688.465 52.372 687.373 51.889L685.567 51.091C683.698 50.272 682.585 48.991 682.585 47.122C682.585 44.77 684.412 42.985 687.289 42.985C689.557 42.985 691.384 44.413 692.056 46.324C692.098 46.471 692.14 46.576 692.161 46.723L689.263 47.311C689.242 47.164 689.2 47.038 689.179 46.912C688.885 45.862 688.171 45.253 687.289 45.253C686.344 45.253 685.651 45.82 685.651 46.786C685.651 47.647 686.071 48.151 687.226 48.634L688.969 49.369C691.321 50.335 692.35 51.7 692.35 53.632C692.35 56.194 690.271 58.315 687.184 58.315ZM692.882 58L697.082 43.3H700.568L704.684 58H701.702L700.82 54.661H696.662L695.801 58H692.882ZM697.208 52.582H700.295L698.762 46.261L697.208 52.582ZM707.336 58V45.694H704.081V43.3H713.699V45.694H710.486V58H707.336Z" fill="black"/>
<path d="M6.6719 196.315C4.2359 196.315 2.4299 194.761 1.9469 192.556C1.9049 192.346 1.8629 192.136 1.8419 191.905L4.6979 191.569C4.6979 191.716 4.7189 191.863 4.7399 192.01C4.9499 193.354 5.7269 194.047 6.5879 194.047C7.5959 194.047 8.3099 193.06 8.3099 191.674C8.2889 190.288 7.5749 189.406 6.3569 189.406H5.3909L5.3699 187.369H5.9369C7.2809 187.369 8.0789 186.403 8.0789 185.143C8.0789 183.904 7.4069 183.169 6.5459 183.169C5.7059 183.169 5.0549 183.862 4.8869 185.017C4.8659 185.164 4.8659 185.29 4.8659 185.416L2.0939 185.08C2.0939 185.017 2.0939 184.933 2.1359 184.765C2.4299 182.749 4.1519 180.985 6.7559 180.985C9.3179 180.985 11.0609 182.707 11.0609 184.849C11.0609 186.382 10.1159 187.663 8.3939 188.167C10.2419 188.692 11.4389 190.036 11.4389 191.926C11.4389 194.32 9.5699 196.315 6.6719 196.315ZM13.3191 199.36V185.71H16.1541V187.936C16.6371 186.445 17.5401 185.437 18.7581 185.437C20.4801 185.437 21.7401 187.516 21.7401 190.813C21.7401 194.152 20.4171 196.294 18.6531 196.294C17.5401 196.294 16.7001 195.391 16.2171 194.068V199.36H13.3191ZM16.1541 190.813C16.1541 193.06 16.5951 194.236 17.4141 194.236C18.2331 194.236 18.6951 193.039 18.6951 190.813C18.6951 188.608 18.2541 187.453 17.4351 187.453C16.5741 187.453 16.1541 188.608 16.1541 190.813ZM23.5114 196V185.71H26.3464V187.789C26.9344 186.151 27.8584 185.479 28.8454 185.479C30.1474 185.479 30.7984 186.445 31.0084 187.768C31.6384 186.151 32.5624 185.479 33.5494 185.479C35.2294 185.479 35.9644 186.949 35.9644 188.839V196H33.0454V189.217C33.0454 188.398 32.8564 187.579 32.2054 187.579C31.5124 187.579 31.1344 188.398 31.1344 189.826V196H28.3204V189.217C28.3204 188.314 28.0684 187.579 27.4804 187.579C26.8294 187.579 26.4094 188.398 26.4094 189.826V196H23.5114Z" fill="black"/>
<path d="M4.92037 540C5.55037 534.855 7.41937 531.243 10.3384 527.694H5.57137V530.592H3.15637V525.3H12.5434V528.093C9.85537 531.495 8.74237 534.981 8.32237 540H4.92037ZM13.3191 543.36V529.71H16.1541V531.936C16.6371 530.445 17.5401 529.437 18.7581 529.437C20.4801 529.437 21.7401 531.516 21.7401 534.813C21.7401 538.152 20.4171 540.294 18.6531 540.294C17.5401 540.294 16.7001 539.391 16.2171 538.068V543.36H13.3191ZM16.1541 534.813C16.1541 537.06 16.5951 538.236 17.4141 538.236C18.2331 538.236 18.6951 537.039 18.6951 534.813C18.6951 532.608 18.2541 531.453 17.4351 531.453C16.5741 531.453 16.1541 532.608 16.1541 534.813ZM23.5114 540V529.71H26.3464V531.789C26.9344 530.151 27.8584 529.479 28.8454 529.479C30.1474 529.479 30.7984 530.445 31.0084 531.768C31.6384 530.151 32.5624 529.479 33.5494 529.479C35.2294 529.479 35.9644 530.949 35.9644 532.839V540H33.0454V533.217C33.0454 532.398 32.8564 531.579 32.2054 531.579C31.5124 531.579 31.1344 532.398 31.1344 533.826V540H28.3204V533.217C28.3204 532.314 28.0684 531.579 27.4804 531.579C26.8294 531.579 26.4094 532.398 26.4094 533.826V540H23.5114Z" fill="black"/>
<path d="M6.57182 368.315C4.34582 368.315 2.74982 367.034 1.97282 365.081L1.78382 364.451L4.63982 363.947C4.66082 364.178 4.72382 364.367 4.80782 364.577C5.10182 365.417 5.71082 366.005 6.42482 366.005C7.62182 366.005 8.25182 364.745 8.25182 363.002C8.25182 361.28 7.53782 360.146 6.48782 360.146C5.54282 360.146 4.93382 360.965 4.72382 362.015H2.01482L2.81282 353.3H10.6458V355.736H5.03882L4.66082 359.747C5.22782 358.697 6.25682 358.025 7.55882 358.025C9.74282 358.025 11.4438 360.104 11.4438 362.939C11.4438 366.089 9.42782 368.315 6.57182 368.315ZM13.3191 371.36V357.71H16.1541V359.936C16.6371 358.445 17.5401 357.437 18.7581 357.437C20.4801 357.437 21.7401 359.516 21.7401 362.813C21.7401 366.152 20.4171 368.294 18.6531 368.294C17.5401 368.294 16.7001 367.391 16.2171 366.068V371.36H13.3191ZM16.1541 362.813C16.1541 365.06 16.5951 366.236 17.4141 366.236C18.2331 366.236 18.6951 365.039 18.6951 362.813C18.6951 360.608 18.2541 359.453 17.4351 359.453C16.5741 359.453 16.1541 360.608 16.1541 362.813ZM23.5114 368V357.71H26.3464V359.789C26.9344 358.151 27.8584 357.479 28.8454 357.479C30.1474 357.479 30.7984 358.445 31.0084 359.768C31.6384 358.151 32.5624 357.479 33.5494 357.479C35.2294 357.479 35.9644 358.949 35.9644 360.839V368H33.0454V361.217C33.0454 360.398 32.8564 359.579 32.2054 359.579C31.5124 359.579 31.1344 360.398 31.1344 361.826V368H28.3204V361.217C28.3204 360.314 28.0684 359.579 27.4804 359.579C26.8294 359.579 26.4094 360.398 26.4094 361.826V368H23.5114Z" fill="black"/>
<path d="M5.9077 712.315C4.0177 712.315 2.4217 711.034 1.7287 709.249C1.6657 709.081 1.6027 708.913 1.5607 708.745L4.3957 708.136C4.4167 708.262 4.4587 708.367 4.5007 708.514C4.7947 709.501 5.4037 710.026 6.0547 710.026C7.5667 710.026 8.2807 707.905 8.2807 704.713C7.6717 705.973 6.4957 706.624 5.2777 706.624C3.2407 706.624 1.5397 704.692 1.5397 702.088C1.5397 699.295 3.5137 696.985 6.2857 696.985C9.3097 696.985 11.3887 699.505 11.3887 704.188C11.3887 708.913 9.6247 712.315 5.9077 712.315ZM4.6057 701.983C4.6057 703.516 5.3197 704.629 6.3277 704.629C7.3567 704.629 8.0707 703.537 8.0707 701.983C8.0707 700.366 7.3357 699.253 6.3487 699.253C5.3197 699.253 4.6057 700.408 4.6057 701.983ZM13.3191 715.36V701.71H16.1541V703.936C16.6371 702.445 17.5401 701.437 18.7581 701.437C20.4801 701.437 21.7401 703.516 21.7401 706.813C21.7401 710.152 20.4171 712.294 18.6531 712.294C17.5401 712.294 16.7001 711.391 16.2171 710.068V715.36H13.3191ZM16.1541 706.813C16.1541 709.06 16.5951 710.236 17.4141 710.236C18.2331 710.236 18.6951 709.039 18.6951 706.813C18.6951 704.608 18.2541 703.453 17.4351 703.453C16.5741 703.453 16.1541 704.608 16.1541 706.813ZM23.5114 712V701.71H26.3464V703.789C26.9344 702.151 27.8584 701.479 28.8454 701.479C30.1474 701.479 30.7984 702.445 31.0084 703.768C31.6384 702.151 32.5624 701.479 33.5494 701.479C35.2294 701.479 35.9644 702.949 35.9644 704.839V712H33.0454V705.217C33.0454 704.398 32.8564 703.579 32.2054 703.579C31.5124 703.579 31.1344 704.398 31.1344 705.826V712H28.3204V705.217C28.3204 704.314 28.0684 703.579 27.4804 703.579C26.8294 703.579 26.4094 704.398 26.4094 705.826V712H23.5114Z" fill="black"/>
<path d="M74 281H755" stroke="#4D4D4D" stroke-width="3" stroke-linejoin="round"/>
<path d="M7.03923 282V278.346H1.57923V275.511L7.20723 267.216H9.85324V276.12H11.6172V278.346H9.85324V282H7.03923ZM3.76323 276.12H7.03923V271.08L3.76323 276.12ZM13.3191 285.36V271.71H16.1541V273.936C16.6371 272.445 17.5401 271.437 18.7581 271.437C20.4801 271.437 21.7401 273.516 21.7401 276.813C21.7401 280.152 20.4171 282.294 18.6531 282.294C17.5401 282.294 16.7001 281.391 16.2171 280.068V285.36H13.3191ZM16.1541 276.813C16.1541 279.06 16.5951 280.236 17.4141 280.236C18.2331 280.236 18.6951 279.039 18.6951 276.813C18.6951 274.608 18.2541 273.453 17.4351 273.453C16.5741 273.453 16.1541 274.608 16.1541 276.813ZM23.5114 282V271.71H26.3464V273.789C26.9344 272.151 27.8584 271.479 28.8454 271.479C30.1474 271.479 30.7984 272.445 31.0084 273.768C31.6384 272.151 32.5624 271.479 33.5494 271.479C35.2294 271.479 35.9644 272.949 35.9644 274.839V282H33.0454V275.217C33.0454 274.398 32.8564 273.579 32.2054 273.579C31.5124 273.579 31.1344 274.398 31.1344 275.826V282H28.3204V275.217C28.3204 274.314 28.0684 273.579 27.4804 273.579C26.8294 273.579 26.4094 274.398 26.4094 275.826V282H23.5114Z" fill="black"/>
<path d="M74 625H755" stroke="#4D4D4D" stroke-width="3" stroke-linejoin="round"/>
<path d="M6.57428 626.315C3.88628 626.315 1.78628 624.446 1.78628 622.052C1.78628 620.204 2.89928 618.839 4.76828 618.335C3.08828 617.852 2.05928 616.655 2.05928 615.038C2.05928 612.77 4.03328 610.985 6.57428 610.985C9.13628 610.985 11.1313 612.749 11.1313 615.017C11.1313 616.634 10.1023 617.831 8.38028 618.335C10.2913 618.839 11.4043 620.183 11.4043 622.031C11.4043 624.425 9.28328 626.315 6.57428 626.315ZM4.89428 621.653C4.89428 623.06 5.60828 624.068 6.57428 624.068C7.58228 624.068 8.31728 623.06 8.31728 621.653C8.31728 620.267 7.58228 619.259 6.57428 619.259C5.60828 619.259 4.89428 620.288 4.89428 621.653ZM4.97828 615.227C4.97828 616.487 5.65028 617.369 6.57428 617.369C7.49828 617.369 8.19128 616.466 8.19128 615.227C8.19128 614.072 7.49828 613.211 6.57428 613.211C5.65028 613.211 4.97828 614.072 4.97828 615.227ZM13.3191 629.36V615.71H16.1541V617.936C16.6371 616.445 17.5401 615.437 18.7581 615.437C20.4801 615.437 21.7401 617.516 21.7401 620.813C21.7401 624.152 20.4171 626.294 18.6531 626.294C17.5401 626.294 16.7001 625.391 16.2171 624.068V629.36H13.3191ZM16.1541 620.813C16.1541 623.06 16.5951 624.236 17.4141 624.236C18.2331 624.236 18.6951 623.039 18.6951 620.813C18.6951 618.608 18.2541 617.453 17.4351 617.453C16.5741 617.453 16.1541 618.608 16.1541 620.813ZM23.5114 626V615.71H26.3464V617.789C26.9344 616.151 27.8584 615.479 28.8454 615.479C30.1474 615.479 30.7984 616.445 31.0084 617.768C31.6384 616.151 32.5624 615.479 33.5494 615.479C35.2294 615.479 35.9644 616.949 35.9644 618.839V626H33.0454V619.217C33.0454 618.398 32.8564 617.579 32.2054 617.579C31.5124 617.579 31.1344 618.398 31.1344 619.826V626H28.3204V619.217C28.3204 618.314 28.0684 617.579 27.4804 617.579C26.8294 617.579 26.4094 618.398 26.4094 619.826V626H23.5114Z" fill="black"/>
<path d="M6.60316 452.315C3.55816 452.315 1.50016 449.837 1.50016 445.028V444.986C1.50016 440.366 3.34816 436.985 7.02316 436.985C8.97616 436.985 10.6142 438.287 11.2232 440.114C11.2652 440.219 11.3072 440.345 11.3282 440.45L8.47216 441.164L8.40916 440.891C8.11516 439.841 7.59016 439.295 6.87616 439.295C5.36416 439.295 4.60816 441.374 4.60816 444.482V444.545C5.19616 443.201 6.39316 442.487 7.69516 442.487C9.73216 442.487 11.4332 444.44 11.4332 447.212C11.4332 449.942 9.37516 452.315 6.60316 452.315ZM4.81816 447.212C4.81816 448.892 5.53216 450.047 6.54016 450.047C7.56916 450.047 8.30416 448.85 8.30416 447.212C8.30416 445.637 7.59016 444.482 6.56116 444.482C5.51116 444.482 4.81816 445.637 4.81816 447.212ZM13.3191 455.36V441.71H16.1541V443.936C16.6371 442.445 17.5401 441.437 18.7581 441.437C20.4801 441.437 21.7401 443.516 21.7401 446.813C21.7401 450.152 20.4171 452.294 18.6531 452.294C17.5401 452.294 16.7001 451.391 16.2171 450.068V455.36H13.3191ZM16.1541 446.813C16.1541 449.06 16.5951 450.236 17.4141 450.236C18.2331 450.236 18.6951 449.039 18.6951 446.813C18.6951 444.608 18.2541 443.453 17.4351 443.453C16.5741 443.453 16.1541 444.608 16.1541 446.813ZM23.5114 452V441.71H26.3464V443.789C26.9344 442.151 27.8584 441.479 28.8454 441.479C30.1474 441.479 30.7984 442.445 31.0084 443.768C31.6384 442.151 32.5624 441.479 33.5494 441.479C35.2294 441.479 35.9644 442.949 35.9644 444.839V452H33.0454V445.217C33.0454 444.398 32.8564 443.579 32.2054 443.579C31.5124 443.579 31.1344 444.398 31.1344 445.826V452H28.3204V445.217C28.3204 444.314 28.0684 443.579 27.4804 443.579C26.8294 443.579 26.4094 444.398 26.4094 445.826V452H23.5114Z" fill="black"/>
<path d="M74 109H755" stroke="#4D4D4D" stroke-width="3" stroke-linejoin="round"/>
<path d="M2.42202 110V108.11L6.41202 102.986C7.79802 101.201 8.15502 100.151 8.15502 99.038C8.15502 98.009 7.58802 97.19 6.66402 97.19C5.53002 97.19 5.02602 98.366 4.94202 99.773V99.815L2.19102 99.269L2.25402 98.891C2.67402 96.455 4.60602 94.985 6.91602 94.985C9.64602 94.985 11.305 96.749 11.305 99.038C11.305 100.844 10.339 102.23 8.47002 104.288L5.46702 107.648H11.473V110H2.42202ZM13.3191 113.36V99.71H16.1541V101.936C16.6371 100.445 17.5401 99.437 18.7581 99.437C20.4801 99.437 21.7401 101.516 21.7401 104.813C21.7401 108.152 20.4171 110.294 18.6531 110.294C17.5401 110.294 16.7001 109.391 16.2171 108.068V113.36H13.3191ZM16.1541 104.813C16.1541 107.06 16.5951 108.236 17.4141 108.236C18.2331 108.236 18.6951 107.039 18.6951 104.813C18.6951 102.608 18.2541 101.453 17.4351 101.453C16.5741 101.453 16.1541 102.608 16.1541 104.813ZM23.5114 110V99.71H26.3464V101.789C26.9344 100.151 27.8584 99.479 28.8454 99.479C30.1474 99.479 30.7984 100.445 31.0084 101.768C31.6384 100.151 32.5624 99.479 33.5494 99.479C35.2294 99.479 35.9644 100.949 35.9644 102.839V110H33.0454V103.217C33.0454 102.398 32.8564 101.579 32.2054 101.579C31.5124 101.579 31.1344 102.398 31.1344 103.826V110H28.3204V103.217C28.3204 102.314 28.0684 101.579 27.4804 101.579C26.8294 101.579 26.4094 102.398 26.4094 103.826V110H23.5114Z" fill="black"/>
<path d="M242.166 17.91H245.253V21.081H242.166V17.91ZM250.398 6.36H253.506V25.932H250.398V6.36ZM252.393 14.193H255.795V16.734H252.393V14.193ZM237.945 22.803L237.588 20.325C238.722 20.325 239.954 20.318 241.284 20.304C242.614 20.276 243.979 20.227 245.379 20.157C246.793 20.073 248.158 19.947 249.474 19.779L249.705 21.984C248.347 22.25 246.968 22.446 245.568 22.572C244.168 22.684 242.824 22.754 241.536 22.782C240.248 22.796 239.051 22.803 237.945 22.803ZM237.966 8.439H249.432V10.854H237.966V8.439ZM243.72 11.526C244.658 11.526 245.491 11.687 246.219 12.009C246.961 12.317 247.535 12.744 247.941 13.29C248.347 13.836 248.55 14.473 248.55 15.201C248.55 15.929 248.347 16.573 247.941 17.133C247.535 17.693 246.961 18.127 246.219 18.435C245.491 18.743 244.658 18.897 243.72 18.897C242.782 18.897 241.949 18.743 241.221 18.435C240.493 18.127 239.919 17.693 239.499 17.133C239.093 16.573 238.89 15.929 238.89 15.201C238.89 14.473 239.093 13.836 239.499 13.29C239.919 12.744 240.493 12.317 241.221 12.009C241.949 11.687 242.782 11.526 243.72 11.526ZM243.72 13.836C243.146 13.836 242.684 13.955 242.334 14.193C241.998 14.417 241.83 14.753 241.83 15.201C241.83 15.663 241.998 16.013 242.334 16.251C242.684 16.475 243.146 16.587 243.72 16.587C244.294 16.587 244.756 16.475 245.106 16.251C245.456 16.013 245.631 15.663 245.631 15.201C245.631 14.753 245.456 14.417 245.106 14.193C244.756 13.955 244.294 13.836 243.72 13.836ZM242.166 6.465H245.253V10.287H242.166V6.465Z" fill="black"/>
<path d="M357.022 6.885H359.731V7.746C359.731 8.502 359.619 9.237 359.395 9.951C359.185 10.651 358.863 11.309 358.429 11.925C357.995 12.541 357.449 13.101 356.791 13.605C356.147 14.109 355.391 14.536 354.523 14.886C353.655 15.222 352.675 15.467 351.583 15.621L350.386 13.143C351.338 13.031 352.178 12.842 352.906 12.576C353.634 12.296 354.257 11.974 354.775 11.61C355.293 11.246 355.72 10.847 356.056 10.413C356.392 9.979 356.637 9.538 356.791 9.09C356.945 8.628 357.022 8.18 357.022 7.746V6.885ZM357.61 6.885H360.319V7.746C360.319 8.18 360.396 8.621 360.55 9.069C360.718 9.517 360.963 9.958 361.285 10.392C361.621 10.826 362.048 11.232 362.566 11.61C363.098 11.974 363.721 12.296 364.435 12.576C365.163 12.842 366.003 13.031 366.955 13.143L365.758 15.621C364.68 15.467 363.707 15.222 362.839 14.886C361.971 14.536 361.208 14.109 360.55 13.605C359.906 13.101 359.36 12.541 358.912 11.925C358.478 11.309 358.149 10.651 357.925 9.951C357.715 9.237 357.61 8.502 357.61 7.746V6.885ZM357.043 18.834H360.13V25.932H357.043V18.834ZM349.819 16.881H367.522V19.38H349.819V16.881Z" fill="black"/>
<path d="M464.94 7.095H478.275V14.109H464.94V7.095ZM475.23 9.51H467.964V11.694H475.23V9.51ZM462.798 15.789H480.501V18.204H462.798V15.789ZM470.064 13.563H473.151V16.44H470.064V13.563ZM464.751 19.464H478.38V25.932H475.293V21.879H464.751V19.464Z" fill="black"/>
<path d="M579.961 7.179H592.309V9.615H579.961V7.179ZM577.819 14.172H595.522V16.608H577.819V14.172ZM590.461 7.179H593.506V8.775C593.506 9.615 593.485 10.511 593.443 11.463C593.401 12.401 593.233 13.493 592.939 14.739L589.873 14.718C590.167 13.472 590.335 12.38 590.377 11.442C590.433 10.504 590.461 9.615 590.461 8.775V7.179ZM579.856 18.498H593.38V25.722H579.856V18.498ZM590.356 20.892H582.88V23.307H590.356V20.892Z" fill="black"/>
<path d="M692.835 15.894H706.674V18.33H692.835V15.894ZM690.819 21.375H708.522V23.853H690.819V21.375ZM698.127 17.133H701.214V22.446H698.127V17.133ZM692.835 7.599H706.527V10.056H695.964V16.818H692.835V7.599ZM695.019 11.736H706.086V14.13H695.019V11.736Z" fill="black"/>
<path d="M74 152H755" stroke="#4D4D4D" stroke-width="1.5" stroke-linejoin="round" stroke-dasharray="3 3"/>
<path d="M74 238H755" stroke="#4D4D4D" stroke-width="1.5" stroke-linejoin="round" stroke-dasharray="3 3"/>
<path d="M74 324H755" stroke="#4D4D4D" stroke-width="1.5" stroke-linejoin="round" stroke-dasharray="3 3"/>
<path d="M74 582H755" stroke="#4D4D4D" stroke-width="1.5" stroke-linejoin="round" stroke-dasharray="3 3"/>
<path d="M74 668H755" stroke="#4D4D4D" stroke-width="1.5" stroke-linejoin="round" stroke-dasharray="3 3"/>
<path d="M356.148 460.39C353.132 460.39 350.896 458.466 350.298 455.736C350.246 455.476 350.194 455.216 350.168 454.93L353.704 454.514C353.704 454.696 353.73 454.878 353.756 455.06C354.016 456.724 354.978 457.582 356.044 457.582C357.292 457.582 358.176 456.36 358.176 454.644C358.15 452.928 357.266 451.836 355.758 451.836H354.562L354.536 449.314H355.238C356.902 449.314 357.89 448.118 357.89 446.558C357.89 445.024 357.058 444.114 355.992 444.114C354.952 444.114 354.146 444.972 353.938 446.402C353.912 446.584 353.912 446.74 353.912 446.896L350.48 446.48C350.48 446.402 350.48 446.298 350.532 446.09C350.896 443.594 353.028 441.41 356.252 441.41C359.424 441.41 361.582 443.542 361.582 446.194C361.582 448.092 360.412 449.678 358.28 450.302C360.568 450.952 362.05 452.616 362.05 454.956C362.05 457.92 359.736 460.39 356.148 460.39Z" fill="black"/>
<rect x="299" y="540" width="114" height="170" fill="#E30629"/>
<rect x="413" y="540" width="114" height="170" fill="#4ABFEA"/>
<rect x="527" y="540" width="114" height="170" fill="#00837A"/>
<rect x="641" y="540" width="114" height="170" fill="#FA538F"/>
<rect x="641" y="196" width="114" height="172" fill="#35DE25"/>
<path d="M74 195H755" stroke="#4D4D4D" stroke-width="3" stroke-linejoin="round"/>
<path d="M74 367H755" stroke="#4D4D4D" stroke-width="3" stroke-linejoin="round"/>
<path d="M74 539H755" stroke="#4D4D4D" stroke-width="3" stroke-linejoin="round"/>
<path d="M74 711H755" stroke="#4D4D4D" stroke-width="3" stroke-linejoin="round"/>
<path d="M356.603 633V628.476H349.843V624.966L356.811 614.696H360.087V625.72H362.271V628.476H360.087V633H356.603ZM352.547 625.72H356.603V619.48L352.547 625.72Z" fill="black"/>
<path d="M469.902 633.39C466.938 633.39 464.858 631.752 463.87 629.152C463.766 628.892 463.688 628.658 463.61 628.398L467.822 627.774C467.848 628.008 467.9 628.216 467.952 628.398C468.264 629.49 468.94 630.114 469.668 630.114C470.968 630.114 471.592 628.71 471.592 626.786C471.592 624.862 470.864 623.614 469.746 623.614C468.654 623.614 468.056 624.55 467.848 625.72H463.922L464.962 614.8H475.18V618.258H468.108L467.692 622.704C468.394 621.43 469.668 620.624 471.358 620.624C474.062 620.624 476.22 623.146 476.22 626.682C476.22 630.608 473.62 633.39 469.902 633.39Z" fill="black"/>
<path d="M470.024 633.39C467.268 633.39 465.292 631.804 464.33 629.386L464.096 628.606L467.632 627.982C467.658 628.268 467.736 628.502 467.84 628.762C468.204 629.802 468.958 630.53 469.842 630.53C471.324 630.53 472.104 628.97 472.104 626.812C472.104 624.68 471.22 623.276 469.92 623.276C468.75 623.276 467.996 624.29 467.736 625.59H464.382L465.37 614.8H475.068V617.816H468.126L467.658 622.782C468.36 621.482 469.634 620.65 471.246 620.65C473.95 620.65 476.056 623.224 476.056 626.734C476.056 630.634 473.56 633.39 470.024 633.39Z" fill="black"/>
<path d="M584.063 460.39C580.293 460.39 577.745 457.322 577.745 451.368V451.316C577.745 445.596 580.033 441.41 584.583 441.41C587.001 441.41 589.029 443.022 589.783 445.284C589.835 445.414 589.887 445.57 589.913 445.7L586.377 446.584L586.299 446.246C585.935 444.946 585.285 444.27 584.401 444.27C582.529 444.27 581.593 446.844 581.593 450.692V450.77C582.321 449.106 583.803 448.222 585.415 448.222C587.937 448.222 590.043 450.64 590.043 454.072C590.043 457.452 587.495 460.39 584.063 460.39ZM581.853 454.072C581.853 456.152 582.737 457.582 583.985 457.582C585.259 457.582 586.169 456.1 586.169 454.072C586.169 452.122 585.285 450.692 584.011 450.692C582.711 450.692 581.853 452.122 581.853 454.072Z" fill="black"/>
<path d="M581.04 631C581.82 624.63 584.134 620.158 587.748 615.764H581.846V619.352H578.856V612.8H590.478V616.258C587.15 620.47 585.772 624.786 585.252 631H581.04Z" fill="black"/>
<path d="M698.027 286.39C694.699 286.39 692.099 284.076 692.099 281.112C692.099 278.824 693.477 277.134 695.791 276.51C693.711 275.912 692.437 274.43 692.437 272.428C692.437 269.62 694.881 267.41 698.027 267.41C701.199 267.41 703.669 269.594 703.669 272.402C703.669 274.404 702.395 275.886 700.263 276.51C702.629 277.134 704.007 278.798 704.007 281.086C704.007 284.05 701.381 286.39 698.027 286.39ZM695.947 280.618C695.947 282.36 696.831 283.608 698.027 283.608C699.275 283.608 700.185 282.36 700.185 280.618C700.185 278.902 699.275 277.654 698.027 277.654C696.831 277.654 695.947 278.928 695.947 280.618ZM696.051 272.662C696.051 274.222 696.883 275.314 698.027 275.314C699.171 275.314 700.029 274.196 700.029 272.662C700.029 271.232 699.171 270.166 698.027 270.166C696.883 270.166 696.051 271.232 696.051 272.662Z" fill="black"/>
<path d="M697.202 628.39C694.862 628.39 692.886 626.804 692.028 624.594C691.95 624.386 691.872 624.178 691.82 623.97L695.33 623.216C695.356 623.372 695.408 623.502 695.46 623.684C695.824 624.906 696.578 625.556 697.384 625.556C699.256 625.556 700.14 622.93 700.14 618.978C699.386 620.538 697.93 621.344 696.422 621.344C693.9 621.344 691.794 618.952 691.794 615.728C691.794 612.27 694.238 609.41 697.67 609.41C701.414 609.41 703.988 612.53 703.988 618.328C703.988 624.178 701.804 628.39 697.202 628.39ZM695.59 615.598C695.59 617.496 696.474 618.874 697.722 618.874C698.996 618.874 699.88 617.522 699.88 615.598C699.88 613.596 698.97 612.218 697.748 612.218C696.474 612.218 695.59 613.648 695.59 615.598Z" fill="black"/>
<path d="M238.58 460V447.026H235.2V444.582H235.798C237.592 444.582 238.736 444.192 239.438 441.696H242.298V460H238.58Z" fill="black"/>
<rect x="185" y="539" width="114" height="172" fill="#0768F4"/>
<path d="M236.886 634V631.66L241.826 625.316C243.542 623.106 243.984 621.806 243.984 620.428C243.984 619.154 243.282 618.14 242.138 618.14C240.734 618.14 240.11 619.596 240.006 621.338V621.39L236.6 620.714L236.678 620.246C237.198 617.23 239.59 615.41 242.45 615.41C245.83 615.41 247.884 617.594 247.884 620.428C247.884 622.664 246.688 624.38 244.374 626.928L240.656 631.088H248.092V634H236.886Z" fill="black"/>
</svg>
