<svg width="135" height="42" viewBox="0 0 135 42" fill="none" xmlns="http://www.w3.org/2000/svg">
<path fill-rule="evenodd" clip-rule="evenodd" d="M103.117 27.4158C103.432 28.2264 103.893 28.63 104.487 28.63C105.627 28.63 106.317 26.98 106.317 23.65C106.317 20.26 105.627 18.64 104.487 18.64C103.893 18.64 103.432 19.0362 103.117 19.8467V27.4158ZM103.12 31.2554C103.256 36.6602 107.68 41 113.117 41H117.257C117.767 41 118.268 40.9618 118.757 40.8882C119.246 40.9618 119.747 41 120.257 41H124.427C129.95 41 134.427 36.5228 134.427 31V20.71C134.427 18.2441 133.956 14.8613 131.887 11.7778C129.485 8.1977 125.516 5.96997 120.917 5.96997C119.931 5.96997 118.891 6.07531 117.835 6.32C117.624 6.30671 117.412 6.29997 117.197 6.29997H113.117C107.67 6.29997 103.239 10.6559 103.12 16.0747C103.557 15.9664 104.014 15.91 104.487 15.91C105.211 15.91 105.899 16.0456 106.535 16.3C106.763 16.3909 106.984 16.4969 107.197 16.6174C107.468 16.7702 107.728 16.9463 107.974 17.1439C108.629 17.6697 109.19 18.3483 109.633 19.15C109.952 19.7294 110.209 20.3732 110.394 21.07C110.481 21.3986 110.552 21.739 110.605 22.09C110.667 22.496 110.706 22.9163 110.721 23.349C110.724 23.4486 110.726 23.549 110.727 23.65C110.727 24.6441 110.593 25.5803 110.347 26.4352C110.318 26.5335 110.288 26.6306 110.257 26.7266C109.684 28.4859 108.62 29.8732 107.257 30.6702C107.044 30.7948 106.823 30.905 106.596 31C105.942 31.2733 105.233 31.42 104.487 31.42C104.014 31.42 103.557 31.3636 103.12 31.2554ZM113.117 31H117.257V22.09C117.257 21.7188 117.277 21.3787 117.316 21.07C117.331 20.9448 117.35 20.8248 117.371 20.71C117.475 20.1526 117.647 19.7178 117.874 19.4092C117.948 19.3096 118.027 19.2231 118.111 19.15C118.34 18.9508 118.609 18.85 118.907 18.85C119.222 18.85 119.476 18.9599 119.675 19.15C119.945 19.4088 120.114 19.8164 120.196 20.2977C120.219 20.4301 120.235 20.568 120.245 20.71C120.253 20.8275 120.257 20.9478 120.257 21.07V31H124.427V20.71C124.427 20.1621 124.381 19.6374 124.285 19.15C124.096 18.1811 123.712 17.3593 123.117 16.7939C122.909 16.5964 122.675 16.4302 122.415 16.3C121.988 16.0868 121.49 15.97 120.917 15.97C120.402 15.97 119.899 16.0658 119.422 16.3C119.247 16.3862 119.075 16.4913 118.907 16.6172C118.257 17.1057 117.672 17.9087 117.197 19.15V16.3H113.117V31Z" fill="black"/>
<path fill-rule="evenodd" clip-rule="evenodd" d="M120.257 27.8307V21.0699C120.257 19.8699 119.867 18.8499 118.907 18.8499C117.917 18.8499 117.257 19.9599 117.257 22.0899V30.9999H113.117V16.2999H117.197V19.1499C117.765 17.6674 118.488 16.8102 119.293 16.3671C117.056 10.7523 112.177 5.90991 104.487 5.90991C100.018 5.90991 96.4898 7.5357 93.8776 9.99991H95.7826V14.2899H91.6126V12.6521C90.6035 14.1166 89.8217 15.7265 89.2639 17.3834V18.9699H88.801C88.4107 20.5432 88.2168 22.1303 88.2168 23.6499C88.2168 25.103 88.3932 26.6187 88.7487 28.1255C88.9466 28.0842 89.1183 28.0208 89.2639 27.9399V29.932C91.2973 35.9867 96.3123 41.4199 104.487 41.4199C113.559 41.4199 118.744 34.6424 120.257 27.8307ZM95.7826 16.2999V30.9999H91.6426V16.2999H95.7826ZM106.232 21.7876C105.664 21.5413 105.06 21.4199 104.487 21.4199C103.82 21.4199 103.221 21.5644 102.709 21.7851C102.92 19.6632 103.533 18.6399 104.487 18.6399C105.393 18.6399 106.015 19.664 106.232 21.7876ZM106.317 23.6793C106.317 23.6695 106.317 23.6597 106.317 23.6499H102.627C102.627 23.668 102.627 23.686 102.627 23.7039L106.317 23.6793ZM106.226 25.5446C105.66 25.789 105.059 25.9099 104.487 25.9099C103.895 25.9099 103.284 25.7852 102.715 25.5403C102.931 27.6049 103.541 28.6299 104.487 28.6299C105.385 28.6299 106.003 27.6064 106.226 25.5446ZM110.727 23.6499C110.727 24.6301 110.597 25.554 110.357 26.3993C109.502 29.4085 107.251 31.4199 104.487 31.4199C101.67 31.4199 99.4227 29.4181 98.5781 26.3915C98.3432 25.5499 98.2168 24.629 98.2168 23.6499C98.2168 22.6518 98.3499 21.7134 98.5968 20.858C99.4556 17.8826 101.691 15.9099 104.487 15.9099C107.236 15.9099 109.46 17.8635 110.331 20.8436C110.582 21.7013 110.72 22.6441 110.727 23.6499Z" fill="black"/>
<path fill-rule="evenodd" clip-rule="evenodd" d="M91.6428 41C86.1199 41 81.6428 36.5228 81.6428 31V18.97H82.7241V27.52C82.7241 28.81 83.1141 29.71 83.8041 30.34C84.1161 30.626 84.49 30.8443 84.9136 31C85.4678 31.2036 86.107 31.3 86.8041 31.3C87.6109 31.3 88.1634 31.1941 88.8534 31C88.9844 30.9631 89.1205 30.9231 89.2641 30.88V27.94C88.9941 28.09 88.6341 28.18 88.1841 28.18C87.7941 28.18 87.4641 28.09 87.2241 27.85C87.0141 27.64 86.8941 27.28 86.8941 26.74V18.97H89.2641V16.3H86.8941V11.35H82.9941L82.7541 16.3H81.6428C81.6428 16.0121 81.655 15.727 81.6788 15.4453C81.6352 15.0662 81.6128 14.6807 81.6128 14.29V10C81.6128 4.47715 86.09 0 91.6128 0H95.7828C101.306 0 105.783 4.47715 105.783 10V14.29C105.783 14.6292 105.766 14.9645 105.733 15.295C105.758 15.5475 105.774 15.8027 105.78 16.0603C105.731 16.0486 105.682 16.0376 105.632 16.0273C105.263 15.95 104.88 15.91 104.487 15.91C103.753 15.91 103.058 16.0458 102.416 16.3C102.149 16.4059 101.891 16.5324 101.643 16.6782C99.5676 17.8987 98.217 20.4708 98.217 23.65C98.217 23.7643 98.2187 23.8777 98.2221 23.9904C98.3144 27.0329 99.6417 29.4725 101.643 30.6511C101.868 30.7836 102.102 30.9003 102.343 31C103.005 31.2736 103.725 31.42 104.487 31.42C104.932 31.42 105.364 31.3678 105.779 31.2676C105.637 36.6667 101.216 41 95.7828 41H91.6428ZM105.783 19.7564V27.5061C105.47 28.2565 105.029 28.63 104.487 28.63C103.287 28.63 102.627 26.98 102.627 23.65C102.627 22.8165 102.667 22.0901 102.745 21.4684C102.984 19.5613 103.582 18.64 104.487 18.64C104.585 18.64 104.68 18.6521 104.772 18.6763C105.185 18.7857 105.527 19.1428 105.783 19.7564ZM91.6128 10V14.29H95.7828V10H91.6128ZM95.7828 16.3H91.6428V31H95.7828V16.3Z" fill="black"/>
<path fill-rule="evenodd" clip-rule="evenodd" d="M91.6427 16.3001H95.7827V31.0001H91.6427V16.3001ZM89.264 18.9701V16.3001H86.894V11.3501H82.994L82.754 16.3001H80.834V18.9701H82.724V27.5201C82.724 27.665 82.7289 27.8049 82.7386 27.9401C82.8154 29.0088 83.1915 29.7808 83.804 30.3401C83.9667 30.4893 84.1463 30.62 84.341 30.7331C84.4319 30.7859 84.5262 30.8349 84.6236 30.8801C85.2401 31.1661 85.9819 31.3001 86.804 31.3001C87.3374 31.3001 87.7597 31.2538 88.184 31.1663C88.5234 31.0964 88.8641 31.0001 89.264 30.8801V27.9401C89.0496 28.0592 88.7785 28.1405 88.4506 28.1689C88.3656 28.1763 88.2767 28.1801 88.184 28.1801C87.8472 28.1801 87.5551 28.113 87.3272 27.9401C87.2911 27.9128 87.2567 27.8828 87.224 27.8501C87.1391 27.7652 87.069 27.6559 87.0155 27.5201C86.9556 27.368 86.9166 27.1826 86.9013 26.9612C86.901 26.9571 86.9007 26.9529 86.9005 26.9487C86.8962 26.8824 86.894 26.8129 86.894 26.7401V18.9701H89.264ZM77.0467 37.7116C77.0478 37.7126 77.0488 37.7135 77.0498 37.7144C80.2791 40.6728 84.1527 41.3001 86.804 41.3001C89.1873 41.3001 90.8662 40.8397 92.1375 40.4584C96.3673 39.1894 99.264 35.2962 99.264 30.8801V28.1093C99.2339 28.0535 99.2044 27.9971 99.1755 27.9401C98.5636 26.7334 98.2169 25.2716 98.2169 23.6501C98.2169 23.5957 98.2173 23.5416 98.2181 23.4876C98.2131 23.4775 98.2081 23.4675 98.203 23.4575C98.2084 23.4468 98.2138 23.4361 98.2191 23.4254C98.2513 21.8312 98.6256 20.3969 99.2609 19.2192C99.263 19.1364 99.264 19.0534 99.264 18.9701V16.3001C99.264 13.7587 98.3159 11.4387 96.7542 9.67449C95.9571 4.94937 91.8459 1.3501 86.894 1.3501H82.994C77.9607 1.3501 73.7635 5.07784 73.0885 9.97446C71.6793 11.6979 70.834 13.9003 70.834 16.3001V17.7986C71.0485 18.146 71.2406 18.5376 71.4074 18.9701C71.88 20.1957 72.1492 21.75 72.1492 23.5601C72.1492 23.6827 72.148 23.8041 72.1455 23.9244C72.3226 24.2343 72.5158 24.5338 72.724 24.8218V27.5201C72.724 31.02 73.8908 34.8217 77.0467 37.7116ZM78.8198 31.0001V16.3001H74.6798V31.0001H78.8198ZM78.8198 14.2901V10.0001H74.6498V14.2901H78.8198ZM91.6127 14.2901H95.7827V10.0001H91.6127V14.2901Z" fill="black"/>
<path fill-rule="evenodd" clip-rule="evenodd" d="M74.6799 41C69.1571 41 64.6799 36.5228 64.6799 31V29.1691C65.1074 29.9766 65.6482 30.6129 66.2812 31C66.7244 31.2711 67.2129 31.42 67.7394 31.42C68.287 31.42 68.8049 31.2755 69.2801 31C70.9281 30.0446 72.0627 27.5142 72.1446 23.9736C72.1478 23.8372 72.1494 23.6993 72.1494 23.56C72.1494 19.8742 71.0329 17.249 69.3568 16.3C68.9047 16.044 68.4119 15.91 67.8894 15.91C67.357 15.91 66.8622 16.0474 66.4129 16.3C65.9418 16.5648 65.5208 16.9563 65.1591 17.4489C64.9853 17.6856 64.8253 17.9456 64.6799 18.2261V16.3C64.6799 16.0121 64.6921 15.727 64.7159 15.4453C64.6723 15.0662 64.6499 14.6807 64.6499 14.29V10C64.6499 4.47715 69.1271 0 74.6499 0H78.8199C84.3427 0 88.8199 4.47715 88.8199 10V14.29C88.8199 14.6292 88.803 14.9645 88.77 15.295C88.803 15.6255 88.8199 15.9608 88.8199 16.3H86.8941V11.35H82.9941L82.7541 16.3H80.8341V18.97H82.7241V27.52C82.7241 28.81 83.1141 29.71 83.8041 30.34C84.0574 30.5722 84.3515 30.7598 84.6799 30.9055C84.756 30.9392 84.8339 30.9707 84.9136 31C85.4678 31.2036 86.107 31.3 86.8041 31.3C87.5978 31.3 88.1454 31.1975 88.8199 31.0094C88.8148 36.5279 84.3396 41 78.8199 41H74.6799ZM88.8199 28.1096V18.97H86.8941V26.74C86.8941 27.28 87.0141 27.64 87.2241 27.85C87.4641 28.09 87.7941 28.18 88.1841 28.18C88.421 28.18 88.6329 28.1551 88.8199 28.1096ZM78.8199 14.29V10H74.6499V14.29H78.8199ZM74.6799 31H78.8199V16.3H74.6799V31ZM64.6799 27.3622V19.8637C64.9341 19.2682 65.284 18.916 65.7315 18.8182C65.8172 18.7994 65.9065 18.79 65.9994 18.79C66.8702 18.79 67.4419 19.7041 67.6773 21.4582C67.7582 22.0607 67.7994 22.7623 67.7994 23.56C67.7994 26.77 67.1394 28.48 65.9694 28.48C65.4152 28.48 64.9822 28.1031 64.6799 27.3622Z" fill="black"/>
<path fill-rule="evenodd" clip-rule="evenodd" d="M71.8727 26.5396C71.9397 26.2059 71.9952 25.8577 72.0384 25.4956C72.0461 25.4312 72.0535 25.3663 72.0604 25.3009C72.0887 25.0335 72.1105 24.7589 72.1253 24.4773C72.1411 24.1792 72.1491 23.8733 72.1491 23.56C72.1491 23.3411 72.1452 23.126 72.1374 22.9147C72.1251 22.5773 72.1029 22.2497 72.0715 21.9325C72.068 21.8967 72.0643 21.8611 72.0605 21.8256C72.0209 21.4527 71.9683 21.0945 71.9035 20.7518C71.7984 20.1957 71.6614 19.6805 71.4957 19.21C71.1508 18.2301 70.6817 17.4439 70.1191 16.885C69.4813 16.2514 68.7231 15.91 67.8891 15.91C67.188 15.91 66.5519 16.1484 65.9991 16.5744C65.5417 16.927 65.1414 17.4082 64.8087 17.9892C64.6979 18.1828 64.5945 18.3875 64.499 18.6022C64.4125 18.7969 64.3324 18.9997 64.2591 19.21V10H60.1191V31H64.1691V27.97C64.2488 28.2054 64.336 28.4324 64.4304 28.6498C64.5137 28.8414 64.6026 29.0256 64.697 29.2016C65.0492 29.8584 65.4771 30.4 65.9691 30.7836C66.0704 30.8626 66.1744 30.9348 66.281 31C66.7242 31.2711 67.2127 31.42 67.7391 31.42C68.2868 31.42 68.8047 31.2755 69.2799 31C69.5774 30.8275 69.8582 30.6037 70.1191 30.3318C70.6755 29.7521 71.1413 28.9541 71.4857 27.97C71.6399 27.5295 71.7698 27.0518 71.8727 26.5396ZM66.8859 19.21C66.6381 18.9315 66.3418 18.79 65.9991 18.79C65.9891 18.79 65.9791 18.7901 65.9691 18.7903C65.6219 18.798 65.3257 18.9393 65.0799 19.21C65.0188 19.2772 64.9609 19.3524 64.9061 19.4355C64.5162 20.0263 64.2826 21.0174 64.2015 22.3857C64.1799 22.7505 64.1691 23.1421 64.1691 23.56C64.1691 24.03 64.1824 24.4672 64.2086 24.8712C64.2935 26.1772 64.514 27.1362 64.8609 27.736C64.9102 27.8213 64.962 27.8993 65.0164 27.97C65.277 28.3087 65.5955 28.48 65.9691 28.48C65.9792 28.48 65.9892 28.4799 65.9991 28.4796C66.3577 28.4706 66.6675 28.2986 66.9242 27.97C67.1326 27.7032 67.3059 27.3331 67.4418 26.8631C67.5237 26.58 67.592 26.2607 67.6462 25.9058C67.6841 25.6573 67.7152 25.3914 67.7391 25.1083C67.7789 24.639 67.7991 24.1225 67.7991 23.56C67.7991 23.0017 67.779 22.4905 67.7391 22.0274C67.7209 21.8149 67.6984 21.6125 67.6719 21.4203C67.6147 21.0055 67.5384 20.6383 67.4436 20.3197C67.2998 19.8367 67.1133 19.4656 66.8859 19.21ZM56.9349 31V16.3H52.7949V31H56.9349ZM64.3656 40.9981C64.3002 40.9994 64.2348 41 64.1691 41H60.1191C54.5963 41 50.1191 36.5228 50.1191 31V10C50.1191 4.47715 54.5963 0 60.1191 0H64.2591C68.8781 0 72.7657 3.13164 73.9144 7.38752C75.2495 8.0952 76.398 9.00512 77.3595 10H74.6497V14.29H78.8197V11.7599C79.1187 12.1808 79.3879 12.6047 79.6271 13.0239C80.2271 14.0754 80.7009 15.1761 81.0681 16.3H80.8339V18.97H81.7435C82.0299 20.5165 82.1491 22.068 82.1491 23.56C82.1491 27.1181 81.4715 30.9584 79.551 34.2872C77.5825 37.6993 73.6377 41.42 67.7391 41.42C66.5157 41.42 65.3934 41.2679 64.3656 40.9981ZM74.6797 16.3V31H78.8197V16.3H74.6797ZM56.9349 10H52.7649V14.29H56.9349V10Z" fill="black"/>
<path fill-rule="evenodd" clip-rule="evenodd" d="M52.7951 41C47.2723 41 42.7951 36.5228 42.7951 31V20.3835C43.0079 19.5622 43.3923 19.0645 43.8917 18.9056C44.0081 18.8686 44.1308 18.85 44.259 18.85C45.159 18.85 45.609 19.81 45.609 21.07V31H49.779V20.71C49.779 18.7119 49.1636 16.9952 47.7714 16.3C47.345 16.0871 46.8457 15.97 46.269 15.97C45.7632 15.97 45.2655 16.0667 44.7906 16.3C44.2699 16.5558 43.7767 16.9758 43.3304 17.6126C43.1432 17.8796 42.9643 18.1846 42.7951 18.5317V16.3C42.7951 16.0121 42.8073 15.727 42.8312 15.4453C42.7875 15.0662 42.7651 14.6807 42.7651 14.29V10C42.7651 4.47715 47.2423 0 52.7651 0H56.9351C62.458 0 66.9351 4.47715 66.9351 10V14.29C66.9351 14.6292 66.9182 14.9645 66.8853 15.295C66.9107 15.5497 66.9265 15.8072 66.9325 16.0672C66.8765 16.0862 66.8212 16.1069 66.7664 16.1292C66.6456 16.1783 66.5278 16.2354 66.4129 16.3C65.4695 16.8304 64.7267 17.8688 64.2594 19.21V10H60.1194V31H64.1694V27.97C64.6351 29.347 65.3606 30.437 66.2812 31C66.4881 31.1266 66.7049 31.2265 66.9308 31.2971C66.7737 36.6825 62.3586 41 56.9351 41H52.7951ZM66.9351 19.2677V27.9562C66.6693 28.3031 66.3457 28.48 65.9694 28.48C64.7994 28.48 64.1694 26.8 64.1694 23.56C64.1694 22.5449 64.2329 21.6854 64.3609 20.9877C64.6118 19.621 65.1104 18.8752 65.8644 18.7969C65.9085 18.7923 65.9535 18.79 65.9994 18.79C66.3649 18.79 66.6778 18.9511 66.9351 19.2677ZM56.9351 14.29V10H52.7651V14.29H56.9351ZM52.7951 31H56.9351V16.3H52.7951V31Z" fill="black"/>
<path fill-rule="evenodd" clip-rule="evenodd" d="M38.4688 41C32.9459 41 28.4688 36.5228 28.4688 31V30.397L30.4081 26.23L32.5681 31H36.7681L32.8681 23.44L36.5581 16.3H32.5081L30.5581 20.98L28.5181 16.3H28.4688V10C28.4688 4.47715 32.9459 0 38.4688 0H42.6087C47.2187 0 51.1001 3.11943 52.2573 7.36261C53.5903 8.03135 54.7902 8.92337 55.8171 10H52.7649V14.29H56.9349V11.3384C57.0526 11.4996 57.167 11.6639 57.2779 11.8311C59.327 14.9182 59.7788 18.2896 59.7788 20.71V31C59.7788 36.5228 55.3016 41 49.7788 41H45.6087C45.0989 41 44.598 40.9618 44.1087 40.8882C43.6194 40.9618 43.1186 41 42.6087 41H38.4688ZM52.7949 16.3V31H56.9349V16.3H52.7949ZM38.4688 10V31H42.6087V22.09C42.6087 21.7189 42.6288 21.3787 42.6671 21.07C42.6827 20.9448 42.7012 20.8248 42.7226 20.71C42.8452 20.0538 43.0622 19.5675 43.3519 19.2571C43.4857 19.1137 43.635 19.0078 43.7977 18.94C43.9415 18.8801 44.0956 18.85 44.2588 18.85C44.4212 18.85 44.5691 18.8813 44.7022 18.94C45.1203 19.1243 45.3937 19.5788 45.5226 20.1833C45.5578 20.3484 45.5823 20.5249 45.5959 20.71C45.6045 20.8267 45.6087 20.9469 45.6087 21.07V31H49.7788V20.71C49.7788 20.0849 49.7185 19.4874 49.5931 18.94C49.3923 18.0633 49.0243 17.3155 48.4688 16.7895C47.9229 16.2726 47.196 15.97 46.2687 15.97C45.5704 15.97 44.8875 16.1544 44.2588 16.6281C43.645 17.0905 43.083 17.8286 42.6087 18.94V10H38.4688Z" fill="black"/>
<path fill-rule="evenodd" clip-rule="evenodd" d="M14.6774 27.76C14.8464 27.2669 15.0551 26.7835 15.3038 26.3146L16.7669 23.5558L15.5148 21.16H20.71V18.01H14.5V14.1136C14.5658 13.8197 14.645 13.5282 14.7377 13.24H22.66V10H16.492C18.3751 7.67817 21.2208 6.30005 24.2582 6.30005H28.5182C29.1969 6.30005 29.8645 6.36868 30.5131 6.50063C31.1616 6.3687 31.8293 6.30005 32.5082 6.30005H36.5582C40.0477 6.30005 43.2849 8.11909 45.0996 11.0997C46.0122 12.5985 46.4987 14.2821 46.5531 15.9799C46.4605 15.9734 46.3657 15.97 46.2688 15.97C44.8888 15.97 43.5688 16.69 42.6088 18.9401V10H38.4688V31H42.6088V22.09C42.6088 21.5751 42.6474 21.1197 42.7199 20.7252C42.798 20.3001 42.9156 19.9457 43.0666 19.6637C43.3552 19.1249 43.7661 18.85 44.2588 18.85C45.043 18.85 45.4856 19.579 45.5865 20.6001C45.54 20.6977 45.4918 20.7948 45.4419 20.8912L44.1225 23.4442L45.6088 26.3253V31H46.7682C46.7681 32.8069 46.2789 34.6098 45.3077 36.2036C43.4926 39.1824 40.2564 41 36.7682 41H32.5682C31.8214 41 31.0878 40.9169 30.3781 40.7577C29.6684 40.9169 28.9348 41 28.1882 41H24.1382C20.6297 41 17.3778 39.1614 15.5692 36.1549C14.617 34.5721 14.1382 32.7875 14.1382 31H23.29V27.76H14.6774ZM36.5582 16.3H32.5082L30.5582 20.98L28.5182 16.3H24.2582L28.0682 23.59L24.1382 31H28.1882L30.4082 26.23L32.5682 31H36.7682L32.8682 23.4401L36.5582 16.3Z" fill="black"/>
<path fill-rule="evenodd" clip-rule="evenodd" d="M10 41C4.47715 41 0 36.5228 0 31V10C0 4.47715 4.47715 0 10 0H22.66C28.1828 0 32.66 4.47715 32.66 10V13.24C32.66 15.4616 31.9356 17.514 30.71 19.1738V20.6157L30.5582 20.98L28.5182 16.3H24.2582L28.0682 23.59L24.1382 31H28.1882L30.4082 26.23L32.5682 31H33.29C33.29 36.5228 28.8128 41 23.29 41H10ZM23.29 27.76H14.5V21.16H20.71V18.01H14.5V13.24H22.66V10H10V31H23.29V27.76Z" fill="black"/>
</svg>
