<svg width="106" height="42" viewBox="0 0 106 42" fill="none" xmlns="http://www.w3.org/2000/svg">
<path fill-rule="evenodd" clip-rule="evenodd" d="M78.6148 23.9499C78.6148 23.9399 78.6149 23.9299 78.6149 23.9199C78.6154 23.8385 78.618 23.7585 78.6225 23.6799C78.6231 23.6699 78.6237 23.6599 78.6244 23.6499C78.6797 22.796 78.9734 22.1096 79.4515 21.6063C80.205 20.8131 81.4164 20.4742 82.8748 20.6499L82.9048 16.1199C82.5014 16.1455 82.1144 16.2163 81.7449 16.342C80.3835 16.8054 79.2607 18.0159 78.4348 20.4699V16.2999H75.3636C77.5754 10.8218 82.3453 5.90991 90.1301 5.90991C96.0715 5.90991 100.448 9.15528 102.915 12.9753C105.176 16.4769 105.95 20.4831 105.95 23.8599V23.9199C105.95 24.6251 105.877 25.3131 105.738 25.977C105.757 26.9204 105.641 27.8712 105.388 28.8011C105.376 28.8445 105.376 28.8443 105.336 28.997C105.306 29.1082 105.258 29.2893 105.198 29.4949C105.109 29.7985 104.956 30.2955 104.72 30.8792C102.642 36.413 97.5717 41.4199 90.1901 41.4199C82.5102 41.4199 77.6201 36.5605 75.3599 30.9999H78.6148V23.9499ZM74.4748 28.2879V19.0417C74.0815 20.6237 73.8901 22.1934 73.8901 23.6499V23.6799C73.8901 25.1608 74.0839 26.7257 74.4748 28.2879ZM88.3001 16.2207C88.2901 16.2243 88.2801 16.2278 88.2701 16.2315C87.1629 16.6312 86.215 17.3842 85.4871 18.3812C84.9312 19.1425 84.5036 20.046 84.2314 21.0431C84.1644 21.2885 84.1068 21.5396 84.0591 21.7956C84.0302 21.9502 84.0049 22.1065 83.9834 22.2645C83.9393 22.5868 83.9105 22.9158 83.8978 23.2503C83.8927 23.3827 83.8901 23.5159 83.8901 23.6499V23.6799C83.8901 23.7602 83.8911 23.8402 83.8929 23.9199C83.8948 24.0002 83.8976 24.0803 83.9013 24.1599C83.9055 24.2483 83.9108 24.3363 83.9172 24.4239C83.9337 24.6493 83.9576 24.8717 83.9888 25.0908C84.0402 25.453 84.1113 25.806 84.2008 26.1479C84.8187 28.5089 86.3126 30.3439 88.2701 31.0752C88.2801 31.0789 88.2901 31.0826 88.3001 31.0863C88.8741 31.2969 89.4875 31.4128 90.1301 31.4196C90.1501 31.4198 90.1701 31.4199 90.1901 31.4199C90.7117 31.4199 91.2139 31.3424 91.6897 31.1927C91.7401 31.1769 91.7903 31.1602 91.8401 31.1427C93.201 30.6653 94.3348 29.588 95.0726 28.0396C95.1364 27.9059 95.1971 27.7686 95.2548 27.628C95.3093 27.495 95.3612 27.3589 95.4101 27.2199C95.5116 26.9968 95.5855 26.7463 95.6506 26.5054C95.6652 26.4516 95.6793 26.3983 95.6931 26.346C95.7005 26.3182 95.7077 26.2906 95.715 26.2634C95.7234 26.2318 95.7318 26.2006 95.7401 26.1699L92.0801 25.8999C92.0754 25.9477 92.0698 25.9948 92.0635 26.041C92.0303 26.2845 91.9758 26.5034 91.9001 26.6799C91.8805 26.7493 91.8605 26.8169 91.8401 26.8827C91.6124 27.6172 91.3349 28.1256 90.9812 28.4183C90.7519 28.608 90.4907 28.7072 90.1901 28.7188C90.1703 28.7195 90.1503 28.7199 90.1301 28.7199C89.846 28.7199 89.5902 28.6191 89.3656 28.4255C88.8437 27.9755 88.491 27.0246 88.3454 25.6753C88.3411 25.6358 88.337 25.596 88.3331 25.5558C88.3321 25.5455 88.3311 25.5352 88.3302 25.5249C88.3185 25.4012 88.3085 25.2744 88.3001 25.1444C88.3 25.1419 88.2998 25.1394 88.2997 25.1368C88.2908 24.9974 88.2839 24.8543 88.2791 24.7078C88.2731 24.5302 88.2701 24.3475 88.2701 24.1599V23.9199H95.9501V23.8599C95.9501 23.7152 95.9476 23.5705 95.9426 23.4259C95.9291 23.0417 95.8978 22.6585 95.8485 22.2801C95.8285 22.1266 95.8055 21.9739 95.7796 21.8222C95.7028 21.3733 95.5999 20.9334 95.4708 20.509C94.9694 18.8609 94.0716 17.4453 92.7636 16.6354C92.4757 16.4572 92.1679 16.3083 91.8401 16.1927C91.5485 16.0898 91.241 16.0133 90.9175 15.966C90.6648 15.9291 90.4024 15.9099 90.1301 15.9099C89.4837 15.9099 88.8709 16.0185 88.3001 16.2207ZM90.9364 18.7564C90.7097 18.5572 90.441 18.4599 90.1301 18.4599C89.8289 18.4599 89.5604 18.5626 89.3278 18.7581C88.7495 19.2444 88.3932 20.3049 88.3089 21.7898C88.3056 21.8492 88.3026 21.9092 88.3001 21.9699H91.8401C91.8371 21.8878 91.8334 21.8071 91.8292 21.728C91.7469 20.1796 91.4493 19.2071 90.9364 18.7564Z" fill="black"/>
<path fill-rule="evenodd" clip-rule="evenodd" d="M64.4767 31.2052C64.586 36.6333 69.0204 40.9999 74.4746 40.9999H78.6146C84.0738 40.9999 88.5113 36.6254 88.6128 31.1904C88.4313 31.1361 88.2535 31.0724 88.0794 30.9999C87.4936 30.7558 86.9518 30.4113 86.4657 29.9829C86.2288 29.774 86.0052 29.5453 85.7961 29.2984C85.479 28.9239 85.1954 28.5079 84.95 28.0567C84.7705 27.7267 84.6114 27.3779 84.4746 27.0129C84.3549 26.6936 84.2523 26.362 84.168 26.0196C84.0067 25.3647 83.9123 24.6708 83.8935 23.9499C83.8911 23.8603 83.8899 23.7703 83.8899 23.6799V23.6499C83.8899 23.2016 83.9185 22.7619 83.9739 22.3341C84.0493 21.7514 84.1745 21.1906 84.345 20.6596C84.3654 20.596 84.3865 20.5327 84.4083 20.4699C84.4298 20.4078 84.4519 20.3462 84.4746 20.285C85.1693 18.4154 86.4444 16.9613 88.0904 16.2999C88.2032 16.2546 88.3177 16.213 88.4338 16.1752C88.453 16.169 88.4722 16.1629 88.4914 16.1569C89.0071 15.9957 89.5552 15.9099 90.1299 15.9099C90.7348 15.9099 91.2914 16.0044 91.8002 16.1788C92.1959 16.3144 92.5627 16.4984 92.9008 16.7237L92.9044 16.1861C92.9228 13.4125 91.7883 10.7558 89.7721 8.85094C87.7559 6.9461 85.0391 5.96423 82.271 6.13999C81.5579 6.18526 80.8328 6.28233 80.1052 6.43882C79.5619 6.34745 79.0038 6.29989 78.4346 6.29989H74.4746C68.9518 6.29989 64.4746 10.777 64.4746 16.2999V27.7199C64.6866 28.1653 65.0272 28.4499 65.5184 28.4499C66.5084 28.4499 67.1684 27.3399 67.1684 25.2099V16.2999H71.3384V30.9999H67.2284V28.2099C66.613 29.7294 65.8495 30.5829 65.0092 30.9999C64.8348 31.0864 64.6571 31.1542 64.4767 31.2052ZM74.4746 30.9999H78.6146V23.9499C78.6146 22.5683 79.2012 21.5843 80.1741 21.0553C80.5664 20.8419 81.0216 20.7026 81.5265 20.641C81.9443 20.59 82.3962 20.5923 82.8746 20.6499L82.9046 16.1199C82.5486 16.1425 82.2054 16.2002 81.8757 16.2999C80.4553 16.7294 79.2868 17.9376 78.4346 20.4699V16.2999H74.4746V30.9999ZM92.3249 23.9199H88.2699V24.1599C88.2699 24.7101 88.2956 25.2177 88.3455 25.6788C88.4035 26.2137 88.4939 26.686 88.6146 27.0891C88.7792 27.6389 89 28.0602 89.2709 28.3367C89.3429 28.2768 89.4141 28.2159 89.4845 28.1539C90.795 26.9995 91.7656 25.536 92.3249 23.9199ZM91.8399 21.9699H88.2999C88.3192 21.5008 88.3646 21.0716 88.4347 20.6867C88.692 19.2749 89.2813 18.4599 90.1299 18.4599C90.9746 18.4599 91.5086 19.1782 91.7321 20.7086C91.7864 21.0806 91.8223 21.5006 91.8399 21.9699Z" fill="black"/>
<path fill-rule="evenodd" clip-rule="evenodd" d="M50.0283 16.3C50.0283 10.7772 54.5055 6.30005 60.0283 6.30005H64.1983C64.7029 6.30005 65.1988 6.33742 65.6833 6.40956C66.1679 6.33742 66.6637 6.30005 67.1683 6.30005H71.3383C76.8612 6.30005 81.3383 10.7772 81.3383 16.3V16.5064C80.1588 17.0635 79.1767 18.2646 78.4345 20.47V16.3H74.4745V31H78.6145V23.95C78.6145 22.0813 79.6877 20.94 81.3383 20.668V31C81.3383 36.5229 76.8612 41 71.3383 41H67.2283C67.0181 41 66.8093 40.9936 66.6023 40.9808C65.5613 41.2228 64.5291 41.3301 63.5383 41.3301C58.9568 41.3301 54.9605 39.1274 52.5403 35.4971C50.4728 32.3957 50.0283 29.0063 50.0283 26.59V18.97H51.2296V27.5201C51.2296 28.81 51.6196 29.71 52.3096 30.34C52.9945 30.9678 53.9779 31.2699 55.1307 31.2979C55.1899 31.2993 55.2496 31.3 55.3096 31.3C56.0649 31.3 56.5974 31.2072 57.2284 31.0361C57.2714 31.0245 57.3149 31.0124 57.3589 31C57.49 30.9632 57.626 30.9231 57.7696 30.88V27.9401C57.4996 28.09 57.1396 28.18 56.6896 28.18C56.2996 28.18 55.9696 28.09 55.7296 27.85C55.5196 27.64 55.3996 27.2801 55.3996 26.74V18.97H57.7696V16.3H55.3996V11.35H51.4996L51.2596 16.3H50.0283ZM60.0283 16.3V26.59C60.0283 27.1605 60.0773 27.7058 60.179 28.21C60.3706 29.1599 60.7489 29.9645 61.3383 30.5186C61.5426 30.7106 61.7723 30.8726 62.0283 31C62.4563 31.2132 62.9581 31.33 63.5383 31.33C64.0443 31.33 64.5388 31.2335 65.0091 31C65.1823 30.9141 65.3523 30.8096 65.5183 30.6845C66.1578 30.2029 66.7397 29.4163 67.2283 28.21V31H71.3383V16.3H67.1683V25.21C67.1683 25.5812 67.1483 25.9213 67.11 26.23C67.0944 26.3552 67.0759 26.4752 67.0544 26.59C66.9464 27.1685 66.765 27.6149 66.5251 27.9252C66.4377 28.0383 66.3425 28.1333 66.2402 28.21C66.0279 28.3695 65.7851 28.4501 65.5183 28.4501C65.2468 28.4501 65.0212 28.3631 64.838 28.21C64.5359 27.9577 64.3488 27.5256 64.26 27.0077C64.2371 26.8737 64.2207 26.7339 64.2106 26.59C64.2024 26.4725 64.1983 26.3522 64.1983 26.23V16.3H60.0283Z" fill="black"/>
<path fill-rule="evenodd" clip-rule="evenodd" d="M60.0285 16.3001H64.1985V26.2301C64.1985 26.362 64.2032 26.4917 64.2128 26.6181C64.216 26.6591 64.2196 26.6998 64.2238 26.7401C64.2727 27.2139 64.3941 27.6346 64.599 27.9401C64.8115 28.257 65.1139 28.4501 65.5185 28.4501C65.908 28.4501 66.2465 28.2783 66.5137 27.9401C66.9257 27.4188 67.1685 26.5021 67.1685 25.2101V24.5243C67.0359 24.1596 66.8824 23.8034 66.7089 23.4575C66.8818 23.1137 67.0355 22.7585 67.1685 22.3935V16.3001H67.7698C67.7698 13.7587 66.8218 11.4387 65.2601 9.67449C64.4629 4.94936 60.3517 1.3501 55.3998 1.3501H51.4998C46.4666 1.3501 42.2694 5.07784 41.5944 9.97446C40.1852 11.6979 39.3398 13.9003 39.3398 16.3001V16.9261C39.7019 16.6724 40.0899 16.4622 40.5003 16.3001C41.144 16.0459 41.8427 15.9101 42.5826 15.9101C43.3401 15.9101 44.0319 16.0457 44.6563 16.3001C44.9184 16.4069 45.1687 16.5346 45.407 16.682C45.4825 16.7287 45.5567 16.7774 45.6298 16.828C46.3841 17.3504 47.0096 18.079 47.5019 18.9701C47.8019 19.5131 48.0525 20.1164 48.2526 20.7701C48.2766 20.8541 48.3006 20.9285 48.3246 21.0029C48.3606 21.1145 48.3966 21.2261 48.4326 21.3701L44.3226 21.9101C44.3053 21.7374 44.2781 21.5846 44.2524 21.4403C44.2334 21.3338 44.2153 21.232 44.2026 21.1301C44.0305 20.0785 43.7609 19.3559 43.3628 18.9701C43.1363 18.7506 42.8681 18.6401 42.5526 18.6401C42.2567 18.6401 41.9891 18.7492 41.7551 18.9701C41.5542 19.1597 41.378 19.4316 41.2298 19.7875C40.8855 20.6145 40.6926 21.8951 40.6926 23.6501C40.6926 23.769 40.6935 23.8859 40.6955 24.0008C40.8604 24.2836 41.0388 24.5575 41.2298 24.8218V27.4427C41.2406 27.469 41.2515 27.4947 41.2625 27.5201C41.581 28.252 42.0212 28.6301 42.5526 28.6301C43.0861 28.6301 43.5106 28.255 43.8263 27.5201C43.8488 27.4677 43.8708 27.4135 43.8922 27.3574C44.0432 26.9618 44.1667 26.4754 44.2626 25.9001L44.3526 25.3001L48.3126 25.8101C48.279 25.978 48.236 26.1365 48.1942 26.2909C48.1612 26.4123 48.129 26.5312 48.1026 26.6501C48.0931 26.6802 48.0834 26.7102 48.0736 26.7401C47.9856 27.0098 47.888 27.27 47.7815 27.5201C47.5965 27.9547 47.3843 28.3586 47.1476 28.7291C46.781 29.3028 46.3554 29.796 45.8801 30.1977C44.9487 30.9848 43.8263 31.4201 42.5826 31.4201C42.2885 31.4201 42.0009 31.3984 41.7207 31.3562C42.3268 33.6387 43.5341 35.8658 45.5593 37.7178C48.7879 40.6733 52.6596 41.3001 55.3098 41.3001C57.6931 41.3001 59.3721 40.8397 60.6433 40.4584C64.8348 39.2009 67.7172 35.3666 67.7691 31.0001H67.2285V28.2101C66.667 29.5962 65.9824 30.4282 65.2287 30.8801C64.6937 31.2008 64.1239 31.3301 63.5385 31.3301C62.8573 31.3301 62.2842 31.1691 61.8116 30.8801C61.0566 30.4185 60.558 29.6305 60.2847 28.6512C60.2213 28.4239 60.17 28.1863 60.1304 27.9401C60.1083 27.8027 60.0899 27.6626 60.0751 27.5201C60.0487 27.2671 60.0337 27.0065 60.0297 26.7401C60.0289 26.6903 60.0285 26.6403 60.0285 26.5901V16.3001ZM57.7698 18.9701V16.3001H55.3998V11.3501H51.4998L51.2598 16.3001H49.3398V18.9701H51.2298V27.5201C51.2298 27.665 51.2348 27.8049 51.2445 27.9401C51.3212 29.0088 51.6973 29.7808 52.3098 30.3401C52.4726 30.4893 52.6521 30.62 52.8468 30.7331C52.9378 30.7859 53.0321 30.8349 53.1295 30.8801C53.746 31.1661 54.4877 31.3001 55.3098 31.3001C55.8432 31.3001 56.2655 31.2538 56.6898 31.1663C57.0292 31.0964 57.3699 31.0001 57.7698 30.8801V27.9401C57.5555 28.0592 57.2843 28.1405 56.9565 28.1689C56.8714 28.1763 56.7825 28.1801 56.6898 28.1801C56.353 28.1801 56.061 28.113 55.833 27.9401C55.797 27.9128 55.7626 27.8828 55.7298 27.8501C55.645 27.7652 55.5748 27.6559 55.5213 27.5201C55.4614 27.368 55.4224 27.1826 55.4071 26.9612C55.4069 26.9571 55.4066 26.9529 55.4063 26.9487C55.402 26.8824 55.3998 26.8129 55.3998 26.7401V18.9701H57.7698Z" fill="black"/>
<path fill-rule="evenodd" clip-rule="evenodd" d="M57.8415 17.9322L57.8668 18.0109C57.925 18.1926 58.0285 18.5224 58.134 18.9446C58.5414 20.5742 58.5276 22.2607 58.1193 23.8534C58.3747 25.1333 58.3798 26.4642 58.1184 27.7711C58.02 28.2629 57.9085 28.6753 57.864 28.8399L57.8363 28.9424C57.8154 29.0312 57.7932 29.1198 57.7699 29.208V27.9399C57.4999 28.0899 57.1399 28.1799 56.6899 28.1799C56.3944 28.1799 56.1334 28.1283 55.9198 27.9988C55.8515 27.9574 55.788 27.9081 55.7299 27.8499C55.5923 27.7123 55.4934 27.5104 55.4415 27.2357C55.4141 27.091 55.3999 26.9262 55.3999 26.7399V18.9699H57.7699V17.6987C57.785 17.7468 57.7999 17.7948 57.8146 17.8428C57.8237 17.8725 57.8327 17.9023 57.8415 17.9322ZM57.2677 16.2999C56.7878 15.111 56.1673 13.9176 55.3999 12.785V16.2999H57.2677ZM54.3168 11.3499C51.7179 8.25476 47.8591 5.90991 42.5826 5.90991C35.0169 5.90991 30.1734 10.5374 27.8786 15.998C28.199 15.94 28.53 15.9099 28.8703 15.9099C29.9679 15.9099 30.9063 16.2211 31.689 16.756C33.3462 17.8886 34.3046 20.0241 34.5951 22.3309C34.6104 22.452 34.6238 22.5735 34.6354 22.6955C34.641 22.7545 34.6461 22.8137 34.6509 22.8729C34.651 22.8743 34.6511 22.8757 34.6512 22.8771C34.6669 23.074 34.6779 23.2717 34.6841 23.4696C34.686 23.5297 34.6875 23.5898 34.6885 23.6499C34.6891 23.6861 34.6895 23.7222 34.6898 23.7584C34.6901 23.7891 34.6902 23.8198 34.6903 23.8506C34.6903 23.8537 34.6903 23.8568 34.6903 23.8599V23.9199H27.0103V24.1599C27.0103 27.0099 27.7003 28.7199 28.8703 28.7199C29.7103 28.7199 30.2503 28.0599 30.6403 26.6799C30.7103 26.5165 30.7621 26.3169 30.7958 26.095C30.8055 26.0317 30.8136 25.9665 30.8203 25.8999L34.4803 26.1699C34.4647 26.227 34.4491 26.2858 34.4333 26.3459C34.3573 26.633 34.2743 26.947 34.1503 27.2199C33.6267 28.7061 32.7799 29.8501 31.7222 30.5661C30.9011 31.122 29.9529 31.4199 28.9303 31.4199C28.5723 31.4199 28.2233 31.3861 27.8849 31.321C30.1758 36.7732 35.0033 41.4199 42.5826 41.4199C50.149 41.4199 55.0001 36.293 57.1323 31.0617C56.5424 31.2163 56.0264 31.2999 55.3099 31.2999C54.5333 31.2999 53.8285 31.1803 53.2332 30.9261C52.9673 30.8125 52.7232 30.6721 52.5044 30.5034C52.4371 30.4516 52.3723 30.3971 52.3099 30.3399C51.6414 29.7296 51.2545 28.8658 51.231 27.6395C51.2302 27.6 51.2299 27.5602 51.2299 27.5199V18.9699H49.3399V16.2999H51.2599L51.4999 11.3499H54.3168ZM48.2177 20.658C48.2146 20.6484 48.2116 20.6388 48.2085 20.6292C48.1927 20.5799 48.1766 20.531 48.1602 20.4823C47.5977 18.8121 46.6912 17.497 45.4584 16.714C44.8893 16.3526 44.2508 16.1046 43.5444 15.9873C43.2367 15.9362 42.916 15.9099 42.5826 15.9099C42.5726 15.9099 42.5626 15.9099 42.5526 15.91C39.7627 15.9239 37.5621 17.8717 36.7031 20.8096C36.5826 21.2219 36.4885 21.6537 36.4229 22.1024C36.408 22.2039 36.3946 22.3063 36.3827 22.4095C36.3714 22.5079 36.3614 22.607 36.3528 22.7069C36.3262 23.0146 36.3126 23.3291 36.3126 23.6499C36.3126 23.7997 36.3156 23.9482 36.3214 24.0952C36.328 24.2591 36.3381 24.4212 36.3517 24.5814C36.3556 24.6261 36.3596 24.6707 36.364 24.7151C36.4219 25.3064 36.528 25.8719 36.6779 26.4059C37.5183 29.4008 39.7349 31.4057 42.5526 31.4198C42.5626 31.4199 42.5726 31.4199 42.5826 31.4199C42.9236 31.4199 43.2555 31.3872 43.5768 31.3235C44.254 31.1891 44.8843 30.9171 45.4543 30.5235C46.6234 29.7163 47.5388 28.3975 48.0846 26.7063C48.0906 26.6875 48.0966 26.6687 48.1026 26.6499C48.1104 26.6147 48.1188 26.5794 48.1275 26.5441C48.1326 26.5234 48.1378 26.5027 48.1432 26.482C48.1595 26.4187 48.1767 26.3551 48.1942 26.2907C48.2292 26.1615 48.265 26.0294 48.2955 25.8913C48.3014 25.8644 48.3071 25.8373 48.3126 25.8099L44.3526 25.2999L44.2626 25.8999C43.9662 27.6784 43.4062 28.6076 42.5826 28.6295C42.5726 28.6298 42.5626 28.6299 42.5526 28.6299C41.6565 28.6299 41.0199 27.5548 40.7885 25.5211C40.7831 25.4734 40.7779 25.4252 40.7729 25.3765C40.7709 25.3568 40.7689 25.3371 40.767 25.3173C40.7574 25.2183 40.7486 25.1172 40.7408 25.014C40.7344 24.9293 40.7286 24.8431 40.7234 24.7555C40.7149 24.6107 40.7081 24.4619 40.7031 24.3093C40.7029 24.3021 40.7027 24.295 40.7024 24.2879L45.025 25.1524C45.3863 24.9075 45.6619 24.6389 45.8598 24.3944C46.1307 24.0596 46.2444 23.795 46.29 23.6522C46.2898 23.6515 46.2895 23.6507 46.2893 23.6499C46.2436 23.5114 46.1331 23.2599 45.8765 22.9411C45.6885 22.7076 45.426 22.448 45.0805 22.2079L40.6952 23.3043C40.6963 23.2293 40.6978 23.1552 40.6997 23.082C40.701 23.0297 40.7026 22.9779 40.7043 22.9266C40.712 22.6978 40.7234 22.4784 40.7384 22.2683C40.7509 22.0927 40.766 21.9236 40.7836 21.7611C40.7862 21.7366 40.7889 21.7123 40.7916 21.6881C40.7968 21.643 40.8021 21.5984 40.8076 21.5543C41.0535 19.589 41.68 18.6399 42.5526 18.6399C42.5626 18.6399 42.5726 18.64 42.5826 18.6402C43.4343 18.6594 43.9357 19.499 44.2026 21.1299C44.2153 21.2318 44.2335 21.3336 44.2524 21.4401C44.2646 21.5083 44.277 21.5784 44.2887 21.6515C44.2953 21.6935 44.3017 21.7365 44.3075 21.7807C44.3124 21.8173 44.3169 21.8548 44.3209 21.8933C44.3215 21.8988 44.322 21.9043 44.3226 21.9099L48.4326 21.3699C48.3966 21.2259 48.3606 21.1143 48.3246 21.0027C48.3006 20.9283 48.2766 20.8539 48.2526 20.7699C48.2411 20.7324 48.2295 20.6951 48.2177 20.658ZM46.3193 23.7685C46.319 23.7687 46.318 23.7632 46.3168 23.7517C46.3189 23.7626 46.3195 23.7684 46.3193 23.7685ZM30.5803 21.9699H27.0403C27.1303 19.7799 27.7903 18.4599 28.8703 18.4599C29.9203 18.4599 30.4903 19.5699 30.5803 21.9699Z" fill="black"/>
<path fill-rule="evenodd" clip-rule="evenodd" d="M37.5298 28.4104C37.2369 27.921 36.9912 27.3823 36.7991 26.8023C36.7648 26.6988 36.7323 26.5941 36.7014 26.488C36.4984 25.7898 36.3707 25.0366 36.3283 24.2414C36.3269 24.2143 36.3255 24.1871 36.3243 24.1599C36.3206 24.0803 36.3178 24.0003 36.3159 23.9199C36.3154 23.8999 36.315 23.8799 36.3146 23.8599C36.3133 23.7902 36.3127 23.7202 36.3127 23.6499C36.3127 23.3897 36.3216 23.1336 36.3392 22.882C36.3516 22.7038 36.3684 22.5277 36.3893 22.3541C36.4141 22.1489 36.4448 21.947 36.4812 21.7486C36.8319 19.8359 37.712 18.2562 38.95 17.2244C39.2073 17.0099 39.4801 16.8191 39.7669 16.6539C40.6004 16.1737 41.5516 15.9099 42.5827 15.9099C42.7907 15.9099 42.9937 15.9201 43.1918 15.9403C42.7811 14.9296 42.2737 13.9336 41.6549 12.9753C39.1882 9.15528 34.8116 5.90991 28.8703 5.90991C21.5838 5.90991 16.9386 10.2131 14.5601 15.2561V27.5799H21.8501V30.9999H14.1001C16.3603 36.5605 21.2504 41.4199 28.9303 41.4199C36.0907 41.4199 41.0761 36.7086 43.2649 31.3751C43.042 31.4048 42.8144 31.4199 42.5827 31.4199C42.1869 31.4199 41.8029 31.3807 41.4328 31.305C40.8661 31.1891 40.3319 30.9877 39.8381 30.7106C39.6831 30.6237 39.5321 30.5293 39.3853 30.4278C38.8032 30.0253 38.2872 29.5105 37.8522 28.9026C37.8429 28.8896 37.8337 28.8766 37.8245 28.8636C37.7805 28.8012 37.7373 28.7379 37.6951 28.6736C37.6384 28.5876 37.5833 28.4998 37.5298 28.4104ZM44.5916 25.3307C44.6567 24.8698 44.6903 24.3988 44.6903 23.9199V23.8599C44.6903 23.2179 44.6623 22.553 44.6014 21.8733L44.3227 21.9099C44.3054 21.7372 44.2782 21.5844 44.2525 21.4401C44.2335 21.3336 44.2154 21.2318 44.2027 21.1299C43.9327 19.4799 43.4227 18.6399 42.5527 18.6399C42.1874 18.6399 41.8653 18.8062 41.5961 19.1437C41.0252 19.8597 40.6927 21.3461 40.6927 23.6499C40.6927 23.7206 40.693 23.7906 40.6937 23.8599C40.6939 23.88 40.6941 23.9 40.6944 23.9199C40.7207 25.9861 41.0522 27.4062 41.6046 28.1129C41.872 28.455 42.1912 28.6299 42.5527 28.6299C42.7297 28.6299 42.8948 28.5886 43.0479 28.5065C43.621 28.1992 44.0259 27.3205 44.2627 25.8999L44.3527 25.2999L44.5916 25.3307ZM33.8128 28.0396C33.8765 27.9059 33.9373 27.7686 33.995 27.628C34.0495 27.495 34.1013 27.3589 34.1503 27.2199C34.2517 26.9968 34.3257 26.7463 34.3908 26.5054C34.4054 26.4516 34.4195 26.3983 34.4333 26.3459C34.4407 26.3181 34.4479 26.2906 34.4552 26.2634C34.4636 26.2318 34.4719 26.2006 34.4803 26.1699L30.8203 25.8999C30.8155 25.9477 30.81 25.9948 30.8037 26.041C30.7704 26.2845 30.716 26.5034 30.6403 26.6799C30.6207 26.7493 30.6007 26.8169 30.5803 26.8827C30.3526 27.6172 30.0751 28.1256 29.7213 28.4183C29.4921 28.608 29.2308 28.7072 28.9303 28.7188C28.9105 28.7195 28.8905 28.7199 28.8703 28.7199C28.5862 28.7199 28.3303 28.6191 28.1058 28.4255C27.5839 27.9755 27.2312 27.0246 27.0856 25.6753C27.0813 25.6358 27.0772 25.596 27.0733 25.5558C27.0723 25.5455 27.0713 25.5352 27.0703 25.5249C27.0586 25.4012 27.0486 25.2744 27.0403 25.1444C27.0402 25.1419 27.04 25.1394 27.0398 25.1368C27.031 24.9974 27.0241 24.8543 27.0192 24.7078C27.0133 24.5302 27.0103 24.3475 27.0103 24.1599V23.9199H34.6903V23.8599C34.6903 23.7152 34.6878 23.5705 34.6827 23.4259C34.6693 23.0417 34.638 22.6585 34.5887 22.2801C34.5687 22.1266 34.5457 21.9739 34.5197 21.8222C34.4429 21.3733 34.3401 20.9334 34.211 20.509C33.7095 18.8609 32.8118 17.4453 31.5038 16.6354C31.2159 16.4572 30.9081 16.3083 30.5803 16.1927C30.2887 16.0898 29.9812 16.0133 29.6577 15.966C29.405 15.9291 29.1425 15.9099 28.8703 15.9099C28.2239 15.9099 27.6111 16.0185 27.0403 16.2207C27.0303 16.2243 27.0203 16.2278 27.0103 16.2315C25.9031 16.6312 24.9552 17.3842 24.2272 18.3812C23.6714 19.1425 23.2438 20.046 22.9716 21.0431C22.9046 21.2885 22.847 21.5396 22.7992 21.7956C22.7704 21.9502 22.7451 22.1065 22.7235 22.2645C22.6795 22.5868 22.6507 22.9158 22.6379 23.2503C22.6329 23.3827 22.6303 23.5159 22.6303 23.6499V23.6799C22.6303 23.7602 22.6312 23.8402 22.6331 23.9199C22.635 24.0002 22.6378 24.0803 22.6415 24.1599C22.6457 24.2483 22.6509 24.3363 22.6573 24.4239C22.6738 24.6493 22.6978 24.8717 22.7289 25.0908C22.7804 25.453 22.8515 25.806 22.941 26.1479C23.5589 28.5089 25.0528 30.3439 27.0103 31.0752C27.0203 31.0789 27.0303 31.0826 27.0403 31.0863C27.6143 31.2969 28.2277 31.4128 28.8703 31.4196C28.8903 31.4198 28.9103 31.4199 28.9303 31.4199C29.4519 31.4199 29.954 31.3424 30.4299 31.1927C30.4803 31.1769 30.5305 31.1602 30.5803 31.1427C31.9411 30.6653 33.075 29.588 33.8128 28.0396ZM30.5803 21.9699H27.0403C27.0428 21.9092 27.0457 21.8492 27.0491 21.7898C27.1333 20.3049 27.4896 19.2444 28.068 18.7581C28.3006 18.5626 28.5691 18.4599 28.8703 18.4599C29.1811 18.4599 29.4499 18.5572 29.6766 18.7564C30.1895 19.2071 30.4871 20.1796 30.5694 21.728C30.5736 21.8071 30.5772 21.8878 30.5803 21.9699Z" fill="black"/>
<path fill-rule="evenodd" clip-rule="evenodd" d="M10 41C4.47715 41 0 36.5228 0 31V10C0 4.47715 4.47715 0 10 0H14.56C20.0828 0 24.56 4.47715 24.56 10V17.9516C24.562 17.9521 24.5641 17.9527 24.5661 17.9533C24.5641 17.9556 24.562 17.958 24.56 17.9604C23.3467 19.3769 22.6302 21.4052 22.6302 23.65V23.68C22.6302 25.1089 22.9256 26.4392 23.4512 27.58C24.1847 29.1719 25.3665 30.3945 26.8197 31C27.4737 31.2725 28.1825 31.42 28.9302 31.42C29.6424 31.42 30.3185 31.2755 30.9407 31C31.2587 30.8592 31.5626 30.6842 31.85 30.4768V31C31.85 36.5228 27.3728 41 21.85 41H10ZM31.7205 25.9664C31.6053 25.2564 31.4154 24.5715 31.159 23.92H27.0102V24.16C27.0102 25.6288 27.1935 26.7948 27.5313 27.58C27.8489 28.3184 28.3032 28.72 28.8702 28.72C29.5005 28.72 29.9619 28.3484 30.3177 27.58C30.4361 27.3243 30.5429 27.0246 30.6402 26.68C30.7302 26.47 30.7902 26.2 30.8202 25.9L31.7205 25.9664ZM27.5869 19.3882C28.5828 20.087 29.4456 20.9628 30.1294 21.97H27.0402C27.0854 20.8716 27.2739 19.9921 27.5869 19.3882ZM14.56 10H10V31H21.85V27.58H14.56V10Z" fill="black"/>
</svg>
