<svg width="414" height="414" viewBox="0 0 414 414" fill="none" xmlns="http://www.w3.org/2000/svg">
<g clip-path="url(#clip0_209_8530)">
<path d="M414 414V0H96.1828L0 97.8853V414H263.229V304.552C263.229 296.611 269.671 290.169 277.612 290.169C285.552 290.169 291.994 296.611 291.994 304.552V414H414.014H414Z" fill="#FF4802"/>
<path d="M67.6494 24.3386H101.059V66.8323H84.0612V56.3723H76.7337L73.9145 66.8323H56.2769L67.6494 24.3386ZM86.0224 40.8049C86.0224 38.4215 84.1157 36.5011 81.7731 36.5011C79.4305 36.5011 77.4692 38.4078 77.4692 40.8049C77.4692 43.202 79.4305 45.0543 81.7731 45.0543C84.1157 45.0543 86.0224 43.1475 86.0224 40.8049Z" fill="black"/>
<path d="M103.183 24.3386H124.648C136.865 24.3386 146.903 33.8997 146.903 45.5855C146.903 57.2712 136.865 66.8323 124.648 66.8323H103.183V24.3386ZM129.905 45.5855C129.905 42.235 127.195 39.4702 123.845 39.4702C120.494 39.4702 117.729 42.235 117.729 45.5855C117.729 48.9359 120.494 51.7007 123.845 51.7007C127.195 51.7007 129.905 48.9359 129.905 45.5855Z" fill="black"/>
<path d="M148.496 33.8997H171.282V46.8657H163.737V66.8322H148.496V33.8997Z" fill="black"/>
<path d="M172.93 53.8117V33.886H207.824V59.1234H196.138V66.8322H185.937C179.291 66.8322 172.917 60.4581 172.917 53.8117H172.93ZM194.286 47.4921C194.286 45.3674 192.529 43.665 190.404 43.665C188.28 43.665 186.577 45.3674 186.577 47.4921C186.577 49.6168 188.28 51.3738 190.404 51.3738C192.529 51.3738 194.286 49.6713 194.286 47.4921Z" fill="black"/>
<path d="M209.785 33.8997H245.319V66.8322H230.61V48.9359C230.61 47.1789 229.33 45.8578 227.586 45.8578C225.843 45.8578 224.508 47.1925 224.508 48.9359V66.8322H209.799V33.8997H209.785Z" fill="black"/>
<path d="M282.188 46.9065V66.8322H247.294V41.5948H258.98V33.886H269.181C275.827 33.886 282.201 40.26 282.201 46.9065H282.188ZM260.832 53.2261C260.832 55.3507 262.589 57.0532 264.714 57.0532C266.838 57.0532 268.541 55.3507 268.541 53.2261C268.541 51.1014 266.838 49.3444 264.714 49.3444C262.589 49.3444 260.832 51.0469 260.832 53.2261Z" fill="black"/>
<path d="M284.312 24.3386H299.553V66.8323H284.312V24.3386Z" fill="black"/>
<path d="M301.092 31.9248C301.092 27.2532 304.919 23.426 309.536 23.426C314.153 23.426 317.926 27.2532 317.926 31.9248C317.926 36.5963 314.153 40.3145 309.536 40.3145C304.919 40.3145 301.092 36.5419 301.092 31.9248ZM301.882 41.5948H317.122V66.8322H301.882V41.5948Z" fill="black"/>
<path d="M319.261 33.8997H354.795V66.8322H340.086V48.9359C340.086 47.1789 338.805 45.8578 337.062 45.8578C335.319 45.8578 333.984 47.1925 333.984 48.9359V66.8322H319.275V33.8997H319.261Z" fill="black"/>
<path d="M135.421 99.7964H139.943L145.282 118.864H141.414L140.27 114.533H134.877L133.76 118.864H129.973L135.421 99.7964ZM139.589 111.836L137.6 103.637L135.585 111.836H139.589Z" fill="#FF4802" stroke="black" stroke-width="12" stroke-linecap="round" stroke-linejoin="round"/>
<path d="M146.154 112.286C146.154 107.873 147.842 105.176 150.131 105.176C151.547 105.176 152.637 106.266 153.263 108.009V99.8101H157.077V118.878H153.372V116.072C152.691 117.952 151.465 119.259 149.967 119.259C147.733 119.259 146.154 116.535 146.154 112.286ZM151.683 116.644C152.8 116.644 153.399 115.119 153.399 112.286C153.399 109.453 152.8 107.818 151.71 107.818C150.621 107.818 150.076 109.371 150.076 112.286C150.076 115.2 150.621 116.644 151.683 116.644Z" fill="#FF4802" stroke="black" stroke-width="12" stroke-linecap="round" stroke-linejoin="round"/>
<path d="M158.684 105.53H162.388L164.568 113.566L166.747 105.53H170.206L165.875 118.878H163.151L158.684 105.53Z" fill="#FF4802" stroke="black" stroke-width="12" stroke-linecap="round" stroke-linejoin="round"/>
<path d="M170.805 112.231V112.204C170.805 108.336 173.148 105.176 176.471 105.176C180.04 105.176 181.756 108.799 181.756 112.395V112.449H174.782V112.667C174.782 115.255 175.409 116.808 176.471 116.808C177.234 116.808 177.724 116.208 178.078 114.955C178.16 114.765 178.215 114.519 178.242 114.247L181.565 114.492C181.483 114.792 181.402 115.146 181.265 115.446C180.421 117.843 178.65 119.259 176.526 119.259C173.257 119.259 170.805 116.154 170.805 112.231ZM178.024 110.679C177.942 108.499 177.425 107.492 176.471 107.492C175.518 107.492 174.891 108.69 174.81 110.679H178.024Z" fill="#FF4802" stroke="black" stroke-width="12" stroke-linecap="round" stroke-linejoin="round"/>
<path d="M183.908 105.53H187.503V109.317C188.457 106.484 189.846 105.476 191.562 105.367L191.535 109.48C189.274 109.208 187.667 110.297 187.667 112.476V118.878H183.908V105.53Z" fill="#FF4802" stroke="black" stroke-width="12" stroke-linecap="round" stroke-linejoin="round"/>
<path d="M195.103 118.279C194.477 117.706 194.123 116.889 194.123 115.718V107.955H192.406V105.53H194.15L194.368 101.036H197.909V105.53H200.061V107.955H197.909V115.01C197.909 115.5 198.018 115.827 198.209 116.018C198.426 116.236 198.726 116.317 199.08 116.317C199.489 116.317 199.816 116.236 200.061 116.099V118.769C199.244 119.014 198.699 119.15 197.827 119.15C196.71 119.15 195.757 118.878 195.103 118.279Z" fill="#FF4802" stroke="black" stroke-width="12" stroke-linecap="round" stroke-linejoin="round"/>
<path d="M202.185 99.7964H205.972V103.692H202.185V99.7964ZM202.213 105.517H205.972V118.864H202.213V105.517Z" fill="#FF4802" stroke="black" stroke-width="12" stroke-linecap="round" stroke-linejoin="round"/>
<path d="M208.096 115.909C207.987 115.636 207.906 115.337 207.824 115.064L211.065 114.547C211.093 114.819 211.174 115.064 211.256 115.255C211.665 116.372 212.373 116.835 213.163 116.835C214.062 116.835 214.607 116.181 214.607 115.364C214.607 114.547 214.225 114.165 213.217 113.73L211.229 112.858C209.295 112.041 208.423 110.815 208.45 109.072C208.478 106.92 210.33 105.176 213.163 105.176C215.179 105.176 216.895 106.239 217.712 107.9C217.821 108.118 217.903 108.336 218.012 108.608L215.042 109.208C214.988 108.99 214.961 108.799 214.852 108.608C214.498 107.873 213.871 107.492 213.217 107.492C212.455 107.492 211.828 107.982 211.828 108.745C211.828 109.235 212.019 109.644 213.081 110.025L214.988 110.788C217.685 111.823 218.257 113.375 218.229 114.928C218.202 117.162 216.214 119.259 213.136 119.259C211.065 119.259 208.995 118.115 208.096 115.909Z" fill="#FF4802" stroke="black" stroke-width="12" stroke-linecap="round" stroke-linejoin="round"/>
<path d="M219.619 112.231V112.204C219.619 108.336 221.961 105.176 225.284 105.176C228.853 105.176 230.569 108.799 230.569 112.395V112.449H223.596V112.667C223.596 115.255 224.222 116.808 225.284 116.808C226.047 116.808 226.537 116.208 226.892 114.955C226.973 114.765 227.028 114.519 227.055 114.247L230.378 114.492C230.297 114.792 230.215 115.146 230.079 115.446C229.234 117.843 227.464 119.259 225.339 119.259C222.07 119.259 219.619 116.154 219.619 112.231ZM226.837 110.679C226.755 108.499 226.238 107.492 225.284 107.492C224.331 107.492 223.705 108.69 223.623 110.679H226.837Z" fill="#FF4802" stroke="black" stroke-width="12" stroke-linecap="round" stroke-linejoin="round"/>
<path d="M232.721 105.53H236.398V108.227C237.161 106.102 238.36 105.231 239.64 105.231C241.329 105.231 242.173 106.484 242.445 108.2C243.263 106.102 244.461 105.231 245.741 105.231C247.921 105.231 248.874 107.137 248.874 109.589V118.878H245.088V110.079C245.088 109.017 244.843 107.955 243.998 107.955C243.099 107.955 242.609 109.017 242.609 110.869V118.878H238.959V110.079C238.959 108.908 238.632 107.955 237.869 107.955C237.025 107.955 236.48 109.017 236.48 110.869V118.878H232.721V105.53Z" fill="#FF4802" stroke="black" stroke-width="12" stroke-linecap="round" stroke-linejoin="round"/>
<path d="M250.944 112.231V112.204C250.944 108.336 253.287 105.176 256.61 105.176C260.178 105.176 261.894 108.799 261.894 112.395V112.449H254.921V112.667C254.921 115.255 255.548 116.808 256.61 116.808C257.373 116.808 257.863 116.208 258.217 114.955C258.299 114.765 258.353 114.519 258.38 114.247L261.704 114.492C261.622 114.792 261.54 115.146 261.404 115.446C260.56 117.843 258.789 119.259 256.664 119.259C253.396 119.259 250.944 116.154 250.944 112.231ZM258.163 110.679C258.081 108.499 257.563 107.492 256.61 107.492C255.657 107.492 255.03 108.69 254.948 110.679H258.163Z" fill="#FF4802" stroke="black" stroke-width="12" stroke-linecap="round" stroke-linejoin="round"/>
<path d="M264.033 105.53H267.737V108.118C268.582 105.912 269.808 105.231 271.115 105.231C273.321 105.231 274.302 107.137 274.302 109.535V118.878H270.516V109.861C270.516 108.772 270.162 107.846 269.29 107.846C268.418 107.846 267.792 108.854 267.792 110.788V118.878H264.033V105.53Z" fill="#FF4802" stroke="black" stroke-width="12" stroke-linecap="round" stroke-linejoin="round"/>
<path d="M278.674 118.279C278.047 117.706 277.693 116.889 277.693 115.718V107.955H275.977V105.53H277.721L277.939 101.036H281.48V105.53H283.632V107.955H281.48V115.01C281.48 115.5 281.589 115.827 281.779 116.018C281.997 116.236 282.297 116.317 282.651 116.317C283.06 116.317 283.386 116.236 283.632 116.099V118.769C282.814 119.014 282.27 119.15 281.398 119.15C280.281 119.15 279.328 118.878 278.674 118.279Z" fill="#FF4802" stroke="black" stroke-width="12" stroke-linecap="round" stroke-linejoin="round"/>
<path d="M186.55 140.37L186.223 137.687C187.503 137.687 188.893 137.687 190.391 137.646C191.889 137.619 193.414 137.578 194.953 137.496C196.492 137.414 197.991 137.292 199.421 137.128L199.625 139.512C198.14 139.757 196.642 139.948 195.117 140.07C193.591 140.193 192.093 140.274 190.636 140.315C189.179 140.356 187.817 140.37 186.55 140.37ZM187.476 129.147H196.615V131.83H187.476V129.147ZM196.547 141.323C198.1 141.323 199.448 141.487 200.578 141.827C201.709 142.154 202.58 142.631 203.193 143.257C203.806 143.87 204.12 144.605 204.12 145.45C204.12 146.294 203.806 147.057 203.193 147.67C202.58 148.283 201.709 148.76 200.578 149.1C199.448 149.427 198.113 149.604 196.547 149.604C194.981 149.604 193.687 149.44 192.556 149.1C191.426 148.773 190.541 148.296 189.928 147.67C189.315 147.057 189.002 146.308 189.002 145.45C189.002 144.592 189.315 143.87 189.928 143.257C190.541 142.644 191.426 142.168 192.556 141.827C193.687 141.5 195.022 141.323 196.547 141.323ZM189.969 134.009H193.319V139.375H189.969V134.009ZM196.547 143.938C195.212 143.938 194.204 144.061 193.51 144.292C192.815 144.537 192.461 144.919 192.461 145.436C192.461 145.954 192.801 146.349 193.51 146.58C194.204 146.825 195.212 146.934 196.547 146.934C197.882 146.934 198.903 146.812 199.584 146.58C200.265 146.335 200.606 145.954 200.606 145.436C200.606 144.919 200.265 144.524 199.584 144.292C198.903 144.047 197.895 143.938 196.547 143.938ZM195.267 129.147H198.617V130.604C198.617 131.34 198.604 132.184 198.563 133.11C198.522 134.037 198.386 135.085 198.154 136.243L194.844 135.984C195.062 134.854 195.185 133.859 195.212 133.001C195.239 132.143 195.253 131.34 195.253 130.591V129.133L195.267 129.147ZM200.497 128.017H203.929V141.092H200.497V128.017ZM202.608 133.151H206.38V135.957H202.608V133.151Z" fill="#FF4802" stroke="black" stroke-width="12" stroke-linecap="round" stroke-linejoin="round"/>
<path d="M207.906 144.374H227.423V147.125H207.906V144.374ZM209.867 129.746H223.487V132.484H209.867V129.746ZM214.607 137.033H218.012V145.722H214.607V137.033ZM222.247 129.746H225.68V131.803C225.68 132.702 225.68 133.655 225.639 134.677C225.598 135.698 225.543 136.829 225.421 138.054C225.298 139.294 225.094 140.683 224.794 142.249L221.389 141.882C221.825 139.702 222.07 137.809 222.138 136.189C222.207 134.568 222.247 133.11 222.247 131.817V129.76V129.746Z" fill="#FF4802" stroke="black" stroke-width="12" stroke-linecap="round" stroke-linejoin="round"/>
<path d="M135.421 99.8101H139.943L145.282 118.878H141.414L140.27 114.547H134.877L133.76 118.878H129.973L135.421 99.8101ZM139.589 111.85L137.6 103.651L135.585 111.85H139.589Z" fill="#FF4802"/>
<path d="M146.154 112.286C146.154 107.873 147.842 105.176 150.131 105.176C151.547 105.176 152.637 106.266 153.263 108.009V99.8101H157.077V118.878H153.372V116.072C152.691 117.952 151.465 119.259 149.967 119.259C147.733 119.259 146.154 116.535 146.154 112.286ZM151.683 116.644C152.8 116.644 153.399 115.119 153.399 112.286C153.399 109.453 152.8 107.818 151.71 107.818C150.621 107.818 150.076 109.371 150.076 112.286C150.076 115.2 150.621 116.644 151.683 116.644Z" fill="#FF4802"/>
<path d="M158.684 105.53H162.388L164.568 113.566L166.747 105.53H170.206L165.875 118.878H163.151L158.684 105.53Z" fill="#FF4802"/>
<path d="M170.805 112.231V112.204C170.805 108.336 173.148 105.176 176.471 105.176C180.04 105.176 181.756 108.799 181.756 112.395V112.449H174.782V112.667C174.782 115.255 175.409 116.808 176.471 116.808C177.234 116.808 177.724 116.208 178.078 114.955C178.16 114.765 178.215 114.519 178.242 114.247L181.565 114.492C181.483 114.792 181.402 115.146 181.265 115.446C180.421 117.843 178.65 119.259 176.526 119.259C173.257 119.259 170.805 116.154 170.805 112.231ZM178.024 110.679C177.942 108.499 177.425 107.492 176.471 107.492C175.518 107.492 174.891 108.69 174.81 110.679H178.024Z" fill="#FF4802"/>
<path d="M183.908 105.53H187.503V109.317C188.457 106.484 189.846 105.476 191.562 105.367L191.535 109.48C189.274 109.208 187.667 110.297 187.667 112.476V118.878H183.908V105.53Z" fill="#FF4802"/>
<path d="M195.103 118.279C194.477 117.706 194.123 116.889 194.123 115.718V107.955H192.406V105.53H194.15L194.368 101.036H197.909V105.53H200.061V107.955H197.909V115.01C197.909 115.5 198.018 115.827 198.209 116.018C198.426 116.236 198.726 116.317 199.08 116.317C199.489 116.317 199.816 116.236 200.061 116.099V118.769C199.244 119.014 198.699 119.15 197.827 119.15C196.71 119.15 195.757 118.878 195.103 118.279Z" fill="#FF4802"/>
<path d="M202.185 99.8101H205.972V103.705H202.185V99.8101ZM202.213 105.53H205.972V118.878H202.213V105.53Z" fill="#FF4802"/>
<path d="M208.096 115.909C207.987 115.636 207.906 115.337 207.824 115.064L211.065 114.547C211.093 114.819 211.174 115.064 211.256 115.255C211.665 116.372 212.373 116.835 213.163 116.835C214.062 116.835 214.607 116.181 214.607 115.364C214.607 114.547 214.225 114.165 213.217 113.73L211.229 112.858C209.295 112.041 208.423 110.815 208.45 109.072C208.478 106.92 210.33 105.176 213.163 105.176C215.179 105.176 216.895 106.239 217.712 107.9C217.821 108.118 217.903 108.336 218.012 108.608L215.042 109.208C214.988 108.99 214.961 108.799 214.852 108.608C214.498 107.873 213.871 107.492 213.217 107.492C212.455 107.492 211.828 107.982 211.828 108.745C211.828 109.235 212.019 109.644 213.081 110.025L214.988 110.788C217.685 111.823 218.257 113.375 218.229 114.928C218.202 117.162 216.214 119.259 213.136 119.259C211.065 119.259 208.995 118.115 208.096 115.909Z" fill="#FF4802"/>
<path d="M219.619 112.231V112.204C219.619 108.336 221.961 105.176 225.284 105.176C228.853 105.176 230.569 108.799 230.569 112.395V112.449H223.596V112.667C223.596 115.255 224.222 116.808 225.284 116.808C226.047 116.808 226.537 116.208 226.892 114.955C226.973 114.765 227.028 114.519 227.055 114.247L230.378 114.492C230.297 114.792 230.215 115.146 230.079 115.446C229.234 117.843 227.464 119.259 225.339 119.259C222.07 119.259 219.619 116.154 219.619 112.231ZM226.837 110.679C226.755 108.499 226.238 107.492 225.284 107.492C224.331 107.492 223.705 108.69 223.623 110.679H226.837Z" fill="#FF4802"/>
<path d="M232.721 105.53H236.398V108.227C237.161 106.102 238.36 105.231 239.64 105.231C241.329 105.231 242.173 106.484 242.445 108.2C243.263 106.102 244.461 105.231 245.741 105.231C247.921 105.231 248.874 107.137 248.874 109.589V118.878H245.088V110.079C245.088 109.017 244.843 107.955 243.998 107.955C243.099 107.955 242.609 109.017 242.609 110.869V118.878H238.959V110.079C238.959 108.908 238.632 107.955 237.869 107.955C237.025 107.955 236.48 109.017 236.48 110.869V118.878H232.721V105.53Z" fill="#FF4802"/>
<path d="M250.944 112.231V112.204C250.944 108.336 253.287 105.176 256.61 105.176C260.178 105.176 261.894 108.799 261.894 112.395V112.449H254.921V112.667C254.921 115.255 255.548 116.808 256.61 116.808C257.373 116.808 257.863 116.208 258.217 114.955C258.299 114.765 258.353 114.519 258.38 114.247L261.704 114.492C261.622 114.792 261.54 115.146 261.404 115.446C260.56 117.843 258.789 119.259 256.664 119.259C253.396 119.259 250.944 116.154 250.944 112.231ZM258.163 110.679C258.081 108.499 257.563 107.492 256.61 107.492C255.657 107.492 255.03 108.69 254.948 110.679H258.163Z" fill="#FF4802"/>
<path d="M264.033 105.53H267.737V108.118C268.582 105.912 269.808 105.231 271.115 105.231C273.321 105.231 274.302 107.137 274.302 109.535V118.878H270.516V109.861C270.516 108.772 270.162 107.846 269.29 107.846C268.418 107.846 267.792 108.854 267.792 110.788V118.878H264.033V105.53Z" fill="#FF4802"/>
<path d="M278.674 118.279C278.048 117.706 277.693 116.889 277.693 115.718V107.955H275.977V105.53H277.721L277.939 101.036H281.48V105.53H283.632V107.955H281.48V115.01C281.48 115.5 281.589 115.827 281.779 116.018C281.997 116.236 282.297 116.317 282.651 116.317C283.06 116.317 283.386 116.236 283.632 116.099V118.769C282.814 119.014 282.27 119.15 281.398 119.15C280.281 119.15 279.328 118.878 278.674 118.279Z" fill="#FF4802"/>
<path d="M186.55 140.37L186.223 137.687C187.503 137.687 188.893 137.687 190.391 137.646C191.889 137.619 193.414 137.578 194.953 137.496C196.492 137.414 197.991 137.292 199.421 137.128L199.625 139.512C198.14 139.757 196.642 139.948 195.117 140.07C193.591 140.193 192.093 140.274 190.636 140.315C189.179 140.356 187.817 140.37 186.55 140.37ZM187.476 129.147H196.615V131.83H187.476V129.147ZM196.547 141.323C198.1 141.323 199.448 141.487 200.578 141.827C201.709 142.154 202.58 142.631 203.193 143.257C203.806 143.87 204.12 144.605 204.12 145.45C204.12 146.294 203.806 147.057 203.193 147.67C202.58 148.283 201.709 148.76 200.578 149.1C199.448 149.427 198.113 149.604 196.547 149.604C194.981 149.604 193.687 149.441 192.556 149.1C191.426 148.773 190.541 148.296 189.928 147.67C189.315 147.057 189.002 146.308 189.002 145.45C189.002 144.592 189.315 143.87 189.928 143.257C190.541 142.644 191.426 142.168 192.556 141.827C193.687 141.5 195.022 141.323 196.547 141.323ZM189.969 134.009H193.319V139.375H189.969V134.009ZM196.547 143.938C195.212 143.938 194.204 144.061 193.51 144.292C192.815 144.537 192.461 144.919 192.461 145.436C192.461 145.954 192.801 146.349 193.51 146.58C194.204 146.826 195.212 146.934 196.547 146.934C197.882 146.934 198.903 146.812 199.584 146.58C200.265 146.335 200.606 145.954 200.606 145.436C200.606 144.919 200.265 144.524 199.584 144.292C198.903 144.047 197.895 143.938 196.547 143.938ZM195.267 129.147H198.617V130.604C198.617 131.34 198.604 132.184 198.563 133.11C198.522 134.037 198.386 135.085 198.154 136.243L194.844 135.984C195.062 134.854 195.185 133.859 195.212 133.001C195.239 132.143 195.253 131.34 195.253 130.591V129.133L195.267 129.147ZM200.497 128.017H203.929V141.092H200.497V128.017ZM202.608 133.151H206.38V135.957H202.608V133.151Z" fill="#FF4802"/>
<path d="M207.906 144.374H227.423V147.125H207.906V144.374ZM209.867 129.746H223.487V132.484H209.867V129.746ZM214.607 137.033H218.012V145.722H214.607V137.033ZM222.247 129.746H225.68V131.803C225.68 132.702 225.68 133.655 225.639 134.677C225.598 135.698 225.543 136.829 225.421 138.054C225.298 139.294 225.094 140.683 224.794 142.249L221.389 141.882C221.825 139.702 222.07 137.809 222.138 136.189C222.207 134.568 222.247 133.11 222.247 131.817V129.76V129.746Z" fill="#FF4802"/>
</g>
<defs>
<clipPath id="clip0_209_8530">
<rect width="414" height="414" fill="white"/>
</clipPath>
</defs>
</svg>
