<svg width="414" height="416" viewBox="0 0 414 416" fill="none" xmlns="http://www.w3.org/2000/svg">
<g clip-path="url(#clip0_436_2555)">
<mask id="mask0_436_2555" style="mask-type:luminance" maskUnits="userSpaceOnUse" x="0" y="0" width="414" height="416">
<path d="M414 0H0V416H414V0Z" fill="white"/>
</mask>
<g mask="url(#mask0_436_2555)">
<path d="M414 416V0H364.17V29.66C364.17 44.55 352.16 56.62 337.34 56.62H140.3C125.48 56.62 113.47 44.55 113.47 29.66V0H0V416H100.15V345.07H247.08L168.92 416H414.01H414Z" fill="#4ABFEA"/>
<path d="M150.7 103H146.48V99.88H158.95V103H154.78V119.04H150.69V103H150.7Z" fill="#4ABFEA" stroke="black" stroke-width="12" stroke-linecap="round" stroke-linejoin="round"/>
<path d="M158.11 123.52V120.59C158.46 120.78 159.04 120.95 159.5 120.95C160.13 120.95 160.92 120.73 161.49 119.2L161.82 118.3L157.73 105.65H161.41L163.48 113.67L165.8 105.65H169.31L164.24 120.4C163.34 122.97 161.87 123.82 160.1 123.82C159.39 123.82 158.77 123.74 158.11 123.52Z" fill="#4ABFEA" stroke="black" stroke-width="12" stroke-linecap="round" stroke-linejoin="round"/>
<path d="M170.89 105.63H174.57V108.53C175.2 106.59 176.37 105.27 177.95 105.27C180.18 105.27 181.82 107.98 181.82 112.28C181.82 116.58 180.1 119.42 177.81 119.42C176.37 119.42 175.28 118.24 174.65 116.52V123.42H170.89V105.63ZM176.2 116.74C177.26 116.74 177.86 115.18 177.86 112.28C177.86 109.38 177.29 107.9 176.23 107.9C175.11 107.9 174.57 109.4 174.57 112.28C174.57 115.16 175.14 116.74 176.2 116.74Z" fill="#4ABFEA" stroke="black" stroke-width="12" stroke-linecap="round" stroke-linejoin="round"/>
<path d="M183.42 112.35C183.42 108.27 185.84 105.29 189.11 105.29C192.38 105.29 194.75 108.25 194.78 112.35C194.78 116.43 192.33 119.44 189.11 119.44C185.89 119.44 183.42 116.46 183.42 112.35ZM189.11 116.89C190.15 116.89 190.77 115.39 190.77 112.35C190.77 109.31 190.14 107.78 189.11 107.78C188.02 107.78 187.42 109.26 187.42 112.35C187.42 115.44 188.02 116.89 189.11 116.89Z" fill="#4ABFEA" stroke="black" stroke-width="12" stroke-linecap="round" stroke-linejoin="round"/>
<path d="M196.17 121.35L197.91 119.71C199.05 120.92 199.95 121.43 201.1 121.43C202.54 121.43 203.44 120.69 203.44 118.12V116.45C202.76 118.17 201.56 119.35 200.14 119.35C197.91 119.35 196.35 116.64 196.35 112.37C196.35 108.1 198.01 105.28 200.3 105.28C201.74 105.28 202.94 106.48 203.54 108.43V105.64H207.24V118.64C207.24 122.53 204.46 123.95 201.47 123.95C199.59 123.95 197.41 123.05 196.16 121.35H196.17ZM201.86 116.75C202.98 116.75 203.58 115.25 203.58 112.37C203.58 109.49 202.98 107.94 201.89 107.94C200.8 107.94 200.26 109.5 200.26 112.37C200.26 115.24 200.8 116.75 201.87 116.75H201.86Z" fill="#4ABFEA" stroke="black" stroke-width="12" stroke-linecap="round" stroke-linejoin="round"/>
<path d="M210.11 105.63H213.71V109.44C214.66 106.59 216.05 105.58 217.77 105.47L217.74 109.6C215.48 109.33 213.87 110.42 213.87 112.61V119.04H210.11V105.63Z" fill="#4ABFEA" stroke="black" stroke-width="12" stroke-linecap="round" stroke-linejoin="round"/>
<path d="M218.77 115.63C218.77 113.6 219.62 112.04 222.8 110.92L225.14 110.1V109.58C225.14 108.35 224.71 107.75 223.83 107.75C222.95 107.75 222.49 108.41 222.44 109.39H218.82C219.42 106.95 221.41 105.28 224.21 105.28C227.01 105.28 228.9 106.87 228.9 109.8V115.74C228.9 116.53 229.2 116.73 229.58 116.73C229.72 116.73 229.8 116.7 229.85 116.7V119.03C229.55 119.17 228.9 119.28 228.24 119.28C226.47 119.28 225.33 118.49 225.19 116.71C224.51 118.38 223.42 119.34 221.98 119.34C220.13 119.34 218.77 117.86 218.77 115.65V115.63ZM223.59 116.81C224.46 116.81 225.17 115.8 225.17 114.29V111.72L224 112.32C222.72 112.98 222.34 113.85 222.34 114.97C222.34 116.18 222.97 116.8 223.59 116.8V116.81Z" fill="#4ABFEA" stroke="black" stroke-width="12" stroke-linecap="round" stroke-linejoin="round"/>
<path d="M231.93 105.63H235.61V108.53C236.24 106.59 237.41 105.27 238.99 105.27C241.22 105.27 242.86 107.98 242.86 112.28C242.86 116.58 241.14 119.42 238.86 119.42C237.42 119.42 236.33 118.24 235.7 116.52V123.42H231.94V105.63H231.93ZM237.24 116.74C238.3 116.74 238.9 115.18 238.9 112.28C238.9 109.38 238.33 107.9 237.27 107.9C236.15 107.9 235.61 109.4 235.61 112.28C235.61 115.16 236.18 116.74 237.24 116.74Z" fill="#4ABFEA" stroke="black" stroke-width="12" stroke-linecap="round" stroke-linejoin="round"/>
<path d="M245.14 99.88H248.9V108.04C249.77 105.99 250.97 105.33 252.22 105.33C254.45 105.33 255.41 107.27 255.41 109.65V119.04H251.62V109.98C251.62 108.83 251.21 107.95 250.39 107.95C249.49 107.95 248.89 108.96 248.89 110.91V119.04H245.13V99.88H245.14Z" fill="#4ABFEA" stroke="black" stroke-width="12" stroke-linecap="round" stroke-linejoin="round"/>
<path d="M257.13 123.52V120.59C257.48 120.78 258.06 120.95 258.52 120.95C259.15 120.95 259.94 120.73 260.51 119.2L260.84 118.3L256.75 105.65H260.43L262.5 113.67L264.82 105.65H268.33L263.26 120.4C262.36 122.97 260.89 123.82 259.12 123.82C258.41 123.82 257.79 123.74 257.13 123.52Z" fill="#4ABFEA" stroke="black" stroke-width="12" stroke-linecap="round" stroke-linejoin="round"/>
<path d="M148.21 143.22H144.78V129.99H154.95V132.75H148.21M144.79 142.34H146.64C147.81 142.34 148.93 142.34 149.98 142.3C151.03 142.26 152.05 142.23 153.06 142.16C154.07 142.09 155.1 141.97 156.18 141.8L156.48 144.52C155.4 144.67 154.33 144.79 153.28 144.88C152.23 144.96 151.16 145.02 150.08 145.06C148.99 145.09 147.85 145.1 146.65 145.1H144.8V142.34H144.79ZM147.4 135.99H154.69V138.67H147.4V135.99ZM160.98 149.92H157.55ZM160.23 136.32H163.97V139.14H160.23V136.32Z" fill="#4ABFEA"/>
<path d="M148.21 143.22H144.78V129.99H154.95V132.75H148.21M160.98 149.92H157.55M144.79 142.34H146.64C147.81 142.34 148.93 142.34 149.98 142.3C151.03 142.26 152.05 142.23 153.06 142.16C154.07 142.09 155.1 141.97 156.18 141.8L156.48 144.52C155.4 144.67 154.33 144.79 153.28 144.88C152.23 144.96 151.16 145.02 150.08 145.06C148.99 145.09 147.85 145.1 146.65 145.1H144.8V142.34H144.79ZM147.4 135.99H154.69V138.67H147.4V135.99ZM160.23 136.32H163.97V139.14H160.23V136.32Z" stroke="black" stroke-width="12" stroke-linecap="round" stroke-linejoin="round"/>
<path d="M171.58 129.69C172.67 129.69 173.65 130.01 174.52 130.65C175.38 131.28 176.06 132.18 176.56 133.35C177.06 134.51 177.3 135.88 177.3 137.47C177.3 139.06 177.06 140.48 176.56 141.64C176.07 142.82 175.39 143.72 174.52 144.35C173.65 144.98 172.68 145.31 171.58 145.31C170.48 145.31 169.5 145 168.62 144.35C167.75 143.72 167.07 142.82 166.58 141.64C166.09 140.46 165.84 139.08 165.84 137.47C165.84 135.86 166.08 134.51 166.58 133.35C167.07 132.19 167.75 131.28 168.62 130.65C169.49 130.02 170.47 129.69 171.58 129.69ZM171.58 132.81C171.09 132.81 170.65 132.97 170.3 133.32C169.93 133.66 169.65 134.18 169.44 134.87C169.23 135.56 169.13 136.43 169.13 137.47C169.13 138.51 169.24 139.4 169.44 140.1C169.64 140.8 169.93 141.32 170.3 141.67C170.67 142.01 171.09 142.19 171.58 142.19C172.07 142.19 172.48 142.01 172.86 141.67C173.24 141.33 173.51 140.79 173.72 140.1C173.93 139.4 174.02 138.53 174.02 137.47C174.02 136.41 173.92 135.57 173.72 134.87C173.52 134.19 173.23 133.67 172.86 133.32C172.49 132.98 172.07 132.81 171.58 132.81ZM179.85 128.2H183.28V149.97H179.85V128.2Z" fill="#4ABFEA" stroke="black" stroke-width="12" stroke-linecap="round" stroke-linejoin="round"/>
<path d="M186.6 144.78H206.12V147.57H186.6V144.78ZM188.03 129.92H204.59V132.64H188.03V129.92ZM188.14 138.55H204.48V141.23H188.14V138.55ZM190.85 132.2H194.25V138.84H190.85V132.2ZM194.59 140.08H197.99V146.03H194.59V140.08ZM198.34 132.2H201.74V138.84H198.34V132.2Z" fill="#4ABFEA" stroke="black" stroke-width="12" stroke-linecap="round" stroke-linejoin="round"/>
<path d="M207.91 144.41H227.43V147.17H207.91V144.41ZM209.86 130.12H223.48V132.82H209.86V130.12ZM221.69 130.12H225.09V132.82C225.09 133.86 225.09 134.9 225.05 135.94C225.01 136.98 224.97 138.09 224.86 139.27C224.76 140.45 224.57 141.77 224.31 143.25L220.91 142.98C221.17 141.61 221.36 140.35 221.45 139.19C221.55 138.03 221.61 136.93 221.64 135.89C221.67 134.85 221.68 133.84 221.68 132.84V130.14L221.69 130.12Z" fill="#4ABFEA" stroke="black" stroke-width="12" stroke-linecap="round" stroke-linejoin="round"/>
<path d="M229.71 130.28H237.91V138.89H233.02V143.45H229.74V136.2H234.63V133.01H229.73V130.29H229.72L229.71 130.28ZM229.74 142.45H231.27C232.55 142.45 233.78 142.42 234.93 142.37C236.1 142.32 237.33 142.19 238.62 142.01L238.88 144.76C237.53 144.98 236.26 145.12 235.05 145.18C233.84 145.25 232.57 145.28 231.26 145.28H229.73V142.46L229.74 142.45ZM239.74 128.59H242.89V148.93H239.74V128.59ZM241.86 136.34H245.29V139.06H241.86V136.34ZM244.53 128.24H247.77V149.92H244.53V128.24Z" fill="#4ABFEA" stroke="black" stroke-width="12" stroke-linecap="round" stroke-linejoin="round"/>
<path d="M250.77 145.08L250.44 142.29C251.73 142.29 253.14 142.29 254.65 142.25C256.16 142.22 257.71 142.17 259.29 142.09C260.87 142.01 262.4 141.87 263.87 141.68L264.06 144.17C262.56 144.42 261.04 144.61 259.47 144.74C257.9 144.88 256.39 144.96 254.92 145C253.45 145.04 252.06 145.07 250.77 145.08ZM251.03 130.12H263.11V132.84H251.03V130.12ZM252.75 132.25H256.06V143.02H252.75V132.25ZM258.1 132.25H261.41V143.02H258.1V132.25ZM265.14 128.23H268.57V149.91H265.14V128.23Z" fill="#4ABFEA" stroke="black" stroke-width="12" stroke-linecap="round" stroke-linejoin="round"/>
<path d="M150.7 103.01H146.48V99.89H158.95V103.01H154.78V119.05H150.69V103.01H150.7Z" fill="#4ABFEA"/>
<path d="M158.11 123.52V120.59C158.46 120.78 159.04 120.95 159.5 120.95C160.13 120.95 160.92 120.73 161.49 119.2L161.82 118.3L157.73 105.65H161.41L163.48 113.67L165.8 105.65H169.31L164.24 120.4C163.34 122.97 161.87 123.82 160.1 123.82C159.39 123.82 158.77 123.74 158.11 123.52Z" fill="#4ABFEA"/>
<path d="M170.89 105.64H174.57V108.54C175.2 106.6 176.37 105.28 177.95 105.28C180.18 105.28 181.82 107.99 181.82 112.29C181.82 116.59 180.1 119.43 177.81 119.43C176.37 119.43 175.28 118.25 174.65 116.53V123.43H170.89V105.64ZM176.2 116.75C177.26 116.75 177.86 115.19 177.86 112.29C177.86 109.39 177.29 107.91 176.23 107.91C175.11 107.91 174.57 109.41 174.57 112.29C174.57 115.17 175.14 116.75 176.2 116.75Z" fill="#4ABFEA"/>
<path d="M183.42 112.35C183.42 108.27 185.84 105.29 189.11 105.29C192.38 105.29 194.75 108.25 194.78 112.35C194.78 116.43 192.33 119.44 189.11 119.44C185.89 119.44 183.42 116.46 183.42 112.35ZM189.11 116.89C190.15 116.89 190.77 115.39 190.77 112.35C190.77 109.31 190.14 107.78 189.11 107.78C188.02 107.78 187.42 109.26 187.42 112.35C187.42 115.44 188.02 116.89 189.11 116.89Z" fill="#4ABFEA"/>
<path d="M196.17 121.35L197.91 119.71C199.05 120.92 199.95 121.43 201.1 121.43C202.54 121.43 203.44 120.69 203.44 118.12V116.45C202.76 118.17 201.56 119.35 200.14 119.35C197.91 119.35 196.35 116.64 196.35 112.37C196.35 108.1 198.01 105.28 200.3 105.28C201.74 105.28 202.94 106.48 203.54 108.43V105.64H207.24V118.64C207.24 122.53 204.46 123.95 201.47 123.95C199.59 123.95 197.41 123.05 196.16 121.35H196.17ZM201.86 116.75C202.98 116.75 203.58 115.25 203.58 112.37C203.58 109.49 202.98 107.94 201.89 107.94C200.8 107.94 200.26 109.5 200.26 112.37C200.26 115.24 200.8 116.75 201.87 116.75H201.86Z" fill="#4ABFEA"/>
<path d="M210.11 105.64H213.71V109.44C214.66 106.59 216.05 105.58 217.77 105.47L217.74 109.6C215.48 109.33 213.87 110.42 213.87 112.61V119.04H210.11V105.63V105.64Z" fill="#4ABFEA"/>
<path d="M218.77 115.63C218.77 113.6 219.62 112.04 222.8 110.92L225.14 110.1V109.58C225.14 108.35 224.71 107.75 223.83 107.75C222.95 107.75 222.49 108.41 222.44 109.39H218.82C219.42 106.95 221.41 105.28 224.21 105.28C227.01 105.28 228.9 106.87 228.9 109.8V115.74C228.9 116.53 229.2 116.73 229.58 116.73C229.72 116.73 229.8 116.7 229.85 116.7V119.03C229.55 119.17 228.9 119.28 228.24 119.28C226.47 119.28 225.33 118.49 225.19 116.71C224.51 118.38 223.42 119.34 221.98 119.34C220.13 119.34 218.77 117.86 218.77 115.65V115.63ZM223.59 116.81C224.46 116.81 225.17 115.8 225.17 114.29V111.72L224 112.32C222.72 112.98 222.34 113.85 222.34 114.97C222.34 116.18 222.97 116.8 223.59 116.8V116.81Z" fill="#4ABFEA"/>
<path d="M231.93 105.64H235.61V108.54C236.24 106.6 237.41 105.28 238.99 105.28C241.22 105.28 242.86 107.99 242.86 112.29C242.86 116.59 241.14 119.43 238.86 119.43C237.42 119.43 236.33 118.25 235.7 116.53V123.43H231.94V105.64H231.93ZM237.24 116.75C238.3 116.75 238.9 115.19 238.9 112.29C238.9 109.39 238.33 107.91 237.27 107.91C236.15 107.91 235.61 109.41 235.61 112.29C235.61 115.17 236.18 116.75 237.24 116.75Z" fill="#4ABFEA"/>
<path d="M245.14 99.89H248.9V108.05C249.77 106 250.97 105.34 252.22 105.34C254.45 105.34 255.41 107.28 255.41 109.66V119.05H251.62V109.99C251.62 108.84 251.21 107.96 250.39 107.96C249.49 107.96 248.89 108.97 248.89 110.92V119.05H245.13V99.89H245.14Z" fill="#4ABFEA"/>
<path d="M257.13 123.52V120.59C257.48 120.78 258.06 120.95 258.52 120.95C259.15 120.95 259.94 120.73 260.51 119.2L260.84 118.3L256.75 105.65H260.43L262.5 113.67L264.82 105.65H268.33L263.26 120.4C262.36 122.97 260.89 123.82 259.12 123.82C258.41 123.82 257.79 123.74 257.13 123.52Z" fill="#4ABFEA"/>
</g>
<path d="M162.22 129.2H160.65V131.3H162.22V129.2Z" fill="black"/>
<path d="M147.95 142.06C148.27 142.08 148.64 142.08 149.06 142.08C151.39 142.08 154.72 141.85 156.55 141.5C156.62 142.33 156.76 143.16 156.83 144C154.17 144.49 151.12 144.74 147.86 144.74C146.82 144.74 145.78 144.69 144.74 144.69V129.95H154.81V132.49H147.95V135.75H154.49V138.36H147.95V142.06ZM161.14 136.12H164.03V138.8H161.14V149.91H157.91V128H161.14V136.11V136.12Z" fill="#4ABFEA"/>
<path d="M171.52 129.42C175.17 129.42 177.3 132.72 177.3 137.32C177.3 141.92 175.17 145.18 171.52 145.18C167.87 145.18 165.79 141.85 165.79 137.32C165.79 132.79 167.94 129.42 171.52 129.42ZM171.52 132.28C170.04 132.28 168.89 133.99 168.89 137.32C168.89 140.65 170.05 142.33 171.52 142.33C173.09 142.33 174.25 140.62 174.25 137.32C174.25 134.02 173.09 132.28 171.52 132.28ZM180.16 149.91V128H183.39V149.91H180.16Z" fill="#4ABFEA"/>
<path d="M186.47 147.19V144.65H194.74V140.72H188.25V138.18H191.35L190.66 133.44L193.87 133.14L194.31 138.18H198.45L198.94 133.17L202.17 133.52L201.34 138.19H204.37V140.73H197.99V144.66H206.26V147.2H186.48L186.47 147.19ZM188.2 132.29V129.73H204.42V132.29H188.2Z" fill="#4ABFEA"/>
<path d="M207.74 146.86V144.32H227.52V146.86H207.74ZM224.93 130.13C225 135.47 224.51 140.64 224.05 143.3L220.93 142.98C221.32 140.74 221.81 135.68 221.69 132.72H209.79V130.13H224.92H224.93Z" fill="#4ABFEA"/>
<path d="M233.04 144.92C231.98 144.92 230.96 144.87 229.87 144.87V135.54H236.71V132.37H229.85V129.83H239.97V138.08H233.18V142.22H233.76C235.86 142.22 238.94 142.1 241.48 141.62C241.6 142.5 241.69 143.35 241.83 144.23C239.84 144.6 236.31 144.92 233.05 144.92H233.04ZM246.19 136.28H249.19V138.96H246.19V149.91H242.96V128H246.19V136.27V136.28Z" fill="#4ABFEA"/>
<path d="M263.92 144.12C261.01 144.56 254.98 145.04 250.63 145.04L250.24 142.31C251.09 142.36 252.04 142.36 253.04 142.36C252.76 139.52 252.51 136.63 252.25 133.76C253.31 133.67 254.38 133.55 255.44 133.48L255.81 142.26C256.57 142.24 257.31 142.19 258.05 142.14C258.23 139.23 258.44 136.36 258.6 133.45L261.74 133.77C261.44 136.5 261.12 139.2 260.84 141.93C261.9 141.84 262.85 141.72 263.64 141.63L263.92 144.1V144.12ZM250.77 132.5V129.96H262.83V132.5H250.77ZM265.19 149.92V128.01H268.45V149.92H265.19Z" fill="#4ABFEA"/>
<path d="M38.9195 26.5637H55.7535V40.7146C55.7535 42.7948 57.2926 44.2865 59.3083 44.2865C61.324 44.2865 62.8086 42.7948 62.8086 40.7146V26.5637H79.6426V69.2627H62.8086V58.7522H55.7399V69.2627H38.9059V26.5637H38.9195Z" fill="black"/>
<path d="M116.525 49.2544V69.2764H81.6311V43.917H93.3169V36.171H103.518C110.165 36.171 116.539 42.5759 116.539 49.2544H116.525ZM95.1692 55.6045C95.1692 57.7395 96.9261 59.4502 99.0508 59.4502C101.175 59.4502 102.878 57.7395 102.878 55.6045C102.878 53.4696 101.175 51.7041 99.0508 51.7041C96.9261 51.7041 95.1692 53.4148 95.1692 55.6045Z" fill="black"/>
<path d="M118.65 36.171H154.184V69.2627H139.474V51.2799C139.474 49.5144 138.194 48.1869 136.451 48.1869C134.707 48.1869 133.373 49.5281 133.373 51.2799V69.2627H118.663V36.171H118.65Z" fill="black"/>
<path d="M157.956 66.9224H164.698C159.386 64.0895 155.777 58.7521 155.777 52.7305C155.777 45.3677 160.449 39.0723 167.095 36.4994V26.5774H180.061V36.4994C186.708 39.0039 191.434 45.3129 191.434 52.7305C191.434 58.7658 187.824 64.1032 182.513 66.9224H189.363V78.8836H157.97V66.9224H157.956ZM177.664 52.7852C177.664 50.5408 175.812 48.6796 173.578 48.6796C171.344 48.6796 169.492 50.5545 169.492 52.7852C169.492 55.016 171.358 56.8909 173.578 56.8909C175.798 56.8909 177.664 55.016 177.664 52.7852Z" fill="black"/>
<path d="M228.547 69.2627H193.014V36.171H207.723V54.1538C207.723 55.9193 209.003 57.2468 210.746 57.2468C212.49 57.2468 213.825 55.9056 213.825 54.1538V36.171H228.534V69.2627H228.547Z" fill="black"/>
<path d="M230.672 26.5637H245.913V69.2627H230.672V26.5637Z" fill="black"/>
<path d="M249.685 66.9224H256.427C251.115 64.0895 247.506 58.7521 247.506 52.7305C247.506 45.3677 252.178 39.0723 258.824 36.4994V26.5774H271.79V36.4994C278.437 39.0039 283.163 45.3129 283.163 52.7305C283.163 58.7658 279.554 64.1032 274.242 66.9224H281.093V78.8836H249.699V66.9224H249.685ZM269.393 52.7852C269.393 50.5408 267.541 48.6796 265.307 48.6796C263.074 48.6796 261.221 50.5545 261.221 52.7852C261.221 55.016 263.087 56.8909 265.307 56.8909C267.527 56.8909 269.393 55.016 269.393 52.7852Z" fill="black"/>
<path d="M286.241 66.9224H292.983C287.671 64.0895 284.062 58.7521 284.062 52.7305C284.062 45.3677 288.733 39.0723 295.38 36.4994V26.5774H308.346V36.4994C314.992 39.0039 319.718 45.3129 319.718 52.7305C319.718 58.7658 316.109 64.1032 310.797 66.9224H317.648V78.8836H286.254V66.9224H286.241ZM305.949 52.7852C305.949 50.5408 304.096 48.6796 301.863 48.6796C299.629 48.6796 297.777 50.5545 297.777 52.7852C297.777 55.016 299.643 56.8909 301.863 56.8909C304.083 56.8909 305.949 55.016 305.949 52.7852Z" fill="black"/>
<path d="M320.604 52.7169C320.604 43.1096 328.571 35.3225 338.445 35.3225C348.32 35.3225 356.246 43.0685 356.246 52.7169C356.246 62.3652 348.224 70.1659 338.445 70.1659C328.666 70.1659 320.604 62.3241 320.604 52.7169ZM342.49 52.7716C342.49 50.5272 340.638 48.6659 338.405 48.6659C336.171 48.6659 334.319 50.5409 334.319 52.7716C334.319 55.0023 336.185 56.8773 338.405 56.8773C340.625 56.8773 342.49 55.0023 342.49 52.7716Z" fill="black"/>
<path d="M357.84 26.5637H373.08V69.2627H357.84V26.5637Z" fill="black"/>
</g>
<defs>
<clipPath id="clip0_436_2555">
<rect width="414" height="416" fill="white"/>
</clipPath>
</defs>
</svg>
