<svg width="414" height="416" viewBox="0 0 414 416" fill="none" xmlns="http://www.w3.org/2000/svg">
<g clip-path="url(#clip0_209_8533)">
<path d="M414 416V0H364.165V29.6566C364.165 44.5465 352.153 56.6172 337.334 56.6172H140.297C125.479 56.6172 113.466 44.5465 113.466 29.6566V0H0V416H100.146V345.068H247.076L168.912 416H413.986H414Z" fill="#4ABFEA"/>
<path d="M39.9196 26.5637H56.7537V40.7146C56.7537 42.7948 58.2927 44.2865 60.3084 44.2865C62.3241 44.2865 63.8087 42.7948 63.8087 40.7146V26.5637H80.6427V69.2627H63.8087V58.7522H56.74V69.2627H39.906V26.5637H39.9196Z" fill="black"/>
<path d="M117.525 49.2543V69.2763H82.6311V43.9169H94.3169V36.1709H104.518C111.165 36.1709 117.539 42.5757 117.539 49.2543H117.525ZM96.1692 55.6044C96.1692 57.7393 97.9261 59.45 100.051 59.45C102.175 59.45 103.878 57.7393 103.878 55.6044C103.878 53.4695 102.175 51.704 100.051 51.704C97.9261 51.704 96.1692 53.4147 96.1692 55.6044Z" fill="black"/>
<path d="M119.65 36.1709H155.184V69.2626H140.474V51.2798C140.474 49.5143 139.194 48.1868 137.451 48.1868C135.707 48.1868 134.373 49.528 134.373 51.2798V69.2626H119.663V36.1709H119.65Z" fill="black"/>
<path d="M158.956 66.9224H165.698C160.386 64.0895 156.777 58.7521 156.777 52.7305C156.777 45.3677 161.449 39.0723 168.095 36.4994V26.5774H181.061V36.4994C187.708 39.0039 192.434 45.3129 192.434 52.7305C192.434 58.7658 188.824 64.1032 183.513 66.9224H190.363V78.8836H158.97V66.9224H158.956ZM178.664 52.7852C178.664 50.5408 176.812 48.6796 174.578 48.6796C172.344 48.6796 170.492 50.5545 170.492 52.7852C170.492 55.016 172.358 56.8909 174.578 56.8909C176.798 56.8909 178.664 55.016 178.664 52.7852Z" fill="black"/>
<path d="M229.548 69.2626H194.014V36.1709H208.723V54.1537C208.723 55.9192 210.003 57.2467 211.747 57.2467C213.49 57.2467 214.825 55.9055 214.825 54.1537V36.1709H229.534V69.2626H229.548Z" fill="black"/>
<path d="M231.672 26.5637H246.913V69.2627H231.672V26.5637Z" fill="black"/>
<path d="M250.685 66.9224H257.427C252.116 64.0895 248.506 58.7521 248.506 52.7305C248.506 45.3677 253.178 39.0723 259.824 36.4994V26.5774H272.79V36.4994C279.437 39.0039 284.163 45.3129 284.163 52.7305C284.163 58.7658 280.554 64.1032 275.242 66.9224H282.093V78.8836H250.699V66.9224H250.685ZM270.393 52.7852C270.393 50.5408 268.541 48.6796 266.307 48.6796C264.074 48.6796 262.221 50.5545 262.221 52.7852C262.221 55.016 264.087 56.8909 266.307 56.8909C268.527 56.8909 270.393 55.016 270.393 52.7852Z" fill="black"/>
<path d="M287.241 66.9224H293.983C288.671 64.0895 285.062 58.7521 285.062 52.7305C285.062 45.3677 289.733 39.0723 296.38 36.4994V26.5774H309.346V36.4994C315.992 39.0039 320.718 45.3129 320.718 52.7305C320.718 58.7658 317.109 64.1032 311.797 66.9224H318.648V78.8836H287.255V66.9224H287.241ZM306.949 52.7852C306.949 50.5408 305.096 48.6796 302.863 48.6796C300.629 48.6796 298.777 50.5545 298.777 52.7852C298.777 55.016 300.643 56.8909 302.863 56.8909C305.083 56.8909 306.949 55.016 306.949 52.7852Z" fill="black"/>
<path d="M321.604 52.7169C321.604 43.1096 329.571 35.3225 339.445 35.3225C349.32 35.3225 357.246 43.0685 357.246 52.7169C357.246 62.3652 349.224 70.1659 339.445 70.1659C329.666 70.1659 321.604 62.3241 321.604 52.7169ZM343.49 52.7716C343.49 50.5272 341.638 48.6659 339.405 48.6659C337.171 48.6659 335.319 50.5409 335.319 52.7716C335.319 55.0023 337.185 56.8773 339.405 56.8773C341.625 56.8773 343.49 55.0023 343.49 52.7716Z" fill="black"/>
<path d="M358.84 26.5637H374.081V69.2627H358.84V26.5637Z" fill="black"/>
<path d="M150.703 103.001H146.481V99.8811H158.956V103.001H154.789V119.041H150.703V103.001Z" fill="#4ABFEA" stroke="black" stroke-width="12" stroke-linecap="round" stroke-linejoin="round"/>
<path d="M158.112 123.516V120.587C158.466 120.779 159.038 120.943 159.501 120.943C160.128 120.943 160.918 120.724 161.49 119.192L161.817 118.288L157.731 105.643H161.408L163.478 113.663L165.794 105.643H169.308L164.241 120.396C163.342 122.969 161.871 123.817 160.101 123.817C159.392 123.817 158.766 123.735 158.112 123.516Z" fill="#4ABFEA" stroke="black" stroke-width="12" stroke-linecap="round" stroke-linejoin="round"/>
<path d="M170.887 105.629H174.565V108.53C175.191 106.587 176.363 105.273 177.942 105.273C180.176 105.273 181.811 107.983 181.811 112.28C181.811 116.577 180.094 119.424 177.806 119.424C176.363 119.424 175.273 118.247 174.647 116.523V123.42H170.887V105.629ZM176.199 116.742C177.261 116.742 177.861 115.182 177.861 112.28C177.861 109.379 177.289 107.901 176.226 107.901C175.11 107.901 174.565 109.406 174.565 112.28C174.565 115.154 175.137 116.742 176.199 116.742Z" fill="#4ABFEA" stroke="black" stroke-width="12" stroke-linecap="round" stroke-linejoin="round"/>
<path d="M183.417 112.349C183.417 108.27 185.842 105.287 189.111 105.287C192.379 105.287 194.749 108.243 194.776 112.349C194.776 116.427 192.325 119.438 189.111 119.438C185.896 119.438 183.417 116.454 183.417 112.349ZM189.111 116.892C190.146 116.892 190.772 115.387 190.772 112.349C190.772 109.31 190.146 107.778 189.111 107.778C188.021 107.778 187.422 109.256 187.422 112.349C187.422 115.442 188.021 116.892 189.111 116.892Z" fill="#4ABFEA" stroke="black" stroke-width="12" stroke-linecap="round" stroke-linejoin="round"/>
<path d="M196.166 121.354L197.909 119.711C199.053 120.916 199.952 121.436 201.096 121.436C202.54 121.436 203.439 120.697 203.439 118.124V116.454C202.758 118.179 201.559 119.356 200.143 119.356C197.909 119.356 196.356 116.646 196.356 112.376C196.356 108.106 198.018 105.287 200.306 105.287C201.75 105.287 202.948 106.491 203.548 108.435V105.643H207.252V118.644C207.252 122.531 204.474 123.954 201.477 123.954C199.598 123.954 197.419 123.051 196.166 121.354ZM201.859 116.755C202.976 116.755 203.575 115.25 203.575 112.376C203.575 109.502 202.976 107.942 201.886 107.942C200.796 107.942 200.252 109.502 200.252 112.376C200.252 115.25 200.797 116.755 201.859 116.755Z" fill="#4ABFEA" stroke="black" stroke-width="12" stroke-linecap="round" stroke-linejoin="round"/>
<path d="M210.112 105.629H213.708V109.434C214.661 106.587 216.051 105.574 217.767 105.465L217.739 109.598C215.478 109.324 213.871 110.419 213.871 112.609V119.041H210.112V105.629Z" fill="#4ABFEA" stroke="black" stroke-width="12" stroke-linecap="round" stroke-linejoin="round"/>
<path d="M218.774 115.633C218.774 113.608 219.619 112.048 222.806 110.925L225.148 110.104V109.584C225.148 108.352 224.713 107.75 223.841 107.75C222.969 107.75 222.506 108.407 222.452 109.393H218.829C219.428 106.957 221.417 105.287 224.222 105.287C227.028 105.287 228.908 106.874 228.908 109.803V115.743C228.908 116.536 229.207 116.728 229.589 116.728C229.725 116.728 229.806 116.701 229.861 116.701V119.027C229.561 119.164 228.908 119.274 228.254 119.274C226.483 119.274 225.339 118.48 225.203 116.701C224.522 118.37 223.432 119.328 221.989 119.328C220.136 119.328 218.774 117.85 218.774 115.633ZM223.596 116.81C224.467 116.81 225.176 115.797 225.176 114.292V111.719L224.004 112.321C222.724 112.978 222.343 113.854 222.343 114.976C222.343 116.181 222.969 116.81 223.596 116.81Z" fill="#4ABFEA" stroke="black" stroke-width="12" stroke-linecap="round" stroke-linejoin="round"/>
<path d="M231.931 105.629H235.609V108.53C236.235 106.587 237.406 105.273 238.986 105.273C241.22 105.273 242.854 107.983 242.854 112.28C242.854 116.577 241.138 119.424 238.85 119.424C237.406 119.424 236.317 118.247 235.69 116.523V123.42H231.931V105.629ZM237.243 116.742C238.305 116.742 238.904 115.182 238.904 112.28C238.904 109.379 238.332 107.901 237.27 107.901C236.153 107.901 235.609 109.406 235.609 112.28C235.609 115.154 236.181 116.742 237.243 116.742Z" fill="#4ABFEA" stroke="black" stroke-width="12" stroke-linecap="round" stroke-linejoin="round"/>
<path d="M245.142 99.8811H248.901V108.038C249.773 105.985 250.972 105.328 252.225 105.328C254.458 105.328 255.412 107.271 255.412 109.653V119.041H251.625V109.981C251.625 108.831 251.217 107.956 250.4 107.956C249.501 107.956 248.901 108.968 248.901 110.912V119.041H245.142V99.8811Z" fill="#4ABFEA" stroke="black" stroke-width="12" stroke-linecap="round" stroke-linejoin="round"/>
<path d="M257.128 123.516V120.587C257.482 120.779 258.054 120.943 258.517 120.943C259.143 120.943 259.933 120.724 260.505 119.192L260.832 118.288L256.746 105.643H260.424L262.494 113.663L264.809 105.643H268.323L263.257 120.396C262.358 122.969 260.887 123.817 259.116 123.817C258.408 123.817 257.781 123.735 257.128 123.516Z" fill="#4ABFEA" stroke="black" stroke-width="12" stroke-linecap="round" stroke-linejoin="round"/>
<path d="M144.792 129.989H154.952V132.754H148.21V143.223H144.778V129.989H144.792ZM144.792 142.347H146.644C147.816 142.347 148.932 142.347 149.981 142.306C151.03 142.265 152.051 142.238 153.059 142.169C154.067 142.101 155.102 141.978 156.178 141.814L156.478 144.537C155.402 144.688 154.326 144.811 153.277 144.893C152.228 144.975 151.152 145.03 150.076 145.071C148.987 145.098 147.843 145.112 146.644 145.112H144.792V142.347ZM147.407 135.997H154.694V138.68H147.407V135.997ZM157.554 128.251H160.986V149.929H157.554V128.251ZM160.237 136.326H163.982V139.145H160.237V136.326Z" fill="#4ABFEA" stroke="black" stroke-width="12" stroke-linecap="round" stroke-linejoin="round"/>
<path d="M171.582 129.688C172.672 129.688 173.652 130.003 174.524 130.646C175.382 131.276 176.063 132.179 176.567 133.342C177.071 134.506 177.302 135.874 177.302 137.462C177.302 139.049 177.057 140.472 176.567 141.636C176.077 142.813 175.396 143.716 174.524 144.345C173.652 144.975 172.685 145.303 171.582 145.303C170.479 145.303 169.498 144.989 168.627 144.345C167.755 143.716 167.074 142.813 166.584 141.636C166.093 140.459 165.848 139.077 165.848 137.462C165.848 135.847 166.093 134.506 166.584 133.342C167.074 132.179 167.755 131.276 168.627 130.646C169.498 130.017 170.479 129.688 171.582 129.688ZM171.582 132.809C171.092 132.809 170.656 132.973 170.302 133.315C169.934 133.657 169.648 134.177 169.444 134.861C169.239 135.546 169.131 136.422 169.131 137.462C169.131 138.502 169.239 139.391 169.444 140.089C169.648 140.787 169.934 141.307 170.302 141.663C170.67 142.005 171.092 142.183 171.582 142.183C172.072 142.183 172.481 142.005 172.862 141.663C173.244 141.321 173.516 140.787 173.72 140.089C173.925 139.391 174.02 138.515 174.02 137.462C174.02 136.408 173.925 135.559 173.72 134.861C173.516 134.177 173.23 133.657 172.862 133.315C172.495 132.973 172.072 132.809 171.582 132.809ZM179.849 128.197H183.281V149.97H179.849V128.197Z" fill="#4ABFEA" stroke="black" stroke-width="12" stroke-linecap="round" stroke-linejoin="round"/>
<path d="M186.604 144.783H206.122V147.575H186.604V144.783ZM188.035 129.921H204.596V132.644H188.035V129.921ZM188.144 138.556H204.487V141.239H188.144V138.556ZM190.854 132.206H194.259V138.844H190.854V132.206ZM194.599 140.089H198.004V146.042H194.599V140.089ZM198.345 132.206H201.75V138.844H198.345V132.206Z" fill="#4ABFEA" stroke="black" stroke-width="12" stroke-linecap="round" stroke-linejoin="round"/>
<path d="M207.906 144.414H227.423V147.178H207.906V144.414ZM209.854 130.126H223.473V132.822H209.854V130.126ZM221.689 130.126H225.094V132.822C225.094 133.862 225.094 134.902 225.053 135.943C225.012 136.983 224.972 138.091 224.863 139.268C224.767 140.445 224.577 141.773 224.318 143.251L220.913 142.977C221.172 141.608 221.362 140.349 221.458 139.186C221.553 138.023 221.621 136.928 221.648 135.888C221.676 134.848 221.689 133.835 221.689 132.836V130.14V130.126Z" fill="#4ABFEA" stroke="black" stroke-width="12" stroke-linecap="round" stroke-linejoin="round"/>
<path d="M229.711 130.277H237.91V138.885H233.021V143.442H229.738V136.189H234.628V133H229.725V130.277H229.711ZM229.738 142.443H231.264C232.544 142.443 233.77 142.416 234.928 142.361C236.099 142.306 237.325 142.183 238.618 142.005L238.877 144.756C237.529 144.975 236.262 145.112 235.05 145.18C233.838 145.249 232.571 145.276 231.264 145.276H229.738V142.457V142.443ZM239.735 128.58H242.881V148.916H239.735V128.58ZM241.86 136.326H245.292V139.049H241.86V136.326ZM244.529 128.224H247.771V149.902H244.529V128.224Z" fill="#4ABFEA" stroke="black" stroke-width="12" stroke-linecap="round" stroke-linejoin="round"/>
<path d="M250.767 145.084L250.44 142.293C251.734 142.293 253.137 142.293 254.649 142.252C256.161 142.224 257.713 142.169 259.293 142.087C260.873 142.005 262.399 141.868 263.87 141.677L264.06 144.168C262.562 144.414 261.037 144.605 259.47 144.742C257.904 144.879 256.392 144.961 254.921 145.002C253.45 145.043 252.061 145.071 250.767 145.084ZM251.026 130.126H263.107V132.85H251.026V130.126ZM252.742 132.261H256.052V143.032H252.742V132.261ZM258.095 132.261H261.404V143.032H258.095V132.261ZM265.136 128.238H268.568V149.915H265.136V128.238Z" fill="#4ABFEA" stroke="black" stroke-width="12" stroke-linecap="round" stroke-linejoin="round"/>
<path d="M150.703 103.015H146.481V99.8948H158.956V103.015H154.789V119.055H150.703V103.015Z" fill="#4ABFEA"/>
<path d="M158.112 123.516V120.587C158.466 120.779 159.038 120.943 159.501 120.943C160.128 120.943 160.918 120.724 161.49 119.192L161.817 118.288L157.731 105.643H161.408L163.478 113.663L165.794 105.643H169.308L164.241 120.396C163.342 122.969 161.871 123.817 160.101 123.817C159.392 123.817 158.766 123.735 158.112 123.516Z" fill="#4ABFEA"/>
<path d="M170.887 105.643H174.565V108.544C175.191 106.601 176.363 105.287 177.942 105.287C180.176 105.287 181.811 107.997 181.811 112.294C181.811 116.591 180.094 119.438 177.806 119.438C176.363 119.438 175.273 118.261 174.647 116.536V123.434H170.887V105.643ZM176.199 116.755C177.261 116.755 177.861 115.195 177.861 112.294C177.861 109.393 177.289 107.915 176.226 107.915C175.11 107.915 174.565 109.42 174.565 112.294C174.565 115.168 175.137 116.755 176.199 116.755Z" fill="#4ABFEA"/>
<path d="M183.417 112.349C183.417 108.27 185.842 105.287 189.111 105.287C192.379 105.287 194.749 108.243 194.776 112.349C194.776 116.427 192.325 119.438 189.111 119.438C185.896 119.438 183.417 116.454 183.417 112.349ZM189.111 116.892C190.146 116.892 190.772 115.387 190.772 112.349C190.772 109.31 190.146 107.778 189.111 107.778C188.021 107.778 187.422 109.256 187.422 112.349C187.422 115.442 188.021 116.892 189.111 116.892Z" fill="#4ABFEA"/>
<path d="M196.166 121.354L197.909 119.711C199.053 120.916 199.952 121.436 201.096 121.436C202.54 121.436 203.439 120.697 203.439 118.124V116.454C202.758 118.179 201.559 119.356 200.143 119.356C197.909 119.356 196.356 116.646 196.356 112.376C196.356 108.106 198.018 105.287 200.306 105.287C201.75 105.287 202.948 106.491 203.548 108.435V105.643H207.252V118.644C207.252 122.531 204.474 123.954 201.477 123.954C199.598 123.954 197.419 123.051 196.166 121.354ZM201.859 116.755C202.976 116.755 203.575 115.25 203.575 112.376C203.575 109.502 202.976 107.942 201.886 107.942C200.796 107.942 200.252 109.502 200.252 112.376C200.252 115.25 200.797 116.755 201.859 116.755Z" fill="#4ABFEA"/>
<path d="M210.112 105.643H213.708V109.447C214.661 106.601 216.051 105.588 217.767 105.479L217.739 109.612C215.478 109.338 213.871 110.433 213.871 112.622V119.055H210.112V105.643Z" fill="#4ABFEA"/>
<path d="M218.774 115.633C218.774 113.608 219.619 112.048 222.806 110.925L225.148 110.104V109.584C225.148 108.352 224.713 107.75 223.841 107.75C222.969 107.75 222.506 108.407 222.452 109.393H218.829C219.428 106.957 221.417 105.287 224.222 105.287C227.028 105.287 228.908 106.874 228.908 109.803V115.743C228.908 116.536 229.207 116.728 229.589 116.728C229.725 116.728 229.806 116.701 229.861 116.701V119.027C229.561 119.164 228.908 119.274 228.254 119.274C226.483 119.274 225.339 118.48 225.203 116.701C224.522 118.37 223.432 119.328 221.989 119.328C220.136 119.328 218.774 117.85 218.774 115.633ZM223.596 116.81C224.467 116.81 225.176 115.797 225.176 114.292V111.719L224.004 112.321C222.724 112.978 222.343 113.854 222.343 114.976C222.343 116.181 222.969 116.81 223.596 116.81Z" fill="#4ABFEA"/>
<path d="M231.931 105.643H235.609V108.544C236.235 106.601 237.406 105.287 238.986 105.287C241.22 105.287 242.854 107.997 242.854 112.294C242.854 116.591 241.138 119.438 238.85 119.438C237.406 119.438 236.317 118.261 235.69 116.536V123.434H231.931V105.643ZM237.243 116.755C238.305 116.755 238.904 115.195 238.904 112.294C238.904 109.393 238.332 107.915 237.27 107.915C236.153 107.915 235.609 109.42 235.609 112.294C235.609 115.168 236.181 116.755 237.243 116.755Z" fill="#4ABFEA"/>
<path d="M245.142 99.8948H248.901V108.051C249.773 105.999 250.972 105.342 252.225 105.342C254.458 105.342 255.412 107.285 255.412 109.666V119.055H251.625V109.995C251.625 108.845 251.217 107.969 250.4 107.969C249.501 107.969 248.901 108.982 248.901 110.925V119.055H245.142V99.8948Z" fill="#4ABFEA"/>
<path d="M257.128 123.516V120.587C257.482 120.779 258.054 120.943 258.517 120.943C259.143 120.943 259.933 120.724 260.505 119.192L260.832 118.288L256.746 105.643H260.424L262.494 113.663L264.809 105.643H268.323L263.257 120.396C262.358 122.969 260.887 123.817 259.116 123.817C258.408 123.817 257.781 123.735 257.128 123.516Z" fill="#4ABFEA"/>
<path d="M144.792 130.003H154.952V132.767H148.21V143.237H144.778V130.003H144.792ZM144.792 142.361H146.644C147.816 142.361 148.932 142.361 149.981 142.32C151.03 142.279 152.051 142.252 153.059 142.183C154.067 142.115 155.102 141.992 156.178 141.827L156.478 144.551C155.402 144.701 154.326 144.824 153.277 144.907C152.228 144.989 151.152 145.043 150.076 145.084C148.987 145.112 147.843 145.126 146.644 145.126H144.792V142.361ZM147.407 136.011H154.694V138.693H147.407V136.011ZM157.554 128.265H160.986V149.943H157.554V128.265ZM160.237 136.339H163.982V139.159H160.237V136.339Z" fill="#4ABFEA"/>
<path d="M171.582 129.688C172.672 129.688 173.652 130.003 174.524 130.646C175.382 131.276 176.063 132.179 176.567 133.342C177.071 134.506 177.302 135.874 177.302 137.462C177.302 139.049 177.057 140.472 176.567 141.636C176.077 142.813 175.396 143.716 174.524 144.345C173.652 144.975 172.685 145.303 171.582 145.303C170.479 145.303 169.498 144.989 168.627 144.345C167.755 143.716 167.074 142.813 166.584 141.636C166.093 140.459 165.848 139.077 165.848 137.462C165.848 135.847 166.093 134.506 166.584 133.342C167.074 132.179 167.755 131.276 168.627 130.646C169.498 130.017 170.479 129.688 171.582 129.688ZM171.582 132.809C171.092 132.809 170.656 132.973 170.302 133.315C169.934 133.657 169.648 134.177 169.444 134.861C169.239 135.546 169.131 136.422 169.131 137.462C169.131 138.502 169.239 139.391 169.444 140.089C169.648 140.787 169.934 141.307 170.302 141.663C170.67 142.005 171.092 142.183 171.582 142.183C172.072 142.183 172.481 142.005 172.862 141.663C173.244 141.321 173.516 140.787 173.72 140.089C173.925 139.391 174.02 138.515 174.02 137.462C174.02 136.408 173.925 135.559 173.72 134.861C173.516 134.177 173.23 133.657 172.862 133.315C172.495 132.973 172.072 132.809 171.582 132.809ZM179.849 128.197H183.281V149.97H179.849V128.197Z" fill="#4ABFEA"/>
<path d="M186.604 144.797H206.122V147.589H186.604V144.797ZM188.035 129.935H204.596V132.658H188.035V129.935ZM188.144 138.57H204.487V141.253H188.144V138.57ZM190.854 132.22H194.259V138.858H190.854V132.22ZM194.599 140.103H198.004V146.056H194.599V140.103ZM198.345 132.22H201.75V138.858H198.345V132.22Z" fill="#4ABFEA"/>
<path d="M207.906 144.428H227.423V147.192H207.906V144.428ZM209.854 130.14H223.473V132.836H209.854V130.14ZM221.689 130.14H225.094V132.836C225.094 133.876 225.094 134.916 225.053 135.956C225.012 136.996 224.972 138.105 224.863 139.282C224.767 140.459 224.577 141.786 224.318 143.264L220.913 142.991C221.172 141.622 221.362 140.363 221.458 139.2C221.553 138.036 221.621 136.942 221.648 135.902C221.676 134.861 221.689 133.849 221.689 132.85V130.154V130.14Z" fill="#4ABFEA"/>
<path d="M229.711 130.277H237.91V138.885H233.021V143.442H229.738V136.189H234.628V133H229.725V130.277H229.711ZM229.738 142.443H231.264C232.544 142.443 233.77 142.416 234.928 142.361C236.099 142.306 237.325 142.183 238.618 142.005L238.877 144.756C237.529 144.975 236.262 145.112 235.05 145.18C233.838 145.249 232.571 145.276 231.264 145.276H229.738V142.457V142.443ZM239.735 128.58H242.881V148.916H239.735V128.58ZM241.86 136.326H245.292V139.049H241.86V136.326ZM244.529 128.224H247.771V149.902H244.529V128.224Z" fill="#4ABFEA"/>
<path d="M250.767 145.098L250.44 142.306C251.734 142.306 253.137 142.306 254.649 142.265C256.161 142.238 257.713 142.183 259.293 142.101C260.873 142.019 262.399 141.882 263.87 141.69L264.06 144.181C262.562 144.428 261.037 144.619 259.47 144.756C257.904 144.893 256.392 144.975 254.921 145.016C253.45 145.057 252.061 145.084 250.767 145.098ZM251.026 130.14H263.107V132.863H251.026V130.14ZM252.742 132.275H256.052V143.045H252.742V132.275ZM258.095 132.275H261.404V143.045H258.095V132.275ZM265.136 128.251H268.568V149.929H265.136V128.251Z" fill="#4ABFEA"/>
</g>
<defs>
<clipPath id="clip0_209_8533">
<rect width="414" height="416" fill="white"/>
</clipPath>
</defs>
</svg>
