<svg width="168" height="168" viewBox="0 0 168 168" fill="none" xmlns="http://www.w3.org/2000/svg">
<g clip-path="url(#clip0_347_3823)">
<path d="M118.107 99.5474H101.303V111.953H118.147V122.642H90.4688V89.0449H118.107V99.5474Z" fill="#C7C7C7"/>
<path d="M111.401 61.1846C111.401 57.3377 108.39 54.2628 104.604 54.2495C100.843 54.2495 97.7795 57.3111 97.74 61.1447C97.7137 64.9251 100.817 68.0798 104.564 68.0798C108.351 68.0798 111.401 65.0049 111.401 61.1846ZM121 61.158C121 70.3427 113.637 77.8236 104.564 77.7836C95.347 77.7437 88.0495 70.1164 88.1809 60.9184C88.3124 51.7204 95.8861 44.346 104.959 44.5457C113.742 44.7454 121.013 52.0665 121 61.1447" fill="#C7C7C7"/>
<path d="M62.9092 61.4509C60.1611 61.4509 57.939 63.6739 57.9258 66.4426C57.9258 69.2246 60.1348 71.4875 62.8566 71.4875C65.5652 71.4875 67.8136 69.2645 67.8268 66.5624C67.8399 63.6872 65.6836 61.4509 62.896 61.4376M49.5238 60.386H47.1965V51.7471H77.9513V60.3461H76.1236C77.6094 63.8602 77.8592 67.401 76.7021 70.9817C75.5451 74.5624 73.3361 77.3045 70.1278 79.1947C64.9867 82.2163 58.5701 81.8569 53.9287 77.9967C48.2879 73.3244 47.1176 67.3211 49.537 60.3993" fill="#C7C7C7"/>
<path d="M46 120.033C51.6408 109.304 57.2684 98.6156 62.9223 87.8868C68.642 98.6156 74.3354 109.278 80.0419 119.993C76.7284 121.324 73.4544 122.642 70.1147 123.987C67.761 118.782 65.4074 113.591 63.0144 108.293C60.6345 113.577 58.3072 118.769 55.9535 124C52.6269 122.669 49.3398 121.351 46.0131 120.033" fill="#C7C7C7"/>
<path d="M71.5873 44H53.5342V50.4958H71.5873V44Z" fill="#C7C7C7"/>
</g>
<defs>
<clipPath id="clip0_347_3823">
<rect width="75" height="80" fill="white" transform="translate(46 44)"/>
</clipPath>
</defs>
</svg>
