<svg width="416" height="414" viewBox="0 0 416 414" fill="none" xmlns="http://www.w3.org/2000/svg">
<path d="M0 0V92.1377H24.6888V298.967H0V414H308.637V361.142H416V68.9705L345.478 0H0Z" fill="#00837A"/>
<path d="M105.393 24.3386H126.742C136.568 24.3386 144.41 31.9385 144.41 41.2816C144.41 50.6248 136.568 57.2712 126.742 57.2712H122.308V66.8323H105.393V24.3386ZM128.768 40.8049C128.768 38.4215 126.852 36.5011 124.498 36.5011C122.144 36.5011 120.173 38.4078 120.173 40.8049C120.173 43.202 122.144 45.0543 124.498 45.0543C126.852 45.0543 128.768 43.1475 128.768 40.8049Z" fill="black"/>
<path d="M145.738 24.3386H167.087C176.913 24.3386 184.755 31.5162 184.755 40.3282C184.755 43.6787 183.688 46.7023 181.826 49.2492H185.727V66.8323H168.811V56.3723H162.667V66.8323H145.751V24.3386H145.738ZM169.112 40.8049C169.112 38.4215 167.197 36.5011 164.843 36.5011C162.489 36.5011 160.518 38.4078 160.518 40.8049C160.518 43.202 162.489 45.0543 164.843 45.0543C167.197 45.0543 169.112 43.1475 169.112 40.8049Z" fill="black"/>
<path d="M186.411 45.5309C186.411 33.4229 196.607 23.4805 209.362 23.4805C222.117 23.4805 232.203 33.4093 232.203 45.5309C232.203 57.6525 221.843 67.6766 209.362 67.6766C196.881 67.6766 186.411 57.7478 186.411 45.5309ZM215.342 45.5853C215.342 42.2349 212.564 39.4701 209.307 39.4701C206.05 39.4701 203.121 42.2349 203.121 45.5853C203.121 48.9358 205.954 51.7006 209.307 51.7006C212.66 51.7006 215.342 48.9903 215.342 45.5853Z" fill="black"/>
<path d="M240.319 38.6802H232.052V24.3386H266.047V38.6802H257.781V66.8323H240.332V38.6802H240.319Z" fill="black"/>
<path d="M265.883 45.5309C265.883 33.4229 276.079 23.4805 288.834 23.4805C301.589 23.4805 311.675 33.4093 311.675 45.5309C311.675 57.6525 301.315 67.6766 288.834 67.6766C276.353 67.6766 265.883 57.7478 265.883 45.5309ZM294.814 45.5853C294.814 42.2349 292.036 39.4701 288.779 39.4701C285.522 39.4701 282.593 42.2349 282.593 45.5853C282.593 48.9358 285.426 51.7006 288.779 51.7006C292.132 51.7006 294.814 48.9903 294.814 45.5853Z" fill="black"/>
<path d="M112.031 99.7964H116.136V118.864H112.031V99.7964Z" fill="#00837A" stroke="black" stroke-width="12" stroke-linecap="round" stroke-linejoin="round"/>
<path d="M119.12 105.53H122.842V108.118C123.691 105.912 124.922 105.231 126.236 105.231C128.453 105.231 129.439 107.137 129.439 109.535V118.878H125.634V109.861C125.634 108.772 125.278 107.846 124.402 107.846C123.526 107.846 122.897 108.854 122.897 110.788V118.878H119.12V105.53Z" fill="#00837A" stroke="black" stroke-width="12" stroke-linecap="round" stroke-linejoin="round"/>
<path d="M133.818 118.279C133.188 117.706 132.833 116.889 132.833 115.718V107.955H131.108V105.53H132.86L133.079 101.036H136.637V105.53H138.799V107.955H136.637V115.01C136.637 115.5 136.747 115.827 136.938 116.018C137.157 116.236 137.458 116.317 137.814 116.317C138.225 116.317 138.553 116.236 138.799 116.099V118.769C137.978 119.014 137.431 119.15 136.555 119.15C135.433 119.15 134.475 118.878 133.818 118.279Z" fill="#00837A" stroke="black" stroke-width="12" stroke-linecap="round" stroke-linejoin="round"/>
<path d="M139.976 112.231V112.204C139.976 108.336 142.33 105.176 145.67 105.176C149.255 105.176 150.98 108.799 150.98 112.395V112.449H143.973V112.667C143.973 115.255 144.602 116.808 145.67 116.808C146.436 116.808 146.929 116.208 147.284 114.955C147.367 114.765 147.421 114.519 147.449 114.247L150.788 114.492C150.706 114.792 150.624 115.146 150.487 115.446C149.638 117.843 147.859 119.259 145.724 119.259C142.44 119.259 139.976 116.154 139.976 112.231ZM147.23 110.679C147.148 108.499 146.628 107.492 145.67 107.492C144.712 107.492 144.082 108.69 144 110.679H147.23Z" fill="#00837A" stroke="black" stroke-width="12" stroke-linecap="round" stroke-linejoin="round"/>
<path d="M153.142 105.53H156.755V109.317C157.713 106.484 159.109 105.476 160.833 105.367L160.806 109.48C158.534 109.208 156.919 110.297 156.919 112.476V118.878H153.142V105.53Z" fill="#00837A" stroke="black" stroke-width="12" stroke-linecap="round" stroke-linejoin="round"/>
<path d="M161.846 115.473C161.846 113.457 162.694 111.904 165.897 110.788L168.251 109.97V109.453C168.251 108.227 167.813 107.628 166.937 107.628C166.061 107.628 165.596 108.282 165.541 109.262H161.901C162.503 106.838 164.501 105.176 167.32 105.176C170.139 105.176 172.028 106.756 172.028 109.671V115.582C172.028 116.372 172.329 116.562 172.712 116.562C172.849 116.562 172.931 116.535 172.986 116.535V118.851C172.685 118.987 172.028 119.096 171.371 119.096C169.592 119.096 168.442 118.306 168.306 116.535C167.621 118.197 166.526 119.15 165.076 119.15C163.215 119.15 161.846 117.679 161.846 115.473ZM166.691 116.644C167.567 116.644 168.278 115.636 168.278 114.138V111.578L167.101 112.177C165.815 112.831 165.432 113.702 165.432 114.819C165.432 116.018 166.061 116.644 166.691 116.644Z" fill="#00837A" stroke="black" stroke-width="12" stroke-linecap="round" stroke-linejoin="round"/>
<path d="M174.382 112.204C174.382 108.145 176.791 105.176 180.102 105.176C182.703 105.176 184.454 106.92 185.276 109.589C185.33 109.78 185.385 109.916 185.44 110.134L181.69 110.624C181.663 110.352 181.608 110.134 181.58 109.916C181.334 108.418 180.869 107.655 180.075 107.655C179.035 107.655 178.378 109.126 178.378 112.204C178.378 115.282 179.035 116.726 180.075 116.726C180.841 116.726 181.361 115.881 181.635 114.247L181.717 113.702L185.33 114.165C185.276 114.438 185.193 114.683 185.139 114.928C184.29 117.598 182.429 119.259 180.102 119.259C176.791 119.259 174.382 116.263 174.382 112.204Z" fill="#00837A" stroke="black" stroke-width="12" stroke-linecap="round" stroke-linejoin="round"/>
<path d="M188.971 118.279C188.341 117.706 187.985 116.889 187.985 115.718V107.955H186.261V105.53H188.013L188.232 101.036H191.79V105.53H193.952V107.955H191.79V115.01C191.79 115.5 191.899 115.827 192.091 116.018C192.31 116.236 192.611 116.317 192.967 116.317C193.377 116.317 193.706 116.236 193.952 116.099V118.769C193.131 119.014 192.584 119.15 191.708 119.15C190.586 119.15 189.628 118.878 188.971 118.279Z" fill="#00837A" stroke="black" stroke-width="12" stroke-linecap="round" stroke-linejoin="round"/>
<path d="M196.087 99.7964H199.892V103.692H196.087V99.7964ZM196.115 105.517H199.892V118.864H196.115V105.517Z" fill="#00837A" stroke="black" stroke-width="12" stroke-linecap="round" stroke-linejoin="round"/>
<path d="M202.109 112.204C202.109 108.145 204.545 105.176 207.829 105.176C211.114 105.176 213.495 108.118 213.523 112.204C213.523 116.263 211.059 119.259 207.829 119.259C204.6 119.259 202.109 116.29 202.109 112.204ZM207.829 116.726C208.87 116.726 209.499 115.228 209.499 112.204C209.499 109.181 208.87 107.655 207.829 107.655C206.735 107.655 206.132 109.126 206.132 112.204C206.132 115.282 206.735 116.726 207.829 116.726Z" fill="#00837A" stroke="black" stroke-width="12" stroke-linecap="round" stroke-linejoin="round"/>
<path d="M215.712 105.53H219.435V108.118C220.283 105.912 221.515 105.231 222.829 105.231C225.046 105.231 226.031 107.137 226.031 109.535V118.878H222.227V109.861C222.227 108.772 221.871 107.846 220.995 107.846C220.119 107.846 219.49 108.854 219.49 110.788V118.878H215.712V105.53Z" fill="#00837A" stroke="black" stroke-width="12" stroke-linecap="round" stroke-linejoin="round"/>
<path d="M234.106 99.7964H240.1C244.917 99.7964 247.873 103.392 247.873 109.194V109.221C247.846 115.214 244.808 118.864 239.799 118.864H234.106V99.7964ZM239.388 115.949C242.372 115.949 243.467 113.471 243.467 109.221V109.167C243.467 104.945 242.262 102.711 239.662 102.711H238.211V115.949H239.388Z" fill="#00837A" stroke="black" stroke-width="12" stroke-linecap="round" stroke-linejoin="round"/>
<path d="M249.516 112.231V112.204C249.516 108.336 251.87 105.176 255.209 105.176C258.794 105.176 260.519 108.799 260.519 112.395V112.449H253.512V112.667C253.512 115.255 254.141 116.808 255.209 116.808C255.975 116.808 256.468 116.208 256.824 114.955C256.906 114.765 256.961 114.519 256.988 114.247L260.327 114.492C260.245 114.792 260.163 115.146 260.026 115.446C259.178 117.843 257.399 119.259 255.264 119.259C251.979 119.259 249.516 116.154 249.516 112.231ZM256.769 110.679C256.687 108.499 256.167 107.492 255.209 107.492C254.251 107.492 253.621 108.69 253.539 110.679H256.769Z" fill="#00837A" stroke="black" stroke-width="12" stroke-linecap="round" stroke-linejoin="round"/>
<path d="M261.915 115.909C261.805 115.636 261.723 115.337 261.641 115.064L264.898 114.547C264.926 114.819 265.008 115.064 265.09 115.255C265.5 116.372 266.212 116.835 267.006 116.835C267.909 116.835 268.457 116.181 268.457 115.364C268.457 114.547 268.073 114.165 267.061 113.73L265.063 112.858C263.119 112.041 262.243 110.815 262.271 109.072C262.298 106.92 264.159 105.176 267.006 105.176C269.031 105.176 270.756 106.239 271.577 107.9C271.686 108.118 271.768 108.336 271.878 108.608L268.894 109.208C268.84 108.99 268.812 108.799 268.703 108.608C268.347 107.873 267.718 107.492 267.061 107.492C266.294 107.492 265.665 107.982 265.665 108.745C265.665 109.235 265.856 109.644 266.924 110.025L268.84 110.788C271.549 111.823 272.124 113.375 272.097 114.928C272.07 117.162 270.071 119.259 266.978 119.259C264.898 119.259 262.818 118.115 261.915 115.909Z" fill="#00837A" stroke="black" stroke-width="12" stroke-linecap="round" stroke-linejoin="round"/>
<path d="M274.177 99.7964H277.982V103.692H274.177V99.7964ZM274.204 105.517H277.982V118.864H274.204V105.517Z" fill="#00837A" stroke="black" stroke-width="12" stroke-linecap="round" stroke-linejoin="round"/>
<path d="M280.089 121.166L281.841 119.531C282.991 120.73 283.894 121.248 285.043 121.248C286.494 121.248 287.397 120.512 287.397 117.952V116.29C286.713 118.006 285.509 119.177 284.085 119.177C281.841 119.177 280.281 116.481 280.281 112.231C280.281 107.982 281.95 105.176 284.25 105.176C285.7 105.176 286.905 106.375 287.507 108.309V105.53H291.229V118.469C291.229 122.337 288.437 123.754 285.427 123.754C283.538 123.754 281.348 122.855 280.089 121.166ZM285.81 116.59C286.932 116.59 287.534 115.091 287.534 112.231C287.534 109.371 286.932 107.819 285.837 107.819C284.742 107.819 284.195 109.371 284.195 112.231C284.195 115.091 284.742 116.59 285.81 116.59Z" fill="#00837A" stroke="black" stroke-width="12" stroke-linecap="round" stroke-linejoin="round"/>
<path d="M294.103 105.53H297.826V108.118C298.674 105.912 299.906 105.231 301.22 105.231C303.437 105.231 304.422 107.137 304.422 109.535V118.878H300.617V109.861C300.617 108.772 300.262 107.846 299.386 107.846C298.51 107.846 297.88 108.854 297.88 110.788V118.878H294.103V105.53Z" fill="#00837A" stroke="black" stroke-width="12" stroke-linecap="round" stroke-linejoin="round"/>
<path d="M136.952 129.351C138.074 129.351 139.073 129.583 139.977 130.06C140.88 130.536 141.591 131.176 142.111 132.021C142.631 132.865 142.905 133.805 142.905 134.895C142.905 135.984 142.645 136.883 142.111 137.714C141.578 138.545 140.866 139.198 139.977 139.675C139.073 140.152 138.074 140.397 136.952 140.397C135.83 140.397 134.831 140.152 133.927 139.675C133.024 139.198 132.313 138.545 131.793 137.714C131.259 136.883 130.999 135.943 130.999 134.895C130.999 133.846 131.259 132.852 131.793 132.021C132.313 131.19 133.038 130.536 133.927 130.06C134.831 129.583 135.83 129.351 136.952 129.351ZM134.229 141.922H137.65V147.684H134.229V141.922ZM134.229 146.553H149.324V149.263H134.229V146.553ZM136.952 132.293C136.459 132.293 136.008 132.389 135.611 132.593C135.214 132.797 134.899 133.083 134.68 133.465C134.461 133.846 134.338 134.323 134.338 134.895C134.338 135.467 134.448 135.916 134.68 136.297C134.899 136.679 135.214 136.965 135.611 137.155C136.008 137.346 136.446 137.442 136.952 137.442C137.458 137.442 137.896 137.346 138.293 137.155C138.69 136.965 139.005 136.679 139.224 136.297C139.443 135.916 139.566 135.453 139.566 134.895C139.566 134.336 139.456 133.846 139.224 133.465C138.991 133.083 138.69 132.797 138.293 132.593C137.896 132.389 137.445 132.293 136.952 132.293ZM145.369 128.03H148.817V143.475H145.369V128.03Z" fill="#00837A" stroke="black" stroke-width="12" stroke-linecap="round" stroke-linejoin="round"/>
<path d="M153.101 129.76H163.146V132.511H156.495V142.958H153.101V129.76ZM153.101 142.1H154.866C156.016 142.1 157.097 142.1 158.096 142.059C159.109 142.031 160.094 141.991 161.08 141.922C162.051 141.854 163.064 141.745 164.077 141.582L164.378 144.292C163.324 144.442 162.298 144.565 161.298 144.633C160.299 144.715 159.273 144.769 158.219 144.796C157.165 144.823 156.043 144.837 154.866 144.837H153.101V142.086V142.1ZM155.728 135.753H162.448V138.395H155.728V135.753ZM163.502 135.426H167.389V138.177H163.502V135.426ZM167.019 127.976H170.413V149.645H167.019V127.976Z" fill="#00837A" stroke="black" stroke-width="12" stroke-linecap="round" stroke-linejoin="round"/>
<path d="M174.341 129.46H182.58V136.216H177.666V139.73H174.368V133.778H179.281V132.089H174.355V129.447L174.341 129.46ZM174.368 137.986H175.874C176.927 137.986 177.872 137.986 178.693 137.945C179.514 137.905 180.294 137.877 181.033 137.809C181.772 137.741 182.511 137.632 183.277 137.496L183.551 140.179C182.757 140.302 181.977 140.397 181.225 140.465C180.458 140.533 179.651 140.574 178.775 140.588C177.899 140.601 176.941 140.615 175.874 140.615H174.368V137.973V137.986ZM177.064 142.29H192.064V149.604H188.642V144.973H177.051V142.29H177.064ZM184.235 128.398H187.424V141.296H184.235V128.398ZM186.521 133.328H189.778V136.011H186.521V133.328ZM188.82 128.003H192.077V141.459H188.82V128.003Z" fill="#00837A" stroke="black" stroke-width="12" stroke-linecap="round" stroke-linejoin="round"/>
<path d="M199.769 129.256H202.519V131.667C202.519 133.179 202.314 134.595 201.917 135.93C201.52 137.251 200.877 138.409 200.015 139.403C199.153 140.397 198.017 141.146 196.58 141.677L194.76 139.008C195.69 138.681 196.47 138.272 197.114 137.768C197.743 137.264 198.263 136.679 198.646 136.025C199.03 135.358 199.317 134.663 199.495 133.928C199.673 133.192 199.769 132.443 199.769 131.667V129.256ZM198.701 142.549H202.15V148.31H198.701V142.549ZM198.701 146.553H213.618V149.263H198.701V146.553ZM200.494 129.256H203.245V131.667C203.245 132.389 203.327 133.11 203.491 133.819C203.655 134.527 203.915 135.194 204.299 135.834C204.682 136.475 205.161 137.033 205.763 137.55C206.365 138.054 207.104 138.477 207.98 138.804L206.119 141.446C204.805 140.942 203.724 140.193 202.903 139.198C202.082 138.204 201.479 137.074 201.082 135.78C200.686 134.486 200.508 133.124 200.508 131.667V129.256H200.494ZM206.351 130.713H210.512V133.424H206.351V130.713ZM206.351 134.813H210.512V137.496H206.351V134.813ZM209.718 128.03H213.167V143.965H209.718V128.03Z" fill="#00837A" stroke="black" stroke-width="12" stroke-linecap="round" stroke-linejoin="round"/>
<path d="M224.129 129.882H234.667V132.62H227.523V142.835H224.129V129.896V129.882ZM224.129 141.759H226.031C227.578 141.759 228.933 141.759 230.068 141.718C231.204 141.677 232.258 141.636 233.202 141.527C234.147 141.418 235.091 141.296 236.022 141.119L236.323 143.924C235.392 144.115 234.434 144.251 233.449 144.347C232.463 144.442 231.382 144.496 230.192 144.537C229.001 144.565 227.619 144.578 226.045 144.578H224.143V141.759H224.129ZM237.486 128.003H240.935V149.672H237.486V128.003Z" fill="#00837A" stroke="black" stroke-width="12" stroke-linecap="round" stroke-linejoin="round"/>
<path d="M248.968 131.503H251.664V133.628C251.664 134.867 251.541 136.093 251.308 137.305C251.062 138.531 250.706 139.675 250.213 140.737C249.721 141.8 249.105 142.767 248.352 143.598C247.6 144.428 246.71 145.082 245.67 145.559L243.74 142.876C244.671 142.44 245.465 141.882 246.122 141.201C246.778 140.52 247.326 139.757 247.736 138.912C248.161 138.068 248.462 137.196 248.667 136.297C248.872 135.399 248.968 134.5 248.968 133.628V131.503ZM244.589 130.046H256.55V132.852H244.589V130.046ZM249.707 131.503H252.403V133.628C252.403 134.445 252.499 135.276 252.691 136.12C252.882 136.965 253.183 137.782 253.594 138.572C254.004 139.362 254.538 140.084 255.195 140.737C255.852 141.391 256.646 141.922 257.563 142.331L255.674 145.014C254.634 144.551 253.744 143.925 252.992 143.121C252.239 142.317 251.623 141.405 251.13 140.383C250.638 139.362 250.282 138.272 250.049 137.115C249.817 135.957 249.707 134.786 249.707 133.614V131.49V131.503ZM257.877 128.03H261.326V149.604H257.877V128.03ZM260.573 136.107H264.337V138.912H260.573V136.107Z" fill="#00837A" stroke="black" stroke-width="12" stroke-linecap="round" stroke-linejoin="round"/>
<path d="M271.892 129.351C273.014 129.351 274.013 129.583 274.916 130.06C275.819 130.536 276.531 131.176 277.051 132.021C277.571 132.865 277.845 133.805 277.845 134.895C277.845 135.984 277.585 136.883 277.051 137.714C276.517 138.545 275.806 139.198 274.916 139.675C274.013 140.152 273.014 140.397 271.892 140.397C270.769 140.397 269.77 140.152 268.867 139.675C267.964 139.198 267.252 138.545 266.732 137.714C266.198 136.883 265.938 135.943 265.938 134.895C265.938 133.846 266.198 132.852 266.732 132.021C267.252 131.19 267.978 130.536 268.867 130.06C269.77 129.583 270.769 129.351 271.892 129.351ZM269.168 141.922H272.59V147.684H269.168V141.922ZM269.168 146.553H284.263V149.263H269.168V146.553ZM271.892 132.293C271.399 132.293 270.947 132.389 270.55 132.593C270.153 132.797 269.839 133.083 269.62 133.465C269.401 133.846 269.278 134.323 269.278 134.895C269.278 135.467 269.387 135.916 269.62 136.297C269.839 136.679 270.153 136.965 270.55 137.155C270.947 137.346 271.385 137.442 271.892 137.442C272.398 137.442 272.836 137.346 273.233 137.155C273.63 136.965 273.944 136.679 274.163 136.297C274.382 135.916 274.506 135.453 274.506 134.895C274.506 134.336 274.396 133.846 274.163 133.465C273.931 133.083 273.63 132.797 273.233 132.593C272.836 132.389 272.384 132.293 271.892 132.293ZM280.308 128.03H283.757V143.475H280.308V128.03Z" fill="#00837A" stroke="black" stroke-width="12" stroke-linecap="round" stroke-linejoin="round"/>
<rect x="214.178" y="116.812" width="36.0396" height="21.5198" fill="black"/>
<path d="M112.031 99.7964H116.136V118.864H112.031V99.7964Z" fill="#00837A"/>
<path d="M119.12 105.53H122.842V108.118C123.691 105.912 124.922 105.231 126.236 105.231C128.453 105.231 129.439 107.137 129.439 109.535V118.878H125.634V109.861C125.634 108.772 125.278 107.846 124.402 107.846C123.526 107.846 122.897 108.854 122.897 110.788V118.878H119.12V105.53Z" fill="#00837A"/>
<path d="M133.818 118.279C133.188 117.706 132.833 116.889 132.833 115.718V107.955H131.108V105.53H132.86L133.079 101.036H136.637V105.53H138.799V107.955H136.637V115.01C136.637 115.5 136.747 115.827 136.938 116.018C137.157 116.236 137.458 116.317 137.814 116.317C138.225 116.317 138.553 116.236 138.799 116.099V118.769C137.978 119.014 137.431 119.15 136.555 119.15C135.433 119.15 134.475 118.878 133.818 118.279Z" fill="#00837A"/>
<path d="M139.976 112.231V112.204C139.976 108.336 142.33 105.176 145.67 105.176C149.255 105.176 150.98 108.799 150.98 112.395V112.449H143.973V112.667C143.973 115.255 144.602 116.808 145.67 116.808C146.436 116.808 146.929 116.208 147.284 114.955C147.367 114.765 147.421 114.519 147.449 114.247L150.788 114.492C150.706 114.792 150.624 115.146 150.487 115.446C149.638 117.843 147.859 119.259 145.724 119.259C142.44 119.259 139.976 116.154 139.976 112.231ZM147.23 110.679C147.148 108.499 146.628 107.492 145.67 107.492C144.712 107.492 144.082 108.69 144 110.679H147.23Z" fill="#00837A"/>
<path d="M153.142 105.53H156.755V109.317C157.713 106.484 159.109 105.476 160.833 105.367L160.806 109.48C158.534 109.208 156.919 110.297 156.919 112.476V118.878H153.142V105.53Z" fill="#00837A"/>
<path d="M161.846 115.473C161.846 113.457 162.694 111.904 165.897 110.788L168.251 109.97V109.453C168.251 108.227 167.813 107.628 166.937 107.628C166.061 107.628 165.596 108.282 165.541 109.262H161.901C162.503 106.838 164.501 105.176 167.32 105.176C170.139 105.176 172.028 106.756 172.028 109.671V115.582C172.028 116.372 172.329 116.562 172.712 116.562C172.849 116.562 172.931 116.535 172.986 116.535V118.851C172.685 118.987 172.028 119.096 171.371 119.096C169.592 119.096 168.442 118.306 168.306 116.535C167.621 118.197 166.526 119.15 165.076 119.15C163.215 119.15 161.846 117.679 161.846 115.473ZM166.691 116.644C167.567 116.644 168.278 115.636 168.278 114.138V111.578L167.101 112.177C165.815 112.831 165.432 113.702 165.432 114.819C165.432 116.018 166.061 116.644 166.691 116.644Z" fill="#00837A"/>
<path d="M174.382 112.204C174.382 108.145 176.791 105.176 180.102 105.176C182.703 105.176 184.454 106.92 185.276 109.589C185.33 109.78 185.385 109.916 185.44 110.134L181.69 110.624C181.663 110.352 181.608 110.134 181.58 109.916C181.334 108.418 180.869 107.655 180.075 107.655C179.035 107.655 178.378 109.126 178.378 112.204C178.378 115.282 179.035 116.726 180.075 116.726C180.841 116.726 181.361 115.881 181.635 114.247L181.717 113.702L185.33 114.165C185.276 114.438 185.193 114.683 185.139 114.928C184.29 117.598 182.429 119.259 180.102 119.259C176.791 119.259 174.382 116.263 174.382 112.204Z" fill="#00837A"/>
<path d="M188.971 118.279C188.341 117.706 187.985 116.889 187.985 115.718V107.955H186.261V105.53H188.013L188.232 101.036H191.79V105.53H193.952V107.955H191.79V115.01C191.79 115.5 191.899 115.827 192.091 116.018C192.31 116.236 192.611 116.317 192.967 116.317C193.377 116.317 193.706 116.236 193.952 116.099V118.769C193.131 119.014 192.584 119.15 191.708 119.15C190.586 119.15 189.628 118.878 188.971 118.279Z" fill="#00837A"/>
<path d="M196.087 99.7964H199.892V103.692H196.087V99.7964ZM196.115 105.517H199.892V118.864H196.115V105.517Z" fill="#00837A"/>
<path d="M202.109 112.204C202.109 108.145 204.545 105.176 207.829 105.176C211.114 105.176 213.495 108.118 213.523 112.204C213.523 116.263 211.059 119.259 207.829 119.259C204.6 119.259 202.109 116.29 202.109 112.204ZM207.829 116.726C208.87 116.726 209.499 115.228 209.499 112.204C209.499 109.181 208.87 107.655 207.829 107.655C206.735 107.655 206.132 109.126 206.132 112.204C206.132 115.282 206.735 116.726 207.829 116.726Z" fill="#00837A"/>
<path d="M215.712 105.53H219.435V108.118C220.283 105.912 221.515 105.231 222.829 105.231C225.046 105.231 226.031 107.137 226.031 109.535V118.878H222.227V109.861C222.227 108.772 221.871 107.846 220.995 107.846C220.119 107.846 219.49 108.854 219.49 110.788V118.878H215.712V105.53Z" fill="#00837A"/>
<path d="M234.106 99.7964H240.1C244.917 99.7964 247.873 103.392 247.873 109.194V109.221C247.846 115.214 244.808 118.864 239.799 118.864H234.106V99.7964ZM239.388 115.949C242.372 115.949 243.467 113.471 243.467 109.221V109.167C243.467 104.945 242.262 102.711 239.662 102.711H238.211V115.949H239.388Z" fill="#00837A"/>
<path d="M249.516 112.231V112.204C249.516 108.336 251.87 105.176 255.209 105.176C258.794 105.176 260.519 108.799 260.519 112.395V112.449H253.512V112.667C253.512 115.255 254.141 116.808 255.209 116.808C255.975 116.808 256.468 116.208 256.824 114.955C256.906 114.765 256.961 114.519 256.988 114.247L260.327 114.492C260.245 114.792 260.163 115.146 260.026 115.446C259.178 117.843 257.399 119.259 255.264 119.259C251.979 119.259 249.516 116.154 249.516 112.231ZM256.769 110.679C256.687 108.499 256.167 107.492 255.209 107.492C254.251 107.492 253.621 108.69 253.539 110.679H256.769Z" fill="#00837A"/>
<path d="M261.915 115.909C261.805 115.636 261.723 115.337 261.641 115.064L264.898 114.547C264.926 114.819 265.008 115.064 265.09 115.255C265.5 116.372 266.212 116.835 267.006 116.835C267.909 116.835 268.457 116.181 268.457 115.364C268.457 114.547 268.073 114.165 267.061 113.73L265.063 112.858C263.119 112.041 262.243 110.815 262.271 109.072C262.298 106.92 264.159 105.176 267.006 105.176C269.031 105.176 270.756 106.239 271.577 107.9C271.686 108.118 271.768 108.336 271.878 108.608L268.894 109.208C268.84 108.99 268.812 108.799 268.703 108.608C268.347 107.873 267.718 107.492 267.061 107.492C266.294 107.492 265.665 107.982 265.665 108.745C265.665 109.235 265.856 109.644 266.924 110.025L268.84 110.788C271.549 111.823 272.124 113.375 272.097 114.928C272.07 117.162 270.071 119.259 266.978 119.259C264.898 119.259 262.818 118.115 261.915 115.909Z" fill="#00837A"/>
<path d="M274.177 99.7964H277.982V103.692H274.177V99.7964ZM274.204 105.517H277.982V118.864H274.204V105.517Z" fill="#00837A"/>
<path d="M280.089 121.166L281.841 119.531C282.991 120.73 283.894 121.248 285.043 121.248C286.494 121.248 287.397 120.512 287.397 117.952V116.29C286.713 118.006 285.509 119.177 284.085 119.177C281.841 119.177 280.281 116.481 280.281 112.231C280.281 107.982 281.95 105.176 284.25 105.176C285.7 105.176 286.905 106.375 287.507 108.309V105.53H291.229V118.469C291.229 122.337 288.437 123.754 285.427 123.754C283.538 123.754 281.348 122.855 280.089 121.166ZM285.81 116.59C286.932 116.59 287.534 115.091 287.534 112.231C287.534 109.371 286.932 107.819 285.837 107.819C284.742 107.819 284.195 109.371 284.195 112.231C284.195 115.091 284.742 116.59 285.81 116.59Z" fill="#00837A"/>
<path d="M294.103 105.53H297.826V108.118C298.674 105.912 299.906 105.231 301.22 105.231C303.437 105.231 304.422 107.137 304.422 109.535V118.878H300.617V109.861C300.617 108.772 300.262 107.846 299.386 107.846C298.51 107.846 297.88 108.854 297.88 110.788V118.878H294.103V105.53Z" fill="#00837A"/>
<path d="M136.952 129.351C138.074 129.351 139.073 129.583 139.977 130.06C140.88 130.536 141.591 131.176 142.111 132.021C142.631 132.865 142.905 133.805 142.905 134.895C142.905 135.984 142.645 136.883 142.111 137.714C141.578 138.545 140.866 139.198 139.977 139.675C139.073 140.152 138.074 140.397 136.952 140.397C135.83 140.397 134.831 140.152 133.927 139.675C133.024 139.198 132.313 138.545 131.793 137.714C131.259 136.883 130.999 135.943 130.999 134.895C130.999 133.846 131.259 132.852 131.793 132.021C132.313 131.19 133.038 130.536 133.927 130.06C134.831 129.583 135.83 129.351 136.952 129.351ZM134.229 141.922H137.65V147.684H134.229V141.922ZM134.229 146.553H149.324V149.263H134.229V146.553ZM136.952 132.293C136.459 132.293 136.008 132.389 135.611 132.593C135.214 132.797 134.899 133.083 134.68 133.465C134.461 133.846 134.338 134.323 134.338 134.895C134.338 135.467 134.448 135.916 134.68 136.297C134.899 136.679 135.214 136.965 135.611 137.155C136.008 137.346 136.446 137.442 136.952 137.442C137.458 137.442 137.896 137.346 138.293 137.155C138.69 136.965 139.005 136.679 139.224 136.297C139.443 135.916 139.566 135.453 139.566 134.895C139.566 134.336 139.456 133.846 139.224 133.465C138.991 133.083 138.69 132.797 138.293 132.593C137.896 132.389 137.445 132.293 136.952 132.293ZM145.369 128.03H148.817V143.475H145.369V128.03Z" fill="#00837A"/>
<path d="M153.101 129.76H163.146V132.511H156.495V142.958H153.101V129.76ZM153.101 142.1H154.866C156.016 142.1 157.097 142.1 158.096 142.059C159.109 142.031 160.094 141.991 161.08 141.922C162.051 141.854 163.064 141.745 164.077 141.582L164.378 144.292C163.324 144.442 162.298 144.565 161.298 144.633C160.299 144.715 159.273 144.769 158.219 144.796C157.165 144.823 156.043 144.837 154.866 144.837H153.101V142.086V142.1ZM155.728 135.753H162.448V138.395H155.728V135.753ZM163.502 135.426H167.389V138.177H163.502V135.426ZM167.019 127.976H170.413V149.645H167.019V127.976Z" fill="#00837A"/>
<path d="M174.341 129.46H182.58V136.216H177.666V139.73H174.368V133.778H179.281V132.089H174.355V129.447L174.341 129.46ZM174.368 137.986H175.874C176.927 137.986 177.872 137.986 178.693 137.945C179.514 137.905 180.294 137.877 181.033 137.809C181.772 137.741 182.511 137.632 183.277 137.496L183.551 140.179C182.757 140.302 181.977 140.397 181.225 140.465C180.458 140.533 179.651 140.574 178.775 140.588C177.899 140.601 176.941 140.615 175.874 140.615H174.368V137.973V137.986ZM177.064 142.29H192.064V149.604H188.642V144.973H177.051V142.29H177.064ZM184.235 128.398H187.424V141.296H184.235V128.398ZM186.521 133.328H189.778V136.011H186.521V133.328ZM188.82 128.003H192.077V141.459H188.82V128.003Z" fill="#00837A"/>
<path d="M199.769 129.256H202.519V131.667C202.519 133.179 202.314 134.595 201.917 135.93C201.52 137.251 200.877 138.409 200.015 139.403C199.153 140.397 198.017 141.146 196.58 141.677L194.76 139.008C195.69 138.681 196.47 138.272 197.114 137.768C197.743 137.264 198.263 136.679 198.646 136.025C199.03 135.358 199.317 134.663 199.495 133.928C199.673 133.192 199.769 132.443 199.769 131.667V129.256ZM198.701 142.549H202.15V148.31H198.701V142.549ZM198.701 146.553H213.618V149.263H198.701V146.553ZM200.494 129.256H203.245V131.667C203.245 132.389 203.327 133.11 203.491 133.819C203.655 134.527 203.915 135.194 204.299 135.834C204.682 136.475 205.161 137.033 205.763 137.55C206.365 138.054 207.104 138.477 207.98 138.804L206.119 141.446C204.805 140.942 203.724 140.193 202.903 139.198C202.082 138.204 201.479 137.074 201.082 135.78C200.686 134.486 200.508 133.124 200.508 131.667V129.256H200.494ZM206.351 130.713H210.512V133.424H206.351V130.713ZM206.351 134.813H210.512V137.496H206.351V134.813ZM209.718 128.03H213.167V143.965H209.718V128.03Z" fill="#00837A"/>
<path d="M224.129 129.882H234.667V132.62H227.523V142.835H224.129V129.896V129.882ZM224.129 141.759H226.031C227.578 141.759 228.933 141.759 230.068 141.718C231.204 141.677 232.258 141.636 233.202 141.527C234.147 141.418 235.091 141.296 236.022 141.119L236.323 143.924C235.392 144.115 234.434 144.251 233.449 144.347C232.463 144.442 231.382 144.496 230.192 144.537C229.001 144.565 227.619 144.578 226.045 144.578H224.143V141.759H224.129ZM237.486 128.003H240.935V149.672H237.486V128.003Z" fill="#00837A"/>
<path d="M248.968 131.503H251.664V133.628C251.664 134.867 251.541 136.093 251.308 137.305C251.062 138.531 250.706 139.675 250.213 140.737C249.721 141.8 249.105 142.767 248.352 143.598C247.6 144.428 246.71 145.082 245.67 145.559L243.74 142.876C244.671 142.44 245.465 141.882 246.122 141.201C246.778 140.52 247.326 139.757 247.736 138.912C248.161 138.068 248.462 137.196 248.667 136.297C248.872 135.399 248.968 134.5 248.968 133.628V131.503ZM244.589 130.046H256.55V132.852H244.589V130.046ZM249.707 131.503H252.403V133.628C252.403 134.445 252.499 135.276 252.691 136.12C252.882 136.965 253.183 137.782 253.594 138.572C254.004 139.362 254.538 140.084 255.195 140.737C255.852 141.391 256.646 141.922 257.563 142.331L255.674 145.014C254.634 144.551 253.744 143.925 252.992 143.121C252.239 142.317 251.623 141.405 251.13 140.383C250.638 139.362 250.282 138.272 250.049 137.115C249.817 135.957 249.707 134.786 249.707 133.614V131.49V131.503ZM257.877 128.03H261.326V149.604H257.877V128.03ZM260.573 136.107H264.337V138.912H260.573V136.107Z" fill="#00837A"/>
<path d="M271.892 129.351C273.014 129.351 274.013 129.583 274.916 130.06C275.819 130.536 276.531 131.176 277.051 132.021C277.571 132.865 277.845 133.805 277.845 134.895C277.845 135.984 277.585 136.883 277.051 137.714C276.517 138.545 275.806 139.198 274.916 139.675C274.013 140.152 273.014 140.397 271.892 140.397C270.769 140.397 269.77 140.152 268.867 139.675C267.964 139.198 267.252 138.545 266.732 137.714C266.198 136.883 265.938 135.943 265.938 134.895C265.938 133.846 266.198 132.852 266.732 132.021C267.252 131.19 267.978 130.536 268.867 130.06C269.77 129.583 270.769 129.351 271.892 129.351ZM269.168 141.922H272.59V147.684H269.168V141.922ZM269.168 146.553H284.263V149.263H269.168V146.553ZM271.892 132.293C271.399 132.293 270.947 132.389 270.55 132.593C270.153 132.797 269.839 133.083 269.62 133.465C269.401 133.846 269.278 134.323 269.278 134.895C269.278 135.467 269.387 135.916 269.62 136.297C269.839 136.679 270.153 136.965 270.55 137.155C270.947 137.346 271.385 137.442 271.892 137.442C272.398 137.442 272.836 137.346 273.233 137.155C273.63 136.965 273.944 136.679 274.163 136.297C274.382 135.916 274.506 135.453 274.506 134.895C274.506 134.336 274.396 133.846 274.163 133.465C273.931 133.083 273.63 132.797 273.233 132.593C272.836 132.389 272.384 132.293 271.892 132.293ZM280.308 128.03H283.757V143.475H280.308V128.03Z" fill="#00837A"/>
</svg>
