<svg width="416" height="414" viewBox="0 0 416 414" fill="none" xmlns="http://www.w3.org/2000/svg">
<g clip-path="url(#clip0_209_8529)">
<path d="M416 258.462V0H77.4329V103.823C77.4329 111.764 70.9596 118.206 62.981 118.206C55.0023 118.206 48.529 111.764 48.529 103.823V0H0V308.202L66.3065 351.049V414H363.324V309.7L416 258.449V258.462Z" fill="#A31AA3"/>
<path d="M143.822 59.069H129.041V24.325H145.957V42.6572C145.957 43.9919 147.777 44.3051 148.092 43.0794L153.169 24.325H171.535L160.107 66.8186H141.741L143.822 59.069Z" fill="black"/>
<path d="M174.135 24.3386H207.706V66.8323H190.626V56.3723H183.263L180.431 66.8323H162.708L174.135 24.3386ZM192.597 40.8049C192.597 38.4215 190.681 36.5011 188.327 36.5011C185.973 36.5011 184.002 38.4078 184.002 40.8049C184.002 43.202 185.973 45.0543 188.327 45.0543C190.681 45.0543 192.597 43.1475 192.597 40.8049Z" fill="black"/>
<path d="M209.841 24.3386H231.409C243.685 24.3386 253.771 33.8997 253.771 45.5855C253.771 57.2712 243.685 66.8323 231.409 66.8323H209.841V24.3386ZM236.692 45.5855C236.692 42.235 233.968 39.4702 230.602 39.4702C227.235 39.4702 224.457 42.235 224.457 45.5855C224.457 48.9359 227.235 51.7007 230.602 51.7007C233.968 51.7007 236.692 48.9359 236.692 45.5855Z" fill="black"/>
<path d="M263.324 38.6802H253.607V24.3386H285.741L278.214 52.4907H287.931V66.8323H255.797L263.324 38.6802Z" fill="black"/>
<rect x="166.812" y="113.737" width="36.0396" height="21.5198" fill="black"/>
<path d="M149.022 114.41C148.968 114.137 148.913 113.865 148.885 113.565L152.608 113.13C152.608 113.32 152.635 113.511 152.663 113.702C152.936 115.445 153.949 116.344 155.071 116.344C156.385 116.344 157.316 115.064 157.316 113.266C157.288 111.468 156.358 110.324 154.77 110.324H153.511L153.484 107.682H154.223C155.975 107.682 157.015 106.429 157.015 104.794C157.015 103.16 156.139 102.234 155.017 102.234C153.894 102.234 153.073 103.133 152.854 104.631C152.827 104.822 152.827 104.985 152.827 105.148L149.214 104.713C149.214 104.631 149.214 104.522 149.269 104.304C149.652 101.689 151.896 99.4009 155.29 99.4009C158.684 99.4009 160.901 101.635 160.901 104.413C160.901 106.401 159.67 108.063 157.425 108.717C159.834 109.398 161.394 111.141 161.394 113.593C161.394 116.698 158.958 119.286 155.181 119.286C152.006 119.286 149.652 117.27 149.022 114.41Z" fill="#A31AA3" stroke="black" stroke-width="12" stroke-linecap="round" stroke-linejoin="round"/>
<path d="M164.159 99.8096H170.153C174.97 99.8096 177.926 103.405 177.926 109.207V109.234C177.899 115.227 174.861 118.877 169.852 118.877H164.159V99.8096ZM169.441 115.963C172.425 115.963 173.52 113.484 173.52 109.234V109.18C173.52 104.958 172.315 102.724 169.715 102.724H168.264V115.963H169.441Z" fill="#A31AA3" stroke="black" stroke-width="12" stroke-linecap="round" stroke-linejoin="round"/>
<path d="M184.878 109.534C184.878 103.623 187.588 99.4009 192.542 99.4009C195.827 99.4009 198.126 101.335 198.92 103.841C199.029 104.059 199.084 104.358 199.139 104.495L195.115 105.203C195.088 105.039 194.978 104.713 194.924 104.522C194.54 103.323 193.719 102.479 192.542 102.479C190.462 102.479 189.313 105.067 189.313 109.425C189.313 113.293 190.407 116.099 192.488 116.126C194.102 116.126 195.389 114.41 195.389 110.978V110.95H192.132V108.063H199.248V118.877H196.949L196.237 115.908C195.471 117.815 193.938 119.286 191.612 119.286C187.834 119.286 184.878 115.445 184.878 109.534Z" fill="#A31AA3" stroke="black" stroke-width="12" stroke-linecap="round" stroke-linejoin="round"/>
<path d="M201.958 105.53H205.571V109.316C206.529 106.483 207.925 105.475 209.649 105.366L209.622 109.479C207.35 109.207 205.735 110.297 205.735 112.476V118.877H201.958V105.53Z" fill="#A31AA3" stroke="black" stroke-width="12" stroke-linecap="round" stroke-linejoin="round"/>
<path d="M210.662 115.472C210.662 113.456 211.511 111.904 214.713 110.787L217.067 109.97V109.452C217.067 108.226 216.629 107.627 215.753 107.627C214.877 107.627 214.412 108.281 214.357 109.261H210.717C211.319 106.837 213.317 105.176 216.136 105.176C218.956 105.176 220.844 106.755 220.844 109.67V115.581C220.844 116.371 221.145 116.562 221.528 116.562C221.665 116.562 221.747 116.534 221.802 116.534V118.85C221.501 118.986 220.844 119.095 220.187 119.095C218.408 119.095 217.259 118.305 217.122 116.534C216.437 118.196 215.343 119.149 213.892 119.149C212.031 119.149 210.662 117.678 210.662 115.472ZM215.507 116.643C216.383 116.643 217.094 115.636 217.094 114.137V111.577L215.917 112.176C214.631 112.83 214.248 113.702 214.248 114.818C214.248 116.017 214.877 116.643 215.507 116.643Z" fill="#A31AA3" stroke="black" stroke-width="12" stroke-linecap="round" stroke-linejoin="round"/>
<path d="M223.882 105.53H227.577V108.417C228.207 106.483 229.384 105.176 230.971 105.176C233.216 105.176 234.858 107.872 234.858 112.149C234.858 116.425 233.134 119.258 230.835 119.258C229.384 119.258 228.289 118.087 227.66 116.371V123.235H223.882V105.53ZM229.22 116.589C230.287 116.589 230.889 115.036 230.889 112.149C230.889 109.261 230.315 107.791 229.247 107.791C228.125 107.791 227.577 109.289 227.577 112.149C227.577 115.009 228.152 116.589 229.22 116.589Z" fill="#A31AA3" stroke="black" stroke-width="12" stroke-linecap="round" stroke-linejoin="round"/>
<path d="M237.157 99.8096H240.935V107.927C241.811 105.884 243.015 105.23 244.274 105.23C246.518 105.23 247.476 107.164 247.476 109.534V118.877H243.672V109.861C243.672 108.717 243.261 107.845 242.44 107.845C241.537 107.845 240.935 108.853 240.935 110.787V118.877H237.157V99.8096Z" fill="#A31AA3" stroke="black" stroke-width="12" stroke-linecap="round" stroke-linejoin="round"/>
<path d="M250.213 99.8096H254.018V103.705H250.213V99.8096ZM250.241 105.53H254.018V118.877H250.241V105.53Z" fill="#A31AA3" stroke="black" stroke-width="12" stroke-linecap="round" stroke-linejoin="round"/>
<path d="M256.235 112.203C256.235 108.145 258.644 105.176 261.956 105.176C264.556 105.176 266.308 106.919 267.129 109.588C267.184 109.779 267.238 109.915 267.293 110.133L263.543 110.623C263.516 110.351 263.461 110.133 263.434 109.915C263.187 108.417 262.722 107.654 261.928 107.654C260.888 107.654 260.231 109.125 260.231 112.203C260.231 115.281 260.888 116.725 261.928 116.725C262.695 116.725 263.215 115.881 263.488 114.246L263.571 113.702L267.184 114.165C267.129 114.437 267.047 114.682 266.992 114.927C266.143 117.597 264.282 119.258 261.956 119.258C258.644 119.258 256.235 116.262 256.235 112.203Z" fill="#A31AA3" stroke="black" stroke-width="12" stroke-linecap="round" stroke-linejoin="round"/>
<path d="M164.295 147.805C163.378 147.805 162.557 147.696 161.846 147.492C161.12 147.288 160.477 147.002 159.916 146.648C159.355 146.294 158.862 145.871 158.465 145.395L160.231 143.038C160.737 143.515 161.312 143.924 161.928 144.251C162.544 144.578 163.214 144.755 163.926 144.755C164.501 144.755 164.993 144.673 165.418 144.523C165.842 144.373 166.157 144.128 166.389 143.815C166.622 143.502 166.731 143.12 166.731 142.698C166.731 142.194 166.608 141.758 166.348 141.39C166.088 141.023 165.637 140.75 164.98 140.56C164.323 140.369 163.378 140.274 162.147 140.274V137.591C163.173 137.591 163.967 137.495 164.555 137.291C165.13 137.087 165.554 136.814 165.801 136.474C166.047 136.133 166.17 135.725 166.17 135.275C166.17 134.676 165.979 134.213 165.609 133.872C165.24 133.545 164.706 133.368 164.022 133.368C163.433 133.368 162.886 133.505 162.379 133.763C161.873 134.022 161.367 134.39 160.86 134.88L158.931 132.565C159.711 131.911 160.518 131.394 161.38 131.012C162.243 130.631 163.173 130.44 164.186 130.44C165.349 130.44 166.362 130.617 167.224 130.971C168.086 131.325 168.757 131.843 169.236 132.524C169.715 133.205 169.961 134.022 169.961 135.003C169.961 135.888 169.715 136.637 169.236 137.25C168.757 137.863 168.059 138.367 167.142 138.748V138.844C167.772 139.034 168.346 139.307 168.866 139.661C169.386 140.015 169.783 140.478 170.071 141.023C170.358 141.568 170.509 142.208 170.509 142.93C170.509 143.978 170.221 144.864 169.646 145.599C169.072 146.321 168.319 146.879 167.375 147.261C166.43 147.642 165.404 147.833 164.268 147.833L164.295 147.805Z" fill="#A31AA3" stroke="black" stroke-width="12" stroke-linecap="round" stroke-linejoin="round"/>
<path d="M173.889 147.479V130.277H178.734C180.499 130.277 182.032 130.577 183.318 131.189C184.605 131.802 185.604 132.728 186.302 133.981C187 135.234 187.356 136.842 187.356 138.803C187.356 140.764 187.013 142.385 186.302 143.679C185.604 144.973 184.618 145.926 183.359 146.552C182.1 147.179 180.622 147.492 178.925 147.492H173.875L173.889 147.479ZM177.68 144.428H178.487C179.486 144.428 180.349 144.251 181.101 143.883C181.854 143.515 182.429 142.93 182.839 142.099C183.25 141.268 183.455 140.178 183.455 138.803C183.455 137.427 183.25 136.324 182.839 135.52C182.429 134.731 181.854 134.158 181.101 133.818C180.349 133.478 179.473 133.314 178.487 133.314H177.68V144.428Z" fill="#A31AA3" stroke="black" stroke-width="12" stroke-linecap="round" stroke-linejoin="round"/>
<path d="M194.828 144.128H214.439V146.879H194.828V144.128ZM196.785 129.909H210.47V132.592H196.785V129.909ZM208.678 129.909H212.099V132.592C212.099 133.627 212.099 134.662 212.058 135.698C212.031 136.733 211.976 137.836 211.866 139.007C211.771 140.178 211.579 141.5 211.319 142.971L207.898 142.698C208.158 141.336 208.349 140.083 208.445 138.925C208.541 137.768 208.609 136.678 208.637 135.643C208.664 134.608 208.678 133.6 208.678 132.606V129.923V129.909Z" fill="#A31AA3" stroke="black" stroke-width="12" stroke-linecap="round" stroke-linejoin="round"/>
<path d="M216.739 130.045H224.977V138.612H220.064V143.148H216.766V135.929H221.679V132.756H216.752V130.045H216.739ZM216.766 142.153H218.299C219.585 142.153 220.817 142.126 221.994 142.072C223.171 142.017 224.402 141.895 225.703 141.718L225.963 144.455C224.608 144.673 223.335 144.809 222.117 144.877C220.899 144.945 219.626 144.973 218.312 144.973H216.78V142.167L216.766 142.153ZM226.811 128.357H229.972V148.596H226.811V128.357ZM228.946 136.065H232.395V138.776H228.946V136.065ZM231.628 128.002H234.886V149.576H231.628V128.002Z" fill="#A31AA3" stroke="black" stroke-width="12" stroke-linecap="round" stroke-linejoin="round"/>
<path d="M238.334 140.601L237.992 137.863C239.265 137.863 240.634 137.863 242.125 137.822C243.603 137.795 245.109 137.754 246.628 137.672C248.147 137.591 249.598 137.482 250.98 137.332L251.24 139.811C249.803 140.042 248.325 140.206 246.819 140.315C245.314 140.424 243.836 140.492 242.399 140.532C240.962 140.573 239.607 140.587 238.348 140.587L238.334 140.601ZM238.54 129.514H250.213V132.224H238.54V129.514ZM240.127 131.707H243.412V138.776H240.127V131.707ZM240.825 142.058H255.715V149.603H252.266V144.768H240.825V142.058ZM245.341 131.707H248.64V138.776H245.341V131.707ZM252.28 128.03H255.729V141.227H252.28V128.03Z" fill="#A31AA3" stroke="black" stroke-width="12" stroke-linecap="round" stroke-linejoin="round"/>
<path d="M149.022 114.41C148.968 114.137 148.913 113.865 148.885 113.565L152.608 113.13C152.608 113.32 152.635 113.511 152.663 113.702C152.936 115.445 153.949 116.344 155.071 116.344C156.385 116.344 157.316 115.064 157.316 113.266C157.288 111.468 156.358 110.324 154.77 110.324H153.511L153.484 107.682H154.223C155.975 107.682 157.015 106.429 157.015 104.794C157.015 103.16 156.139 102.234 155.017 102.234C153.894 102.234 153.073 103.133 152.854 104.631C152.827 104.822 152.827 104.985 152.827 105.148L149.214 104.713C149.214 104.631 149.214 104.522 149.269 104.304C149.652 101.689 151.896 99.4009 155.29 99.4009C158.684 99.4009 160.901 101.635 160.901 104.413C160.901 106.401 159.67 108.063 157.425 108.717C159.834 109.398 161.394 111.141 161.394 113.593C161.394 116.698 158.958 119.286 155.181 119.286C152.006 119.286 149.652 117.27 149.022 114.41Z" fill="#A31AA3"/>
<path d="M164.159 99.8096H170.153C174.97 99.8096 177.926 103.405 177.926 109.207V109.234C177.899 115.227 174.861 118.877 169.852 118.877H164.159V99.8096ZM169.441 115.963C172.425 115.963 173.52 113.484 173.52 109.234V109.18C173.52 104.958 172.315 102.724 169.715 102.724H168.264V115.963H169.441Z" fill="#A31AA3"/>
<path d="M184.878 109.534C184.878 103.623 187.588 99.4009 192.542 99.4009C195.827 99.4009 198.126 101.335 198.92 103.841C199.029 104.059 199.084 104.358 199.139 104.495L195.115 105.203C195.088 105.039 194.978 104.713 194.924 104.522C194.54 103.323 193.719 102.479 192.542 102.479C190.462 102.479 189.313 105.067 189.313 109.425C189.313 113.293 190.407 116.099 192.488 116.126C194.102 116.126 195.389 114.41 195.389 110.978V110.95H192.132V108.063H199.248V118.877H196.949L196.237 115.908C195.471 117.815 193.938 119.286 191.612 119.286C187.834 119.286 184.878 115.445 184.878 109.534Z" fill="#A31AA3"/>
<path d="M201.958 105.53H205.571V109.316C206.529 106.483 207.925 105.475 209.649 105.366L209.622 109.479C207.35 109.207 205.735 110.297 205.735 112.476V118.877H201.958V105.53Z" fill="#A31AA3"/>
<path d="M210.662 115.472C210.662 113.456 211.511 111.904 214.713 110.787L217.067 109.97V109.452C217.067 108.226 216.629 107.627 215.753 107.627C214.877 107.627 214.412 108.281 214.357 109.261H210.717C211.319 106.837 213.317 105.176 216.136 105.176C218.956 105.176 220.844 106.755 220.844 109.67V115.581C220.844 116.371 221.145 116.562 221.528 116.562C221.665 116.562 221.747 116.534 221.802 116.534V118.85C221.501 118.986 220.844 119.095 220.187 119.095C218.408 119.095 217.259 118.305 217.122 116.534C216.437 118.196 215.343 119.149 213.892 119.149C212.031 119.149 210.662 117.678 210.662 115.472ZM215.507 116.643C216.383 116.643 217.094 115.636 217.094 114.137V111.577L215.917 112.176C214.631 112.83 214.248 113.702 214.248 114.818C214.248 116.017 214.877 116.643 215.507 116.643Z" fill="#A31AA3"/>
<path d="M223.882 105.53H227.577V108.417C228.207 106.483 229.384 105.176 230.971 105.176C233.216 105.176 234.858 107.872 234.858 112.149C234.858 116.425 233.134 119.258 230.835 119.258C229.384 119.258 228.289 118.087 227.66 116.371V123.235H223.882V105.53ZM229.22 116.589C230.287 116.589 230.889 115.036 230.889 112.149C230.889 109.261 230.315 107.791 229.247 107.791C228.125 107.791 227.577 109.289 227.577 112.149C227.577 115.009 228.152 116.589 229.22 116.589Z" fill="#A31AA3"/>
<path d="M237.157 99.8096H240.935V107.927C241.811 105.884 243.015 105.23 244.274 105.23C246.518 105.23 247.476 107.164 247.476 109.534V118.877H243.672V109.861C243.672 108.717 243.261 107.845 242.44 107.845C241.537 107.845 240.935 108.853 240.935 110.787V118.877H237.157V99.8096Z" fill="#A31AA3"/>
<path d="M250.213 99.8096H254.018V103.705H250.213V99.8096ZM250.241 105.53H254.018V118.877H250.241V105.53Z" fill="#A31AA3"/>
<path d="M256.235 112.203C256.235 108.145 258.644 105.176 261.956 105.176C264.556 105.176 266.308 106.919 267.129 109.588C267.184 109.779 267.238 109.915 267.293 110.133L263.543 110.623C263.516 110.351 263.461 110.133 263.434 109.915C263.187 108.417 262.722 107.654 261.928 107.654C260.888 107.654 260.231 109.125 260.231 112.203C260.231 115.281 260.888 116.725 261.928 116.725C262.695 116.725 263.215 115.881 263.488 114.246L263.571 113.702L267.184 114.165C267.129 114.437 267.047 114.682 266.992 114.927C266.143 117.597 264.282 119.258 261.956 119.258C258.644 119.258 256.235 116.262 256.235 112.203Z" fill="#A31AA3"/>
<path d="M164.295 147.805C163.378 147.805 162.557 147.696 161.846 147.492C161.12 147.288 160.477 147.002 159.916 146.648C159.355 146.294 158.862 145.871 158.465 145.395L160.231 143.038C160.737 143.515 161.312 143.924 161.928 144.251C162.544 144.578 163.214 144.755 163.926 144.755C164.501 144.755 164.993 144.673 165.418 144.523C165.842 144.373 166.157 144.128 166.389 143.815C166.622 143.502 166.731 143.12 166.731 142.698C166.731 142.194 166.608 141.758 166.348 141.39C166.088 141.023 165.637 140.75 164.98 140.56C164.323 140.369 163.378 140.274 162.147 140.274V137.591C163.173 137.591 163.967 137.495 164.555 137.291C165.13 137.087 165.554 136.814 165.801 136.474C166.047 136.133 166.17 135.725 166.17 135.275C166.17 134.676 165.979 134.213 165.609 133.872C165.24 133.545 164.706 133.368 164.022 133.368C163.433 133.368 162.886 133.505 162.379 133.763C161.873 134.022 161.367 134.39 160.86 134.88L158.931 132.565C159.711 131.911 160.518 131.394 161.38 131.012C162.243 130.631 163.173 130.44 164.186 130.44C165.349 130.44 166.362 130.617 167.224 130.971C168.086 131.325 168.757 131.843 169.236 132.524C169.715 133.205 169.961 134.022 169.961 135.003C169.961 135.888 169.715 136.637 169.236 137.25C168.757 137.863 168.059 138.367 167.142 138.748V138.844C167.772 139.034 168.346 139.307 168.866 139.661C169.386 140.015 169.783 140.478 170.071 141.023C170.358 141.568 170.509 142.208 170.509 142.93C170.509 143.978 170.221 144.864 169.646 145.599C169.072 146.321 168.319 146.879 167.375 147.261C166.43 147.642 165.404 147.833 164.268 147.833L164.295 147.805Z" fill="#A31AA3"/>
<path d="M173.889 147.479V130.277H178.734C180.499 130.277 182.032 130.577 183.318 131.189C184.605 131.802 185.604 132.728 186.302 133.981C187 135.234 187.356 136.842 187.356 138.803C187.356 140.764 187.013 142.385 186.302 143.679C185.604 144.973 184.618 145.926 183.359 146.552C182.1 147.179 180.622 147.492 178.925 147.492H173.875L173.889 147.479ZM177.68 144.428H178.487C179.486 144.428 180.349 144.251 181.101 143.883C181.854 143.515 182.429 142.93 182.839 142.099C183.25 141.268 183.455 140.178 183.455 138.803C183.455 137.427 183.25 136.324 182.839 135.52C182.429 134.731 181.854 134.158 181.101 133.818C180.349 133.478 179.473 133.314 178.487 133.314H177.68V144.428Z" fill="#A31AA3"/>
<path d="M194.828 144.128H214.439V146.879H194.828V144.128ZM196.785 129.909H210.47V132.592H196.785V129.909ZM208.678 129.909H212.099V132.592C212.099 133.627 212.099 134.662 212.058 135.698C212.031 136.733 211.976 137.836 211.866 139.007C211.771 140.178 211.579 141.5 211.319 142.971L207.898 142.698C208.158 141.336 208.349 140.083 208.445 138.925C208.541 137.768 208.609 136.678 208.637 135.643C208.664 134.608 208.678 133.6 208.678 132.606V129.923V129.909Z" fill="#A31AA3"/>
<path d="M216.739 130.045H224.977V138.612H220.064V143.148H216.766V135.929H221.679V132.756H216.752V130.045H216.739ZM216.766 142.153H218.299C219.585 142.153 220.817 142.126 221.994 142.072C223.171 142.017 224.402 141.895 225.703 141.718L225.963 144.455C224.608 144.673 223.335 144.809 222.117 144.877C220.899 144.945 219.626 144.973 218.312 144.973H216.78V142.167L216.766 142.153ZM226.811 128.357H229.972V148.596H226.811V128.357ZM228.946 136.065H232.395V138.776H228.946V136.065ZM231.628 128.002H234.886V149.576H231.628V128.002Z" fill="#A31AA3"/>
<path d="M238.334 140.601L237.992 137.863C239.265 137.863 240.634 137.863 242.125 137.822C243.603 137.795 245.109 137.754 246.628 137.672C248.147 137.591 249.598 137.482 250.98 137.332L251.24 139.811C249.803 140.042 248.325 140.206 246.819 140.315C245.314 140.424 243.836 140.492 242.399 140.532C240.962 140.573 239.607 140.587 238.348 140.587L238.334 140.601ZM238.54 129.514H250.213V132.224H238.54V129.514ZM240.127 131.707H243.412V138.776H240.127V131.707ZM240.825 142.058H255.715V149.603H252.266V144.768H240.825V142.058ZM245.341 131.707H248.64V138.776H245.341V131.707ZM252.28 128.03H255.729V141.227H252.28V128.03Z" fill="#A31AA3"/>
</g>
<defs>
<clipPath id="clip0_209_8529">
<rect width="416" height="414" fill="white"/>
</clipPath>
</defs>
</svg>
