<svg width="416" height="414" viewBox="0 0 416 414" fill="none" xmlns="http://www.w3.org/2000/svg">
<g clip-path="url(#clip0_439_4642)">
<mask id="mask0_439_4642" style="mask-type:luminance" maskUnits="userSpaceOnUse" x="0" y="0" width="416" height="414">
<path d="M416 0H0V414H416V0Z" fill="white"/>
</mask>
<g mask="url(#mask0_439_4642)">
<path d="M416 258.46V0H77.43V103.82C77.43 111.76 70.96 118.2 62.98 118.2C55 118.2 48.53 111.76 48.53 103.82V0H0V308.2L66.31 351.05V414H363.33V309.7L416.01 258.45L416 258.46Z" fill="#A31AA3"/>
</g>
<path d="M212.1 115.78H172.14V132.49H212.1V115.78Z" fill="black"/>
<path d="M151.12 99.8H155.32V119.4H151.12V99.8Z" fill="#A31AA3" stroke="black" stroke-width="12" stroke-linejoin="round"/>
<path d="M158.09 99.8H161.98V119.4H158.09V99.8Z" fill="#A31AA3" stroke="black" stroke-width="12" stroke-linejoin="round"/>
<path d="M164.65 99.8H168.54V119.4H164.65V99.8Z" fill="#A31AA3" stroke="black" stroke-width="12" stroke-linejoin="round"/>
<path d="M171.09 115.28V105.68H174.98V114.95C174.98 116.07 175.34 117.02 176.21 117.02C177.13 117.02 177.75 115.98 177.75 114V105.68H181.64V119.4H177.8V116.8C176.9 119.01 175.67 119.71 174.36 119.71C172.06 119.71 171.08 117.75 171.08 115.29L171.09 115.28Z" fill="#A31AA3" stroke="black" stroke-width="12" stroke-linejoin="round"/>
<path d="M183.49 116.35C183.38 116.07 183.29 115.76 183.21 115.48L186.54 114.95C186.57 115.23 186.65 115.48 186.74 115.68C187.16 116.83 187.89 117.3 188.7 117.3C189.62 117.3 190.18 116.63 190.18 115.79C190.18 114.95 189.79 114.56 188.75 114.11L186.71 113.21C184.72 112.37 183.83 111.11 183.85 109.32C183.88 107.11 185.78 105.32 188.69 105.32C190.76 105.32 192.53 106.41 193.37 108.12C193.48 108.34 193.57 108.57 193.68 108.85L190.63 109.47C190.57 109.25 190.55 109.05 190.43 108.85C190.07 108.09 189.42 107.7 188.75 107.7C187.97 107.7 187.32 108.2 187.32 108.99C187.32 109.49 187.52 109.91 188.61 110.31L190.57 111.09C193.34 112.15 193.93 113.75 193.9 115.35C193.87 117.65 191.83 119.8 188.66 119.8C186.53 119.8 184.4 118.62 183.48 116.36L183.49 116.35Z" fill="#A31AA3" stroke="black" stroke-width="12" stroke-linejoin="round"/>
<path d="M197.41 118.78C196.77 118.19 196.4 117.35 196.4 116.15V108.17H194.64V105.68H196.43L196.65 101.06H200.29V105.68H202.5V108.17H200.29V115.42C200.29 115.92 200.4 116.26 200.6 116.46C200.82 116.68 201.13 116.77 201.5 116.77C201.92 116.77 202.26 116.69 202.51 116.55V119.29C201.67 119.54 201.11 119.68 200.21 119.68C199.06 119.68 198.08 119.4 197.41 118.78Z" fill="#A31AA3" stroke="black" stroke-width="12" stroke-linejoin="round"/>
<path d="M204.41 105.68H208.11V109.57C209.09 106.66 210.52 105.62 212.28 105.51L212.25 109.74C209.93 109.46 208.27 110.58 208.27 112.82V119.4H204.41V105.68Z" fill="#A31AA3" stroke="black" stroke-width="12" stroke-linejoin="round"/>
<path d="M213 115.9C213 113.83 213.87 112.23 217.14 111.08L219.55 110.24V109.71C219.55 108.45 219.1 107.83 218.21 107.83C217.32 107.83 216.84 108.5 216.78 109.51H213.06C213.68 107.02 215.72 105.31 218.6 105.31C221.48 105.31 223.42 106.93 223.42 109.93V116.01C223.42 116.82 223.73 117.02 224.12 117.02C224.26 117.02 224.34 116.99 224.4 116.99V119.37C224.09 119.51 223.42 119.62 222.75 119.62C220.93 119.62 219.75 118.81 219.61 116.99C218.91 118.7 217.79 119.68 216.31 119.68C214.41 119.68 213.01 118.17 213.01 115.9H213ZM217.96 117.1C218.86 117.1 219.58 116.06 219.58 114.52V111.89L218.38 112.51C217.06 113.18 216.67 114.08 216.67 115.23C216.67 116.46 217.31 117.11 217.96 117.11V117.1Z" fill="#A31AA3" stroke="black" stroke-width="12" stroke-linejoin="round"/>
<path d="M227.76 118.78C227.12 118.19 226.75 117.35 226.75 116.15V108.17H224.99V105.68H226.78L227 101.06H230.64V105.68H232.85V108.17H230.64V115.42C230.64 115.92 230.75 116.26 230.95 116.46C231.17 116.68 231.48 116.77 231.85 116.77C232.27 116.77 232.61 116.69 232.86 116.55V119.29C232.02 119.54 231.46 119.68 230.56 119.68C229.41 119.68 228.43 119.4 227.76 118.78Z" fill="#A31AA3" stroke="black" stroke-width="12" stroke-linejoin="round"/>
<path d="M234.73 99.8H238.62V103.8H234.73V99.8ZM234.76 105.68H238.62V119.4H234.76V105.68Z" fill="#A31AA3" stroke="black" stroke-width="12" stroke-linejoin="round"/>
<path d="M240.58 112.54C240.58 108.37 243.07 105.32 246.43 105.32C249.79 105.32 252.23 108.34 252.25 112.54C252.25 116.71 249.73 119.79 246.43 119.79C243.13 119.79 240.58 116.74 240.58 112.54ZM246.43 117.19C247.49 117.19 248.14 115.65 248.14 112.54C248.14 109.43 247.5 107.86 246.43 107.86C245.31 107.86 244.69 109.37 244.69 112.54C244.69 115.71 245.31 117.19 246.43 117.19Z" fill="#A31AA3" stroke="black" stroke-width="12" stroke-linejoin="round"/>
<path d="M254.19 105.68H258V108.34C258.87 106.07 260.13 105.37 261.47 105.37C263.74 105.37 264.75 107.33 264.75 109.79V119.39H260.86V110.12C260.86 109 260.5 108.05 259.6 108.05C258.7 108.05 258.06 109.09 258.06 111.07V119.39H254.2V105.67L254.19 105.68Z" fill="#A31AA3" stroke="black" stroke-width="12" stroke-linejoin="round"/>
<path d="M144.11 129.05C147.47 129.05 150.07 131.12 150.07 134.11C150.07 137.1 147.47 139.19 144.11 139.19C140.75 139.19 138.2 137.07 138.2 134.11C138.2 131.15 140.78 129.05 144.11 129.05ZM141.1 149.93V143.86H152.44V142.8H141.15V140.27H155.71V146.18H144.37V147.38H156.33V149.93H141.11H141.1ZM144.11 136.62C145.67 136.62 146.89 135.68 146.89 134.11C146.89 132.54 145.67 131.6 144.11 131.6C142.55 131.6 141.37 132.57 141.37 134.11C141.37 135.65 142.54 136.62 144.11 136.62ZM152.43 139.43V128.3H155.7V139.43H152.43Z" fill="#A31AA3" stroke="black" stroke-width="12" stroke-linejoin="round"/>
<path d="M170.95 144.43C168.77 144.94 165.16 145.1 161.54 145.1C160.83 145.1 160.05 145.08 159.38 145.05V135.78H166.07V132.63H159.33V130.1H169.33V138.31H162.64V142.4C164.59 142.49 168.14 142.26 170.67 141.82L170.95 144.42V144.43ZM173.59 150.09V138.78H170.6V136.04H173.59V128.29H176.83V150.09H173.59Z" fill="#A31AA3" stroke="black" stroke-width="12" stroke-linejoin="round"/>
<path d="M179.93 147.3V144.72H199.61V147.3H179.93ZM197.64 140.84C194.95 140.31 190.97 138.19 189.75 135.02C188.53 138.19 184.69 140.29 181.91 140.84L180.44 138.22C184.03 137.78 188.03 135.09 188.03 131.11V129.8H191.5V131.11C191.5 135.09 195.46 137.76 199.09 138.22L197.64 140.84Z" fill="#A31AA3" stroke="black" stroke-width="12" stroke-linejoin="round"/>
<path d="M220.77 147.37H201.08V144.84H220.77V147.37ZM206.83 137.23V139.44H218.63V141.99H203.59V130.08H218.35V132.63H206.83V134.7H217.8V137.23H206.83Z" fill="#A31AA3" stroke="black" stroke-width="12" stroke-linejoin="round"/>
<path d="M225.28 145.12C224.45 145.12 223.67 145.1 222.89 145.1V136.02H227.4V133.05H222.98V130.38H230.61V138.73H226.08V142.46H226.59C227.99 142.46 230.36 142.32 231.67 142C231.74 142.85 231.81 143.68 231.9 144.53C230.38 144.9 227.58 145.13 225.28 145.13V145.12ZM233.51 149.1V138.71H231.46V136.09H233.51V128.69H236.52V149.11H233.51V149.1ZM237.74 150.09V128.29H240.82V150.09H237.74Z" fill="#A31AA3" stroke="black" stroke-width="12" stroke-linejoin="round"/>
<path d="M249.68 129.69C253.31 129.69 255.43 132.98 255.43 137.55C255.43 142.12 253.31 145.37 249.68 145.37C246.05 145.37 243.98 142.06 243.98 137.55C243.98 133.04 246.12 129.69 249.68 129.69ZM249.68 132.54C248.21 132.54 247.06 134.24 247.06 137.55C247.06 140.86 248.21 142.54 249.68 142.54C251.24 142.54 252.39 140.84 252.39 137.55C252.39 134.26 251.24 132.54 249.68 132.54ZM258.28 150.08V128.28H261.5V150.08H258.28Z" fill="#A31AA3" stroke="black" stroke-width="12" stroke-linejoin="round"/>
<path d="M275.81 141.76C274.15 141.23 271.88 139.28 271.12 137.51C270.48 139.42 268.13 141.53 266.02 142.25L264.36 139.61C267.6 138.39 269.51 135.86 269.51 132.85V129.77H272.84V132.69C272.84 135.84 274.8 138.14 277.53 139.08L275.81 141.77V141.76ZM267.97 149.53V142.79H271.19V147H283.08V149.53H267.97ZM276.2 134.03V131.41H279.4V128.28H282.69V144.1H279.4V138.28H276.2V135.7H279.4V134.02H276.2V134.03Z" fill="#A31AA3" stroke="black" stroke-width="12" stroke-linejoin="round"/>
<path d="M151.12 99.8H155.32V119.4H151.12V99.8Z" fill="#A31AA3"/>
<path d="M158.09 99.8H161.98V119.4H158.09V99.8Z" fill="#A31AA3"/>
<path d="M164.65 99.8H168.54V119.4H164.65V99.8Z" fill="#A31AA3"/>
<path d="M171.09 115.28V105.68H174.98V114.95C174.98 116.07 175.34 117.02 176.21 117.02C177.13 117.02 177.75 115.98 177.75 114V105.68H181.64V119.4H177.8V116.8C176.9 119.01 175.67 119.71 174.36 119.71C172.06 119.71 171.08 117.75 171.08 115.29L171.09 115.28Z" fill="#A31AA3"/>
<path d="M183.49 116.35C183.38 116.07 183.29 115.76 183.21 115.48L186.54 114.95C186.57 115.23 186.65 115.48 186.74 115.68C187.16 116.83 187.89 117.3 188.7 117.3C189.62 117.3 190.18 116.63 190.18 115.79C190.18 114.95 189.79 114.56 188.75 114.11L186.71 113.21C184.72 112.37 183.83 111.11 183.85 109.32C183.88 107.11 185.78 105.32 188.69 105.32C190.76 105.32 192.53 106.41 193.37 108.12C193.48 108.34 193.57 108.57 193.68 108.85L190.63 109.47C190.57 109.25 190.55 109.05 190.43 108.85C190.07 108.09 189.42 107.7 188.75 107.7C187.97 107.7 187.32 108.2 187.32 108.99C187.32 109.49 187.52 109.91 188.61 110.31L190.57 111.09C193.34 112.15 193.93 113.75 193.9 115.35C193.87 117.65 191.83 119.8 188.66 119.8C186.53 119.8 184.4 118.62 183.48 116.36L183.49 116.35Z" fill="#A31AA3"/>
<path d="M197.41 118.78C196.77 118.19 196.4 117.35 196.4 116.15V108.17H194.64V105.68H196.43L196.65 101.06H200.29V105.68H202.5V108.17H200.29V115.42C200.29 115.92 200.4 116.26 200.6 116.46C200.82 116.68 201.13 116.77 201.5 116.77C201.92 116.77 202.26 116.69 202.51 116.55V119.29C201.67 119.54 201.11 119.68 200.21 119.68C199.06 119.68 198.08 119.4 197.41 118.78Z" fill="#A31AA3"/>
<path d="M204.41 105.68H208.11V109.57C209.09 106.66 210.52 105.62 212.28 105.51L212.25 109.74C209.93 109.46 208.27 110.58 208.27 112.82V119.4H204.41V105.68Z" fill="#A31AA3"/>
<path d="M213 115.9C213 113.83 213.87 112.23 217.14 111.08L219.55 110.24V109.71C219.55 108.45 219.1 107.83 218.21 107.83C217.32 107.83 216.84 108.5 216.78 109.51H213.06C213.68 107.02 215.72 105.31 218.6 105.31C221.48 105.31 223.42 106.93 223.42 109.93V116.01C223.42 116.82 223.73 117.02 224.12 117.02C224.26 117.02 224.34 116.99 224.4 116.99V119.37C224.09 119.51 223.42 119.62 222.75 119.62C220.93 119.62 219.75 118.81 219.61 116.99C218.91 118.7 217.79 119.68 216.31 119.68C214.41 119.68 213.01 118.17 213.01 115.9H213ZM217.96 117.1C218.86 117.1 219.58 116.06 219.58 114.52V111.89L218.38 112.51C217.06 113.18 216.67 114.08 216.67 115.23C216.67 116.46 217.31 117.11 217.96 117.11V117.1Z" fill="#A31AA3"/>
<path d="M227.76 118.78C227.12 118.19 226.75 117.35 226.75 116.15V108.17H224.99V105.68H226.78L227 101.06H230.64V105.68H232.85V108.17H230.64V115.42C230.64 115.92 230.75 116.26 230.95 116.46C231.17 116.68 231.48 116.77 231.85 116.77C232.27 116.77 232.61 116.69 232.86 116.55V119.29C232.02 119.54 231.46 119.68 230.56 119.68C229.41 119.68 228.43 119.4 227.76 118.78Z" fill="#A31AA3"/>
<path d="M234.73 99.8H238.62V103.8H234.73V99.8ZM234.76 105.68H238.62V119.4H234.76V105.68Z" fill="#A31AA3"/>
<path d="M240.58 112.54C240.58 108.37 243.07 105.32 246.43 105.32C249.79 105.32 252.23 108.34 252.25 112.54C252.25 116.71 249.73 119.79 246.43 119.79C243.13 119.79 240.58 116.74 240.58 112.54ZM246.43 117.19C247.49 117.19 248.14 115.65 248.14 112.54C248.14 109.43 247.5 107.86 246.43 107.86C245.31 107.86 244.69 109.37 244.69 112.54C244.69 115.71 245.31 117.19 246.43 117.19Z" fill="#A31AA3"/>
<path d="M254.19 105.68H258V108.34C258.87 106.07 260.13 105.37 261.47 105.37C263.74 105.37 264.75 107.33 264.75 109.79V119.39H260.86V110.12C260.86 109 260.5 108.05 259.6 108.05C258.7 108.05 258.06 109.09 258.06 111.07V119.39H254.2V105.67L254.19 105.68Z" fill="#A31AA3"/>
<path d="M144.11 129.05C147.47 129.05 150.07 131.12 150.07 134.11C150.07 137.1 147.47 139.19 144.11 139.19C140.75 139.19 138.2 137.07 138.2 134.11C138.2 131.15 140.78 129.05 144.11 129.05ZM141.1 149.93V143.86H152.44V142.8H141.15V140.27H155.71V146.18H144.37V147.38H156.33V149.93H141.11H141.1ZM144.11 136.62C145.67 136.62 146.89 135.68 146.89 134.11C146.89 132.54 145.67 131.6 144.11 131.6C142.55 131.6 141.37 132.57 141.37 134.11C141.37 135.65 142.54 136.62 144.11 136.62ZM152.43 139.43V128.3H155.7V139.43H152.43Z" fill="#A31AA3"/>
<path d="M170.95 144.43C168.77 144.94 165.16 145.1 161.54 145.1C160.83 145.1 160.05 145.08 159.38 145.05V135.78H166.07V132.63H159.33V130.1H169.33V138.31H162.64V142.4C164.59 142.49 168.14 142.26 170.67 141.82L170.95 144.42V144.43ZM173.59 150.09V138.78H170.6V136.04H173.59V128.29H176.83V150.09H173.59Z" fill="#A31AA3"/>
<path d="M179.93 147.3V144.72H199.61V147.3H179.93ZM197.64 140.84C194.95 140.31 190.97 138.19 189.75 135.02C188.53 138.19 184.69 140.29 181.91 140.84L180.44 138.22C184.03 137.78 188.03 135.09 188.03 131.11V129.8H191.5V131.11C191.5 135.09 195.46 137.76 199.09 138.22L197.64 140.84Z" fill="#A31AA3"/>
<path d="M220.77 147.37H201.08V144.84H220.77V147.37ZM206.83 137.23V139.44H218.63V141.99H203.59V130.08H218.35V132.63H206.83V134.7H217.8V137.23H206.83Z" fill="#A31AA3"/>
<path d="M225.28 145.12C224.45 145.12 223.67 145.1 222.89 145.1V136.02H227.4V133.05H222.98V130.38H230.61V138.73H226.08V142.46H226.59C227.99 142.46 230.36 142.32 231.67 142C231.74 142.85 231.81 143.68 231.9 144.53C230.38 144.9 227.58 145.13 225.28 145.13V145.12ZM233.51 149.1V138.71H231.46V136.09H233.51V128.69H236.52V149.11H233.51V149.1ZM237.74 150.09V128.29H240.82V150.09H237.74Z" fill="#A31AA3"/>
<path d="M249.68 129.69C253.31 129.69 255.43 132.98 255.43 137.55C255.43 142.12 253.31 145.37 249.68 145.37C246.05 145.37 243.98 142.06 243.98 137.55C243.98 133.04 246.12 129.69 249.68 129.69ZM249.68 132.54C248.21 132.54 247.06 134.24 247.06 137.55C247.06 140.86 248.21 142.54 249.68 142.54C251.24 142.54 252.39 140.84 252.39 137.55C252.39 134.26 251.24 132.54 249.68 132.54ZM258.28 150.08V128.28H261.5V150.08H258.28Z" fill="#A31AA3"/>
<path d="M275.81 141.76C274.15 141.23 271.88 139.28 271.12 137.51C270.48 139.42 268.13 141.53 266.02 142.25L264.36 139.61C267.6 138.39 269.51 135.86 269.51 132.85V129.77H272.84V132.69C272.84 135.84 274.8 138.14 277.53 139.08L275.81 141.77V141.76ZM267.97 149.53V142.79H271.19V147H283.08V149.53H267.97ZM276.2 134.03V131.41H279.4V128.28H282.69V144.1H279.4V138.28H276.2V135.7H279.4V134.02H276.2V134.03Z" fill="#A31AA3"/>
<path d="M143.822 59.069H129.041V24.325H145.957V42.6572C145.957 43.9919 147.777 44.3051 148.092 43.0794L153.169 24.325H171.535L160.107 66.8186H141.741L143.822 59.069Z" fill="black"/>
<path d="M174.135 24.3386H207.706V66.8322H190.626V56.3723H183.263L180.431 66.8322H162.708L174.135 24.3386ZM192.597 40.8049C192.597 38.4214 190.681 36.501 188.327 36.501C185.973 36.501 184.002 38.4078 184.002 40.8049C184.002 43.2019 185.973 45.0542 188.327 45.0542C190.681 45.0542 192.597 43.1475 192.597 40.8049Z" fill="black"/>
<path d="M209.841 24.3386H231.409C243.685 24.3386 253.771 33.8996 253.771 45.5854C253.771 57.2712 243.685 66.8322 231.409 66.8322H209.841V24.3386ZM236.692 45.5854C236.692 42.2349 233.968 39.4701 230.602 39.4701C227.235 39.4701 224.457 42.2349 224.457 45.5854C224.457 48.9359 227.235 51.7007 230.602 51.7007C233.968 51.7007 236.692 48.9359 236.692 45.5854Z" fill="black"/>
<path d="M263.324 38.6802H253.607V24.3386H285.741L278.214 52.4906H287.931V66.8322H255.797L263.324 38.6802Z" fill="black"/>
</g>
<defs>
<clipPath id="clip0_439_4642">
<rect width="416" height="414" fill="white"/>
</clipPath>
</defs>
</svg>
