<svg width="68" height="68" viewBox="0 0 68 68" fill="none" xmlns="http://www.w3.org/2000/svg">
<path d="M14.047 24.6718C13.818 24.4572 13.5486 24.2895 13.2543 24.1781C12.9599 24.0667 12.6463 24.014 12.3313 24.0228C12.0164 24.0316 11.7063 24.1019 11.4187 24.2296C11.1312 24.3573 10.8718 24.5399 10.6554 24.767C10.439 24.9941 10.2698 25.2612 10.1576 25.5532C10.0453 25.8451 9.99205 26.1561 10.001 26.4685C10.0099 26.7808 10.0807 27.0883 10.2095 27.3735C10.3382 27.6587 10.5224 27.9159 10.7514 28.1305L32.3387 48.3498C32.784 48.7673 33.3737 49 33.9865 49C34.5994 49 35.189 48.7673 35.6344 48.3498L57.2241 28.1305C57.4581 27.9173 57.6471 27.6602 57.78 27.3739C57.9129 27.0877 57.9872 26.7781 57.9985 26.4632C58.0098 26.1483 57.9578 25.8343 57.8457 25.5394C57.7336 25.2445 57.5635 24.9747 57.3453 24.7456C57.1272 24.5165 56.8653 24.3326 56.5749 24.2047C56.2845 24.0768 55.9713 24.0074 55.6536 24.0006C55.3359 23.9937 55.0201 24.0495 54.7243 24.1647C54.4285 24.28 54.1588 24.4523 53.9308 24.6718L33.9865 43.3497L14.047 24.6718Z" fill="black"/>
</svg>
