<svg width="238" height="281" viewBox="0 0 238 281" fill="none" xmlns="http://www.w3.org/2000/svg">
<g clip-path="url(#clip0_270_2845)">
<path d="M195.039 268.856H184.729V279.842H195.039V268.856ZM156.14 254.54C150.516 254.54 147.004 250.517 147.004 244.402C147.004 238.287 150.597 234.189 156.303 234.189C162.008 234.189 165.438 238.138 165.438 244.247C165.438 250.356 161.689 254.534 156.146 254.534M154.972 281C168.094 281 175.668 270.787 175.668 251.984C175.668 235.037 168.638 226.533 156.296 226.533C145.048 226.533 137.393 233.806 137.393 244.637C137.393 254.775 144.192 261.732 154.34 261.732C159.577 261.732 163.789 259.566 166.838 255.698H166.994C166.682 268.076 161.995 273.337 155.434 273.337C150.904 273.337 148.173 270.787 147.467 265.984H138.093C138.793 275.343 145.123 280.994 154.965 280.994M112.398 234.344C119.116 234.344 122.784 241.227 122.784 253.766C122.784 266.306 119.109 273.337 112.398 273.337C105.687 273.337 101.931 266.374 101.931 253.766C101.931 241.159 105.606 234.344 112.398 234.344ZM112.398 226.533C99.4317 226.533 92.3268 236.281 92.3268 253.766C92.3268 271.252 99.438 281 112.398 281C125.358 281 132.394 271.252 132.394 253.766C132.394 236.281 125.283 226.533 112.398 226.533ZM80.0603 253.612H0V260.884H80.0603V253.612Z" fill="black"/>
<path d="M195.039 193.345H184.728V204.332H195.039V193.345ZM145.048 184.445L150.597 176.553C154.503 170.828 158.333 165.177 161.92 159.378H162.076C161.839 165.493 161.689 171.602 161.689 177.711V184.445H145.054H145.048ZM178.717 191.798V184.445H170.669V152.186H158.327L136.381 183.906V191.798H161.451V204.332H170.669V191.798H178.717ZM112.398 158.833C119.115 158.833 122.784 165.716 122.784 178.255C122.784 190.795 119.109 197.826 112.398 197.826C105.687 197.826 101.931 190.863 101.931 178.255C101.931 165.648 105.605 158.833 112.398 158.833ZM112.398 151.022C99.4316 151.022 92.3267 160.77 92.3267 178.255C92.3267 195.741 99.4379 205.489 112.398 205.489C125.358 205.489 132.394 195.741 132.394 178.255C132.394 160.77 125.283 151.022 112.398 151.022Z" fill="black"/>
<path d="M195.039 117.834H184.728V128.821H195.039V117.834ZM157.627 75.5111C145.992 75.5111 138.956 81.8552 138.956 92.6063H148.254C148.254 86.2621 151.616 83.1674 157.315 83.1674C163.014 83.1674 166.376 86.2621 166.376 90.8299C166.376 95.7072 162.239 98.8762 155.515 98.8762H153.64V106.378H155.515C163.17 106.378 167.075 109.163 167.075 114.579C167.075 119.221 163.326 122.316 157.702 122.316C151.141 122.316 147.779 118.911 147.779 112.412H138.406C138.406 123.628 145.354 129.978 157.702 129.978C168.95 129.978 176.449 124.024 176.449 114.969C176.449 108.235 173.249 104.292 166.451 102.045V101.89C172.699 99.6498 175.586 96.0105 175.586 89.9758C175.586 81.2363 168.713 75.5049 157.621 75.5049M112.398 83.3221C119.115 83.3221 122.784 90.2048 122.784 102.745C122.784 115.284 119.109 122.316 112.398 122.316C105.687 122.316 101.931 115.352 101.931 102.745C101.931 90.1367 105.605 83.3221 112.398 83.3221ZM112.398 75.5111C99.4316 75.5111 92.3267 85.2594 92.3267 102.745C92.3267 120.23 99.4378 129.978 112.398 129.978C125.358 129.978 132.394 120.23 132.394 102.745C132.394 85.2594 125.283 75.5111 112.398 75.5111Z" fill="black"/>
<path d="M195.039 42.3233H184.729V53.3095H195.039V42.3233ZM145.048 33.4229L150.597 25.5314C154.503 19.8062 158.333 14.1552 161.92 8.35573H162.076C161.839 14.4709 161.689 20.5798 161.689 26.6888V33.4229H145.055H145.048ZM178.717 40.7759V33.4229H170.669V1.16361H158.327L136.381 32.8844V40.7759H161.452V53.3095H170.669V40.7759H178.717ZM112.323 0C101.231 0 94.2014 6.03469 93.889 16.9467H103.187C103.425 11.0667 106.237 7.73678 112.323 7.73678C117.322 7.73678 120.372 10.6768 120.372 15.0898C120.372 21.0441 116.31 23.9098 108.499 28.3971C95.8449 35.6697 93.1891 41.6301 93.1891 51.6817C93.1891 52.1459 93.1891 52.6844 93.2641 53.3033H131.226V45.7213H103.887C104.043 41.5434 105.999 38.7582 116.072 32.8782C124.196 28.2362 129.976 23.9778 129.976 14.6937C129.976 5.40956 123.021 0 112.323 0ZM67.0189 7.81106C73.7365 7.81106 77.4045 14.6937 77.4045 27.2335C77.4045 39.7733 73.7302 46.8045 67.0189 46.8045C60.3077 46.8045 56.5521 39.8413 56.5521 27.2335C56.5521 14.6256 60.2264 7.81106 67.0189 7.81106ZM67.0189 0C54.0526 0 46.9476 9.74835 46.9476 27.2335C46.9476 44.7186 54.0588 54.467 67.0189 54.467C79.9791 54.467 87.0153 44.7186 87.0153 27.2335C87.0153 9.74835 79.9041 0 67.0189 0ZM21.5585 0C10.4668 0 3.43687 6.03469 3.12443 16.9467H12.4227C12.6602 11.0667 15.4722 7.73678 21.5585 7.73678C26.5576 7.73678 29.6071 10.6768 29.6071 15.0898C29.6071 21.0441 25.5453 23.9098 17.7342 28.3971C5.08032 35.6635 2.42456 41.6239 2.42456 51.6817C2.42456 52.1459 2.42456 52.6844 2.49955 53.3033H40.4613V45.7213H13.1226C13.2788 41.5434 15.2347 38.7582 25.3079 32.8782C33.4314 28.2362 39.2115 23.9778 39.2115 14.6937C39.2115 5.40956 32.2628 0 21.5585 0Z" fill="black"/>
<path d="M223.084 168.433H226.952V161.402C226.952 159.403 226.74 156.252 226.74 156.252H226.79C226.79 156.252 228.164 159.167 229.233 160.931L233.838 168.433H237.994V150.935H234.126V158.016C234.126 160.015 234.338 163.141 234.338 163.141H234.288C234.288 163.141 232.913 160.294 231.864 158.53L227.208 150.935H223.078V168.433H223.084ZM212.136 165.561C209.074 165.561 207.506 163.042 207.506 159.749C207.506 156.456 209.074 153.869 212.136 153.869C215.198 153.869 216.698 156.432 216.698 159.749C216.698 163.067 215.179 165.561 212.136 165.561ZM212.117 168.854C217.46 168.854 220.834 164.973 220.834 159.749C220.834 154.525 217.46 150.626 212.117 150.626C206.774 150.626 203.381 154.507 203.381 159.749C203.381 164.992 206.756 168.854 212.117 168.854ZM183.123 168.433H186.753V160.603C186.753 158.394 186.466 154.302 186.466 154.302H186.516C186.516 154.302 187.278 158.041 187.89 160.114L190.434 168.439H193.758L196.276 160.114C196.895 158.047 197.651 154.302 197.651 154.302H197.701C197.701 154.302 197.414 158.394 197.414 160.603V168.433H201.144V150.935H195.633L193.471 158.227C192.827 160.411 192.165 164.459 192.165 164.459H192.096C192.096 164.459 191.409 160.411 190.765 158.227L188.559 150.935H183.123V168.433Z" fill="black"/>
<path d="M213.636 240.181H218.885V254.268H222.947V240.181H228.221V236.77H213.642V240.181H213.636ZM205.087 244.792C205.656 243.077 206.275 240.137 206.275 240.137H206.325C206.325 240.137 206.706 242.397 207.462 244.792L208.53 248.06H203.994L205.087 244.792ZM197.889 254.274H201.95L203.044 250.932H209.455L210.574 254.274H214.848L208.462 236.777H204.256L197.895 254.274H197.889ZM190.053 254.695C194.089 254.695 197.176 252.671 197.176 249.05C197.176 245.429 194.258 244.322 191.071 243.616C188.29 243.003 186.772 242.7 186.772 241.332C186.772 240.224 187.891 239.519 189.553 239.519C191.309 239.519 192.402 240.317 192.615 241.685H196.583C196.32 238.25 193.564 236.461 189.671 236.461C185.778 236.461 182.785 238.107 182.785 241.728C182.785 245.349 185.585 246.222 189.028 246.995C191.59 247.583 193.09 247.911 193.09 249.44C193.09 250.876 191.615 251.489 190.053 251.489C187.772 251.489 186.516 250.641 186.303 248.735H182.217C182.335 252.522 185.328 254.683 190.053 254.683" fill="black"/>
</g>
<defs>
<clipPath id="clip0_270_2845">
<rect width="238" height="281" fill="white"/>
</clipPath>
</defs>
</svg>
