y<svg width="240" height="282" viewBox="0 0 240 282" fill="none" xmlns="http://www.w3.org/2000/svg">
<path d="M196.025 269.218H185.276V280.779H196.025V269.218ZM157.622 254.156C151.764 254.156 148.101 249.921 148.101 243.491C148.101 237.061 151.849 232.742 157.791 232.742C163.734 232.742 167.313 236.892 167.313 243.322C167.313 249.752 163.403 254.149 157.622 254.149M156.401 282C170.08 282 177.978 271.251 177.978 251.474C177.978 233.645 170.651 224.688 157.791 224.688C146.068 224.688 138.092 232.339 138.092 243.738C138.092 254.403 145.172 261.729 155.759 261.729C161.215 261.729 165.612 259.449 168.781 255.377H168.943C168.619 268.399 163.734 273.94 156.895 273.94C152.173 273.94 149.322 271.251 148.595 266.204H138.826C139.56 276.057 146.153 282 156.408 282M111.547 232.911C118.548 232.911 122.374 240.16 122.374 253.344C122.374 266.529 118.548 273.94 111.547 273.94C104.545 273.94 100.635 266.613 100.635 253.344C100.635 240.075 104.46 232.911 111.547 232.911ZM111.547 224.688C98.0304 224.688 90.6264 234.944 90.6264 253.344C90.6264 271.745 98.0374 282 111.547 282C125.056 282 132.389 271.745 132.389 253.344C132.389 234.944 124.978 224.688 111.547 224.688ZM72.9246 247.973H1.69409V255.624H72.9246V247.973Z" fill="black"/>
<path d="M196.025 194.324H185.276V205.885H196.025V194.324ZM174.371 158.991V151.015H141.642L138.551 183.497L148.072 184.146C149.131 179.911 152.385 177.392 157.192 177.392C163.134 177.392 167.045 181.217 167.045 188.141C167.045 195.065 163.297 199.053 156.867 199.053C151.983 199.053 147.995 196.202 147.832 191.077H138.142C138.142 201.008 145.553 207.113 156.867 207.113C169 207.113 177.053 199.54 177.053 187.739C177.053 176.827 169.804 169.585 158.977 169.585C154.742 169.585 150.677 171.054 148.065 173.898H147.903L149.371 158.998H174.364L174.371 158.991ZM110.34 158.017C117.341 158.017 121.167 165.266 121.167 178.45C121.167 191.635 117.341 199.046 110.34 199.046C103.338 199.046 99.4278 191.72 99.4278 178.45C99.4278 165.181 103.253 158.017 110.34 158.017ZM110.34 149.794C96.8234 149.794 89.4194 160.05 89.4194 178.45C89.4194 196.851 96.8305 207.106 110.34 207.106C123.849 207.106 131.182 196.851 131.182 178.45C131.182 160.05 123.771 149.794 110.34 149.794Z" fill="black"/>
<path d="M196.025 119.43H185.276V130.991H196.025V119.43ZM157.008 74.8936C144.875 74.8936 137.549 81.5705 137.549 92.8847H147.24C147.24 86.2077 150.74 82.9539 156.683 82.9539C162.626 82.9539 166.127 86.2077 166.127 91.0143C166.127 96.1456 161.815 99.484 154.813 99.484H152.858V107.382H154.813C162.789 107.382 166.861 110.311 166.861 116.014C166.861 120.898 162.951 124.152 157.093 124.152C150.253 124.152 146.753 120.574 146.753 113.734H136.984C136.984 125.536 144.233 132.213 157.093 132.213C168.816 132.213 176.63 125.945 176.63 116.416C176.63 109.337 173.291 105.18 166.212 102.823V102.66C172.727 100.303 175.733 96.4702 175.733 90.125C175.733 80.9282 168.569 74.9006 157.008 74.9006M110.453 83.1163C117.454 83.1163 121.28 90.365 121.28 103.55C121.28 116.734 117.454 124.145 110.453 124.145C103.451 124.145 99.5409 116.819 99.5409 103.55C99.5409 90.2803 103.366 83.1163 110.453 83.1163ZM110.453 74.8936C96.9364 74.8936 89.5325 85.149 89.5325 103.55C89.5325 121.95 96.9435 132.205 110.453 132.205C123.962 132.205 131.295 121.95 131.295 103.55C131.295 85.149 123.884 74.8936 110.453 74.8936Z" fill="black"/>
<path d="M196.025 44.5297H185.276V56.0909H196.025V44.5297ZM144.014 35.1706L149.794 26.8703C153.867 20.8426 157.855 14.8997 161.596 8.79442H161.758C161.511 15.2244 161.349 21.6543 161.349 28.0913V35.1706H144.007H144.014ZM179.1 42.8993V35.1636H170.715V1.22105H157.855L134.979 34.5989V42.8993H161.109V56.0909H170.715V42.8993H179.1ZM111.942 0C100.381 0 93.0543 6.35231 92.7296 17.8288H102.42C102.667 11.6388 105.597 8.13801 111.942 8.13801C117.151 8.13801 120.327 11.2295 120.327 15.8737C120.327 22.1413 116.092 25.1551 107.954 29.877C94.7623 37.528 91.9955 43.7956 91.9955 54.3828C91.9955 54.8698 91.9955 55.4415 92.0802 56.0909H131.648V48.1152H103.154C103.317 43.718 105.35 40.7889 115.852 34.5989C124.322 29.7147 130.342 25.2398 130.342 15.4643C130.342 5.68884 123.094 0 111.942 0ZM65.7393 8.22271C72.741 8.22271 76.5665 15.4714 76.5665 28.656C76.5665 41.8405 72.741 49.2516 65.7393 49.2516C58.7377 49.2516 54.8275 41.9252 54.8275 28.656C54.8275 15.3867 58.653 8.22271 65.7393 8.22271ZM65.7393 0C52.223 0 44.8191 10.2554 44.8191 28.656C44.8191 47.0565 52.2301 57.3119 65.7393 57.3119C79.2486 57.3119 86.582 47.0565 86.582 28.656C86.582 10.2554 79.1709 0 65.7393 0ZM19.9462 0C8.38505 0 1.05872 6.35231 0.734044 17.8288H10.4248C10.6719 11.6388 13.601 8.13801 19.9462 8.13801C25.1551 8.13801 28.3313 11.2295 28.3313 15.8737C28.3313 22.1413 24.0964 25.1551 15.9584 29.877C2.76678 37.528 0 43.7956 0 54.3828C0 54.8698 0 55.4415 0.0846974 56.0909H39.6525V48.1152H11.1518C11.3142 43.718 13.3469 40.7889 23.8494 34.5989C32.3191 29.7147 38.3397 25.2398 38.3397 15.4643C38.3397 5.68884 31.0981 0 19.9462 0Z" fill="black"/>
<path d="M221.082 168.788H235.353V164.885H225.69V160.897H233.843V157.304H225.69V153.966H235.198V150.168H221.082V168.795V168.788ZM210.89 169.127C216.077 169.127 218.654 166.522 218.654 162.224V150.161H214.045V162.301C214.045 164.122 213.028 165.428 210.89 165.428C208.624 165.428 207.685 164.207 207.685 162.379V150.161H203.076V162.224C203.076 166.572 205.681 169.127 210.89 169.127ZM191.409 168.788H196.018V154.072H201.488V150.168H185.989V154.072H191.409V168.788Z" fill="black"/>
<path d="M228.824 247.458H233.568V232.741H239.207V228.838H223.242V232.741H228.824V247.458ZM212.647 240.788L214.122 236.278C214.447 235.311 214.899 233.645 214.899 233.645H214.948C214.948 233.645 215.379 235.311 215.703 236.278L217.15 240.788H212.64H212.647ZM205.674 247.458H210.445L211.546 244.098H218.251L219.381 247.458H224.371L217.447 228.831H212.563L205.667 247.458H205.674ZM196.816 247.895C201.241 247.895 204.679 245.735 204.679 241.825C204.679 237.915 201.46 236.772 197.896 235.96C195.023 235.332 193.548 235.021 193.548 233.722C193.548 232.678 194.649 231.979 196.315 231.979C198.086 231.979 199.216 232.784 199.399 234.217H204.036C203.853 230.306 200.627 228.485 196.47 228.485C192.313 228.485 188.847 230.229 188.847 234.217C188.847 238.204 192.362 239.115 195.687 239.87C198.319 240.498 199.872 240.809 199.872 242.291C199.872 243.696 198.34 244.246 196.788 244.246C194.508 244.246 193.244 243.463 193.033 241.592H188.261C188.367 245.707 191.72 247.895 196.816 247.895Z" fill="black"/>
</svg>
