<svg width="387" height="235" viewBox="0 0 387 235" fill="none" xmlns="http://www.w3.org/2000/svg">
<path fill-rule="evenodd" clip-rule="evenodd" d="M330.313 219.607C331.098 221.146 332.004 222.619 333.038 224.011C337.88 230.526 345.317 234.825 354.156 234.825C362.995 234.825 370.449 230.55 375.312 224.024C379.994 217.741 382.061 209.786 382.061 201.695C382.061 193.651 379.977 185.731 375.305 179.473C370.461 172.985 363.02 168.675 354.156 168.675C345.322 168.675 337.893 172.969 333.053 179.456C331.973 180.904 331.031 182.441 330.222 184.048C332.466 185.615 334.167 187.851 335.07 190.42C335.101 190.527 335.131 190.625 335.16 190.719C335.237 190.966 335.305 191.187 335.345 191.465L327.755 193.005C327.725 192.792 327.677 192.595 327.632 192.407C327.595 192.255 327.56 192.107 327.535 191.96C327.509 191.867 327.482 191.776 327.453 191.686C326.946 193.797 326.612 195.968 326.441 198.166L326.985 198.395C329.289 199.341 331.108 200.434 332.483 201.695C333.924 203.018 334.877 204.527 335.388 206.249C335.693 207.275 335.84 208.377 335.84 209.56C335.84 209.688 335.838 209.816 335.834 209.943C335.711 213.915 333.673 217.447 330.313 219.607ZM326.759 208.122C326.913 209.188 327.107 210.243 327.343 211.285C327.361 211.099 327.37 210.909 327.37 210.715C327.37 209.707 327.158 208.856 326.759 208.122ZM339.306 201.695C339.306 213.685 345.466 221.825 354.156 221.825C362.901 221.825 369.061 213.685 369.061 201.695C369.061 189.87 362.901 181.675 354.156 181.675C345.466 181.675 339.306 189.815 339.306 201.695ZM348.307 204.653C348.247 203.723 348.216 202.736 348.216 201.695C348.216 200.692 348.245 199.74 348.302 198.84C348.745 191.805 350.889 188 354.156 188C357.46 188 359.648 191.821 360.113 198.779C360.175 199.697 360.206 200.67 360.206 201.695C360.206 202.756 360.173 203.761 360.109 204.707C359.635 211.702 357.45 215.5 354.156 215.5C350.902 215.5 348.762 211.682 348.307 204.653Z" fill="black"/>
<path fill-rule="evenodd" clip-rule="evenodd" d="M298.82 221C303.55 229.767 312.405 234.825 322.31 234.825C333.235 234.825 342.773 228.784 346.801 219.529C343.827 217.449 341.57 214.045 340.344 209.686C340.332 209.644 340.32 209.602 340.308 209.56C339.906 208.099 339.618 206.533 339.457 204.874C339.423 204.529 339.395 204.179 339.373 203.826C339.329 203.131 339.306 202.42 339.306 201.695C339.306 198.009 339.899 194.683 340.977 191.849C341.141 191.416 341.317 190.995 341.504 190.585C341.888 189.743 342.318 188.951 342.791 188.214C342.938 187.986 343.088 187.764 343.242 187.546C344.2 186.198 345.311 185.054 346.552 184.145C342.53 175.138 333.47 168.675 322.585 168.675C316.122 168.675 309.764 170.712 304.867 175.152C302.539 177.263 300.722 179.761 299.449 182.5H304.141V221H298.82ZM295.891 212.838V207.375C295.614 208.695 295.538 210.08 295.695 211.491C295.745 211.945 295.811 212.394 295.891 212.838ZM318.212 221.266C319.506 221.636 320.881 221.825 322.31 221.825C329.926 221.825 335.2 216.896 335.786 210.715C335.822 210.335 335.84 209.949 335.84 209.56C335.84 207.813 335.519 206.243 334.845 204.832C333.799 202.643 331.904 200.837 329.042 199.345C328.632 199.131 328.202 198.924 327.751 198.723C327.502 198.612 327.247 198.503 326.985 198.395L325.923 197.947L325.92 197.946L322.42 196.47C321.962 196.278 321.548 196.086 321.176 195.889C321.169 195.885 321.162 195.881 321.155 195.877C320.25 195.397 319.59 194.89 319.134 194.312C319.116 194.29 319.099 194.267 319.081 194.244C318.891 193.993 318.739 193.728 318.621 193.446C318.498 193.153 318.412 192.843 318.36 192.51C318.316 192.233 318.295 191.94 318.295 191.63C318.295 189.1 320.11 187.615 322.585 187.615C323.743 187.615 324.79 188.016 325.644 188.762C325.65 188.767 325.657 188.773 325.664 188.779C326.435 189.46 327.046 190.424 327.436 191.63C327.471 191.738 327.504 191.848 327.535 191.96C327.56 192.107 327.595 192.255 327.632 192.407C327.636 192.423 327.64 192.44 327.644 192.456C327.65 192.483 327.657 192.509 327.663 192.536C327.665 192.545 327.667 192.553 327.669 192.562C327.699 192.691 327.728 192.826 327.75 192.967C327.751 192.976 327.752 192.984 327.754 192.993C327.754 192.997 327.755 193.001 327.755 193.005L335.345 191.465C335.326 191.329 335.3 191.207 335.269 191.089C335.237 190.965 335.2 190.846 335.161 190.719C335.158 190.71 335.155 190.7 335.152 190.691C335.125 190.605 335.098 190.516 335.07 190.42C335.009 190.247 334.945 190.075 334.877 189.904C334.449 188.836 333.881 187.831 333.193 186.916C331.366 184.487 328.689 182.686 325.52 181.99C324.582 181.784 323.601 181.675 322.585 181.675C315.413 181.675 310.733 185.91 310.298 191.63C310.276 191.92 310.265 192.213 310.265 192.51C310.265 193.995 310.534 195.339 311.044 196.55C311.862 198.488 313.299 200.086 315.251 201.383C316.098 201.946 317.043 202.453 318.075 202.905L322.805 204.995C322.958 205.063 323.108 205.131 323.254 205.201C323.5 205.318 323.737 205.438 323.963 205.562C323.984 205.574 324.006 205.586 324.027 205.598C324.994 206.135 325.775 206.743 326.338 207.476C326.369 207.516 326.398 207.555 326.427 207.596C326.646 207.899 326.829 208.223 326.974 208.572C327.102 208.881 327.2 209.209 327.267 209.56C327.335 209.921 327.37 210.305 327.37 210.715C327.37 213.52 325.445 215.61 322.31 215.61C321.029 215.61 319.792 215.124 318.767 214.135C318.766 214.134 318.765 214.133 318.764 214.132C317.93 213.328 317.238 212.192 316.776 210.715C316.709 210.502 316.647 210.282 316.59 210.055C316.563 209.863 316.522 209.67 316.48 209.478C316.477 209.46 316.473 209.443 316.469 209.426C316.452 209.347 316.435 209.267 316.42 209.188C316.411 209.144 316.403 209.1 316.395 209.057C316.389 209.021 316.383 208.986 316.378 208.951C316.375 208.934 316.373 208.917 316.37 208.9L316.369 208.9L308.615 210.055C308.634 210.224 308.659 210.392 308.691 210.561C308.728 210.762 308.775 210.963 308.83 211.164C308.865 211.289 308.903 211.415 308.945 211.54C308.983 211.674 309.022 211.806 309.062 211.937C309.183 212.331 309.316 212.715 309.46 213.087C311.116 217.35 314.288 220.143 318.212 221.266ZM348.282 204.236C348.374 205.912 348.558 207.411 348.827 208.728C348.78 207.226 348.604 205.723 348.282 204.236Z" fill="black"/>
<path fill-rule="evenodd" clip-rule="evenodd" d="M282.892 220.827V221C282.892 228.18 288.712 234 295.892 234H304.142C311.321 234 317.142 228.18 317.142 221V220.911C313.275 219.446 310.269 216.251 308.946 211.54C308.927 211.484 308.909 211.428 308.892 211.372C308.756 210.933 308.664 210.494 308.616 210.055L316.371 208.9C316.398 209.092 316.439 209.285 316.481 209.478C316.522 209.67 316.563 209.863 316.591 210.055C316.741 210.655 316.926 211.205 317.142 211.707V202.469C312.812 200.315 310.266 197.085 310.266 192.51C310.266 188.007 312.823 184.297 317.142 182.628V182.5C317.142 175.32 311.321 169.5 304.142 169.5H295.892C288.712 169.5 282.892 175.32 282.892 182.5V182.755C286.283 184.214 288.867 187.026 290.061 190.42C290.091 190.527 290.122 190.625 290.151 190.719C290.227 190.966 290.296 191.187 290.336 191.465L282.892 192.975V198.79C288.404 201.294 290.831 204.758 290.831 209.56C290.831 214.57 287.795 218.936 282.892 220.827ZM304.142 182.5H295.892V221H304.142V182.5Z" fill="black"/>
<path fill-rule="evenodd" clip-rule="evenodd" d="M273.202 221.266C274.496 221.636 275.871 221.825 277.301 221.825C284.917 221.825 290.19 216.896 290.776 210.715C290.812 210.335 290.831 209.949 290.831 209.56C290.831 207.813 290.509 206.243 289.835 204.832C288.789 202.643 286.894 200.837 284.032 199.345C283.622 199.131 283.192 198.924 282.742 198.723C282.493 198.612 282.237 198.503 281.976 198.395L280.913 197.947L280.91 197.946L277.411 196.47C276.952 196.278 276.538 196.086 276.166 195.889C276.159 195.885 276.152 195.881 276.145 195.877C275.24 195.397 274.581 194.89 274.124 194.312C274.107 194.29 274.089 194.267 274.072 194.244C273.882 193.993 273.729 193.728 273.611 193.446C273.488 193.153 273.403 192.843 273.35 192.51C273.306 192.233 273.286 191.94 273.286 191.63C273.286 189.1 275.101 187.615 277.576 187.615C278.733 187.615 279.78 188.016 280.634 188.762C280.641 188.767 280.647 188.773 280.654 188.779C281.425 189.46 282.036 190.424 282.426 191.63C282.461 191.738 282.494 191.848 282.526 191.96C282.55 192.107 282.586 192.255 282.622 192.407C282.626 192.423 282.63 192.44 282.634 192.456C282.641 192.483 282.647 192.509 282.653 192.536C282.655 192.545 282.657 192.553 282.659 192.562C282.689 192.691 282.718 192.826 282.74 192.967C282.741 192.976 282.743 192.984 282.744 192.993C282.744 192.997 282.745 193.001 282.746 193.005L290.336 191.465C290.316 191.329 290.29 191.207 290.259 191.089C290.227 190.965 290.19 190.846 290.151 190.719C290.148 190.71 290.145 190.7 290.142 190.691C290.115 190.605 290.088 190.516 290.061 190.42C290 190.247 289.935 190.075 289.867 189.904C289.439 188.836 288.871 187.831 288.183 186.916C286.356 184.487 283.679 182.686 280.511 181.99C279.572 181.784 278.591 181.675 277.576 181.675C270.404 181.675 265.723 185.91 265.289 191.63C265.267 191.92 265.256 192.213 265.256 192.51C265.256 193.995 265.524 195.339 266.035 196.55C266.852 198.488 268.29 200.086 270.241 201.383C271.089 201.946 272.033 202.453 273.066 202.905L277.796 204.995C277.948 205.063 278.098 205.131 278.244 205.201C278.49 205.318 278.727 205.438 278.953 205.562C278.975 205.574 278.996 205.586 279.017 205.598C279.984 206.135 280.765 206.743 281.329 207.476C281.359 207.516 281.389 207.555 281.418 207.596C281.637 207.899 281.82 208.223 281.964 208.572C282.092 208.881 282.19 209.209 282.257 209.56C282.325 209.921 282.361 210.305 282.361 210.715C282.361 213.52 280.436 215.61 277.301 215.61C276.019 215.61 274.782 215.124 273.757 214.135C273.756 214.134 273.755 214.133 273.754 214.132C272.921 213.328 272.228 212.192 271.766 210.715C271.699 210.502 271.637 210.282 271.581 210.055C271.553 209.863 271.512 209.67 271.471 209.478C271.467 209.46 271.463 209.443 271.459 209.426C271.442 209.347 271.426 209.267 271.41 209.188C271.402 209.144 271.393 209.1 271.386 209.057C271.379 209.021 271.374 208.986 271.368 208.951C271.365 208.934 271.363 208.917 271.361 208.9L263.606 210.055C263.606 210.055 263.606 210.055 263.606 210.055C263.624 210.223 263.649 210.392 263.681 210.56C263.718 210.762 263.765 210.963 263.821 211.164C263.855 211.289 263.894 211.415 263.936 211.54C263.973 211.674 264.012 211.806 264.052 211.937C264.173 212.331 264.306 212.715 264.451 213.087C266.107 217.35 269.279 220.143 273.202 221.266ZM295.891 221H301.091C296.729 229.419 287.635 234.825 277.301 234.825C265.42 234.825 255.051 227.548 251.496 215.323C251.111 214.099 250.833 212.819 250.685 211.491C250.259 207.657 251.548 204.016 253.951 201.349C252.826 198.586 252.256 195.607 252.256 192.51C252.256 185.906 254.896 179.651 259.857 175.152C264.754 170.712 271.112 168.675 277.576 168.675C287.785 168.675 296.39 174.362 300.737 182.5H295.891V221Z" fill="black"/>
<path fill-rule="evenodd" clip-rule="evenodd" d="M322.906 161.372V165C322.906 172.18 328.727 178 335.906 178H357.631C364.811 178 366.517 172.18 366.517 165L365.517 157.5C365.517 150.32 364.811 145.73 357.631 145.73H357.266V126.5C357.266 119.32 351.446 113.5 344.266 113.5H335.906C328.727 113.5 322.906 119.32 322.906 126.5V133.684L331.675 165H323.865L322.906 161.372ZM344.266 126.5H335.906V165H357.631V158.73H344.266V126.5Z" fill="black"/>
<path fill-rule="evenodd" clip-rule="evenodd" d="M287.765 165C287.765 167.793 288.666 170.547 290.386 172.829C292.843 176.085 296.685 178 300.765 178H308.41C311.271 178 313.957 177.066 316.137 175.454C318.318 177.066 321.004 178 323.865 178H331.675C335.742 178 339.575 176.097 342.033 172.856C343.766 170.57 344.675 167.805 344.675 165H335.906V131.898L333.413 122.995C331.841 117.381 326.725 113.5 320.895 113.5H311.765C305.961 113.5 300.859 117.348 299.265 122.929L298.245 126.5H302.172L291.337 165H287.765ZM320.895 126.5H311.765L300.765 165H308.41L310.665 156.255H321.555L323.865 165H331.675L320.895 126.5ZM312.095 150.81H320.18L316.165 134.255L312.095 150.81Z" fill="black"/>
<path fill-rule="evenodd" clip-rule="evenodd" d="M267.833 158.798L270.795 168.719C272.44 174.226 277.505 178 283.252 178H291.337C297.16 178 302.273 174.127 303.851 168.522L304.842 165H300.765L311.765 126.5H315.172C315.172 123.698 314.265 120.935 312.535 118.651C310.077 115.406 306.242 113.5 302.172 113.5H294.252C291.684 113.5 289.258 114.252 287.212 115.571C285.166 114.252 282.739 113.5 280.172 113.5H271.757C267.651 113.5 263.786 115.44 261.332 118.733C258.879 122.026 258.126 126.284 259.3 130.219L259.583 131.166V126.5H267.833V158.798ZM283.252 165H291.337L302.172 126.5H294.252L287.267 154.165L280.172 126.5H271.757L283.252 165Z" fill="black"/>
<path fill-rule="evenodd" clip-rule="evenodd" d="M246.583 165C246.583 172.18 252.403 178 259.583 178H267.833C275.013 178 280.833 172.18 280.833 165V156.898L271.757 126.5H280.172L280.833 129.078V126.5C280.833 119.32 275.013 113.5 267.833 113.5H259.583C252.403 113.5 246.583 119.32 246.583 126.5H255.275V132.77H246.86V165H246.583ZM259.583 165H267.833V126.5H259.583V165Z" fill="black"/>
<path fill-rule="evenodd" clip-rule="evenodd" d="M225.61 161.602V165C225.61 172.18 231.43 178 238.61 178H246.86C254.04 178 259.86 172.18 259.86 165H259.583V126.5H267.833V136.143C268.121 135.068 268.275 133.937 268.275 132.77V126.5C268.275 119.32 262.455 113.5 255.275 113.5H230.085C223.15 113.5 217.484 118.93 217.105 125.769C218.175 125.895 219.198 126.144 220.162 126.5C223.284 127.653 225.789 129.927 227.258 132.77C227.533 133.301 227.771 133.853 227.971 134.42C228.001 134.527 228.032 134.625 228.061 134.719C228.138 134.966 228.206 135.187 228.246 135.465L220.656 137.005C220.625 136.792 220.578 136.595 220.533 136.407C220.496 136.255 220.46 136.107 220.436 135.96C220.053 134.593 219.399 133.512 218.554 132.77C218.113 132.382 217.619 132.087 217.085 131.892V132.77C217.085 138.377 220.635 143.155 225.61 144.979V145.908C227.754 147.98 228.741 150.498 228.741 153.56C228.741 156.62 227.609 159.44 225.61 161.602ZM238.61 165H246.86V132.77H255.275V126.5H230.085V132.77H238.61V165Z" fill="black"/>
<path fill-rule="evenodd" clip-rule="evenodd" d="M191.72 165C196.451 173.767 205.305 178.825 215.211 178.825C225.545 178.825 234.639 173.419 239.001 165H238.61V132.77H230.085V126.5H238.647C234.3 118.362 225.696 112.675 215.486 112.675C209.022 112.675 202.664 114.712 197.768 119.152C195.44 121.263 193.623 123.761 192.349 126.5H198.091V132.44H190.507C190.28 133.773 190.166 135.134 190.166 136.51C190.166 138.104 190.317 139.667 190.617 141.185H194.516V146.96H190.622C189.032 149.399 188.25 152.381 188.595 155.491C188.732 156.724 188.982 157.916 189.326 159.06H199.246V165H191.72ZM218.421 125.99C217.482 125.784 216.501 125.675 215.486 125.675C208.314 125.675 203.633 129.91 203.199 135.63C203.177 135.92 203.166 136.213 203.166 136.51C203.166 137.995 203.434 139.339 203.945 140.55C204.762 142.488 206.2 144.086 208.151 145.383C208.999 145.946 209.943 146.453 210.976 146.905L215.706 148.995C215.859 149.063 216.008 149.131 216.155 149.201C216.401 149.318 216.637 149.438 216.863 149.562C216.885 149.574 216.906 149.586 216.927 149.598C217.894 150.135 218.675 150.743 219.239 151.476C219.269 151.516 219.299 151.555 219.328 151.596C219.547 151.899 219.73 152.223 219.874 152.572C220.002 152.881 220.101 153.209 220.167 153.56C220.236 153.921 220.271 154.305 220.271 154.715C220.271 157.52 218.346 159.61 215.211 159.61C213.929 159.61 212.692 159.124 211.667 158.135C211.666 158.134 211.665 158.133 211.664 158.132C210.831 157.328 210.138 156.192 209.676 154.715C209.609 154.502 209.547 154.282 209.491 154.055C209.463 153.863 209.422 153.67 209.381 153.477C209.377 153.46 209.373 153.443 209.37 153.426C209.353 153.347 209.336 153.267 209.32 153.188C209.312 153.144 209.304 153.1 209.296 153.057C209.29 153.022 209.284 152.987 209.278 152.952C209.276 152.935 209.273 152.917 209.271 152.9L201.516 154.055C201.516 154.055 201.516 154.055 201.516 154.055C201.534 154.223 201.56 154.392 201.591 154.56C201.628 154.762 201.675 154.963 201.731 155.164C201.766 155.289 201.804 155.415 201.846 155.54C201.883 155.674 201.922 155.806 201.962 155.937C202.083 156.331 202.216 156.715 202.361 157.087C204.017 161.35 207.189 164.143 211.112 165.266C212.406 165.636 213.781 165.825 215.211 165.825C222.827 165.825 228.1 160.896 228.686 154.715C228.722 154.335 228.741 153.949 228.741 153.56C228.741 151.813 228.419 150.243 227.745 148.832C226.699 146.643 224.804 144.837 221.942 143.345C221.532 143.131 221.102 142.924 220.652 142.723C220.403 142.612 220.147 142.503 219.886 142.395L218.823 141.947L218.82 141.946L215.321 140.47C214.863 140.278 214.449 140.086 214.076 139.889C214.069 139.885 214.062 139.881 214.055 139.877C213.151 139.397 212.491 138.89 212.035 138.312C212.017 138.29 211.999 138.267 211.982 138.244C211.792 137.993 211.639 137.728 211.521 137.446C211.399 137.153 211.313 136.843 211.26 136.51C211.217 136.233 211.196 135.94 211.196 135.63C211.196 133.1 213.011 131.615 215.486 131.615C216.643 131.615 217.691 132.016 218.544 132.762C218.551 132.767 218.557 132.773 218.564 132.779C219.335 133.46 219.946 134.424 220.336 135.63C220.371 135.738 220.404 135.848 220.436 135.96C220.46 136.107 220.496 136.255 220.532 136.407C220.536 136.423 220.54 136.44 220.544 136.457C220.551 136.483 220.557 136.51 220.563 136.536C220.565 136.545 220.567 136.553 220.569 136.562C220.6 136.691 220.628 136.826 220.65 136.967C220.651 136.976 220.653 136.984 220.654 136.993C220.655 136.997 220.655 137.001 220.656 137.005L228.246 135.465C228.226 135.329 228.2 135.207 228.169 135.089C228.137 134.965 228.1 134.846 228.061 134.719C228.058 134.71 228.055 134.7 228.052 134.691C228.025 134.605 227.998 134.516 227.971 134.42C227.91 134.247 227.845 134.075 227.777 133.905C227.349 132.836 226.781 131.831 226.093 130.916C224.266 128.487 221.589 126.686 218.421 125.99Z" fill="black"/>
<path fill-rule="evenodd" clip-rule="evenodd" d="M161.881 146.96V165C161.881 172.18 167.701 178 174.881 178H199.246C206.245 178 211.953 172.468 212.235 165.538C211.565 165.404 210.913 165.225 210.284 165C207.367 163.959 204.923 161.949 203.292 159.06C202.974 158.497 202.687 157.9 202.434 157.271C202.212 156.719 202.015 156.142 201.846 155.54C201.681 155.045 201.571 154.55 201.516 154.055L209.271 152.9C209.298 153.092 209.34 153.285 209.381 153.477C209.422 153.67 209.463 153.862 209.491 154.055C210.029 156.206 211.021 157.72 212.238 158.619C212.108 154.693 210.236 151.208 207.37 148.911C207.466 148.275 207.516 147.623 207.516 146.96V144.936C206.764 144.377 206.1 143.766 205.532 143.101C205.023 142.506 204.591 141.868 204.241 141.185C203.539 139.813 203.166 138.26 203.166 136.51C203.166 135.057 203.432 133.686 203.938 132.44C203.958 132.391 203.978 132.342 203.999 132.293C205.123 129.647 207.339 127.579 210.387 126.5C210.616 126.419 210.85 126.343 211.089 126.273C210.968 119.198 205.195 113.5 198.091 113.5H174.881C167.701 113.5 161.881 119.32 161.881 126.5H170.311V132.385H161.881V141.35H167.561V146.96H161.881ZM199.246 165V159.06H183.131V146.96H194.516V141.185H183.131V132.44H198.091V126.5H174.881V165H199.246Z" fill="black"/>
<path fill-rule="evenodd" clip-rule="evenodd" d="M147.596 165H155.846V146.96H167.561V141.35H155.846V132.385H170.311V126.5H147.596V165ZM174.881 157.705C173.129 158.901 171.07 159.679 168.846 159.897V165C168.846 172.18 163.025 178 155.846 178H147.596C140.416 178 134.596 172.18 134.596 165V126.5C134.596 119.32 140.416 113.5 147.596 113.5H170.311C177.49 113.5 183.311 119.32 183.311 126.5H174.881V157.705ZM183.311 132.44H183.131V134.552C183.246 133.865 183.308 133.159 183.311 132.44Z" fill="black"/>
<path fill-rule="evenodd" clip-rule="evenodd" d="M91.8955 164.117V165C91.8955 172.18 97.7158 178 104.896 178H116.721C123.376 178 130.345 176.624 136.006 172.524C142.184 168.05 145.451 161.272 145.451 153.835C145.451 150.145 144.582 146.422 142.674 143.077C143.397 140.997 143.801 138.698 143.801 136.18C143.801 129.878 141.369 123.438 135.637 118.933C130.361 114.787 123.832 113.5 117.766 113.5H104.896C97.7158 113.5 91.8955 119.32 91.8955 126.5H98.2122V152.46C98.2122 157.97 95.736 161.995 91.8955 164.117ZM132.423 154.661C132.441 154.39 132.451 154.115 132.451 153.835C132.451 153.724 132.449 153.614 132.445 153.505C132.394 151.837 131.953 150.348 131.111 149.084C129.517 146.691 126.486 145.108 121.946 144.65C126.042 144.029 128.987 141.977 130.194 139.171C130.501 138.457 130.696 137.695 130.768 136.895C130.79 136.66 130.801 136.421 130.801 136.18C130.801 135.132 130.665 134.148 130.393 133.239C129.154 129.115 125.078 126.531 117.896 126.5C117.852 126.5 117.809 126.5 117.766 126.5H104.896V165H116.721C117.119 165 117.511 164.993 117.896 164.98C126.877 164.672 132.005 160.789 132.423 154.661ZM116.611 132.22H113.146V141.9H116.281C116.392 141.9 116.502 141.899 116.611 141.896C116.746 141.893 116.879 141.888 117.011 141.88C117.016 141.88 117.021 141.88 117.027 141.88C117.328 141.863 117.617 141.835 117.896 141.798C119.344 141.604 120.485 141.141 121.312 140.468C121.848 140.031 122.253 139.506 122.524 138.909C122.798 138.306 122.936 137.629 122.936 136.895C122.936 136.648 122.921 136.409 122.892 136.18C122.877 136.06 122.858 135.942 122.835 135.827C122.815 135.732 122.793 135.638 122.769 135.545C122.426 134.267 121.554 133.326 120.147 132.778C119.869 132.669 119.57 132.576 119.25 132.499C118.846 132.401 118.408 132.329 117.937 132.282C117.923 132.281 117.909 132.279 117.896 132.278C117.852 132.274 117.809 132.27 117.766 132.266C117.4 132.236 117.015 132.22 116.611 132.22ZM116.391 159.28C116.501 159.28 116.611 159.279 116.721 159.276C116.739 159.276 116.757 159.276 116.775 159.275C116.785 159.275 116.796 159.275 116.806 159.274C117.181 159.264 117.545 159.24 117.896 159.202C119.513 159.026 120.86 158.556 121.864 157.8C121.866 157.798 121.867 157.797 121.869 157.795C122.673 157.188 123.256 156.397 123.578 155.427C123.74 154.941 123.836 154.41 123.863 153.835C123.865 153.784 123.867 153.733 123.868 153.682C123.87 153.623 123.871 153.564 123.871 153.505C123.871 152.106 123.503 150.922 122.757 150.004C122.42 149.59 122.006 149.23 121.514 148.928C120.588 148.361 119.383 148.002 117.896 147.883C117.589 147.858 117.271 147.844 116.941 147.84L113.146 147.785V159.28H116.391Z" fill="black"/>
<path fill-rule="evenodd" clip-rule="evenodd" d="M61.2849 165C62.5356 167.456 64.1942 169.711 66.2557 171.677C71.3774 176.563 78.0947 178.825 84.8468 178.825C91.4665 178.825 98.1975 176.634 103.363 171.691C105.425 169.717 107.077 167.459 108.324 165H104.895V126.5H111.212C111.212 119.32 105.391 113.5 98.2118 113.5H90.4568C88.534 113.5 86.7088 113.917 85.0668 114.667C83.4247 113.917 81.5995 113.5 79.6768 113.5H71.4268C64.2471 113.5 58.4268 119.32 58.4268 126.5V152.735C58.4268 154.778 58.6388 156.787 59.0609 158.73H68.5049V165H61.2849ZM98.2118 126.5H90.4568V152.295C90.4568 152.35 90.4564 152.405 90.4558 152.46C90.4019 157.127 88.0561 159.115 85.0118 159.115C84.9565 159.115 84.9015 159.114 84.8468 159.113C82.0466 159.041 79.8223 157.119 79.6836 152.735C79.6791 152.591 79.6768 152.444 79.6768 152.295V126.5H71.4268V152.735C71.4268 160.71 77.0918 165.825 84.8468 165.825C84.9019 165.825 84.9569 165.825 85.0118 165.824C92.5203 165.753 98.2118 160.814 98.2118 152.46V126.5Z" fill="black"/>
<path fill-rule="evenodd" clip-rule="evenodd" d="M33.7803 164.502V165C33.7803 172.18 39.6006 178 46.7803 178H68.5053C75.5228 178 81.2417 172.44 81.4964 165.484C80.8954 165.357 80.3134 165.195 79.7529 165C76.5797 163.895 74.0909 161.72 72.6896 158.73C71.8744 156.991 71.4271 154.976 71.4271 152.735V146.06C70.488 145.844 69.5099 145.73 68.5053 145.73H68.1403V126.5C68.1403 119.32 62.32 113.5 55.1403 113.5H46.7803C39.6006 113.5 33.7803 119.32 33.7803 126.5V126.942C37.359 128.726 40.1579 132.324 41.5471 137.28C41.5802 137.429 41.6182 137.582 41.6567 137.738C41.7463 138.1 41.8386 138.474 41.8771 138.82L33.8471 140.14C33.8394 140.078 33.8317 140.016 33.8239 139.952C33.8101 139.84 33.7958 139.723 33.7803 139.603V151.455L33.8471 150.92L41.5471 152.24C41.5173 152.508 41.4714 152.76 41.4268 153.005C41.3891 153.212 41.3523 153.413 41.3271 153.615C40.0861 158.842 37.3536 162.63 33.7803 164.502ZM55.1403 126.5H46.7803V165H68.5053V158.73H55.1403V126.5ZM79.6772 152.079V152.295C79.6772 154.879 80.3669 156.661 81.4692 157.754C81.316 155.691 80.6814 153.762 79.6772 152.079Z" fill="black"/>
<path fill-rule="evenodd" clip-rule="evenodd" d="M13.4414 145.915C13.4414 157.96 19.4914 165.825 28.3464 165.825C28.3648 165.825 28.3831 165.825 28.4014 165.825C30.5489 165.815 32.5549 165.25 34.333 164.193C37.5851 162.259 40.0748 158.678 41.2727 153.837C41.2859 153.783 41.2989 153.73 41.3118 153.676C41.3167 153.656 41.3216 153.636 41.3264 153.615C41.3435 153.478 41.3659 153.342 41.3902 153.204C41.4018 153.138 41.4139 153.072 41.4261 153.005C41.4707 152.76 41.5166 152.508 41.5464 152.24L33.8464 150.92L33.6814 152.24C33.6554 152.378 33.6285 152.515 33.6007 152.649C33.5668 152.814 33.5315 152.976 33.495 153.135C33.4629 153.275 33.4299 153.413 33.3958 153.548C32.4302 157.395 30.6845 159.5 28.4014 159.5C28.383 159.5 28.3647 159.5 28.3464 159.5C25.5003 159.461 23.4069 156.43 22.6553 150.862C22.6238 150.628 22.5946 150.39 22.5679 150.148C22.5445 149.936 22.5229 149.721 22.5032 149.502C22.4773 149.214 22.4546 148.921 22.4353 148.621C22.3857 147.856 22.3577 147.053 22.3524 146.214C22.3517 146.115 22.3514 146.015 22.3514 145.915C22.3514 145.545 22.3552 145.183 22.3626 144.827C22.3773 144.126 22.4063 143.453 22.4492 142.808C22.478 142.377 22.513 141.958 22.554 141.552C22.582 141.275 22.6129 141.004 22.6465 140.739C22.6527 140.69 22.659 140.641 22.6654 140.593C23.4105 134.944 25.443 132.037 28.3464 132C28.3647 132 28.383 132 28.4014 132C30.7933 132 32.5952 134.114 33.482 137.923C33.4821 137.924 33.4823 137.924 33.4824 137.925C33.5335 138.144 33.5815 138.369 33.6264 138.6C33.6533 138.748 33.6768 138.889 33.6979 139.024C33.7218 139.177 33.7424 139.323 33.7611 139.462C33.7728 139.55 33.7838 139.635 33.7942 139.718C33.8042 139.798 33.8138 139.876 33.8232 139.952C33.831 140.016 33.8387 140.078 33.8464 140.14L41.8764 138.82C41.8595 138.668 41.8323 138.511 41.7995 138.352C41.7575 138.148 41.7063 137.942 41.656 137.738C41.6175 137.582 41.5795 137.429 41.5464 137.28C41.5357 137.242 41.525 137.204 41.5141 137.166C41.5048 137.134 41.4955 137.101 41.4861 137.069C40.0842 132.246 37.3344 128.735 33.8314 126.968C32.1697 126.13 30.3386 125.683 28.4014 125.675C28.3831 125.675 28.3648 125.675 28.3464 125.675C19.4914 125.675 13.4414 133.87 13.4414 145.915ZM46.7796 165H50.76C46.4197 172.888 38.7695 178.825 28.3464 178.825C19.6499 178.825 12.1546 174.79 7.19552 168.216C2.45348 161.931 0.441406 153.974 0.441406 145.915C0.441406 137.86 2.45029 129.886 7.10806 123.566C11.9698 116.969 19.4501 112.675 28.3464 112.675C38.7323 112.675 46.5808 118.552 51.0589 126.5H46.7796V165Z" fill="black"/>
<path fill-rule="evenodd" clip-rule="evenodd" d="M194.107 108.502V109C194.107 116.18 199.928 122 207.107 122H218.547C227.014 122 234.885 118.754 240.407 112.117C245.679 105.781 247.736 97.6658 247.772 89.5891L247.772 89.53V89.475C247.772 81.5635 245.773 73.5908 240.636 67.3405C235.252 60.7895 227.523 57.5 219.152 57.5H207.107C199.928 57.5 194.107 63.3203 194.107 70.5V70.942C197.686 72.7263 200.485 76.3239 201.874 81.28C201.907 81.4287 201.945 81.5824 201.984 81.738C202.073 82.1005 202.166 82.4737 202.204 82.82L194.174 84.14C194.167 84.0785 194.159 84.0159 194.151 83.9521C194.137 83.8398 194.123 83.7236 194.107 83.6029V95.4547L194.174 94.92L201.874 96.24C201.844 96.5082 201.799 96.7603 201.754 97.0049C201.716 97.2118 201.679 97.4134 201.654 97.615C200.413 102.842 197.681 106.63 194.107 108.502ZM207.107 109H218.547C219.079 109 219.599 108.979 220.107 108.939C229.24 108.209 234.72 100.991 234.772 89.53V89.475C234.772 89.4567 234.772 89.4383 234.772 89.42C234.754 78.1271 229.207 70.988 220.107 70.5241C219.793 70.5081 219.475 70.5 219.152 70.5H207.107V109ZM215.357 103.115H217.722C218.006 103.115 218.281 103.104 218.547 103.082C219.103 103.035 219.622 102.941 220.107 102.8C224.312 101.58 225.917 96.8591 225.917 89.53V89.42C225.917 81.9646 224.067 77.5799 220.107 76.597C219.802 76.5211 219.483 76.4655 219.152 76.4303C218.868 76.4001 218.575 76.385 218.272 76.385H215.357V103.115Z" fill="black"/>
<path fill-rule="evenodd" clip-rule="evenodd" d="M162.886 103.373C163.971 106.544 165.498 109.533 167.523 112.216C172.482 118.79 179.977 122.825 188.674 122.825C199.097 122.825 206.747 116.888 211.087 109H207.107V70.5H211.386C206.908 62.5525 199.06 56.675 188.674 56.675C179.777 56.675 172.297 60.9687 167.435 67.5659C166.74 68.5089 166.104 69.4887 165.525 70.5H172.137L162.886 103.373ZM202.204 82.82C202.187 82.6682 202.16 82.5112 202.127 82.3521C202.085 82.1485 202.034 81.9416 201.983 81.7381C201.945 81.5824 201.907 81.4288 201.874 81.28C201.863 81.2419 201.852 81.2039 201.841 81.1659C201.832 81.1335 201.823 81.1012 201.813 81.0689C200.411 76.2455 197.662 72.7354 194.159 70.968C192.497 70.1297 190.666 69.6835 188.729 69.6752C188.71 69.6751 188.692 69.675 188.674 69.675C179.819 69.675 173.769 77.87 173.769 89.9151C173.769 101.96 179.819 109.825 188.674 109.825C188.692 109.825 188.71 109.825 188.729 109.825C190.876 109.815 192.882 109.25 194.66 108.193C197.912 106.259 200.402 102.678 201.6 97.8365C201.613 97.7833 201.626 97.7299 201.639 97.6763C201.644 97.6559 201.649 97.6355 201.654 97.615C201.671 97.4785 201.693 97.3419 201.717 97.2036C201.729 97.1379 201.741 97.0717 201.753 97.005C201.798 96.7603 201.844 96.5083 201.874 96.24L194.174 94.92L194.009 96.24C193.983 96.3783 193.956 96.5148 193.928 96.6493C193.894 96.8141 193.859 96.9761 193.822 97.1354C193.79 97.2752 193.757 97.4129 193.723 97.5485C192.757 101.395 191.012 103.5 188.729 103.5C188.71 103.5 188.692 103.5 188.674 103.5C185.828 103.461 183.734 100.43 182.983 94.8618C182.951 94.6283 182.922 94.3904 182.895 94.1481C182.872 93.9362 182.85 93.7208 182.831 93.5022C182.805 93.2144 182.782 92.9208 182.763 92.6214C182.713 91.8562 182.685 91.0533 182.68 90.2135C182.679 90.1145 182.679 90.015 182.679 89.9151C182.679 89.5452 182.682 89.1826 182.69 88.8273C182.705 88.126 182.734 87.4528 182.776 86.8081C182.805 86.3765 182.84 85.9577 182.881 85.5516C182.909 85.2748 182.94 85.0039 182.974 84.739C182.98 84.6901 182.986 84.6414 182.993 84.593C183.738 78.9441 185.77 76.0366 188.674 76.0004C188.692 76.0002 188.71 76 188.729 76C191.121 76 192.922 78.1138 193.809 81.9231C193.809 81.9238 193.81 81.9244 193.81 81.9251C193.861 82.1445 193.909 82.3695 193.954 82.6C193.98 82.7477 194.004 82.8888 194.025 83.0242C194.049 83.1772 194.07 83.3228 194.088 83.4623C194.1 83.5499 194.111 83.6351 194.121 83.7181C194.132 83.798 194.141 83.876 194.15 83.9522C194.158 84.016 194.166 84.0785 194.174 84.14L202.204 82.82Z" fill="black"/>
<path fill-rule="evenodd" clip-rule="evenodd" d="M137.799 102.798L140.761 112.719C142.405 118.226 147.471 122 153.218 122H161.303C167.126 122 172.239 118.127 173.817 112.522L176.648 102.461C174.806 99.169 173.769 94.9 173.769 89.915C173.769 82.292 176.193 76.211 180.216 72.7736C181.662 71.539 183.313 70.6455 185.133 70.1439C185.059 67.4643 184.158 64.8386 182.501 62.6509C180.043 59.4063 176.208 57.5 172.138 57.5H164.218C161.65 57.5 159.224 58.2523 157.178 59.571C155.131 58.2522 152.705 57.5 150.138 57.5H141.723C137.616 57.5 133.751 59.4402 131.298 62.7331C128.845 66.026 128.091 70.2845 129.266 74.2192L129.549 75.1661V70.5H137.799V102.798ZM153.218 109H161.303L172.138 70.5H164.218L157.233 98.165L150.138 70.5H141.723L153.218 109Z" fill="black"/>
<path fill-rule="evenodd" clip-rule="evenodd" d="M116.549 109C116.549 116.18 122.369 122 129.549 122H137.799C144.979 122 150.799 116.18 150.799 109V100.898L141.723 70.5H150.138L150.799 73.0778V70.5C150.799 63.3203 144.979 57.5 137.799 57.5H129.549C122.369 57.5 116.549 63.3203 116.549 70.5H122.559V109H116.549ZM137.799 70.5H129.549V109H137.799V70.5Z" fill="black"/>
<path fill-rule="evenodd" clip-rule="evenodd" d="M114.309 109H122.559V70.5H114.309V85.515H103.639V70.5H95.3887V109H103.639V91.51H114.309V109ZM108.974 120.858C107.346 121.592 105.54 122 103.639 122H95.3887C88.209 122 82.3887 116.18 82.3887 109V70.5C82.3887 63.3203 88.209 57.5 95.3887 57.5H103.639C105.54 57.5 107.346 57.9082 108.974 58.6416C110.601 57.9082 112.407 57.5 114.309 57.5H122.559C129.738 57.5 135.559 63.3203 135.559 70.5H129.549V109H135.559C135.559 116.18 129.738 122 122.559 122H114.309C112.407 122 110.601 121.592 108.974 120.858Z" fill="black"/>
<path fill-rule="evenodd" clip-rule="evenodd" d="M95.1584 46.84H85.7018C85.4072 45.7533 85.25 44.61 85.25 43.43V40.3263L87.2934 38.04C87.9349 37.3336 88.5359 36.6574 89.0958 36.005C90.3458 34.5486 91.3915 33.2107 92.2288 31.9197C92.3085 31.7969 92.3863 31.6744 92.4622 31.5523C92.6692 31.2195 92.862 30.8894 93.0408 30.5607C94.1534 28.5149 94.7184 26.5253 94.7184 24.29C94.7184 22.5789 94.3644 20.9798 93.6923 19.5682L102.232 6.98118C104.652 3.41532 108.681 1.28003 112.99 1.28003H119.92C127.1 1.28003 132.92 7.10033 132.92 14.28V27.6611C135.745 30.0457 137.54 33.6133 137.54 37.6V43.43C137.54 47.4192 135.743 50.9888 132.915 53.3734C132.717 60.3805 126.975 66 119.92 66H112.55C106.558 66 101.512 61.9455 100.007 56.43H98.25C94.8564 56.43 91.7664 55.1297 89.4513 53H95.1584V46.84ZM124.54 37.6H119.92V14.28H112.99L98.25 36.005V43.43H112.55V53H119.92V43.43H124.54V37.6ZM112.55 24.4V37.6H103.97L112.55 24.4Z" fill="black"/>
<path fill-rule="evenodd" clip-rule="evenodd" d="M71.4535 66.0001C64.2738 66.0001 58.4535 60.1798 58.4535 53V52.9799C60.6154 52.0486 62.4459 50.3692 63.8629 48.05C64.6427 46.7738 65.2973 45.3037 65.813 43.6579C66.4053 41.7677 66.8144 39.6458 67.0195 37.3193C67.1201 36.1777 67.1717 34.9869 67.1717 33.75C67.1717 33.299 67.1649 32.8541 67.1514 32.4156C67.084 30.2199 66.849 28.1836 66.4613 26.3251C66.4537 26.2883 66.446 26.2516 66.4382 26.215C66.3877 25.9778 66.3348 25.7435 66.2794 25.5121C66.1608 25.0173 66.0309 24.536 65.8901 24.0686C65.7793 23.7012 65.6618 23.3424 65.5376 22.9924C65.5336 22.9812 65.5296 22.97 65.5257 22.9589C65.4803 22.8317 65.4341 22.7058 65.387 22.581C64.1683 19.3517 62.3648 16.9089 60.0994 15.4059C64.2146 6.17472 73.2968 0.675049 83.2235 0.675049C89.656 0.675049 95.9225 2.80448 100.664 7.36484C104.87 11.4102 107.164 16.6962 107.629 22.1811L98.2501 36.0051V43.43H107.707C108.001 44.5168 108.159 45.6601 108.159 46.84V53C108.159 60.1798 102.338 66.0001 95.1585 66.0001H71.4535ZM104.18 37.2779L103.97 37.6001H104.303C104.238 37.5355 104.172 37.4716 104.105 37.4085C104.13 37.365 104.155 37.3215 104.18 37.2779ZM87.2935 38.0401C88.6724 36.5217 89.8637 35.143 90.8636 33.84C93.4132 30.5176 94.7185 27.6876 94.7185 24.2901C94.7185 18.295 90.3735 13.675 83.2235 13.675C83.0022 13.675 82.7821 13.6802 82.5635 13.6904C81.8626 13.7233 81.1768 13.8085 80.5109 13.9439C76.1141 14.838 72.586 17.9213 71.3081 22.5797C71.1905 23.0083 71.0919 23.4503 71.0135 23.905L70.8485 24.895L78.0535 26.3251V26.215C78.0559 26.1757 78.0584 26.1364 78.061 26.0971C78.0826 25.7712 78.1129 25.4502 78.1524 25.1359C78.154 25.1225 78.1557 25.1091 78.1575 25.0957C78.1926 24.8216 78.2347 24.5527 78.284 24.2901C78.4176 23.5788 78.6041 22.914 78.8487 22.3187C79.5577 20.5927 80.7545 19.4501 82.5635 19.4501C82.792 19.4501 83.0122 19.4692 83.2235 19.5061C85.2507 19.86 86.4685 21.8495 86.4685 24.2901C86.4685 24.9323 86.4231 25.5665 86.3136 26.215C86.3074 26.2517 86.301 26.2883 86.2944 26.3251C86.2719 26.4503 86.2469 26.576 86.2194 26.7026C85.8603 28.3559 85.065 30.1353 83.5337 32.3968C83.2405 32.8297 82.9203 33.2804 82.571 33.7512C82.5609 33.7649 82.5508 33.7785 82.5406 33.7922C82.5288 33.8081 82.5169 33.8241 82.505 33.84C82.3132 34.0972 82.1129 34.3604 81.9035 34.6301L71.4535 48.05V53H95.1585V46.84H79.4285L87.2935 38.0401ZM57.889 23.8614C57.73 25.8296 58.0239 27.749 58.6915 29.505C58.5486 27.211 58.2794 25.337 57.889 23.8614Z" fill="black"/>
<path fill-rule="evenodd" clip-rule="evenodd" d="M58.7825 35.9312C58.5543 44.1447 56.9849 47.885 54.2465 47.885C51.5571 47.885 49.9913 44.1396 49.7651 35.9145C49.7461 35.2246 49.7365 34.5033 49.7365 33.75C49.7365 32.9968 49.7461 32.2754 49.7651 31.5856C49.9913 23.3605 51.5571 19.615 54.2465 19.615C56.9849 19.615 58.5543 23.3554 58.7825 31.5689C58.8018 32.2638 58.8115 32.9907 58.8115 33.75C58.8115 34.5094 58.8018 35.2363 58.7825 35.9312ZM32.5568 53C32.9939 53.8435 33.4694 54.6657 33.985 55.4636C38.2834 62.115 45.3573 66.8251 54.2465 66.8251C63.1298 66.8251 70.2237 62.1473 74.5464 55.4788C75.0667 54.6761 75.5462 53.8488 75.9867 53H71.4534V48.05L80.0778 36.9745C80.1411 35.9023 80.1715 34.8262 80.1715 33.75C80.1715 29.8588 79.7763 25.9688 78.8694 22.2685C78.4012 23.3856 78.1407 24.7527 78.0534 26.215V26.3251L70.8484 24.8951L71.0134 23.905C71.0369 23.7686 71.0622 23.6334 71.0893 23.4993C71.8118 19.9263 73.799 17.1838 76.5018 15.5158C75.9255 14.2978 75.2734 13.1199 74.54 11.9909C70.1987 5.30684 63.0959 0.675049 54.2465 0.675049C45.3573 0.675049 38.2834 5.38513 33.985 12.0365C33.2839 13.1214 32.6571 14.2513 32.0999 15.4184C35.1535 17.2939 36.8717 20.5201 36.8717 24.2901C36.8717 27.6569 35.5898 30.4664 33.0856 33.75C32.0717 35.0795 30.8574 36.4867 29.4467 38.0401L28.626 38.9583C28.8907 41.6491 29.3742 44.2978 30.1148 46.84H37.3117V53H32.5568ZM41.3765 33.75C41.3765 46.0701 46.4915 53.8251 54.2465 53.8251C62.0565 53.8251 67.1715 46.0701 67.1715 33.75C67.1715 21.375 62.0565 13.675 54.2465 13.675C46.4915 13.675 41.3765 21.4301 41.3765 33.75Z" fill="black"/>
<path fill-rule="evenodd" clip-rule="evenodd" d="M13.6068 66.0001C6.42715 66.0001 0.60685 60.1798 0.60685 53V48.05C0.60685 45.1566 1.57212 42.3459 3.3498 40.063L6.4258 36.1128C1.90192 33.4607 -0.730518 28.2133 0.178728 22.7579L0.343728 21.7679L0.355869 21.6963C2.59211 8.72604 13.3663 0.675049 25.3769 0.675049C31.8093 0.675049 38.0759 2.80448 42.8173 7.36484C45.2791 9.73258 47.0858 12.5253 48.2543 15.5342C45.7078 17.3126 43.7603 20.3114 42.5984 24.2901C41.8038 27.0108 41.3767 30.1898 41.3767 33.75C41.3767 33.9986 41.3788 34.2454 41.3829 34.4902C41.4354 37.5926 41.819 40.3924 42.4924 42.8363C42.8964 44.3029 43.4048 45.6413 44.0086 46.84C45.5037 49.8082 47.5836 51.9198 50.1128 53C50.1787 53.0282 50.245 53.0557 50.3116 53.0825C50.2673 60.2242 44.4641 66.0001 37.3119 66.0001H13.6068ZM37.3119 53V46.84H21.5819L29.4468 38.0401C30.8258 36.5217 32.017 35.143 33.0169 33.84C35.5665 30.5176 36.8719 27.6876 36.8719 24.2901C36.8719 18.295 32.5269 13.675 25.3769 13.675C25.1555 13.675 24.9354 13.6802 24.7169 13.6904C24.0159 13.7233 23.3301 13.8085 22.6642 13.9439C18.2674 14.838 14.7394 17.9212 13.4614 22.5797C13.3438 23.0083 13.2453 23.4502 13.1669 23.905L13.0019 24.8951L20.2069 26.3251V26.215C20.2092 26.1757 20.2117 26.1364 20.2143 26.0971C20.2359 25.7712 20.2662 25.4502 20.3057 25.1359C20.3074 25.1225 20.3091 25.1091 20.3108 25.0957C20.3459 24.8216 20.388 24.5527 20.4373 24.2901C20.5709 23.5788 20.7574 22.914 21.002 22.3187C21.711 20.5927 22.9079 19.4501 24.7169 19.4501C24.9453 19.4501 25.1655 19.4692 25.3769 19.5061C27.404 19.86 28.6219 21.8495 28.6219 24.2901C28.6219 24.9323 28.5765 25.5665 28.4669 26.215C28.4607 26.2517 28.4543 26.2883 28.4477 26.3251C28.4252 26.4503 28.4003 26.576 28.3728 26.7026C28.0136 28.3559 27.2183 30.1353 25.687 32.3968C25.3938 32.8297 25.0736 33.2804 24.7244 33.7512C24.7142 33.7649 24.7041 33.7785 24.694 33.7922C24.6821 33.8081 24.6702 33.8241 24.6583 33.84C24.4666 34.0972 24.2662 34.3604 24.0569 34.6301L13.6068 48.05V53H37.3119Z" fill="black"/>
<path fill-rule="evenodd" clip-rule="evenodd" d="M365.517 171.95C358.337 171.95 360.017 164.18 360.017 157L352.517 149.71C352.517 148.227 352.765 146.802 353.222 145.475C352.765 144.147 352.517 142.723 352.517 141.24L352.517 132C352.517 124.82 358.337 119 365.517 119H373.492C380.671 119 386.492 124.82 386.492 132V141.24C386.492 142.723 386.243 144.147 385.786 145.475C386.243 146.802 386.492 148.227 386.492 149.71V158.95C386.492 166.13 380.671 171.95 373.492 171.95H365.517ZM373.492 158.95V149.71H365.517V158.95H373.492ZM365.517 141.24V132H373.492V141.24H365.517Z" fill="black"/>
</svg>
