<svg width="383" height="235" viewBox="0 0 383 235" fill="none" xmlns="http://www.w3.org/2000/svg">
<path fill-rule="evenodd" clip-rule="evenodd" d="M330.796 219.607C331.581 221.146 332.487 222.619 333.521 224.011C338.363 230.526 345.8 234.825 354.639 234.825C363.478 234.825 370.932 230.55 375.795 224.024C380.477 217.741 382.544 209.786 382.544 201.695C382.544 193.651 380.46 185.731 375.788 179.473C370.944 172.985 363.504 168.675 354.639 168.675C345.805 168.675 338.376 172.969 333.536 179.456C332.456 180.904 331.514 182.441 330.705 184.048C332.95 185.615 334.65 187.851 335.553 190.42C335.584 190.527 335.614 190.625 335.643 190.719C335.72 190.966 335.788 191.187 335.828 191.465L328.238 193.005C328.208 192.792 328.16 192.595 328.115 192.407C328.078 192.255 328.043 192.107 328.018 191.96C327.992 191.867 327.965 191.776 327.937 191.686C327.429 193.797 327.095 195.968 326.925 198.166L327.468 198.395C329.772 199.341 331.591 200.434 332.966 201.695C334.408 203.018 335.361 204.527 335.871 206.249C336.176 207.275 336.323 208.377 336.323 209.56C336.323 209.688 336.321 209.816 336.317 209.943C336.194 213.915 334.156 217.447 330.796 219.607ZM327.242 208.122C327.396 209.188 327.59 210.243 327.826 211.285C327.844 211.099 327.853 210.909 327.853 210.715C327.853 209.707 327.641 208.856 327.242 208.122ZM339.789 201.695C339.789 213.685 345.949 221.825 354.639 221.825C363.384 221.825 369.544 213.685 369.544 201.695C369.544 189.87 363.384 181.675 354.639 181.675C345.949 181.675 339.789 189.815 339.789 201.695ZM348.79 204.653C348.73 203.723 348.699 202.736 348.699 201.695C348.699 200.692 348.728 199.74 348.785 198.84C349.229 191.805 351.372 188 354.639 188C357.943 188 360.131 191.821 360.596 198.779C360.658 199.697 360.689 200.67 360.689 201.695C360.689 202.756 360.656 203.761 360.592 204.707C360.118 211.702 357.934 215.5 354.639 215.5C351.385 215.5 349.246 211.682 348.79 204.653Z" fill="black"/>
<path fill-rule="evenodd" clip-rule="evenodd" d="M299.303 221C304.033 229.767 312.888 234.825 322.793 234.825C333.718 234.825 343.256 228.784 347.284 219.529C344.31 217.449 342.053 214.045 340.826 209.686C340.815 209.644 340.803 209.602 340.791 209.56C340.389 208.099 340.101 206.533 339.94 204.874C339.906 204.529 339.878 204.179 339.856 203.826C339.812 203.131 339.789 202.42 339.789 201.695C339.789 198.009 340.382 194.683 341.46 191.849C341.624 191.416 341.8 190.995 341.987 190.585C342.371 189.743 342.801 188.951 343.274 188.214C343.42 187.986 343.571 187.764 343.725 187.546C344.683 186.198 345.794 185.054 347.035 184.145C343.013 175.138 333.953 168.675 323.068 168.675C316.605 168.675 310.247 170.712 305.35 175.152C303.022 177.263 301.205 179.761 299.932 182.5H304.624V221H299.303ZM296.374 212.838V207.375C296.096 208.695 296.021 210.08 296.178 211.491C296.228 211.945 296.294 212.394 296.374 212.838ZM318.695 221.266C319.988 221.636 321.364 221.825 322.793 221.825C330.409 221.825 335.683 216.896 336.269 210.715C336.305 210.335 336.323 209.949 336.323 209.56C336.323 207.813 336.002 206.243 335.328 204.832C334.282 202.643 332.387 200.837 329.525 199.345C329.114 199.131 328.685 198.924 328.234 198.723C327.985 198.612 327.73 198.503 327.468 198.395L326.406 197.947L326.403 197.946L322.903 196.47C322.445 196.278 322.031 196.086 321.659 195.889C321.652 195.885 321.645 195.881 321.638 195.877C320.733 195.397 320.073 194.89 319.617 194.312C319.599 194.29 319.582 194.267 319.564 194.244C319.374 193.993 319.222 193.728 319.104 193.446C318.981 193.153 318.895 192.843 318.843 192.51C318.799 192.233 318.778 191.94 318.778 191.63C318.778 189.1 320.593 187.615 323.068 187.615C324.226 187.615 325.273 188.016 326.127 188.762C326.133 188.767 326.14 188.773 326.146 188.779C326.917 189.46 327.529 190.424 327.919 191.63C327.954 191.738 327.987 191.848 328.018 191.96C328.043 192.107 328.078 192.255 328.115 192.407C328.119 192.423 328.123 192.44 328.127 192.456C328.133 192.483 328.14 192.509 328.146 192.536C328.148 192.545 328.15 192.553 328.152 192.562C328.182 192.691 328.211 192.826 328.233 192.967C328.234 192.976 328.235 192.984 328.236 192.993C328.237 192.997 328.238 193.001 328.238 193.005L335.828 191.465C335.809 191.329 335.783 191.207 335.752 191.089C335.72 190.965 335.683 190.846 335.643 190.719C335.64 190.71 335.638 190.7 335.635 190.691C335.608 190.605 335.581 190.516 335.553 190.42C335.492 190.247 335.428 190.075 335.359 189.904C334.932 188.836 334.364 187.831 333.676 186.916C331.849 184.487 329.171 182.686 326.003 181.99C325.065 181.784 324.083 181.675 323.068 181.675C315.896 181.675 311.216 185.91 310.781 191.63C310.759 191.92 310.748 192.213 310.748 192.51C310.748 193.995 311.017 195.339 311.527 196.55C312.345 198.488 313.782 200.086 315.734 201.383C316.581 201.946 317.526 202.453 318.558 202.905L323.288 204.995C323.441 205.063 323.591 205.131 323.737 205.201C323.983 205.318 324.219 205.438 324.446 205.562C324.467 205.574 324.489 205.586 324.51 205.598C325.477 206.135 326.258 206.743 326.821 207.476C326.852 207.516 326.881 207.555 326.91 207.596C327.129 207.899 327.312 208.223 327.457 208.572C327.585 208.881 327.683 209.209 327.75 209.56C327.818 209.921 327.853 210.305 327.853 210.715C327.853 213.52 325.928 215.61 322.793 215.61C321.512 215.61 320.275 215.124 319.25 214.135C319.249 214.134 319.248 214.133 319.247 214.132C318.413 213.328 317.721 212.192 317.258 210.715C317.192 210.502 317.13 210.282 317.073 210.055C317.046 209.863 317.004 209.67 316.963 209.478C316.96 209.46 316.956 209.443 316.952 209.426C316.935 209.347 316.918 209.267 316.903 209.188C316.894 209.144 316.886 209.1 316.878 209.057C316.872 209.021 316.866 208.986 316.861 208.951C316.858 208.934 316.856 208.917 316.853 208.9L316.852 208.9L309.098 210.055C309.117 210.224 309.142 210.392 309.174 210.561C309.211 210.762 309.258 210.963 309.313 211.164C309.348 211.289 309.386 211.415 309.428 211.54C309.466 211.674 309.505 211.806 309.545 211.937C309.666 212.331 309.799 212.715 309.943 213.087C311.599 217.35 314.771 220.143 318.695 221.266ZM348.765 204.236C348.856 205.912 349.041 207.411 349.31 208.728C349.263 207.226 349.087 205.723 348.765 204.236Z" fill="black"/>
<path fill-rule="evenodd" clip-rule="evenodd" d="M283.374 220.827V221C283.374 228.18 289.195 234 296.374 234H304.624C311.804 234 317.624 228.18 317.624 221V220.911C313.757 219.446 310.752 216.251 309.428 211.54C309.41 211.484 309.392 211.428 309.374 211.372C309.239 210.933 309.147 210.494 309.098 210.055L316.853 208.9C316.881 209.092 316.922 209.285 316.963 209.478C317.004 209.67 317.046 209.863 317.073 210.055C317.223 210.655 317.409 211.205 317.624 211.707V202.469C313.295 200.315 310.748 197.085 310.748 192.51C310.748 188.007 313.305 184.297 317.624 182.628V182.5C317.624 175.32 311.804 169.5 304.624 169.5H296.374C289.195 169.5 283.374 175.32 283.374 182.5V182.755C286.766 184.214 289.35 187.026 290.543 190.42C290.574 190.527 290.604 190.625 290.634 190.719C290.71 190.966 290.779 191.187 290.818 191.465L283.374 192.975V198.79C288.886 201.294 291.313 204.758 291.313 209.56C291.313 214.57 288.278 218.936 283.374 220.827ZM304.624 182.5H296.374V221H304.624V182.5Z" fill="black"/>
<path fill-rule="evenodd" clip-rule="evenodd" d="M273.685 221.266C274.979 221.636 276.354 221.825 277.783 221.825C285.399 221.825 290.673 216.896 291.259 210.715C291.295 210.335 291.313 209.949 291.313 209.56C291.313 207.813 290.992 206.243 290.318 204.832C289.272 202.643 287.377 200.837 284.515 199.345C284.105 199.131 283.675 198.924 283.225 198.723C282.975 198.612 282.72 198.503 282.458 198.395L281.396 197.947L281.393 197.946L277.893 196.47C277.435 196.278 277.021 196.086 276.649 195.889C276.642 195.885 276.635 195.881 276.628 195.877C275.723 195.397 275.064 194.89 274.607 194.312C274.589 194.29 274.572 194.267 274.555 194.244C274.365 193.993 274.212 193.728 274.094 193.446C273.971 193.153 273.886 192.843 273.833 192.51C273.789 192.233 273.768 191.94 273.768 191.63C273.768 189.1 275.583 187.615 278.058 187.615C279.216 187.615 280.263 188.016 281.117 188.762C281.124 188.767 281.13 188.773 281.137 188.779C281.908 189.46 282.519 190.424 282.909 191.63C282.944 191.738 282.977 191.848 283.008 191.96C283.033 192.107 283.068 192.255 283.105 192.407C283.109 192.423 283.113 192.44 283.117 192.456C283.123 192.483 283.13 192.509 283.136 192.536C283.138 192.545 283.14 192.553 283.142 192.562C283.172 192.691 283.201 192.826 283.223 192.967C283.224 192.976 283.225 192.984 283.227 192.993C283.227 192.997 283.228 193.001 283.228 193.005L290.818 191.465C290.799 191.329 290.773 191.207 290.742 191.089C290.71 190.965 290.673 190.846 290.634 190.719C290.631 190.71 290.628 190.7 290.625 190.691C290.598 190.605 290.571 190.516 290.543 190.42C290.482 190.247 290.418 190.075 290.35 189.904C289.922 188.836 289.354 187.831 288.666 186.916C286.839 184.487 284.162 182.686 280.994 181.99C280.055 181.784 279.074 181.675 278.058 181.675C270.887 181.675 266.206 185.91 265.772 191.63C265.75 191.92 265.738 192.213 265.738 192.51C265.738 193.995 266.007 195.339 266.517 196.55C267.335 198.488 268.773 200.086 270.724 201.383C271.571 201.946 272.516 202.453 273.548 202.905L278.278 204.995C278.431 205.063 278.581 205.131 278.727 205.201C278.973 205.318 279.21 205.438 279.436 205.562C279.457 205.574 279.479 205.586 279.5 205.598C280.467 206.135 281.248 206.743 281.811 207.476C281.842 207.516 281.872 207.555 281.901 207.596C282.12 207.899 282.302 208.223 282.447 208.572C282.575 208.881 282.673 209.209 282.74 209.56C282.808 209.921 282.843 210.305 282.843 210.715C282.843 213.52 280.918 215.61 277.783 215.61C276.502 215.61 275.265 215.124 274.24 214.135C274.239 214.134 274.238 214.133 274.237 214.132C273.404 213.328 272.711 212.192 272.249 210.715C272.182 210.502 272.12 210.282 272.063 210.055C272.036 209.863 271.995 209.67 271.953 209.478C271.95 209.46 271.946 209.443 271.942 209.426C271.925 209.347 271.909 209.267 271.893 209.188C271.885 209.144 271.876 209.1 271.869 209.057C271.862 209.021 271.856 208.986 271.851 208.951C271.848 208.934 271.846 208.917 271.843 208.9L264.088 210.055C264.088 210.055 264.088 210.055 264.088 210.055C264.107 210.223 264.132 210.392 264.164 210.56C264.201 210.762 264.248 210.963 264.304 211.164C264.338 211.289 264.377 211.415 264.418 211.54C264.456 211.674 264.495 211.806 264.535 211.937C264.656 212.331 264.789 212.715 264.933 213.087C266.59 217.35 269.761 220.143 273.685 221.266ZM296.374 221H301.574C297.212 229.419 288.118 234.825 277.783 234.825C265.903 234.825 255.534 227.548 251.979 215.323C251.594 214.099 251.316 212.819 251.168 211.491C250.742 207.657 252.031 204.016 254.434 201.349C253.309 198.586 252.738 195.607 252.738 192.51C252.738 185.906 255.379 179.651 260.34 175.152C265.237 170.712 271.595 168.675 278.058 168.675C288.268 168.675 296.873 174.362 301.22 182.5H296.374V221Z" fill="black"/>
<path fill-rule="evenodd" clip-rule="evenodd" d="M323.389 161.372V165C323.389 172.18 329.209 178 336.389 178H358.114C365.294 178 371.114 172.18 371.114 165V158.73C371.114 151.55 365.294 145.73 358.114 145.73H357.749V126.5C357.749 119.32 351.929 113.5 344.749 113.5H336.389C329.209 113.5 323.389 119.32 323.389 126.5V133.684L332.157 165H324.347L323.389 161.372ZM344.749 126.5H336.389V165H358.114V158.73H344.749V126.5Z" fill="black"/>
<path fill-rule="evenodd" clip-rule="evenodd" d="M288.247 165C288.247 167.793 289.148 170.547 290.869 172.829C293.325 176.085 297.168 178 301.247 178H308.892C311.754 178 314.44 177.066 316.62 175.454C318.801 177.066 321.487 178 324.347 178H332.157C336.225 178 340.057 176.097 342.515 172.856C344.249 170.57 345.157 167.805 345.158 165H336.389V131.898L333.896 122.995C332.324 117.381 327.207 113.5 321.377 113.5H312.247C306.443 113.5 301.342 117.348 299.748 122.929L298.727 126.5H302.655L291.82 165H288.247ZM321.377 126.5H312.247L301.247 165H308.892L311.147 156.255H322.037L324.347 165H332.157L321.377 126.5ZM312.577 150.81H320.662L316.647 134.255L312.577 150.81Z" fill="black"/>
<path fill-rule="evenodd" clip-rule="evenodd" d="M268.316 158.798L271.278 168.719C272.922 174.226 277.987 178 283.735 178H291.82C297.643 178 302.756 174.127 304.333 168.522L305.325 165H301.247L312.247 126.5H315.655C315.655 123.698 314.748 120.935 313.018 118.651C310.56 115.406 306.725 113.5 302.655 113.5H294.735C292.167 113.5 289.741 114.252 287.695 115.571C285.648 114.252 283.222 113.5 280.655 113.5H272.24C268.133 113.5 264.268 115.44 261.815 118.733C259.362 122.026 258.608 126.284 259.783 130.219L260.066 131.166V126.5H268.316V158.798ZM283.735 165H291.82L302.655 126.5H294.735L287.75 154.165L280.655 126.5H272.24L283.735 165Z" fill="black"/>
<path fill-rule="evenodd" clip-rule="evenodd" d="M247.066 165C247.066 172.18 252.886 178 260.066 178H268.316C275.495 178 281.316 172.18 281.316 165V156.898L272.24 126.5H280.655L281.316 129.078V126.5C281.316 119.32 275.495 113.5 268.316 113.5H260.066C252.886 113.5 247.066 119.32 247.066 126.5H255.758V132.77H247.343V165H247.066ZM260.066 165H268.316V126.5H260.066V165Z" fill="black"/>
<path fill-rule="evenodd" clip-rule="evenodd" d="M226.093 161.602V165C226.093 172.18 231.913 178 239.093 178H247.343C254.522 178 260.343 172.18 260.343 165H260.066V126.5H268.316V136.143C268.604 135.068 268.758 133.937 268.758 132.77V126.5C268.758 119.32 262.937 113.5 255.758 113.5H230.568C223.633 113.5 217.967 118.93 217.588 125.769C218.657 125.895 219.68 126.144 220.645 126.5C223.767 127.653 226.272 129.927 227.741 132.77C228.016 133.301 228.254 133.853 228.454 134.42C228.484 134.527 228.514 134.625 228.544 134.719C228.62 134.966 228.689 135.187 228.729 135.465L221.139 137.005C221.108 136.792 221.061 136.595 221.015 136.407C220.979 136.255 220.943 136.107 220.919 135.96C220.536 134.593 219.882 133.512 219.037 132.77C218.595 132.382 218.102 132.087 217.568 131.892V132.77C217.568 138.377 221.118 143.155 226.093 144.979V145.908C228.237 147.98 229.224 150.498 229.224 153.56C229.224 156.62 228.091 159.44 226.093 161.602ZM239.093 165H247.343V132.77H255.758V126.5H230.568V132.77H239.093V165Z" fill="black"/>
<path fill-rule="evenodd" clip-rule="evenodd" d="M192.203 165C196.934 173.767 205.788 178.825 215.694 178.825C226.028 178.825 235.122 173.419 239.484 165H239.093V132.77H230.568V126.5H239.13C234.783 118.362 226.179 112.675 215.969 112.675C209.505 112.675 203.147 114.712 198.251 119.152C195.923 121.263 194.105 123.761 192.832 126.5H198.574V132.44H190.99C190.763 133.773 190.649 135.134 190.649 136.51C190.649 138.104 190.8 139.667 191.1 141.185H194.999V146.96H191.105C189.515 149.399 188.733 152.381 189.078 155.491C189.215 156.724 189.465 157.916 189.808 159.06H199.729V165H192.203ZM218.904 125.99C217.965 125.784 216.984 125.675 215.969 125.675C208.797 125.675 204.116 129.91 203.682 135.63C203.66 135.92 203.649 136.213 203.649 136.51C203.649 137.995 203.917 139.339 204.428 140.55C205.245 142.488 206.683 144.086 208.634 145.383C209.482 145.946 210.426 146.453 211.459 146.905L216.189 148.995C216.342 149.063 216.491 149.131 216.638 149.201C216.883 149.318 217.12 149.438 217.346 149.562C217.368 149.574 217.389 149.586 217.41 149.598C218.377 150.135 219.158 150.743 219.722 151.476C219.752 151.516 219.782 151.555 219.811 151.596C220.03 151.899 220.213 152.223 220.357 152.572C220.485 152.881 220.583 153.209 220.65 153.56C220.719 153.921 220.754 154.305 220.754 154.715C220.754 157.52 218.829 159.61 215.694 159.61C214.412 159.61 213.175 159.124 212.15 158.135C212.149 158.134 212.148 158.133 212.147 158.132C211.314 157.328 210.621 156.192 210.159 154.715C210.092 154.502 210.03 154.282 209.974 154.055C209.946 153.863 209.905 153.67 209.864 153.477C209.86 153.46 209.856 153.443 209.853 153.426C209.836 153.347 209.819 153.267 209.803 153.188C209.795 153.144 209.786 153.1 209.779 153.057C209.773 153.022 209.767 152.987 209.761 152.952C209.759 152.935 209.756 152.917 209.754 152.9L201.999 154.055C201.999 154.055 201.999 154.055 201.999 154.055C202.017 154.223 202.042 154.392 202.074 154.56C202.111 154.762 202.158 154.963 202.214 155.164C202.248 155.289 202.287 155.415 202.329 155.54C202.366 155.674 202.405 155.806 202.445 155.937C202.566 156.331 202.699 156.715 202.844 157.087C204.5 161.35 207.672 164.143 211.595 165.266C212.889 165.636 214.264 165.825 215.694 165.825C223.31 165.825 228.583 160.896 229.169 154.715C229.205 154.335 229.224 153.949 229.224 153.56C229.224 151.813 228.902 150.243 228.228 148.832C227.182 146.643 225.287 144.837 222.425 143.345C222.015 143.131 221.585 142.924 221.135 142.723C220.886 142.612 220.63 142.503 220.369 142.395L219.306 141.947L219.303 141.946L215.804 140.47C215.345 140.278 214.932 140.086 214.559 139.889C214.552 139.885 214.545 139.881 214.538 139.877C213.633 139.397 212.974 138.89 212.517 138.312C212.5 138.29 212.482 138.267 212.465 138.244C212.275 137.993 212.122 137.728 212.004 137.446C211.882 137.153 211.796 136.843 211.743 136.51C211.699 136.233 211.679 135.94 211.679 135.63C211.679 133.1 213.494 131.615 215.969 131.615C217.126 131.615 218.174 132.016 219.027 132.762C219.034 132.767 219.04 132.773 219.047 132.779C219.818 133.46 220.429 134.424 220.819 135.63C220.854 135.738 220.887 135.848 220.919 135.96C220.943 136.107 220.979 136.255 221.015 136.407C221.019 136.423 221.023 136.44 221.027 136.457C221.034 136.483 221.04 136.51 221.046 136.536C221.048 136.545 221.05 136.553 221.052 136.562C221.082 136.691 221.111 136.826 221.133 136.967C221.134 136.976 221.136 136.984 221.137 136.993C221.137 136.997 221.138 137.001 221.139 137.005L228.729 135.465C228.709 135.329 228.683 135.207 228.652 135.089C228.62 134.965 228.583 134.846 228.544 134.719C228.541 134.71 228.538 134.7 228.535 134.691C228.508 134.605 228.481 134.516 228.454 134.42C228.393 134.247 228.328 134.075 228.26 133.905C227.832 132.836 227.264 131.831 226.576 130.916C224.749 128.487 222.072 126.686 218.904 125.99Z" fill="black"/>
<path fill-rule="evenodd" clip-rule="evenodd" d="M162.364 146.96V165C162.364 172.18 168.184 178 175.364 178H199.729C206.728 178 212.436 172.468 212.718 165.538C212.048 165.404 211.396 165.225 210.766 165C207.85 163.959 205.405 161.949 203.775 159.06C203.457 158.497 203.17 157.9 202.917 157.271C202.694 156.719 202.498 156.142 202.329 155.54C202.164 155.045 202.054 154.55 201.999 154.055L209.754 152.9C209.781 153.092 209.822 153.285 209.864 153.477C209.905 153.67 209.946 153.862 209.974 154.055C210.511 156.206 211.504 157.72 212.721 158.619C212.59 154.693 210.718 151.208 207.853 148.911C207.949 148.275 207.999 147.623 207.999 146.96V144.936C207.246 144.377 206.582 143.766 206.014 143.101C205.506 142.506 205.074 141.868 204.724 141.185C204.021 139.813 203.649 138.26 203.649 136.51C203.649 135.057 203.915 133.686 204.421 132.44C204.441 132.391 204.461 132.342 204.482 132.293C205.605 129.647 207.822 127.579 210.87 126.5C211.099 126.419 211.333 126.343 211.572 126.273C211.451 119.198 205.678 113.5 198.574 113.5H175.364C168.184 113.5 162.364 119.32 162.364 126.5H170.793V132.385H162.364V141.35H168.043V146.96H162.364ZM199.729 165V159.06H183.614V146.96H194.999V141.185H183.614V132.44H198.574V126.5H175.364V165H199.729Z" fill="black"/>
<path fill-rule="evenodd" clip-rule="evenodd" d="M148.078 165H156.328V146.96H168.043V141.35H156.328V132.385H170.793V126.5H148.078V165ZM175.364 157.705C173.612 158.901 171.552 159.679 169.328 159.897V165C169.328 172.18 163.508 178 156.328 178H148.078C140.899 178 135.078 172.18 135.078 165V126.5C135.078 119.32 140.899 113.5 148.078 113.5H170.793C177.973 113.5 183.793 119.32 183.793 126.5H175.364V157.705ZM183.793 132.44H183.614V134.552C183.729 133.865 183.79 133.159 183.793 132.44Z" fill="black"/>
<path fill-rule="evenodd" clip-rule="evenodd" d="M92.3779 164.117V165C92.3779 172.18 98.1982 178 105.378 178H117.203C123.858 178 130.828 176.624 136.488 172.524C142.666 168.05 145.933 161.272 145.933 153.835C145.933 150.145 145.065 146.422 143.157 143.077C143.879 140.997 144.283 138.698 144.283 136.18C144.283 129.878 141.851 123.438 136.119 118.933C130.844 114.787 124.315 113.5 118.248 113.5H105.378C98.1982 113.5 92.3779 119.32 92.3779 126.5H98.6946V152.46C98.6946 157.97 96.2184 161.995 92.3779 164.117ZM132.905 154.661C132.924 154.39 132.933 154.115 132.933 153.835C132.933 153.724 132.931 153.614 132.928 153.505C132.877 151.837 132.436 150.348 131.594 149.084C130 146.691 126.968 145.108 122.428 144.65C126.524 144.029 129.469 141.977 130.676 139.171C130.984 138.457 131.178 137.695 131.251 136.895C131.272 136.66 131.283 136.421 131.283 136.18C131.283 135.132 131.148 134.148 130.875 133.239C129.637 129.115 125.56 126.531 118.378 126.5C118.335 126.5 118.291 126.5 118.248 126.5H105.378V165H117.203C117.602 165 117.993 164.993 118.378 164.98C127.359 164.672 132.487 160.789 132.905 154.661ZM117.093 132.22H113.628V141.9H116.763C116.874 141.9 116.984 141.899 117.093 141.896C117.228 141.893 117.362 141.888 117.493 141.88C117.498 141.88 117.504 141.88 117.509 141.88C117.81 141.863 118.1 141.835 118.378 141.798C119.826 141.604 120.967 141.141 121.794 140.468C122.331 140.031 122.735 139.506 123.006 138.909C123.28 138.306 123.418 137.629 123.418 136.895C123.418 136.648 123.403 136.409 123.374 136.18C123.359 136.06 123.34 135.942 123.317 135.827C123.298 135.732 123.276 135.638 123.251 135.545C122.908 134.267 122.037 133.326 120.629 132.778C120.351 132.669 120.052 132.576 119.732 132.499C119.328 132.401 118.891 132.329 118.42 132.282C118.406 132.281 118.392 132.279 118.378 132.278C118.335 132.274 118.292 132.27 118.248 132.266C117.882 132.236 117.497 132.22 117.093 132.22ZM116.873 159.28C116.984 159.28 117.094 159.279 117.203 159.276C117.221 159.276 117.239 159.276 117.257 159.275C117.268 159.275 117.278 159.275 117.288 159.274C117.664 159.264 118.027 159.24 118.378 159.202C119.995 159.026 121.343 158.556 122.346 157.8C122.348 157.798 122.35 157.797 122.352 157.795C123.156 157.188 123.738 156.397 124.061 155.427C124.222 154.941 124.319 154.41 124.345 153.835C124.348 153.784 124.35 153.733 124.351 153.682C124.352 153.623 124.353 153.564 124.353 153.505C124.353 152.106 123.985 150.922 123.239 150.004C122.902 149.59 122.489 149.23 121.997 148.928C121.07 148.361 119.866 148.002 118.378 147.883C118.072 147.858 117.753 147.844 117.423 147.84L113.628 147.785V159.28H116.873Z" fill="black"/>
<path fill-rule="evenodd" clip-rule="evenodd" d="M61.7679 165C63.0185 167.456 64.6771 169.711 66.7386 171.677C71.8603 176.563 78.5776 178.825 85.3297 178.825C91.9494 178.825 98.6804 176.634 103.846 171.691C105.908 169.717 107.56 167.459 108.807 165H105.378V126.5H111.695C111.695 119.32 105.874 113.5 98.6947 113.5H90.9397C89.017 113.5 87.1917 113.917 85.5497 114.667C83.9076 113.917 82.0824 113.5 80.1597 113.5H71.9097C64.73 113.5 58.9097 119.32 58.9097 126.5V152.735C58.9097 154.778 59.1217 156.787 59.5438 158.73H68.9878V165H61.7679ZM98.6947 126.5H90.9397V152.295C90.9397 152.35 90.9394 152.405 90.9387 152.46C90.8848 157.127 88.539 159.115 85.4947 159.115C85.4395 159.115 85.3845 159.114 85.3297 159.113C82.5295 159.041 80.3052 157.119 80.1665 152.735C80.162 152.591 80.1597 152.444 80.1597 152.295V126.5H71.9097V152.735C71.9097 160.71 77.5747 165.825 85.3297 165.825C85.3848 165.825 85.4398 165.825 85.4947 165.824C93.0032 165.753 98.6947 160.814 98.6947 152.46V126.5Z" fill="black"/>
<path fill-rule="evenodd" clip-rule="evenodd" d="M34.2627 164.502V165C34.2627 172.18 40.083 178 47.2627 178H68.9877C76.0052 178 81.7241 172.44 81.9788 165.484C81.3778 165.357 80.7958 165.195 80.2353 165C77.0621 163.895 74.5734 161.72 73.172 158.73C72.3568 156.991 71.9096 154.976 71.9096 152.735V146.06C70.9704 145.844 69.9923 145.73 68.9877 145.73H68.6227V126.5C68.6227 119.32 62.8024 113.5 55.6227 113.5H47.2627C40.083 113.5 34.2627 119.32 34.2627 126.5V126.942C37.8414 128.726 40.6403 132.324 42.0295 137.28C42.0626 137.429 42.1006 137.582 42.1391 137.738C42.2287 138.1 42.3211 138.474 42.3595 138.82L34.3295 140.14C34.3218 140.078 34.3141 140.016 34.3063 139.952C34.2925 139.84 34.2782 139.723 34.2627 139.603V151.455L34.3295 150.92L42.0295 152.24C41.9997 152.508 41.9538 152.76 41.9092 153.005C41.8715 153.212 41.8347 153.413 41.8095 153.615C40.5685 158.842 37.836 162.63 34.2627 164.502ZM55.6227 126.5H47.2627V165H68.9877V158.73H55.6227V126.5ZM80.1596 152.079V152.295C80.1596 154.879 80.8493 156.661 81.9516 157.754C81.7985 155.691 81.1638 153.762 80.1596 152.079Z" fill="black"/>
<path fill-rule="evenodd" clip-rule="evenodd" d="M13.9248 145.915C13.9248 157.96 19.9748 165.825 28.8298 165.825C28.8482 165.825 28.8665 165.825 28.8848 165.825C31.0323 165.815 33.0383 165.25 34.8164 164.193C38.0685 162.259 40.5582 158.678 41.7561 153.837C41.7693 153.783 41.7823 153.73 41.7952 153.676C41.8001 153.656 41.805 153.636 41.8098 153.615C41.8269 153.478 41.8493 153.342 41.8736 153.204C41.8852 153.138 41.8973 153.072 41.9095 153.005C41.9541 152.76 42 152.508 42.0298 152.24L34.3298 150.92L34.1648 152.24C34.1388 152.378 34.1119 152.515 34.0841 152.649C34.0502 152.814 34.0149 152.976 33.9784 153.135C33.9463 153.275 33.9132 153.413 33.8792 153.548C32.9136 157.395 31.1679 159.5 28.8848 159.5C28.8664 159.5 28.8481 159.5 28.8298 159.5C25.9837 159.461 23.8903 156.43 23.1387 150.862C23.1072 150.628 23.078 150.39 23.0513 150.148C23.0279 149.936 23.0063 149.721 22.9866 149.502C22.9607 149.214 22.938 148.921 22.9187 148.621C22.8691 147.856 22.8411 147.053 22.8358 146.214C22.8351 146.115 22.8348 146.015 22.8348 145.915C22.8348 145.545 22.8385 145.183 22.846 144.827C22.8606 144.126 22.8897 143.453 22.9326 142.808C22.9614 142.377 22.9964 141.958 23.0374 141.552C23.0654 141.275 23.0963 141.004 23.1299 140.739C23.1361 140.69 23.1424 140.641 23.1488 140.593C23.8939 134.944 25.9264 132.037 28.8298 132C28.8481 132 28.8664 132 28.8848 132C31.2767 132 33.0786 134.114 33.9654 137.923C33.9655 137.924 33.9657 137.924 33.9658 137.925C34.0169 138.144 34.0649 138.369 34.1098 138.6C34.1367 138.748 34.1602 138.889 34.1813 139.024C34.2052 139.177 34.2258 139.323 34.2445 139.462C34.2562 139.55 34.2672 139.635 34.2776 139.718C34.2876 139.798 34.2972 139.876 34.3065 139.952C34.3144 140.016 34.3221 140.078 34.3298 140.14L42.3598 138.82C42.3429 138.668 42.3157 138.511 42.2829 138.352C42.2409 138.148 42.1897 137.942 42.1394 137.738C42.1009 137.582 42.0629 137.429 42.0298 137.28C42.0191 137.242 42.0084 137.204 41.9975 137.166C41.9882 137.134 41.9789 137.101 41.9695 137.069C40.5676 132.246 37.8178 128.735 34.3148 126.968C32.6531 126.13 30.822 125.683 28.8848 125.675C28.8665 125.675 28.8482 125.675 28.8298 125.675C19.9748 125.675 13.9248 133.87 13.9248 145.915ZM47.263 165H51.2434C46.9031 172.888 39.2529 178.825 28.8298 178.825C20.1333 178.825 12.638 174.79 7.67892 168.216C2.93687 161.931 0.924805 153.974 0.924805 145.915C0.924805 137.86 2.93369 129.886 7.59146 123.566C12.4532 116.969 19.9335 112.675 28.8298 112.675C39.2156 112.675 47.0642 118.552 51.5423 126.5H47.263V165Z" fill="black"/>
<path fill-rule="evenodd" clip-rule="evenodd" d="M194.59 108.502V109C194.59 116.18 200.41 122 207.59 122H219.03C227.497 122 235.368 118.754 240.89 112.117C246.161 105.781 248.218 97.6658 248.255 89.5891L248.255 89.53V89.475C248.255 81.5635 246.255 73.5908 241.119 67.3405C235.735 60.7895 228.005 57.5 219.635 57.5H207.59C200.41 57.5 194.59 63.3203 194.59 70.5V70.942C198.169 72.7263 200.968 76.3239 202.357 81.28C202.39 81.4287 202.428 81.5824 202.466 81.738C202.556 82.1005 202.648 82.4737 202.687 82.82L194.657 84.14C194.649 84.0785 194.642 84.0159 194.634 83.9521C194.62 83.8398 194.606 83.7236 194.59 83.6029V95.4547L194.657 94.92L202.357 96.24C202.327 96.5082 202.281 96.7603 202.237 97.0049C202.199 97.2118 202.162 97.4134 202.137 97.615C200.896 102.842 198.163 106.63 194.59 108.502ZM207.59 109H219.03C219.561 109 220.081 108.979 220.59 108.939C229.723 108.209 235.203 100.991 235.255 89.53V89.475C235.255 89.4567 235.255 89.4383 235.255 89.42C235.237 78.1271 229.69 70.988 220.59 70.5241C220.276 70.5081 219.958 70.5 219.635 70.5H207.59V109ZM215.84 103.115H218.205C218.489 103.115 218.763 103.104 219.03 103.082C219.586 103.035 220.105 102.941 220.59 102.8C224.795 101.58 226.4 96.8591 226.4 89.53V89.42C226.4 81.9646 224.549 77.5799 220.59 76.597C220.284 76.5211 219.966 76.4655 219.635 76.4303C219.351 76.4001 219.058 76.385 218.755 76.385H215.84V103.115Z" fill="black"/>
<path fill-rule="evenodd" clip-rule="evenodd" d="M163.369 103.373C164.454 106.544 165.981 109.533 168.006 112.216C172.965 118.79 180.46 122.825 189.157 122.825C199.58 122.825 207.23 116.888 211.57 109H207.59V70.5H211.869C207.391 62.5525 199.543 56.675 189.157 56.675C180.261 56.675 172.78 60.9687 167.918 67.5659C167.224 68.5089 166.588 69.4887 166.008 70.5H172.62L163.369 103.373ZM202.687 82.82C202.67 82.6682 202.643 82.5112 202.61 82.3521C202.568 82.1485 202.517 81.9416 202.466 81.7381C202.428 81.5824 202.39 81.4288 202.357 81.28C202.346 81.2419 202.335 81.2039 202.325 81.1659C202.315 81.1335 202.306 81.1012 202.297 81.0689C200.895 76.2455 198.145 72.7354 194.642 70.968C192.98 70.1297 191.149 69.6835 189.212 69.6752C189.193 69.6751 189.175 69.675 189.157 69.675C180.302 69.675 174.252 77.87 174.252 89.9151C174.252 101.96 180.302 109.825 189.157 109.825C189.175 109.825 189.193 109.825 189.212 109.825C191.359 109.815 193.365 109.25 195.143 108.193C198.396 106.259 200.885 102.678 202.083 97.8365C202.096 97.7833 202.109 97.7299 202.122 97.6763C202.127 97.6559 202.132 97.6355 202.137 97.615C202.154 97.4785 202.176 97.3419 202.201 97.2036C202.212 97.1379 202.224 97.0717 202.236 97.005C202.281 96.7603 202.327 96.5083 202.357 96.24L194.657 94.92L194.492 96.24C194.466 96.3783 194.439 96.5148 194.411 96.6493C194.377 96.8141 194.342 96.9761 194.305 97.1354C194.273 97.2752 194.24 97.4129 194.206 97.5485C193.241 101.395 191.495 103.5 189.212 103.5C189.193 103.5 189.175 103.5 189.157 103.5C186.311 103.461 184.217 100.43 183.466 94.8618C183.434 94.6283 183.405 94.3904 183.378 94.1481C183.355 93.9362 183.333 93.7208 183.314 93.5022C183.288 93.2144 183.265 92.9208 183.246 92.6214C183.196 91.8562 183.168 91.0533 183.163 90.2135C183.162 90.1145 183.162 90.015 183.162 89.9151C183.162 89.5452 183.166 89.1826 183.173 88.8273C183.188 88.126 183.217 87.4528 183.26 86.8081C183.288 86.3765 183.323 85.9577 183.364 85.5516C183.392 85.2748 183.423 85.0039 183.457 84.739C183.463 84.6901 183.469 84.6414 183.476 84.593C184.221 78.9441 186.253 76.0366 189.157 76.0004C189.175 76.0002 189.193 76 189.212 76C191.604 76 193.406 78.1138 194.292 81.9231C194.293 81.9238 194.293 81.9244 194.293 81.9251C194.344 82.1445 194.392 82.3695 194.437 82.6C194.464 82.7477 194.487 82.8888 194.508 83.0242C194.532 83.1772 194.553 83.3228 194.572 83.4623C194.583 83.5499 194.594 83.6351 194.605 83.7181C194.615 83.798 194.624 83.876 194.634 83.9522C194.641 84.016 194.649 84.0785 194.657 84.14L202.687 82.82Z" fill="black"/>
<path fill-rule="evenodd" clip-rule="evenodd" d="M138.282 102.798L141.244 112.719C142.888 118.226 147.953 122 153.7 122H161.785C167.609 122 172.722 118.127 174.299 112.522L177.131 102.461C175.288 99.169 174.252 94.9 174.252 89.915C174.252 82.292 176.675 76.211 180.699 72.7736C182.144 71.539 183.796 70.6455 185.616 70.1439C185.542 67.4643 184.64 64.8386 182.983 62.6509C180.526 59.4063 176.691 57.5 172.62 57.5H164.7C162.133 57.5 159.707 58.2523 157.66 59.571C155.614 58.2522 153.188 57.5 150.62 57.5H142.205C138.099 57.5 134.234 59.4402 131.781 62.7331C129.327 66.026 128.574 70.2845 129.749 74.2192L130.032 75.1661V70.5H138.282V102.798ZM153.7 109H161.785L172.62 70.5H164.7L157.715 98.165L150.62 70.5H142.205L153.7 109Z" fill="black"/>
<path fill-rule="evenodd" clip-rule="evenodd" d="M117.031 109C117.031 116.18 122.852 122 130.031 122H138.282C145.461 122 151.282 116.18 151.282 109V100.898L142.205 70.5H150.62L151.282 73.0778V70.5C151.282 63.3203 145.461 57.5 138.282 57.5H130.031C122.852 57.5 117.031 63.3203 117.031 70.5H123.041V109H117.031ZM138.282 70.5H130.031V109H138.282V70.5Z" fill="black"/>
<path fill-rule="evenodd" clip-rule="evenodd" d="M114.791 109H123.041V70.5H114.791V85.515H104.121V70.5H95.8711V109H104.121V91.51H114.791V109ZM109.456 120.858C107.828 121.592 106.022 122 104.121 122H95.8711C88.6914 122 82.8711 116.18 82.8711 109V70.5C82.8711 63.3203 88.6914 57.5 95.8711 57.5H104.121C106.022 57.5 107.828 57.9082 109.456 58.6416C111.084 57.9082 112.89 57.5 114.791 57.5H123.041C130.221 57.5 136.041 63.3203 136.041 70.5H130.031V109H136.041C136.041 116.18 130.221 122 123.041 122H114.791C112.89 122 111.084 121.592 109.456 120.858Z" fill="black"/>
<path fill-rule="evenodd" clip-rule="evenodd" d="M95.6413 46.84H86.1847C85.8901 45.7533 85.7329 44.61 85.7329 43.43V40.3263L87.7763 38.04C88.4178 37.3336 89.0188 36.6574 89.5787 36.005C90.8287 34.5486 91.8744 33.2107 92.7117 31.9197C92.7914 31.7969 92.8692 31.6744 92.9451 31.5523C93.1521 31.2195 93.3449 30.8894 93.5237 30.5607C94.6363 28.5149 95.2013 26.5253 95.2013 24.29C95.2013 22.5789 94.8473 20.9798 94.1752 19.5682L102.715 6.98118C105.135 3.41532 109.164 1.28003 113.473 1.28003H120.403C127.583 1.28003 133.403 7.10033 133.403 14.28V27.6611C136.228 30.0457 138.023 33.6133 138.023 37.6V43.43C138.023 47.4192 136.226 50.9888 133.398 53.3734C133.2 60.3805 127.458 66 120.403 66H113.033C107.04 66 101.995 61.9455 100.49 56.43H98.7329C95.3393 56.43 92.2493 55.1297 89.9342 53H95.6413V46.84ZM125.023 37.6H120.403V14.28H113.473L98.7329 36.005V43.43H113.033V53H120.403V43.43H125.023V37.6ZM113.033 24.4V37.6H104.453L113.033 24.4Z" fill="black"/>
<path fill-rule="evenodd" clip-rule="evenodd" d="M71.9364 66.0001C64.7567 66.0001 58.9364 60.1798 58.9364 53V52.9799C61.0983 52.0486 62.9288 50.3692 64.3458 48.05C65.1257 46.7738 65.7803 45.3037 66.2959 43.6579C66.8882 41.7677 67.2973 39.6458 67.5024 37.3193C67.6031 36.1777 67.6546 34.9869 67.6546 33.75C67.6546 33.299 67.6478 32.8541 67.6343 32.4156C67.5669 30.2199 67.3319 28.1836 66.9443 26.3251C66.9366 26.2883 66.9289 26.2516 66.9211 26.215C66.8706 25.9778 66.8177 25.7435 66.7623 25.5121C66.6437 25.0173 66.5139 24.536 66.373 24.0686C66.2622 23.7012 66.1447 23.3424 66.0205 22.9924C66.0165 22.9812 66.0125 22.97 66.0086 22.9589C65.9632 22.8317 65.917 22.7058 65.8699 22.581C64.6512 19.3517 62.8477 16.9089 60.5823 15.4059C64.6975 6.17472 73.7797 0.675049 83.7064 0.675049C90.1389 0.675049 96.4054 2.80448 101.147 7.36484C105.353 11.4102 107.647 16.6962 108.112 22.1811L98.733 36.0051V43.43H108.19C108.484 44.5168 108.641 45.6601 108.641 46.84V53C108.641 60.1798 102.821 66.0001 95.6414 66.0001H71.9364ZM104.662 37.2779L104.453 37.6001H104.786C104.721 37.5355 104.655 37.4716 104.588 37.4085C104.613 37.365 104.638 37.3215 104.662 37.2779ZM87.7764 38.0401C89.1554 36.5217 90.3466 35.143 91.3465 33.84C93.8961 30.5176 95.2014 27.6876 95.2014 24.2901C95.2014 18.295 90.8564 13.675 83.7064 13.675C83.4851 13.675 83.265 13.6802 83.0464 13.6904C82.3455 13.7233 81.6597 13.8085 80.9938 13.9439C76.597 14.838 73.069 17.9213 71.791 22.5797C71.6734 23.0083 71.5748 23.4503 71.4964 23.905L71.3314 24.895L78.5364 26.3251V26.215C78.5388 26.1757 78.5413 26.1364 78.5439 26.0971C78.5655 25.7712 78.5958 25.4502 78.6353 25.1359C78.6369 25.1225 78.6387 25.1091 78.6404 25.0957C78.6755 24.8216 78.7176 24.5527 78.7669 24.2901C78.9005 23.5788 79.087 22.914 79.3316 22.3187C80.0406 20.5927 81.2375 19.4501 83.0464 19.4501C83.2749 19.4501 83.4951 19.4692 83.7064 19.5061C85.7336 19.86 86.9514 21.8495 86.9514 24.2901C86.9514 24.9323 86.9061 25.5665 86.7965 26.215C86.7903 26.2517 86.7839 26.2883 86.7773 26.3251C86.7548 26.4503 86.7298 26.576 86.7024 26.7026C86.3432 28.3559 85.5479 30.1353 84.0166 32.3968C83.7234 32.8297 83.4032 33.2804 83.0539 33.7512C83.0438 33.7649 83.0337 33.7785 83.0236 33.7922C83.0117 33.8081 82.9998 33.8241 82.9879 33.84C82.7962 34.0972 82.5958 34.3604 82.3864 34.6301L71.9364 48.05V53H95.6414V46.84H79.9114L87.7764 38.0401ZM58.3719 23.8614C58.2129 25.8296 58.5068 27.749 59.1744 29.505C59.0315 27.211 58.7623 25.337 58.3719 23.8614Z" fill="black"/>
<path fill-rule="evenodd" clip-rule="evenodd" d="M59.2654 35.9312C59.0373 44.1447 57.4678 47.885 54.7295 47.885C52.04 47.885 50.4742 44.1396 50.248 35.9145C50.229 35.2246 50.2195 34.5033 50.2195 33.75C50.2195 32.9968 50.229 32.2754 50.248 31.5856C50.4742 23.3605 52.04 19.615 54.7295 19.615C57.4678 19.615 59.0373 23.3554 59.2654 31.5689C59.2848 32.2638 59.2945 32.9907 59.2945 33.75C59.2945 34.5094 59.2848 35.2363 59.2654 35.9312ZM33.0397 53C33.4768 53.8435 33.9523 54.6657 34.4679 55.4636C38.7663 62.115 45.8402 66.8251 54.7295 66.8251C63.6127 66.8251 70.7066 62.1473 75.0293 55.4788C75.5496 54.6761 76.0291 53.8488 76.4696 53H71.9363V48.05L80.5607 36.9745C80.624 35.9023 80.6545 34.8262 80.6545 33.75C80.6545 29.8588 80.2592 25.9688 79.3523 22.2685C78.8841 23.3856 78.6236 24.7527 78.5363 26.215V26.3251L71.3313 24.8951L71.4963 23.905C71.5198 23.7686 71.5451 23.6334 71.5723 23.4993C72.2947 19.9263 74.2819 17.1838 76.9847 15.5158C76.4084 14.2978 75.7563 13.1199 75.0229 11.9909C70.6816 5.30684 63.5788 0.675049 54.7295 0.675049C45.8402 0.675049 38.7663 5.38513 34.4679 12.0365C33.7668 13.1214 33.14 14.2513 32.5828 15.4184C35.6364 17.2939 37.3546 20.5201 37.3546 24.2901C37.3546 27.6569 36.0727 30.4664 33.5685 33.75C32.5546 35.0795 31.3403 36.4867 29.9296 38.0401L29.1089 38.9583C29.3736 41.6491 29.8571 44.2978 30.5978 46.84H37.7946V53H33.0397ZM41.8595 33.75C41.8595 46.0701 46.9745 53.8251 54.7295 53.8251C62.5395 53.8251 67.6545 46.0701 67.6545 33.75C67.6545 21.375 62.5395 13.675 54.7295 13.675C46.9745 13.675 41.8595 21.4301 41.8595 33.75Z" fill="black"/>
<path fill-rule="evenodd" clip-rule="evenodd" d="M14.0898 66.0001C6.91006 66.0001 1.08976 60.1798 1.08976 53V48.05C1.08976 45.1566 2.05503 42.3459 3.83271 40.063L6.90871 36.1128C2.38483 33.4607 -0.247608 28.2133 0.661638 22.7579L0.826638 21.7679L0.838779 21.6963C3.07502 8.72604 13.8492 0.675049 25.8598 0.675049C32.2922 0.675049 38.5588 2.80448 43.3002 7.36484C45.762 9.73258 47.5687 12.5253 48.7372 15.5342C46.1907 17.3126 44.2432 20.3114 43.0813 24.2901C42.2868 27.0108 41.8596 30.1898 41.8596 33.75C41.8596 33.9986 41.8617 34.2454 41.8658 34.4902C41.9184 37.5926 42.3019 40.3924 42.9753 42.8363C43.3793 44.3029 43.8877 45.6413 44.4916 46.84C45.9866 49.8082 48.0666 51.9198 50.5957 53C50.6616 53.0282 50.7279 53.0557 50.7945 53.0825C50.7502 60.2242 44.947 66.0001 37.7948 66.0001H14.0898ZM37.7948 53V46.84H22.0648L29.9298 38.0401C31.3087 36.5217 32.4999 35.143 33.4998 33.84C36.0494 30.5176 37.3548 27.6876 37.3548 24.2901C37.3548 18.295 33.0098 13.675 25.8598 13.675C25.6384 13.675 25.4183 13.6802 25.1998 13.6904C24.4988 13.7233 23.813 13.8085 23.1471 13.9439C18.7503 14.838 15.2223 17.9212 13.9443 22.5797C13.8267 23.0083 13.7282 23.4502 13.6498 23.905L13.4848 24.8951L20.6898 26.3251V26.215C20.6921 26.1757 20.6946 26.1364 20.6972 26.0971C20.7188 25.7712 20.7492 25.4502 20.7886 25.1359C20.7903 25.1225 20.792 25.1091 20.7937 25.0957C20.8288 24.8216 20.8709 24.5527 20.9203 24.2901C21.0538 23.5788 21.2404 22.914 21.4849 22.3187C22.1939 20.5927 23.3908 19.4501 25.1998 19.4501C25.4282 19.4501 25.6484 19.4692 25.8598 19.5061C27.8869 19.86 29.1048 21.8495 29.1048 24.2901C29.1048 24.9323 29.0594 25.5665 28.9498 26.215C28.9436 26.2517 28.9372 26.2883 28.9306 26.3251C28.9081 26.4503 28.8832 26.576 28.8557 26.7026C28.4965 28.3559 27.7012 30.1353 26.1699 32.3968C25.8767 32.8297 25.5565 33.2804 25.2073 33.7512C25.1972 33.7649 25.187 33.7785 25.1769 33.7922C25.165 33.8081 25.1531 33.8241 25.1412 33.84C24.9495 34.0972 24.7491 34.3604 24.5398 34.6301L14.0898 48.05V53H37.7948Z" fill="black"/>
</svg>
