<svg width="148" height="133" viewBox="0 0 148 133" fill="none" xmlns="http://www.w3.org/2000/svg">
<path fill-rule="evenodd" clip-rule="evenodd" d="M118.598 100.058C114.797 100.416 111.605 102.419 109.454 105.302C108.923 106.014 108.46 106.77 108.062 107.56C109.166 108.331 110.002 109.43 110.446 110.694C110.461 110.746 110.476 110.795 110.49 110.841C110.528 110.962 110.562 111.071 110.581 111.208L106.849 111.965C106.834 111.86 106.81 111.764 106.788 111.671C106.77 111.596 106.753 111.524 106.74 111.451C106.728 111.406 106.714 111.361 106.7 111.316C106.451 112.355 106.287 113.422 106.203 114.503L106.47 114.616C107.603 115.081 108.497 115.618 109.174 116.239C109.883 116.889 110.351 117.631 110.602 118.478C110.752 118.983 110.825 119.525 110.825 120.106C110.825 120.169 110.824 120.232 110.822 120.295C110.761 122.248 109.759 123.985 108.107 125.047C108.492 125.804 108.938 126.529 109.447 127.213C111.828 130.417 115.485 132.531 119.832 132.531C124.179 132.531 127.845 130.429 130.236 127.219C132.538 124.13 133.555 120.218 133.555 116.239C133.555 112.283 132.53 108.388 130.232 105.311C128.352 102.792 125.676 100.941 122.488 100.272L122.617 100.732H118.776L118.598 100.058ZM106.646 120.955C106.655 120.863 106.659 120.77 106.659 120.674C106.659 120.179 106.555 119.76 106.359 119.399C106.435 119.923 106.53 120.442 106.646 120.955ZM112.529 116.239C112.529 122.135 115.558 126.138 119.832 126.138C124.132 126.138 127.162 122.135 127.162 116.239C127.162 110.423 124.132 106.393 119.832 106.393C115.558 106.393 112.529 110.396 112.529 116.239ZM116.956 117.693C116.926 117.236 116.911 116.751 116.911 116.239C116.911 115.745 116.925 115.277 116.953 114.835C117.171 111.375 118.225 109.504 119.832 109.504C121.457 109.504 122.533 111.383 122.762 114.805C122.792 115.256 122.807 115.734 122.807 116.239C122.807 116.76 122.791 117.254 122.76 117.72C122.527 121.16 121.452 123.028 119.832 123.028C118.232 123.028 117.18 121.15 116.956 117.693Z" fill="black"/>
<path fill-rule="evenodd" clip-rule="evenodd" d="M99.7804 100.732C98.2552 101.255 96.8293 102.064 95.5929 103.185C94.448 104.223 93.5544 105.452 92.9284 106.799H95.2359V125.732H92.6189C94.9452 130.043 99.2997 132.531 104.171 132.531C109.543 132.531 114.234 129.56 116.215 125.009C114.752 123.986 113.643 122.312 113.039 120.168C113.033 120.148 113.028 120.127 113.022 120.106C112.824 119.388 112.682 118.617 112.603 117.802C112.587 117.632 112.573 117.46 112.562 117.287C112.54 116.944 112.529 116.595 112.529 116.238C112.529 114.426 112.821 112.79 113.351 111.396C113.431 111.183 113.518 110.976 113.61 110.775C113.799 110.361 114.01 109.971 114.243 109.609C114.315 109.497 114.389 109.387 114.465 109.28C114.936 108.617 115.482 108.055 116.093 107.608C114.679 104.443 112.001 101.916 108.634 100.732H107.416L107.512 100.394C106.492 100.137 105.418 100 104.306 100C103.859 100 103.412 100.02 102.969 100.06L102.78 100.732H99.7804ZM97.4361 120.35C97.4453 120.432 97.4576 120.515 97.4731 120.598C97.4915 120.697 97.5145 120.796 97.5419 120.895C97.5589 120.957 97.5778 121.018 97.5983 121.08C97.6168 121.146 97.6359 121.211 97.6557 121.275C97.7152 121.469 97.7806 121.658 97.8516 121.84C98.6661 123.937 100.226 125.311 102.155 125.863C102.792 126.045 103.468 126.138 104.171 126.138C107.916 126.138 110.51 123.714 110.798 120.674C110.816 120.487 110.825 120.298 110.825 120.106C110.825 119.247 110.667 118.475 110.335 117.781C109.821 116.705 108.889 115.816 107.481 115.083C107.28 114.978 107.068 114.876 106.847 114.777C106.724 114.722 106.599 114.668 106.47 114.616L104.225 113.669C104 113.575 103.796 113.48 103.613 113.383C103.609 113.381 103.606 113.379 103.603 113.377C103.158 113.141 102.833 112.892 102.609 112.608C102.6 112.597 102.592 112.585 102.583 112.574C102.49 112.451 102.415 112.32 102.357 112.182C102.296 112.038 102.254 111.885 102.228 111.721C102.207 111.585 102.196 111.441 102.196 111.289C102.196 110.045 103.089 109.314 104.306 109.314C104.875 109.314 105.39 109.511 105.81 109.878C105.814 109.881 105.817 109.884 105.82 109.887C106.199 110.221 106.5 110.696 106.692 111.289C106.709 111.342 106.725 111.396 106.74 111.451C106.753 111.523 106.77 111.596 106.788 111.671C106.79 111.679 106.792 111.687 106.794 111.695C106.797 111.708 106.8 111.721 106.803 111.734C106.804 111.739 106.805 111.743 106.806 111.747C106.821 111.811 106.835 111.877 106.846 111.946C106.847 111.951 106.847 111.955 106.848 111.959C106.848 111.961 106.848 111.963 106.849 111.965L110.581 111.208C110.572 111.141 110.559 111.081 110.544 111.023C110.528 110.962 110.51 110.903 110.49 110.841C110.489 110.836 110.487 110.831 110.486 110.827C110.473 110.785 110.459 110.741 110.446 110.694C110.416 110.608 110.384 110.524 110.351 110.44C110.14 109.915 109.861 109.421 109.523 108.97C108.624 107.776 107.308 106.89 105.75 106.548C105.288 106.447 104.805 106.393 104.306 106.393C100.779 106.393 98.4775 108.476 98.2638 111.289C98.253 111.431 98.2475 111.575 98.2475 111.721C98.2475 112.452 98.3795 113.113 98.6306 113.708C99.0325 114.661 99.7396 115.447 100.699 116.085C101.116 116.362 101.58 116.611 102.088 116.833L104.414 117.861C104.49 117.895 104.563 117.928 104.635 117.963C104.756 118.02 104.872 118.079 104.984 118.14C104.994 118.146 105.005 118.152 105.015 118.158C105.491 118.422 105.875 118.721 106.152 119.081C106.167 119.101 106.181 119.12 106.196 119.14C106.303 119.289 106.393 119.449 106.464 119.62C106.527 119.772 106.576 119.934 106.608 120.106C106.642 120.284 106.659 120.473 106.659 120.674C106.659 122.054 105.713 123.081 104.171 123.081C103.541 123.081 102.932 122.842 102.428 122.356C102.428 122.356 102.427 122.355 102.427 122.355C102.017 121.959 101.676 121.4 101.449 120.674C101.416 120.57 101.386 120.461 101.358 120.35C101.344 120.255 101.324 120.16 101.304 120.066C101.302 120.057 101.3 120.049 101.298 120.04C101.29 120.001 101.282 119.962 101.274 119.923C101.27 119.902 101.266 119.88 101.262 119.859C101.259 119.841 101.256 119.824 101.253 119.806C101.252 119.798 101.251 119.79 101.25 119.782L97.4361 120.35ZM116.943 117.488C116.988 118.312 117.079 119.05 117.211 119.697C117.188 118.958 117.102 118.219 116.943 117.488ZM91.1788 121.718C91.1393 121.5 91.1069 121.279 91.0821 121.056C91.005 120.362 91.0421 119.681 91.1788 119.032V121.718Z" fill="black"/>
<path fill-rule="evenodd" clip-rule="evenodd" d="M89.1566 100.732C86.6168 101.578 84.7856 103.975 84.7856 106.799V106.924C86.4536 107.642 87.7244 109.025 88.3112 110.694C88.3262 110.746 88.3412 110.794 88.3556 110.841C88.3932 110.962 88.4269 111.071 88.4465 111.208L84.7856 111.95V114.81C87.4964 116.041 88.6899 117.745 88.6899 120.106C88.6899 122.57 87.1971 124.717 84.7856 125.647V125.732C84.7856 129.263 87.6479 132.125 91.1787 132.125H95.2359C98.7667 132.125 101.629 129.263 101.629 125.732V125.688C99.7272 124.968 98.2493 123.397 97.5983 121.08C97.5891 121.052 97.5803 121.025 97.5718 120.997C97.5053 120.781 97.46 120.566 97.436 120.35L101.25 119.782C101.263 119.876 101.284 119.971 101.304 120.066C101.324 120.16 101.344 120.255 101.358 120.35C101.432 120.645 101.523 120.915 101.629 121.162V116.619C99.4998 115.56 98.2474 113.971 98.2474 111.722C98.2474 109.507 99.5049 107.683 101.629 106.862V106.799C101.629 103.268 98.7667 100.406 95.2359 100.406H91.221V100.732H89.1566ZM95.2359 106.799H91.1787V125.732H95.2359V106.799Z" fill="black"/>
<path fill-rule="evenodd" clip-rule="evenodd" d="M77.6456 100.732C76.1205 101.255 74.6946 102.064 73.4581 103.185C71.0184 105.397 69.7197 108.474 69.7197 111.721C69.7197 113.245 70.0003 114.71 70.5536 116.068C69.3718 117.38 68.7378 119.17 68.9473 121.056C69.0199 121.709 69.1568 122.339 69.3463 122.94C71.0943 128.952 76.1935 132.531 82.0362 132.531C87.1185 132.531 91.5907 129.872 93.7358 125.732H91.1787V106.799H93.5617C91.4239 102.796 87.1924 100 82.1714 100C81.7485 100 81.3264 100.018 80.9069 100.054V100.732H77.6456ZM83.6148 106.548C83.1533 106.447 82.6707 106.393 82.1714 106.393C78.6445 106.393 76.3427 108.476 76.129 111.289C76.1182 111.431 76.1127 111.575 76.1127 111.721C76.1127 112.452 76.2447 113.113 76.4959 113.708C76.8978 114.661 77.6049 115.447 78.5644 116.085C78.9813 116.362 79.4457 116.611 79.9535 116.833L82.2796 117.861C82.3548 117.895 82.4284 117.928 82.5003 117.963C82.6213 118.02 82.7375 118.079 82.8489 118.14C82.8594 118.146 82.8699 118.152 82.8804 118.158C83.3559 118.422 83.74 118.721 84.017 119.081C84.0319 119.101 84.0466 119.12 84.0609 119.14C84.1686 119.289 84.2585 119.449 84.3296 119.62C84.3927 119.772 84.4409 119.934 84.4736 120.106C84.5073 120.284 84.5245 120.473 84.5245 120.674C84.5245 122.054 83.5779 123.081 82.0362 123.081C81.406 123.081 80.7976 122.842 80.2935 122.356C80.293 122.356 80.2925 122.355 80.2921 122.355C79.8823 121.959 79.5416 121.4 79.3143 120.674C79.2815 120.57 79.2511 120.461 79.2232 120.35C79.2097 120.255 79.1894 120.16 79.1691 120.066C79.1673 120.057 79.1655 120.049 79.1637 120.04C79.1553 120.001 79.1471 119.962 79.1394 119.923C79.1352 119.902 79.1312 119.88 79.1274 119.859C79.1243 119.841 79.1214 119.824 79.1186 119.806C79.1174 119.798 79.1162 119.79 79.115 119.782L75.3013 120.35C75.3105 120.432 75.3228 120.515 75.3383 120.598C75.3568 120.697 75.3797 120.796 75.4071 120.895C75.4242 120.957 75.443 121.018 75.4636 121.08C75.482 121.146 75.5012 121.211 75.5209 121.275C75.5804 121.469 75.6458 121.658 75.7169 121.84C76.5313 123.937 78.0912 125.311 80.0207 125.863C80.6569 126.045 81.3331 126.138 82.0362 126.138C85.7815 126.138 88.3749 123.714 88.6631 120.674C88.6809 120.487 88.6899 120.298 88.6899 120.106C88.6899 119.247 88.5318 118.475 88.2002 117.781C87.6859 116.705 86.7541 115.816 85.3465 115.083C85.1448 114.978 84.9334 114.876 84.712 114.777C84.5894 114.722 84.4639 114.668 84.3352 114.616L82.0903 113.669C81.865 113.575 81.6614 113.48 81.4782 113.383C81.4747 113.381 81.4713 113.379 81.4679 113.377C81.023 113.141 80.6986 112.892 80.4742 112.608C80.4654 112.597 80.4568 112.585 80.4483 112.574C80.3548 112.451 80.2799 112.32 80.2218 112.182C80.1615 112.038 80.1193 111.885 80.0935 111.721C80.0719 111.585 80.0617 111.441 80.0617 111.289C80.0617 110.045 80.9542 109.314 82.1714 109.314C82.7407 109.314 83.2557 109.511 83.6755 109.878C83.6787 109.881 83.682 109.884 83.6852 109.887C84.0643 110.221 84.365 110.696 84.5568 111.289C84.574 111.342 84.5903 111.396 84.6057 111.451C84.6177 111.523 84.6352 111.596 84.6532 111.671C84.6552 111.679 84.6572 111.687 84.6591 111.695C84.6623 111.708 84.6654 111.721 84.6685 111.734C84.6695 111.739 84.6704 111.743 84.6714 111.747C84.6863 111.811 84.7004 111.877 84.7111 111.946C84.7118 111.951 84.7124 111.955 84.713 111.959C84.7133 111.961 84.7136 111.963 84.7139 111.965L88.4464 111.208C88.4369 111.141 88.424 111.081 88.409 111.023C88.3931 110.962 88.3749 110.903 88.3556 110.841C88.3541 110.836 88.3527 110.831 88.3512 110.827C88.3382 110.785 88.3247 110.741 88.3112 110.694C88.2812 110.608 88.2494 110.524 88.2159 110.44C88.0056 109.915 87.7264 109.421 87.3879 108.97C86.4894 107.776 85.1728 106.89 83.6148 106.548Z" fill="black"/>
<path fill-rule="evenodd" clip-rule="evenodd" d="M130.576 100.732C130.576 104.263 133.438 107.125 136.969 107.125H140.891C144.421 107.125 147.284 104.263 147.284 100.732V96.1881C147.284 95.4589 147.162 94.7583 146.937 94.1054C147.162 93.4526 147.284 92.7519 147.284 92.0228V87.4788C147.284 83.948 144.421 81.0857 140.891 81.0857H136.969C133.438 81.0857 130.576 83.948 130.576 87.4788V92.0228C130.576 92.7519 130.698 93.4526 130.923 94.1054C130.698 94.7583 130.576 95.4589 130.576 96.1881V97.6487H135.382V100.732H130.576ZM136.969 96.1881V100.732H140.891V96.1881H136.969ZM136.969 92.0228H140.891V87.4788H136.969V92.0228Z" fill="black"/>
<path fill-rule="evenodd" clip-rule="evenodd" d="M118.305 98.9478V100.732C118.305 104.263 121.167 107.125 124.698 107.125H135.382C138.912 107.125 141.775 104.263 141.775 100.732V97.6487C141.775 95.218 140.418 93.1041 138.421 92.0228H136.969V91.4542C136.461 91.3246 135.929 91.2557 135.382 91.2557H135.202V81.7988C135.202 78.268 132.34 75.4058 128.809 75.4058H124.698C121.167 75.4058 118.305 78.268 118.305 81.7988V85.3318L122.617 100.732H118.776L118.305 98.9478ZM128.809 81.7988H124.698V100.732H135.382V97.6487H128.809V81.7988ZM136.969 100.732H140.891V96.1882H136.969V100.732Z" fill="black"/>
<path fill-rule="evenodd" clip-rule="evenodd" d="M101.023 100.732C101.023 102.106 101.466 103.46 102.312 104.582C102.889 105.347 103.622 105.961 104.448 106.395C105.505 106.416 106.485 106.679 107.343 107.125C107.367 107.125 107.392 107.125 107.416 107.125H111.176C112.583 107.125 113.904 106.666 114.976 105.873C115.647 106.369 116.414 106.734 117.24 106.938C117.724 106.721 118.238 106.565 118.776 106.478C119.118 106.422 119.471 106.393 119.832 106.393C120.837 106.393 121.773 106.613 122.617 107.025C122.681 107.056 122.745 107.089 122.808 107.122C124.737 107.065 126.54 106.138 127.711 104.596C128.563 103.472 129.01 102.112 129.01 100.732H124.698V84.4537L123.472 80.0751C122.699 77.3143 120.182 75.4058 117.316 75.4058H112.826C109.971 75.4058 107.463 77.298 106.679 80.0425L106.177 81.7988H108.108L102.78 100.732H101.023ZM117.316 81.7988H112.826L107.416 100.732H111.176L112.285 96.4316H117.64L118.776 100.732H122.617L117.316 81.7988ZM112.988 93.7539H116.964L114.989 85.6125L112.988 93.7539Z" fill="black"/>
<path fill-rule="evenodd" clip-rule="evenodd" d="M91.2213 97.682L92.678 102.561C93.4866 105.269 95.9776 107.125 98.8039 107.125H101.042C101.56 106.858 102.142 106.657 102.78 106.534C103.258 106.442 103.768 106.393 104.306 106.393C104.727 106.393 105.136 106.431 105.53 106.504C107.155 105.729 108.422 104.282 108.934 102.464L109.421 100.732H107.416L112.826 81.7988H114.501C114.501 80.4207 114.055 79.0623 113.205 77.9388C111.996 76.3432 110.11 75.4058 108.108 75.4058H104.213C102.951 75.4058 101.758 75.7757 100.751 76.4242C99.745 75.7757 98.5518 75.4058 97.2892 75.4058H93.1509C91.1315 75.4058 89.2308 76.3599 88.0243 77.9793C86.8178 79.5986 86.4473 81.6928 87.0251 83.6278L87.1641 84.0935V81.7988H91.2213V97.682ZM98.8039 100.732H102.78L108.108 81.7988H104.213L100.778 95.4038L97.2892 81.7988H93.1509L98.8039 100.732Z" fill="black"/>
<path fill-rule="evenodd" clip-rule="evenodd" d="M80.771 100.732C80.771 104.263 83.6333 107.125 87.1641 107.125H91.1789V106.799H93.2434C95.7831 105.953 97.6143 103.556 97.6143 100.732V96.748L93.1509 81.7988H97.2892L97.6143 83.0665V81.7988C97.6143 78.268 94.752 75.4058 91.2212 75.4058H87.1641C83.6333 75.4058 80.771 78.268 80.771 81.7988H85.0455V84.8823H80.9072V100.732H80.771ZM87.1641 100.732H91.2212V81.7988H87.1641V100.732Z" fill="black"/>
<path fill-rule="evenodd" clip-rule="evenodd" d="M70.457 99.0611V100.732C70.457 104.263 73.3193 107.125 76.8501 107.125H78.9073C79.4955 106.822 80.1658 106.604 80.9072 106.488C81.3084 106.426 81.7305 106.393 82.1717 106.393C82.6588 106.393 83.13 106.444 83.5812 106.541C85.7766 105.529 87.3003 103.308 87.3003 100.732H87.1641V81.7988H91.2213V86.5412C91.363 86.0121 91.4386 85.456 91.4386 84.8823V81.7988C91.4386 78.268 88.5763 75.4058 85.0455 75.4058H72.6577C69.2475 75.4058 66.4609 78.0759 66.2746 81.4395C66.8006 81.5014 67.3037 81.6238 67.7778 81.7988C69.3134 82.3657 70.5451 83.4841 71.2677 84.8823C71.4027 85.1436 71.52 85.4146 71.6181 85.6937C71.6331 85.7461 71.648 85.7944 71.6624 85.8408C71.7001 85.9621 71.7338 86.0707 71.7533 86.2076L68.0207 86.9649C68.0058 86.8601 67.9825 86.7635 67.9601 86.6707C67.9421 86.5958 67.9246 86.5234 67.9126 86.451C67.7244 85.779 67.4026 85.2472 66.9871 84.8823C66.77 84.6915 66.5273 84.5464 66.2646 84.4506V84.8823C66.2646 87.6397 68.0104 89.9895 70.457 90.8865V91.3433C71.5115 92.3622 71.9967 93.6005 71.9967 95.1063C71.9967 96.611 71.4399 97.9977 70.457 99.0611ZM76.8501 100.732H80.9072V84.8823H85.0455V81.7988H72.6577V84.8823H76.8501V100.732Z" fill="black"/>
<path fill-rule="evenodd" clip-rule="evenodd" d="M53.7908 100.732C56.1171 105.043 60.4715 107.531 65.3428 107.531C70.4252 107.531 74.8973 104.872 77.0424 100.732H76.8499V84.8822H72.6575V81.7988H76.8684C74.7306 77.7965 70.499 75 65.478 75C62.2995 75 59.1728 76.0018 56.7647 78.1853C55.6199 79.2234 54.7263 80.4517 54.1002 81.7988H56.9236V84.7199H53.194C53.0827 85.3755 53.0263 86.0448 53.0263 86.7215C53.0263 87.5054 53.1006 88.274 53.2482 89.0205H55.1655V91.8605H53.2508C52.4689 93.0599 52.0841 94.5265 52.254 96.0556C52.3214 96.6621 52.4442 97.2485 52.6131 97.811H57.4916V100.732H53.7908ZM66.9215 81.5482C66.46 81.4468 65.9773 81.3931 65.478 81.3931C61.9511 81.3931 59.6493 83.4758 59.4357 86.2887C59.4248 86.4311 59.4194 86.5754 59.4194 86.7215C59.4194 87.4519 59.5514 88.1126 59.8025 88.7081C60.2044 89.6612 60.9115 90.4473 61.8711 91.085C62.2879 91.362 62.7524 91.6109 63.2601 91.8335L65.5862 92.8613C65.6614 92.8945 65.735 92.9283 65.807 92.9625C65.9279 93.0202 66.0442 93.0793 66.1555 93.1403C66.1661 93.1461 66.1766 93.1519 66.187 93.1577C66.6625 93.4218 67.0466 93.7208 67.3236 94.0814C67.3386 94.1008 67.3532 94.1204 67.3675 94.1402C67.4752 94.2892 67.5652 94.4486 67.6363 94.6202C67.6993 94.7722 67.7475 94.9338 67.7803 95.1062C67.8139 95.2837 67.8312 95.4725 67.8312 95.6742C67.8312 97.0536 66.8845 98.0815 65.3428 98.0815C64.7126 98.0815 64.1042 97.8422 63.6001 97.3562C63.5996 97.3557 63.5992 97.3552 63.5987 97.3548C63.1889 96.9592 62.8482 96.4003 62.6209 95.6742C62.5882 95.5695 62.5578 95.4613 62.5298 95.3496C62.5163 95.255 62.496 95.1603 62.4757 95.0657C62.4739 95.0572 62.4721 95.0487 62.4703 95.0402C62.462 95.0012 62.4537 94.9622 62.4461 94.9232C62.4418 94.9017 62.4378 94.8802 62.434 94.8587C62.4309 94.8413 62.4281 94.8239 62.4254 94.8066C62.4241 94.7983 62.4228 94.79 62.4217 94.7816L58.6079 95.3496C58.6171 95.4325 58.6295 95.5154 58.645 95.5983C58.6634 95.6971 58.6864 95.796 58.7137 95.8948C58.7308 95.9565 58.7497 96.0182 58.7702 96.0799C58.7887 96.1456 58.8078 96.2107 58.8276 96.2752C58.887 96.4691 58.9524 96.6575 59.0235 96.8405C59.8379 98.9371 61.3978 100.311 63.3274 100.863C63.9635 101.045 64.6398 101.138 65.3428 101.138C69.0882 101.138 71.6815 98.7137 71.9697 95.6742C71.9875 95.4871 71.9965 95.2976 71.9965 95.1062C71.9965 94.247 71.8385 93.4748 71.5069 92.7809C70.9926 91.7046 70.0607 90.8163 68.6531 90.0827C68.4514 89.9776 68.24 89.8757 68.0186 89.7769C67.8961 89.7222 67.7705 89.6684 67.6418 89.6156L65.3969 88.6689C65.1716 88.5747 64.9681 88.4799 64.7848 88.3829C64.7814 88.3811 64.778 88.3793 64.7745 88.3775C64.3297 88.1409 64.0052 87.8916 63.7809 87.6078C63.7721 87.5967 63.7634 87.5855 63.755 87.5743C63.6615 87.4506 63.5865 87.3203 63.5284 87.1816C63.4681 87.0379 63.426 86.8851 63.4001 86.7215C63.3786 86.5852 63.3683 86.4413 63.3683 86.2887C63.3683 85.0445 64.2609 84.3142 65.478 84.3142C66.0474 84.3142 66.5624 84.5112 66.9821 84.8781C66.9854 84.8809 66.9886 84.8837 66.9918 84.8866C67.371 85.2214 67.6716 85.6955 67.8634 86.2887C67.8806 86.3418 67.8969 86.3959 67.9123 86.451C67.9244 86.5234 67.9418 86.5958 67.9599 86.6706C67.9618 86.6787 67.9638 86.6869 67.9658 86.6951C67.9689 86.7081 67.972 86.7212 67.9751 86.7344C67.9761 86.7386 67.9771 86.7427 67.978 86.7468C67.9929 86.8106 68.0071 86.8767 68.0178 86.9463C68.0184 86.9505 68.019 86.9547 68.0197 86.9589C68.0199 86.9609 68.0202 86.9629 68.0205 86.9649L71.7531 86.2076C71.7436 86.1409 71.7307 86.0809 71.7156 86.0229C71.6998 85.9618 71.6815 85.903 71.6622 85.8408C71.6608 85.8361 71.6593 85.8314 71.6578 85.8267C71.6448 85.7846 71.6313 85.7408 71.6178 85.6936C71.5879 85.6084 71.5561 85.5238 71.5226 85.4401C71.3122 84.9146 71.033 84.4206 70.6945 83.9705C69.7961 82.7758 68.4795 81.8904 66.9215 81.5482Z" fill="black"/>
<path fill-rule="evenodd" clip-rule="evenodd" d="M42.6324 76.0883C40.5469 77.1413 39.1167 79.303 39.1167 81.7988H43.2623V84.6929H39.1167V89.1017H41.9099V91.8605H39.1167V100.732C39.1167 104.263 41.979 107.125 45.5098 107.125H57.4919C60.9341 107.125 63.7409 104.405 63.8796 100.997C63.55 100.931 63.2296 100.843 62.92 100.732C61.4858 100.22 60.2836 99.2319 59.4817 97.811C59.3254 97.5341 59.1843 97.2408 59.0597 96.9313C58.9504 96.6599 58.8537 96.376 58.7705 96.08C58.6894 95.8365 58.6353 95.5931 58.6082 95.3497L62.4219 94.7817C62.4355 94.8764 62.4557 94.971 62.476 95.0657C62.4963 95.1604 62.5166 95.255 62.5301 95.3497C62.7946 96.4075 63.2827 97.1522 63.8813 97.594C63.8169 95.6633 62.8964 93.9495 61.4873 92.82C61.5344 92.507 61.5588 92.1866 61.5588 91.8605V90.8654C61.1889 90.5903 60.8625 90.2899 60.583 89.963C60.3329 89.6704 60.1205 89.3566 59.9484 89.0206C59.6029 88.3461 59.4196 87.5822 59.4196 86.7215C59.4196 86.0068 59.5506 85.3328 59.7994 84.72C59.8092 84.6958 59.8193 84.6717 59.8294 84.6477C60.3819 83.3463 61.472 82.3294 62.9708 81.7988C63.0835 81.7589 63.1986 81.7217 63.316 81.6874C63.2674 78.8457 61.3648 76.4557 58.7658 75.6751C58.3312 75.7129 57.8758 75.7322 57.4002 75.7322H51.5849V75.4058H45.5098C45.3165 75.4058 45.1253 75.4143 44.9365 75.4311C44.2424 75.7733 43.4661 75.9955 42.6324 76.0883ZM56.9239 81.7988H45.5098V100.732H57.4919V97.811H49.5669V91.8605H55.1658V89.0206H49.5669V84.72H56.9239V81.7988Z" fill="black"/>
<path fill-rule="evenodd" clip-rule="evenodd" d="M30.0692 75.7322C27.5294 76.5783 25.6982 78.9747 25.6982 81.7988V100.732C25.6982 104.263 28.5605 107.125 32.0913 107.125H36.1485C39.6793 107.125 42.5415 104.263 42.5415 100.732V98.2228C43.6352 98.1155 44.6479 97.7326 45.5095 97.1445V81.7988H49.6551C49.6551 78.7482 47.5184 76.1967 44.66 75.5591C44.2217 75.7495 43.7538 75.8943 43.262 75.9915C42.7717 76.0884 42.2576 76.1379 41.7253 76.1379C40.5086 76.1379 39.3965 75.8818 38.446 75.4058H33.6888V75.7322H30.0692ZM49.655 84.72H49.5666V85.7587C49.6233 85.4207 49.6535 85.0737 49.655 84.72ZM43.262 81.7988H32.0913V100.732H36.1485V91.8605H41.9096V89.1017H36.1485V84.6929H43.262V81.7988Z" fill="black"/>
<path fill-rule="evenodd" clip-rule="evenodd" d="M56.2141 50.4058V50.7322H60.2713V50.5475C62.5247 50.8296 64.7826 51.5683 66.7027 53.0774C69.5217 55.293 70.7175 58.4601 70.7175 61.5592C70.7175 62.7976 70.5188 63.9283 70.1637 64.951C71.102 66.596 71.5289 68.427 71.5289 70.2415C71.5289 73.8988 69.9223 77.2322 66.8842 79.4325C64.1006 81.4484 60.673 82.1252 57.4002 82.1252H56.9239V81.7988H49.5628C47.0231 80.9527 45.1919 78.5563 45.1919 75.7322V75.2977C47.0806 74.2542 48.2983 72.2751 48.2983 69.5653V56.7988H45.1919C45.1919 53.9747 47.0231 51.5783 49.5628 50.7322H50.9669V50.4353C51.1703 50.4157 51.3765 50.4058 51.585 50.4058H56.2141ZM65.1222 70.6477C65.1313 70.5144 65.1358 70.379 65.1358 70.2415C65.1358 70.187 65.135 70.1329 65.1334 70.0792C65.1083 69.2589 64.8913 68.5265 64.4773 67.9051C63.6933 66.7284 62.2026 65.9496 59.9697 65.7246C61.9843 65.4193 63.4324 64.4098 64.0261 63.0301C64.1771 62.6791 64.2729 62.3042 64.3086 61.9108C64.3191 61.7952 64.3244 61.6779 64.3244 61.5592C64.3244 61.0439 64.258 60.56 64.1238 60.1129C63.5148 58.0849 61.5102 56.8141 57.978 56.799C57.9568 56.7989 57.9355 56.7988 57.9141 56.7988H51.585V75.7322H57.4002C57.5963 75.7322 57.7889 75.7289 57.978 75.7224C62.3948 75.5707 64.9165 73.6615 65.1222 70.6477ZM57.3461 59.6118H55.6421V64.3722H57.1838C57.2386 64.3722 57.2927 64.3715 57.3461 64.3703C57.4128 64.3687 57.4783 64.3661 57.5429 64.3626C57.5455 64.3624 57.5482 64.3623 57.5509 64.3621C57.6988 64.3538 57.8412 64.3404 57.978 64.3221C58.6903 64.2268 59.2513 63.9991 59.6581 63.668C59.9219 63.4532 60.1209 63.195 60.2542 62.9012C60.3889 62.6046 60.4566 62.2718 60.4566 61.9108C60.4566 61.7893 60.4495 61.672 60.4352 61.5592C60.4278 61.5002 60.4183 61.4423 60.407 61.3857C60.3975 61.3387 60.3867 61.2924 60.3745 61.2471C60.206 60.6186 59.7773 60.1558 59.0851 59.886C58.9484 59.8327 58.8014 59.7869 58.6442 59.7489C58.4454 59.7009 58.2302 59.6652 57.9985 59.6423C57.9917 59.6416 57.9849 59.6409 57.978 59.6403C57.9569 59.6383 57.9356 59.6364 57.9141 59.6346C57.7344 59.6194 57.5451 59.6118 57.3461 59.6118ZM57.2379 72.9192C57.2925 72.9192 57.3466 72.9186 57.4002 72.9175C57.4091 72.9173 57.418 72.9171 57.4269 72.9169C57.432 72.9167 57.4371 72.9166 57.4422 72.9165C57.6268 72.9115 57.8056 72.8996 57.978 72.8808C58.7735 72.7945 59.436 72.5631 59.9294 72.1913C59.9304 72.1905 59.9313 72.1898 59.9323 72.1891C60.3276 71.8903 60.614 71.5012 60.7727 71.0242C60.8522 70.7852 60.8996 70.5242 60.9127 70.2415C60.9138 70.2165 60.9147 70.1914 60.9153 70.1661C60.916 70.1373 60.9164 70.1084 60.9164 70.0792C60.9164 69.3912 60.7356 68.809 60.3687 68.3576C60.2031 68.1538 59.9996 67.9767 59.7577 67.8286C59.3019 67.5494 58.7098 67.3728 57.978 67.3143C57.8274 67.3023 57.6709 67.2952 57.5084 67.2933L55.6421 67.2663V72.9192H57.2379Z" fill="black"/>
<path fill-rule="evenodd" clip-rule="evenodd" d="M46.9097 50.4058H44.4845C43.5389 50.4058 42.6413 50.611 41.8338 50.9794C41.0263 50.611 40.1287 50.4058 39.1831 50.4058H35.126C31.5952 50.4058 28.7329 53.268 28.7329 56.7988V69.7006C28.7329 70.705 28.8372 71.6931 29.0448 72.6487H33.6891V75.7322H30.1385C30.7535 76.9397 31.5692 78.0489 32.583 79.0159C33.9363 80.3068 35.5161 81.2253 37.2034 81.7988H43.2622V82.4499C44.0189 82.3695 44.7716 82.2284 45.5097 82.0231V81.7988H46.2354C47.903 81.2304 49.4767 80.3189 50.8315 79.0225C51.8456 78.0521 52.6581 76.9412 53.2711 75.7322H51.5849V56.7988H54.6912C54.6912 53.9747 52.8601 51.5783 50.3203 50.7322H46.9097V50.4058ZM48.2982 56.7988H44.4845V69.4842C44.4845 69.5114 44.4843 69.5384 44.484 69.5653C44.4575 71.8603 43.3039 72.8381 41.8067 72.8381C41.7796 72.8381 41.7525 72.8377 41.7256 72.837C40.3486 72.8016 39.2547 71.8566 39.1865 69.7006C39.1843 69.6297 39.1831 69.5576 39.1831 69.4842V56.7988H35.126V69.7006C35.126 73.6225 37.9119 76.1379 41.7256 76.1379C41.7527 76.1379 41.7797 76.1378 41.8067 76.1375C45.4993 76.1025 48.2982 73.6736 48.2982 69.5653V56.7988Z" fill="black"/>
<path fill-rule="evenodd" clip-rule="evenodd" d="M16.6118 75.4875V75.7322C16.6118 79.263 19.4741 82.1252 23.0049 82.1252H32.0912V81.7988H35.7109C38.1789 80.9766 39.9778 78.6904 40.0774 75.9704C39.7818 75.9078 39.4956 75.8282 39.22 75.7322C37.6595 75.1885 36.4356 74.1191 35.7464 72.6487C35.3455 71.7934 35.1256 70.8025 35.1256 69.7006V66.4178C34.6637 66.3117 34.1828 66.2557 33.6887 66.2557H33.5092V56.7988C33.5092 53.268 30.6469 50.4058 27.1161 50.4058H23.0049C19.4741 50.4058 16.6118 53.268 16.6118 56.7988V57.0162C18.3717 57.8937 19.7482 59.6629 20.4314 62.1002C20.4476 62.1733 20.4663 62.2489 20.4852 62.3254C20.5293 62.5037 20.5747 62.6872 20.5936 62.8575L16.6447 63.5066C16.6409 63.4763 16.6371 63.4455 16.6332 63.4141C16.6265 63.3589 16.6195 63.3018 16.6118 63.2425V69.0709L16.6447 68.808L20.4314 69.4571C20.4167 69.589 20.3941 69.7129 20.3722 69.8332C20.3536 69.935 20.3356 70.0342 20.3232 70.1333C19.7129 72.704 18.3691 74.5665 16.6118 75.4875ZM27.1161 56.7988H23.0049V75.7322H33.6887V72.6487H27.1161V56.7988ZM39.1827 69.3777V69.4842C39.1827 70.755 39.5219 71.6313 40.064 72.1687C39.9887 71.1541 39.6766 70.2054 39.1827 69.3777Z" fill="black"/>
<path fill-rule="evenodd" clip-rule="evenodd" d="M6.61036 66.3466C6.61036 72.27 9.5856 76.1378 13.9403 76.1378C13.9493 76.1378 13.9583 76.1378 13.9673 76.1378C15.0234 76.1331 16.0099 75.8553 16.8843 75.3353C18.4836 74.3843 19.708 72.6232 20.2971 70.2422C20.3036 70.216 20.31 70.1897 20.3163 70.1634C20.3187 70.1534 20.3211 70.1433 20.3235 70.1333C20.3319 70.0661 20.3429 69.9989 20.3549 69.931C20.3606 69.8986 20.3665 69.866 20.3725 69.8332C20.3944 69.7129 20.417 69.589 20.4317 69.4571L16.645 68.8079L16.5639 69.4571C16.5511 69.5251 16.5379 69.5922 16.5242 69.6584C16.5075 69.7394 16.4902 69.8191 16.4722 69.8974C16.4564 69.9661 16.4402 70.0338 16.4234 70.1005C15.9486 71.9921 15.0901 73.0274 13.9673 73.0274C13.9583 73.0274 13.9493 73.0273 13.9403 73.0272C12.5406 73.0082 11.5112 71.5176 11.1415 68.7793C11.126 68.6645 11.1117 68.5475 11.0985 68.4283C11.087 68.3241 11.0764 68.2182 11.0667 68.1106C11.054 67.9691 11.0428 67.8247 11.0333 67.6775C11.0089 67.3012 10.9952 66.9063 10.9925 66.4934C10.9922 66.4447 10.9921 66.3958 10.9921 66.3466C10.9921 66.1647 10.9939 65.9864 10.9976 65.8117C11.0048 65.4668 11.0191 65.1357 11.0402 64.8187C11.0543 64.6064 11.0715 64.4005 11.0917 64.2007C11.1055 64.0646 11.1207 63.9314 11.1372 63.8011C11.1402 63.7771 11.1433 63.7532 11.1465 63.7293C11.5129 60.9514 12.5124 59.5215 13.9403 59.5037C13.9493 59.5036 13.9583 59.5035 13.9673 59.5035C15.1436 59.5035 16.0297 60.5431 16.4658 62.4164C16.4659 62.4167 16.4657 62.4161 16.4658 62.4164C16.4909 62.5243 16.5147 62.6359 16.5368 62.7493C16.55 62.8219 16.5616 62.8913 16.572 62.9578C16.5837 63.0331 16.5939 63.1047 16.6031 63.1733C16.6089 63.2164 16.6142 63.2583 16.6194 63.2991C16.6243 63.3384 16.629 63.3766 16.6336 63.414C16.6375 63.4455 16.6412 63.4763 16.645 63.5066L20.594 62.8575C20.5857 62.7828 20.5723 62.7055 20.5561 62.6273C20.5355 62.5272 20.5103 62.4254 20.4856 62.3254C20.4666 62.2488 20.4479 62.1732 20.4317 62.1001C20.4264 62.0814 20.4211 62.0627 20.4158 62.044C20.4113 62.0281 20.4067 62.0122 20.4021 61.9963C19.7126 59.6243 18.3603 57.8981 16.6376 57.0289C15.8205 56.6167 14.92 56.3972 13.9673 56.3931C13.9583 56.3931 13.9493 56.3931 13.9403 56.3931C9.5856 56.3931 6.61036 60.4232 6.61036 66.3466ZM23.0052 75.7321H24.9627C22.8282 79.6114 19.0661 82.5309 13.9403 82.5309C9.66352 82.5309 5.97754 80.5464 3.53879 77.3139C1.20677 74.2229 0.217285 70.3096 0.217285 66.3466C0.217285 62.3852 1.2052 58.4641 3.49578 55.3558C5.88667 52.1115 9.5653 50 13.9403 50C19.0478 50 22.9075 52.8904 25.1097 56.7988H23.0052V75.7321Z" fill="black"/>
<path fill-rule="evenodd" clip-rule="evenodd" d="M95.457 50.4875V50.7322C95.457 54.263 98.3193 57.1252 101.85 57.1252H107.476C111.64 57.1252 115.511 55.529 118.226 52.265C120.819 49.1489 121.83 45.1583 121.848 41.1864L121.848 41.1573V41.1303C121.848 37.2396 120.865 33.3188 118.339 30.2451C115.691 27.0235 111.89 25.4058 107.774 25.4058H101.85C98.3193 25.4058 95.457 28.268 95.457 31.7988V32.0162C97.217 32.8937 98.5934 34.6629 99.2766 37.1002C99.2928 37.1733 99.3115 37.2488 99.3304 37.3254C99.3745 37.5036 99.4199 37.6872 99.4389 37.8575L95.4899 38.5066C95.4861 38.4763 95.4823 38.4455 95.4785 38.4141C95.4717 38.3589 95.4647 38.3018 95.457 38.2425V44.0709L95.4899 43.808L99.2766 44.4571C99.2619 44.589 99.2393 44.7129 99.2174 44.8332C99.1988 44.935 99.1808 45.0342 99.1684 45.1333C98.5581 47.704 97.2143 49.5665 95.457 50.4875ZM101.85 50.7322H107.476C107.737 50.7322 107.993 50.7221 108.243 50.7021C112.734 50.3432 115.429 46.7938 115.455 41.1573V41.1303C115.455 41.1212 115.455 41.1122 115.455 41.1032C115.446 35.5497 112.718 32.0388 108.243 31.8107C108.089 31.8028 107.932 31.7988 107.774 31.7988H101.85V50.7322ZM105.907 47.8381H107.07C107.21 47.8381 107.345 47.8326 107.476 47.8216C107.749 47.7989 108.005 47.7525 108.243 47.6833C110.311 47.083 111.1 44.7616 111.1 41.1573V41.1032C111.1 37.4368 110.19 35.2806 108.243 34.7972C108.093 34.7599 107.936 34.7325 107.774 34.7152C107.634 34.7004 107.49 34.6929 107.341 34.6929H105.907V47.8381Z" fill="black"/>
<path fill-rule="evenodd" clip-rule="evenodd" d="M80.103 47.9649C80.6367 49.5244 81.3877 50.9941 82.3834 52.3139C84.8222 55.5464 88.5081 57.5309 92.7849 57.5309C97.9107 57.5309 101.673 54.6114 103.807 50.7321H101.85V31.7988H103.954C101.752 27.8904 97.8924 25 92.7849 25C88.4099 25 84.7313 27.1115 82.3404 30.3558C81.9986 30.8196 81.6859 31.3014 81.4011 31.7988H84.6526L80.103 47.9649ZM95.4896 43.8079L95.4085 44.4571C95.3957 44.5251 95.3825 44.5922 95.3688 44.6584C95.3521 44.7394 95.3348 44.8191 95.3168 44.8974C95.301 44.9661 95.2848 45.0338 95.2681 45.1005C94.7932 46.9921 93.9347 48.0274 92.8119 48.0274C92.8029 48.0274 92.7939 48.0273 92.7849 48.0272C91.3853 48.0082 90.3558 46.5177 89.9861 43.7793C89.9706 43.6645 89.9563 43.5475 89.9432 43.4283C89.9316 43.3241 89.921 43.2182 89.9114 43.1106C89.8986 42.9691 89.8875 42.8247 89.8779 42.6775C89.8536 42.3012 89.8398 41.9064 89.8372 41.4934C89.8368 41.4447 89.8367 41.3958 89.8367 41.3466C89.8367 41.1647 89.8385 40.9864 89.8422 40.8116C89.8494 40.4668 89.8637 40.1357 89.8848 39.8187C89.8989 39.6064 89.9161 39.4005 89.9363 39.2008C89.9501 39.0646 89.9653 38.9314 89.9818 38.8011C89.9849 38.7771 89.988 38.7532 89.9911 38.7293C90.3575 35.9514 91.357 34.5215 92.7849 34.5037C92.7939 34.5036 92.8029 34.5035 92.8119 34.5035C93.9882 34.5035 94.8743 35.543 95.3104 37.4164C95.3105 37.4167 95.3106 37.417 95.3107 37.4173C95.3358 37.5252 95.3594 37.6359 95.3815 37.7493C95.3947 37.8219 95.4062 37.8913 95.4166 37.9578C95.4284 38.0331 95.4385 38.1047 95.4477 38.1733C95.4535 38.2164 95.4589 38.2583 95.464 38.2991C95.4689 38.3383 95.4736 38.3766 95.4782 38.414C95.4821 38.4454 95.4858 38.4762 95.4896 38.5065C95.4896 38.5065 95.4896 38.5065 95.4896 38.5065L99.4386 37.8575C99.4303 37.7828 99.4169 37.7055 99.4008 37.6273C99.3801 37.5272 99.3549 37.4254 99.3302 37.3253C99.3112 37.2488 99.2926 37.1732 99.2763 37.1001C99.271 37.0814 99.2658 37.0627 99.2604 37.044C99.2559 37.0281 99.2513 37.0122 99.2467 36.9963C98.5572 34.6243 97.2049 32.8981 95.4822 32.0289C94.6651 31.6167 93.7646 31.3972 92.8119 31.3931C92.8029 31.3931 92.7939 31.3931 92.7849 31.3931C88.4302 31.3931 85.455 35.4232 85.455 41.3466C85.455 47.27 88.4302 51.1378 92.7849 51.1378C92.7939 51.1378 92.8029 51.1378 92.8119 51.1378C93.868 51.1331 94.8545 50.8553 95.729 50.3353C97.3283 49.3843 98.5526 47.6232 99.1417 45.2422C99.1482 45.216 99.1546 45.1897 99.1609 45.1634C99.1633 45.1534 99.1657 45.1433 99.1681 45.1333C99.1765 45.0661 99.1875 44.9989 99.1995 44.9309C99.2052 44.8986 99.2112 44.866 99.2171 44.8332C99.2391 44.7129 99.2616 44.589 99.2763 44.4571C99.2763 44.4571 99.2763 44.4572 99.2763 44.4571L95.4896 43.8079Z" fill="black"/>
<path fill-rule="evenodd" clip-rule="evenodd" d="M67.7657 47.682L69.2225 52.5612C70.0311 55.2694 72.522 57.1252 75.3483 57.1252H79.3243C82.1881 57.1252 84.7025 55.2208 85.4783 52.4641L86.8708 47.5164C85.9647 45.8976 85.455 43.7981 85.455 41.3466C85.455 37.5978 86.6467 34.6074 88.6256 32.9169C89.3362 32.3098 90.1484 31.8704 91.0434 31.6237C91.0072 30.306 90.5638 29.0147 89.749 27.9388C88.5404 26.3432 86.6543 25.4058 84.6527 25.4058H80.7578C79.4951 25.4058 78.302 25.7757 77.2958 26.4242C76.2894 25.7757 75.0962 25.4058 73.8337 25.4058H69.6954C67.676 25.4058 65.7753 26.3599 64.5688 27.9793C63.3622 29.5986 62.9918 31.6928 63.5695 33.6278L63.7086 34.0935V31.7988H67.7657V47.682ZM75.3483 50.7322H79.3243L84.6527 31.7988H80.7578L77.3228 45.4038L73.8337 31.7988H69.6954L75.3483 50.7322Z" fill="black"/>
<path fill-rule="evenodd" clip-rule="evenodd" d="M57.3154 50.7322C57.3154 54.263 60.1777 57.1252 63.7085 57.1252H67.7656C71.2964 57.1252 74.1587 54.263 74.1587 50.7322V46.748L69.6953 31.7988H73.8336L74.1587 33.0665V31.7988C74.1587 28.268 71.2964 25.4058 67.7656 25.4058H63.7085C60.1777 25.4058 57.3154 28.268 57.3154 31.7988H60.2709V50.7322H57.3154ZM67.7656 31.7988H63.7085V50.7322H67.7656V31.7988Z" fill="black"/>
<path fill-rule="evenodd" clip-rule="evenodd" d="M44.8875 25.7322C42.3478 26.5783 40.5166 28.9747 40.5166 31.7988V50.7322C40.5166 53.5563 42.3478 55.9527 44.8875 56.7988H48.2982V57.1252H50.9668C51.1753 57.1252 51.3815 57.1153 51.5849 57.0957V56.7988H52.989C53.1943 56.7304 53.395 56.6519 53.5904 56.5638C53.7859 56.6519 53.9866 56.7304 54.1919 56.7988H57.914C58.7927 56.7988 59.5777 56.8759 60.2712 57.0225C60.4032 57.0504 60.5319 57.0809 60.6573 57.1138C64.0083 56.9141 66.6643 54.1333 66.6643 50.7322H63.7088V31.7988H66.6643C66.6643 28.268 63.802 25.4058 60.2712 25.4058H58.9738V25.7322H55.3494V25.4637C54.7306 25.5474 54.1399 25.7196 53.5904 25.9672C52.7899 25.6065 51.9018 25.4058 50.9668 25.4058H46.9097C46.8719 25.4058 46.8342 25.4061 46.7966 25.4067V25.7322H44.8875ZM56.2141 31.7988V39.1828H50.9668V31.7988H46.9097V50.7322H50.9668V42.131H56.2141V50.7322H60.2712V31.7988H56.2141Z" fill="black"/>
<path fill-rule="evenodd" clip-rule="evenodd" d="M46.7965 22.7029H42.146C42.0011 22.1684 41.9238 21.6062 41.9238 21.0259V19.4996L42.9287 18.3753C43.2442 18.0279 43.5397 17.6953 43.8151 17.3745C44.4298 16.6582 44.9441 16.0003 45.3558 15.3655C45.395 15.305 45.4333 15.2448 45.4706 15.1847C45.5724 15.0211 45.6672 14.8587 45.7551 14.6972C46.3023 13.6911 46.5801 12.7126 46.5801 11.6133C46.5801 10.7719 46.4061 9.98548 46.0755 9.29128L50.2753 3.10129C51.4651 1.34769 53.4465 0.297607 55.5657 0.297607H58.9737C62.5045 0.297607 65.3667 3.15988 65.3667 6.69068V13.2711C66.7562 14.4439 67.6387 16.1983 67.6387 18.1589V21.0259C67.6387 22.9877 66.7551 24.7431 65.3642 25.9158C65.2794 28.9202 63.1219 31.4059 60.2711 31.9935V31.7989H56.214V32.1253H55.3493C52.4023 32.1253 49.9211 30.1313 49.1811 27.419H48.3169C46.648 27.419 45.1284 26.7795 43.9899 25.7322H46.7965V22.7029ZM61.2457 18.1589H58.9737V6.69068H55.5657L48.3169 17.3745V21.0259H55.3493V25.7322H58.9737V21.0259H61.2457V18.1589ZM55.3493 11.6674V18.1589H51.1299L55.3493 11.6674Z" fill="black"/>
<path fill-rule="evenodd" clip-rule="evenodd" d="M35.1388 32.1252C31.608 32.1252 28.7457 29.2629 28.7457 25.7321V25.7222C29.8089 25.2642 30.7091 24.4384 31.4059 23.2978C31.7894 22.6702 32.1113 21.9472 32.3649 21.1379C32.6562 20.2083 32.8573 19.1648 32.9582 18.0207C33.0077 17.4593 33.0331 16.8737 33.0331 16.2655C33.0331 16.0436 33.0297 15.8249 33.0231 15.6092C32.9899 14.5294 32.8744 13.528 32.6837 12.614C32.68 12.596 32.6762 12.5779 32.6724 12.5599C32.6475 12.4433 32.6215 12.328 32.5942 12.2142C32.5359 11.9709 32.4721 11.7342 32.4028 11.5044C32.3484 11.3237 32.2905 11.1472 32.2295 10.9751C32.2275 10.9696 32.2256 10.9641 32.2236 10.9586C32.2013 10.8961 32.1786 10.8342 32.1554 10.7728C31.5561 9.18473 30.6692 7.98339 29.5551 7.24427C31.5789 2.7046 36.0452 0 40.927 0C44.0903 0 47.172 1.0472 49.5037 3.28987C51.5721 5.27927 52.7002 7.87882 52.9292 10.5761L48.3167 17.3744V21.0258H52.9672C53.1121 21.5603 53.1894 22.1225 53.1894 22.7028V25.7321C53.1894 28.5562 51.3582 30.9526 48.8185 31.7988H46.9093V32.1242C46.8717 32.1249 46.8341 32.1252 46.7963 32.1252H35.1388ZM51.2326 18.0004L51.1296 18.1588H51.2933C51.2613 18.127 51.2289 18.0956 51.1961 18.0646C51.2083 18.0432 51.2205 18.0218 51.2326 18.0004ZM42.9285 18.3752C43.6066 17.6285 44.1924 16.9505 44.6841 16.3097C45.938 14.6758 46.5799 13.2841 46.5799 11.6133C46.5799 8.66507 44.4432 6.39307 40.927 6.39307C40.8181 6.39307 40.7099 6.39561 40.6024 6.40065C40.2577 6.4168 39.9204 6.4587 39.5929 6.5253C37.4307 6.96499 35.6957 8.48124 35.0672 10.7721C35.0094 10.9829 34.961 11.2003 34.9224 11.4239L34.8412 11.9108L38.3845 12.614V12.5599C38.3856 12.5406 38.3869 12.5212 38.3881 12.5019C38.3988 12.3416 38.4137 12.1838 38.4331 12.0292C38.4339 12.0226 38.4348 12.016 38.4356 12.0095C38.4529 11.8747 38.4736 11.7424 38.4978 11.6133C38.5635 11.2635 38.6553 10.9366 38.7755 10.6438C39.1242 9.79498 39.7128 9.23307 40.6024 9.23307C40.7148 9.23307 40.823 9.24248 40.927 9.26063C41.9239 9.43468 42.5228 10.4131 42.5228 11.6133C42.5228 11.9291 42.5005 12.241 42.4466 12.5599C42.4435 12.5779 42.4404 12.596 42.4371 12.614C42.4261 12.6756 42.4138 12.7375 42.4003 12.7997C42.2237 13.6128 41.8325 14.4878 41.0795 15.5999C40.9353 15.8129 40.7778 16.0345 40.6061 16.266C40.6011 16.2727 40.5961 16.2795 40.5911 16.2862C40.5853 16.294 40.5795 16.3019 40.5736 16.3097C40.4793 16.4362 40.3808 16.5656 40.2778 16.6982L35.1388 23.2978V25.7321H46.7963V22.7028H39.0607L42.9285 18.3752ZM28.4681 11.4025C28.3899 12.3704 28.5344 13.3143 28.8627 14.1778C28.7925 13.0497 28.6601 12.1281 28.4681 11.4025Z" fill="black"/>
<path fill-rule="evenodd" clip-rule="evenodd" d="M28.9079 17.3381C28.7957 21.3773 28.0238 23.2167 26.6772 23.2167C25.3546 23.2167 24.5846 21.3748 24.4733 17.3299C24.464 16.9906 24.4593 16.6359 24.4593 16.2655C24.4593 15.895 24.464 15.5403 24.4733 15.201C24.5846 11.1561 25.3546 9.31422 26.6772 9.31422C28.0238 9.31422 28.7957 11.1536 28.9079 15.1928C28.9174 15.5345 28.9221 15.892 28.9221 16.2655C28.9221 16.6389 28.9174 16.9964 28.9079 17.3381ZM16.0107 25.7321C16.2257 26.1469 16.4595 26.5512 16.713 26.9436C18.8269 30.2146 22.3057 32.5309 26.6772 32.5309C31.0457 32.5309 34.5344 30.2305 36.6602 26.9511C36.916 26.5563 37.1518 26.1495 37.3685 25.7321H35.1391V23.2978L39.3804 17.8512C39.4115 17.3239 39.4265 16.7947 39.4265 16.2655C39.4265 14.3519 39.2321 12.4388 38.7861 10.6191C38.5559 11.1685 38.4277 11.8408 38.3848 12.5599V12.614L34.8416 11.9108L34.9227 11.4239C34.9343 11.3568 34.9467 11.2903 34.9601 11.2244C35.3153 9.46729 36.2926 8.11858 37.6218 7.29829C37.3383 6.69934 37.0177 6.12008 36.657 5.56484C34.5221 2.2778 31.0291 0 26.6772 0C22.3057 0 18.8269 2.3163 16.713 5.5873C16.3683 6.1208 16.06 6.67644 15.786 7.2504C17.2877 8.17272 18.1327 9.75929 18.1327 11.6133C18.1327 13.269 17.5023 14.6506 16.2708 16.2655C15.7721 16.9193 15.175 17.6113 14.4812 18.3752L14.0776 18.8268C14.2078 20.15 14.4456 21.4526 14.8098 22.7028H18.3491V25.7321H16.0107ZM20.348 16.2655C20.348 22.3241 22.8635 26.1378 26.6772 26.1378C30.518 26.1378 33.0334 22.3241 33.0334 16.2655C33.0334 10.1797 30.518 6.39307 26.6772 6.39307C22.8635 6.39307 20.348 10.2068 20.348 16.2655Z" fill="black"/>
<path fill-rule="evenodd" clip-rule="evenodd" d="M6.69151 32.1252C3.16071 32.1252 0.298433 29.2629 0.298433 25.7321V23.2978C0.298433 21.8749 0.77313 20.4927 1.64735 19.37L3.16005 17.4274C0.935315 16.1232 -0.35925 13.5426 0.0878941 10.8598L0.169037 10.3729L0.175007 10.3377C1.27474 3.95928 6.57321 0 12.4797 0C15.643 0 18.7248 1.0472 21.0565 3.28987C22.2671 4.45426 23.1556 5.82768 23.7302 7.30737C22.478 8.18193 21.5202 9.65669 20.9488 11.6133C20.5581 12.9513 20.348 14.5146 20.348 16.2655C20.348 16.3877 20.349 16.509 20.3511 16.6295C20.3769 18.1551 20.5656 19.532 20.8967 20.7338C21.0954 21.4551 21.3454 22.1133 21.6423 22.7028C22.3776 24.1624 23.4004 25.2009 24.6442 25.7321C24.6766 25.746 24.7092 25.7595 24.742 25.7727C24.7202 29.2848 21.8663 32.1252 18.349 32.1252H6.69151ZM18.349 25.7321V22.7028H10.6134L14.4812 18.3752C15.1593 17.6285 15.7452 16.9505 16.2369 16.3097C17.4907 14.6758 18.1327 13.2841 18.1327 11.6133C18.1327 8.66507 15.9959 6.39307 12.4797 6.39307C12.3708 6.39307 12.2626 6.39561 12.1551 6.40065C11.8104 6.4168 11.4731 6.4587 11.1457 6.5253C8.98346 6.96499 7.24846 8.48125 6.61997 10.7721C6.56215 10.9829 6.51369 11.2003 6.47513 11.4239L6.39398 11.9108L9.93722 12.614V12.5599C9.93838 12.5406 9.9396 12.5212 9.94088 12.5019C9.95151 12.3416 9.96643 12.1838 9.98582 12.0292C9.98665 12.0226 9.98749 12.016 9.98833 12.0095C10.0056 11.8747 10.0263 11.7424 10.0506 11.6133C10.1163 11.2635 10.208 10.9366 10.3283 10.6438C10.6769 9.79498 11.2655 9.23307 12.1551 9.23307C12.2675 9.23307 12.3758 9.24248 12.4797 9.26062C13.4766 9.43468 14.0755 10.4131 14.0755 11.6133C14.0755 11.9291 14.0532 12.241 13.9993 12.5599C13.9963 12.5779 13.9931 12.596 13.9899 12.614C13.9788 12.6756 13.9665 12.7375 13.953 12.7997C13.7764 13.6128 13.3853 14.4878 12.6322 15.5999C12.488 15.8129 12.3306 16.0345 12.1588 16.266C12.1538 16.2727 12.1489 16.2795 12.1439 16.2862C12.138 16.294 12.1322 16.3019 12.1263 16.3097C12.032 16.4362 11.9335 16.5656 11.8306 16.6982L6.69151 23.2978V25.7321H18.349Z" fill="black"/>
</svg>
