<svg width="58" height="61" viewBox="0 0 58 61" fill="none" xmlns="http://www.w3.org/2000/svg">
<g clip-path="url(#clip0_270_2817)">
<path d="M54.8401 41.7301H42.0601V51.0501H54.8701V59.0801H33.8201V33.8401H54.8401V41.7301Z" fill="black"/>
<path d="M49.7399 12.91C49.7399 10.02 47.4499 7.70996 44.5699 7.69996C41.7099 7.69996 39.3799 9.99996 39.3499 12.88C39.3299 15.72 41.6899 18.09 44.5399 18.09C47.4199 18.09 49.7399 15.78 49.7399 12.91ZM57.0399 12.89C57.0399 19.79 51.4399 25.41 44.5399 25.38C37.5299 25.35 31.9799 19.62 32.0799 12.71C32.1799 5.79996 37.9399 0.259958 44.8399 0.409958C51.5199 0.559958 57.0499 6.05996 57.0399 12.88" fill="black"/>
<path d="M12.8599 13.1101C10.7699 13.1101 9.07991 14.7801 9.06991 16.8601C9.06991 18.9501 10.7499 20.6501 12.8199 20.6501C14.8799 20.6501 16.5899 18.9801 16.5999 16.9501C16.6099 14.7901 14.9699 13.1101 12.8499 13.1001M2.67991 12.3101H0.909912V5.82007H24.2999V12.2801H22.9099C24.0399 14.9201 24.2299 17.5801 23.3499 20.2701C22.4699 22.9601 20.7899 25.0201 18.3499 26.4401C14.4399 28.7101 9.55991 28.4401 6.02991 25.5401C1.73991 22.0301 0.849912 17.5201 2.68991 12.3201" fill="black"/>
<path d="M0 57.12C4.29 49.06 8.57 41.03 12.87 32.97C17.22 41.03 21.55 49.04 25.89 57.09C23.37 58.09 20.88 59.08 18.34 60.09C16.55 56.18 14.76 52.28 12.94 48.3C11.13 52.27 9.36 56.17 7.57 60.1C5.04 59.1 2.54 58.11 0.01 57.12" fill="black"/>
<path d="M19.46 0H5.72998V4.88H19.46V0Z" fill="black"/>
</g>
<defs>
<clipPath id="clip0_270_2817">
<rect width="57.04" height="60.1" fill="white"/>
</clipPath>
</defs>
</svg>
