<svg width="281" height="248" viewBox="0 0 281 248" fill="none" xmlns="http://www.w3.org/2000/svg">
<rect width="281" height="248" fill="white"/>
<g clip-path="url(#clip0_224_13805)">
<path d="M224.228 207.793L221.814 215.498C187.515 195.941 145.778 188.588 137.768 198.223C137.768 187.688 104.391 179.413 62.3022 187.644L65.528 180.334" stroke="#1D1D1B" stroke-width="1.8" stroke-linejoin="round"/>
<path d="M189.292 59.3264L137.79 198.223C144.175 180.708 203.38 194.316 229.977 211.108L271.012 73.6814C244.921 59.2825 214.748 49.9978 189.27 59.3484L189.292 59.3264Z" stroke="#1D1D1B" stroke-width="1.8" stroke-linejoin="round"/>
<path d="M189.293 59.3264L137.79 198.223C137.549 187.534 125.15 176.493 57.0796 180.817L111.808 52.3025C141.806 45.9591 174.7 41.657 189.271 59.3264H189.293Z" stroke="#1D1D1B" stroke-width="1.8" stroke-linejoin="round"/>
<path d="M10.6895 84.0412C10.8431 84.2388 10.9967 84.4363 11.1942 84.5899C31.3389 102.347 58.1984 126.009 78.3431 143.766C78.7162 144.095 79.155 144.315 79.6378 144.468C80.0986 144.6 80.6033 144.622 81.13 144.556L133.006 136.83C133.554 136.742 134.059 136.567 134.52 136.303C134.981 136.04 135.398 135.689 135.727 135.293C136.056 134.898 136.319 134.437 136.495 133.933C136.671 133.428 136.758 132.923 136.714 132.374L134.674 95.5647C134.652 95.038 134.52 94.577 134.301 94.16L134.147 93.8527L134.213 93.9185L76.6315 25.2603C76.7631 25.4139 76.8729 25.5675 76.9606 25.7212C77.0484 25.8748 77.1362 26.0724 77.202 26.248C77.2678 26.4236 77.3337 26.6211 77.3776 26.8406C77.4215 27.0601 77.4434 27.2577 77.4434 27.4772" fill="white"/>
<path d="M10.6895 84.0412C10.8431 84.2388 10.9967 84.4363 11.1942 84.5899C31.3389 102.347 58.1984 126.009 78.3431 143.766C78.7162 144.095 79.155 144.315 79.6378 144.468C80.0986 144.6 80.6033 144.622 81.13 144.556L133.006 136.83C133.554 136.742 134.059 136.567 134.52 136.303C134.981 136.04 135.398 135.689 135.727 135.293C136.056 134.898 136.319 134.437 136.495 133.933C136.671 133.428 136.758 132.923 136.714 132.374L134.674 95.5647C134.652 95.038 134.52 94.577 134.301 94.16L134.147 93.8527L134.213 93.9185L76.6315 25.2603C76.7631 25.4139 76.8729 25.5675 76.9606 25.7212C77.0484 25.8748 77.1362 26.0724 77.202 26.248C77.2678 26.4236 77.3337 26.6211 77.3776 26.8406C77.4215 27.0601 77.4434 27.2577 77.4434 27.4772" stroke="#1D1D1B" stroke-width="1.8" stroke-linejoin="round"/>
<path d="M72.8572 24.076C73.4716 23.9662 74.0641 23.9662 74.5908 24.076C75.1174 24.1857 75.6221 24.4052 76.0391 24.7125C76.456 25.0198 76.7852 25.4149 77.0265 25.8758C77.2679 26.3368 77.3996 26.8855 77.4215 27.4781L78.7382 69.7311C78.7382 70.3457 78.6504 70.9603 78.431 71.5309C78.2115 72.1016 77.9043 72.6504 77.4874 73.1113C77.0704 73.5723 76.6096 73.9893 76.061 74.3185C75.5124 74.6478 74.9199 74.8673 74.3055 74.977L14.3542 85.3811C13.7398 85.4909 13.1692 85.4689 12.6645 85.3372C12.1598 85.2055 11.677 84.9641 11.282 84.6348C10.887 84.3056 10.5798 83.8886 10.3604 83.4057C10.1409 82.9228 10.0093 82.374 10.0093 81.7594V40.2967C10.0093 39.726 10.119 39.1334 10.3384 38.6066C10.5579 38.0798 10.8651 37.553 11.2601 37.0921C11.6551 36.6311 12.094 36.236 12.6206 35.9287C13.1473 35.6214 13.6959 35.4019 14.2884 35.2922L72.8572 24.076Z" fill="white" stroke="#1D1D1B" stroke-width="1.8" stroke-linejoin="round"/>
<path d="M72.8572 24.076C73.4716 23.9662 74.0641 23.9662 74.5908 24.076C75.1174 24.1857 75.6221 24.4052 76.0391 24.7125C76.456 25.0198 76.7852 25.4149 77.0265 25.8758C77.2679 26.3368 77.3996 26.8855 77.4215 27.4781L78.7382 69.7311C78.7382 70.3457 78.6504 70.9603 78.431 71.5309C78.2115 72.1016 77.9043 72.6504 77.4874 73.1113C77.0704 73.5723 76.6096 73.9893 76.061 74.3185C75.5124 74.6478 74.9199 74.8673 74.3055 74.977L14.3542 85.3811C13.7398 85.4909 13.1692 85.4689 12.6645 85.3372C12.1598 85.2055 11.677 84.9641 11.282 84.6348C10.887 84.3056 10.5798 83.8886 10.3604 83.4057C10.1409 82.9228 10.0093 82.374 10.0093 81.7594V40.2967C10.0093 39.726 10.119 39.1334 10.3384 38.6066C10.5579 38.0798 10.8651 37.553 11.2601 37.0921C11.6551 36.6311 12.094 36.236 12.6206 35.9287C13.1473 35.6214 13.6959 35.4019 14.2884 35.2922L72.8572 24.076Z" fill="white" stroke="#1D1D1B" stroke-width="1.8" stroke-linejoin="round"/>
<path d="M78.7384 69.731L136.693 132.353C136.715 132.88 136.649 133.407 136.473 133.912C136.298 134.416 136.034 134.855 135.705 135.272C135.376 135.689 134.959 136.019 134.498 136.282C134.038 136.545 133.533 136.743 132.984 136.809L74.3276 74.9769C74.964 74.8672 75.5565 74.6477 76.0832 74.3184C76.6098 73.9892 77.0926 73.5941 77.5095 73.1112C77.9265 72.6283 78.2337 72.1015 78.4531 71.5308C78.6726 70.9601 78.7823 70.3455 78.7603 69.731H78.7384Z" fill="white" stroke="#1D1D1B" stroke-width="1.8" stroke-linejoin="round"/>
<path d="M29.781 39.6594C26.0505 40.3618 23.0661 44.2908 23.088 48.4392C23.11 52.5877 26.1163 55.5509 29.8907 54.8924C33.6651 54.2339 36.6495 50.2171 36.6056 45.9809C36.5617 41.7446 33.4676 38.979 29.781 39.6594ZM29.8248 49.3392C28.8374 49.5147 27.9815 48.7246 27.9815 47.5612C27.9815 46.3979 28.7935 45.3004 29.8029 45.1248C30.8123 44.9492 31.5804 45.7394 31.6023 46.9028C31.6243 48.0661 30.7904 49.1636 29.8248 49.3392Z" fill="black"/>
<path d="M49.5076 51.0948L37.1751 53.2898L36.9995 38.6055L42.0247 37.6836L42.1564 46.6171C42.1564 47.2756 42.683 47.6707 43.2316 47.5609C43.89 47.4512 44.3069 46.8805 44.285 46.222L44.1313 37.2666L49.2004 36.3228L49.5076 51.0948Z" fill="black"/>
<path d="M60.9855 42.8643C61.5341 41.8766 61.8194 40.7572 61.7974 39.5938C61.7097 36.5209 59.2519 34.4796 56.2895 35.0503L49.8599 36.2356L50.1671 51.0076L55.3239 50.0857L55.2362 46.4202L57.1014 46.0909L57.1892 49.7565L62.368 48.8346L62.1924 42.6668L61.0075 42.8863L60.9855 42.8643ZM55.7628 42.3375C55.0606 42.4692 54.4242 41.9205 54.4242 41.1084C54.4242 40.2962 54.9948 39.506 55.697 39.3743C56.3992 39.2426 57.0136 39.7914 57.0356 40.6255C57.0575 41.4596 56.487 42.2058 55.7848 42.3375H55.7628Z" fill="black"/>
<path d="M15.0126 59.1729L20.1256 58.2729V73.1987L14.9468 74.0766L15.0126 59.1729Z" fill="black"/>
<path d="M20.7622 58.1633L32.8973 56.0122L33.029 71.0257L27.9379 71.8817L27.894 62.7068C27.894 62.0264 27.3893 61.6313 26.8407 61.741C26.1824 61.8508 25.7874 62.4215 25.7874 63.08L25.8313 72.2549L20.7842 73.1109V58.1852L20.7622 58.1633Z" fill="black"/>
<path d="M39.9838 54.7607L33.5322 55.9021L33.6639 70.9156L40.1813 69.8181C43.9118 69.1816 46.9401 65.2526 46.8523 61.0822C46.7645 56.9118 43.6704 54.1022 39.9618 54.7607H39.9838ZM39.8741 64.4624C38.8646 64.638 38.0088 63.8039 37.9869 62.6186C37.9649 61.4334 38.7988 60.3139 39.8082 60.1383C40.8177 59.9627 41.6515 60.7968 41.6735 61.9821C41.6954 63.1674 40.8835 64.2868 39.8741 64.4624Z" fill="black"/>
<path d="M47.2046 53.4884L57.233 51.7104L57.3647 56.8027L52.9539 57.571C52.4712 57.6588 52.142 58.1197 52.164 58.7124C52.1859 59.305 52.537 59.6562 52.9978 59.5684L54.4681 59.305L54.5339 62.2243L57.4964 61.7195L57.628 66.8776L47.4899 68.5897L47.2046 53.4884Z" fill="black"/>
<path d="M57.9571 57.7469L59.2079 57.5275L57.6279 51.645L63.5089 50.6133L63.6406 54.9813C63.6845 56.2983 65.045 56.0568 65.0011 54.7399L64.8695 50.3719L71.1235 49.2744L69.8947 55.6837L71.1674 55.4642L71.4966 64.5513L66.2081 65.4512L66.0545 60.7101L63.3553 61.1711L63.487 65.8902L58.2424 66.7682L58.001 57.725L57.9571 57.7469Z" fill="black"/>
<path d="M215.099 211.854L213.431 217.012C191.443 204.567 152.251 192.275 137.79 198.224C128.508 187.995 98.5101 184.329 65.7695 191.902L67.942 186.502" stroke="#1D1D1B" stroke-width="1.8" stroke-linejoin="round"/>
</g>
<defs>
<clipPath id="clip0_224_13805">
<rect width="263" height="195" fill="white" transform="translate(9 23)"/>
</clipPath>
</defs>
</svg>
