<svg width="165" height="249" viewBox="0 0 165 249" fill="none" xmlns="http://www.w3.org/2000/svg">
<rect width="165" height="249" fill="white"/>
<g clip-path="url(#clip0_270_1973)">
<path d="M128.66 11.98C134.66 11.14 139.52 15.7 139.5 22.18L139.14 215.56C139.14 222.06 134.24 228 128.24 228.84L45.9201 241.66C39.9001 242.5 35.0401 237.94 35.0601 231.44L35.4201 38.06C35.4201 31.58 40.3201 25.64 46.3201 24.8L128.66 11.98Z" stroke="#1D1D1B" stroke-width="1.8" stroke-linejoin="round"/>
<path d="M128.66 11.98C134.66 11.14 139.52 15.7 139.5 22.18L139.14 215.56C139.14 222.06 134.24 228 128.24 228.84L45.9201 241.66C39.9001 242.5 35.0401 237.94 35.0601 231.44L35.4201 38.06C35.4201 31.58 40.3201 25.64 46.3201 24.8L128.66 11.98Z" stroke="#1D1D1B" stroke-width="1.8" stroke-linejoin="round"/>
<path d="M40.12 240.66L30.94 235.68C27.9 234.02 25.88 230.64 25.9 226.46L35.08 231.44C35.08 235.62 37.08 239 40.12 240.66Z" stroke="#1D1D1B" stroke-width="1.8" stroke-linejoin="round"/>
<path d="M40.12 240.66L30.94 235.68C27.9 234.02 25.88 230.64 25.9 226.46L35.08 231.44C35.08 235.62 37.08 239 40.12 240.66Z" stroke="#1D1D1B" stroke-width="1.8" stroke-linejoin="round"/>
<path d="M35.0799 231.44L25.8999 226.46L26.2599 33.08L35.4399 38.08L35.0799 231.44Z" stroke="#1D1D1B" stroke-width="1.8" stroke-linejoin="round"/>
<path d="M35.44 38.0799L26.26 33.0799C26.26 26.5999 31.16 20.6599 37.16 19.8199L46.34 24.7999C40.32 25.6399 35.44 31.5799 35.44 38.0599V38.0799Z" stroke="#1D1D1B" stroke-width="1.8" stroke-linejoin="round"/>
<path d="M35.44 38.0799L26.26 33.0799C26.26 26.5999 31.16 20.6599 37.16 19.8199L46.34 24.7999C40.32 25.6399 35.44 31.5799 35.44 38.0599V38.0799Z" stroke="#1D1D1B" stroke-width="1.8" stroke-linejoin="round"/>
<path d="M134.46 12.98C132.78 12.06 130.8 11.68 128.64 11.98L46.3399 24.82L37.1799 19.84L119.48 6.99999C121.62 6.69999 123.62 7.07999 125.3 7.99999L134.46 12.98Z" stroke="#1D1D1B" stroke-width="1.8" stroke-linejoin="round"/>
<path d="M78.78 193.64C78.78 186.32 84.86 179.92 92.26 179.36C99.52 178.82 105.32 184.16 105.32 191.26C105.32 198.36 99.52 204.74 92.26 205.5C85 206.26 78.78 200.96 78.78 193.64Z" stroke="#1D1D1B" stroke-width="1.8" stroke-linejoin="round"/>
<path d="M81.6399 193.4C81.6399 187.62 86.4399 182.56 92.2599 182.1C98.0199 181.66 102.64 185.88 102.64 191.52C102.64 197.16 98.0199 202.2 92.2599 202.78C86.4999 203.36 81.6399 199.16 81.6399 193.38V193.4Z" stroke="#1D1D1B" stroke-width="1.8" stroke-linejoin="round"/>
<path d="M133.38 17.7C132.5 16.82 131.36 16.36 130.08 16.36C129.82 16.36 129.56 16.36 129.36 16.4L108 19.72V23.52C108 24.74 107 25.9 105.78 26.1L73.8801 31.2C72.5201 31.42 71.4401 30.54 71.4401 29.26V25.42L47.0001 29.22C43.1801 29.76 39.9401 33.8 39.9401 38.06L39.5801 213.54C39.5801 215.36 40.1601 216.96 41.2401 218.04C42.1201 218.92 43.2601 219.38 44.5601 219.38C44.8201 219.38 45.0801 219.38 45.3001 219.34L127.68 206.5C131.48 205.96 134.72 201.9 134.72 197.64L135.08 22.16C135.08 20.34 134.5 18.76 133.42 17.68L133.38 17.7Z" stroke="#1D1D1B" stroke-width="1.8" stroke-linejoin="round"/>
<path d="M71.24 39.52C65.96 40.32 61.74 45.1 61.74 50.12C61.74 55.18 65.96 58.66 71.24 57.84C76.4 57.04 80.68 52.26 80.68 47.2C80.68 42.14 76.4 38.72 71.24 39.52ZM71.22 51.22C69.82 51.44 68.66 50.5 68.66 49.08C68.66 47.66 69.82 46.36 71.22 46.16C72.62 45.96 73.72 46.92 73.72 48.3C73.72 49.68 72.58 51 71.22 51.22Z" fill="black"/>
<path d="M98.2401 53.32L81.3401 55.9199V38.32L88.3201 37.24V47.9799C88.3201 48.78 89.0201 49.2399 89.7801 49.1199C90.6801 48.9799 91.2601 48.32 91.2601 47.52V36.78L98.2401 35.7V53.2999V53.32Z" fill="black"/>
<path d="M114 43.6201C114.76 42.4401 115.2 41.1201 115.2 39.7401C115.2 36.1001 111.96 33.6201 107.92 34.2401L99.1201 35.6001V53.2001L106.1 52.1201V47.7801L108.62 47.4001V51.7401L115.6 50.6601V43.3801L114 43.6201ZM107 42.9601C106.04 43.1001 105.22 42.4401 105.22 41.4801C105.22 40.5201 106.04 39.5801 107 39.4201C107.96 39.2601 108.76 39.9401 108.76 40.9201C108.76 41.9001 107.96 42.8001 107 42.9401V42.9601Z" fill="black"/>
<path d="M50.3601 63.0606L57.5801 61.9406V79.5606L50.3601 80.6806V63.0606Z" fill="black"/>
<path d="M58.46 61.8001L75.4 59.1801V76.7801L68.4 77.8601V67.1201C68.4 66.3201 67.7 65.8601 66.94 65.9801C66.04 66.1201 65.46 66.7801 65.46 67.5801V78.3201L58.46 79.4001V61.7801V61.8001Z" fill="black"/>
<path d="M85.18 57.6806L76.28 59.0606V76.6606L85.18 75.2806C90.24 74.5006 94.42 69.8806 94.42 65.0606C94.42 60.2406 90.26 56.9006 85.18 57.6806ZM84.86 69.0606C83.48 69.2806 82.32 68.3006 82.32 66.9206C82.32 65.5406 83.46 64.2206 84.86 64.0006C86.26 63.7806 87.38 64.7606 87.38 66.1406C87.38 67.5206 86.26 68.8406 84.86 69.0606Z" fill="black"/>
<path d="M95.0801 56.14L108.66 54.04V59.98L102.72 60.9C102.08 61 101.62 61.56 101.62 62.24C101.62 62.92 102.08 63.34 102.72 63.24L104.7 62.94V66.32L108.66 65.7V71.64L95.0801 73.74V56.14Z" fill="black"/>
<path d="M109.42 61.08L111.1 60.82L109.18 53.9799L117.06 52.7599V57.86C117.06 59.38 118.88 59.1 118.88 57.58V52.4799L127.18 51.2L125.26 58.6399L126.92 58.38V68.82L119.96 69.9V64.4799L116.38 65.04V70.4599L109.4 71.54V61.0999L109.42 61.08Z" fill="black"/>
</g>
<defs>
<clipPath id="clip0_270_1973">
<rect width="115.4" height="236.66" fill="white" transform="translate(25 6)"/>
</clipPath>
</defs>
</svg>
