<svg width="281" height="248" viewBox="0 0 281 248" fill="none" xmlns="http://www.w3.org/2000/svg">
<g clip-path="url(#clip0_270_1954)">
<rect width="281" height="248" fill="white"/>
<path d="M224.228 207.793L221.814 215.498C187.515 195.941 145.778 188.588 137.768 198.223C137.768 187.688 104.391 179.413 62.3022 187.644L65.528 180.334" stroke="#1D1D1B" stroke-width="1.8" stroke-linejoin="round"/>
<path d="M189.292 59.3265L137.789 198.223C144.175 180.708 203.38 194.316 229.976 211.108L271.012 73.6816C244.92 59.2826 214.747 49.998 189.27 59.3485L189.292 59.3265Z" stroke="#1D1D1B" stroke-width="1.8" stroke-linejoin="round"/>
<path d="M189.293 59.3265L137.79 198.223C137.549 187.534 125.15 176.493 57.0796 180.817L111.808 52.3027C141.806 45.9592 174.7 41.6571 189.271 59.3265H189.293Z" stroke="#1D1D1B" stroke-width="1.8" stroke-linejoin="round"/>
<path d="M215.099 211.854L213.431 217.012C191.443 204.567 152.251 192.275 137.79 198.223C128.507 187.995 98.5099 184.329 65.7693 191.902L67.9418 186.502" stroke="#1D1D1B" stroke-width="1.8" stroke-linejoin="round"/>
<path d="M12.3445 53.6691C12.4499 53.8961 12.5552 54.123 12.7132 54.3171C28.3594 76.1419 49.2243 105.227 64.8706 127.052C65.1602 127.457 65.5387 127.769 65.9746 128.027C66.3942 128.259 66.8811 128.394 67.4091 128.448L119.696 132.559C120.25 132.597 120.781 132.539 121.289 132.386C121.798 132.232 122.283 131.984 122.692 131.673C123.102 131.361 123.462 130.971 123.746 130.519C124.03 130.066 124.229 129.594 124.31 129.049L130.581 92.7207C130.678 92.2024 130.653 91.7237 130.533 91.268L130.452 90.9341L130.501 91.0131L89.7952 11.1846C89.889 11.3638 89.9615 11.5382 90.0126 11.7076C90.0636 11.877 90.1048 12.0892 90.1296 12.2751C90.1543 12.461 90.1741 12.6683 90.1677 12.8921C90.1612 13.1158 90.1382 13.3132 90.089 13.5271" fill="white"/>
<path d="M12.3445 53.6691C12.4499 53.8961 12.5552 54.123 12.7132 54.3171C28.3594 76.1419 49.2243 105.227 64.8706 127.052C65.1602 127.457 65.5387 127.769 65.9746 128.027C66.3942 128.259 66.8811 128.394 67.4091 128.448L119.696 132.559C120.25 132.597 120.781 132.539 121.289 132.386C121.798 132.232 122.283 131.984 122.692 131.673C123.102 131.361 123.462 130.971 123.746 130.519C124.03 130.066 124.229 129.594 124.31 129.049L130.581 92.7207C130.678 92.2024 130.653 91.7237 130.533 91.268L130.452 90.9341L130.501 91.0131L89.7952 11.1846C89.889 11.3638 89.9615 11.5382 90.0126 11.7076C90.0636 11.877 90.1048 12.0892 90.1296 12.2751C90.1543 12.461 90.1741 12.6683 90.1677 12.8921C90.1612 13.1158 90.1382 13.3132 90.089 13.5271" stroke="#1D1D1B" stroke-width="1.8" stroke-linejoin="round"/>
<path d="M86.3829 9.18325C87.0063 9.21418 87.5836 9.34713 88.0722 9.57226C88.5608 9.7974 89.0034 10.1246 89.3408 10.5176C89.6781 10.9106 89.9102 11.3695 90.042 11.8728C90.1738 12.3762 90.179 12.9405 90.0674 13.5229L81.8689 54.9937C81.731 55.5926 81.5076 56.1719 81.1657 56.6788C80.8237 57.1856 80.4012 57.6515 79.8915 58.0071C79.3817 58.3627 78.8391 58.6657 78.2306 58.8634C77.6221 59.0612 76.9955 59.1421 76.3721 59.1112L15.6151 55.7969C14.9917 55.766 14.4406 55.6166 13.9783 55.375C13.516 55.1334 13.0997 54.7898 12.7887 54.3803C12.4777 53.9708 12.2719 53.4954 12.1664 52.9756C12.0609 52.4558 12.0557 51.8915 12.1936 51.2926L21.4979 10.8873C21.6259 10.3311 21.8658 9.77824 22.1979 9.31412C22.5299 8.85001 22.9475 8.40559 23.4359 8.04505C23.9242 7.6845 24.4406 7.39796 25.0228 7.21669C25.605 7.03541 26.1888 6.94462 26.7908 6.97063L86.3829 9.18325Z" fill="white" stroke="#1D1D1B" stroke-width="1.8" stroke-linejoin="round"/>
<path d="M86.3829 9.18325C87.0063 9.21418 87.5836 9.34713 88.0722 9.57226C88.5608 9.7974 89.0034 10.1246 89.3408 10.5176C89.6781 10.9106 89.9102 11.3695 90.042 11.8728C90.1738 12.3762 90.179 12.9405 90.0674 13.5229L81.8689 54.9937C81.731 55.5926 81.5076 56.1719 81.1657 56.6788C80.8237 57.1856 80.4012 57.6515 79.8915 58.0071C79.3817 58.3627 78.8391 58.6657 78.2306 58.8634C77.6221 59.0612 76.9955 59.1421 76.3721 59.1112L15.6151 55.7969C14.9917 55.766 14.4406 55.6166 13.9783 55.375C13.516 55.1334 13.0997 54.7898 12.7887 54.3803C12.4777 53.9708 12.2719 53.4954 12.1664 52.9756C12.0609 52.4558 12.0557 51.8915 12.1936 51.2926L21.4979 10.8873C21.6259 10.3311 21.8658 9.77824 22.1979 9.31412C22.5299 8.85001 22.9475 8.40559 23.4359 8.04505C23.9242 7.6845 24.4406 7.39796 25.0228 7.21669C25.605 7.03541 26.1888 6.94462 26.7908 6.97063L86.3829 9.18325Z" fill="white" stroke="#1D1D1B" stroke-width="1.8" stroke-linejoin="round"/>
<path d="M81.8691 54.9936L124.293 129.024C124.196 129.542 124.014 130.04 123.73 130.493C123.445 130.946 123.09 131.314 122.676 131.647C122.261 131.979 121.781 132.207 121.273 132.36C120.765 132.513 120.229 132.592 119.679 132.534L76.3936 59.1159C77.0384 59.1518 77.665 59.0709 78.2521 58.8682C78.8392 58.6655 79.3984 58.3888 79.913 58.0118C80.4277 57.6348 80.8453 57.1904 81.1872 56.6835C81.5291 56.1766 81.7739 55.6023 81.8905 54.9985L81.8691 54.9936Z" fill="white" stroke="#1D1D1B" stroke-width="1.8" stroke-linejoin="round"/>
<path d="M40.9083 14.703C37.1153 14.5504 33.3253 17.7094 32.4158 21.757C31.5063 25.8046 33.771 29.3669 37.5969 29.5721C41.4228 29.7774 45.2324 26.5328 46.1403 22.3947C47.0481 18.2566 44.6535 14.8672 40.9083 14.703ZM38.7789 24.1458C37.7772 24.0953 37.1205 23.1332 37.3816 21.9995C37.6426 20.8659 38.6801 19.9786 39.7032 20.034C40.7263 20.0894 41.2974 21.0318 41.0578 22.1704C40.8181 23.3089 39.7592 24.1913 38.7789 24.1458Z" fill="black"/>
<path d="M57.5659 30.2737L45.0553 29.6452L48.1794 15.2961L53.2833 15.5254L51.407 24.2605C51.2592 24.9022 51.6838 25.4054 52.243 25.4216C52.9092 25.4624 53.4435 24.9998 53.5699 24.3532L55.4298 15.5917L60.5814 15.8094L57.5659 30.2737Z" fill="black"/>
<path d="M70.5982 24.8284C71.3545 23.989 71.8837 22.9621 72.1233 21.8235C72.7274 18.8092 70.7904 16.2685 67.7754 16.1598L61.2438 15.8721L58.2283 30.3363L63.4606 30.5952L64.1976 27.0034L66.0891 27.1011L65.3521 30.6929L70.6057 30.9566L71.8187 24.9067L70.6147 24.8547L70.5982 24.8284ZM65.6269 23.1431C64.9131 23.1138 64.4161 22.4363 64.5983 21.6449C64.7806 20.8534 65.5139 20.2114 66.2277 20.2407C66.9416 20.2699 67.4172 20.9425 67.2514 21.7603C67.0856 22.578 66.3622 23.1772 65.6483 23.148L65.6269 23.1431Z" fill="black"/>
<path d="M22.1378 30.4046L27.3224 30.6749L23.973 45.22L18.7293 44.9135L22.1378 30.4046Z" fill="black"/>
<path d="M27.9673 30.7113L40.2756 31.3382L37.0348 45.9984L31.8816 45.6902L33.8976 36.7394C34.0503 36.0763 33.6471 35.578 33.0879 35.5619C32.4217 35.5211 31.9088 35.9886 31.761 36.6303L29.7449 45.5811L24.6344 45.2827L27.9837 30.7376L27.9673 30.7113Z" fill="black"/>
<path d="M47.4623 31.7087L40.9192 31.3732L37.6785 46.0334L44.2759 46.4264C48.0541 46.6432 51.8868 43.494 52.7371 39.4102C53.5874 35.3265 51.2027 31.8942 47.441 31.7037L47.4623 31.7087ZM45.1784 41.1383C44.1553 41.0829 43.5084 40.0781 43.753 38.9181C43.9976 37.7581 45.0614 36.8544 46.0845 36.9098C47.1076 36.9652 47.7331 37.9651 47.4885 39.1251C47.2439 40.2851 46.2014 41.1937 45.1784 41.1383Z" fill="black"/>
<path d="M54.7841 32.089L64.9558 32.6068L63.9414 37.5988L59.4707 37.3577C58.9806 37.3349 58.5564 37.7102 58.4448 38.2927C58.3332 38.8751 58.5965 39.2961 59.0653 39.314L60.5571 39.3872L59.9662 42.2469L62.9664 42.4197L61.9372 47.4758L51.6734 46.8692L54.7841 32.089Z" fill="black"/>
<path d="M64.307 38.6517L65.5752 38.7185L65.3555 32.6315L71.318 32.9459L70.4662 37.232C70.2134 38.5252 71.5934 38.5953 71.8462 37.302L72.698 33.0159L79.0389 33.3498L76.4031 39.3199L77.6927 39.3916L75.9743 48.3208L70.6187 48.0111L71.5329 43.3564L68.7992 43.1999L67.8685 47.8283L62.5606 47.507L64.3547 38.6402L64.307 38.6517Z" fill="black"/>
</g>
<defs>
<clipPath id="clip0_270_1954">
<rect width="281" height="248" fill="white"/>
</clipPath>
</defs>
</svg>
