<svg width="281" height="249" viewBox="0 0 281 249" fill="none" xmlns="http://www.w3.org/2000/svg">
<rect width="281" height="249" fill="white"/>
<g clip-path="url(#clip0_224_13824)">
<path d="M185.81 11.9801C191.81 11.1401 196.67 15.7001 196.65 22.1801L196.29 215.56C196.29 222.06 191.39 228 185.39 228.84L103.07 241.66C97.05 242.5 92.19 237.94 92.21 231.44L92.57 38.0601C92.57 31.5801 97.47 25.6401 103.47 24.8001L185.81 11.9801Z" stroke="#1D1D1B" stroke-width="1.8" stroke-linejoin="round"/>
<path d="M185.81 11.9801C191.81 11.1401 196.67 15.7001 196.65 22.1801L196.29 215.56C196.29 222.06 191.39 228 185.39 228.84L103.07 241.66C97.05 242.5 92.19 237.94 92.21 231.44L92.57 38.0601C92.57 31.5801 97.47 25.6401 103.47 24.8001L185.81 11.9801Z" stroke="#1D1D1B" stroke-width="1.8" stroke-linejoin="round"/>
<path d="M97.27 240.66L88.09 235.68C85.05 234.02 83.03 230.64 83.05 226.46L92.23 231.44C92.23 235.62 94.23 239 97.27 240.66Z" stroke="#1D1D1B" stroke-width="1.8" stroke-linejoin="round"/>
<path d="M97.27 240.66L88.09 235.68C85.05 234.02 83.03 230.64 83.05 226.46L92.23 231.44C92.23 235.62 94.23 239 97.27 240.66Z" stroke="#1D1D1B" stroke-width="1.8" stroke-linejoin="round"/>
<path d="M92.2298 231.44L83.0498 226.46L83.4098 33.0801L92.5898 38.0801L92.2298 231.44Z" stroke="#1D1D1B" stroke-width="1.8" stroke-linejoin="round"/>
<path d="M92.5897 38.0798L83.4097 33.0798C83.4097 26.5998 88.3097 20.6598 94.3097 19.8198L103.49 24.7998C97.4697 25.6398 92.5897 31.5798 92.5897 38.0598V38.0798Z" stroke="#1D1D1B" stroke-width="1.8" stroke-linejoin="round"/>
<path d="M92.5897 38.0798L83.4097 33.0798C83.4097 26.5998 88.3097 20.6598 94.3097 19.8198L103.49 24.7998C97.4697 25.6398 92.5897 31.5798 92.5897 38.0598V38.0798Z" stroke="#1D1D1B" stroke-width="1.8" stroke-linejoin="round"/>
<path d="M191.61 12.9802C189.93 12.0602 187.95 11.6802 185.79 11.9802L103.49 24.8202L94.3301 19.8402L176.63 7.00024C178.77 6.70024 180.77 7.08024 182.45 8.00024L191.61 12.9802Z" stroke="#1D1D1B" stroke-width="1.8" stroke-linejoin="round"/>
<path d="M135.93 193.64C135.93 186.32 142.01 179.92 149.41 179.36C156.67 178.82 162.47 184.16 162.47 191.26C162.47 198.36 156.67 204.74 149.41 205.5C142.15 206.26 135.93 200.96 135.93 193.64Z" stroke="#1D1D1B" stroke-width="1.8" stroke-linejoin="round"/>
<path d="M138.79 193.4C138.79 187.62 143.59 182.56 149.41 182.1C155.17 181.66 159.79 185.88 159.79 191.52C159.79 197.16 155.17 202.2 149.41 202.78C143.65 203.36 138.79 199.16 138.79 193.38V193.4Z" stroke="#1D1D1B" stroke-width="1.8" stroke-linejoin="round"/>
<path d="M190.53 17.6999C189.65 16.8199 188.51 16.3599 187.23 16.3599C186.97 16.3599 186.71 16.3599 186.51 16.3999L165.15 19.7199V23.5199C165.15 24.7399 164.15 25.8999 162.93 26.0999L131.03 31.1999C129.67 31.4199 128.59 30.5399 128.59 29.2599V25.4199L104.15 29.2199C100.33 29.7599 97.09 33.7999 97.09 38.0599L96.73 213.54C96.73 215.36 97.31 216.96 98.39 218.04C99.27 218.92 100.41 219.38 101.71 219.38C101.97 219.38 102.23 219.38 102.45 219.34L184.83 206.5C188.63 205.96 191.87 201.9 191.87 197.64L192.23 22.1599C192.23 20.3399 191.65 18.7599 190.57 17.6799L190.53 17.6999Z" stroke="#1D1D1B" stroke-width="1.8" stroke-linejoin="round"/>
<path d="M128.39 39.5199C123.11 40.3199 118.89 45.0999 118.89 50.1199C118.89 55.1799 123.11 58.6599 128.39 57.8399C133.55 57.0399 137.83 52.2599 137.83 47.1999C137.83 42.1399 133.55 38.7199 128.39 39.5199ZM128.37 51.2199C126.97 51.4399 125.81 50.4999 125.81 49.0799C125.81 47.6599 126.97 46.3599 128.37 46.1599C129.77 45.9599 130.87 46.9199 130.87 48.2999C130.87 49.6799 129.73 50.9999 128.37 51.2199Z" fill="black"/>
<path d="M155.39 53.3202L138.49 55.9202V38.3202L145.47 37.2402V47.9802C145.47 48.7802 146.17 49.2402 146.93 49.1202C147.83 48.9802 148.41 48.3202 148.41 47.5202V36.7802L155.39 35.7002V53.3002V53.3202Z" fill="black"/>
<path d="M171.15 43.6201C171.91 42.4401 172.35 41.1201 172.35 39.7401C172.35 36.1001 169.11 33.6201 165.07 34.2401L156.27 35.6001V53.2001L163.25 52.1201V47.7801L165.77 47.4001V51.7401L172.75 50.6601V43.3801L171.15 43.6201ZM164.15 42.9601C163.19 43.1001 162.37 42.4401 162.37 41.4801C162.37 40.5201 163.19 39.5801 164.15 39.4201C165.11 39.2601 165.91 39.9401 165.91 40.9201C165.91 41.9001 165.11 42.8001 164.15 42.9401V42.9601Z" fill="black"/>
<path d="M107.51 63.0604L114.73 61.9404V79.5604L107.51 80.6804V63.0604Z" fill="black"/>
<path d="M115.61 61.8002L132.55 59.1802V76.7802L125.55 77.8602V67.1202C125.55 66.3202 124.85 65.8602 124.09 65.9802C123.19 66.1202 122.61 66.7802 122.61 67.5802V78.3202L115.61 79.4002V61.7802V61.8002Z" fill="black"/>
<path d="M142.33 57.6805L133.43 59.0605V76.6605L142.33 75.2805C147.39 74.5005 151.57 69.8805 151.57 65.0605C151.57 60.2405 147.41 56.9005 142.33 57.6805ZM142.01 69.0605C140.63 69.2805 139.47 68.3005 139.47 66.9205C139.47 65.5405 140.61 64.2205 142.01 64.0005C143.41 63.7805 144.53 64.7605 144.53 66.1405C144.53 67.5205 143.41 68.8405 142.01 69.0605Z" fill="black"/>
<path d="M152.23 56.14L165.81 54.04V59.98L159.87 60.9C159.23 61 158.77 61.56 158.77 62.24C158.77 62.92 159.23 63.34 159.87 63.24L161.85 62.94V66.32L165.81 65.7V71.64L152.23 73.74V56.14Z" fill="black"/>
<path d="M166.57 61.0802L168.25 60.8202L166.33 53.9802L174.21 52.7602V57.8602C174.21 59.3802 176.03 59.1002 176.03 57.5802V52.4802L184.33 51.2002L182.41 58.6402L184.07 58.3802V68.8202L177.11 69.9002V64.4802L173.53 65.0402V70.4602L166.55 71.5402V61.1002L166.57 61.0802Z" fill="black"/>
</g>
<defs>
<clipPath id="clip0_224_13824">
<rect width="115.4" height="236.66" fill="white" transform="translate(82.1499 6)"/>
</clipPath>
</defs>
</svg>
