<svg width="128" height="37" viewBox="0 0 128 37" fill="none" xmlns="http://www.w3.org/2000/svg">
<path fill-rule="evenodd" clip-rule="evenodd" d="M127.411 19.5832L127.412 19.6299C127.412 25.8986 123.261 33.3639 115.004 33.3639C109.622 33.3639 105.989 30.2391 104.101 26.3196C105.359 26.1668 106.385 25.6291 107.098 24.8858C107.808 24.1455 108.208 23.2012 108.22 22.2299C108.236 21.3258 108.039 20.4218 107.299 19.6299C107.06 19.3742 106.764 19.1303 106.401 18.9017C106.044 18.6777 105.623 18.4686 105.126 18.2779L103.306 17.5499C103.084 17.47 102.902 17.389 102.752 17.3061C102.865 16.5817 103.031 15.8565 103.249 15.1425C103.31 15.1355 103.373 15.1319 103.436 15.1319C104.06 15.1319 104.658 15.4959 104.996 16.1979C105.079 16.3427 105.112 16.4876 105.149 16.6455C105.158 16.686 105.168 16.7274 105.178 16.7699L108.012 16.1979C107.994 16.1533 107.977 16.1103 107.961 16.0685C107.881 15.8666 107.812 15.6942 107.726 15.5219C107.544 15.1506 107.314 14.8107 107.045 14.5078C106.308 13.6795 105.275 13.128 104.096 12.9692C105.984 9.04845 109.623 5.92188 115.004 5.92188C123.249 5.92188 127.37 13.3166 127.411 19.5832ZM103.222 24.0429C103.276 24.0476 103.33 24.0499 103.384 24.0499C104.242 24.0499 104.762 23.4259 104.762 22.6459C104.762 21.8919 104.398 21.5019 103.436 21.0859L102.61 20.7238C102.692 21.8264 102.896 22.9472 103.222 24.0429ZM115.959 19.5945C115.645 19.4378 115.306 19.3639 115.004 19.3639C114.659 19.3639 114.302 19.4494 113.988 19.608C113.973 19.6152 113.959 19.6225 113.945 19.6299H116.028C116.005 19.6179 115.983 19.6061 115.959 19.5945ZM116.021 19.6591L113.989 19.6727C113.996 19.6763 114.003 19.6798 114.01 19.6833C114.329 19.8425 114.68 19.9219 115.004 19.9219C115.306 19.9219 115.644 19.848 115.956 19.6924C115.978 19.6815 116 19.6704 116.021 19.6591ZM113.396 20.0718C113.395 20.0225 113.394 19.9728 113.394 19.9227C113.392 19.8268 113.392 19.7292 113.392 19.6299C113.392 19.5441 113.392 19.4597 113.393 19.3765C113.394 19.318 113.395 19.26 113.396 19.2028C113.413 18.3708 113.48 17.6751 113.596 17.1122C113.847 15.884 114.326 15.2879 115.004 15.2879C115.647 15.2879 116.124 15.8824 116.38 17.1074C116.497 17.6686 116.567 18.3622 116.585 19.1915C116.586 19.238 116.587 19.2849 116.588 19.3323C116.589 19.4297 116.59 19.5289 116.59 19.6299C116.59 19.6384 116.59 19.6469 116.59 19.6554C116.589 19.7497 116.589 19.8425 116.587 19.9338C116.587 19.9862 116.586 20.0381 116.584 20.0896C116.565 20.895 116.495 21.5736 116.379 22.126C116.123 23.3416 115.646 23.9459 115.004 23.9459C114.327 23.9459 113.848 23.3401 113.596 22.1213C113.482 21.5657 113.414 20.8827 113.396 20.0718ZM109.606 18.7968C109.913 15.3563 112.112 12.9219 115.004 12.9219C117.847 12.9219 120.043 15.3345 120.37 18.7931C120.382 18.9235 120.392 19.0554 120.399 19.1888C120.406 19.3342 120.411 19.4812 120.412 19.6299C120.412 19.7874 120.408 19.9432 120.4 20.0972C120.394 20.2161 120.386 20.3339 120.376 20.4506C120.071 23.9011 117.851 26.3639 115.004 26.3639C112.103 26.3639 109.9 23.9152 109.604 20.4378C109.594 20.3244 109.586 20.21 109.581 20.0944C109.573 19.9414 109.57 19.7865 109.57 19.6299C109.57 19.4721 109.573 19.316 109.581 19.1617C109.587 19.0389 109.595 18.9172 109.606 18.7968Z" fill="black"/>
<path fill-rule="evenodd" clip-rule="evenodd" d="M92.0655 25.807L92.0488 25.7656C91.805 25.1561 91.6053 24.4492 91.585 24.3772L91.5833 24.3713C91.0474 22.585 91.2481 20.6653 92.128 19.0352C91.9477 18.1946 91.8746 17.3544 91.8869 16.5379C91.9132 14.6253 92.3983 12.9446 93.2071 11.5179H96.5165V7.99013C98.5313 6.63702 100.978 5.92188 103.384 5.92188C107.823 5.92188 111.976 8.31702 114 12.4169C114.094 12.6066 114.182 12.8016 114.258 12.9773C113.303 13.1215 112.443 13.542 111.729 14.1796C111.728 14.181 111.726 14.1824 111.724 14.1838C111.449 14.4301 111.195 14.7087 110.966 15.0162C110.877 15.1354 110.792 15.259 110.711 15.3867C110.352 15.9497 110.068 16.5933 109.873 17.3006C109.676 18.0175 109.569 18.7998 109.569 19.6299C109.569 20.5745 109.705 21.4566 109.955 22.251C109.956 22.2541 109.957 22.2573 109.958 22.2604C110 22.3913 110.044 22.5198 110.092 22.6459C110.118 22.7166 110.146 22.7865 110.174 22.8556C110.497 23.6364 110.938 24.3142 111.474 24.8603C112.27 25.6723 113.275 26.1932 114.408 26.3287C112.634 30.6141 108.186 33.3639 103.358 33.3639C98.8599 33.3639 94.1145 30.8363 92.0655 25.807ZM114.953 15.289C114.405 15.3135 113.991 15.74 113.728 16.5882C113.507 17.3006 113.391 18.3106 113.391 19.6299C113.391 19.991 113.4 20.3293 113.418 20.6449C113.454 21.2902 113.527 21.8404 113.635 22.2959C113.637 22.3056 113.639 22.3153 113.642 22.325C113.903 23.4076 114.365 23.9459 115.003 23.9459C115.03 23.9459 115.056 23.9449 115.081 23.9429C115.164 23.4247 115.211 22.8911 115.219 22.3435C115.237 21.2668 115.121 19.9203 114.624 18.496C114.983 17.4648 115.094 16.3661 114.953 15.289ZM96.5165 25.9999V13.2599H92.9285V25.9999H96.5165ZM104.422 13.0238C104.105 12.9601 103.775 12.9253 103.436 12.9221C103.419 12.922 103.401 12.9219 103.384 12.9219C101.395 12.9219 99.912 13.8225 99.2569 15.1165C99.0671 15.4914 98.9468 15.8993 98.9037 16.3279C98.8933 16.4307 98.8874 16.5348 98.8861 16.6399C98.8767 17.2445 98.9805 17.7839 99.2051 18.2631C99.2744 18.4109 99.3551 18.5529 99.4475 18.6893C99.4782 18.7346 99.5101 18.7792 99.5434 18.8233C99.6291 18.9368 99.7235 19.0463 99.8266 19.1519C100.157 19.4901 100.577 19.7877 101.092 20.0478C101.233 20.1193 101.382 20.188 101.538 20.2539L103.436 21.0859C103.472 21.1013 103.506 21.1166 103.54 21.132C103.555 21.1385 103.569 21.1451 103.584 21.1517C103.703 21.2065 103.811 21.2612 103.911 21.3168C103.924 21.3244 103.938 21.3321 103.951 21.3398C104.011 21.3748 104.068 21.4101 104.121 21.4461C104.173 21.4812 104.221 21.5169 104.266 21.5534C104.275 21.5605 104.284 21.5677 104.292 21.5749C104.444 21.7027 104.555 21.8403 104.631 21.9964C104.658 22.0512 104.68 22.1083 104.698 22.1681C104.7 22.1744 104.702 22.1807 104.704 22.187C104.744 22.3244 104.762 22.4759 104.762 22.6459C104.762 23.0775 104.603 23.4613 104.315 23.7181C104.083 23.9254 103.767 24.0499 103.384 24.0499C103.375 24.0499 103.367 24.0498 103.358 24.0497C103.213 24.0477 103.07 24.0292 102.933 23.9927C102.905 23.9854 102.877 23.9773 102.85 23.9685C102.661 23.9078 102.482 23.8121 102.315 23.6779C102.311 23.6748 102.308 23.6717 102.304 23.6687C102.067 23.474 101.857 23.2002 101.687 22.837C101.658 22.7758 101.63 22.7121 101.604 22.6459C101.59 22.6119 101.577 22.5772 101.564 22.5419C101.555 22.521 101.546 22.4994 101.537 22.4772C101.504 22.394 101.472 22.3017 101.445 22.2025C101.44 22.1842 101.435 22.1658 101.431 22.1471C101.428 22.135 101.425 22.1229 101.422 22.1106C101.421 22.105 101.42 22.0994 101.419 22.0938C101.413 22.0706 101.409 22.0471 101.404 22.0234C101.403 22.0168 101.402 22.0102 101.401 22.0036C101.393 21.9587 101.387 21.9127 101.382 21.8659L98.2881 22.3599C98.3026 22.4081 98.317 22.4572 98.3317 22.5069C98.3452 22.5528 98.3589 22.5992 98.3728 22.6459C98.392 22.7102 98.4118 22.7749 98.4324 22.8393C98.4678 22.9501 98.5058 23.0601 98.5481 23.1659C98.6058 23.3074 98.6685 23.4443 98.7359 23.5766C98.7607 23.6254 98.7862 23.6736 98.8124 23.7212C99.0249 24.108 99.2786 24.4532 99.5644 24.7564C99.5808 24.7737 99.5972 24.791 99.6138 24.808C100.102 25.3107 100.679 25.6937 101.302 25.9539C101.31 25.9573 101.318 25.9607 101.327 25.964C101.57 26.0643 101.821 26.1458 102.075 26.2085C102.495 26.3118 102.927 26.3639 103.358 26.3639C103.367 26.3639 103.375 26.3639 103.384 26.3638C105.791 26.3541 107.495 24.999 108.037 23.3341C108.11 23.1095 108.162 22.8792 108.191 22.6459C108.209 22.5081 108.218 22.3693 108.22 22.2299C108.226 21.8816 108.201 21.5334 108.125 21.1916C108.055 20.8775 107.943 20.5687 107.773 20.2704C107.747 20.2253 107.72 20.1805 107.692 20.1359C107.656 20.0786 107.617 20.0217 107.576 19.9653C107.164 19.3974 106.513 18.8757 105.515 18.4374C105.489 18.4259 105.462 18.4145 105.436 18.4031C105.336 18.3606 105.233 18.3188 105.126 18.2779L103.306 17.5499C103.158 17.4967 103.027 17.4429 102.913 17.3884C102.889 17.3769 102.865 17.3654 102.842 17.3538C102.833 17.3493 102.824 17.3447 102.815 17.3401C102.803 17.3334 102.79 17.3268 102.778 17.3201C102.76 17.3105 102.743 17.3008 102.726 17.2911C102.632 17.2373 102.551 17.1827 102.483 17.1273C102.312 16.9884 102.215 16.8438 102.163 16.6911C102.162 16.6878 102.161 16.6846 102.16 16.6813C102.123 16.5682 102.11 16.4507 102.11 16.3279C102.11 15.6424 102.64 15.1874 103.31 15.1366C103.335 15.1348 103.359 15.1334 103.384 15.1327C103.401 15.1321 103.419 15.1319 103.436 15.1319C103.523 15.1319 103.609 15.1389 103.694 15.1528C103.718 15.1569 103.743 15.1616 103.768 15.1669C103.888 15.1925 104.006 15.2323 104.119 15.286C104.145 15.2983 104.171 15.3113 104.196 15.3251C104.356 15.4115 104.505 15.5265 104.639 15.6696C104.776 15.8164 104.897 15.9927 104.996 16.1979C105.021 16.2411 105.041 16.2843 105.058 16.3279C105.099 16.4303 105.123 16.5347 105.149 16.6455C105.154 16.6698 105.16 16.6944 105.166 16.7194C105.167 16.7256 105.169 16.7318 105.17 16.7381C105.173 16.7486 105.175 16.7592 105.178 16.7699L108.012 16.1979C107.995 16.1552 107.979 16.1139 107.963 16.0737C107.962 16.072 107.961 16.0702 107.961 16.0685C107.881 15.8666 107.812 15.6942 107.726 15.5219C107.707 15.4828 107.687 15.4441 107.667 15.4058C107.597 15.2734 107.521 15.1452 107.439 15.0215C107.404 14.9681 107.368 14.9156 107.331 14.8639C107.159 14.627 106.966 14.408 106.754 14.2092C106.738 14.1941 106.721 14.1792 106.705 14.1644C106.234 13.7362 105.673 13.4049 105.049 13.1925C104.996 13.1745 104.943 13.1573 104.889 13.141C104.737 13.0948 104.581 13.0557 104.422 13.0238Z" fill="black"/>
<path fill-rule="evenodd" clip-rule="evenodd" d="M85.9376 26.3622C86.1262 30.0598 89.1839 32.9998 92.9283 32.9998H96.5163C100.261 32.9998 103.319 30.0597 103.507 26.3621C103.458 26.3632 103.408 26.3638 103.358 26.3638C102.697 26.3638 102.035 26.2415 101.416 25.9998C100.88 25.7905 100.375 25.4917 99.9283 25.1052C99.35 24.6045 98.8702 23.9566 98.548 23.1658C98.4633 22.954 98.3958 22.725 98.3316 22.5068C98.3169 22.4572 98.3025 22.408 98.288 22.3598L101.382 21.8658C101.408 22.1258 101.486 22.3598 101.564 22.5418C101.954 23.6078 102.63 24.0498 103.384 24.0498C103.429 24.0498 103.473 24.0481 103.516 24.0447V21.1211C103.49 21.1094 103.463 21.0976 103.436 21.0858L101.538 20.2538C100.872 19.9723 100.338 19.6401 99.9283 19.2521C99.5482 18.892 99.2756 18.4838 99.1047 18.0237C98.9495 17.6061 98.8781 17.1458 98.886 16.6398C98.8978 15.7048 99.2706 14.8507 99.9283 14.1975C100.326 13.8026 100.828 13.4812 101.417 13.2598C101.992 13.0436 102.65 12.9228 103.376 12.9218C103.378 12.9218 103.381 12.9218 103.384 12.9218C103.426 12.9218 103.467 12.9223 103.508 12.9232C103.5 12.7432 103.485 12.565 103.463 12.3888C103.498 12.1034 103.516 11.8128 103.516 11.5178V7.7998C103.516 3.93381 100.382 0.799805 96.5163 0.799805H92.9023C89.0364 0.799805 85.9023 3.93381 85.9023 7.7998V11.5178C85.9023 11.8489 85.9253 12.1747 85.9698 12.4935C85.9543 12.6357 85.9431 12.7791 85.9363 12.9237C85.9718 12.9228 86.0074 12.9223 86.0432 12.922C86.0598 12.9219 86.0764 12.9218 86.093 12.9218C86.7509 12.9218 87.3753 13.0404 87.9435 13.2598C88.5382 13.4895 89.0713 13.8298 89.5163 14.2604C89.8895 14.6214 90.2009 15.0458 90.435 15.5218C90.5212 15.6941 90.5895 15.8665 90.6695 16.0684C90.6861 16.1102 90.7032 16.1532 90.721 16.1978L87.887 16.7698C87.8764 16.7274 87.8668 16.686 87.8575 16.6455C87.8231 16.4961 87.7914 16.3584 87.718 16.2213C87.7138 16.2135 87.7095 16.2057 87.705 16.1978C87.5545 15.8852 87.3524 15.6396 87.1194 15.4634C86.8292 15.2438 86.4911 15.1318 86.145 15.1318C86.0713 15.1318 85.9989 15.1366 85.9283 15.146V17.5179C85.9565 17.5285 85.9854 17.5392 86.015 17.5498L87.835 18.2778C88.5361 18.5469 89.0867 18.8527 89.5163 19.1851C90.664 20.0731 90.9479 21.1515 90.929 22.2298C90.9156 23.3264 90.407 24.3886 89.5163 25.1617C89.1198 25.5058 88.6476 25.7927 88.1096 25.9998C87.5066 26.2319 86.8211 26.3638 86.067 26.3638C86.0238 26.3638 85.9807 26.3633 85.9376 26.3622ZM85.9283 20.9908V24.0426C85.9827 24.0474 86.0377 24.0498 86.093 24.0498C86.951 24.0498 87.471 23.4258 87.471 22.6458C87.471 21.8918 87.107 21.5018 86.145 21.0858L85.9283 20.9908ZM92.9283 25.9998H96.5163V13.2598H92.9283V25.9998ZM92.9023 11.5178H96.5163V7.7998H92.9023V11.5178ZM103.516 15.1338C103.49 15.1325 103.463 15.1318 103.436 15.1318C102.708 15.1318 102.11 15.5998 102.11 16.3278C102.11 16.7958 102.292 17.1858 103.306 17.5498L103.516 17.6339V15.1338Z" fill="black"/>
<path fill-rule="evenodd" clip-rule="evenodd" d="M74.7744 25.807L74.7578 25.7656C74.6937 25.6054 74.6326 25.4385 74.5771 25.2781C74.8808 24.9325 75.1502 24.5159 75.3792 24.0453C75.4906 23.8163 75.5924 23.5745 75.684 23.3219V25.9999H79.22V7.99381C81.2359 6.63832 83.6853 5.92188 86.0931 5.92188C88.5559 5.92188 90.9306 6.65912 92.9025 8.0157V11.5179H96.2149C96.3911 11.8076 96.556 12.1074 96.7088 12.4169C96.9495 12.9022 97.1518 13.422 97.2076 13.5653C97.2136 13.5809 97.218 13.592 97.2204 13.5981C97.8513 15.1753 97.8827 16.9149 97.3332 18.496C97.8296 19.9203 97.9463 21.2668 97.9282 22.3435C97.8331 28.8351 92.2628 33.3639 86.0671 33.3639C81.5689 33.3639 76.8235 30.8363 74.7744 25.807ZM96.5165 13.2599H92.9285V25.9999H96.5165V13.2599ZM90.7457 23.3341C90.8187 23.1095 90.8706 22.8792 90.9002 22.6459C90.9177 22.5081 90.9274 22.3693 90.9291 22.2299C90.9352 21.8816 90.9097 21.5334 90.8338 21.1916C90.764 20.8775 90.6516 20.5687 90.4819 20.2704C90.4562 20.2253 90.4293 20.1805 90.401 20.1359C90.3646 20.0786 90.326 20.0217 90.285 19.9653C89.8726 19.3974 89.222 18.8757 88.2237 18.4374C88.1975 18.4259 88.1712 18.4145 88.1446 18.4031C88.0448 18.3606 87.9417 18.3188 87.8351 18.2779L86.0151 17.5499C85.8669 17.4967 85.7364 17.4429 85.6217 17.3884C85.5975 17.3769 85.574 17.3654 85.5512 17.3538C85.5422 17.3493 85.5332 17.3447 85.5244 17.3401C85.5116 17.3334 85.4991 17.3268 85.4867 17.3201C85.4689 17.3105 85.4515 17.3008 85.4346 17.2911C85.3405 17.2373 85.2602 17.1827 85.1918 17.1273C85.0205 16.9884 84.9235 16.8438 84.8717 16.6911C84.8706 16.6878 84.8696 16.6846 84.8685 16.6813C84.8316 16.5682 84.8191 16.4507 84.8191 16.3279C84.8191 15.6424 85.3493 15.1874 86.0191 15.1366C86.0436 15.1348 86.0682 15.1334 86.0931 15.1327C86.1104 15.1321 86.1277 15.1319 86.1451 15.1319C86.2316 15.1319 86.3176 15.1389 86.4025 15.1528C86.4274 15.1569 86.4523 15.1616 86.477 15.1669C86.5972 15.1925 86.7147 15.2323 86.8278 15.286C86.8538 15.2983 86.8795 15.3113 86.905 15.3251C87.0646 15.4115 87.2141 15.5265 87.348 15.6696C87.4853 15.8164 87.6063 15.9927 87.7051 16.1979C87.7298 16.2411 87.7501 16.2843 87.7674 16.3279C87.808 16.4303 87.8321 16.5347 87.8576 16.6455C87.8632 16.6698 87.8689 16.6944 87.8748 16.7194C87.8763 16.7256 87.8778 16.7318 87.8793 16.7381C87.8818 16.7486 87.8844 16.7592 87.8871 16.7699L90.7211 16.1979C90.704 16.1552 90.6876 16.1139 90.6717 16.0737C90.671 16.072 90.6703 16.0702 90.6696 16.0685C90.5896 15.8666 90.5213 15.6942 90.4351 15.5219C90.4159 15.4828 90.3962 15.4441 90.3759 15.4058C90.3061 15.2734 90.2301 15.1452 90.1484 15.0215C90.1132 14.9681 90.0768 14.9156 90.0395 14.8639C89.8682 14.627 89.675 14.408 89.4626 14.2092C89.4465 14.1941 89.4303 14.1792 89.414 14.1644C88.9433 13.7362 88.3818 13.4049 87.758 13.1925C87.7051 13.1745 87.6516 13.1573 87.5978 13.141C87.4455 13.0948 87.2898 13.0557 87.131 13.0238C86.8135 12.9601 86.4839 12.9253 86.1451 12.9221C86.1278 12.922 86.1105 12.9219 86.0931 12.9219C84.1037 12.9219 82.621 13.8225 81.9659 15.1165C81.7761 15.4914 81.6557 15.8993 81.6127 16.3279C81.6023 16.4307 81.5964 16.5348 81.5951 16.6399C81.5857 17.2445 81.6895 17.7839 81.9141 18.2631C81.9833 18.4109 82.0641 18.5529 82.1565 18.6893C82.1872 18.7346 82.2191 18.7792 82.2524 18.8233C82.3381 18.9368 82.4325 19.0463 82.5356 19.1519C82.8659 19.4901 83.2862 19.7877 83.8008 20.0478C83.9424 20.1193 84.0911 20.188 84.2471 20.2539L86.1451 21.0859C86.1807 21.1013 86.2155 21.1166 86.2494 21.132C86.264 21.1385 86.2784 21.1451 86.2926 21.1517C86.4117 21.2065 86.5205 21.2612 86.6195 21.3168C86.6331 21.3244 86.6466 21.3321 86.6598 21.3398C86.7203 21.3748 86.777 21.4101 86.83 21.4461C86.8818 21.4812 86.9301 21.5169 86.975 21.5534C86.9839 21.5605 86.9925 21.5677 87.0011 21.5749C87.1527 21.7027 87.2639 21.8403 87.34 21.9964C87.3667 22.0512 87.389 22.1083 87.4073 22.1681C87.4092 22.1744 87.4111 22.1807 87.4129 22.187C87.4526 22.3244 87.4711 22.4759 87.4711 22.6459C87.4711 23.0775 87.3119 23.4613 87.0243 23.7181C86.7921 23.9254 86.4763 24.0499 86.0931 24.0499C86.0844 24.0499 86.0758 24.0498 86.0671 24.0497C85.9217 24.0477 85.7794 24.0292 85.6415 23.9927C85.6138 23.9854 85.5862 23.9773 85.5588 23.9685C85.37 23.9078 85.1905 23.8121 85.0242 23.6779C85.0205 23.6748 85.0167 23.6717 85.0129 23.6687C84.7758 23.474 84.5661 23.2002 84.3956 22.837C84.3669 22.7758 84.3393 22.7121 84.3128 22.6459C84.2993 22.6119 84.286 22.5772 84.2731 22.5419C84.2641 22.521 84.2552 22.4994 84.2463 22.4772C84.2131 22.394 84.181 22.3017 84.1541 22.2025C84.1491 22.1842 84.1444 22.1658 84.1398 22.1471C84.1369 22.135 84.134 22.1229 84.1312 22.1106C84.13 22.105 84.1287 22.0994 84.1275 22.0938C84.1224 22.0706 84.1177 22.0471 84.1134 22.0234C84.1122 22.0168 84.111 22.0102 84.1099 22.0036C84.1021 21.9587 84.0958 21.9127 84.0911 21.8659L80.9971 22.3599C81.0116 22.4081 81.026 22.4572 81.0407 22.5069C81.0542 22.5528 81.0679 22.5992 81.0818 22.6459C81.101 22.7102 81.1208 22.7749 81.1414 22.8393C81.1768 22.9501 81.2148 23.0601 81.2571 23.1659C81.3147 23.3074 81.3774 23.4443 81.4448 23.5766C81.4697 23.6254 81.4952 23.6736 81.5214 23.7212C81.7338 24.108 81.9876 24.4532 82.2734 24.7564C82.2898 24.7737 82.3062 24.791 82.3228 24.808C82.8106 25.3107 83.388 25.6937 84.0112 25.9539C84.0193 25.9573 84.0275 25.9607 84.0356 25.964C84.2792 26.0643 84.5297 26.1458 84.7845 26.2085C85.2043 26.3118 85.6357 26.3639 86.0671 26.3639C86.0758 26.3639 86.0844 26.3639 86.0931 26.3638C88.4999 26.3541 90.2042 24.999 90.7457 23.3341ZM75.58 12.1653C75.2764 12.8066 75.0356 13.4937 74.8681 14.2249C75.1484 14.6177 75.3872 15.0894 75.58 15.6259V12.1653ZM74.1607 23.8644C74.9367 23.8034 75.4354 22.9321 75.6244 21.3376C75.6811 20.8588 75.71 20.3147 75.71 19.7079C75.71 19.0233 75.6753 18.4174 75.6076 17.8929C75.5395 17.3654 75.4378 16.9202 75.3043 16.5602C75.302 16.554 75.2997 16.5477 75.2973 16.5415C75.129 16.0952 74.9109 15.782 74.646 15.6075C74.6171 15.9112 74.6002 16.2214 74.5958 16.5379M74.837 19.0352C74.0398 20.5121 73.8001 22.2267 74.1607 23.8644Z" fill="black"/>
<path fill-rule="evenodd" clip-rule="evenodd" d="M68.8036 19.1509C68.852 17.7694 69.0815 16.5821 69.451 15.6258C70.0572 14.0571 71.0403 13.11 72.2199 12.947C72.3413 12.9303 72.4647 12.9218 72.5899 12.9218C73.149 12.9218 73.6548 13.0996 74.0979 13.4259C74.7265 13.8886 75.2292 14.6499 75.5799 15.6258V7.7998H79.2199V25.9998H75.6839V23.3218C75.3057 24.3659 74.7512 25.225 74.0719 25.7609C73.9595 25.8496 73.8436 25.9294 73.7245 25.9998C73.327 26.2347 72.8939 26.3638 72.4339 26.3638C71.9658 26.3638 71.5277 26.2384 71.1291 25.9998C70.3351 25.5245 69.6977 24.6 69.2907 23.3218C69.008 22.4341 68.8365 21.3759 68.8009 20.1791C68.7963 20.0243 68.7939 19.8672 68.7939 19.7078C68.7939 19.5189 68.7972 19.3332 68.8036 19.1509ZM66.0925 24.405C66.5457 23.7982 66.9137 23.0658 67.1781 22.2298C67.201 22.1268 67.2289 22.0237 67.2575 21.9185C67.2937 21.7847 67.331 21.6473 67.3601 21.5018L63.9281 21.0598L63.8501 21.5798C63.5901 23.1398 63.0961 23.9458 62.3681 23.9458C62.3178 23.9458 62.2685 23.9419 62.2201 23.9341C61.9189 22.5319 61.7939 21.0982 61.7939 19.7078C61.7939 18.2465 61.9312 16.7492 62.2597 15.2936C62.2953 15.2897 62.3315 15.2878 62.3681 15.2878C63.1221 15.2878 63.5641 16.0158 63.7981 17.4458C63.8091 17.5341 63.8248 17.6224 63.8413 17.7146C63.8635 17.8398 63.8871 17.9722 63.9021 18.1218L67.4641 17.6538C67.4329 17.529 67.4017 17.4323 67.3705 17.3355C67.3497 17.2711 67.3289 17.2066 67.3081 17.1338C67.0322 16.2324 66.6456 15.4417 66.1519 14.7961C65.3632 13.7649 64.3011 13.104 62.9795 12.9543C63.2155 12.3634 63.4916 11.7877 63.8119 11.2334C64.8264 9.47754 66.4519 7.73709 68.6583 6.74909C69.1652 3.38155 72.0711 0.799805 75.5799 0.799805H79.2199C83.0859 0.799805 86.2199 3.93381 86.2199 7.7998V12.9233C86.1778 12.9223 86.1355 12.9218 86.0931 12.9218C84.5836 12.9218 83.3658 13.4403 82.5799 14.2558C82.4002 14.4423 82.2431 14.6443 82.1102 14.8592C81.9614 15.0998 81.8431 15.3566 81.7575 15.6258C81.655 15.9481 81.5995 16.2883 81.5951 16.6398C81.5845 17.3139 81.7148 17.907 81.9963 18.4259C82.1729 18.7514 82.409 19.0477 82.7072 19.3166C83.1069 19.677 83.6181 19.988 84.2471 20.2538L86.1451 21.0858C86.1705 21.0968 86.1954 21.1077 86.2199 21.1187V24.0451C86.1785 24.0482 86.1362 24.0498 86.0931 24.0498C85.3391 24.0498 84.6631 23.6078 84.2731 22.5418C84.1951 22.3598 84.1171 22.1258 84.0911 21.8658L80.9971 22.3598C81.0116 22.408 81.026 22.4572 81.0406 22.5068C81.1049 22.725 81.1724 22.954 81.2571 23.1658C81.2785 23.2184 81.3007 23.2704 81.3235 23.3218C81.5279 23.7819 81.787 24.1911 82.0882 24.5486C82.272 24.7667 82.4716 24.9656 82.6839 25.145C83.1187 25.5122 83.6072 25.7977 84.1251 25.9998C84.7445 26.2415 85.4058 26.3638 86.0671 26.3638C86.1152 26.3638 86.1631 26.3633 86.2107 26.3622C86.0222 30.0598 82.9644 32.9998 79.2199 32.9998H75.6839C75.5121 32.9998 75.3417 32.9936 75.173 32.9814C74.3424 33.2251 73.4312 33.3638 72.4339 33.3638C68.0532 33.3638 65.147 30.5664 63.697 27.9592C63.4044 27.4332 63.1512 26.8889 62.9336 26.3315C64.1903 26.1794 65.2788 25.4946 66.0925 24.405ZM86.2199 17.6318V15.1336C86.195 15.1324 86.1701 15.1318 86.1451 15.1318C85.4171 15.1318 84.8191 15.5998 84.8191 16.3278C84.8191 16.7958 85.0011 17.1858 86.0151 17.5498L86.2199 17.6318ZM73.1768 23.3218C73.4116 23.6827 73.7104 23.8678 74.0719 23.8678C74.4521 23.8678 74.7694 23.6827 75.0203 23.3218C75.0625 23.2612 75.1028 23.1956 75.1412 23.1251C75.2209 22.9788 75.2924 22.8113 75.3557 22.623C75.3908 22.5187 75.4233 22.408 75.4532 22.291C75.5608 21.8708 75.6351 21.3693 75.6752 20.7896C75.6783 20.7441 75.6812 20.6981 75.6839 20.6517C75.7012 20.3564 75.7099 20.0416 75.7099 19.7078C75.7099 19.4616 75.7055 19.2255 75.6966 18.9998C75.6911 18.8602 75.6839 18.7244 75.675 18.5927C75.6342 17.9854 75.5579 17.4625 75.4477 17.0271C75.3814 16.7652 75.3028 16.5348 75.2124 16.3368C75.1268 16.1493 75.0305 15.9907 74.9238 15.8616C74.8457 15.7671 74.7621 15.6884 74.673 15.6258C74.5012 15.505 74.3092 15.4438 74.0979 15.4438C73.8972 15.4438 73.7137 15.505 73.5486 15.6258C73.299 15.8085 73.0916 16.1276 72.931 16.5778C72.8915 16.6886 72.8548 16.8073 72.821 16.9339C72.8147 16.9576 72.8084 16.9816 72.8023 17.0059C72.7053 17.3903 72.6339 17.8438 72.5899 18.3644C72.5638 18.6743 72.5473 19.008 72.5409 19.3651C72.5389 19.477 72.5379 19.5913 72.5379 19.7078C72.5379 19.7799 72.5383 19.8512 72.5391 19.9215C72.5477 20.742 72.6066 21.4412 72.715 22.0128C72.7315 22.0999 72.7492 22.1841 72.768 22.2653C72.7703 22.2755 72.7727 22.2856 72.7751 22.2957C72.8767 22.7234 73.0108 23.0666 73.1768 23.3218Z" fill="black"/>
<path fill-rule="evenodd" clip-rule="evenodd" d="M74.1137 15.444C74.1086 15.4439 74.1034 15.4439 74.0983 15.4439C73.6729 15.4439 73.3246 15.7186 73.0659 16.2535C72.9557 16.4814 72.8618 16.7565 72.785 17.0777C72.6235 17.7537 72.5383 18.6339 72.5383 19.7079C72.5383 20.7317 72.6128 21.5765 72.7605 22.2312C72.7901 22.3623 72.8225 22.4857 72.858 22.6014C73.0006 23.0675 73.1906 23.4085 73.4271 23.6185C73.5909 23.7637 73.7769 23.8463 73.985 23.8642C73.9893 23.846 73.9936 23.8278 73.9978 23.8096C74.0001 23.8014 74.0027 23.7917 74.0067 23.7768C74.0112 23.7601 74.0175 23.737 74.027 23.702L74.0286 23.696C74.0655 23.5595 74.1502 23.2459 74.2245 22.8747C74.433 21.8323 74.3993 20.7682 74.1402 19.7597C74.5252 18.5391 74.5722 17.2231 74.2554 15.9561C74.205 15.7543 74.1551 15.5804 74.1137 15.444ZM73.0842 26.2753C72.8745 26.3334 72.6576 26.3639 72.4343 26.3639C71.5465 26.3639 70.7669 25.913 70.1593 25.0939C69.984 24.8575 69.823 24.5905 69.6778 24.2948C69.4703 23.8718 69.2951 23.3902 69.1569 22.8557C69.1401 22.7908 69.1239 22.7252 69.1082 22.6587C69.0918 22.5894 69.0761 22.5193 69.0609 22.4483C69.0546 22.4186 69.0483 22.3887 69.0422 22.3586C69.0065 22.1836 68.9744 22.0037 68.9461 21.819C68.9457 21.8168 68.9454 21.8146 68.9451 21.8124C68.8464 21.1661 68.7943 20.4622 68.7943 19.7079C68.7943 18.9575 68.8455 18.2591 68.9419 17.6179C68.9596 17.5 68.9789 17.3841 68.9997 17.2701C69.03 17.1035 69.0635 16.9412 69.1001 16.7832C69.1136 16.7249 69.1276 16.6671 69.1419 16.61C69.1453 16.5966 69.1487 16.5832 69.1521 16.5698C69.152 16.5699 69.1521 16.5697 69.1521 16.5698C69.3105 15.9501 69.5179 15.4006 69.7667 14.9284C69.9008 14.6741 70.0469 14.4421 70.2039 14.2336C70.8444 13.3828 71.6661 12.9219 72.5903 12.9219C72.7958 12.9219 72.9941 12.9459 73.1848 12.9925C71.4114 9.29682 67.9096 5.92188 62.3944 5.92188C54.909 5.92188 50.8306 11.9272 50.0854 17.7068L50.9595 20.9299L53.0395 13.2599H56.3415L52.2075 25.9999H51.3428C53.1756 30.0538 56.8404 33.3639 62.3944 33.3639C67.6887 33.3639 71.2735 30.0303 73.0842 26.2753ZM67.4644 17.6539C67.4332 17.5291 67.402 17.4323 67.3708 17.3356C67.35 17.2711 67.3292 17.2067 67.3084 17.1339C67.2959 17.093 67.2832 17.0523 67.2702 17.0119C67.2565 16.9692 67.2426 16.9268 67.2284 16.8846C66.8648 15.8052 66.3354 14.8969 65.6467 14.2233C64.9855 13.5768 64.1774 13.1466 63.228 12.9889C62.9613 12.9446 62.6834 12.9219 62.3944 12.9219C62.3858 12.9219 62.3771 12.9219 62.3684 12.9219C59.6112 12.9356 57.518 15.129 57.056 18.2887C57.0431 18.3767 57.0315 18.4654 57.0212 18.5549C57.0114 18.6401 57.0027 18.7261 56.9952 18.8126C56.9942 18.8251 56.9931 18.8375 56.9921 18.85C56.9848 18.9392 56.9787 19.029 56.9739 19.1195C56.965 19.2875 56.9604 19.4576 56.9604 19.6299C56.9604 19.8256 56.9663 20.0187 56.9778 20.2089C56.9807 20.257 56.9839 20.3049 56.9876 20.3527C56.9897 20.3809 56.992 20.4091 56.9944 20.4372C56.9977 20.4759 57.0012 20.5146 57.005 20.5531C57.3369 23.9395 59.4911 26.3494 62.3684 26.3638C62.3771 26.3639 62.3858 26.3639 62.3944 26.3639C62.69 26.3639 62.9776 26.3355 63.2561 26.2803C64.155 26.102 64.9586 25.6437 65.6251 24.9557C66.2961 24.263 66.8281 23.3373 67.1784 22.2299C67.1852 22.1993 67.1925 22.1688 67.2 22.1381C67.2044 22.1202 67.209 22.1023 67.2136 22.0843C67.2277 22.0295 67.2427 21.9743 67.2578 21.9186C67.2882 21.8066 67.3192 21.6921 67.3456 21.5724C67.3507 21.5491 67.3557 21.5256 67.3604 21.5019L63.9284 21.0599L63.8504 21.5799C63.8179 21.7748 63.7818 21.9579 63.742 22.1292C63.4671 23.3123 63.0179 23.9289 62.3944 23.9455C62.3858 23.9458 62.3771 23.9459 62.3684 23.9459C61.7318 23.9459 61.2463 23.3197 60.9815 22.1231C60.9157 21.8257 60.8635 21.4932 60.826 21.1262C60.8243 21.1092 60.8226 21.0921 60.8209 21.075C60.8126 20.9892 60.805 20.9015 60.7982 20.8121C60.7926 20.7386 60.7876 20.664 60.7832 20.5881C60.7758 20.4625 60.7699 20.3336 60.7655 20.2013C60.7653 20.1951 60.7651 20.189 60.7649 20.1828C60.7624 20.1021 60.7604 20.0203 60.759 19.9372C60.7573 19.8365 60.7564 19.7341 60.7564 19.6299C60.7564 19.5282 60.7572 19.4283 60.7587 19.3303C60.7591 19.2986 60.7597 19.2671 60.7603 19.2358C60.761 19.2029 60.7617 19.1702 60.7626 19.1377C60.7637 19.0924 60.7651 19.0475 60.7666 19.003C60.7732 18.8047 60.7831 18.6146 60.7961 18.4325C60.8086 18.2574 60.824 18.0898 60.8423 17.9296C60.8467 17.8905 60.8513 17.8519 60.8561 17.8137C60.888 17.559 60.9272 17.324 60.9734 17.1085C61.2364 15.8828 61.7253 15.2879 62.3684 15.2879C62.3771 15.2879 62.3858 15.288 62.3944 15.2882C63.07 15.3034 63.4912 15.914 63.7351 17.1009C63.7577 17.211 63.7788 17.326 63.7984 17.4459C63.8095 17.5342 63.8252 17.6225 63.8416 17.7147C63.8521 17.7738 63.863 17.8346 63.873 17.898C63.8836 17.9645 63.8933 18.0339 63.901 18.1074C63.9015 18.1122 63.9019 18.117 63.9024 18.1219L67.4644 17.6539ZM61.2799 19.6139C61.2897 19.6193 61.2996 19.6246 61.3095 19.6299C61.4029 19.6794 61.5029 19.7252 61.6091 19.7655C61.9182 19.883 62.1869 19.9186 62.3684 19.9217C62.3773 19.9218 62.386 19.9219 62.3944 19.9219C62.6816 19.9219 63.0151 19.8519 63.3316 19.6947C63.3672 19.677 63.4013 19.6589 63.4339 19.6404C63.4276 19.6369 63.4212 19.6334 63.4147 19.6299C63.3938 19.6185 63.3723 19.6073 63.3502 19.5963C63.032 19.437 62.6922 19.3639 62.3944 19.3639C62.3858 19.3639 62.3771 19.3639 62.3684 19.364C62.0772 19.3672 61.7577 19.4235 61.4437 19.5445C61.3867 19.5665 61.3321 19.5897 61.2799 19.6139Z" fill="black"/>
<path fill-rule="evenodd" clip-rule="evenodd" d="M49.6073 33C46.5975 33 43.9245 31.076 42.9692 28.2217L42.2257 26H43.8057V13.26H40.2177V20.0005L38.7052 15.4817C37.9906 13.3465 38.3467 10.9979 39.6621 9.17051C39.8266 8.94204 40.0035 8.72521 40.1917 8.52067V11.518H43.8057V7.80001H40.9627C42.1909 6.81473 43.7319 6.26001 45.3433 6.26001H48.8793C49.5991 6.26001 50.2985 6.36985 50.9593 6.57553C51.6201 6.36985 52.3195 6.26001 53.0393 6.26001H56.3413C58.5816 6.26001 60.6865 7.33226 62.0036 9.14441C62.8334 10.286 63.2873 11.6342 63.3368 13.0085C63.037 12.9514 62.7228 12.922 62.3942 12.922C61.1378 12.922 60.0182 13.374 59.1266 14.1638C58.9233 14.3439 58.7318 14.5415 58.5533 14.7553C57.9624 15.4632 57.5131 16.3486 57.2447 17.3625C57.0847 17.9666 56.989 18.6162 56.9658 19.3011C56.9621 19.4099 56.9602 19.5195 56.9602 19.63C56.9602 20.7557 57.1534 21.7959 57.5047 22.705C57.5469 22.8142 57.5913 22.9214 57.638 23.0266C58.1167 24.1067 58.8288 24.9801 59.7087 25.562L58.8656 28.1605C57.9292 31.046 55.2409 33 52.2073 33H49.6073ZM60.9218 21.8237L62.9763 15.4922C62.8009 15.3563 62.5992 15.288 62.3682 15.288C61.3802 15.288 60.7562 16.692 60.7562 19.63C60.7562 20.4832 60.8138 21.2164 60.9218 21.8237ZM56.3413 13.26H53.0393L50.9593 20.93L48.8793 13.26H45.3433L49.6073 26H52.2073L56.3413 13.26Z" fill="black"/>
<path fill-rule="evenodd" clip-rule="evenodd" d="M40.2174 32.9998C36.3514 32.9998 33.2174 29.8658 33.2174 25.9998V15.554C33.7321 15.7913 33.9894 16.5068 33.9894 17.3938V25.9998H37.6034V17.0818C37.6034 15.894 37.3525 14.8209 36.8054 14.0695C36.5549 13.7256 36.2424 13.449 35.8635 13.2598C35.494 13.0753 35.0613 12.9738 34.5614 12.9738C34.1641 12.9738 33.7726 13.0427 33.3963 13.2061C33.3575 13.223 33.3187 13.2409 33.2802 13.2598C33.2592 13.2701 33.2383 13.2807 33.2174 13.2916V13.2598C33.2174 13.0009 33.2315 12.7452 33.2589 12.4935C33.2144 12.1747 33.1914 11.8489 33.1914 11.5178V7.7998C33.1914 3.93381 36.3254 0.799805 40.1914 0.799805H43.8054C47.6714 0.799805 50.8054 3.93381 50.8054 7.7998V11.5178C50.8054 11.8128 50.7872 12.1034 50.7517 12.3888C50.7872 12.6742 50.8054 12.9649 50.8054 13.2598V20.3632L48.8791 13.2598H45.3431L49.6071 25.9998H50.8054C50.8054 29.8658 47.6714 32.9998 43.8054 32.9998H40.2174ZM40.2174 25.9998H43.8054V13.2598H40.2174V25.9998ZM40.1914 7.7998V11.5178H43.8054V7.7998H40.1914Z" fill="black"/>
<path fill-rule="evenodd" clip-rule="evenodd" d="M20.8076 26.2895C20.8037 26.1934 20.8018 26.0969 20.8018 25.9998V24.043C22.2402 23.7161 23.5037 22.4712 24.3898 20.7912C24.7117 20.1808 24.9838 19.513 25.1964 18.8109C25.2496 18.6352 25.299 18.4574 25.3446 18.2778C25.5683 17.3965 25.6986 16.4722 25.7175 15.5478C25.7191 15.4698 25.7199 15.3918 25.7199 15.3138C25.7199 14.5404 25.6392 13.8077 25.4853 13.1232C25.4774 13.0881 25.4693 13.0531 25.461 13.0182C25.3942 12.7369 25.3149 12.4639 25.2236 12.1998C25.0092 11.579 24.7289 11.0072 24.3898 10.4913C23.5544 9.22069 22.3618 8.2891 20.9169 7.7998C20.8788 7.78687 20.8404 7.77425 20.8019 7.76194C20.8222 3.91337 23.9484 0.799805 27.8018 0.799805H31.3898C34.8768 0.799805 37.7683 3.34951 38.3017 6.6863C39.0215 6.97697 39.6956 7.35138 40.3148 7.7998H40.1918V11.5178H43.4052C44.3572 13.475 44.6038 15.4996 44.6038 17.0818V25.9998C44.6038 29.8658 41.4698 32.9998 37.6038 32.9998H33.9898C33.5455 32.9998 33.111 32.9584 32.6898 32.8793C32.2685 32.9584 31.834 32.9998 31.3898 32.9998H27.8018C24.7084 32.9998 22.0836 30.9933 21.1581 28.2107C21.8021 27.8704 22.3547 27.484 22.8079 27.0918L22.2099 25.2718C21.9142 25.5292 21.6001 25.7739 21.2657 25.9998C21.1171 26.1003 20.9644 26.197 20.8076 26.2895ZM27.8018 25.9998H31.3898V18.2778C31.3898 17.9562 31.4071 17.6614 31.4403 17.3938C31.4538 17.2853 31.4699 17.1813 31.4885 17.0818C31.5947 16.5131 31.7827 16.0916 32.0338 15.8226C32.1498 15.6983 32.2792 15.6065 32.4202 15.5478C32.5448 15.4959 32.6784 15.4698 32.8198 15.4698C32.9606 15.4698 33.0887 15.4969 33.2041 15.5478C33.5664 15.7075 33.8034 16.1014 33.9151 16.6253C33.9456 16.7685 33.9668 16.9213 33.9786 17.0818C33.986 17.183 33.9898 17.2871 33.9898 17.3938V25.9998H37.6038V17.0818C37.6038 16.5401 37.5516 16.0222 37.4429 15.5478C37.1152 14.1175 36.274 13.0826 34.8018 12.9819C34.7235 12.9765 34.6436 12.9738 34.5618 12.9738C33.9565 12.9738 33.3646 13.1336 32.8198 13.5441C32.2879 13.9449 31.8007 14.5846 31.3898 15.5478V7.7998H27.8018V25.9998ZM40.2178 25.9998H43.8058V13.2598H40.2178V25.9998ZM20.8018 9.82867V13.0518H22.2619L20.8018 18.125V22.2714C22.1471 22.0506 23.6147 18.3644 23.6399 15.3138C23.6399 12.5853 22.5455 10.7094 20.8018 9.82867Z" fill="black"/>
<path fill-rule="evenodd" clip-rule="evenodd" d="M27.8016 25.9999H29.7223C30.0959 28.362 29.2361 30.7861 27.3884 32.3851C24.8801 34.5558 21.0493 36.3799 16.3078 36.3799C7.05839 36.3799 0.779785 28.9911 0.779785 20.2019C0.779785 10.158 7.68477 0.409912 18.4658 0.409912C22.433 0.409912 26.1521 1.94113 28.8363 4.8502C29.67 5.75371 30.3638 6.74533 30.9231 7.79991H27.8016V25.9999ZM14.006 29.086C10.342 28.1114 7.84791 24.7965 7.78116 20.3839C7.78031 20.3278 7.77985 20.2715 7.77979 20.215C7.77979 20.2106 7.77979 20.2063 7.77979 20.2019C7.77979 17.9961 8.21824 15.9562 8.99211 14.1831C8.99401 14.1787 8.99591 14.1744 8.99781 14.17C9.45166 13.1331 10.0203 12.1877 10.6831 11.3539C11.6171 10.1789 12.7381 9.2257 13.9882 8.55089C14.303 8.38097 14.626 8.2287 14.9563 8.09499C15.5173 7.86784 16.0993 7.69425 16.6978 7.57864C17.1985 7.48191 17.7107 7.42577 18.2318 7.41282C18.3096 7.41088 18.3876 7.40991 18.4658 7.40991C18.767 7.40991 19.0619 7.42587 19.3498 7.4572C20.4289 7.5746 21.4102 7.90785 22.2618 8.42556C24.096 9.54065 25.3287 11.5115 25.6415 14.0247C25.6458 14.059 25.6499 14.0934 25.6538 14.1279C25.6805 14.3626 25.6993 14.602 25.7098 14.8458C25.7164 15.0001 25.7198 15.1561 25.7198 15.3139C25.7198 15.3196 25.7198 15.3254 25.7198 15.3311C25.7192 15.7052 25.7002 16.0799 25.6638 16.4523C25.6271 16.828 25.5729 17.2014 25.5022 17.5695C25.4135 18.0314 25.2991 18.485 25.1613 18.9245C25.0549 19.2638 24.9345 19.5948 24.8013 19.9147C24.7193 20.1117 24.6324 20.3046 24.5409 20.4927C24.5253 20.5248 24.5095 20.5568 24.4936 20.5887C24.4822 20.6115 24.4708 20.6342 24.4593 20.6568C24.4397 20.6952 24.42 20.7334 24.4001 20.7714C24.3218 20.9205 24.2407 21.0662 24.1567 21.2082C24.1535 21.2135 24.1503 21.2189 24.1471 21.2243C24.0349 21.413 23.9177 21.5952 23.7958 21.7698C23.2298 22.5809 22.5631 23.2314 21.8289 23.6421C21.5849 23.7785 21.3335 23.8885 21.0759 23.9691C20.9441 24.0103 20.8107 24.0438 20.6758 24.0693C20.5316 24.0965 20.3857 24.1145 20.2383 24.1227C20.1764 24.1262 20.1142 24.1279 20.0518 24.1279C18.6187 24.1279 17.7478 23.3301 17.545 22.1736C17.533 22.1055 17.5234 22.0361 17.5161 21.9656C17.5068 21.8755 17.5013 21.7835 17.4997 21.6899C17.4983 21.6111 17.4997 21.531 17.5038 21.4499C17.4951 21.467 17.4865 21.484 17.4778 21.5009C17.445 21.5649 17.412 21.6276 17.379 21.6891C17.3379 21.7656 17.2967 21.8401 17.2553 21.9128C17.1743 22.0549 17.0928 22.1899 17.0108 22.3178C16.8644 22.5462 16.7165 22.7522 16.5678 22.9366C16.4814 23.0437 16.3946 23.1435 16.3078 23.2361C16.1434 23.4115 15.9784 23.5612 15.8138 23.6863C15.3722 24.0218 14.9331 24.1799 14.5138 24.1799C14.0483 24.1799 13.6423 24.0461 13.3034 23.7909C12.672 23.3153 12.2735 22.418 12.1573 21.1781C12.1338 20.9272 12.1218 20.6622 12.1218 20.3839C12.1218 20.3666 12.1218 20.3493 12.1219 20.3319C12.1222 20.2888 12.1227 20.2455 12.1236 20.2019C12.1237 20.1976 12.1237 20.1933 12.1238 20.189C12.1323 19.7798 12.1672 19.3502 12.2262 18.9141C12.232 18.8708 12.2381 18.8275 12.2444 18.7842C12.2847 18.5077 12.3345 18.2292 12.3933 17.9521C12.4186 17.8326 12.4456 17.7135 12.4742 17.5949C12.4868 17.5424 12.4998 17.4901 12.513 17.438C12.5168 17.4229 12.5207 17.4079 12.5246 17.3929C12.5277 17.3807 12.5309 17.3685 12.5341 17.3564C12.6266 17.002 12.7335 16.6543 12.8535 16.321C12.8721 16.2694 12.891 16.218 12.9102 16.167C12.9327 16.1075 12.9556 16.0484 12.9789 15.9899C12.9941 15.9519 13.0094 15.914 13.0249 15.8765C13.0272 15.8709 13.0295 15.8654 13.0318 15.8599C13.0858 15.731 13.1419 15.6039 13.2001 15.479C13.4938 14.8485 13.8399 14.274 14.2323 13.7979C14.4636 13.5172 14.711 13.2708 14.9732 13.0671C15.4929 12.6634 16.071 12.4279 16.6978 12.4279C16.9839 12.4279 17.2445 12.4909 17.4778 12.613C17.7744 12.7683 18.027 13.0191 18.2318 13.3573C18.3184 13.5004 18.3965 13.6591 18.4658 13.8328C18.5377 14.0132 18.6002 14.2099 18.6528 14.422C18.6531 14.4232 18.6534 14.4244 18.6537 14.4256C18.6638 14.4664 18.6736 14.5078 18.6829 14.5497C18.7204 14.7174 18.7521 14.8943 18.7778 15.0799L19.3498 13.0519H22.2618L20.2338 20.0979C20.2112 20.1779 20.1898 20.2559 20.1699 20.3319C20.1221 20.5147 20.0823 20.6861 20.0518 20.8455C20.0319 20.9492 20.016 21.0478 20.0044 21.1412C19.9843 21.3021 19.9768 21.4473 19.9837 21.576C19.9908 21.7078 20.0129 21.8222 20.0518 21.9184C20.0576 21.9328 20.0638 21.9468 20.0704 21.9603C20.1725 22.1707 20.3668 22.2819 20.6758 22.2819C21.0125 22.2819 21.3601 22.0537 21.6935 21.6629C21.7825 21.5587 21.8704 21.4428 21.9569 21.3166C22.0835 21.1319 22.2069 20.9251 22.3256 20.7C22.3272 20.6971 22.3287 20.6942 22.3302 20.6912C22.4305 20.5005 22.5275 20.2967 22.6202 20.0824C22.6302 20.0592 22.6402 20.0359 22.6501 20.0125C22.8434 19.556 23.0174 19.0536 23.1637 18.5271C23.1805 18.4664 23.197 18.4054 23.2131 18.3441C23.2737 18.1137 23.3288 17.8792 23.3779 17.6426C23.4608 17.2425 23.5264 16.836 23.5712 16.4319C23.586 16.2982 23.5986 16.1647 23.6087 16.0318C23.6098 16.0178 23.6108 16.0039 23.6119 15.9899C23.6284 15.7623 23.6379 15.5364 23.6398 15.3139C23.6398 15.0023 23.6255 14.7017 23.5976 14.4126C23.5922 14.3563 23.5862 14.3004 23.5798 14.245C23.5451 13.947 23.4956 13.6616 23.4322 13.3888C23.207 12.4209 22.8055 11.6129 22.2618 10.9756C21.5246 10.1115 20.5257 9.56123 19.3498 9.35173C19.0651 9.30101 18.77 9.27026 18.4658 9.25988C18.3884 9.25724 18.3104 9.25591 18.2318 9.25591C17.9777 9.25591 17.7262 9.27124 17.4778 9.30123C17.2141 9.33306 16.9539 9.38142 16.6978 9.44551C15.4706 9.75263 14.3373 10.421 13.3641 11.3637C12.9232 11.7907 12.5152 12.2741 12.1461 12.8057C11.6879 13.4658 11.2898 14.2003 10.9636 14.9935C10.9627 14.9958 10.9618 14.998 10.9609 15.0003C10.8721 15.2165 10.7887 15.4371 10.7109 15.6618C10.2314 17.0458 9.96379 18.5836 9.96379 20.2019C9.96405 20.2454 9.96456 20.2887 9.96532 20.3319C9.96563 20.3493 9.96598 20.3666 9.96637 20.3839C9.99679 21.7384 10.2759 22.9464 10.7712 23.9634C11.5393 25.5404 12.8272 26.658 14.5138 27.1497C14.8439 27.2459 15.1893 27.3181 15.549 27.3652C15.6199 27.3744 15.6914 27.3827 15.7634 27.39C15.7802 27.3917 15.797 27.3934 15.8138 27.3949C15.9757 27.4103 16.1404 27.4206 16.3078 27.4259C16.3937 27.4286 16.4804 27.4299 16.5678 27.4299C17.9007 27.4299 19.0518 27.1455 20.0518 26.6856C20.2667 26.5867 20.4746 26.4798 20.6758 26.3658C21.0139 26.1743 21.3332 25.9629 21.6351 25.7368C21.8341 25.5877 22.0255 25.4323 22.2098 25.2719L22.8078 27.0919C22.3891 27.4543 21.8856 27.8116 21.3035 28.1323C21.1035 28.2425 20.8941 28.3484 20.6758 28.4487C20.4753 28.5407 20.2673 28.628 20.0518 28.7096C19.6795 28.8506 19.2852 28.9744 18.8696 29.0761C18.162 29.2492 17.3931 29.3579 16.5678 29.3769C16.4817 29.3789 16.3951 29.3799 16.3078 29.3799C15.687 29.3799 15.0875 29.32 14.5138 29.2044C14.3422 29.1699 14.1729 29.1303 14.006 29.086ZM18.0979 17.7438C18.1014 17.7237 18.1047 17.7036 18.108 17.6836C18.1833 17.2275 18.2302 16.7804 18.2487 16.3739C18.2505 16.3341 18.2521 16.2947 18.2533 16.2557C18.2563 16.1647 18.2578 16.076 18.2578 15.9899C18.2578 15.9165 18.2554 15.8458 18.2507 15.7777C18.2464 15.7146 18.2401 15.6538 18.2318 15.5954C18.219 15.5054 18.2016 15.4212 18.1798 15.3433C18.177 15.3334 18.1742 15.3236 18.1713 15.3139C18.1667 15.2986 18.1619 15.2834 18.1569 15.2686C18.1455 15.2347 18.1332 15.2022 18.12 15.171C18.0572 15.0228 17.9739 14.9058 17.8717 14.8244C17.7615 14.7365 17.6295 14.6899 17.4778 14.6899C17.4661 14.6899 17.4544 14.6901 17.4428 14.6906C17.4304 14.6911 17.418 14.6919 17.4057 14.6929C17.1904 14.7108 16.985 14.808 16.7918 14.9673C16.7601 14.9934 16.7288 15.0211 16.6978 15.0505C16.684 15.0636 16.6702 15.077 16.6565 15.0907C16.6488 15.0985 16.641 15.1064 16.6333 15.1144C16.5486 15.2019 16.4666 15.3013 16.3876 15.4109C16.3507 15.4621 16.3143 15.5155 16.2787 15.5711C16.1958 15.7002 16.1164 15.8405 16.041 15.9899C15.9607 16.1489 15.8849 16.3182 15.8138 16.4952C15.7554 16.6407 15.7002 16.7915 15.6484 16.9461C15.6475 16.949 15.6465 16.9519 15.6455 16.9548C15.6229 17.0225 15.601 17.0909 15.5798 17.1599C15.5663 17.2037 15.553 17.2478 15.54 17.2924C15.4625 17.5562 15.3921 17.8322 15.3306 18.1122C15.3277 18.1252 15.3248 18.1383 15.322 18.1514C15.2858 18.3188 15.2527 18.4875 15.2232 18.6557C15.2218 18.6634 15.2205 18.671 15.2192 18.6787C15.1893 18.8504 15.1633 19.0215 15.1413 19.1901C15.0967 19.5326 15.0691 19.865 15.0617 20.1714C15.0615 20.1816 15.0613 20.1918 15.0611 20.2019C15.061 20.2052 15.061 20.2085 15.0609 20.2117C15.0602 20.2523 15.0598 20.2924 15.0598 20.3319C15.0598 20.3494 15.0599 20.3668 15.06 20.3839C15.0624 20.6436 15.0823 20.8627 15.1163 21.0464C15.13 21.1206 15.146 21.189 15.164 21.252C15.1719 21.2798 15.1803 21.3065 15.189 21.3322C15.3291 21.7452 15.5662 21.8919 15.8138 21.8919C16.0257 21.8919 16.2277 21.813 16.4183 21.6711C16.4432 21.6526 16.468 21.6329 16.4925 21.6122C16.5178 21.5909 16.5429 21.5685 16.5678 21.545C16.6122 21.503 16.656 21.4576 16.699 21.409C16.7694 21.3295 16.8379 21.2416 16.9043 21.1461C16.9588 21.0678 17.0119 20.9844 17.0636 20.8966C17.0635 20.8966 17.0636 20.8965 17.0636 20.8966C17.1562 20.7392 17.2443 20.5672 17.3275 20.3839C17.3354 20.3667 17.3432 20.3493 17.3509 20.3319C17.379 20.2685 17.4066 20.2038 17.4336 20.1379C17.4485 20.1016 17.4632 20.0649 17.4778 20.0278C17.5587 19.8216 17.6341 19.6051 17.7035 19.3818C17.7046 19.3781 17.7058 19.3743 17.7069 19.3706C17.7129 19.3512 17.7189 19.3317 17.7248 19.3121C17.7759 19.1438 17.8236 18.9719 17.8678 18.7979C17.89 18.7159 17.9112 18.6333 17.9314 18.5504C17.9788 18.3566 18.021 18.1609 18.0581 17.9655C18.0592 17.9596 18.0603 17.9536 18.0614 17.9477C18.0629 17.9401 18.0643 17.9324 18.0657 17.9248C18.0769 17.8644 18.0877 17.804 18.0979 17.7438ZM31.3896 8.76362V15.5479C31.4238 15.4677 31.4586 15.3897 31.4939 15.3139C31.8351 14.5806 32.2242 14.0528 32.6445 13.6863C32.4854 11.9815 32.0723 10.3163 31.3896 8.76362ZM32.7191 15.4744C31.9172 15.5475 31.3896 16.505 31.3896 18.2779V22.2947C32.2367 20.1501 32.6987 17.7994 32.7191 15.4744Z" fill="black"/>
</svg>
