<svg width="362" height="85" viewBox="0 0 362 85" fill="none" xmlns="http://www.w3.org/2000/svg">
<path d="M122.244 16.5688H278.902V51.7072H122.244V16.5688Z" fill="black"/>
<path d="M318.248 18.3787H324.338V22.361C324.338 24.7036 323.987 26.968 323.284 29.1544C322.62 31.3018 321.625 33.332 320.297 35.2451C319.009 37.1191 317.447 38.837 315.612 40.3987C313.816 41.9214 311.786 43.2293 309.522 44.3225C307.257 45.3767 304.837 46.177 302.26 46.7236L299.214 40.9258C301.518 40.4963 303.646 39.8521 305.598 38.9932C307.55 38.1342 309.307 37.0996 310.869 35.8893C312.43 34.6399 313.758 33.293 314.851 31.8484C315.983 30.3648 316.823 28.8226 317.369 27.2218C317.955 25.582 318.248 23.9618 318.248 22.361V18.3787ZM319.653 18.3787H325.685V22.361C325.685 24.0008 325.978 25.6406 326.564 27.2804C327.149 28.8811 327.989 30.4233 329.082 31.9069C330.175 33.3515 331.503 34.679 333.064 35.8893C334.626 37.0996 336.383 38.1538 338.335 39.0518C340.326 39.9107 342.474 40.5354 344.777 40.9258L341.732 46.7236C339.116 46.177 336.676 45.3767 334.411 44.3225C332.186 43.2293 330.156 41.9214 328.321 40.3987C326.525 38.8761 324.963 37.1777 323.636 35.3037C322.347 33.3906 321.352 31.3408 320.649 29.1544C319.985 26.968 319.653 24.7036 319.653 22.361V18.3787ZM297.867 56.5624H346.651V62.2431H297.867V56.5624Z" fill="white"/>
<path d="M253.129 50.3547H290.025V69.0366H283.056V55.9768H253.129V50.3547ZM246.277 39.8132H249.908C252.797 39.8132 255.296 39.7936 257.404 39.7546C259.552 39.7155 261.504 39.6179 263.261 39.4618C265.057 39.3056 266.872 39.0518 268.707 38.7004L269.293 44.2055C267.419 44.5178 265.564 44.7716 263.729 44.9668C261.894 45.123 259.884 45.2206 257.697 45.2596C255.511 45.2986 252.915 45.3182 249.908 45.3182H246.277V39.8132ZM246.277 19.1401H267.009V24.6451H253.129V41.8043H246.277V19.1401ZM283.407 15.1577H290.025V47.9535H283.407V15.1577ZM263.847 29.0374H275.559V34.5424H263.847V29.0374ZM272.748 16.2119H279.249V47.6022H272.748V16.2119Z" fill="white"/>
<path d="M227.658 15.1577H234.686V54.0442H227.658V15.1577ZM199.138 62.4189H236.092V67.9824H199.138V62.4189ZM199.138 50.1204H206.107V64.6443H199.138V50.1204ZM205.463 18.6716C208.196 18.6716 210.655 19.2572 212.842 20.4285C215.028 21.5607 216.746 23.1419 217.995 25.1722C219.284 27.2024 219.928 29.5449 219.928 32.1998C219.928 34.8157 219.284 37.1583 217.995 39.2275C216.746 41.2577 215.028 42.8585 212.842 44.0298C210.655 45.201 208.196 45.7867 205.463 45.7867C202.73 45.7867 200.27 45.201 198.084 44.0298C195.897 42.8585 194.16 41.2577 192.871 39.2275C191.622 37.1583 190.997 34.8157 190.997 32.1998C190.997 29.5449 191.622 27.2024 192.871 25.1722C194.16 23.1419 195.897 21.5607 198.084 20.4285C200.27 19.2572 202.73 18.6716 205.463 18.6716ZM205.463 24.7036C204.018 24.7036 202.71 25.016 201.539 25.6407C200.368 26.2263 199.45 27.0852 198.786 28.2175C198.123 29.3107 197.791 30.6381 197.791 32.1998C197.791 33.7615 198.123 35.1085 198.786 36.2407C199.45 37.3339 200.368 38.1929 201.539 38.8176C202.71 39.4032 204.018 39.696 205.463 39.696C206.907 39.696 208.215 39.4032 209.386 38.8176C210.558 38.1929 211.475 37.3339 212.139 36.2407C212.803 35.1085 213.135 33.7615 213.135 32.1998C213.135 30.6381 212.803 29.3107 212.139 28.2175C211.475 27.0852 210.558 26.2263 209.386 25.6407C208.215 25.016 206.907 24.7036 205.463 24.7036Z" fill="white"/>
<path d="M140.369 18.7887C143.18 18.7887 145.698 19.3548 147.923 20.487C150.149 21.5802 151.886 23.1224 153.135 25.1136C154.424 27.0657 155.068 29.3302 155.068 31.907C155.068 34.4448 154.424 36.7092 153.135 38.7004C151.886 40.6916 150.149 42.2533 147.923 43.3855C145.698 44.4787 143.18 45.0253 140.369 45.0253C137.557 45.0253 135.039 44.4787 132.814 43.3855C130.588 42.2533 128.831 40.6916 127.543 38.7004C126.255 36.7092 125.61 34.4448 125.61 31.907C125.61 29.3302 126.255 27.0657 127.543 25.1136C128.831 23.1224 130.588 21.5802 132.814 20.487C135.039 19.3548 137.557 18.7887 140.369 18.7887ZM140.369 24.7622C138.846 24.7622 137.479 25.055 136.269 25.6406C135.098 26.1872 134.161 27.0071 133.458 28.1003C132.755 29.1545 132.404 30.4234 132.404 31.907C132.404 33.3906 132.755 34.679 133.458 35.7722C134.161 36.8264 135.098 37.6463 136.269 38.2319C137.479 38.7785 138.846 39.0518 140.369 39.0518C141.891 39.0518 143.238 38.7785 144.409 38.2319C145.581 37.6463 146.518 36.8264 147.22 35.7722C147.923 34.679 148.275 33.3906 148.275 31.907C148.275 30.4234 147.923 29.1545 147.22 28.1003C146.518 27.0071 145.581 26.1872 144.409 25.6406C143.238 25.055 141.891 24.7622 140.369 24.7622ZM160.69 15.0991H167.659V69.0951H160.69V15.0991ZM124.088 57.968L123.268 52.2873C126.469 52.2873 129.983 52.2677 133.809 52.2287C137.675 52.1506 141.637 51.9944 145.698 51.7602C149.797 51.4869 153.76 51.0574 157.586 50.4718L158.113 55.5083C154.17 56.2891 150.168 56.8552 146.108 57.2066C142.086 57.519 138.202 57.7337 134.454 57.8508C130.705 57.9289 127.25 57.968 124.088 57.968Z" fill="white"/>
<path d="M106.816 15.0991H113.785V69.0951H106.816V15.0991ZM72.0873 50.706H76.7725C79.9349 50.706 82.9217 50.667 85.7327 50.5889C88.5829 50.4718 91.3939 50.2766 94.166 50.0033C96.938 49.73 99.7881 49.3591 102.716 48.8905L103.419 54.5127C98.9292 55.2935 94.5759 55.8206 90.3593 56.0939C86.1427 56.3282 81.6137 56.4453 76.7725 56.4453H72.0873V50.706ZM71.9702 19.7842H97.2699V40.1645H79.115V52.8729H72.0873V34.6595H90.1836V25.4064H71.9702V19.7842Z" fill="white"/>
<path d="M15.2263 45.4353H64.0101V51.116H15.2263V45.4353ZM35.958 49.0662H42.9271V69.0366H35.958V49.0662ZM39.5304 17.0317C43.3566 17.0317 46.7142 17.5393 49.6034 18.5544C52.4925 19.5305 54.7375 20.9165 56.3382 22.7124C57.978 24.5084 58.7979 26.6362 58.7979 29.0959C58.7979 31.5556 57.978 33.6834 56.3382 35.4794C54.7375 37.2754 52.4925 38.6614 49.6034 39.6374C46.7142 40.6135 43.3566 41.1015 39.5304 41.1015C35.7432 41.1015 32.3856 40.6135 29.4574 39.6374C26.5682 38.6614 24.3037 37.2754 22.6639 35.4794C21.0242 33.6834 20.2043 31.5556 20.2043 29.0959C20.2043 26.6362 21.0242 24.5084 22.6639 22.7124C24.3037 20.9165 26.5682 19.5305 29.4574 18.5544C32.3856 17.5393 35.7432 17.0317 39.5304 17.0317ZM39.4718 22.5953C37.0512 22.5953 34.9233 22.8491 33.0883 23.3566C31.2924 23.8642 29.8868 24.606 28.8717 25.5821C27.8566 26.5191 27.3491 27.6709 27.3491 29.0374C27.3491 30.4429 27.8566 31.6337 28.8717 32.6098C29.8868 33.5468 31.2924 34.2691 33.0883 34.7766C34.9233 35.2842 37.0512 35.538 39.4718 35.538C41.9705 35.538 44.1179 35.2842 45.9138 34.7766C47.7489 34.2691 49.1544 33.5468 50.1305 32.6098C51.1456 31.6337 51.6531 30.4429 51.6531 29.0374C51.6531 27.6709 51.1456 26.5191 50.1305 25.5821C49.1544 24.606 47.7489 23.8642 45.9138 23.3566C44.1179 22.8491 41.9705 22.5953 39.4718 22.5953Z" fill="white"/>
<path fill-rule="evenodd" clip-rule="evenodd" d="M303.248 18.3787C303.248 10.0944 309.963 3.37866 318.248 3.37866H325.685C333.97 3.37866 340.685 10.0944 340.685 18.3787V22.2149C340.751 22.3715 340.871 22.6078 341.098 22.9256C341.329 23.218 341.688 23.5949 342.253 24.0331C342.803 24.4597 343.512 24.9076 344.432 25.3444C345.212 25.6658 346.148 25.9442 347.284 26.1367C352.022 26.9398 356.089 29.9646 358.22 34.2716C360.24 38.3525 360.292 43.1163 358.391 47.2243C360.432 49.7866 361.651 53.032 361.651 56.5624V62.2431C361.651 70.5274 354.936 77.2431 346.651 77.2431H297.867C292.028 77.2431 286.969 73.9068 284.49 69.0365H290.024V50.3546H284.208C284.593 49.5093 285.054 48.706 285.582 47.9535H290.024V29.0706C291.886 27.6277 294.086 26.6235 296.465 26.1799C297.746 25.9411 298.757 25.6153 299.557 25.2635C300.426 24.8811 301.086 24.4815 301.594 24.0985C302.229 23.5796 302.633 23.1368 302.89 22.7967L302.927 22.7483C303.056 22.5786 303.124 22.4643 303.155 22.4079C303.168 22.3843 303.175 22.369 303.178 22.3617C303.2 22.2999 303.221 22.2383 303.243 22.1768C303.245 22.1722 303.246 22.1679 303.248 22.1637V18.3787ZM297.867 56.5624V62.2431H346.651V56.5624H297.867ZM326.555 27.256C325.975 25.6243 325.685 23.9927 325.685 22.361V18.3787H318.248V22.361C318.248 23.9618 317.955 25.582 317.369 27.2218C317.366 27.2312 317.363 27.2407 317.36 27.2501C317.352 27.2721 317.344 27.2941 317.337 27.3161C316.937 28.4611 316.387 29.576 315.687 30.6608C315.663 30.6982 315.638 30.7355 315.614 30.7729C315.492 30.9582 315.366 31.1426 315.236 31.3261C315.204 31.3708 315.172 31.4153 315.14 31.4599C315.107 31.5056 315.073 31.5513 315.04 31.5969C315.034 31.6043 315.029 31.6117 315.023 31.6191C314.967 31.6957 314.909 31.7721 314.851 31.8484C314.311 32.5613 313.715 33.2505 313.061 33.9159C312.935 34.0442 312.807 34.1717 312.677 34.2983C312.275 34.6884 311.853 35.0701 311.411 35.4434C311.408 35.4461 311.405 35.4487 311.402 35.4513C311.227 35.5986 311.049 35.7446 310.869 35.8893C309.958 36.5954 308.98 37.2417 307.936 37.8282C307.56 38.0394 307.176 38.2428 306.783 38.4385C306.755 38.452 306.728 38.4655 306.701 38.479C306.34 38.6569 305.973 38.8283 305.598 38.9932C304.146 39.632 302.597 40.152 300.951 40.5533C300.384 40.6916 299.805 40.8157 299.214 40.9258L302.26 46.7236C304.341 46.2821 306.32 45.6751 308.198 44.9025C308.645 44.7186 309.086 44.5252 309.522 44.3225C310.055 44.0652 310.575 43.796 311.082 43.5149C312.159 42.9178 313.177 42.2669 314.137 41.5624C314.378 41.386 314.614 41.2063 314.847 41.0231C314.874 41.0025 314.9 40.9818 314.926 40.9611C315.158 40.777 315.387 40.5895 315.612 40.3987C315.843 40.202 316.07 40.0028 316.293 39.8011C317.68 38.5434 318.899 37.1894 319.949 35.7389C319.954 35.7319 319.959 35.7249 319.964 35.7179C320.077 35.5614 320.188 35.4038 320.297 35.2451C320.721 34.6349 321.111 34.0127 321.466 33.3787C321.643 33.0649 321.81 32.7482 321.97 32.4285C322.127 32.7486 322.292 33.0653 322.463 33.3787C322.823 34.035 323.213 34.6767 323.636 35.3037C323.731 35.4387 323.828 35.5728 323.926 35.706C323.942 35.728 323.959 35.7499 323.975 35.7719C325.047 37.2185 326.263 38.5571 327.623 39.7877C327.852 39.9944 328.084 40.1981 328.321 40.3987C328.574 40.6087 328.83 40.8146 329.091 41.0163C329.33 41.2018 329.573 41.3838 329.818 41.5624C330.775 42.2577 331.779 42.9007 332.831 43.4915C333.346 43.781 333.873 44.0581 334.411 44.3225C334.821 44.5134 335.237 44.6959 335.659 44.8701C335.706 44.8896 335.753 44.909 335.8 44.9282C337.665 45.6886 339.643 46.2871 341.732 46.7236L344.777 40.9258C344.18 40.8246 343.593 40.7076 343.017 40.5748C341.371 40.1956 339.81 39.688 338.335 39.0518C337.969 38.8833 337.609 38.7093 337.257 38.5298C337.217 38.5093 337.177 38.4888 337.137 38.4682C336.749 38.2686 336.37 38.0622 335.999 37.8492C334.954 37.2491 333.976 36.5958 333.064 35.8893C332.878 35.7449 332.695 35.5988 332.515 35.4511C332.498 35.4365 332.48 35.422 332.462 35.4074C332.051 35.0674 331.658 34.7186 331.282 34.361C331.137 34.2226 330.994 34.0829 330.854 33.9418C330.207 33.2915 329.617 32.6132 329.082 31.9069C329.037 31.8464 328.993 31.7857 328.949 31.725C328.92 31.684 328.891 31.643 328.861 31.602C328.775 31.4802 328.69 31.358 328.607 31.2354C328.556 31.1595 328.505 31.0834 328.455 31.0072C328.402 30.927 328.35 30.8468 328.299 30.7663C328.283 30.7407 328.266 30.715 328.25 30.6894C327.567 29.6065 327.014 28.4937 326.59 27.3509C326.581 27.3274 326.572 27.3039 326.564 27.2804C326.561 27.2723 326.558 27.2641 326.555 27.256ZM282.879 55.9767C282.871 56.171 282.867 56.3663 282.867 56.5624V62.2431C282.867 63.0533 282.932 63.8485 283.055 64.6239V55.9767H282.879Z" fill="black"/>
<path fill-rule="evenodd" clip-rule="evenodd" d="M253.129 39.8041C254.698 39.7948 256.123 39.7783 257.404 39.7546C257.469 39.7534 257.534 39.7522 257.599 39.7509C257.649 39.7499 257.698 39.7489 257.748 39.7478C258.268 39.7367 258.777 39.7221 259.273 39.704C259.731 39.6874 260.179 39.6677 260.617 39.6451C260.84 39.6336 261.06 39.6213 261.277 39.6083C261.922 39.5696 262.545 39.5242 263.145 39.472C263.183 39.4686 263.222 39.4652 263.261 39.4618C263.456 39.4448 263.651 39.4267 263.846 39.4075C263.98 39.3942 264.114 39.3805 264.249 39.3662C265.164 39.2688 266.084 39.1463 267.009 38.9987C267.381 38.9392 267.755 38.8756 268.129 38.808C268.215 38.7926 268.3 38.7769 268.385 38.7611C268.393 38.7598 268.4 38.7585 268.407 38.7571C268.507 38.7385 268.607 38.7196 268.707 38.7004L269.293 44.2055C268.997 44.2548 268.702 44.3026 268.407 44.349C268.238 44.3756 268.069 44.4016 267.901 44.4273C266.675 44.6135 265.458 44.7744 264.249 44.91C264.114 44.9251 263.98 44.9398 263.846 44.9543C263.814 44.9577 263.782 44.9612 263.75 44.9646C263.746 44.965 263.743 44.9653 263.739 44.9657C263.736 44.9661 263.733 44.9664 263.729 44.9668C262.944 45.0336 262.127 45.0897 261.277 45.1351C260.858 45.1575 260.431 45.1772 259.996 45.1944C259.269 45.2231 258.519 45.2446 257.748 45.2587C257.731 45.259 257.714 45.2593 257.697 45.2596C257.634 45.2607 257.57 45.2618 257.506 45.2629C257.506 45.263 257.505 45.263 257.504 45.263C256.525 45.2798 255.465 45.2927 254.325 45.3019C254.023 45.3043 253.715 45.3064 253.401 45.3083C253.311 45.3089 253.22 45.3094 253.129 45.3099C252.114 45.3154 251.04 45.3182 249.908 45.3182H246.277V19.1401H267.009V24.6451H253.129V39.8041ZM272.748 34.5424V47.6022H279.249V16.2119H272.748V29.0374H263.846V34.5424H272.748ZM283.407 15.1577V47.9535H290.024V15.1577H283.407ZM297.867 56.5625V62.2432H305.024V69.0366C305.024 77.3209 298.309 84.0366 290.024 84.0366H283.055C275.429 84.0366 269.131 78.3445 268.18 70.9768H253.129C245.531 70.9768 239.253 65.328 238.265 58.0011C236.626 56.9637 235.202 55.6174 234.075 54.0442H234.686V15.1577H231.812C233.556 8.80633 239.372 4.14007 246.277 4.14007H263.843C266.333 2.2998 269.414 1.21187 272.748 1.21187H277.872C279.584 0.531641 281.452 0.157715 283.407 0.157715H290.024C298.309 0.157715 305.024 6.87344 305.024 15.1577V39.2373C303.846 39.7223 302.605 40.1316 301.303 40.4653C300.624 40.6394 299.927 40.7929 299.214 40.9259L302.26 46.7237C302.999 46.5669 303.725 46.3892 304.439 46.1906C304.635 46.136 304.83 46.0799 305.024 46.0221V47.9535C305.024 48.3577 305.008 48.758 304.977 49.1541C305.008 49.5502 305.024 49.9506 305.024 50.3547V56.5625H297.867ZM283.055 69.0366H290.024V50.3547H253.129V55.9768H283.055V69.0366Z" fill="black"/>
<path fill-rule="evenodd" clip-rule="evenodd" d="M216.164 5.52028C218.915 2.24186 223.043 0.157715 227.658 0.157715H234.686C242.97 0.157715 249.686 6.87344 249.686 15.1577V19.1401H246.277V45.3182H249.686V54.0442C249.686 54.6542 249.65 55.2557 249.579 55.8466C250.548 57.8313 251.092 60.0616 251.092 62.4189V67.9824C251.092 76.2667 244.376 82.9824 236.092 82.9824H199.138C190.853 82.9824 184.138 76.2667 184.138 67.9824V52.177C182.668 50.7078 181.351 49.0684 180.206 47.2649C180.147 47.1708 180.088 47.076 180.03 46.9806C177.253 42.3804 175.997 37.3157 175.997 32.1998C175.997 27.094 177.231 21.9673 180.096 17.3107C180.133 17.2518 180.169 17.1932 180.206 17.1348C182.933 12.839 186.651 9.47671 191.093 7.15674C195.648 4.73777 200.548 3.67155 205.463 3.67155C209.081 3.67155 212.692 4.24967 216.164 5.52028ZM206.107 50.1204H199.138V67.9824H236.092V62.4189H206.107V50.1204ZM227.658 54.0442H234.686V15.1577H227.658V54.0442ZM217.995 39.2275C218.828 37.8903 219.391 36.4389 219.686 34.8734C219.847 34.0164 219.928 33.1252 219.928 32.1998C219.928 31.2606 219.847 30.3605 219.686 29.4995C219.391 27.9266 218.828 26.4841 217.995 25.1722C217.937 25.0769 217.877 24.9826 217.816 24.8893C217.798 24.8609 217.779 24.8326 217.761 24.8043C216.534 22.95 214.894 21.4914 212.842 20.4285C212.781 20.3959 212.72 20.3637 212.658 20.332C212.543 20.2724 212.427 20.2144 212.31 20.158C212.261 20.1343 212.212 20.1109 212.163 20.0878C210.15 19.1436 207.916 18.6716 205.463 18.6716C203.009 18.6716 200.775 19.1436 198.762 20.0878C198.713 20.1109 198.664 20.1343 198.615 20.158C198.436 20.2444 198.259 20.3346 198.084 20.4285C196.039 21.4872 194.387 22.9384 193.128 24.7822C193.109 24.8103 193.09 24.8386 193.071 24.867C193.003 24.9675 192.937 25.0693 192.871 25.1722C191.622 27.2024 190.997 29.5449 190.997 32.1998C190.997 33.9279 191.27 35.5366 191.815 37.0261C192.095 37.7914 192.447 38.5252 192.871 39.2275C192.946 39.3447 193.022 39.4604 193.099 39.5747C193.118 39.6029 193.137 39.631 193.156 39.6589C194.412 41.4858 196.054 42.9427 198.084 44.0298C198.259 44.1237 198.436 44.2138 198.615 44.3002C198.664 44.3239 198.713 44.3473 198.762 44.3705C198.887 44.4288 199.012 44.4852 199.138 44.5399C201.052 45.3711 203.16 45.7867 205.463 45.7867C205.679 45.7867 205.894 45.783 206.107 45.7757C208.309 45.6997 210.327 45.2313 212.163 44.3705C212.212 44.3473 212.261 44.3239 212.31 44.3002C212.427 44.2438 212.543 44.1858 212.658 44.1263C212.72 44.0945 212.781 44.0624 212.842 44.0298C214.671 43.0496 216.173 41.7686 217.346 40.1868C217.48 40.0075 217.608 39.8242 217.733 39.6371C217.752 39.6091 217.77 39.581 217.789 39.5527C217.859 39.4456 217.928 39.3372 217.995 39.2275ZM212.658 35.1318C212.976 34.2571 213.135 33.2798 213.135 32.1998C213.135 31.1198 212.976 30.1519 212.658 29.2959C212.584 29.0966 212.502 28.9034 212.411 28.7162C212.397 28.6886 212.384 28.6612 212.37 28.6339C212.298 28.4915 212.221 28.3527 212.139 28.2175C211.59 27.2814 210.868 26.5321 209.972 25.9696C209.948 25.9541 209.923 25.9388 209.898 25.9236C209.733 25.8231 209.563 25.7288 209.386 25.6407C208.314 25.0688 207.127 24.7587 205.826 24.7104C205.706 24.7059 205.585 24.7036 205.463 24.7036C205.34 24.7036 205.218 24.706 205.097 24.7105C203.796 24.7592 202.61 25.0692 201.539 25.6407C201.363 25.7288 201.192 25.8231 201.027 25.9236C201.002 25.9388 200.978 25.9541 200.953 25.9696C200.057 26.5321 199.335 27.2814 198.786 28.2175C198.699 28.3614 198.617 28.5094 198.541 28.6614C198.528 28.689 198.514 28.7168 198.501 28.7446C198.027 29.7293 197.791 30.881 197.791 32.1998C197.791 33.2853 197.951 34.267 198.272 35.145C198.336 35.3224 198.408 35.4956 198.486 35.6646C198.507 35.7097 198.528 35.7546 198.55 35.7992C198.623 35.9498 198.702 36.097 198.786 36.2407C198.896 36.4222 199.014 36.5971 199.138 36.7656C199.65 37.4616 200.282 38.0476 201.033 38.5235C201.196 38.6267 201.365 38.7247 201.539 38.8176C202.601 39.3489 203.776 39.6392 205.064 39.6885C205.196 39.6935 205.329 39.696 205.463 39.696C205.597 39.696 205.729 39.6935 205.861 39.6885C205.944 39.6853 206.025 39.6812 206.107 39.676C207.299 39.6011 208.392 39.3149 209.386 38.8176C209.561 38.7247 209.729 38.6267 209.892 38.5235C210.787 37.9562 211.513 37.2325 212.07 36.3524C212.093 36.3155 212.116 36.2782 212.139 36.2407C212.227 36.0897 212.31 35.9348 212.387 35.7761C212.392 35.7657 212.397 35.7553 212.402 35.7448C212.497 35.5464 212.582 35.342 212.658 35.1318ZM205.815 32.1207L205.946 32.366C205.942 32.3795 205.938 32.3932 205.933 32.407C205.928 32.4252 205.922 32.4436 205.915 32.4621L205.58 32.2584L205.815 32.1207ZM205.857 31.7575C205.839 31.7159 205.82 31.6747 205.8 31.634C205.777 31.5889 205.754 31.5446 205.728 31.5017L205.857 31.7575ZM205.329 31.2106L205.336 31.2231L205.267 31.361L205.201 31.4029C205.208 31.3907 205.215 31.3786 205.221 31.3667C205.227 31.3567 205.233 31.3467 205.239 31.3369C205.247 31.3249 205.255 31.3126 205.263 31.3001C205.283 31.2713 205.305 31.2413 205.329 31.2106ZM205.211 33.003C205.216 33.0122 205.221 33.0213 205.226 33.0305C205.239 33.0562 205.254 33.0818 205.268 33.1073C205.273 33.1135 205.277 33.1198 205.282 33.1262C205.299 33.1514 205.319 33.1774 205.339 33.204C205.342 33.2074 205.344 33.2109 205.347 33.2143C205.378 33.2531 205.411 33.2931 205.447 33.3335C205.452 33.3268 205.458 33.3202 205.463 33.3137C205.493 33.2749 205.517 33.2396 205.536 33.2095L205.211 33.003ZM205.062 32.6743L205.646 33.0336C205.654 33.0204 205.662 33.0071 205.67 32.9938C205.738 32.8787 205.796 32.7624 205.844 32.65C205.855 32.623 205.866 32.5961 205.876 32.5696L205.463 32.3271L205.029 32.5814C205.039 32.6121 205.05 32.6431 205.062 32.6743ZM204.994 32.4719L205.345 32.2584L205.111 32.1207L204.97 32.3844C204.972 32.3944 204.975 32.4047 204.978 32.4153C204.979 32.4198 204.98 32.4244 204.982 32.4291C204.986 32.4433 204.99 32.4575 204.994 32.4719ZM205.17 32.0095L205.463 32.1873L205.755 32.0095L205.529 31.5851L205.333 31.7035L205.17 32.0095Z" fill="black"/>
<path fill-rule="evenodd" clip-rule="evenodd" d="M140.339 32.8734C140.317 32.8254 140.297 32.7773 140.277 32.7291C140.262 32.6921 140.248 32.6551 140.235 32.6182C140.232 32.6109 140.229 32.6036 140.227 32.5963C140.205 32.535 140.185 32.4739 140.167 32.4132C140.164 32.4023 140.16 32.3913 140.157 32.3804C140.079 32.105 140.069 31.9325 140.068 31.907C140.068 31.9047 140.068 31.9042 140.068 31.9043C140.068 31.9043 140.068 31.9039 140.068 31.9043C140.068 31.8802 140.074 31.7243 140.137 31.4783L140.339 31.3485L140.541 31.4783C140.604 31.7245 140.61 31.8804 140.61 31.9043C140.61 31.9049 140.61 31.9058 140.61 31.907C140.609 31.9325 140.599 32.105 140.521 32.3804C140.518 32.3913 140.515 32.4023 140.511 32.4132C140.493 32.4739 140.473 32.535 140.452 32.5963C140.449 32.6036 140.446 32.6109 140.444 32.6182C140.43 32.6551 140.416 32.6921 140.401 32.7291C140.39 32.7551 140.38 32.7811 140.368 32.8071C140.359 32.8293 140.349 32.8513 140.339 32.8734ZM140.195 31.2806L140.214 31.2681L140.202 31.2604C140.2 31.2671 140.197 31.2739 140.195 31.2806ZM140.251 31.1258L140.339 31.1847L140.427 31.1258C140.409 31.0776 140.389 31.0301 140.368 30.9833C140.359 30.9617 140.349 30.9403 140.339 30.919C140.308 30.9862 140.278 31.0553 140.251 31.1258ZM143.997 38.4101C143.569 38.581 143.118 38.7178 142.646 38.8204C142.578 38.8353 142.509 38.8495 142.439 38.8629C141.789 38.9888 141.099 39.0518 140.368 39.0518C139.622 39.0518 138.914 38.9862 138.243 38.8549C138.109 38.8288 137.976 38.8 137.845 38.7685C137.438 38.6708 137.045 38.5478 136.667 38.3995C136.532 38.3469 136.4 38.291 136.269 38.2319C136.044 38.1195 135.828 37.9985 135.62 37.8688C135.596 37.8534 135.571 37.8378 135.547 37.8221C135.253 37.6339 134.977 37.4281 134.719 37.2046C134.237 36.7883 133.817 36.3108 133.458 35.7722C133.321 35.5597 133.198 35.3398 133.088 35.1125C132.632 34.1707 132.404 33.1022 132.404 31.907C132.404 30.7228 132.628 29.6755 133.075 28.7649C133.084 28.7468 133.093 28.7288 133.102 28.7108C133.209 28.4999 133.327 28.2964 133.458 28.1003C134.008 27.2445 134.702 26.5561 135.539 26.0353C135.564 26.02 135.588 26.0048 135.613 25.9898C135.823 25.8631 136.042 25.7467 136.269 25.6406C136.385 25.5846 136.502 25.5312 136.621 25.4805C137.008 25.3151 137.411 25.1783 137.828 25.07C137.959 25.0363 138.09 25.0053 138.224 24.9771C138.9 24.8338 139.615 24.7622 140.368 24.7622C141.038 24.7622 141.674 24.8188 142.275 24.9321C142.472 24.9691 142.665 25.0121 142.854 25.0612C143.267 25.1684 143.663 25.3043 144.042 25.469C144.166 25.5231 144.289 25.5803 144.409 25.6406C144.653 25.7543 144.886 25.8798 145.11 26.0171C145.134 26.0324 145.159 26.0478 145.184 26.0634C145.359 26.1743 145.528 26.2925 145.69 26.4182C146.286 26.8791 146.796 27.4399 147.22 28.1003C147.334 28.2707 147.438 28.4467 147.534 28.6284C147.557 28.6735 147.58 28.719 147.603 28.7649C148.051 29.6755 148.275 30.7228 148.275 31.907C148.275 33.1022 148.046 34.1707 147.59 35.1125C147.577 35.1403 147.563 35.168 147.549 35.1955C147.45 35.3934 147.34 35.5857 147.22 35.7722C147.009 36.0892 146.777 36.385 146.523 36.6597C146.267 36.9368 145.989 37.1923 145.69 37.4263C145.525 37.5552 145.354 37.6776 145.176 37.7934C145.152 37.8093 145.127 37.8252 145.102 37.8409C145.036 37.8827 144.969 37.9236 144.902 37.9637C144.862 37.9871 144.823 38.0101 144.783 38.0328C144.661 38.102 144.536 38.1683 144.409 38.2319C144.274 38.2949 144.137 38.3543 143.997 38.4101ZM126.755 37.2799C125.992 35.6508 125.61 33.8598 125.61 31.907C125.61 29.3302 126.254 27.0657 127.543 25.1136C127.668 24.9206 127.797 24.7318 127.931 24.5472C127.952 24.5176 127.974 24.4881 127.995 24.4587C129.232 22.7811 130.839 21.4572 132.814 20.487C133.071 20.3562 133.332 20.233 133.596 20.1174C133.623 20.1059 133.649 20.0945 133.675 20.0831C135.683 19.2201 137.914 18.7887 140.368 18.7887C142.277 18.7887 144.051 19.0497 145.69 19.5718C146.141 19.7155 146.582 19.879 147.013 20.0623C147.064 20.084 147.115 20.106 147.165 20.1284C147.422 20.2408 147.674 20.3604 147.923 20.487C149.879 21.4476 151.457 22.7549 152.659 24.4089C152.67 24.4236 152.681 24.4383 152.691 24.4531C152.713 24.4828 152.734 24.5125 152.755 24.5424C152.886 24.7285 153.013 24.9189 153.135 25.1136C154.424 27.0657 155.068 29.3302 155.068 31.907C155.068 33.2721 154.882 34.5582 154.509 35.7652C154.188 36.8019 153.731 37.7803 153.135 38.7004C153.004 38.909 152.868 39.1128 152.727 39.312C152.706 39.3416 152.684 39.3712 152.663 39.4007C152.662 39.4024 152.66 39.4042 152.659 39.406C152.078 40.2083 151.408 40.933 150.65 41.5801C149.841 42.2702 148.932 42.872 147.923 43.3855C147.673 43.5086 147.418 43.6248 147.16 43.734C147.109 43.7556 147.058 43.7769 147.007 43.798C146.578 43.974 146.139 44.131 145.69 44.2691C145.552 44.3116 145.413 44.3524 145.273 44.3913C145.251 44.3973 145.229 44.4033 145.208 44.4092C145.177 44.4176 145.146 44.4258 145.116 44.434C145.079 44.4439 145.042 44.4536 145.005 44.4632C143.56 44.8379 142.014 45.0253 140.368 45.0253C138.112 45.0253 136.044 44.673 134.164 43.9684C134.115 43.9501 134.067 43.9315 134.018 43.9127C133.929 43.8782 133.84 43.8428 133.751 43.8067C133.742 43.8029 133.733 43.799 133.723 43.7952C133.695 43.7835 133.666 43.7718 133.638 43.7599C133.601 43.7446 133.565 43.7291 133.528 43.7134C133.287 43.6102 133.049 43.5009 132.814 43.3855C132.509 43.2305 132.213 43.0673 131.926 42.8962C130.366 41.9666 129.065 40.7995 128.024 39.3947C128.002 39.3656 127.981 39.3363 127.959 39.3069C127.816 39.1094 127.677 38.9072 127.543 38.7004C127.246 38.2414 126.983 37.7679 126.755 37.2799ZM114.986 16.9088C117.795 12.5893 121.618 9.29407 126.106 7.07028C130.664 4.77158 135.527 3.78865 140.368 3.78865C143.445 3.78865 146.53 4.18556 149.54 5.06476C152.286 2.01597 156.264 0.0991211 160.69 0.0991211H167.659C175.943 0.0991211 182.659 6.81485 182.659 15.0991V69.0951C182.659 77.3794 175.943 84.0951 167.659 84.0951H160.69C153.49 84.0951 147.475 79.0222 146.024 72.2557C142.226 72.5344 138.525 72.7309 134.922 72.8435C134.87 72.8451 134.818 72.8465 134.766 72.8476C130.932 72.9275 127.371 72.968 124.088 72.968C120.128 72.968 116.488 71.4236 113.785 68.8701V18.928C114.151 18.2449 114.551 17.5713 114.986 16.9088ZM160.69 69.0951H167.659V15.0991H160.69V69.0951ZM145.69 51.7606C145.693 51.7605 145.695 51.7603 145.698 51.7602C147.332 51.6512 148.944 51.5175 150.535 51.3589C150.674 51.345 150.813 51.331 150.952 51.3167C151.227 51.2885 151.502 51.2594 151.776 51.2296C151.82 51.2249 151.863 51.2202 151.907 51.2154C151.921 51.2138 151.935 51.2123 151.95 51.2107C152.187 51.1847 152.423 51.1581 152.659 51.1309C154.169 50.9571 155.66 50.7604 157.13 50.5408C157.282 50.518 157.434 50.495 157.586 50.4718L158.113 55.5083C157.544 55.621 156.974 55.7292 156.402 55.8329C155.746 55.9521 155.088 56.0653 154.429 56.1726C154.36 56.1839 154.29 56.1951 154.221 56.2062C153.701 56.2898 153.181 56.3697 152.659 56.4459C150.493 56.7626 148.309 57.0162 146.108 57.2066C146.092 57.2078 146.077 57.209 146.061 57.2102C146.045 57.2115 146.029 57.2128 146.012 57.214C145.905 57.2223 145.797 57.2306 145.69 57.2387C143.889 57.376 142.115 57.4935 140.368 57.5913C138.36 57.7039 136.389 57.7904 134.453 57.8508C134.276 57.8545 134.099 57.8581 133.923 57.8617C133.904 57.862 133.885 57.8624 133.867 57.8628C132.08 57.8983 130.361 57.9249 128.709 57.9424C127.105 57.9594 125.564 57.968 124.088 57.968L123.268 52.2873C123.539 52.2873 123.812 52.2871 124.088 52.2868C125.436 52.2855 126.837 52.2807 128.292 52.2727C128.344 52.2724 128.396 52.2721 128.448 52.2718C129.255 52.2672 130.078 52.2616 130.917 52.255C131.86 52.2475 132.824 52.2387 133.809 52.2287C133.965 52.2255 134.121 52.2223 134.277 52.2189C134.297 52.2184 134.317 52.218 134.336 52.2176C135.678 52.1881 137.031 52.1492 138.396 52.101C139.051 52.0779 139.708 52.0526 140.368 52.0251C141.826 51.9645 143.297 51.8934 144.781 51.8118C145.066 51.7962 145.351 51.7801 145.637 51.7637C145.653 51.7628 145.669 51.7619 145.685 51.7609C145.686 51.7608 145.688 51.7607 145.69 51.7606ZM140.476 31.2604L140.464 31.2681L140.483 31.2806C140.481 31.2739 140.478 31.2671 140.476 31.2604Z" fill="black"/>
<path fill-rule="evenodd" clip-rule="evenodd" d="M95.9252 4.78424C98.659 1.89885 102.527 0.0991211 106.816 0.0991211H113.785C122.069 0.0991211 128.785 6.81485 128.785 15.0991V23.4913C128.331 23.9941 127.917 24.5349 127.543 25.1136C126.254 27.0657 125.61 29.3302 125.61 31.907C125.61 34.4448 126.254 36.7092 127.543 38.7004C127.917 39.2791 128.331 39.8215 128.785 40.3276V52.2698C126.853 52.2814 125.014 52.2873 123.268 52.2873L124.088 57.968C125.587 57.968 127.153 57.9592 128.785 57.9416V69.0951C128.785 77.3794 122.069 84.0951 113.785 84.0951H106.816C99.1842 84.0951 92.8838 78.396 91.9383 71.0216C91.7352 71.0357 91.5323 71.0494 91.3295 71.0625C91.3029 71.0642 91.2762 71.0659 91.2496 71.0675C91.2302 71.0686 91.2108 71.0697 91.1914 71.0708C86.6611 71.3225 81.8521 71.4453 76.7725 71.4453H72.0873C63.8031 71.4453 57.0873 64.7296 57.0873 56.4453V51.116H64.0101V45.4353H57.0873V34.6595C57.0873 34.6252 57.0875 34.5909 57.0877 34.5567C57.6902 33.7166 58.1336 32.8122 58.4177 31.8433C58.6712 30.9788 58.7979 30.063 58.7979 29.0959C58.7979 28.6674 58.773 28.249 58.7233 27.8407C58.619 26.985 58.4055 26.1736 58.0827 25.4064C57.7973 24.728 57.4265 24.0841 56.9702 23.4749V19.7842C56.9702 11.5 63.6859 4.78424 71.9702 4.78424H95.9252ZM106.816 15.0991V69.0951H113.785V15.0991H106.816ZM71.9702 19.7842V25.4064H90.1836V34.6595H72.0873V56.4453H76.7725C77.5616 56.4453 78.3425 56.4422 79.115 56.436C81.4495 56.4171 83.7083 56.3699 85.8912 56.2943C85.9165 56.2934 85.9418 56.2925 85.9671 56.2916C86.3428 56.2785 86.7162 56.2645 87.0873 56.2497C87.5659 56.2306 88.0407 56.21 88.5118 56.1881C89.1341 56.1592 89.75 56.1278 90.3593 56.0939C90.6636 56.0742 90.9686 56.0531 91.2742 56.0308C91.4545 56.0176 91.635 56.0039 91.8158 55.9898C92.4827 55.9378 93.153 55.8795 93.8266 55.8149C94.1271 55.7861 94.4282 55.7561 94.7301 55.7248C96.0685 55.5861 97.4201 55.4229 98.7849 55.2352C100.313 55.025 101.858 54.7842 103.419 54.5127L102.716 48.8905C102.627 48.9048 102.538 48.919 102.449 48.9331C101.214 49.1286 99.9922 49.3066 98.7849 49.4672C98.2774 49.5347 97.7724 49.5991 97.2699 49.6604C96.2246 49.788 95.1899 49.9023 94.166 50.0033C94.149 50.0049 94.132 50.0066 94.115 50.0083C93.6662 50.0524 93.2163 50.0944 92.7654 50.1344C92.4493 50.1624 92.1328 50.1895 91.8158 50.2155C91.2257 50.2639 90.6338 50.3089 90.0402 50.3503C90.0226 50.3516 90.0049 50.3528 89.9873 50.354C89.0252 50.4209 88.0586 50.4786 87.0873 50.5272C86.6368 50.5497 86.1853 50.5703 85.7327 50.5889C83.6256 50.6474 81.4197 50.684 79.115 50.6987V40.1645H97.2699V19.7842H71.9702Z" fill="black"/>
<path fill-rule="evenodd" clip-rule="evenodd" d="M23.2894 36.116C23.6698 36.4761 24.0782 36.8177 24.5149 37.1409C24.5494 37.1664 24.584 37.1918 24.6188 37.2171C25 37.4938 25.4021 37.7567 25.8253 38.0059C26.9004 38.6387 28.111 39.1826 29.4574 39.6374C30.1309 39.862 30.8272 40.0606 31.5462 40.2335C31.5564 40.236 31.5667 40.2384 31.5769 40.2409C32.9541 40.5703 34.4144 40.8052 35.958 40.9454C37.0849 41.0479 38.2562 41.0999 39.4718 41.1015C39.4913 41.1015 39.5108 41.1015 39.5304 41.1015C40.7069 41.1015 41.8391 41.0554 42.9271 40.9631C44.5235 40.8277 46.0245 40.5929 47.4302 40.2587C47.4405 40.2563 47.4508 40.2538 47.4611 40.2514C48.2017 40.0744 48.9158 39.8697 49.6034 39.6374C50.908 39.1967 52.0813 38.6723 53.1232 38.0644C53.6097 37.7805 54.0676 37.4784 54.4968 37.1581C54.4982 37.1571 54.4996 37.1561 54.5009 37.155C54.9392 36.8277 55.3476 36.4814 55.7261 36.116C55.9397 35.9098 56.1437 35.6976 56.3382 35.4794C57.6727 34.0178 58.4642 32.3364 58.7127 30.4353C58.7695 30.0003 58.7979 29.5539 58.7979 29.0959C58.7979 29.0764 58.7979 29.0569 58.7978 29.0374C58.7848 26.6024 57.965 24.4941 56.3382 22.7124C55.8252 22.1368 55.246 21.6033 54.6006 21.1119C54.5334 21.0608 54.4656 21.0102 54.397 20.96C53.0681 19.9869 51.4702 19.1851 49.6034 18.5544C48.913 18.3118 48.1959 18.0983 47.4521 17.9137C47.4419 17.9111 47.4317 17.9086 47.4214 17.9061C45.0601 17.3232 42.4298 17.0317 39.5304 17.0317C39.5108 17.0317 39.4913 17.0318 39.4718 17.0318C36.5947 17.0358 33.9661 17.3334 31.5858 17.9246C31.5757 17.9271 31.5655 17.9297 31.5553 17.9322C30.8331 18.1125 30.1338 18.3199 29.4574 18.5544C27.5811 19.1883 25.9682 19.9951 24.6188 20.9748C24.584 21.0001 24.5494 21.0255 24.5149 21.051C23.8283 21.5591 23.2113 22.1129 22.6639 22.7124C21.0372 24.4941 20.2173 26.6024 20.2044 29.0374C20.2043 29.0569 20.2043 29.0764 20.2043 29.0959C20.2043 29.5539 20.2327 30.0003 20.2895 30.4353C20.538 32.3364 21.3295 34.0178 22.6639 35.4794C22.8632 35.6976 23.0717 35.9098 23.2894 36.116ZM27.5359 30.4353C27.5797 30.5901 27.6313 30.7416 27.6906 30.8898C27.9437 31.5227 28.3374 32.096 28.8717 32.6098C29.519 33.2072 30.325 33.7174 31.2898 34.1403C31.2969 34.1434 31.3041 34.1466 31.3113 34.1497C31.6161 34.2826 31.9366 34.4067 32.2729 34.5222C32.5351 34.6123 32.8069 34.6971 33.0883 34.7766C33.9763 35.0222 34.9329 35.2084 35.958 35.3352C36.1092 35.3539 36.2618 35.3713 36.416 35.3874C36.4408 35.39 36.4656 35.3925 36.4905 35.3951C36.9891 35.4457 37.5032 35.4828 38.0328 35.5065C38.1639 35.5124 38.296 35.5175 38.4291 35.5217C38.6046 35.5273 38.7818 35.5314 38.9606 35.5341C39.1296 35.5367 39.2999 35.538 39.4718 35.538C39.4914 35.538 39.5109 35.5379 39.5304 35.5379C39.7026 35.5376 39.8732 35.5362 40.0421 35.5335C40.0887 35.5327 40.1352 35.5319 40.1816 35.5309C40.4487 35.5256 40.7116 35.5172 40.9702 35.5057C41.5018 35.4821 42.0156 35.4456 42.5114 35.3961C42.5363 35.3936 42.5611 35.3911 42.5859 35.3885C42.7006 35.3767 42.8143 35.3643 42.9271 35.3511C44.0121 35.2242 45.0077 35.0327 45.9138 34.7766C46.1808 34.7028 46.4387 34.6244 46.6874 34.5415C47.0605 34.4171 47.4132 34.2825 47.7454 34.1377C48.7143 33.7154 49.5093 33.206 50.1305 32.6098C50.6422 32.1177 51.025 31.571 51.2787 30.9698C51.2899 30.9433 51.3009 30.9166 51.3116 30.8898C51.3709 30.7416 51.4225 30.5901 51.4663 30.4353C51.5859 30.0131 51.6481 29.5667 51.6528 29.0959C51.653 29.0764 51.6531 29.0569 51.6531 29.0374C51.6531 28.4078 51.5454 27.8237 51.3299 27.2853C51.3192 27.2586 51.3083 27.2321 51.2971 27.2057C51.0436 26.6072 50.6547 26.066 50.1305 25.5821C49.5125 24.9642 48.7225 24.4401 47.7603 24.01C47.7391 24.0005 47.7178 23.9911 47.6965 23.9817C47.1558 23.7442 46.5616 23.5358 45.9138 23.3566C44.9135 23.074 43.8042 22.87 42.5859 22.7447C42.5611 22.7422 42.5363 22.7397 42.5114 22.7372C41.8806 22.6742 41.2207 22.6322 40.5318 22.6112C40.5265 22.611 40.5212 22.6109 40.5159 22.6107C40.3492 22.6057 40.1807 22.6019 40.0106 22.5993C39.852 22.5969 39.6919 22.5956 39.5304 22.5954C39.5109 22.5953 39.4914 22.5953 39.4718 22.5953C39.3106 22.5953 39.1507 22.5964 38.9921 22.5987C38.8223 22.6011 38.6539 22.6048 38.4871 22.6098C38.3535 22.6138 38.2208 22.6186 38.0891 22.6243C37.5396 22.6479 37.0067 22.6858 36.4905 22.7382C36.4656 22.7407 36.4408 22.7433 36.416 22.7459C35.2165 22.8712 34.1073 23.0748 33.0883 23.3566C32.4566 23.5352 31.8731 23.7427 31.338 23.9792C31.3241 23.9854 31.3102 23.9916 31.2963 23.9977C30.3287 24.4302 29.5205 24.9583 28.8717 25.5821C28.3243 26.0874 27.9245 26.6551 27.6723 27.2853C27.4568 27.8237 27.3491 28.4078 27.3491 29.0374C27.3491 29.0569 27.3492 29.0764 27.3494 29.0959C27.3541 29.5667 27.4163 30.0131 27.5359 30.4353ZM24.6003 4.36248C29.3982 2.70752 34.4489 2.03174 39.5304 2.03174C44.6148 2.03174 49.6865 2.69796 54.4899 4.37249C59.141 5.95612 63.7748 8.53991 67.4768 12.6657C69.4241 14.8138 70.9345 17.2118 71.9899 19.7842H71.9702V25.4064H73.5294C73.7079 26.6153 73.7979 27.8472 73.7979 29.0959C73.7979 30.6666 73.6555 32.2107 73.3736 33.716C73.7456 34.0136 74.103 34.3285 74.4448 34.6595H72.0874V56.4453H76.7725C77.1963 56.4453 77.6178 56.4444 78.0368 56.4426C75.8883 62.0973 70.4185 66.116 64.0101 66.116H57.9271V69.0366C57.9271 77.3208 51.2114 84.0366 42.9271 84.0366H35.958C27.6737 84.0366 20.958 77.3208 20.958 69.0366V66.116H15.2263C6.94205 66.116 0.226318 59.4002 0.226318 51.116V45.4353C0.226318 40.787 2.34067 36.6325 5.66009 33.8811C5.35731 32.3237 5.20426 30.7241 5.20426 29.0959C5.20426 22.9409 7.39159 17.193 11.5867 12.5984C15.3052 8.52572 19.9258 5.94972 24.6003 4.36248ZM15.2263 51.116H35.958V69.0366H42.9271V51.116H64.0101V45.4353H15.2263V51.116Z" fill="black"/>
</svg>
