<svg width="831" height="412" viewBox="0 0 831 412" fill="none" xmlns="http://www.w3.org/2000/svg">
<path d="M112.129 98.5216C112.129 44.3998 157.6 0 214.516 0C271.431 0 316.442 44.3998 316.442 98.5216C316.442 152.643 270.203 197.503 214.516 197.503C158.829 197.503 112.129 153.103 112.129 98.5216ZM241.245 98.7513C241.245 83.8237 228.879 71.4224 214.362 71.4224C199.845 71.4224 186.711 83.7472 186.711 98.7513C186.711 113.755 199.307 126.08 214.362 126.08C229.417 126.08 241.245 113.985 241.245 98.7513Z" fill="black"/>
<path d="M505.922 194.098H323.252V3.40625H398.763V119.744C398.763 128.356 406.368 134.507 414.51 134.507C424.266 134.507 430.488 128.279 430.488 119.744V3.40625H505.999V194.098H505.922Z" fill="black"/>
<path d="M515.231 3.40625H610.356C654.16 3.40625 689.065 35.624 689.065 75.1465C689.065 90.1404 684.309 103.75 675.947 115.207H693.284V194.098H617.874V147.117H590.488V194.098H515.078V3.40625H515.231ZM619.409 77.2994C619.409 66.5346 610.817 57.9995 600.384 57.9995C589.951 57.9995 581.128 66.6114 581.128 77.2994C581.128 87.9874 589.951 96.3686 600.384 96.3686C610.817 96.3686 619.409 87.7567 619.409 77.2994Z" fill="black"/>
<path d="M0.699219 220.587H79.0191V411.279H0.699219V220.587Z" fill="black"/>
<path d="M88.1745 220.587H270.844V411.279H195.333V294.942C195.333 286.33 187.729 280.178 179.586 280.178C169.83 280.178 163.608 286.407 163.608 294.942V411.279H88.0977V220.587H88.1745Z" fill="black"/>
<path d="M279.925 220.587H376.339C431.202 220.587 476.292 263.493 476.292 315.933C476.292 368.374 431.202 411.279 376.339 411.279H279.925V220.587ZM399.962 315.933C399.962 300.939 387.804 288.483 372.799 288.483C357.795 288.483 345.33 300.862 345.33 315.933C345.33 331.004 357.718 343.384 372.799 343.384C387.881 343.384 399.962 331.004 399.962 315.933Z" fill="black"/>
<path d="M483.104 220.663H629.529V284.639H565.463C558.575 284.639 553.599 289.836 553.599 297.174C553.599 304.512 558.575 309.709 565.463 309.709H586.818V346.168H629.529V410.144H483.104V220.587V220.663Z" fill="black"/>
<path d="M637.819 298.063H655.966L635.204 220.587H720.556V275.85C720.556 292.298 740.318 292.298 740.318 275.85V220.587H830.437L809.675 298.063H827.822V411.279H752.236V352.404H713.405V411.279H637.819V298.063Z" fill="black"/>
</svg>
