<svg width="58" height="18" viewBox="0 0 58 18" fill="none" xmlns="http://www.w3.org/2000/svg">
<path fill-rule="evenodd" clip-rule="evenodd" d="M44.6841 12.0019C44.7629 12.0493 44.8497 12.0729 44.9442 12.0729C45.4382 12.0729 45.7372 11.3579 45.7372 9.91491C45.7372 8.44591 45.4382 7.74391 44.9442 7.74391C44.8497 7.74391 44.7629 7.76713 44.6841 7.81395V12.0019ZM44.6876 13.2689C44.7761 15.3997 46.5316 17.0999 48.6841 17.0999H50.4781C50.6994 17.0999 50.9165 17.0819 51.1281 17.0474C51.3396 17.0819 51.5568 17.0999 51.7781 17.0999H53.5851C55.7942 17.0999 57.5851 15.3091 57.5851 13.0999V8.64091C57.5851 7.61058 57.3877 6.21796 56.5409 4.95604C55.5608 3.49551 53.944 2.58691 52.0641 2.58691C51.6453 2.58691 51.2038 2.63323 50.756 2.74129C50.6557 2.73375 50.5543 2.72991 50.4521 2.72991H48.6841C46.5272 2.72991 44.769 4.43712 44.6871 6.57399C44.7715 6.56533 44.8572 6.56091 44.9442 6.56091C45.2581 6.56091 45.5562 6.6197 45.832 6.72991C46.0544 6.81881 46.2622 6.94115 46.4521 7.0931C46.5486 7.17036 46.6405 7.25528 46.7273 7.34734C46.8968 7.52719 47.0469 7.73431 47.1741 7.96491C47.3779 8.33444 47.5231 8.76429 47.5956 9.23891C47.6287 9.45542 47.6467 9.68125 47.6482 9.91491C47.6482 10.2029 47.6224 10.4796 47.5733 10.7422C47.4165 11.5812 47.0226 12.2747 46.4781 12.7239C46.2885 12.8802 46.0807 13.007 45.8583 13.0999C45.5748 13.2184 45.2676 13.2819 44.9442 13.2819C44.8574 13.2819 44.7718 13.2775 44.6876 13.2689ZM48.6841 13.0999H50.4781V9.23891C50.4781 9.07809 50.4868 8.93069 50.5034 8.79691C50.5101 8.74267 50.5182 8.69066 50.5274 8.64091C50.5725 8.39937 50.6472 8.21095 50.7456 8.07724C50.7773 8.03408 50.8116 7.99662 50.8481 7.96491C50.9475 7.8786 51.0638 7.83491 51.1931 7.83491C51.3296 7.83491 51.4396 7.88254 51.5257 7.96491C51.6429 8.07709 51.7159 8.25371 51.7516 8.46226C51.7614 8.51962 51.7684 8.5794 51.7727 8.64091C51.7763 8.69185 51.7781 8.74398 51.7781 8.79691V13.0999H53.5851V8.64091C53.5851 8.40349 53.5649 8.17614 53.5236 7.96491C53.4126 7.39843 53.1492 6.94791 52.7131 6.72991C52.5283 6.63754 52.3124 6.58691 52.0641 6.58691C51.841 6.58691 51.6229 6.62844 51.4164 6.72991C51.3403 6.7673 51.2657 6.81282 51.1931 6.8674C50.9113 7.07908 50.6579 7.42701 50.4521 7.96491V6.72991H48.6841V13.0999Z" fill="#0B0000"/>
<path fill-rule="evenodd" clip-rule="evenodd" d="M51.6485 9.88837L51.6485 9.91504C51.6485 13.2204 49.4437 17.282 44.9445 17.282C40.4283 17.282 38.2275 13.2444 38.2275 9.91504C38.2275 8.54005 38.6049 7.04568 39.3657 5.76538V5.85903H41.1727V4.00003H40.851C41.898 3.12279 43.261 2.56104 44.9445 2.56104C48.1387 2.56104 50.1686 4.5958 51.083 6.95884C50.8454 7.17462 50.631 7.49832 50.4524 7.96504V6.73004H48.6844V13.1H50.4784V9.23904C50.4784 8.31604 50.7644 7.83504 51.1934 7.83504C51.2609 7.83504 51.3219 7.84668 51.3767 7.86841C51.5539 8.54541 51.6441 9.2312 51.6485 9.88837ZM39.3787 13.1V6.73004H41.1727V13.1H39.3787ZM45.6454 9.44979C45.4188 9.33692 45.1731 9.28204 44.9445 9.28204C44.693 9.28204 44.437 9.34368 44.2111 9.45778C44.1891 9.46889 44.1678 9.48026 44.1473 9.49183C44.1751 8.85676 44.2684 8.39927 44.4214 8.11203C44.5529 7.86514 44.7286 7.74403 44.9445 7.74403C45.1492 7.74403 45.3204 7.86454 45.4507 8.11018C45.6033 8.39769 45.6998 8.8566 45.7285 9.49434C45.702 9.47908 45.6743 9.46419 45.6454 9.44979ZM47.6061 9.30953C47.6327 9.50443 47.6472 9.70662 47.6485 9.91504C47.6485 10.1152 47.636 10.31 47.6119 10.4983C47.4028 12.1323 46.32 13.282 44.9445 13.282C43.5451 13.282 42.47 12.1417 42.2635 10.4993C42.2398 10.3108 42.2275 10.1158 42.2275 9.91504C42.2275 9.70777 42.2408 9.50644 42.2664 9.31218C42.4798 7.691 43.5515 6.56103 44.9445 6.56103C46.3146 6.56103 47.3839 7.68095 47.6061 9.30953ZM44.4231 11.7052C44.5544 11.9507 44.7295 12.073 44.9445 12.073C45.1484 12.073 45.319 11.9513 45.4491 11.707C45.601 11.4218 45.6977 10.9696 45.7276 10.349C45.7008 10.3644 45.6728 10.3794 45.6436 10.394C45.4181 10.5062 45.173 10.561 44.9445 10.561C44.7047 10.561 44.4528 10.5032 44.2244 10.389C44.1979 10.3758 44.1725 10.3622 44.1481 10.3483C44.1769 10.968 44.2705 11.4198 44.4231 11.7052ZM44.1386 9.93843L45.7375 9.92778C45.7375 9.92354 45.7375 9.91929 45.7375 9.91504H44.1385C44.1385 9.92286 44.1386 9.93066 44.1386 9.93843Z" fill="#0B0000"/>
<path fill-rule="evenodd" clip-rule="evenodd" d="M39.3787 17.1C37.1696 17.1 35.3787 15.3091 35.3787 13.1V7.887H35.514V11.592C35.514 12.151 35.683 12.541 35.982 12.814C36.1171 12.9379 36.2792 13.0325 36.4627 13.1C36.7029 13.1882 36.9799 13.23 37.282 13.23C37.6316 13.23 37.871 13.1841 38.17 13.1C38.2268 13.084 38.2857 13.0667 38.348 13.048V11.774C38.231 11.839 38.075 11.878 37.88 11.878C37.711 11.878 37.568 11.839 37.464 11.735C37.373 11.644 37.321 11.488 37.321 11.254V7.887H38.348V6.73H37.321V4.585H35.631L35.527 6.73H35.3787C35.3787 6.60338 35.3846 6.47814 35.3961 6.35453C35.3761 6.19216 35.3657 6.02679 35.3657 5.859V4C35.3657 1.79086 37.1566 0 39.3657 0H41.1727C43.3819 0 45.1727 1.79086 45.1727 4V5.859C45.1727 6.00616 45.1648 6.15145 45.1493 6.29449C45.1592 6.38585 45.166 6.47813 45.1696 6.57123C45.1499 6.56943 45.1302 6.56786 45.1103 6.56653C45.0556 6.56286 45.0003 6.561 44.9446 6.561C44.6266 6.561 44.3254 6.61986 44.0473 6.73C43.8056 6.82573 43.5813 6.96021 43.3787 7.12843C42.7102 7.68359 42.2776 8.60632 42.2316 9.71734C42.2289 9.78259 42.2276 9.84849 42.2276 9.915C42.2276 11.1221 42.6709 12.1249 43.3787 12.7139C43.5724 12.875 43.7858 13.0051 44.0154 13.1C44.3023 13.2185 44.6144 13.282 44.9446 13.282C45.0203 13.282 45.0952 13.2785 45.1691 13.2716C45.0792 15.4012 43.3244 17.1 41.1727 17.1H39.3787ZM45.1727 7.80165V12.0145C45.1023 12.0535 45.0261 12.073 44.9446 12.073C44.4246 12.073 44.1386 11.358 44.1386 9.915C44.1386 9.20015 44.2063 8.66693 44.3357 8.30784C44.417 8.08244 44.5226 7.92567 44.651 7.83564C44.7384 7.77436 44.8364 7.744 44.9446 7.744C45.0261 7.744 45.1023 7.76312 45.1727 7.80165ZM39.3657 4V5.859H41.1727V4H39.3657ZM41.1727 6.73H39.3787V13.1H41.1727V6.73Z" fill="#0B0000"/>
<path fill-rule="evenodd" clip-rule="evenodd" d="M39.3786 6.72996H41.1726V13.1H39.3786V6.72996ZM38.3478 7.88696V6.72996H37.3208V4.58496H35.6308L35.5268 6.72996H34.6948V7.88696H35.5138V11.592C35.5138 11.6547 35.516 11.7154 35.5202 11.774C35.5534 12.2371 35.7164 12.5716 35.9818 12.814C36.0523 12.8786 36.1302 12.9353 36.2145 12.9843C36.2539 13.0072 36.2948 13.0284 36.337 13.048C36.6042 13.1719 36.9256 13.23 37.2818 13.23C37.513 13.23 37.6959 13.2099 37.8798 13.172C38.0269 13.1417 38.1745 13.1 38.3478 13.048V11.774C38.2549 11.8256 38.1374 11.8608 37.9954 11.8731C37.9585 11.8763 37.92 11.878 37.8798 11.878C37.7339 11.878 37.6073 11.8489 37.5085 11.774C37.4929 11.7621 37.478 11.7491 37.4638 11.735C37.4271 11.6982 37.3967 11.6508 37.3735 11.592C37.3475 11.526 37.3306 11.4457 37.324 11.3498C37.3239 11.348 37.3237 11.3462 37.3236 11.3444C37.3218 11.3156 37.3208 11.2855 37.3208 11.254V7.88696H38.3478ZM33.822 6.72996H32.028V13.1H33.822V6.72996ZM33.2816 15.765C31.9942 14.5878 31.5138 13.0359 31.5138 11.592V10.3124C31.2463 9.96208 31.0353 9.56621 30.8945 9.13846C30.8572 8.78054 30.7925 8.45358 30.7041 8.16172C30.698 8.07093 30.6948 7.97931 30.6948 7.88696V6.72996C30.6948 5.73628 31.0572 4.82722 31.6569 4.12771C31.8858 2.12345 33.5858 0.584961 35.6308 0.584961H37.3208C39.3343 0.584961 41.0003 2.07267 41.2796 4.00883C41.9425 4.72268 42.3478 5.67898 42.3478 6.72996V7.88696C42.3478 8.59264 42.1651 9.25563 41.8444 9.83121C42.1692 10.4159 42.3478 11.0823 42.3478 11.774V13.048C42.3478 14.8144 41.1892 16.3717 39.4972 16.8793C38.9587 17.0408 38.2671 17.23 37.2818 17.23C36.1807 17.23 34.5971 16.9693 33.2816 15.765ZM33.822 3.99996H32.015V5.85896H33.822V3.99996ZM39.3656 5.85896H41.1726V3.99996H39.3656V5.85896Z" fill="#0B0000"/>
<path fill-rule="evenodd" clip-rule="evenodd" d="M32.0281 17.1C29.819 17.1 28.0281 15.3091 28.0281 13.1V12.7941C28.1388 12.9177 28.2593 13.0209 28.3887 13.1C28.5808 13.2175 28.7924 13.282 29.0206 13.282C29.2579 13.282 29.4823 13.2194 29.6882 13.1C29.7338 13.0736 29.7784 13.0444 29.8221 13.0125C30.4896 12.525 30.9316 11.404 30.9316 9.876C30.9316 9.8201 30.931 9.76476 30.9298 9.71C30.899 8.27354 30.4675 7.23231 29.8221 6.7927C29.7891 6.77022 29.7556 6.74931 29.7215 6.73C29.5256 6.61908 29.312 6.561 29.0856 6.561C28.8549 6.561 28.6405 6.62053 28.4458 6.73C28.3458 6.78619 28.2511 6.85553 28.162 6.93673C28.1158 6.97882 28.0712 7.02409 28.0281 7.07236V6.73C28.0281 6.60338 28.034 6.47813 28.0455 6.35452C28.0255 6.19216 28.0151 6.02679 28.0151 5.859V4C28.0151 1.79086 29.806 0 32.0151 0H33.8221C36.0313 0 37.8221 1.79086 37.8221 4V5.859C37.8221 6.00616 37.8142 6.15145 37.7987 6.29449C37.8142 6.43753 37.8221 6.58284 37.8221 6.73H37.321V4.585H35.631L35.527 6.73H34.695V7.887H35.514V11.592C35.514 12.151 35.683 12.541 35.982 12.814C35.997 12.8278 36.0124 12.8412 36.0281 12.8543C36.1535 12.9587 36.2996 13.0401 36.4627 13.1C36.7029 13.1882 36.9799 13.23 37.282 13.23C37.4885 13.23 37.6566 13.214 37.8213 13.1835C37.7768 15.3541 36.0034 17.1 33.8221 17.1H32.0281ZM37.8221 11.8764V7.887H37.321V11.254C37.321 11.488 37.373 11.644 37.464 11.735C37.5559 11.8269 37.6783 11.8681 37.8221 11.8764ZM33.8221 5.859V4H32.0151V5.859H33.8221ZM32.0281 13.1H33.8221V6.73H32.0281V13.1ZM28.0281 11.9522V7.86539C28.1004 7.82791 28.1799 7.809 28.2666 7.809C28.3906 7.809 28.5007 7.85181 28.5961 7.93629C28.6813 8.01167 28.7549 8.12023 28.8165 8.26115C28.9679 8.60772 29.0466 9.15003 29.0466 9.876C29.0466 11.267 28.7606 12.008 28.2536 12.008C28.1724 12.008 28.0972 11.9893 28.0281 11.9522Z" fill="#0B0000"/>
<path fill-rule="evenodd" clip-rule="evenodd" d="M30.8954 10.605C30.9129 10.434 30.9241 10.2562 30.9288 10.0721C30.929 10.0624 30.9293 10.0527 30.9295 10.043C30.9307 9.98789 30.9313 9.93223 30.9313 9.876C30.9313 9.8578 30.9312 9.83966 30.9311 9.82158C30.931 9.80582 30.9308 9.79009 30.9306 9.77443C30.9281 9.58031 30.9183 9.39324 30.9017 9.21371C30.9004 9.19934 30.899 9.18502 30.8976 9.17075C30.8538 8.72828 30.7683 8.3325 30.6481 7.991C30.4348 7.38512 30.1121 6.9501 29.7183 6.72836C29.5232 6.61851 29.3106 6.561 29.0853 6.561C28.7814 6.561 28.5058 6.66429 28.2663 6.84891C27.9878 7.06357 27.7582 7.38819 27.59 7.78827C27.5624 7.85387 27.5365 7.9215 27.5123 7.991V4H25.7183V13.1H27.4733V11.787C27.4969 11.8568 27.522 11.925 27.5487 11.9912C27.7235 12.4256 27.9625 12.7796 28.2533 13.0062C28.2971 13.0404 28.3422 13.0718 28.3884 13.1C28.5804 13.2175 28.7921 13.282 29.0203 13.282C29.2576 13.282 29.482 13.2194 29.6879 13.1C29.6981 13.0941 29.7082 13.0881 29.7183 13.0819C30.1085 12.843 30.43 12.3977 30.6438 11.787C30.7619 11.4496 30.8471 11.0618 30.8928 10.6304C30.8937 10.6219 30.8946 10.6135 30.8954 10.605ZM29.0259 9.28201C29.0394 9.46383 29.0463 9.66193 29.0463 9.876C29.0463 10.1198 29.0375 10.3436 29.0203 10.5469C29.0199 10.5514 29.0195 10.5558 29.0191 10.5602C28.9937 10.8523 28.9508 11.1019 28.8914 11.3073C28.8328 11.5101 28.7581 11.6699 28.6684 11.7854C28.668 11.7859 28.6675 11.7865 28.6671 11.787C28.6546 11.803 28.6419 11.8181 28.6288 11.8324C28.5223 11.9488 28.3966 12.008 28.2533 12.008C28.1756 12.008 28.1035 11.9909 28.037 11.957C27.9648 11.9201 27.8992 11.8634 27.8404 11.787C27.8393 11.7855 27.8382 11.7841 27.837 11.7826C27.8147 11.7531 27.7934 11.7208 27.773 11.6856C27.5881 11.366 27.4861 10.8108 27.4744 10.0302C27.4736 9.97975 27.4733 9.92834 27.4733 9.876C27.4733 9.84165 27.4734 9.80771 27.4738 9.77419C27.4818 8.96781 27.5871 8.40005 27.7926 8.0887C27.8055 8.06919 27.8188 8.05069 27.8324 8.03321C27.844 8.01841 27.8558 8.00434 27.8679 7.991C27.9358 7.91626 28.0125 7.86429 28.0982 7.83555C28.1508 7.81789 28.2068 7.809 28.2663 7.809C28.3981 7.809 28.514 7.85731 28.6135 7.95257C28.6261 7.96463 28.6384 7.97744 28.6505 7.991C28.6628 8.00483 28.6748 8.01944 28.6866 8.03483C28.7689 8.14269 28.8377 8.28872 28.8922 8.47189C28.9571 8.68988 29.0019 8.96049 29.0259 9.28201ZM24.3384 13.1V6.73H22.5444V13.1H24.3384ZM27.6018 17.098C27.5591 17.0993 27.5163 17.1 27.4733 17.1H25.7183C23.5091 17.1 21.7183 15.3091 21.7183 13.1V4C21.7183 1.79086 23.5091 0 25.7183 0H27.5123C29.4105 0 30.9999 1.32226 31.4097 3.09598C31.9035 3.34005 32.3381 3.65232 32.7133 4H32.0148V5.859H33.8218V5.37214C33.8424 5.40666 33.8626 5.44114 33.8822 5.47556C34.2681 6.15188 34.5294 6.88069 34.6947 7.62205V7.887H34.7496C34.8776 8.55331 34.9313 9.22589 34.9313 9.876C34.9313 11.3793 34.6444 12.9809 33.85 14.3579C33.0363 15.7682 31.4217 17.282 29.0203 17.282C28.5047 17.282 28.0329 17.2155 27.6018 17.098ZM32.0278 6.73V13.1H33.8218V6.73H32.0278ZM24.3384 4H22.5314V5.859H24.3384V4Z" fill="#0B0000"/>
<path fill-rule="evenodd" clip-rule="evenodd" d="M22.5447 17.1C20.3356 17.1 18.5447 15.3091 18.5447 13.1V7.93035C18.6339 7.86701 18.7351 7.835 18.8457 7.835C18.9392 7.835 19.0215 7.8589 19.0926 7.90276C19.2188 7.98066 19.3097 8.12156 19.3653 8.30336C19.4089 8.44622 19.4307 8.61433 19.4307 8.797V13.1H21.2377V8.641C21.2377 7.77517 20.9711 7.03125 20.3678 6.73C20.183 6.63774 19.9667 6.587 19.7167 6.587C19.4976 6.587 19.2819 6.62891 19.0761 6.73C18.9451 6.79437 18.8181 6.88274 18.6967 6.99957C18.645 7.04937 18.5943 7.10433 18.5447 7.16481V6.73C18.5447 6.60338 18.5506 6.47814 18.5621 6.35453C18.5421 6.19216 18.5317 6.02679 18.5317 5.859V4C18.5317 1.79086 20.3226 0 22.5317 0H24.3387C26.5479 0 28.3387 1.79086 28.3387 4V5.859C28.3387 6.00616 28.3308 6.15146 28.3153 6.2945C28.3308 6.43754 28.3387 6.58284 28.3387 6.73V6.7965C28.2917 6.82864 28.2459 6.86382 28.2014 6.90189C27.9078 7.1534 27.6728 7.53112 27.5126 7.991V4H25.7186V13.1H27.4736V11.787C27.6669 12.3586 27.9635 12.816 28.3387 13.068V13.1C28.3387 15.3091 26.5479 17.1 24.3387 17.1H22.5447ZM28.3387 7.81405V12.0007C28.3111 12.0056 28.2827 12.008 28.2536 12.008C27.7466 12.008 27.4736 11.28 27.4736 9.876C27.4736 8.524 27.7336 7.809 28.2666 7.809C28.2912 7.809 28.3152 7.81069 28.3387 7.81405ZM24.3387 5.859V4H22.5317V5.859H24.3387ZM22.5447 13.1H24.3387V6.73H22.5447V13.1Z" fill="#0B0000"/>
<path fill-rule="evenodd" clip-rule="evenodd" d="M16.3364 17.1C14.1273 17.1 12.3364 15.3091 12.3364 13.1V12.1225L12.8435 11.033L13.7795 13.1H15.5995L13.9095 9.824L15.5085 6.73H13.7535L12.9085 8.758L12.3364 7.44562V4C12.3364 1.79086 14.1273 0 16.3364 0H18.1304C20.0263 0 21.6142 1.31902 22.0263 3.08945C22.5246 3.32173 22.9795 3.62909 23.3795 4H22.5314V5.859H24.3384V5.18156C25.0677 6.38871 25.2374 7.68347 25.2374 8.641V13.1C25.2374 15.3091 23.4466 17.1 21.2374 17.1H19.4304C19.2091 17.1 18.992 17.082 18.7804 17.0475C18.5689 17.082 18.3518 17.1 18.1304 17.1H16.3364ZM22.5444 6.73V13.1H24.3384V6.73H22.5444ZM16.3364 4V13.1H18.1304V9.239C18.1304 9.07818 18.1391 8.93078 18.1557 8.797C18.1625 8.74275 18.1705 8.69075 18.1798 8.641C18.2329 8.35664 18.3269 8.14592 18.4524 8.01139C18.5104 7.94925 18.5751 7.90337 18.6457 7.874C18.7079 7.84806 18.7747 7.835 18.8454 7.835C18.9158 7.835 18.9799 7.84856 19.0376 7.874C19.2188 7.95387 19.3373 8.15081 19.3931 8.41274C19.4084 8.48433 19.4189 8.56077 19.4248 8.641C19.4286 8.69158 19.4304 8.74367 19.4304 8.797V13.1H21.2374V8.641C21.2374 8.37013 21.2113 8.11119 21.157 7.874C21.0347 7.34015 20.7693 6.91649 20.3364 6.71503C20.1586 6.63226 19.9525 6.587 19.7164 6.587C19.4138 6.587 19.1179 6.66689 18.8454 6.87216C18.5795 7.07254 18.3359 7.39238 18.1304 7.874V4H16.3364Z" fill="#0B0000"/>
<path fill-rule="evenodd" clip-rule="evenodd" d="M6.3809 11.696C6.44087 11.5361 6.51146 11.379 6.59271 11.2258L7.30897 9.8753L6.76578 8.83598H8.64091V7.47098H6.24763C6.11788 6.78234 6.17096 6.06878 6.40456 5.40398H9.48591V3.99998H7.25481C8.00296 3.19873 9.05811 2.72998 10.1785 2.72998H12.0245C12.3192 2.72998 12.6087 2.76234 12.8889 2.82433C13.1691 2.76235 13.4586 2.72998 13.7535 2.72998H15.5085C16.9043 2.72998 18.1992 3.45759 18.925 4.64982C19.2898 5.24898 19.4844 5.92192 19.5064 6.60054C18.9858 6.66969 18.4974 7.01383 18.1304 7.87398V3.99998H16.3364V13.1H18.1304V9.23898C18.1304 8.77531 18.2026 8.42319 18.3288 8.18754C18.4538 7.9541 18.6319 7.83498 18.8454 7.83498C19.0317 7.83498 19.1735 7.92988 19.2708 8.08851C19.2121 8.25097 19.1425 8.41064 19.062 8.56645L18.4112 9.82564L19.1543 11.2661C19.2683 11.4871 19.3603 11.7157 19.4304 11.9491V13.1H19.5995C19.5994 13.8227 19.4037 14.5439 19.0153 15.1814C18.2892 16.3729 16.9948 17.1 15.5995 17.1H13.7795C13.4551 17.1 13.1369 17.0608 12.8304 16.9859C12.524 17.0608 12.2058 17.1 11.8815 17.1H10.1265C8.72306 17.1 7.42231 16.3645 6.69888 15.1619C6.31801 14.5288 6.12649 13.815 6.12646 13.1H9.75891V11.696H6.3809ZM10.1265 13.1H11.8815L12.8435 11.033L13.7795 13.1H15.5995L13.9095 9.82398L15.5085 6.72998H13.7535L12.9085 8.75798L12.0245 6.72998H10.1785L11.8295 9.88898L10.1265 13.1Z" fill="#0B0000"/>
<path fill-rule="evenodd" clip-rule="evenodd" d="M4 17.1C1.79086 17.1 0 15.3091 0 13.1V4C0 1.79086 1.79086 0 4 0H9.486C11.6951 0 13.486 1.79086 13.486 4V5.404C13.486 6.33124 13.1705 7.18478 12.641 7.86315V8.1442L12.0246 6.73H10.1786L11.8296 9.889L10.1266 13.1H11.8816L12.8436 11.033L13.759 13.0546V13.1C13.759 15.3091 11.9681 17.1 9.759 17.1H4ZM9.759 11.696H5.95V8.836H8.641V7.471H5.95V5.404H9.486V4H4V13.1H9.759V11.696Z" fill="#0B0000"/>
</svg>
