<svg width="46" height="46" viewBox="0 0 46 46" fill="none" xmlns="http://www.w3.org/2000/svg">
<circle cx="23" cy="23" r="22.25" fill="white" stroke="black" stroke-width="1.5"/>
<g clip-path="url(#clip0_840_2029)">
<path d="M23.8249 13.242C23.6061 13.0233 23.3094 12.9004 23.0001 12.9004C22.6907 12.9004 22.394 13.0233 22.1752 13.242L15.5754 19.8418C15.464 19.9494 15.3751 20.0782 15.314 20.2205C15.2528 20.3628 15.2206 20.5159 15.2193 20.6708C15.2179 20.8257 15.2475 20.9794 15.3061 21.1228C15.3648 21.2661 15.4514 21.3964 15.5609 21.5059C15.6705 21.6155 15.8007 21.7021 15.9441 21.7608C16.0875 21.8194 16.2411 21.8489 16.396 21.8476C16.551 21.8463 16.704 21.8141 16.8464 21.7529C16.9887 21.6918 17.1175 21.6029 17.2251 21.4915L21.8334 16.8831V32.3333C21.8334 32.6427 21.9563 32.9395 22.1751 33.1583C22.3939 33.3771 22.6907 33.5 23.0001 33.5C23.3095 33.5 23.6062 33.3771 23.825 33.1583C24.0438 32.9395 24.1667 32.6427 24.1667 32.3333V16.8831L28.7751 21.4915C28.9951 21.704 29.2898 21.8216 29.5957 21.8189C29.9016 21.8163 30.1942 21.6936 30.4105 21.4773C30.6268 21.261 30.7495 20.9683 30.7522 20.6624C30.7549 20.3565 30.6373 20.0618 30.4247 19.8418L23.8249 13.242Z" fill="black"/>
</g>
<defs>
<clipPath id="clip0_840_2029">
<rect width="28" height="28" fill="white" transform="translate(9 9)"/>
</clipPath>
</defs>
</svg>
