<svg width="41" height="18" viewBox="0 0 41 18" fill="none" xmlns="http://www.w3.org/2000/svg">
<path fill-rule="evenodd" clip-rule="evenodd" d="M27.6948 13.1922L27.6852 13.1686C27.6598 13.1051 27.6367 13.0438 27.6157 12.9861V10.409L27.9667 9.94104L29.2537 13.1H31.2037L29.3317 9.07004L31.1127 6.73004H29.3057L27.6157 9.14804V7.67257C28.026 4.39142 31.007 2.56104 33.8171 2.56104C36.2176 2.56104 38.4747 3.85868 39.5749 6.09039C39.7078 6.35902 39.8191 6.64659 39.8413 6.70396C39.8432 6.70886 39.8445 6.71209 39.845 6.71347C40.1835 7.55973 40.22 8.48787 39.9632 9.34595C40.1892 10.0638 40.2434 10.7359 40.2347 11.2755C40.1847 14.835 37.1362 17.282 33.8041 17.282C31.3749 17.282 28.8043 15.9157 27.6948 13.1922ZM34.3361 6.612C34.1774 6.58012 34.0125 6.56277 33.8431 6.56116C33.8345 6.56108 33.8258 6.56103 33.8171 6.56103C33.1603 6.56103 32.614 6.75739 32.2243 7.07706C32.2124 7.08677 32.2008 7.09659 32.1892 7.10653C31.8384 7.40837 31.6222 7.81333 31.5769 8.26404C31.5717 8.31547 31.5688 8.3675 31.5681 8.42004C31.5651 8.61486 31.5856 8.79614 31.6306 8.96455C31.6554 9.05746 31.6877 9.14646 31.7276 9.23165C31.7737 9.33003 31.83 9.42333 31.8968 9.51173C31.9396 9.56851 31.9868 9.62327 32.0384 9.67605C32.1767 9.81766 32.3465 9.94503 32.5492 10.059C32.5885 10.0812 32.6291 10.1028 32.671 10.124C32.7368 10.1572 32.8058 10.1893 32.8779 10.2201C32.8827 10.2239 32.8875 10.2276 32.8923 10.2313C32.9807 10.2989 33.0733 10.3556 33.1674 10.4019L33.1861 10.355L33.2386 10.378L33.221 10.4271C33.3551 10.4871 33.4912 10.5263 33.6218 10.546L33.8431 10.643C33.8609 10.6507 33.8783 10.6584 33.8953 10.6661C33.9026 10.6694 33.9098 10.6726 33.9169 10.6759C33.9764 10.7033 34.0308 10.7307 34.0803 10.7585C34.0872 10.7623 34.0939 10.7661 34.1005 10.77C34.1307 10.7875 34.1591 10.8052 34.1856 10.8231C34.2115 10.8407 34.2356 10.8585 34.2581 10.8768C34.2625 10.8803 34.2668 10.8839 34.2711 10.8875C34.3735 10.9739 34.4391 11.0691 34.4742 11.1841C34.4752 11.1873 34.4761 11.1904 34.477 11.1936C34.4969 11.2623 34.5061 11.3381 34.5061 11.423C34.5061 11.4841 34.4997 11.5433 34.4873 11.5997C34.4205 11.9031 34.1789 12.125 33.8171 12.125C33.8128 12.125 33.8085 12.125 33.8041 12.1249C33.7314 12.124 33.6603 12.1147 33.5913 12.0965C33.5775 12.0928 33.5637 12.0888 33.55 12.0844C33.4556 12.054 33.3658 12.0062 33.2827 11.939C33.2808 11.9375 33.2789 11.936 33.277 11.9344C33.1656 11.843 33.0663 11.7166 32.984 11.551C32.964 11.5107 32.9449 11.468 32.927 11.423C32.9202 11.406 32.9136 11.3887 32.9071 11.371C32.9027 11.3606 32.8982 11.3498 32.8937 11.3387C32.8771 11.2971 32.8611 11.251 32.8476 11.2013C32.8451 11.1922 32.8428 11.183 32.8405 11.1736C32.839 11.1676 32.8376 11.1615 32.8362 11.1554C32.8356 11.1526 32.8349 11.1498 32.8343 11.147C32.8318 11.1354 32.8294 11.1237 32.8273 11.1118C32.8267 11.1085 32.8261 11.1052 32.8255 11.1019C32.8217 11.0794 32.8185 11.0565 32.8161 11.0331C32.8161 11.033 32.8161 11.0331 32.8161 11.0331L31.2691 11.28C31.2764 11.3041 31.2836 11.3287 31.2909 11.3535C31.2977 11.3765 31.3045 11.3997 31.3115 11.423C31.3376 11.5105 31.3657 11.5994 31.3991 11.683C31.428 11.7538 31.4593 11.8222 31.493 11.8884C31.5054 11.9128 31.5182 11.9369 31.5313 11.9607C31.6173 12.1174 31.7169 12.2604 31.8276 12.3897C31.8536 12.42 31.8801 12.4495 31.9073 12.4783C31.9155 12.487 31.9237 12.4956 31.932 12.5041C32.1759 12.7555 32.4646 12.9469 32.7762 13.077C32.7802 13.0787 32.7843 13.0804 32.7884 13.0821C32.9102 13.1322 33.0354 13.173 33.1628 13.2044C33.3727 13.256 33.5884 13.282 33.8041 13.282C33.8085 13.282 33.8128 13.282 33.8171 13.282C34.7294 13.2783 35.4398 12.8881 35.8481 12.3368C36.051 12.0628 36.1794 11.7489 36.2207 11.423C36.2294 11.3542 36.2343 11.2847 36.2351 11.215C36.2382 11.0409 36.2254 10.8668 36.1875 10.6959C36.186 10.6891 36.1844 10.6823 36.1828 10.6755C36.1476 10.5254 36.0927 10.378 36.0115 10.2353C35.9822 10.1838 35.9495 10.1329 35.9131 10.0828C35.7692 9.88461 35.5673 9.69771 35.2888 9.52838C35.1682 9.45505 35.0332 9.38501 34.8824 9.31878C34.8204 9.29154 34.7556 9.26495 34.6881 9.23904L33.7781 8.87504C33.704 8.84843 33.6388 8.82154 33.5814 8.7943C33.5693 8.78855 33.5576 8.78279 33.5462 8.77702C33.5417 8.77472 33.5372 8.77243 33.5328 8.77013C33.5264 8.76681 33.5201 8.76348 33.5139 8.76015C33.505 8.75533 33.4963 8.75049 33.4879 8.74565C33.3232 8.65142 33.2427 8.55248 33.2065 8.44563C33.2059 8.44401 33.2054 8.44238 33.2048 8.44075C33.1864 8.38422 33.1801 8.32547 33.1801 8.26404C33.1801 8.23842 33.1816 8.21344 33.1845 8.18915C33.2216 7.87651 33.4904 7.67652 33.8171 7.66644C33.8258 7.66617 33.8344 7.66604 33.8431 7.66604C33.8864 7.66604 33.9294 7.66953 33.9718 7.67649C33.9843 7.67854 33.9967 7.68088 34.0091 7.68353C34.0692 7.69637 34.1279 7.71625 34.1845 7.74308C34.1975 7.74924 34.2103 7.75577 34.2231 7.76267C34.3847 7.85016 34.5256 7.99645 34.6231 8.19904C34.6304 8.21176 34.6369 8.22449 34.6428 8.23726C34.6469 8.24616 34.6507 8.25508 34.6543 8.26404C34.6746 8.31526 34.6866 8.36744 34.6994 8.42286C34.7022 8.435 34.705 8.4473 34.708 8.45978C34.7087 8.46289 34.7095 8.466 34.7102 8.46913C34.7115 8.4744 34.7128 8.4797 34.7141 8.48504L36.1311 8.19904C36.1226 8.17768 36.1144 8.15703 36.1064 8.13696C36.1061 8.13608 36.1057 8.13519 36.1054 8.13431C36.0654 8.03336 36.0312 7.9472 35.9881 7.86104C35.9454 7.7741 35.8975 7.6906 35.8448 7.61084C35.8272 7.58416 35.809 7.5579 35.7903 7.53207C35.7047 7.41359 35.6081 7.30411 35.5019 7.20468C35.4938 7.19715 35.4857 7.18969 35.4776 7.18228C35.4498 7.15704 35.4215 7.13247 35.3925 7.10859C35.3873 7.10436 35.3822 7.10015 35.377 7.09596C35.1852 6.94077 34.9674 6.81554 34.7302 6.72537C34.7036 6.71525 34.6767 6.70558 34.6496 6.69635C34.6231 6.68733 34.5964 6.67874 34.5695 6.67058C34.5353 6.66022 34.5007 6.65056 34.4658 6.64162C34.4488 6.63725 34.4316 6.63305 34.4144 6.62902C34.3885 6.62295 34.3624 6.61728 34.3361 6.612Z" fill="#0B0000"/>
<path fill-rule="evenodd" clip-rule="evenodd" d="M25.8218 17.1C23.6126 17.1 21.8218 15.3091 21.8218 13.1H23.0582V10.045C23.0582 9.50451 23.2653 9.10446 23.6158 8.86311C23.7324 8.7828 23.8649 8.72007 24.0109 8.67558C24.2704 8.5965 24.5725 8.57504 24.9042 8.615L24.9172 6.652C24.7416 6.66315 24.5731 6.69402 24.4124 6.74898C24.1205 6.84876 23.8539 7.02794 23.6158 7.3126C23.3734 7.60231 23.1605 8.00128 22.9802 8.537V6.73H21.8218V4C21.8218 1.79086 23.6126 0 25.8218 0H27.6158C29.3852 0 30.8862 1.14885 31.4137 2.74129C32.8143 2.84665 34.0666 3.68217 34.6968 4.95381C35.0032 5.57209 35.1385 6.24495 35.1088 6.90858C34.7368 6.68587 34.2946 6.561 33.8172 6.561C32.9827 6.561 32.3265 6.87798 31.9433 7.36214C31.7918 7.55364 31.683 7.77128 31.6227 8.00581C31.6203 8.01514 31.618 8.0245 31.6158 8.03388C31.6006 8.09719 31.589 8.16168 31.5811 8.22719C31.5775 8.25605 31.5747 8.28512 31.5726 8.31436C31.5701 8.34932 31.5686 8.38454 31.5682 8.42C31.5679 8.43807 31.5678 8.45602 31.5679 8.47386C31.569 8.62575 31.5848 8.76923 31.6158 8.90463C31.6884 9.22191 31.8447 9.49481 32.0909 9.72758C32.142 9.77597 32.1971 9.82262 32.2561 9.86757C32.4329 10.0023 32.6451 10.1217 32.8942 10.227L33.8432 10.643C34.3242 10.851 34.5062 11.046 34.5062 11.423C34.5062 11.4742 34.5017 11.5241 34.4929 11.5721C34.435 11.8896 34.1898 12.125 33.8172 12.125C33.6937 12.125 33.5743 12.1013 33.4628 12.0506C33.2341 11.9467 33.0383 11.7294 32.9072 11.371C32.8737 11.2929 32.8402 11.1956 32.8232 11.0873C32.8204 11.0695 32.818 11.0514 32.8162 11.033L31.2692 11.28C31.2764 11.3041 31.2836 11.3286 31.2909 11.3534C31.3231 11.4626 31.3568 11.5771 31.3992 11.683C31.4605 11.8335 31.5332 11.9737 31.6158 12.1034C31.6216 12.1125 31.6274 12.1215 31.6333 12.1306C31.7708 12.3407 31.9343 12.5227 32.1166 12.676C32.5934 13.077 33.1988 13.282 33.8042 13.282C34.3475 13.282 34.8197 13.1451 35.1997 12.9186C35.2365 13.73 35.0259 14.5462 34.5758 15.2517C33.841 16.4031 32.5696 17.1 31.2038 17.1H29.2538C28.9754 17.1 28.7017 17.0711 28.4363 17.0158C28.1714 17.071 27.897 17.1 27.6158 17.1H25.8218ZM25.8218 13.1H27.6158V10.409L27.9668 9.941L29.2538 13.1H31.2038L29.3318 9.07L31.1128 6.73H29.3058L27.6158 9.148V4H25.8218V13.1ZM34.3363 9.09826C34.4817 8.90045 34.607 8.69196 34.7119 8.4757C34.7075 8.45771 34.7034 8.44011 34.6994 8.42282C34.6813 8.34385 34.6646 8.27142 34.6232 8.199C34.4542 7.848 34.1552 7.666 33.8432 7.666C33.5793 7.666 33.3495 7.78903 33.2431 7.99544C33.2028 8.07369 33.1802 8.16393 33.1802 8.264C33.1802 8.27755 33.1805 8.29098 33.1812 8.30427C33.1908 8.49483 33.2761 8.65956 33.623 8.81332C33.6698 8.83407 33.7214 8.85462 33.7782 8.875L34.3363 9.09826Z" fill="#0B0000"/>
<path fill-rule="evenodd" clip-rule="evenodd" d="M17.2642 12.0021C17.3429 12.0495 17.4298 12.0731 17.5243 12.0731C18.0183 12.0731 18.3173 11.3581 18.3173 9.91511C18.3173 8.44611 18.0183 7.74411 17.5243 7.74411C17.4298 7.74411 17.3429 7.76732 17.2642 7.81415V12.0021ZM17.2677 13.2691C17.3562 15.3998 19.1116 17.1001 21.2642 17.1001H23.0582C25.2673 17.1001 27.0582 15.3092 27.0582 13.1001H25.8218V4.00011H27.6158V9.14811L28.913 7.29207L28.9171 6.6786C28.9244 5.56914 28.4706 4.50646 27.6642 3.74453C26.8577 2.98259 25.771 2.58984 24.6637 2.66015C24.3499 2.68007 24.0308 2.72433 23.7111 2.79674C23.4741 2.75298 23.2298 2.73011 22.9802 2.73011H21.2642C19.1072 2.73011 17.349 4.43731 17.2671 6.57419C17.3515 6.56552 17.4373 6.56111 17.5243 6.56111C17.8382 6.56111 18.1363 6.61989 18.4121 6.73011C18.6143 6.81095 18.8045 6.91947 18.9802 7.05276C19.0553 7.10976 19.1277 7.1713 19.1972 7.23714C19.2116 7.25069 19.2258 7.26443 19.2398 7.27834C19.3595 7.39668 19.4702 7.52807 19.5709 7.67128C19.7493 7.92501 19.8962 8.21588 20.0056 8.53711C20.1464 8.95089 20.225 9.41505 20.2283 9.91511C20.2283 9.9587 20.2277 10.002 20.2266 10.0451C20.2149 10.472 20.1459 10.8726 20.0286 11.2368C19.8296 11.8541 19.4916 12.3666 19.0582 12.7241C18.8686 12.8804 18.6608 13.0072 18.4384 13.1001C18.1549 13.2186 17.8477 13.2821 17.5243 13.2821C17.4375 13.2821 17.3519 13.2777 17.2677 13.2691ZM21.2642 13.1001H23.0582V10.0451C23.0582 9.4464 23.3124 9.02002 23.7339 8.79078C23.904 8.69832 24.1012 8.63794 24.32 8.61124C24.501 8.58915 24.6968 8.59013 24.9042 8.61511L24.9172 6.65211C24.7629 6.6619 24.6142 6.68692 24.4713 6.73011C23.8558 6.91621 23.3495 7.43977 22.9802 8.53711V6.73011H21.2642V13.1001ZM28.2926 10.7408L27.9668 9.94111L27.6158 10.4091V11.5557C27.8789 11.3131 28.1057 11.0387 28.2926 10.7408Z" fill="#0B0000"/>
<path fill-rule="evenodd" clip-rule="evenodd" d="M24.2282 9.88837L24.2283 9.91504C24.2283 13.2204 22.0234 17.282 17.5243 17.282C14.4199 17.282 12.4095 15.3742 11.456 13.1H12.9572L14.5432 4.00003H13.4308C14.4778 3.12279 15.8408 2.56104 17.5243 2.56104C20.8149 2.56104 22.8699 4.72044 23.7426 7.17359C23.4471 7.47002 23.1912 7.90979 22.9802 8.53704V6.73004H21.2642V13.1H23.0582V10.045C23.0582 10.0008 23.0595 9.95742 23.0623 9.91504C23.0627 9.90871 23.0631 9.90241 23.0636 9.89613C23.1144 9.21738 23.5161 8.78666 24.1215 8.64599C24.19 9.06516 24.2255 9.48223 24.2282 9.88837ZM12.6144 4.81894L11.8392 10.656L11.1982 7.4389C11.4974 6.4973 11.9688 5.59018 12.6144 4.81894ZM18.2252 9.44979C17.9986 9.33692 17.7528 9.28204 17.5243 9.28204C17.2728 9.28204 17.0168 9.34368 16.7909 9.45778C16.7689 9.46889 16.7476 9.48026 16.7271 9.49183C16.7549 8.85676 16.8482 8.39927 17.0012 8.11203C17.1327 7.86515 17.3083 7.74403 17.5243 7.74403C17.729 7.74403 17.9002 7.86454 18.0305 8.11018C18.1831 8.39769 18.2796 8.8566 18.3083 9.49434C18.2818 9.47908 18.2541 9.46419 18.2252 9.44979ZM20.1859 9.30954C20.2125 9.50443 20.2269 9.70662 20.2283 9.91504C20.2283 10.1152 20.2158 10.31 20.1917 10.4983C19.9826 12.1323 18.8998 13.282 17.5243 13.282C16.1249 13.282 15.0498 12.1417 14.8433 10.4993C14.8196 10.3108 14.8073 10.1158 14.8073 9.91504C14.8073 9.70777 14.8206 9.50644 14.8461 9.31218C15.0595 7.691 16.1312 6.56103 17.5243 6.56103C18.8944 6.56103 19.9637 7.68095 20.1859 9.30954ZM17.0029 11.7052C17.1342 11.9507 17.3092 12.073 17.5243 12.073C17.7281 12.073 17.8988 11.9513 18.0289 11.707C18.1808 11.4218 18.2775 10.9696 18.3074 10.349C18.2806 10.3644 18.2526 10.3794 18.2234 10.394C17.9978 10.5062 17.7528 10.561 17.5243 10.561C17.2845 10.561 17.0326 10.5032 16.8042 10.389C16.7777 10.3758 16.7523 10.3622 16.7278 10.3483C16.7566 10.968 16.8502 11.4198 17.0029 11.7052ZM16.7183 9.93843L18.3173 9.92778C18.3173 9.92354 18.3173 9.91929 18.3173 9.91504H16.7183C16.7183 9.92286 16.7183 9.93066 16.7183 9.93843Z" fill="#0B0000"/>
<path fill-rule="evenodd" clip-rule="evenodd" d="M6.33999 17.1C4.42292 17.1 2.7754 15.7399 2.41237 13.8575L0.65737 4.75747C0.431349 3.58551 0.740493 2.37384 1.50036 1.45342C2.26024 0.533002 3.39144 0 4.58499 0H6.43099C6.80828 0 7.17483 0.0526149 7.52306 0.15137C7.87135 0.0525985 8.23788 0 8.615 0H10.513C10.8945 0 11.2655 0.0538877 11.6177 0.155075C11.9697 0.0539591 12.3407 0 12.723 0H14.543C15.724 0 16.8446 0.521881 17.6046 1.42582C18.3646 2.32975 18.6864 3.52334 18.4836 4.68679L18.143 6.6409C17.9455 6.58841 17.7385 6.561 17.5242 6.561C17.1097 6.561 16.7238 6.661 16.3804 6.84417C15.9694 7.06338 15.6195 7.40171 15.3547 7.83035C15.0078 8.39186 14.8072 9.10834 14.8072 9.915C14.8072 9.9651 14.8079 10.0149 14.8094 10.0642C14.8204 10.4204 14.8703 10.7574 14.9546 11.0698C15.075 11.5163 15.2655 11.9124 15.5119 12.2415C15.891 12.7477 16.4025 13.0956 16.9954 13.2255L16.8976 13.7868C16.5638 15.7021 14.9012 17.1 12.957 17.1H10.825C10.4174 17.1 10.022 17.0385 9.64857 16.9236C9.27527 17.0385 8.87988 17.1 8.47199 17.1H6.33999ZM6.33999 13.1H8.47199L9.57699 6.431L10.825 13.1H12.957L14.543 4H12.723L11.839 10.656L10.513 4H8.615L7.47099 10.552L6.43099 4H4.58499L6.33999 13.1ZM17.9167 7.9393L17.2145 11.9683C16.8918 11.7218 16.7182 11.0394 16.7182 9.915C16.7182 8.446 17.0042 7.744 17.5242 7.744C17.6739 7.744 17.8057 7.8085 17.9167 7.9393Z" fill="#0B0000"/>
</svg>
