<svg width="114" height="114" viewBox="0 0 114 114" fill="none" xmlns="http://www.w3.org/2000/svg">
<g clip-path="url(#clip0_267_1712)">
<path d="M91.1073 72.5474H74.3033V84.9534H91.1467V95.6423H63.4688V62.0449H91.1073V72.5474Z" fill="black"/>
<path d="M84.4015 34.1846C84.4015 30.3377 81.3904 27.2628 77.6036 27.2495C73.8431 27.2495 70.7795 30.3111 70.74 34.1447C70.7137 37.9251 73.8168 41.0798 77.5642 41.0798C81.351 41.0798 84.4015 38.0049 84.4015 34.1846ZM94 34.158C94 43.3427 86.6368 50.8236 77.5642 50.7836C68.347 50.7437 61.0495 43.1164 61.1809 33.9184C61.3124 24.7204 68.8861 17.346 77.9586 17.5457C86.742 17.7454 94.0132 25.0665 94 34.1447" fill="black"/>
<path d="M35.9089 34.4509C33.1609 34.4509 30.9388 36.6739 30.9256 39.4426C30.9256 42.2246 33.1346 44.4875 35.8564 44.4875C38.565 44.4875 40.8134 42.2645 40.8265 39.5624C40.8397 36.6872 38.6833 34.4509 35.8958 34.4376M22.5236 33.386H20.1963V24.7471H50.951V33.3461H49.1234C50.6092 36.8602 50.859 40.401 49.7019 43.9817C48.5448 47.5624 46.3358 50.3045 43.1276 52.1947C37.9864 55.2163 31.5699 54.8569 26.9284 50.9967C21.2876 46.3244 20.1174 40.3211 22.5368 33.3993" fill="black"/>
<path d="M19 93.0333C24.6408 82.3045 30.2684 71.6156 35.9223 60.8868C41.642 71.6156 47.3354 82.2779 53.0419 92.9933C49.7284 94.3244 46.4544 95.6422 43.1147 96.9867C40.761 91.782 38.4074 86.5907 36.0144 81.2928C33.6345 86.5774 31.3072 91.7687 28.9535 97C25.6269 95.6689 22.3398 94.3511 19.0131 93.0333" fill="black"/>
<path d="M44.5873 17H26.5342V23.4958H44.5873V17Z" fill="black"/>
</g>
<defs>
<clipPath id="clip0_267_1712">
<rect width="75" height="80" fill="white" transform="translate(19 17)"/>
</clipPath>
</defs>
</svg>
