<svg width="414" height="416" viewBox="0 0 414 416" fill="none" xmlns="http://www.w3.org/2000/svg">
<g clip-path="url(#clip0_209_8527)">
<path d="M0 0V416H330.552L414 330.671V97.7286L315.025 0H0Z" fill="#E30629"/>
<path d="M35.6157 24.4563H57.0805C69.2974 24.4563 79.3352 34.0636 79.3352 45.8058C79.3352 57.548 69.2974 67.1552 57.0805 67.1552H35.6157V24.4563ZM62.3377 45.8058C62.3377 42.4391 59.6274 39.661 56.2769 39.661C52.9264 39.661 50.1616 42.4391 50.1616 45.8058C50.1616 49.1724 52.9264 51.9506 56.2769 51.9506C59.6274 51.9506 62.3377 49.1724 62.3377 45.8058Z" fill="black"/>
<path d="M80.9287 24.4563H102.176C111.955 24.4563 119.759 31.6686 119.759 40.5231C119.759 43.8898 118.696 46.928 116.83 49.4872H120.712V67.1552H103.878V56.6447H97.7764V67.1552H80.9423V24.4563H80.9287ZM104.191 41.0021C104.191 38.6072 102.284 36.6775 99.9419 36.6775C97.5993 36.6775 95.6381 38.5935 95.6381 41.0021C95.6381 43.4108 97.5993 45.272 99.9419 45.272C102.284 45.272 104.191 43.3561 104.191 41.0021Z" fill="black"/>
<path d="M121.407 45.7509C121.407 33.5845 131.553 23.594 144.247 23.594C156.941 23.594 166.978 33.5708 166.978 45.7509C166.978 57.9311 156.668 68.0036 144.247 68.0036C131.826 68.0036 121.407 58.0269 121.407 45.7509ZM150.199 45.8057C150.199 42.439 147.434 39.6608 144.193 39.6608C140.951 39.6608 138.036 42.439 138.036 45.8057C138.036 49.1723 140.856 51.9505 144.193 51.9505C147.529 51.9505 150.199 49.2271 150.199 45.8057Z" fill="black"/>
<path d="M168.572 24.4563H231.046V67.1552H214.212V41.3717C214.212 39.2914 212.931 37.7997 211.243 37.7997C209.649 37.7997 208.273 39.2914 208.273 41.3717V67.1552H191.385V41.3717C191.385 39.2914 190.159 37.7997 188.457 37.7997C186.754 37.7997 185.433 39.2914 185.433 41.3717V67.1552H168.599V24.4563H168.572Z" fill="black"/>
<path d="M241.601 24.4563H275.01V67.1552H258.013V56.6447H250.685L247.866 67.1552H230.229L241.601 24.4563ZM259.974 41.0021C259.974 38.6072 258.067 36.6775 255.725 36.6775C253.382 36.6775 251.421 38.5935 251.421 41.0021C251.421 43.4108 253.382 45.272 255.725 45.272C258.067 45.272 259.974 43.3561 259.974 41.0021Z" fill="black"/>
<path d="M277.149 24.4563H298.396C308.175 24.4563 315.979 32.0928 315.979 41.4811C315.979 50.8694 308.175 57.548 298.396 57.548H293.983V67.1552H277.149V24.4563ZM300.411 41.0021C300.411 38.6072 298.504 36.6775 296.162 36.6775C293.819 36.6775 291.858 38.5935 291.858 41.0021C291.858 43.4108 293.819 45.272 296.162 45.272C298.504 45.272 300.411 43.3561 300.411 41.0021Z" fill="black"/>
<path d="M317.3 24.4563H334.665V67.1552H317.3V24.4563Z" fill="black"/>
<path d="M336.258 45.8058C336.258 34.0636 346.187 24.4563 358.513 24.4563H378.384V44.6836H365.323C364.955 41.9054 362.354 39.661 359.371 39.661C356.021 39.661 353.269 42.4391 353.269 45.8058C353.269 49.1724 356.034 51.9506 359.371 51.9506C362.34 51.9506 365.051 49.6514 365.323 46.8322H378.384V67.1689H358.513C346.187 67.1689 336.258 57.5617 336.258 45.8195V45.8058Z" fill="black"/>
<path d="M176.921 99.8811H181.089L184.602 113.649L188.062 99.8811H191.984L186.618 119.041H182.614L176.921 99.8811Z" fill="#E30629" stroke="black" stroke-width="12" stroke-linecap="round" stroke-linejoin="round"/>
<path d="M193.619 99.8811H197.405V103.795H193.619V99.8811ZM193.646 105.629H197.405V119.041H193.646V105.629Z" fill="#E30629" stroke="black" stroke-width="12" stroke-linecap="round" stroke-linejoin="round"/>
<path d="M199.693 112.431C199.693 107.997 201.382 105.287 203.67 105.287C205.087 105.287 206.176 106.382 206.803 108.133V99.8948H210.616V119.055H206.912V116.235C206.231 118.124 205.005 119.438 203.507 119.438C201.273 119.438 199.693 116.701 199.693 112.431ZM205.223 116.81C206.34 116.81 206.939 115.277 206.939 112.431C206.939 109.584 206.34 107.942 205.25 107.942C204.16 107.942 203.616 109.502 203.616 112.431C203.616 115.359 204.16 116.81 205.223 116.81Z" fill="#E30629" stroke="black" stroke-width="12" stroke-linecap="round" stroke-linejoin="round"/>
<path d="M212.795 112.376V112.349C212.795 108.462 215.138 105.287 218.461 105.287C222.03 105.287 223.746 108.927 223.746 112.54V112.595H216.772V112.814C216.772 115.414 217.399 116.974 218.461 116.974C219.224 116.974 219.714 116.372 220.068 115.113C220.15 114.922 220.205 114.675 220.232 114.401L223.555 114.648C223.473 114.949 223.392 115.305 223.255 115.606C222.411 118.014 220.64 119.438 218.516 119.438C215.247 119.438 212.795 116.317 212.795 112.376ZM220.014 110.816C219.932 108.626 219.415 107.613 218.461 107.613C217.508 107.613 216.881 108.818 216.8 110.816H220.014Z" fill="#E30629" stroke="black" stroke-width="12" stroke-linecap="round" stroke-linejoin="round"/>
<path d="M225.217 112.349C225.217 108.27 227.641 105.287 230.91 105.287C234.178 105.287 236.548 108.243 236.575 112.349C236.575 116.427 234.124 119.438 230.91 119.438C227.695 119.438 225.217 116.454 225.217 112.349ZM230.91 116.892C231.945 116.892 232.571 115.387 232.571 112.349C232.571 109.31 231.945 107.778 230.91 107.778C229.82 107.778 229.221 109.256 229.221 112.349C229.221 115.442 229.82 116.892 230.91 116.892Z" fill="#E30629" stroke="black" stroke-width="12" stroke-linecap="round" stroke-linejoin="round"/>
<path d="M192.556 129.346C193.632 129.346 194.613 129.579 195.471 130.044C196.329 130.509 197.024 131.153 197.528 131.946C198.032 132.754 198.29 133.671 198.29 134.711C198.29 135.751 198.032 136.654 197.528 137.462C197.024 138.269 196.329 138.899 195.471 139.364C194.613 139.829 193.632 140.062 192.556 140.062C191.48 140.062 190.527 139.829 189.655 139.364C188.784 138.899 188.089 138.269 187.585 137.462C187.081 136.654 186.823 135.737 186.823 134.711C186.823 133.684 187.081 132.754 187.585 131.946C188.089 131.139 188.784 130.509 189.655 130.044C190.527 129.579 191.494 129.346 192.556 129.346ZM197.351 141.321C198.876 141.321 200.197 141.485 201.314 141.827C202.431 142.169 203.289 142.662 203.902 143.305C204.515 143.949 204.814 144.715 204.814 145.618C204.814 146.521 204.515 147.288 203.902 147.945C203.289 148.602 202.431 149.094 201.314 149.423C200.197 149.751 198.876 149.929 197.351 149.929C195.825 149.929 194.531 149.765 193.414 149.423C192.298 149.094 191.44 148.602 190.827 147.945C190.214 147.288 189.914 146.521 189.914 145.618C189.914 144.715 190.214 143.949 190.827 143.305C191.44 142.662 192.298 142.169 193.414 141.827C194.531 141.485 195.839 141.321 197.351 141.321ZM192.556 132.247C192.08 132.247 191.658 132.343 191.276 132.521C190.908 132.699 190.609 132.973 190.391 133.342C190.173 133.712 190.05 134.177 190.05 134.711C190.05 135.245 190.159 135.682 190.391 136.052C190.609 136.421 190.908 136.695 191.276 136.887C191.644 137.078 192.066 137.174 192.556 137.174C193.047 137.174 193.483 137.078 193.85 136.887C194.218 136.695 194.518 136.408 194.736 136.052C194.954 135.682 195.062 135.245 195.062 134.711C195.062 134.177 194.954 133.712 194.736 133.342C194.518 132.973 194.232 132.699 193.85 132.521C193.483 132.343 193.047 132.247 192.556 132.247ZM197.351 143.949C196.452 143.949 195.703 144.017 195.09 144.14C194.477 144.263 194.027 144.441 193.728 144.688C193.428 144.934 193.278 145.249 193.278 145.632C193.278 146.015 193.428 146.344 193.728 146.59C194.027 146.836 194.49 147.028 195.09 147.151C195.703 147.274 196.452 147.343 197.351 147.343C198.249 147.343 199.039 147.274 199.639 147.151C200.238 147.028 200.687 146.836 200.987 146.59C201.287 146.344 201.437 146.029 201.437 145.632C201.437 145.235 201.287 144.934 200.987 144.688C200.687 144.441 200.238 144.263 199.639 144.14C199.039 144.017 198.277 143.949 197.351 143.949ZM196.057 130.988H202.404V133.712H196.057V130.988ZM196.057 135.737H202.404V138.488H196.057V135.737ZM201.314 128.251H204.746V140.91H201.314V128.251Z" fill="#E30629" stroke="black" stroke-width="12" stroke-linecap="round" stroke-linejoin="round"/>
<path d="M212.468 129.415H215.274V131.276C215.274 132.713 215.07 134.081 214.661 135.368C214.253 136.654 213.612 137.79 212.727 138.748C211.842 139.72 210.698 140.445 209.281 140.924L207.47 138.228C208.723 137.831 209.704 137.256 210.439 136.531C211.161 135.806 211.692 134.985 212.005 134.068C212.319 133.151 212.482 132.22 212.482 131.276V129.415H212.468ZM217.835 141.417C219.346 141.417 220.654 141.581 221.743 141.923C222.833 142.265 223.691 142.758 224.29 143.387C224.89 144.017 225.189 144.783 225.189 145.673C225.189 146.562 224.89 147.315 224.29 147.958C223.691 148.588 222.833 149.081 221.743 149.423C220.64 149.765 219.346 149.929 217.835 149.929C216.323 149.929 215.029 149.765 213.926 149.423C212.809 149.081 211.964 148.588 211.365 147.958C210.766 147.329 210.48 146.562 210.48 145.673C210.48 144.783 210.78 144.031 211.365 143.387C211.964 142.758 212.809 142.265 213.926 141.923C215.043 141.581 216.336 141.417 217.835 141.417ZM213.177 129.415H215.928V131.604C215.928 132.22 216.01 132.836 216.187 133.452C216.35 134.068 216.622 134.642 216.99 135.176C217.358 135.71 217.835 136.189 218.434 136.613C219.033 137.037 219.769 137.379 220.64 137.653L218.883 140.308C217.535 139.857 216.445 139.2 215.615 138.337C214.784 137.475 214.171 136.463 213.776 135.313C213.381 134.163 213.19 132.918 213.19 131.604V129.415H213.177ZM217.835 144.072C216.977 144.072 216.241 144.126 215.642 144.25C215.043 144.359 214.593 144.537 214.293 144.77C213.994 145.002 213.844 145.303 213.844 145.673C213.844 146.042 213.994 146.357 214.293 146.59C214.593 146.836 215.043 147.014 215.642 147.124C216.241 147.233 216.963 147.301 217.835 147.301C218.706 147.301 219.442 147.247 220.027 147.124C220.613 147 221.062 146.823 221.362 146.59C221.662 146.344 221.812 146.042 221.812 145.673C221.812 145.303 221.662 145.002 221.362 144.77C221.062 144.537 220.613 144.359 220.027 144.25C219.442 144.126 218.706 144.072 217.835 144.072ZM221.512 128.251H224.917V140.951H221.512V128.251ZM223.991 133.096H227.695V135.915H223.991V133.096Z" fill="#E30629" stroke="black" stroke-width="12" stroke-linecap="round" stroke-linejoin="round"/>
<path d="M176.921 99.8948H181.089L184.602 113.662L188.062 99.8948H191.984L186.618 119.055H182.614L176.921 99.8948Z" fill="#E30629"/>
<path d="M193.619 99.8948H197.405V103.809H193.619V99.8948ZM193.646 105.643H197.405V119.055H193.646V105.643Z" fill="#E30629"/>
<path d="M199.693 112.431C199.693 107.997 201.382 105.287 203.67 105.287C205.087 105.287 206.176 106.382 206.803 108.133V99.8948H210.616V119.055H206.912V116.235C206.231 118.124 205.005 119.438 203.507 119.438C201.273 119.438 199.693 116.701 199.693 112.431ZM205.223 116.81C206.34 116.81 206.939 115.277 206.939 112.431C206.939 109.584 206.34 107.942 205.25 107.942C204.16 107.942 203.616 109.502 203.616 112.431C203.616 115.359 204.16 116.81 205.223 116.81Z" fill="#E30629"/>
<path d="M212.795 112.376V112.349C212.795 108.462 215.138 105.287 218.461 105.287C222.03 105.287 223.746 108.927 223.746 112.54V112.595H216.772V112.814C216.772 115.414 217.399 116.974 218.461 116.974C219.224 116.974 219.714 116.372 220.068 115.113C220.15 114.922 220.205 114.675 220.232 114.401L223.555 114.648C223.473 114.949 223.392 115.305 223.255 115.606C222.411 118.014 220.64 119.438 218.516 119.438C215.247 119.438 212.795 116.317 212.795 112.376ZM220.014 110.816C219.932 108.626 219.415 107.613 218.461 107.613C217.508 107.613 216.881 108.818 216.8 110.816H220.014Z" fill="#E30629"/>
<path d="M225.217 112.349C225.217 108.27 227.641 105.287 230.91 105.287C234.178 105.287 236.548 108.243 236.575 112.349C236.575 116.427 234.124 119.438 230.91 119.438C227.695 119.438 225.217 116.454 225.217 112.349ZM230.91 116.892C231.945 116.892 232.571 115.387 232.571 112.349C232.571 109.31 231.945 107.778 230.91 107.778C229.82 107.778 229.221 109.256 229.221 112.349C229.221 115.442 229.82 116.892 230.91 116.892Z" fill="#E30629"/>
<path d="M192.556 129.346C193.632 129.346 194.613 129.579 195.471 130.044C196.329 130.509 197.024 131.139 197.528 131.946C198.032 132.754 198.29 133.671 198.29 134.711C198.29 135.751 198.032 136.654 197.528 137.462C197.024 138.269 196.329 138.899 195.471 139.364C194.613 139.829 193.632 140.062 192.556 140.062C191.48 140.062 190.527 139.829 189.655 139.364C188.784 138.899 188.089 138.269 187.585 137.462C187.081 136.654 186.823 135.737 186.823 134.711C186.823 133.684 187.081 132.754 187.585 131.946C188.089 131.139 188.784 130.509 189.655 130.044C190.527 129.579 191.494 129.346 192.556 129.346ZM197.351 141.321C198.876 141.321 200.197 141.485 201.314 141.827C202.431 142.169 203.289 142.662 203.902 143.305C204.515 143.949 204.814 144.715 204.814 145.618C204.814 146.521 204.515 147.288 203.902 147.945C203.289 148.602 202.431 149.094 201.314 149.423C200.197 149.751 198.876 149.929 197.351 149.929C195.825 149.929 194.531 149.765 193.414 149.423C192.298 149.094 191.44 148.602 190.827 147.945C190.214 147.288 189.914 146.521 189.914 145.618C189.914 144.715 190.214 143.949 190.827 143.305C191.44 142.662 192.298 142.169 193.414 141.827C194.531 141.485 195.839 141.321 197.351 141.321ZM192.556 132.247C192.08 132.247 191.658 132.343 191.276 132.521C190.895 132.699 190.609 132.973 190.391 133.342C190.173 133.712 190.05 134.177 190.05 134.711C190.05 135.245 190.159 135.682 190.391 136.052C190.622 136.421 190.908 136.695 191.276 136.887C191.644 137.078 192.066 137.174 192.556 137.174C193.047 137.174 193.483 137.078 193.85 136.887C194.218 136.695 194.518 136.408 194.736 136.052C194.954 135.696 195.062 135.245 195.062 134.711C195.062 134.177 194.954 133.712 194.736 133.342C194.518 132.973 194.232 132.699 193.85 132.521C193.469 132.343 193.047 132.247 192.556 132.247ZM197.351 143.949C196.452 143.949 195.703 144.003 195.09 144.14C194.477 144.277 194.027 144.441 193.728 144.688C193.428 144.934 193.278 145.249 193.278 145.632C193.278 146.015 193.428 146.344 193.728 146.59C194.027 146.836 194.49 147.028 195.09 147.151C195.689 147.274 196.452 147.343 197.351 147.343C198.249 147.343 199.039 147.288 199.639 147.151C200.238 147.014 200.687 146.836 200.987 146.59C201.287 146.344 201.437 146.029 201.437 145.632C201.437 145.235 201.287 144.934 200.987 144.688C200.687 144.441 200.238 144.263 199.639 144.14C199.039 144.017 198.277 143.949 197.351 143.949ZM196.057 130.988H202.404V133.712H196.057V130.988ZM196.057 135.737H202.404V138.488H196.057V135.737ZM201.314 128.251H204.746V140.91H201.314V128.251Z" fill="#E30629"/>
<path d="M212.468 129.415H215.274V131.276C215.274 132.713 215.07 134.081 214.661 135.368C214.253 136.654 213.612 137.79 212.727 138.748C211.842 139.72 210.698 140.445 209.281 140.924L207.47 138.228C208.723 137.831 209.704 137.256 210.439 136.531C211.161 135.806 211.692 134.985 212.005 134.068C212.319 133.151 212.482 132.22 212.482 131.276V129.415H212.468ZM217.835 141.417C219.346 141.417 220.654 141.581 221.743 141.923C222.833 142.265 223.691 142.758 224.29 143.387C224.89 144.017 225.189 144.783 225.189 145.673C225.189 146.562 224.89 147.315 224.29 147.958C223.691 148.588 222.833 149.081 221.743 149.423C220.64 149.765 219.346 149.929 217.835 149.929C216.323 149.929 215.029 149.765 213.926 149.423C212.809 149.081 211.964 148.588 211.365 147.958C210.766 147.329 210.48 146.562 210.48 145.673C210.48 144.783 210.78 144.031 211.365 143.387C211.964 142.758 212.809 142.265 213.926 141.923C215.043 141.581 216.336 141.417 217.835 141.417ZM213.177 129.415H215.928V131.604C215.928 132.22 216.01 132.836 216.187 133.452C216.35 134.068 216.622 134.642 216.99 135.176C217.358 135.71 217.835 136.189 218.434 136.613C219.033 137.037 219.769 137.379 220.64 137.653L218.883 140.308C217.535 139.857 216.445 139.2 215.615 138.337C214.784 137.475 214.171 136.463 213.776 135.313C213.381 134.163 213.19 132.918 213.19 131.604V129.415H213.177ZM217.835 144.072C216.977 144.072 216.241 144.126 215.642 144.25C215.043 144.359 214.593 144.537 214.293 144.77C213.994 145.002 213.844 145.303 213.844 145.673C213.844 146.042 213.994 146.357 214.293 146.59C214.593 146.836 215.043 147.014 215.642 147.124C216.241 147.233 216.963 147.301 217.835 147.301C218.706 147.301 219.442 147.247 220.027 147.124C220.613 147 221.062 146.836 221.362 146.59C221.662 146.344 221.812 146.042 221.812 145.673C221.812 145.303 221.662 145.002 221.362 144.77C221.062 144.537 220.613 144.359 220.027 144.25C219.442 144.126 218.706 144.072 217.835 144.072ZM221.512 128.251H224.917V140.951H221.512V128.251ZM223.991 133.096H227.695V135.915H223.991V133.096Z" fill="#E30629"/>
</g>
<defs>
<clipPath id="clip0_209_8527">
<rect width="414" height="416" fill="white"/>
</clipPath>
</defs>
</svg>
