<svg width="416" height="416" viewBox="0 0 416 416" fill="none" xmlns="http://www.w3.org/2000/svg">
<g clip-path="url(#clip0_209_8526)">
<path d="M57.9173 0L0 63.1999V342.946L74.34 416H416V51.7451H234.967V0H57.9173Z" fill="#FA538F"/>
<path d="M61.8723 45.8055C61.8723 34.0633 72.0133 24.4561 84.2345 24.4561H92.2953V34.0633H105.803V67.155H84.2345C72.0133 67.155 61.8723 57.5477 61.8723 45.8055ZM90.6394 46.873C90.6394 43.7801 88.0254 41.2756 84.9872 41.2756C81.949 41.2756 79.4856 43.7801 79.4856 46.873C79.4856 49.9659 82.0448 52.4841 84.9872 52.4841C87.9296 52.4841 90.6394 49.9249 90.6394 46.873Z" fill="black"/>
<path d="M107.924 34.0632H130.82V47.0919H123.238V67.1549H107.924V34.0632Z" fill="black"/>
<path d="M132.476 54.0715V34.0496H167.538V59.4089H155.796V67.1549H145.546C138.867 67.1549 132.462 60.7501 132.462 54.0715H132.476ZM153.935 47.7214C153.935 45.5865 152.17 43.8758 150.035 43.8758C147.9 43.8758 146.189 45.5865 146.189 47.7214C146.189 49.8564 147.9 51.6218 150.035 51.6218C152.17 51.6218 153.935 49.9111 153.935 47.7214Z" fill="black"/>
<path d="M169.468 54.0715V34.0496H204.531V59.4089H192.788V67.1549H182.538C175.859 67.1549 169.455 60.7501 169.455 54.0715H169.468ZM190.927 47.7214C190.927 45.5865 189.162 43.8758 187.027 43.8758C184.892 43.8758 183.181 45.5865 183.181 47.7214C183.181 49.8564 184.892 51.6218 187.027 51.6218C189.162 51.6218 190.927 49.9111 190.927 47.7214Z" fill="black"/>
<path d="M206.501 34.0632H242.207V67.1549H227.426V49.1721C227.426 47.4067 226.14 46.0792 224.388 46.0792C222.637 46.0792 221.295 47.4203 221.295 49.1721V67.1549H206.515V34.0632H206.501Z" fill="black"/>
<path d="M244.355 67.155V24.4561H259.136V34.0633H262.503C272.329 34.0633 280.171 41.3167 280.171 50.6639C280.171 60.0111 272.329 67.155 262.503 67.155H244.355ZM265.445 50.6092C265.445 48.3647 263.625 46.5582 261.394 46.5582C259.163 46.5582 257.288 48.3784 257.288 50.6092C257.288 52.8399 259.163 54.7148 261.394 54.7148C263.625 54.7148 265.445 52.8946 265.445 50.6092Z" fill="black"/>
<path d="M281.717 54.0715V34.0496H316.779V59.4089H305.037V67.1549H294.787C288.108 67.1549 281.703 60.7501 281.703 54.0715H281.717ZM303.176 47.7214C303.176 45.5865 301.411 43.8758 299.276 43.8758C297.141 43.8758 295.43 45.5865 295.43 47.7214C295.43 49.8564 297.141 51.6218 299.276 51.6218C301.411 51.6218 303.176 49.9111 303.176 47.7214Z" fill="black"/>
<path d="M318.696 54.0715V34.0496H353.758V59.4089H342.016V67.1549H331.765C325.087 67.1549 318.682 60.7501 318.682 54.0715H318.696ZM340.155 47.7214C340.155 45.5865 338.389 43.8758 336.254 43.8758C334.119 43.8758 332.409 45.5865 332.409 47.7214C332.409 49.8564 334.119 51.6218 336.254 51.6218C338.389 51.6218 340.155 49.9111 340.155 47.7214Z" fill="black"/>
<path d="M167.019 110.063C167.019 104.124 169.729 99.8811 174.683 99.8811C177.967 99.8811 180.267 101.824 181.06 104.343C181.17 104.562 181.225 104.863 181.279 105L177.256 105.711C177.228 105.547 177.119 105.218 177.064 105.027C176.681 103.823 175.86 102.974 174.683 102.974C172.603 102.974 171.453 105.574 171.453 109.954C171.453 113.84 172.548 116.66 174.628 116.687C176.243 116.687 177.53 114.963 177.53 111.514V111.486H174.272V108.585H181.389V119.451H179.09L178.378 116.468C177.612 118.384 176.079 119.862 173.752 119.862C169.975 119.862 167.019 116.003 167.019 110.063Z" fill="#FA538F" stroke="black" stroke-width="12" stroke-linecap="round" stroke-linejoin="round"/>
<path d="M184.099 106.04H187.712V109.844C188.67 106.998 190.066 105.985 191.79 105.875L191.763 110.009C189.491 109.735 187.876 110.83 187.876 113.019V119.452H184.099V106.04Z" fill="#FA538F" stroke="black" stroke-width="12" stroke-linecap="round" stroke-linejoin="round"/>
<path d="M192.803 116.03C192.803 114.005 193.651 112.445 196.854 111.322L199.208 110.501V109.981C199.208 108.749 198.77 108.147 197.894 108.147C197.018 108.147 196.553 108.804 196.498 109.79H192.857C193.46 107.353 195.458 105.684 198.277 105.684C201.096 105.684 202.985 107.271 202.985 110.2V116.14C202.985 116.933 203.286 117.125 203.669 117.125C203.806 117.125 203.888 117.098 203.943 117.098V119.424C203.642 119.561 202.985 119.67 202.328 119.67C200.549 119.67 199.399 118.877 199.262 117.098C198.578 118.767 197.483 119.725 196.033 119.725C194.171 119.725 192.803 118.247 192.803 116.03ZM197.647 117.207C198.523 117.207 199.235 116.194 199.235 114.689V112.116L198.058 112.718C196.772 113.375 196.388 114.251 196.388 115.373C196.388 116.578 197.018 117.207 197.647 117.207Z" fill="#FA538F" stroke="black" stroke-width="12" stroke-linecap="round" stroke-linejoin="round"/>
<path d="M206.023 106.04H209.718V108.941C210.348 106.998 211.525 105.684 213.112 105.684C215.357 105.684 216.999 108.394 216.999 112.691C216.999 116.988 215.274 119.835 212.975 119.835C211.525 119.835 210.43 118.658 209.8 116.933V123.831H206.023V106.04ZM211.36 117.152C212.428 117.152 213.03 115.592 213.03 112.691C213.03 109.79 212.455 108.311 211.388 108.311C210.265 108.311 209.718 109.817 209.718 112.691C209.718 115.565 210.293 117.152 211.36 117.152Z" fill="#FA538F" stroke="black" stroke-width="12" stroke-linecap="round" stroke-linejoin="round"/>
<path d="M219.298 100.278H223.075V108.435C223.951 106.382 225.155 105.725 226.414 105.725C228.659 105.725 229.617 107.668 229.617 110.05V119.438H225.812V110.378C225.812 109.228 225.402 108.353 224.58 108.353C223.677 108.353 223.075 109.365 223.075 111.309V119.438H219.298V100.278Z" fill="#FA538F" stroke="black" stroke-width="12" stroke-linecap="round" stroke-linejoin="round"/>
<path d="M232.354 100.278H236.159V104.192H232.354V100.278ZM232.381 106.026H236.159V119.438H232.381V106.026Z" fill="#FA538F" stroke="black" stroke-width="12" stroke-linecap="round" stroke-linejoin="round"/>
<path d="M238.375 112.746C238.375 108.667 240.784 105.684 244.096 105.684C246.696 105.684 248.448 107.436 249.269 110.118C249.324 110.31 249.379 110.446 249.433 110.665L245.684 111.158C245.656 110.884 245.601 110.665 245.574 110.446C245.328 108.941 244.862 108.175 244.069 108.175C243.029 108.175 242.372 109.653 242.372 112.746C242.372 115.839 243.029 117.289 244.069 117.289C244.835 117.289 245.355 116.441 245.629 114.798L245.711 114.251L249.324 114.716C249.269 114.99 249.187 115.236 249.132 115.483C248.284 118.165 246.423 119.835 244.096 119.835C240.784 119.835 238.375 116.824 238.375 112.746Z" fill="#FA538F" stroke="black" stroke-width="12" stroke-linecap="round" stroke-linejoin="round"/>
<path d="M176.804 142.074H196.416V144.838H176.804V142.074ZM178.761 127.786H192.447V130.482H178.761V127.786ZM190.654 127.786H194.075V130.482C194.075 131.522 194.075 132.562 194.034 133.602C194.007 134.642 193.952 135.751 193.843 136.928C193.747 138.105 193.555 139.432 193.295 140.91L189.874 140.637C190.134 139.268 190.326 138.009 190.421 136.846C190.517 135.682 190.586 134.588 190.613 133.547C190.64 132.507 190.654 131.495 190.654 130.496V127.8V127.786Z" fill="#FA538F" stroke="black" stroke-width="12" stroke-linecap="round" stroke-linejoin="round"/>
<path d="M198.715 127.937H206.954V136.545H202.04V141.102H198.742V133.849H203.655V130.66H198.729V127.937H198.715ZM198.742 140.103H200.275C201.561 140.103 202.793 140.076 203.956 140.021C205.133 139.966 206.365 139.843 207.665 139.665L207.925 142.416C206.57 142.635 205.298 142.772 204.08 142.84C202.862 142.909 201.589 142.936 200.275 142.936H198.742V140.117V140.103ZM208.787 126.24H211.949V146.576H208.787V126.24ZM210.922 133.986H214.371V136.709H210.922V133.986ZM213.605 125.884H216.862V147.562H213.605V125.884Z" fill="#FA538F" stroke="black" stroke-width="12" stroke-linecap="round" stroke-linejoin="round"/>
<path d="M220.311 138.543L219.969 135.792C221.241 135.792 222.624 135.792 224.102 135.751C225.58 135.71 227.085 135.683 228.604 135.6C230.123 135.518 231.574 135.409 232.956 135.258L233.216 137.749C231.779 137.982 230.301 138.146 228.796 138.255C227.29 138.365 225.812 138.433 224.375 138.474C222.938 138.516 221.583 138.529 220.324 138.529L220.311 138.543ZM220.516 127.403H232.19V130.126H220.516V127.403ZM222.103 129.606H225.388V136.709H222.103V129.606ZM222.801 140.007H237.691V147.589H234.243V142.731H222.801V140.007ZM227.318 129.606H230.616V136.709H227.318V129.606ZM234.256 125.911H237.705V139.172H234.256V125.911Z" fill="#FA538F" stroke="black" stroke-width="12" stroke-linecap="round" stroke-linejoin="round"/>
<path d="M167.019 110.063C167.019 104.124 169.729 99.8811 174.683 99.8811C177.967 99.8811 180.267 101.824 181.06 104.343C181.17 104.562 181.225 104.863 181.279 105L177.256 105.711C177.228 105.547 177.119 105.218 177.064 105.027C176.681 103.823 175.86 102.974 174.683 102.974C172.603 102.974 171.453 105.574 171.453 109.954C171.453 113.84 172.548 116.66 174.628 116.687C176.243 116.687 177.53 114.963 177.53 111.514V111.486H174.272V108.585H181.389V119.451H179.09L178.378 116.468C177.612 118.384 176.079 119.862 173.752 119.862C169.975 119.862 167.019 116.003 167.019 110.063Z" fill="#FA538F"/>
<path d="M184.099 106.04H187.712V109.844C188.67 106.998 190.066 105.985 191.79 105.875L191.763 110.009C189.491 109.735 187.876 110.83 187.876 113.019V119.452H184.099V106.04Z" fill="#FA538F"/>
<path d="M192.803 116.03C192.803 114.005 193.651 112.445 196.854 111.322L199.208 110.501V109.981C199.208 108.749 198.77 108.147 197.894 108.147C197.018 108.147 196.553 108.804 196.498 109.79H192.857C193.46 107.353 195.458 105.684 198.277 105.684C201.096 105.684 202.985 107.271 202.985 110.2V116.14C202.985 116.933 203.286 117.125 203.669 117.125C203.806 117.125 203.888 117.098 203.943 117.098V119.424C203.642 119.561 202.985 119.67 202.328 119.67C200.549 119.67 199.399 118.877 199.262 117.098C198.578 118.767 197.483 119.725 196.033 119.725C194.171 119.725 192.803 118.247 192.803 116.03ZM197.647 117.207C198.523 117.207 199.235 116.194 199.235 114.689V112.116L198.058 112.718C196.772 113.375 196.388 114.251 196.388 115.373C196.388 116.578 197.018 117.207 197.647 117.207Z" fill="#FA538F"/>
<path d="M206.023 106.04H209.718V108.941C210.348 106.998 211.525 105.684 213.112 105.684C215.357 105.684 216.999 108.394 216.999 112.691C216.999 116.988 215.274 119.835 212.975 119.835C211.525 119.835 210.43 118.658 209.8 116.933V123.831H206.023V106.04ZM211.36 117.152C212.428 117.152 213.03 115.592 213.03 112.691C213.03 109.79 212.455 108.311 211.388 108.311C210.265 108.311 209.718 109.817 209.718 112.691C209.718 115.565 210.293 117.152 211.36 117.152Z" fill="#FA538F"/>
<path d="M219.298 100.292H223.075V108.448C223.951 106.395 225.155 105.739 226.414 105.739C228.659 105.739 229.617 107.682 229.617 110.063V119.452H225.812V110.392C225.812 109.242 225.402 108.366 224.58 108.366C223.677 108.366 223.075 109.379 223.075 111.322V119.452H219.298V100.292Z" fill="#FA538F"/>
<path d="M232.354 100.292H236.159V104.206H232.354V100.292ZM232.381 106.04H236.159V119.452H232.381V106.04Z" fill="#FA538F"/>
<path d="M238.375 112.746C238.375 108.667 240.784 105.684 244.096 105.684C246.696 105.684 248.448 107.436 249.269 110.118C249.324 110.31 249.379 110.446 249.433 110.665L245.684 111.158C245.656 110.884 245.601 110.665 245.574 110.446C245.328 108.941 244.862 108.175 244.069 108.175C243.029 108.175 242.372 109.653 242.372 112.746C242.372 115.839 243.029 117.289 244.069 117.289C244.835 117.289 245.355 116.441 245.629 114.798L245.711 114.251L249.324 114.716C249.269 114.99 249.187 115.236 249.132 115.483C248.284 118.165 246.423 119.835 244.096 119.835C240.784 119.835 238.375 116.824 238.375 112.746Z" fill="#FA538F"/>
<path d="M176.804 142.088H196.416V144.852H176.804V142.088ZM178.761 127.8H192.447V130.496H178.761V127.8ZM190.654 127.8H194.075V130.496C194.075 131.536 194.075 132.576 194.034 133.616C194.007 134.656 193.952 135.765 193.843 136.942C193.747 138.119 193.555 139.446 193.295 140.924L189.874 140.651C190.134 139.282 190.326 138.023 190.421 136.86C190.517 135.696 190.586 134.602 190.613 133.561C190.64 132.521 190.654 131.509 190.654 130.51V127.813V127.8Z" fill="#FA538F"/>
<path d="M198.715 127.937H206.954V136.545H202.04V141.102H198.742V133.849H203.655V130.66H198.729V127.937H198.715ZM198.742 140.103H200.275C201.561 140.103 202.793 140.076 203.956 140.021C205.133 139.966 206.365 139.843 207.665 139.665L207.925 142.416C206.57 142.635 205.298 142.772 204.08 142.84C202.862 142.909 201.589 142.936 200.275 142.936H198.742V140.117V140.103ZM208.787 126.24H211.949V146.576H208.787V126.24ZM210.922 133.986H214.371V136.709H210.922V133.986ZM213.605 125.884H216.862V147.562H213.605V125.884Z" fill="#FA538F"/>
<path d="M220.311 138.543L219.969 135.792C221.241 135.792 222.624 135.792 224.102 135.751C225.58 135.71 227.085 135.683 228.604 135.6C230.123 135.518 231.574 135.409 232.956 135.258L233.216 137.749C231.779 137.982 230.301 138.146 228.796 138.255C227.29 138.365 225.812 138.433 224.375 138.474C222.938 138.516 221.583 138.529 220.324 138.529L220.311 138.543ZM220.516 127.403H232.19V130.126H220.516V127.403ZM222.103 129.606H225.388V136.709H222.103V129.606ZM222.801 140.007H237.691V147.589H234.243V142.731H222.801V140.007ZM227.318 129.606H230.616V136.709H227.318V129.606ZM234.256 125.911H237.705V139.172H234.256V125.911Z" fill="#FA538F"/>
</g>
<defs>
<clipPath id="clip0_209_8526">
<rect width="416" height="416" fill="white"/>
</clipPath>
</defs>
</svg>
