<svg width="416" height="416" viewBox="0 0 416 416" fill="none" xmlns="http://www.w3.org/2000/svg">
<g clip-path="url(#clip0_209_8532)">
<path d="M416 416V0H358.876C358.918 0.478995 358.931 0.971675 358.931 1.46436V37.6764C358.931 48.31 350.309 56.9319 339.676 56.9319H208.76C198.126 56.9319 189.504 48.31 189.504 37.6764V0H0V416H91.2964V315.972C91.2964 301.616 102.943 289.97 117.299 289.97C131.655 289.97 143.302 301.616 143.302 315.972V416H416.014H416Z" fill="#0768F4"/>
<path d="M143.521 26.5637H160.436V40.7146C160.436 42.7948 161.982 44.2865 164.008 44.2865C166.033 44.2865 167.525 42.7948 167.525 40.7146V26.5637H184.44V69.2627H167.525V58.7522H160.422V69.2627H143.507V26.5637H143.521Z" fill="black"/>
<path d="M186.603 26.5637H204.052V69.2627H186.603V26.5637Z" fill="black"/>
<path d="M206.187 26.5637H227.536C237.362 26.5637 245.204 34.2003 245.204 43.5886C245.204 52.9769 237.362 59.6554 227.536 59.6554H223.102V69.2627H206.187V26.5637ZM229.562 43.1096C229.562 40.7146 227.646 38.7849 225.292 38.7849C222.938 38.7849 220.967 40.7009 220.967 43.1096C220.967 45.5182 222.938 47.3795 225.292 47.3795C227.646 47.3795 229.562 45.4635 229.562 43.1096Z" fill="black"/>
<path d="M242.371 54.8518H250.802L247.818 43.5886C245.204 33.7076 250.063 26.5637 259.246 26.5637H273.451V40.9746H265.705L268.798 52.7168C271.303 62.2694 266.444 69.2627 257.275 69.2627H242.385V54.8518H242.371Z" fill="black"/>
<path d="M142.097 99.8811H148.255C153.018 99.8811 155.262 101.961 155.262 105.027C155.262 108.092 152.963 110.474 148.365 110.474H146.203V119.041H142.097V99.8811ZM147.927 107.709C150.117 107.709 151.129 106.642 151.129 105.136V105.109C151.129 103.631 150.144 102.673 147.9 102.673H146.203V107.709H147.927Z" fill="#0768F4" stroke="black" stroke-width="14" stroke-linecap="round" stroke-linejoin="round"/>
<path d="M157.151 99.8811H160.928V108.038C161.804 105.985 163.009 105.328 164.268 105.328C166.512 105.328 167.47 107.271 167.47 109.653V119.041H163.665V109.981C163.665 108.831 163.255 107.956 162.434 107.956C161.531 107.956 160.928 108.968 160.928 110.912V119.041H157.151V99.8811Z" fill="#0768F4" stroke="black" stroke-width="14" stroke-linecap="round" stroke-linejoin="round"/>
<path d="M169.55 112.349C169.55 108.27 171.986 105.287 175.271 105.287C178.555 105.287 180.936 108.243 180.964 112.349C180.964 116.427 178.5 119.438 175.271 119.438C172.041 119.438 169.55 116.454 169.55 112.349ZM175.271 116.892C176.311 116.892 176.94 115.387 176.94 112.349C176.94 109.31 176.311 107.778 175.271 107.778C174.176 107.778 173.574 109.256 173.574 112.349C173.574 115.442 174.176 116.892 175.271 116.892Z" fill="#0768F4" stroke="black" stroke-width="14" stroke-linecap="round" stroke-linejoin="round"/>
<path d="M184.577 118.452C183.947 117.878 183.592 117.056 183.592 115.879V108.079H181.867V105.643H183.619L183.838 101.126H187.396V105.643H189.558V108.079H187.396V115.168C187.396 115.661 187.506 115.989 187.697 116.181C187.916 116.4 188.217 116.482 188.573 116.482C188.984 116.482 189.312 116.4 189.558 116.263V118.945C188.737 119.191 188.19 119.328 187.314 119.328C186.192 119.328 185.234 119.055 184.577 118.452Z" fill="#0768F4" stroke="black" stroke-width="14" stroke-linecap="round" stroke-linejoin="round"/>
<path d="M190.763 112.349C190.763 108.27 193.199 105.287 196.483 105.287C199.768 105.287 202.149 108.243 202.176 112.349C202.176 116.427 199.713 119.438 196.483 119.438C193.253 119.438 190.763 116.454 190.763 112.349ZM196.483 116.892C197.523 116.892 198.153 115.387 198.153 112.349C198.153 109.31 197.523 107.778 196.483 107.778C195.388 107.778 194.786 109.256 194.786 112.349C194.786 115.442 195.388 116.892 196.483 116.892Z" fill="#0768F4" stroke="black" stroke-width="14" stroke-linecap="round" stroke-linejoin="round"/>
<path d="M203.573 121.354L205.324 119.711C206.474 120.916 207.377 121.436 208.527 121.436C209.977 121.436 210.881 120.697 210.881 118.124V116.454C210.196 118.179 208.992 119.356 207.569 119.356C205.324 119.356 203.764 116.646 203.764 112.376C203.764 108.106 205.434 105.287 207.733 105.287C209.184 105.287 210.388 106.491 210.99 108.435V105.643H214.713V118.644C214.713 122.531 211.921 123.954 208.91 123.954C207.021 123.954 204.832 123.051 203.573 121.354ZM209.293 116.755C210.415 116.755 211.017 115.25 211.017 112.376C211.017 109.502 210.415 107.942 209.32 107.942C208.226 107.942 207.678 109.502 207.678 112.376C207.678 115.25 208.226 116.755 209.293 116.755Z" fill="#0768F4" stroke="black" stroke-width="14" stroke-linecap="round" stroke-linejoin="round"/>
<path d="M217.586 105.629H221.199V109.434C222.157 106.587 223.553 105.574 225.278 105.465L225.25 109.598C222.979 109.324 221.364 110.419 221.364 112.609V119.041H217.586V105.629Z" fill="#0768F4" stroke="black" stroke-width="14" stroke-linecap="round" stroke-linejoin="round"/>
<path d="M226.291 115.633C226.291 113.608 227.139 112.048 230.341 110.925L232.695 110.104V109.584C232.695 108.352 232.257 107.75 231.382 107.75C230.506 107.75 230.04 108.407 229.986 109.393H226.345C226.947 106.957 228.946 105.287 231.765 105.287C234.584 105.287 236.473 106.874 236.473 109.803V115.743C236.473 116.536 236.774 116.728 237.157 116.728C237.294 116.728 237.376 116.701 237.431 116.701V119.027C237.129 119.164 236.473 119.274 235.816 119.274C234.037 119.274 232.887 118.48 232.75 116.701C232.066 118.37 230.971 119.328 229.52 119.328C227.659 119.328 226.291 117.85 226.291 115.633ZM231.135 116.81C232.011 116.81 232.723 115.797 232.723 114.292V111.719L231.546 112.321C230.259 112.978 229.876 113.854 229.876 114.976C229.876 116.181 230.506 116.81 231.135 116.81Z" fill="#0768F4" stroke="black" stroke-width="14" stroke-linecap="round" stroke-linejoin="round"/>
<path d="M239.511 105.629H243.206V108.53C243.835 106.587 245.012 105.273 246.6 105.273C248.844 105.273 250.487 107.983 250.487 112.28C250.487 116.577 248.762 119.424 246.463 119.424C245.012 119.424 243.918 118.247 243.288 116.523V123.42H239.511V105.629ZM244.848 116.742C245.916 116.742 246.518 115.182 246.518 112.28C246.518 109.379 245.943 107.901 244.875 107.901C243.753 107.901 243.206 109.406 243.206 112.28C243.206 115.154 243.781 116.742 244.848 116.742Z" fill="#0768F4" stroke="black" stroke-width="14" stroke-linecap="round" stroke-linejoin="round"/>
<path d="M252.786 99.8811H256.563V108.038C257.439 105.985 258.643 105.328 259.902 105.328C262.147 105.328 263.105 107.271 263.105 109.653V119.041H259.3V109.981C259.3 108.831 258.889 107.956 258.068 107.956C257.165 107.956 256.563 108.968 256.563 110.912V119.041H252.786V99.8811Z" fill="#0768F4" stroke="black" stroke-width="14" stroke-linecap="round" stroke-linejoin="round"/>
<path d="M264.829 123.516V120.587C265.185 120.779 265.76 120.943 266.225 120.943C266.854 120.943 267.648 120.724 268.223 119.192L268.551 118.288L264.446 105.643H268.141L270.221 113.663L272.548 105.643H276.079L270.988 120.396C270.084 122.969 268.606 123.817 266.827 123.817C266.115 123.817 265.486 123.735 264.829 123.516Z" fill="#0768F4" stroke="black" stroke-width="14" stroke-linecap="round" stroke-linejoin="round"/>
<path d="M170.823 129.852H173.587V132.808C173.587 134.191 173.478 135.532 173.259 136.818C173.04 138.118 172.698 139.323 172.219 140.445C171.74 141.567 171.124 142.566 170.371 143.428C169.605 144.304 168.702 144.989 167.62 145.495L165.568 142.744C166.526 142.293 167.347 141.718 168.017 141.02C168.688 140.322 169.222 139.528 169.632 138.639C170.043 137.749 170.344 136.805 170.522 135.806C170.713 134.807 170.796 133.808 170.796 132.795V129.839L170.823 129.852ZM171.521 129.852H174.272V132.808C174.272 133.78 174.354 134.752 174.532 135.71C174.696 136.668 174.983 137.571 175.366 138.42C175.75 139.268 176.256 140.034 176.872 140.719C177.488 141.403 178.24 141.964 179.13 142.388L177.077 145.139C176.051 144.633 175.189 143.949 174.491 143.1C173.793 142.252 173.218 141.294 172.78 140.199C172.342 139.118 172.014 137.941 171.808 136.682C171.603 135.422 171.507 134.136 171.507 132.795V129.839L171.521 129.852ZM179.705 128.251H183.154V149.929H179.705V128.251ZM182.401 136.463H186.164V139.295H182.401V136.463Z" fill="#0768F4" stroke="black" stroke-width="14" stroke-linecap="round" stroke-linejoin="round"/>
<path d="M192.597 130.66H195.43V132.384C195.43 133.767 195.211 135.08 194.773 136.312C194.335 137.544 193.664 138.639 192.761 139.583C191.858 140.527 190.681 141.211 189.23 141.663L187.492 138.994C188.737 138.598 189.723 138.05 190.475 137.352C191.214 136.668 191.762 135.888 192.09 135.012C192.419 134.136 192.597 133.274 192.597 132.384V130.66ZM188.409 129.702H200.206V132.398H188.409V129.702ZM190.995 142.457H194.417V148.232H190.995V142.457ZM190.995 146.85H206.091V149.573H190.995V146.85ZM193.322 130.66H196.114V132.384C196.114 133 196.196 133.63 196.388 134.246C196.565 134.861 196.853 135.45 197.25 136.011C197.647 136.572 198.153 137.078 198.783 137.53C199.412 137.982 200.178 138.351 201.095 138.639L199.357 141.294C197.948 140.842 196.798 140.171 195.909 139.282C195.019 138.392 194.376 137.352 193.952 136.148C193.527 134.957 193.322 133.698 193.322 132.384V130.66ZM202.135 128.238H205.584V143.825H202.135V128.238Z" fill="#0768F4" stroke="black" stroke-width="14" stroke-linecap="round" stroke-linejoin="round"/>
<path d="M213.754 129.661C214.726 129.661 215.575 129.989 216.273 130.633C216.984 131.276 217.532 132.193 217.915 133.383C218.298 134.574 218.49 135.997 218.49 137.653C218.49 139.309 218.298 140.746 217.915 141.937C217.532 143.127 216.971 144.044 216.259 144.688C215.547 145.317 214.712 145.646 213.741 145.646C212.769 145.646 211.962 145.331 211.25 144.688C210.538 144.044 209.991 143.141 209.608 141.937C209.225 140.746 209.033 139.309 209.033 137.653C209.033 135.997 209.225 134.574 209.608 133.383C209.991 132.193 210.538 131.276 211.25 130.633C211.962 129.989 212.796 129.661 213.741 129.661H213.754ZM213.782 132.891C213.426 132.891 213.125 133.055 212.879 133.397C212.632 133.739 212.441 134.259 212.304 134.943C212.167 135.628 212.112 136.531 212.112 137.626C212.112 138.721 212.181 139.61 212.304 140.308C212.441 141.006 212.619 141.526 212.879 141.855C213.125 142.183 213.426 142.361 213.782 142.361C214.138 142.361 214.439 142.197 214.685 141.855C214.931 141.526 215.123 141.006 215.246 140.308C215.369 139.61 215.438 138.721 215.438 137.626C215.438 136.531 215.369 135.628 215.246 134.943C215.123 134.259 214.931 133.739 214.685 133.397C214.439 133.055 214.138 132.891 213.782 132.891ZM217.504 132.863H220.953V135.614H217.504V132.863ZM217.504 139.61H220.953V142.361H217.504V139.61ZM219.968 128.511H223.156V148.958H219.968V128.511ZM224.32 128.21H227.577V149.888H224.32V128.21Z" fill="#0768F4" stroke="black" stroke-width="14" stroke-linecap="round" stroke-linejoin="round"/>
<rect x="168.871" y="105.652" width="42.2178" height="15.4455" fill="black"/>
<path d="M230.287 136.572H249.898V139.255H230.287V136.572ZM238.334 128.361H241.221V128.635C241.221 129.36 241.098 130.058 240.866 130.715C240.619 131.372 240.277 131.987 239.812 132.549C239.346 133.11 238.758 133.616 238.046 134.068C237.335 134.519 236.5 134.889 235.542 135.19C234.584 135.491 233.516 135.696 232.339 135.819L231.217 133.26C232.244 133.164 233.147 133.014 233.927 132.781C234.707 132.562 235.378 132.289 235.939 131.974C236.5 131.659 236.951 131.317 237.307 130.947C237.663 130.578 237.923 130.195 238.087 129.798C238.252 129.401 238.334 129.004 238.334 128.621V128.347V128.361ZM232.49 140.459H247.544V146.248H235.884V147.918H232.504V143.894H244.164V142.963H232.49V140.445V140.459ZM232.517 147.247H248.105V149.806H232.517V147.247ZM238.361 138.68H241.782V141.608H238.361V138.68ZM238.95 128.347H241.851V128.621C241.851 129.004 241.933 129.401 242.097 129.798C242.261 130.195 242.522 130.578 242.864 130.947C243.206 131.317 243.671 131.659 244.219 131.974C244.78 132.289 245.45 132.549 246.244 132.781C247.038 133 247.941 133.164 248.967 133.26L247.832 135.819C246.668 135.696 245.614 135.491 244.656 135.19C243.698 134.889 242.864 134.519 242.152 134.068C241.44 133.616 240.838 133.11 240.373 132.549C239.894 131.987 239.538 131.372 239.305 130.715C239.059 130.058 238.95 129.36 238.95 128.635V128.361V128.347Z" fill="#0768F4" stroke="black" stroke-width="14" stroke-linecap="round" stroke-linejoin="round"/>
<path d="M142.097 99.8811H148.255C153.018 99.8811 155.262 101.961 155.262 105.027C155.262 108.092 152.963 110.474 148.365 110.474H146.203V119.041H142.097V99.8811ZM147.927 107.709C150.117 107.709 151.129 106.642 151.129 105.136V105.109C151.129 103.631 150.144 102.673 147.9 102.673H146.203V107.709H147.927Z" fill="#0768F4"/>
<path d="M157.151 99.8811H160.928V108.038C161.804 105.985 163.009 105.328 164.268 105.328C166.512 105.328 167.47 107.271 167.47 109.653V119.041H163.665V109.981C163.665 108.831 163.255 107.956 162.434 107.956C161.531 107.956 160.928 108.968 160.928 110.912V119.041H157.151V99.8811Z" fill="#0768F4"/>
<path d="M169.55 112.349C169.55 108.27 171.986 105.287 175.271 105.287C178.555 105.287 180.936 108.243 180.964 112.349C180.964 116.427 178.5 119.438 175.271 119.438C172.041 119.438 169.55 116.454 169.55 112.349ZM175.271 116.892C176.311 116.892 176.94 115.387 176.94 112.349C176.94 109.31 176.311 107.778 175.271 107.778C174.176 107.778 173.574 109.256 173.574 112.349C173.574 115.442 174.176 116.892 175.271 116.892Z" fill="#0768F4"/>
<path d="M184.577 118.452C183.947 117.878 183.592 117.056 183.592 115.879V108.079H181.867V105.643H183.619L183.838 101.126H187.396V105.643H189.558V108.079H187.396V115.168C187.396 115.661 187.506 115.989 187.697 116.181C187.916 116.4 188.217 116.482 188.573 116.482C188.984 116.482 189.312 116.4 189.558 116.263V118.945C188.737 119.191 188.19 119.328 187.314 119.328C186.192 119.328 185.234 119.055 184.577 118.452Z" fill="#0768F4"/>
<path d="M190.763 112.349C190.763 108.27 193.199 105.287 196.483 105.287C199.768 105.287 202.149 108.243 202.176 112.349C202.176 116.427 199.713 119.438 196.483 119.438C193.253 119.438 190.763 116.454 190.763 112.349ZM196.483 116.892C197.523 116.892 198.153 115.387 198.153 112.349C198.153 109.31 197.523 107.778 196.483 107.778C195.388 107.778 194.786 109.256 194.786 112.349C194.786 115.442 195.388 116.892 196.483 116.892Z" fill="#0768F4"/>
<path d="M203.573 121.354L205.324 119.711C206.474 120.916 207.377 121.436 208.527 121.436C209.977 121.436 210.881 120.697 210.881 118.124V116.454C210.196 118.179 208.992 119.356 207.569 119.356C205.324 119.356 203.764 116.646 203.764 112.376C203.764 108.106 205.434 105.287 207.733 105.287C209.184 105.287 210.388 106.491 210.99 108.435V105.643H214.713V118.644C214.713 122.531 211.921 123.954 208.91 123.954C207.021 123.954 204.832 123.051 203.573 121.354ZM209.293 116.755C210.415 116.755 211.017 115.25 211.017 112.376C211.017 109.502 210.415 107.942 209.32 107.942C208.226 107.942 207.678 109.502 207.678 112.376C207.678 115.25 208.226 116.755 209.293 116.755Z" fill="#0768F4"/>
<path d="M217.586 105.643H221.199V109.447C222.157 106.601 223.553 105.588 225.278 105.479L225.25 109.612C222.979 109.338 221.364 110.433 221.364 112.622V119.055H217.586V105.643Z" fill="#0768F4"/>
<path d="M226.291 115.633C226.291 113.608 227.139 112.048 230.341 110.925L232.695 110.104V109.584C232.695 108.352 232.257 107.75 231.382 107.75C230.506 107.75 230.04 108.407 229.986 109.393H226.345C226.947 106.957 228.946 105.287 231.765 105.287C234.584 105.287 236.473 106.874 236.473 109.803V115.743C236.473 116.536 236.774 116.728 237.157 116.728C237.294 116.728 237.376 116.701 237.431 116.701V119.027C237.129 119.164 236.473 119.274 235.816 119.274C234.037 119.274 232.887 118.48 232.75 116.701C232.066 118.37 230.971 119.328 229.52 119.328C227.659 119.328 226.291 117.85 226.291 115.633ZM231.135 116.81C232.011 116.81 232.723 115.797 232.723 114.292V111.719L231.546 112.321C230.259 112.978 229.876 113.854 229.876 114.976C229.876 116.181 230.506 116.81 231.135 116.81Z" fill="#0768F4"/>
<path d="M239.511 105.643H243.206V108.544C243.835 106.601 245.012 105.287 246.6 105.287C248.844 105.287 250.487 107.997 250.487 112.294C250.487 116.591 248.762 119.438 246.463 119.438C245.012 119.438 243.918 118.261 243.288 116.536V123.434H239.511V105.643ZM244.848 116.755C245.916 116.755 246.518 115.195 246.518 112.294C246.518 109.393 245.943 107.915 244.875 107.915C243.753 107.915 243.206 109.42 243.206 112.294C243.206 115.168 243.781 116.755 244.848 116.755Z" fill="#0768F4"/>
<path d="M252.786 99.8811H256.563V108.038C257.439 105.985 258.643 105.328 259.902 105.328C262.147 105.328 263.105 107.271 263.105 109.653V119.041H259.3V109.981C259.3 108.831 258.889 107.956 258.068 107.956C257.165 107.956 256.563 108.968 256.563 110.912V119.041H252.786V99.8811Z" fill="#0768F4"/>
<path d="M264.829 123.516V120.587C265.185 120.779 265.76 120.943 266.225 120.943C266.854 120.943 267.648 120.724 268.223 119.192L268.551 118.288L264.446 105.643H268.141L270.221 113.663L272.548 105.643H276.079L270.988 120.396C270.084 122.969 268.606 123.817 266.827 123.817C266.115 123.817 265.486 123.735 264.829 123.516Z" fill="#0768F4"/>
<path d="M170.823 129.852H173.587V132.808C173.587 134.191 173.478 135.532 173.259 136.818C173.04 138.118 172.698 139.323 172.219 140.445C171.74 141.567 171.124 142.566 170.371 143.428C169.605 144.304 168.702 144.989 167.62 145.495L165.568 142.744C166.526 142.293 167.347 141.718 168.017 141.02C168.688 140.322 169.222 139.528 169.632 138.639C170.043 137.749 170.344 136.805 170.522 135.806C170.713 134.807 170.796 133.808 170.796 132.795V129.839L170.823 129.852ZM171.521 129.852H174.272V132.808C174.272 133.78 174.354 134.752 174.532 135.71C174.696 136.668 174.983 137.571 175.366 138.42C175.75 139.268 176.256 140.034 176.872 140.719C177.488 141.403 178.24 141.964 179.13 142.388L177.077 145.139C176.051 144.633 175.189 143.949 174.491 143.1C173.793 142.252 173.218 141.294 172.78 140.199C172.342 139.118 172.014 137.941 171.808 136.682C171.603 135.422 171.507 134.136 171.507 132.795V129.839L171.521 129.852ZM179.705 128.251H183.154V149.929H179.705V128.251ZM182.401 136.463H186.164V139.295H182.401V136.463Z" fill="#0768F4"/>
<path d="M192.597 130.674H195.43V132.398C195.43 133.78 195.211 135.094 194.773 136.326C194.335 137.557 193.664 138.652 192.761 139.597C191.858 140.541 190.681 141.225 189.23 141.677L187.492 139.008C188.737 138.611 189.723 138.064 190.475 137.366C191.214 136.682 191.762 135.901 192.09 135.026C192.419 134.15 192.597 133.288 192.597 132.398V130.674ZM188.409 129.716H200.206V132.412H188.409V129.716ZM190.995 142.47H194.417V148.246H190.995V142.47ZM190.995 146.864H206.091V149.587H190.995V146.864ZM193.322 130.674H196.114V132.398C196.114 133.014 196.196 133.643 196.388 134.259C196.565 134.875 196.853 135.464 197.25 136.025C197.647 136.586 198.153 137.092 198.783 137.544C199.412 137.995 200.178 138.365 201.095 138.652L199.357 141.307C197.948 140.856 196.798 140.185 195.909 139.295C195.019 138.406 194.376 137.366 193.952 136.161C193.527 134.971 193.322 133.712 193.322 132.398V130.674ZM202.135 128.251H205.584V143.839H202.135V128.251Z" fill="#0768F4"/>
<path d="M213.754 129.661C214.726 129.661 215.575 129.989 216.273 130.633C216.984 131.276 217.532 132.193 217.915 133.383C218.298 134.574 218.49 135.997 218.49 137.653C218.49 139.309 218.298 140.746 217.915 141.937C217.532 143.127 216.971 144.044 216.259 144.688C215.547 145.317 214.712 145.646 213.741 145.646C212.769 145.646 211.962 145.331 211.25 144.688C210.538 144.044 209.991 143.141 209.608 141.937C209.225 140.746 209.033 139.309 209.033 137.653C209.033 135.997 209.225 134.574 209.608 133.383C209.991 132.193 210.538 131.276 211.25 130.633C211.962 129.989 212.796 129.661 213.741 129.661H213.754ZM213.782 132.891C213.426 132.891 213.125 133.055 212.879 133.397C212.632 133.739 212.441 134.259 212.304 134.943C212.167 135.628 212.112 136.531 212.112 137.626C212.112 138.721 212.181 139.61 212.304 140.308C212.441 141.006 212.619 141.526 212.879 141.855C213.125 142.183 213.426 142.361 213.782 142.361C214.138 142.361 214.439 142.197 214.685 141.855C214.931 141.526 215.123 141.006 215.246 140.308C215.369 139.61 215.438 138.721 215.438 137.626C215.438 136.531 215.369 135.628 215.246 134.943C215.123 134.259 214.931 133.739 214.685 133.397C214.439 133.055 214.138 132.891 213.782 132.891ZM217.504 132.863H220.953V135.614H217.504V132.863ZM217.504 139.61H220.953V142.361H217.504V139.61ZM219.968 128.511H223.156V148.958H219.968V128.511ZM224.32 128.21H227.577V149.888H224.32V128.21Z" fill="#0768F4"/>
<path d="M230.287 136.572H249.898V139.255H230.287V136.572ZM238.334 128.361H241.221V128.635C241.221 129.36 241.098 130.058 240.866 130.715C240.619 131.372 240.277 131.987 239.812 132.549C239.346 133.11 238.758 133.616 238.046 134.068C237.335 134.519 236.5 134.889 235.542 135.19C234.584 135.491 233.516 135.696 232.339 135.819L231.217 133.26C232.244 133.164 233.147 133.014 233.927 132.781C234.707 132.562 235.378 132.289 235.939 131.974C236.5 131.659 236.951 131.317 237.307 130.947C237.663 130.578 237.923 130.195 238.087 129.798C238.252 129.401 238.334 129.004 238.334 128.621V128.347V128.361ZM232.49 140.459H247.544V146.248H235.884V147.918H232.504V143.894H244.164V142.963H232.49V140.445V140.459ZM232.517 147.247H248.105V149.806H232.517V147.247ZM238.361 138.68H241.782V141.608H238.361V138.68ZM238.95 128.347H241.851V128.621C241.851 129.004 241.933 129.401 242.097 129.798C242.261 130.195 242.522 130.578 242.864 130.947C243.206 131.317 243.671 131.659 244.219 131.974C244.78 132.289 245.45 132.549 246.244 132.781C247.038 133 247.941 133.164 248.967 133.26L247.832 135.819C246.668 135.696 245.614 135.491 244.656 135.19C243.698 134.889 242.864 134.519 242.152 134.068C241.44 133.616 240.838 133.11 240.373 132.549C239.894 131.987 239.538 131.372 239.305 130.715C239.059 130.058 238.95 129.36 238.95 128.635V128.361V128.347Z" fill="#0768F4"/>
</g>
<defs>
<clipPath id="clip0_209_8532">
<rect width="416" height="416" fill="white"/>
</clipPath>
</defs>
</svg>
