<svg width="416" height="416" viewBox="0 0 416 416" fill="none" xmlns="http://www.w3.org/2000/svg">
<g clip-path="url(#clip0_209_8534)">
<path d="M308.637 0V27.6311L41.1114 40.9609V0H0V416H134.214V375.545L325.867 357.973V416H416V0H308.637Z" fill="#35DE25"/>
<path d="M85.9863 26.5637H102.902V40.7146C102.902 42.7948 104.448 44.2865 106.474 44.2865C108.499 44.2865 109.991 42.7948 109.991 40.7146V26.5637H126.906V69.2627H109.991V58.7522H102.888V69.2627H85.9727V26.5637H85.9863Z" fill="black"/>
<path d="M143.849 61.4756H129.069V26.5637H145.984V44.9845C145.984 46.3257 147.804 46.6404 148.119 45.4087L153.196 26.5637H171.562L160.135 69.2627H141.769L143.849 61.4756Z" fill="black"/>
<path d="M170.741 26.5637H192.09C201.917 26.5637 209.759 34.2003 209.759 43.5886C209.759 52.9769 201.917 59.6554 192.09 59.6554H187.656V69.2627H170.741V26.5637ZM194.116 43.1096C194.116 40.7146 192.2 38.7849 189.846 38.7849C187.492 38.7849 185.521 40.7009 185.521 43.1096C185.521 45.5182 187.492 47.3795 189.846 47.3795C192.2 47.3795 194.116 45.4635 194.116 43.1096Z" fill="black"/>
<path d="M211.1 26.5637H228.015V40.7146C228.015 42.7948 229.562 44.2865 231.587 44.2865C233.613 44.2865 235.104 42.7948 235.104 40.7146V26.5637H252.02V69.2627H235.104V58.7522H228.002V69.2627H211.086V26.5637H211.1Z" fill="black"/>
<path d="M254.168 26.5637H287.096V40.9746H272.685C271.138 40.9746 270.016 42.1516 270.016 43.8075C270.016 45.4635 271.138 46.6404 272.685 46.6404H277.488V54.8655H287.096V69.2764H254.168V26.5774V26.5637Z" fill="black"/>
<path d="M289.08 26.5637H330.014V69.2627H313.098V43.219C313.098 41.3031 311.388 39.9071 309.581 39.9071C307.391 39.9071 306.009 41.2894 306.009 43.219V69.2627H289.094V26.5637H289.08Z" fill="black"/>
<path d="M66.1836 99.8811H70.3714L73.9023 113.649L77.3784 99.8811H81.3198L75.9277 119.041H71.9042L66.1836 99.8811Z" fill="#35DE25" stroke="black" stroke-width="12" stroke-linecap="round" stroke-linejoin="round"/>
<path d="M82.9622 99.8811H86.7667V103.795H82.9622V99.8811ZM82.9895 105.629H86.7667V119.041H82.9895V105.629Z" fill="#35DE25" stroke="black" stroke-width="12" stroke-linecap="round" stroke-linejoin="round"/>
<path d="M88.9016 116.057C88.7922 115.784 88.71 115.483 88.6279 115.209L91.8851 114.689C91.9125 114.963 91.9946 115.209 92.0767 115.401C92.4873 116.523 93.1989 116.988 93.9927 116.988C94.8959 116.988 95.4433 116.331 95.4433 115.51C95.4433 114.689 95.0601 114.306 94.0474 113.868L92.0493 112.992C90.106 112.171 89.2301 110.939 89.2575 109.187C89.2848 107.025 91.1461 105.273 93.9927 105.273C96.0181 105.273 97.7425 106.341 98.5636 108.01C98.6731 108.229 98.7552 108.448 98.8647 108.722L95.8813 109.324C95.8265 109.105 95.7992 108.914 95.6897 108.722C95.3338 107.983 94.7043 107.6 94.0474 107.6C93.281 107.6 92.6515 108.092 92.6515 108.859C92.6515 109.352 92.8431 109.762 93.9106 110.145L95.8265 110.912C98.5363 111.952 99.1111 113.512 99.0837 115.072C99.0563 117.317 97.0582 119.424 93.9653 119.424C91.8851 119.424 89.8049 118.275 88.9016 116.057Z" fill="#35DE25" stroke="black" stroke-width="12" stroke-linecap="round" stroke-linejoin="round"/>
<path d="M101.082 115.017V105.629H104.886V114.689C104.886 115.784 105.242 116.714 106.091 116.714C106.994 116.714 107.596 115.701 107.596 113.758V105.629H111.401V119.041H107.651V116.495C106.775 118.658 105.571 119.342 104.284 119.342C102.04 119.342 101.082 117.426 101.082 115.017Z" fill="#35DE25" stroke="black" stroke-width="12" stroke-linecap="round" stroke-linejoin="round"/>
<path d="M113.618 115.619C113.618 113.594 114.466 112.034 117.669 110.912L120.023 110.091V109.57C120.023 108.339 119.585 107.737 118.709 107.737C117.833 107.737 117.368 108.394 117.313 109.379H113.672C114.275 106.943 116.273 105.273 119.092 105.273C121.911 105.273 123.8 106.861 123.8 109.789V115.729C123.8 116.523 124.101 116.714 124.484 116.714C124.621 116.714 124.703 116.687 124.758 116.687V119.013C124.457 119.15 123.8 119.26 123.143 119.26C121.364 119.26 120.214 118.466 120.077 116.687C119.393 118.357 118.298 119.315 116.847 119.315C114.986 119.315 113.618 117.837 113.618 115.619ZM118.462 116.796C119.338 116.796 120.05 115.784 120.05 114.278V111.705L118.873 112.308C117.586 112.964 117.203 113.84 117.203 114.963C117.203 116.167 117.833 116.796 118.462 116.796Z" fill="#35DE25" stroke="black" stroke-width="12" stroke-linecap="round" stroke-linejoin="round"/>
<path d="M126.838 99.8811H130.642V119.041H126.838V99.8811Z" fill="#35DE25" stroke="black" stroke-width="12" stroke-linecap="round" stroke-linejoin="round"/>
<path d="M138.854 99.8811H150.405V102.837H142.96V107.189H148.625V110.063H142.96V116.085H150.979V119.041H138.854V99.8811Z" fill="#35DE25" stroke="black" stroke-width="12" stroke-linecap="round" stroke-linejoin="round"/>
<path d="M152.95 105.629H156.672V108.229C157.521 106.012 158.753 105.328 160.066 105.328C162.283 105.328 163.269 107.244 163.269 109.653V119.041H159.464V109.981C159.464 108.886 159.108 107.956 158.233 107.956C157.357 107.956 156.727 108.968 156.727 110.912V119.041H152.95V105.629Z" fill="#35DE25" stroke="black" stroke-width="12" stroke-linecap="round" stroke-linejoin="round"/>
<path d="M164.528 105.629H168.251L170.44 113.703L172.63 105.629H176.106L171.754 119.041H169.017L164.528 105.629Z" fill="#35DE25" stroke="black" stroke-width="12" stroke-linecap="round" stroke-linejoin="round"/>
<path d="M177.776 99.8811H181.58V103.795H177.776V99.8811ZM177.803 105.629H181.58V119.041H177.803V105.629Z" fill="#35DE25" stroke="black" stroke-width="12" stroke-linecap="round" stroke-linejoin="round"/>
<path d="M184.482 105.629H188.095V109.434C189.053 106.587 190.449 105.574 192.173 105.465L192.146 109.598C189.874 109.324 188.259 110.419 188.259 112.609V119.041H184.482V105.629Z" fill="#35DE25" stroke="black" stroke-width="12" stroke-linecap="round" stroke-linejoin="round"/>
<path d="M193.104 112.335C193.104 108.257 195.54 105.273 198.824 105.273C202.109 105.273 204.49 108.229 204.517 112.335C204.517 116.413 202.054 119.424 198.824 119.424C195.594 119.424 193.104 116.441 193.104 112.335ZM198.824 116.879C199.864 116.879 200.494 115.373 200.494 112.335C200.494 109.297 199.864 107.764 198.824 107.764C197.729 107.764 197.127 109.242 197.127 112.335C197.127 115.428 197.729 116.879 198.824 116.879Z" fill="#35DE25" stroke="black" stroke-width="12" stroke-linecap="round" stroke-linejoin="round"/>
<path d="M206.707 105.629H210.43V108.229C211.278 106.012 212.51 105.328 213.824 105.328C216.041 105.328 217.026 107.244 217.026 109.653V119.041H213.221V109.981C213.221 108.886 212.866 107.956 211.99 107.956C211.114 107.956 210.484 108.968 210.484 110.912V119.041H206.707V105.629Z" fill="#35DE25" stroke="black" stroke-width="12" stroke-linecap="round" stroke-linejoin="round"/>
<path d="M219.79 105.629H223.485V108.339C224.252 106.204 225.456 105.328 226.743 105.328C228.44 105.328 229.288 106.587 229.562 108.311C230.383 106.204 231.587 105.328 232.874 105.328C235.063 105.328 236.021 107.244 236.021 109.707V119.041H232.217V110.2C232.217 109.132 231.97 108.065 231.122 108.065C230.219 108.065 229.726 109.132 229.726 110.994V119.041H226.058V110.2C226.058 109.023 225.73 108.065 224.963 108.065C224.115 108.065 223.567 109.132 223.567 110.994V119.041H219.79V105.629Z" fill="#35DE25" stroke="black" stroke-width="12" stroke-linecap="round" stroke-linejoin="round"/>
<path d="M238.102 112.362V112.335C238.102 108.448 240.455 105.273 243.795 105.273C247.38 105.273 249.105 108.914 249.105 112.527V112.581H242.098V112.8C242.098 115.401 242.727 116.961 243.795 116.961C244.561 116.961 245.054 116.359 245.41 115.099C245.492 114.908 245.547 114.662 245.574 114.388L248.913 114.634C248.831 114.935 248.749 115.291 248.612 115.592C247.764 118.001 245.984 119.424 243.849 119.424C240.565 119.424 238.102 116.304 238.102 112.362ZM245.355 110.802C245.273 108.612 244.753 107.6 243.795 107.6C242.837 107.6 242.207 108.804 242.125 110.802H245.355Z" fill="#35DE25" stroke="black" stroke-width="12" stroke-linecap="round" stroke-linejoin="round"/>
<path d="M251.267 105.629H254.99V108.229C255.838 106.012 257.07 105.328 258.384 105.328C260.601 105.328 261.586 107.244 261.586 109.653V119.041H257.781V109.981C257.781 108.886 257.426 107.956 256.55 107.956C255.674 107.956 255.044 108.968 255.044 110.912V119.041H251.267V105.629Z" fill="#35DE25" stroke="black" stroke-width="12" stroke-linecap="round" stroke-linejoin="round"/>
<path d="M265.965 118.439C265.336 117.864 264.98 117.043 264.98 115.866V108.065H263.256V105.629H265.007L265.226 101.113H268.785V105.629H270.947V108.065H268.785V115.154C268.785 115.647 268.894 115.975 269.086 116.167C269.305 116.386 269.606 116.468 269.962 116.468C270.372 116.468 270.701 116.386 270.947 116.249V118.931C270.126 119.178 269.578 119.315 268.702 119.315C267.58 119.315 266.622 119.041 265.965 118.439Z" fill="#35DE25" stroke="black" stroke-width="12" stroke-linecap="round" stroke-linejoin="round"/>
<path d="M278.419 99.8811H284.413C289.231 99.8811 292.187 103.494 292.187 109.324V109.352C292.159 115.373 289.121 119.041 284.112 119.041H278.419V99.8811ZM283.702 116.112C286.685 116.112 287.78 113.621 287.78 109.352V109.297C287.78 105.054 286.576 102.81 283.976 102.81H282.525V116.112H283.702Z" fill="#35DE25" stroke="black" stroke-width="12" stroke-linecap="round" stroke-linejoin="round"/>
<path d="M293.829 112.362V112.335C293.829 108.448 296.183 105.273 299.522 105.273C303.108 105.273 304.832 108.914 304.832 112.527V112.581H297.825V112.8C297.825 115.401 298.455 116.961 299.522 116.961C300.289 116.961 300.781 116.359 301.137 115.099C301.219 114.908 301.274 114.662 301.301 114.388L304.641 114.634C304.559 114.935 304.476 115.291 304.34 115.592C303.491 118.001 301.712 119.424 299.577 119.424C296.292 119.424 293.829 116.304 293.829 112.362ZM301.082 110.802C301 108.612 300.48 107.6 299.522 107.6C298.564 107.6 297.935 108.804 297.853 110.802H301.082Z" fill="#35DE25" stroke="black" stroke-width="12" stroke-linecap="round" stroke-linejoin="round"/>
<path d="M306.228 116.057C306.119 115.784 306.037 115.483 305.955 115.209L309.212 114.689C309.239 114.963 309.321 115.209 309.403 115.401C309.814 116.523 310.526 116.988 311.319 116.988C312.223 116.988 312.77 116.331 312.77 115.51C312.77 114.689 312.387 114.306 311.374 113.868L309.376 112.992C307.433 112.171 306.557 110.939 306.584 109.187C306.612 107.025 308.473 105.273 311.319 105.273C313.345 105.273 315.069 106.341 315.89 108.01C316 108.229 316.082 108.448 316.191 108.722L313.208 109.324C313.153 109.105 313.126 108.914 313.016 108.722C312.661 107.983 312.031 107.6 311.374 107.6C310.608 107.6 309.978 108.092 309.978 108.859C309.978 109.352 310.17 109.762 311.237 110.145L313.153 110.912C315.863 111.952 316.438 113.512 316.41 115.072C316.383 117.317 314.385 119.424 311.292 119.424C309.212 119.424 307.132 118.275 306.228 116.057Z" fill="#35DE25" stroke="black" stroke-width="12" stroke-linecap="round" stroke-linejoin="round"/>
<path d="M318.491 99.8811H322.295V103.795H318.491V99.8811ZM318.518 105.629H322.295V119.041H318.518V105.629Z" fill="#35DE25" stroke="black" stroke-width="12" stroke-linecap="round" stroke-linejoin="round"/>
<path d="M324.403 121.34L326.155 119.698C327.304 120.902 328.207 121.422 329.357 121.422C330.808 121.422 331.711 120.683 331.711 118.11V116.441C331.027 118.165 329.822 119.342 328.399 119.342C326.155 119.342 324.594 116.632 324.594 112.362C324.594 108.092 326.264 105.273 328.563 105.273C330.014 105.273 331.218 106.478 331.82 108.421V105.629H335.543V118.63C335.543 122.517 332.751 123.94 329.74 123.94C327.852 123.94 325.662 123.037 324.403 121.34ZM330.123 116.742C331.246 116.742 331.848 115.236 331.848 112.362C331.848 109.488 331.246 107.928 330.151 107.928C329.056 107.928 328.509 109.488 328.509 112.362C328.509 115.236 329.056 116.742 330.123 116.742Z" fill="#35DE25" stroke="black" stroke-width="12" stroke-linecap="round" stroke-linejoin="round"/>
<path d="M338.417 105.629H342.139V108.229C342.988 106.012 344.219 105.328 345.533 105.328C347.75 105.328 348.736 107.244 348.736 109.653V119.041H344.931V109.981C344.931 108.886 344.575 107.956 343.699 107.956C342.823 107.956 342.194 108.968 342.194 110.912V119.041H338.417V105.629Z" fill="#35DE25" stroke="black" stroke-width="12" stroke-linecap="round" stroke-linejoin="round"/>
<path d="M139.141 129.852H141.933V132.809C141.933 134.232 141.824 135.614 141.591 136.942C141.372 138.269 141.002 139.501 140.496 140.65C139.99 141.8 139.347 142.799 138.566 143.661C137.786 144.523 136.828 145.208 135.692 145.714L133.667 142.895C134.639 142.471 135.473 141.909 136.171 141.211C136.856 140.5 137.431 139.706 137.868 138.803C138.306 137.9 138.635 136.942 138.84 135.915C139.045 134.889 139.141 133.849 139.141 132.795V129.839V129.852ZM139.839 129.852H142.604V132.809C142.604 133.821 142.699 134.807 142.877 135.778C143.069 136.75 143.37 137.667 143.794 138.529C144.219 139.391 144.766 140.158 145.45 140.815C146.121 141.485 146.942 142.019 147.9 142.416L145.902 145.18C144.821 144.701 143.89 144.044 143.11 143.196C142.33 142.361 141.7 141.403 141.221 140.308C140.742 139.227 140.387 138.036 140.168 136.764C139.949 135.477 139.825 134.163 139.825 132.795V129.839L139.839 129.852ZM148.612 128.197H152.06V149.97H148.612V128.197Z" fill="#35DE25" stroke="black" stroke-width="12" stroke-linecap="round" stroke-linejoin="round"/>
<path d="M162.804 129.401H166.43C166.43 131.344 166.047 133.069 165.281 134.574C164.514 136.079 163.378 137.366 161.887 138.42C160.395 139.46 158.575 140.267 156.426 140.828L155.03 138.201C156.782 137.763 158.233 137.188 159.382 136.476C160.532 135.765 161.38 134.944 161.955 134.04C162.516 133.123 162.804 132.152 162.804 131.139V129.415V129.401ZM156.152 129.401H164.884V132.097H156.152V129.401ZM157.945 141.663H172.507V149.929H169.085V144.345H157.945V141.663ZM169.085 128.21H172.507V140.774H169.085V128.21ZM171.576 133.137H175.299V135.956H171.576V133.137Z" fill="#35DE25" stroke="black" stroke-width="12" stroke-linecap="round" stroke-linejoin="round"/>
<path d="M176.872 143.182L176.476 140.582C177.735 140.582 179.117 140.568 180.622 140.541C182.141 140.514 183.688 140.445 185.262 140.336C186.849 140.226 188.355 140.076 189.805 139.87L190.065 142.197C188.574 142.471 187.055 142.69 185.481 142.826C183.907 142.963 182.388 143.059 180.923 143.1C179.445 143.141 178.104 143.182 176.872 143.196V143.182ZM177.037 129.88H189.299V132.316H177.037V129.88ZM183.182 132.781C184.796 132.781 186.083 133.082 187.068 133.684C188.04 134.287 188.533 135.108 188.533 136.148C188.533 137.188 188.04 138.009 187.068 138.598C186.097 139.2 184.796 139.487 183.182 139.487C181.567 139.487 180.28 139.186 179.295 138.598C178.323 137.995 177.83 137.188 177.83 136.148C177.83 135.108 178.323 134.287 179.295 133.684C180.266 133.082 181.567 132.781 183.182 132.781ZM179.432 144.086H182.88V147.644H179.432V144.086ZM179.432 146.85H194.814V149.573H179.432V146.85ZM183.182 135.053C182.511 135.053 182.005 135.135 181.635 135.313C181.266 135.477 181.088 135.765 181.088 136.148C181.088 136.504 181.266 136.777 181.635 136.955C182.005 137.133 182.511 137.229 183.182 137.229C183.852 137.229 184.358 137.133 184.728 136.955C185.097 136.777 185.275 136.504 185.275 136.148C185.275 135.765 185.097 135.477 184.728 135.313C184.358 135.149 183.852 135.053 183.182 135.053ZM181.485 128.115H184.906V130.879H181.485V128.115ZM181.485 138.584H184.906V141.814H181.485V138.584ZM190.668 128.21H194.089V145.167H190.668V128.21ZM192.926 135.19H196.689V137.954H192.926V135.19Z" fill="#35DE25" stroke="black" stroke-width="12" stroke-linecap="round" stroke-linejoin="round"/>
<path d="M205.845 129.661H209.499C209.499 131.645 209.143 133.397 208.431 134.902C207.72 136.408 206.638 137.694 205.174 138.734C203.71 139.774 201.876 140.596 199.631 141.198L198.331 138.502C200.165 138.05 201.63 137.475 202.724 136.764C203.819 136.052 204.627 135.231 205.106 134.328C205.598 133.411 205.845 132.425 205.845 131.344V129.675V129.661ZM199.536 129.661H208.267V132.384H199.536V129.661ZM209.198 140.856C210.689 140.856 211.976 141.034 213.084 141.403C214.179 141.773 215.041 142.279 215.657 142.95C216.273 143.62 216.574 144.414 216.574 145.317C216.574 146.22 216.273 147.028 215.657 147.685C215.041 148.355 214.193 148.875 213.084 149.245C211.976 149.614 210.689 149.806 209.198 149.806C207.706 149.806 206.461 149.614 205.352 149.245C204.243 148.875 203.381 148.355 202.752 147.685C202.136 147.014 201.821 146.22 201.821 145.317C201.821 144.414 202.136 143.606 202.752 142.95C203.368 142.279 204.23 141.773 205.352 141.403C206.461 141.034 207.747 140.856 209.198 140.856ZM209.198 143.483C208.377 143.483 207.665 143.552 207.063 143.689C206.461 143.825 206.009 144.031 205.694 144.291C205.379 144.551 205.215 144.893 205.215 145.317C205.215 145.741 205.379 146.084 205.694 146.357C206.009 146.631 206.474 146.836 207.063 146.959C207.665 147.096 208.363 147.151 209.198 147.151C210.032 147.151 210.771 147.083 211.36 146.959C211.948 146.823 212.4 146.631 212.715 146.357C213.03 146.084 213.194 145.741 213.194 145.317C213.194 144.893 213.03 144.551 212.715 144.291C212.4 144.031 211.948 143.825 211.36 143.689C210.771 143.552 210.046 143.483 209.198 143.483ZM208.5 135.997H213.358V138.721H208.5V135.997ZM208.664 131.508H213.55V134.204H208.664V131.508ZM212.989 128.224H216.437V140.582H212.989V128.224Z" fill="#35DE25" stroke="black" stroke-width="12" stroke-linecap="round" stroke-linejoin="round"/>
<path d="M220.872 130.099H231.409V132.85H224.266V143.114H220.872V130.113V130.099ZM220.872 142.033H222.774C224.32 142.033 225.675 142.033 226.811 141.992C227.947 141.951 229.001 141.909 229.945 141.8C230.889 141.691 231.834 141.567 232.764 141.389L233.065 144.209C232.135 144.4 231.177 144.537 230.191 144.633C229.206 144.729 228.125 144.783 226.934 144.825C225.744 144.852 224.361 144.866 222.788 144.866H220.885V142.033H220.872ZM234.229 128.21H237.677V149.984H234.229V128.21Z" fill="#35DE25" stroke="black" stroke-width="12" stroke-linecap="round" stroke-linejoin="round"/>
<path d="M245.711 131.727H248.407V133.862C248.407 135.108 248.284 136.339 248.051 137.557C247.818 138.775 247.449 139.939 246.956 141.006C246.463 142.087 245.848 143.045 245.095 143.88C244.342 144.715 243.453 145.372 242.413 145.851L240.483 143.155C241.414 142.717 242.207 142.156 242.864 141.471C243.521 140.787 244.069 140.021 244.479 139.172C244.903 138.324 245.204 137.448 245.41 136.545C245.615 135.641 245.711 134.738 245.711 133.862V131.727ZM241.331 130.263H253.293V133.082H241.331V130.263ZM246.45 131.727H249.146V133.862C249.146 134.683 249.242 135.518 249.433 136.367C249.625 137.215 249.926 138.036 250.337 138.83C250.747 139.624 251.281 140.349 251.938 141.006C252.595 141.663 253.388 142.197 254.305 142.607L252.417 145.303C251.377 144.838 250.487 144.209 249.734 143.401C248.982 142.594 248.366 141.677 247.873 140.65C247.38 139.624 247.025 138.529 246.792 137.366C246.559 136.203 246.45 135.026 246.45 133.849V131.714V131.727ZM254.62 128.238H258.069V149.915H254.62V128.238ZM257.316 136.353H261.08V139.172H257.316V136.353Z" fill="#35DE25" stroke="black" stroke-width="12" stroke-linecap="round" stroke-linejoin="round"/>
<path d="M268.634 129.565C269.756 129.565 270.755 129.798 271.659 130.277C272.562 130.756 273.274 131.399 273.794 132.247C274.327 133.082 274.587 134.04 274.587 135.135C274.587 136.23 274.327 137.133 273.794 137.968C273.274 138.803 272.548 139.46 271.659 139.939C270.755 140.418 269.756 140.664 268.634 140.664C267.512 140.664 266.513 140.418 265.61 139.939C264.706 139.46 263.995 138.803 263.475 137.968C262.941 137.133 262.681 136.189 262.681 135.135C262.681 134.081 262.941 133.082 263.475 132.247C263.995 131.413 264.72 130.756 265.61 130.277C266.513 129.798 267.512 129.565 268.634 129.565ZM265.911 142.197H269.332V147.986H265.911V142.197ZM265.911 146.85H281.006V149.573H265.911V146.85ZM268.634 132.521C268.141 132.521 267.69 132.617 267.293 132.822C266.896 133.028 266.581 133.315 266.362 133.698C266.143 134.081 266.02 134.56 266.02 135.135C266.02 135.71 266.13 136.161 266.362 136.545C266.581 136.928 266.896 137.215 267.293 137.407C267.69 137.598 268.128 137.694 268.634 137.694C269.14 137.694 269.578 137.598 269.975 137.407C270.372 137.215 270.687 136.928 270.906 136.545C271.125 136.161 271.248 135.696 271.248 135.135C271.248 134.574 271.139 134.081 270.906 133.698C270.673 133.315 270.372 133.028 269.975 132.822C269.578 132.617 269.127 132.521 268.634 132.521ZM277.051 128.238H280.5V143.757H277.051V128.238Z" fill="#35DE25" stroke="black" stroke-width="12" stroke-linecap="round" stroke-linejoin="round"/>
<path d="M66.1836 99.8811H70.3714L73.9023 113.649L77.3784 99.8811H81.3198L75.9277 119.041H71.9042L66.1836 99.8811Z" fill="#35DE25"/>
<path d="M82.9622 99.8811H86.7667V103.795H82.9622V99.8811ZM82.9895 105.629H86.7667V119.041H82.9895V105.629Z" fill="#35DE25"/>
<path d="M88.9016 116.071C88.7922 115.797 88.71 115.496 88.6279 115.223L91.8851 114.703C91.9125 114.976 91.9946 115.223 92.0767 115.414C92.4873 116.536 93.1989 117.002 93.9927 117.002C94.8959 117.002 95.4433 116.345 95.4433 115.524C95.4433 114.703 95.0601 114.319 94.0474 113.881L92.0493 113.006C90.106 112.184 89.2301 110.953 89.2575 109.201C89.2848 107.039 91.1461 105.287 93.9927 105.287C96.0181 105.287 97.7425 106.354 98.5636 108.024C98.6731 108.243 98.7552 108.462 98.8647 108.736L95.8813 109.338C95.8265 109.119 95.7992 108.927 95.6897 108.736C95.3338 107.997 94.7043 107.613 94.0474 107.613C93.281 107.613 92.6515 108.106 92.6515 108.872C92.6515 109.365 92.8431 109.776 93.9106 110.159L95.8265 110.925C98.5363 111.965 99.1111 113.526 99.0837 115.086C99.0563 117.33 97.0582 119.438 93.9653 119.438C91.8851 119.438 89.8049 118.288 88.9016 116.071Z" fill="#35DE25"/>
<path d="M101.082 115.031V105.643H104.886V114.702C104.886 115.797 105.242 116.728 106.091 116.728C106.994 116.728 107.596 115.715 107.596 113.772V105.643H111.401V119.054H107.651V116.509C106.775 118.671 105.571 119.355 104.284 119.355C102.04 119.355 101.082 117.44 101.082 115.031Z" fill="#35DE25"/>
<path d="M113.618 115.633C113.618 113.608 114.466 112.048 117.669 110.925L120.023 110.104V109.584C120.023 108.352 119.585 107.75 118.709 107.75C117.833 107.75 117.368 108.407 117.313 109.393H113.672C114.275 106.957 116.273 105.287 119.092 105.287C121.911 105.287 123.8 106.874 123.8 109.803V115.743C123.8 116.536 124.101 116.728 124.484 116.728C124.621 116.728 124.703 116.701 124.758 116.701V119.027C124.457 119.164 123.8 119.273 123.143 119.273C121.364 119.273 120.214 118.48 120.077 116.701C119.393 118.37 118.298 119.328 116.847 119.328C114.986 119.328 113.618 117.85 113.618 115.633ZM118.462 116.81C119.338 116.81 120.05 115.797 120.05 114.292V111.719L118.873 112.321C117.586 112.978 117.203 113.854 117.203 114.976C117.203 116.181 117.833 116.81 118.462 116.81Z" fill="#35DE25"/>
<path d="M126.838 99.8811H130.642V119.041H126.838V99.8811Z" fill="#35DE25"/>
<path d="M138.854 99.8811H150.405V102.837H142.96V107.189H148.625V110.063H142.96V116.085H150.979V119.041H138.854V99.8811Z" fill="#35DE25"/>
<path d="M152.95 105.629H156.672V108.229C157.521 106.012 158.753 105.328 160.066 105.328C162.283 105.328 163.269 107.244 163.269 109.653V119.041H159.464V109.981C159.464 108.886 159.108 107.956 158.233 107.956C157.357 107.956 156.727 108.968 156.727 110.912V119.041H152.95V105.629Z" fill="#35DE25"/>
<path d="M164.528 105.629H168.251L170.44 113.703L172.63 105.629H176.106L171.754 119.041H169.017L164.528 105.629Z" fill="#35DE25"/>
<path d="M177.776 99.8811H181.58V103.795H177.776V99.8811ZM177.803 105.629H181.58V119.041H177.803V105.629Z" fill="#35DE25"/>
<path d="M184.482 105.629H188.095V109.434C189.053 106.587 190.449 105.574 192.173 105.465L192.146 109.598C189.874 109.324 188.259 110.419 188.259 112.609V119.041H184.482V105.629Z" fill="#35DE25"/>
<path d="M193.104 112.349C193.104 108.27 195.54 105.287 198.824 105.287C202.109 105.287 204.49 108.243 204.517 112.349C204.517 116.427 202.054 119.438 198.824 119.438C195.594 119.438 193.104 116.454 193.104 112.349ZM198.824 116.892C199.864 116.892 200.494 115.387 200.494 112.349C200.494 109.31 199.864 107.778 198.824 107.778C197.729 107.778 197.127 109.256 197.127 112.349C197.127 115.442 197.729 116.892 198.824 116.892Z" fill="#35DE25"/>
<path d="M206.707 105.629H210.43V108.229C211.278 106.012 212.51 105.328 213.824 105.328C216.041 105.328 217.026 107.244 217.026 109.653V119.041H213.221V109.981C213.221 108.886 212.866 107.956 211.99 107.956C211.114 107.956 210.484 108.968 210.484 110.912V119.041H206.707V105.629Z" fill="#35DE25"/>
<path d="M219.79 105.629H223.485V108.339C224.252 106.204 225.456 105.328 226.743 105.328C228.44 105.328 229.288 106.587 229.562 108.311C230.383 106.204 231.587 105.328 232.874 105.328C235.063 105.328 236.021 107.244 236.021 109.707V119.041H232.217V110.2C232.217 109.132 231.97 108.065 231.122 108.065C230.219 108.065 229.726 109.132 229.726 110.994V119.041H226.058V110.2C226.058 109.023 225.73 108.065 224.963 108.065C224.115 108.065 223.567 109.132 223.567 110.994V119.041H219.79V105.629Z" fill="#35DE25"/>
<path d="M238.102 112.376V112.349C238.102 108.462 240.455 105.287 243.795 105.287C247.38 105.287 249.105 108.927 249.105 112.54V112.595H242.098V112.814C242.098 115.414 242.727 116.974 243.795 116.974C244.561 116.974 245.054 116.372 245.41 115.113C245.492 114.922 245.547 114.675 245.574 114.401L248.913 114.648C248.831 114.949 248.749 115.305 248.612 115.606C247.764 118.014 245.984 119.438 243.849 119.438C240.565 119.438 238.102 116.317 238.102 112.376ZM245.355 110.816C245.273 108.626 244.753 107.613 243.795 107.613C242.837 107.613 242.207 108.818 242.125 110.816H245.355Z" fill="#35DE25"/>
<path d="M251.267 105.629H254.99V108.229C255.838 106.012 257.07 105.328 258.384 105.328C260.601 105.328 261.586 107.244 261.586 109.653V119.041H257.781V109.981C257.781 108.886 257.426 107.956 256.55 107.956C255.674 107.956 255.044 108.968 255.044 110.912V119.041H251.267V105.629Z" fill="#35DE25"/>
<path d="M265.965 118.452C265.336 117.878 264.98 117.056 264.98 115.88V108.079H263.256V105.643H265.007L265.226 101.126H268.785V105.643H270.947V108.079H268.785V115.168C268.785 115.661 268.894 115.989 269.086 116.181C269.305 116.4 269.606 116.482 269.962 116.482C270.372 116.482 270.701 116.4 270.947 116.263V118.945C270.126 119.191 269.578 119.328 268.702 119.328C267.58 119.328 266.622 119.055 265.965 118.452Z" fill="#35DE25"/>
<path d="M278.419 99.8811H284.413C289.231 99.8811 292.187 103.494 292.187 109.324V109.352C292.159 115.373 289.121 119.041 284.112 119.041H278.419V99.8811ZM283.702 116.112C286.685 116.112 287.78 113.621 287.78 109.352V109.297C287.78 105.054 286.576 102.81 283.976 102.81H282.525V116.112H283.702Z" fill="#35DE25"/>
<path d="M293.829 112.376V112.349C293.829 108.462 296.183 105.287 299.522 105.287C303.108 105.287 304.832 108.927 304.832 112.54V112.595H297.825V112.814C297.825 115.414 298.455 116.974 299.522 116.974C300.289 116.974 300.781 116.372 301.137 115.113C301.219 114.922 301.274 114.675 301.301 114.401L304.641 114.648C304.559 114.949 304.476 115.305 304.34 115.606C303.491 118.014 301.712 119.438 299.577 119.438C296.292 119.438 293.829 116.317 293.829 112.376ZM301.082 110.816C301 108.626 300.48 107.613 299.522 107.613C298.564 107.613 297.935 108.818 297.853 110.816H301.082Z" fill="#35DE25"/>
<path d="M306.228 116.071C306.119 115.797 306.037 115.496 305.955 115.223L309.212 114.703C309.239 114.976 309.321 115.223 309.403 115.414C309.814 116.536 310.526 117.002 311.319 117.002C312.223 117.002 312.77 116.345 312.77 115.524C312.77 114.703 312.387 114.319 311.374 113.881L309.376 113.006C307.433 112.184 306.557 110.953 306.584 109.201C306.612 107.039 308.473 105.287 311.319 105.287C313.345 105.287 315.069 106.354 315.89 108.024C316 108.243 316.082 108.462 316.191 108.736L313.208 109.338C313.153 109.119 313.126 108.927 313.016 108.736C312.661 107.997 312.031 107.613 311.374 107.613C310.608 107.613 309.978 108.106 309.978 108.872C309.978 109.365 310.17 109.776 311.237 110.159L313.153 110.925C315.863 111.965 316.438 113.526 316.41 115.086C316.383 117.33 314.385 119.438 311.292 119.438C309.212 119.438 307.132 118.288 306.228 116.071Z" fill="#35DE25"/>
<path d="M318.491 99.8811H322.295V103.795H318.491V99.8811ZM318.518 105.629H322.295V119.041H318.518V105.629Z" fill="#35DE25"/>
<path d="M324.403 121.354L326.155 119.711C327.304 120.916 328.207 121.436 329.357 121.436C330.808 121.436 331.711 120.697 331.711 118.124V116.454C331.027 118.179 329.822 119.356 328.399 119.356C326.155 119.356 324.594 116.646 324.594 112.376C324.594 108.106 326.264 105.287 328.563 105.287C330.014 105.287 331.218 106.491 331.82 108.435V105.643H335.543V118.644C335.543 122.531 332.751 123.954 329.74 123.954C327.852 123.954 325.662 123.051 324.403 121.354ZM330.123 116.755C331.246 116.755 331.848 115.25 331.848 112.376C331.848 109.502 331.246 107.942 330.151 107.942C329.056 107.942 328.509 109.502 328.509 112.376C328.509 115.25 329.056 116.755 330.123 116.755Z" fill="#35DE25"/>
<path d="M338.417 105.629H342.139V108.229C342.988 106.012 344.219 105.328 345.533 105.328C347.75 105.328 348.736 107.244 348.736 109.653V119.041H344.931V109.981C344.931 108.886 344.575 107.956 343.699 107.956C342.823 107.956 342.194 108.968 342.194 110.912V119.041H338.417V105.629Z" fill="#35DE25"/>
<path d="M139.141 129.852H141.933V132.809C141.933 134.232 141.824 135.614 141.591 136.942C141.372 138.269 141.002 139.501 140.496 140.65C139.99 141.8 139.347 142.799 138.566 143.661C137.786 144.523 136.828 145.208 135.692 145.714L133.667 142.895C134.639 142.471 135.473 141.909 136.171 141.211C136.856 140.5 137.431 139.706 137.868 138.803C138.306 137.9 138.635 136.942 138.84 135.915C139.045 134.889 139.141 133.849 139.141 132.795V129.839V129.852ZM139.839 129.852H142.604V132.809C142.604 133.821 142.699 134.807 142.877 135.778C143.069 136.75 143.37 137.667 143.794 138.529C144.219 139.391 144.766 140.158 145.45 140.815C146.121 141.485 146.942 142.019 147.9 142.416L145.902 145.18C144.821 144.701 143.89 144.044 143.11 143.196C142.33 142.361 141.7 141.403 141.221 140.308C140.742 139.227 140.387 138.036 140.168 136.764C139.949 135.477 139.825 134.163 139.825 132.795V129.839L139.839 129.852ZM148.612 128.197H152.06V149.97H148.612V128.197Z" fill="#35DE25"/>
<path d="M162.804 129.415H166.43C166.43 131.358 166.047 133.082 165.281 134.588C164.514 136.093 163.378 137.38 161.887 138.433C160.395 139.473 158.575 140.281 156.426 140.842L155.03 138.214C156.782 137.776 158.233 137.202 159.382 136.49C160.532 135.778 161.38 134.957 161.955 134.054C162.516 133.137 162.804 132.165 162.804 131.153V129.428V129.415ZM156.152 129.415H164.884V132.111H156.152V129.415ZM157.945 141.677H172.507V149.943H169.085V144.359H157.945V141.677ZM169.085 128.224H172.507V140.787H169.085V128.224ZM171.576 133.151H175.299V135.97H171.576V133.151Z" fill="#35DE25"/>
<path d="M176.872 143.182L176.476 140.582C177.735 140.582 179.117 140.568 180.622 140.541C182.141 140.514 183.688 140.445 185.262 140.336C186.849 140.226 188.355 140.076 189.805 139.87L190.065 142.197C188.574 142.471 187.055 142.69 185.481 142.826C183.907 142.963 182.388 143.059 180.923 143.1C179.445 143.141 178.104 143.182 176.872 143.196V143.182ZM177.037 129.88H189.299V132.316H177.037V129.88ZM183.182 132.781C184.796 132.781 186.083 133.082 187.068 133.684C188.04 134.287 188.533 135.108 188.533 136.148C188.533 137.188 188.04 138.009 187.068 138.598C186.097 139.2 184.796 139.487 183.182 139.487C181.567 139.487 180.28 139.186 179.295 138.598C178.323 137.995 177.83 137.188 177.83 136.148C177.83 135.108 178.323 134.287 179.295 133.684C180.266 133.082 181.567 132.781 183.182 132.781ZM179.432 144.086H182.88V147.644H179.432V144.086ZM179.432 146.85H194.814V149.573H179.432V146.85ZM183.182 135.053C182.511 135.053 182.005 135.135 181.635 135.313C181.266 135.477 181.088 135.765 181.088 136.148C181.088 136.504 181.266 136.777 181.635 136.955C182.005 137.133 182.511 137.229 183.182 137.229C183.852 137.229 184.358 137.133 184.728 136.955C185.097 136.777 185.275 136.504 185.275 136.148C185.275 135.765 185.097 135.477 184.728 135.313C184.358 135.149 183.852 135.053 183.182 135.053ZM181.485 128.115H184.906V130.879H181.485V128.115ZM181.485 138.584H184.906V141.814H181.485V138.584ZM190.668 128.21H194.089V145.167H190.668V128.21ZM192.926 135.19H196.689V137.954H192.926V135.19Z" fill="#35DE25"/>
<path d="M205.845 129.661H209.499C209.499 131.645 209.143 133.397 208.431 134.902C207.72 136.408 206.638 137.694 205.174 138.734C203.71 139.774 201.876 140.596 199.631 141.198L198.331 138.502C200.165 138.05 201.63 137.475 202.724 136.764C203.819 136.052 204.627 135.231 205.106 134.328C205.598 133.411 205.845 132.425 205.845 131.344V129.675V129.661ZM199.536 129.661H208.267V132.384H199.536V129.661ZM209.198 140.856C210.689 140.856 211.976 141.034 213.084 141.403C214.179 141.773 215.041 142.279 215.657 142.95C216.273 143.62 216.574 144.414 216.574 145.317C216.574 146.22 216.273 147.028 215.657 147.685C215.041 148.355 214.193 148.875 213.084 149.245C211.976 149.614 210.689 149.806 209.198 149.806C207.706 149.806 206.461 149.614 205.352 149.245C204.243 148.875 203.381 148.355 202.752 147.685C202.136 147.014 201.821 146.22 201.821 145.317C201.821 144.414 202.136 143.606 202.752 142.95C203.368 142.279 204.23 141.773 205.352 141.403C206.461 141.034 207.747 140.856 209.198 140.856ZM209.198 143.483C208.377 143.483 207.665 143.552 207.063 143.689C206.461 143.825 206.009 144.031 205.694 144.291C205.379 144.551 205.215 144.893 205.215 145.317C205.215 145.741 205.379 146.084 205.694 146.357C206.009 146.631 206.474 146.836 207.063 146.959C207.665 147.096 208.363 147.151 209.198 147.151C210.032 147.151 210.771 147.083 211.36 146.959C211.948 146.823 212.4 146.631 212.715 146.357C213.03 146.084 213.194 145.741 213.194 145.317C213.194 144.893 213.03 144.551 212.715 144.291C212.4 144.031 211.948 143.825 211.36 143.689C210.771 143.552 210.046 143.483 209.198 143.483ZM208.5 135.997H213.358V138.721H208.5V135.997ZM208.664 131.508H213.55V134.204H208.664V131.508ZM212.989 128.224H216.437V140.582H212.989V128.224Z" fill="#35DE25"/>
<path d="M220.872 130.112H231.409V132.863H224.266V143.127H220.872V130.126V130.112ZM220.872 142.046H222.774C224.32 142.046 225.675 142.046 226.811 142.005C227.947 141.964 229.001 141.923 229.945 141.814C230.889 141.704 231.834 141.581 232.764 141.403L233.065 144.222C232.135 144.414 231.177 144.551 230.191 144.647C229.206 144.742 228.125 144.797 226.934 144.838C225.744 144.866 224.361 144.879 222.788 144.879H220.885V142.046H220.872ZM234.229 128.224H237.677V149.998H234.229V128.224Z" fill="#35DE25"/>
<path d="M245.711 131.741H248.407V133.876C248.407 135.121 248.284 136.353 248.051 137.571C247.818 138.789 247.449 139.952 246.956 141.02C246.463 142.101 245.848 143.059 245.095 143.894C244.342 144.729 243.453 145.386 242.413 145.865L240.483 143.169C241.414 142.731 242.207 142.169 242.864 141.485C243.521 140.801 244.069 140.035 244.479 139.186C244.903 138.338 245.204 137.462 245.41 136.558C245.615 135.655 245.711 134.752 245.711 133.876V131.741ZM241.331 130.277H253.293V133.096H241.331V130.277ZM246.45 131.741H249.146V133.876C249.146 134.697 249.242 135.532 249.433 136.38C249.625 137.229 249.926 138.05 250.337 138.844C250.747 139.638 251.281 140.363 251.938 141.02C252.595 141.677 253.388 142.21 254.305 142.621L252.417 145.317C251.377 144.852 250.487 144.222 249.734 143.415C248.982 142.607 248.366 141.69 247.873 140.664C247.38 139.638 247.025 138.543 246.792 137.38C246.559 136.216 246.45 135.039 246.45 133.862V131.727V131.741ZM254.62 128.251H258.069V149.929H254.62V128.251ZM257.316 136.367H261.08V139.186H257.316V136.367Z" fill="#35DE25"/>
<path d="M268.634 129.579C269.756 129.579 270.755 129.811 271.659 130.29C272.562 130.769 273.274 131.413 273.794 132.261C274.327 133.096 274.587 134.054 274.587 135.149C274.587 136.244 274.327 137.147 273.794 137.982C273.274 138.816 272.548 139.473 271.659 139.952C270.755 140.431 269.756 140.678 268.634 140.678C267.512 140.678 266.513 140.431 265.61 139.952C264.706 139.473 263.995 138.816 263.475 137.982C262.941 137.147 262.681 136.203 262.681 135.149C262.681 134.095 262.941 133.096 263.475 132.261C263.995 131.426 264.72 130.769 265.61 130.29C266.513 129.811 267.512 129.579 268.634 129.579ZM265.911 142.211H269.332V148H265.911V142.211ZM265.911 146.864H281.006V149.587H265.911V146.864ZM268.634 132.535C268.141 132.535 267.69 132.631 267.293 132.836C266.896 133.041 266.581 133.329 266.362 133.712C266.143 134.095 266.02 134.574 266.02 135.149C266.02 135.724 266.13 136.175 266.362 136.558C266.581 136.942 266.896 137.229 267.293 137.421C267.69 137.612 268.128 137.708 268.634 137.708C269.14 137.708 269.578 137.612 269.975 137.421C270.372 137.229 270.687 136.942 270.906 136.558C271.125 136.175 271.248 135.71 271.248 135.149C271.248 134.588 271.139 134.095 270.906 133.712C270.673 133.329 270.372 133.041 269.975 132.836C269.578 132.631 269.127 132.535 268.634 132.535ZM277.051 128.251H280.5V143.771H277.051V128.251Z" fill="#35DE25"/>
</g>
<defs>
<clipPath id="clip0_209_8534">
<rect width="416" height="416" fill="white"/>
</clipPath>
</defs>
</svg>
