<svg width="416" height="416" viewBox="0 0 416 416" fill="none" xmlns="http://www.w3.org/2000/svg">
<g clip-path="url(#clip0_209_8528)">
<path d="M416 92.3228V0H0V92.3228H8.53979C23.4297 92.3228 35.5003 104.393 35.5003 119.283V296.717C35.5003 311.607 23.4297 323.677 8.53979 323.677H0V416H416V323.677H407.46C392.57 323.677 380.5 311.607 380.5 296.717V119.283C380.5 104.393 392.57 92.3228 407.46 92.3228H416Z" fill="#FED302"/>
<path d="M138.744 24.4561H156.193V67.155H138.744V24.4561Z" fill="black"/>
<path d="M158.068 41.7957H179.363V54.3453H158.068V41.7957Z" fill="black"/>
<path d="M181.238 34.0632H204.134V47.0919H196.552V67.1549H181.238V34.0632Z" fill="black"/>
<path d="M240.743 47.133V67.1549H205.68V41.7956H217.422V34.0496H227.673C234.351 34.0496 240.756 40.4544 240.756 47.133H240.743ZM219.284 53.4831C219.284 55.618 221.049 57.3287 223.184 57.3287C225.319 57.3287 227.03 55.618 227.03 53.4831C227.03 51.3481 225.319 49.5827 223.184 49.5827C221.049 49.5827 219.284 51.2934 219.284 53.4831Z" fill="black"/>
<path d="M256.112 67.1549H242.878V34.0632H257.877V52.2103C257.877 54.2905 260.176 54.4547 260.655 52.6345L265.349 34.0632H281.252L269.989 76.7622H253.607L256.112 67.1549Z" fill="black"/>
<rect x="167.842" y="114.297" width="36.0396" height="23.6832" fill="black"/>
<path d="M149.022 114.963C148.968 114.689 148.913 114.415 148.885 114.114L152.608 113.676C152.608 113.868 152.635 114.059 152.663 114.251C152.936 116.003 153.949 116.906 155.071 116.906C156.385 116.906 157.316 115.62 157.316 113.813C157.288 112.007 156.358 110.857 154.77 110.857H153.511L153.484 108.202H154.223C155.975 108.202 157.015 106.943 157.015 105.301C157.015 103.658 156.139 102.728 155.017 102.728C153.894 102.728 153.073 103.631 152.854 105.136C152.827 105.328 152.827 105.492 152.827 105.656L149.214 105.218C149.214 105.136 149.214 105.027 149.269 104.808C149.652 102.18 151.896 99.8811 155.29 99.8811C158.684 99.8811 160.901 102.126 160.901 104.917C160.901 106.915 159.67 108.585 157.425 109.242C159.834 109.926 161.394 111.678 161.394 114.141C161.394 117.262 158.958 119.862 155.181 119.862C152.006 119.862 149.652 117.837 149.022 114.963Z" fill="#FED302" stroke="black" stroke-width="12" stroke-linecap="round" stroke-linejoin="round"/>
<path d="M164.159 100.278H170.153C174.97 100.278 177.926 103.891 177.926 109.721V109.748C177.899 115.77 174.861 119.438 169.852 119.438H164.159V100.278ZM169.441 116.509C172.425 116.509 173.52 114.018 173.52 109.748V109.694C173.52 105.451 172.315 103.207 169.715 103.207H168.264V116.509H169.441Z" fill="#FED302" stroke="black" stroke-width="12" stroke-linecap="round" stroke-linejoin="round"/>
<path d="M184.878 110.063C184.878 104.124 187.588 99.8811 192.542 99.8811C195.827 99.8811 198.126 101.824 198.92 104.343C199.029 104.562 199.084 104.863 199.139 104.999L195.115 105.711C195.088 105.547 194.978 105.218 194.924 105.027C194.54 103.823 193.719 102.974 192.542 102.974C190.462 102.974 189.313 105.574 189.313 109.954C189.313 113.84 190.407 116.66 192.488 116.687C194.102 116.687 195.389 114.963 195.389 111.514V111.486H192.132V108.585H199.248V119.451H196.949L196.237 116.468C195.471 118.384 193.938 119.862 191.612 119.862C187.834 119.862 184.878 116.003 184.878 110.063Z" fill="#FED302" stroke="black" stroke-width="12" stroke-linecap="round" stroke-linejoin="round"/>
<path d="M201.958 106.026H205.571V109.83C206.529 106.984 207.925 105.971 209.649 105.862L209.622 109.995C207.35 109.721 205.735 110.816 205.735 113.005V119.438H201.958V106.026Z" fill="#FED302" stroke="black" stroke-width="12" stroke-linecap="round" stroke-linejoin="round"/>
<path d="M210.662 116.03C210.662 114.005 211.511 112.445 214.713 111.322L217.067 110.501V109.981C217.067 108.749 216.629 108.147 215.753 108.147C214.877 108.147 214.412 108.804 214.357 109.79H210.717C211.319 107.353 213.317 105.684 216.136 105.684C218.956 105.684 220.844 107.271 220.844 110.2V116.14C220.844 116.933 221.145 117.125 221.528 117.125C221.665 117.125 221.747 117.098 221.802 117.098V119.424C221.501 119.561 220.844 119.67 220.187 119.67C218.408 119.67 217.259 118.877 217.122 117.098C216.437 118.767 215.343 119.725 213.892 119.725C212.031 119.725 210.662 118.247 210.662 116.03ZM215.507 117.207C216.383 117.207 217.094 116.194 217.094 114.689V112.116L215.917 112.718C214.631 113.375 214.248 114.251 214.248 115.373C214.248 116.578 214.877 117.207 215.507 117.207Z" fill="#FED302" stroke="black" stroke-width="12" stroke-linecap="round" stroke-linejoin="round"/>
<path d="M223.882 106.026H227.577V108.927C228.207 106.984 229.384 105.67 230.971 105.67C233.216 105.67 234.858 108.38 234.858 112.677C234.858 116.974 233.134 119.821 230.835 119.821C229.384 119.821 228.289 118.644 227.66 116.92V123.817H223.882V106.026ZM229.22 117.139C230.287 117.139 230.889 115.579 230.889 112.677C230.889 109.776 230.315 108.298 229.247 108.298C228.125 108.298 227.577 109.803 227.577 112.677C227.577 115.551 228.152 117.139 229.22 117.139Z" fill="#FED302" stroke="black" stroke-width="12" stroke-linecap="round" stroke-linejoin="round"/>
<path d="M237.157 100.278H240.935V108.434C241.811 106.382 243.015 105.725 244.274 105.725C246.518 105.725 247.476 107.668 247.476 110.049V119.438H243.672V110.378C243.672 109.228 243.261 108.352 242.44 108.352C241.537 108.352 240.935 109.365 240.935 111.308V119.438H237.157V100.278Z" fill="#FED302" stroke="black" stroke-width="12" stroke-linecap="round" stroke-linejoin="round"/>
<path d="M250.213 100.278H254.018V104.192H250.213V100.278ZM250.241 106.026H254.018V119.438H250.241V106.026Z" fill="#FED302" stroke="black" stroke-width="12" stroke-linecap="round" stroke-linejoin="round"/>
<path d="M256.235 112.746C256.235 108.667 258.644 105.684 261.956 105.684C264.556 105.684 266.308 107.436 267.129 110.118C267.184 110.31 267.238 110.446 267.293 110.665L263.543 111.158C263.516 110.884 263.461 110.665 263.434 110.446C263.187 108.941 262.722 108.175 261.928 108.175C260.888 108.175 260.231 109.653 260.231 112.746C260.231 115.839 260.888 117.289 261.928 117.289C262.695 117.289 263.215 116.441 263.488 114.798L263.571 114.251L267.184 114.716C267.129 114.99 267.047 115.236 266.992 115.483C266.143 118.165 264.282 119.835 261.956 119.835C258.644 119.835 256.235 116.824 256.235 112.746Z" fill="#FED302" stroke="black" stroke-width="12" stroke-linecap="round" stroke-linejoin="round"/>
<path d="M164.295 148.506C163.378 148.506 162.557 148.397 161.846 148.191C161.12 147.986 160.477 147.699 159.916 147.343C159.355 146.987 158.862 146.563 158.465 146.084L160.231 143.716C160.737 144.195 161.312 144.606 161.928 144.934C162.544 145.263 163.214 145.44 163.926 145.44C164.501 145.44 164.993 145.358 165.418 145.208C165.842 145.057 166.157 144.811 166.389 144.496C166.622 144.181 166.731 143.798 166.731 143.374C166.731 142.868 166.608 142.43 166.348 142.06C166.088 141.691 165.637 141.417 164.98 141.225C164.323 141.034 163.378 140.938 162.147 140.938V138.242C163.173 138.242 163.967 138.146 164.555 137.941C165.13 137.735 165.554 137.462 165.801 137.12C166.047 136.777 166.17 136.367 166.17 135.915C166.17 135.313 165.979 134.848 165.609 134.506C165.24 134.164 164.706 133.999 164.022 133.999C163.433 133.999 162.886 134.136 162.379 134.396C161.873 134.656 161.367 135.026 160.86 135.518L158.931 133.192C159.711 132.535 160.518 132.015 161.38 131.632C162.243 131.249 163.173 131.057 164.186 131.057C165.349 131.057 166.362 131.235 167.224 131.591C168.086 131.946 168.757 132.466 169.236 133.151C169.715 133.835 169.961 134.656 169.961 135.642C169.961 136.531 169.715 137.284 169.236 137.9C168.757 138.516 168.059 139.022 167.142 139.405V139.501C167.772 139.692 168.346 139.966 168.866 140.322C169.386 140.678 169.783 141.143 170.071 141.691C170.358 142.238 170.509 142.881 170.509 143.607C170.509 144.66 170.221 145.55 169.646 146.289C169.072 147.014 168.319 147.575 167.375 147.959C166.43 148.342 165.404 148.533 164.268 148.533L164.295 148.506Z" fill="#FED302" stroke="black" stroke-width="12" stroke-linecap="round" stroke-linejoin="round"/>
<path d="M173.889 148.191V130.906H178.734C180.499 130.906 182.032 131.207 183.318 131.823C184.605 132.439 185.604 133.37 186.302 134.629C187 135.888 187.356 137.503 187.356 139.473C187.356 141.444 187.013 143.073 186.302 144.373C185.604 145.673 184.618 146.631 183.359 147.261C182.1 147.89 180.622 148.205 178.925 148.205H173.875L173.889 148.191ZM177.68 145.126H178.487C179.486 145.126 180.349 144.948 181.101 144.578C181.854 144.209 182.429 143.62 182.839 142.785C183.25 141.95 183.455 140.856 183.455 139.473C183.455 138.091 183.25 136.983 182.839 136.175C182.429 135.381 181.84 134.807 181.101 134.465C180.349 134.122 179.473 133.958 178.487 133.958H177.68V145.126Z" fill="#FED302" stroke="black" stroke-width="12" stroke-linecap="round" stroke-linejoin="round"/>
<path d="M194.828 144.811H214.439V147.575H194.828V144.811ZM196.785 130.523H210.47V133.219H196.785V130.523ZM208.678 130.523H212.099V133.219C212.099 134.259 212.099 135.299 212.058 136.339C212.017 137.379 211.976 138.488 211.866 139.665C211.771 140.842 211.579 142.169 211.319 143.647L207.898 143.374C208.158 142.005 208.349 140.746 208.445 139.583C208.541 138.42 208.609 137.325 208.637 136.285C208.664 135.244 208.678 134.232 208.678 133.233V130.537V130.523Z" fill="#FED302" stroke="black" stroke-width="12" stroke-linecap="round" stroke-linejoin="round"/>
<path d="M216.739 130.674H224.977V139.282H220.064V143.839H216.766V136.586H221.679V133.397H216.752V130.674H216.739ZM216.766 142.84H218.299C219.585 142.84 220.817 142.813 221.98 142.758C223.157 142.703 224.389 142.58 225.689 142.402L225.949 145.153C224.594 145.372 223.321 145.509 222.103 145.577C220.885 145.646 219.612 145.673 218.299 145.673H216.766V142.854V142.84ZM226.811 128.977H229.972V149.313H226.811V128.977ZM228.946 136.723H232.395V139.446H228.946V136.723ZM231.628 128.621H234.886V150.299H231.628V128.621Z" fill="#FED302" stroke="black" stroke-width="12" stroke-linecap="round" stroke-linejoin="round"/>
<path d="M238.334 141.28L237.992 138.529C239.265 138.529 240.647 138.529 242.125 138.488C243.603 138.461 245.109 138.42 246.628 138.338C248.147 138.255 249.598 138.146 250.98 137.995L251.24 140.486C249.803 140.719 248.325 140.883 246.819 140.993C245.314 141.102 243.836 141.17 242.399 141.212C240.962 141.253 239.607 141.266 238.348 141.266L238.334 141.28ZM238.54 130.14H250.213V132.863H238.54V130.14ZM240.127 132.343H243.412V139.446H240.127V132.343ZM240.825 142.744H255.715V150.326H252.266V145.468H240.825V142.744ZM245.341 132.343H248.64V139.446H245.341V132.343ZM252.28 128.648H255.729V141.91H252.28V128.648Z" fill="#FED302" stroke="black" stroke-width="12" stroke-linecap="round" stroke-linejoin="round"/>
<path d="M149.022 114.963C148.968 114.689 148.913 114.415 148.885 114.114L152.608 113.676C152.608 113.868 152.635 114.059 152.663 114.251C152.936 116.003 153.949 116.906 155.071 116.906C156.385 116.906 157.316 115.62 157.316 113.813C157.288 112.007 156.358 110.857 154.77 110.857H153.511L153.484 108.202H154.223C155.975 108.202 157.015 106.943 157.015 105.301C157.015 103.658 156.139 102.728 155.017 102.728C153.894 102.728 153.073 103.631 152.854 105.136C152.827 105.328 152.827 105.492 152.827 105.656L149.214 105.218C149.214 105.136 149.214 105.027 149.269 104.808C149.652 102.18 151.896 99.8811 155.29 99.8811C158.684 99.8811 160.901 102.126 160.901 104.917C160.901 106.915 159.67 108.585 157.425 109.242C159.834 109.926 161.394 111.678 161.394 114.141C161.394 117.262 158.958 119.862 155.181 119.862C152.006 119.862 149.652 117.837 149.022 114.963Z" fill="#FED302"/>
<path d="M164.159 100.292H170.153C174.97 100.292 177.926 103.905 177.926 109.735V109.762C177.899 115.784 174.861 119.452 169.852 119.452H164.159V100.292ZM169.441 116.523C172.425 116.523 173.52 114.032 173.52 109.762V109.707C173.52 105.465 172.315 103.22 169.715 103.22H168.264V116.523H169.441Z" fill="#FED302"/>
<path d="M184.878 110.063C184.878 104.124 187.588 99.8811 192.542 99.8811C195.827 99.8811 198.126 101.824 198.92 104.343C199.029 104.562 199.084 104.863 199.139 104.999L195.115 105.711C195.088 105.547 194.978 105.218 194.924 105.027C194.54 103.823 193.719 102.974 192.542 102.974C190.462 102.974 189.313 105.574 189.313 109.954C189.313 113.84 190.407 116.66 192.488 116.687C194.102 116.687 195.389 114.963 195.389 111.514V111.486H192.132V108.585H199.248V119.451H196.949L196.237 116.468C195.471 118.384 193.938 119.862 191.612 119.862C187.834 119.862 184.878 116.003 184.878 110.063Z" fill="#FED302"/>
<path d="M201.958 106.039H205.571V109.844C206.529 106.997 207.925 105.985 209.649 105.875L209.622 110.008C207.35 109.735 205.735 110.829 205.735 113.019V119.451H201.958V106.039Z" fill="#FED302"/>
<path d="M210.662 116.03C210.662 114.005 211.511 112.445 214.713 111.322L217.067 110.501V109.981C217.067 108.749 216.629 108.147 215.753 108.147C214.877 108.147 214.412 108.804 214.357 109.79H210.717C211.319 107.353 213.317 105.684 216.136 105.684C218.956 105.684 220.844 107.271 220.844 110.2V116.14C220.844 116.933 221.145 117.125 221.528 117.125C221.665 117.125 221.747 117.098 221.802 117.098V119.424C221.501 119.561 220.844 119.67 220.187 119.67C218.408 119.67 217.259 118.877 217.122 117.098C216.437 118.767 215.343 119.725 213.892 119.725C212.031 119.725 210.662 118.247 210.662 116.03ZM215.507 117.207C216.383 117.207 217.094 116.194 217.094 114.689V112.116L215.917 112.718C214.631 113.375 214.248 114.251 214.248 115.373C214.248 116.578 214.877 117.207 215.507 117.207Z" fill="#FED302"/>
<path d="M223.882 106.04H227.577V108.941C228.207 106.998 229.384 105.684 230.971 105.684C233.216 105.684 234.858 108.394 234.858 112.691C234.858 116.988 233.134 119.835 230.835 119.835C229.384 119.835 228.289 118.658 227.66 116.933V123.831H223.882V106.04ZM229.22 117.152C230.287 117.152 230.889 115.592 230.889 112.691C230.889 109.79 230.315 108.311 229.247 108.311C228.125 108.311 227.577 109.817 227.577 112.691C227.577 115.565 228.152 117.152 229.22 117.152Z" fill="#FED302"/>
<path d="M237.157 100.292H240.935V108.448C241.811 106.395 243.015 105.739 244.274 105.739C246.518 105.739 247.476 107.682 247.476 110.063V119.452H243.672V110.392C243.672 109.242 243.261 108.366 242.44 108.366C241.537 108.366 240.935 109.379 240.935 111.322V119.452H237.157V100.292Z" fill="#FED302"/>
<path d="M250.213 100.292H254.018V104.206H250.213V100.292ZM250.241 106.04H254.018V119.452H250.241V106.04Z" fill="#FED302"/>
<path d="M256.235 112.746C256.235 108.667 258.644 105.684 261.956 105.684C264.556 105.684 266.308 107.436 267.129 110.118C267.184 110.31 267.238 110.446 267.293 110.665L263.543 111.158C263.516 110.884 263.461 110.665 263.434 110.446C263.187 108.941 262.722 108.175 261.928 108.175C260.888 108.175 260.231 109.653 260.231 112.746C260.231 115.839 260.888 117.289 261.928 117.289C262.695 117.289 263.215 116.441 263.488 114.798L263.571 114.251L267.184 114.716C267.129 114.99 267.047 115.236 266.992 115.483C266.143 118.165 264.282 119.835 261.956 119.835C258.644 119.835 256.235 116.824 256.235 112.746Z" fill="#FED302"/>
<path d="M164.295 148.52C163.378 148.52 162.557 148.41 161.846 148.205C161.134 148 160.477 147.712 159.916 147.356C159.355 147.001 158.862 146.576 158.465 146.097L160.231 143.73C160.737 144.209 161.312 144.619 161.928 144.948C162.544 145.276 163.214 145.454 163.926 145.454C164.501 145.454 164.993 145.372 165.418 145.221C165.842 145.071 166.157 144.825 166.389 144.51C166.622 144.195 166.731 143.812 166.731 143.388C166.731 142.881 166.608 142.443 166.348 142.074C166.088 141.704 165.637 141.431 164.98 141.239C164.323 141.047 163.378 140.952 162.147 140.952V138.255C163.173 138.255 163.967 138.16 164.555 137.954C165.13 137.749 165.554 137.475 165.801 137.133C166.047 136.791 166.17 136.381 166.17 135.929C166.17 135.327 165.979 134.848 165.609 134.519C165.24 134.191 164.706 134.013 164.022 134.013C163.433 134.013 162.886 134.15 162.379 134.41C161.873 134.67 161.367 135.039 160.86 135.532L158.931 133.206C159.711 132.549 160.518 132.029 161.38 131.645C162.243 131.262 163.173 131.071 164.186 131.071C165.349 131.071 166.362 131.248 167.224 131.604C168.086 131.96 168.757 132.48 169.236 133.164C169.715 133.849 169.961 134.684 169.961 135.655C169.961 136.545 169.715 137.297 169.236 137.913C168.757 138.529 168.059 139.036 167.142 139.419V139.515C167.772 139.706 168.346 139.98 168.866 140.336C169.373 140.705 169.783 141.157 170.071 141.704C170.358 142.252 170.509 142.895 170.509 143.62C170.509 144.674 170.221 145.564 169.646 146.303C169.072 147.028 168.319 147.589 167.375 147.959C166.43 148.342 165.404 148.533 164.268 148.533L164.295 148.52Z" fill="#FED302"/>
<path d="M173.889 148.191V130.906H178.734C180.499 130.906 182.032 131.207 183.318 131.823C184.605 132.439 185.604 133.37 186.302 134.629C187 135.888 187.356 137.503 187.356 139.473C187.356 141.444 187.013 143.073 186.302 144.373C185.604 145.673 184.618 146.631 183.359 147.261C182.1 147.89 180.622 148.205 178.925 148.205H173.875L173.889 148.191ZM177.68 145.126H178.487C179.486 145.126 180.349 144.948 181.101 144.578C181.854 144.209 182.429 143.62 182.839 142.785C183.25 141.95 183.455 140.856 183.455 139.473C183.455 138.091 183.25 136.983 182.839 136.175C182.429 135.368 181.84 134.807 181.101 134.465C180.349 134.122 179.473 133.958 178.487 133.958H177.68V145.126Z" fill="#FED302"/>
<path d="M194.828 144.825H214.439V147.589H194.828V144.825ZM196.785 130.537H210.47V133.233H196.785V130.537ZM208.678 130.537H212.099V133.233C212.099 134.273 212.099 135.313 212.058 136.353C212.031 137.393 211.976 138.502 211.866 139.679C211.771 140.856 211.579 142.183 211.319 143.661L207.898 143.388C208.158 142.019 208.349 140.76 208.445 139.597C208.541 138.433 208.609 137.339 208.637 136.298C208.664 135.258 208.678 134.246 208.678 133.247V130.551V130.537Z" fill="#FED302"/>
<path d="M216.739 130.674H224.977V139.282H220.064V143.839H216.766V136.586H221.679V133.397H216.752V130.674H216.739ZM216.766 142.84H218.299C219.585 142.84 220.817 142.813 221.98 142.758C223.157 142.703 224.389 142.58 225.689 142.402L225.949 145.153C224.594 145.372 223.321 145.509 222.103 145.577C220.885 145.646 219.612 145.673 218.299 145.673H216.766V142.854V142.84ZM226.811 128.977H229.972V149.313H226.811V128.977ZM228.946 136.723H232.395V139.446H228.946V136.723ZM231.628 128.621H234.886V150.299H231.628V128.621Z" fill="#FED302"/>
<path d="M238.334 141.28L237.992 138.529C239.265 138.529 240.647 138.529 242.125 138.488C243.603 138.461 245.109 138.42 246.628 138.338C248.147 138.255 249.598 138.146 250.98 137.995L251.24 140.486C249.803 140.719 248.325 140.883 246.819 140.993C245.314 141.102 243.836 141.17 242.399 141.212C240.962 141.253 239.607 141.266 238.348 141.266L238.334 141.28ZM238.54 130.14H250.213V132.863H238.54V130.14ZM240.127 132.343H243.412V139.446H240.127V132.343ZM240.825 142.744H255.715V150.326H252.266V145.468H240.825V142.744ZM245.341 132.343H248.64V139.446H245.341V132.343ZM252.28 128.648H255.729V141.91H252.28V128.648Z" fill="#FED302"/>
</g>
<defs>
<clipPath id="clip0_209_8528">
<rect width="416" height="416" fill="white"/>
</clipPath>
</defs>
</svg>
