<svg width="58" height="19" viewBox="0 0 58 19" fill="none" xmlns="http://www.w3.org/2000/svg">
<path fill-rule="evenodd" clip-rule="evenodd" d="M47.2647 17.9999C45.3902 17.9999 43.7672 16.6982 43.3601 14.8684L43.203 14.1622C43.7173 14.0928 44.1774 13.8421 44.5435 13.4404C44.7407 13.224 44.9106 12.9638 45.0471 12.6644C45.0913 12.5676 45.1319 12.4667 45.1688 12.3619C45.1831 12.3306 45.1961 12.298 45.2081 12.2648C45.2414 12.1724 45.2673 12.0746 45.2915 11.9832C45.2984 11.9571 45.3051 11.9316 45.3118 11.9069L43.7258 11.7899C43.7128 11.9199 43.6868 12.0369 43.6478 12.1279C43.4892 12.6892 43.2733 12.9756 42.9464 13.0086L42.4844 10.9319H45.4028V10.9059C45.4028 10.0324 45.1906 9.15549 44.7576 8.50502C44.6648 8.36556 44.5618 8.23652 44.4486 8.12014C44.3992 8.0694 44.3479 8.02108 44.2947 7.97535C43.9206 7.65406 43.4501 7.46088 42.8808 7.46088C42.5079 7.46088 42.1609 7.54426 41.8482 7.69578C41.833 6.77167 42.1386 5.86128 42.7273 5.12731C43.4864 4.1807 44.6343 3.62988 45.8477 3.62988H47.5247C47.7773 3.62988 48.0251 3.65347 48.2658 3.69871C48.5066 3.65346 48.7543 3.62988 49.0067 3.62988H50.4757C50.7393 3.62988 50.998 3.65563 51.2489 3.70496C51.4998 3.65565 51.7586 3.62988 52.0227 3.62988H53.6607C54.8687 3.62988 56.0119 4.17578 56.7714 5.11517C57.5308 6.05457 57.825 7.28684 57.5719 8.468L56.2069 14.838C55.8117 16.6823 54.1818 17.9999 52.2957 17.9999H50.6837C50.3696 17.9999 50.0626 17.9633 49.7672 17.8939C49.4718 17.9633 49.1648 17.9999 48.8507 17.9999H47.2647ZM45.8477 7.62988H47.5247L48.1877 11.7899L48.5401 9.99988L49.0067 7.62988H50.4757L51.3987 11.9069L52.0227 7.62988H53.6607L52.2957 13.9999H50.6837L49.7737 9.73588L48.8507 13.9999H47.2647L45.8477 7.62988ZM42.2965 10.0869L42.1586 9.46708C42.2759 8.8946 42.5261 8.56588 42.8808 8.56588C43.3358 8.56588 43.5828 9.04688 43.6218 10.0869H42.2965Z" fill="#0B0000"/>
<path fill-rule="evenodd" clip-rule="evenodd" d="M47.2656 13.9999H48.8257C47.9254 16.2289 45.8623 18.1819 42.9077 18.1819C38.378 18.1819 36.1777 14.0626 36.1777 10.8279V10.8149C36.1777 9.49937 36.5486 7.9783 37.3289 6.6621V6.75894H39.1359V4.89994H38.8027C39.8354 4.02833 41.1868 3.46094 42.8817 3.46094C45.3238 3.46094 47.1229 4.79233 48.1417 6.37008C48.481 6.89565 48.7402 7.44988 48.9327 8.0104L48.1886 11.7899L47.5256 7.62994H45.8486L47.2656 13.9999ZM48.8836 13.8521C48.8869 13.8434 48.8901 13.8347 48.8934 13.826C48.9909 13.5864 49.054 13.3813 49.091 13.2544C49.1159 13.1692 49.1361 13.0938 49.1487 13.0463L49.1558 13.0196C49.166 12.9809 49.1672 12.9763 49.1718 12.9594C49.2696 12.6007 49.3159 12.2343 49.3126 11.8702L48.8836 13.8521ZM39.1359 7.62994H37.3419V13.9999H39.1359V7.62994ZM45.0235 12.7171C45.0511 12.6592 45.0774 12.5997 45.1024 12.5388C45.1261 12.4811 45.1485 12.4222 45.1697 12.3619C45.2235 12.2437 45.2595 12.1076 45.2924 11.9832C45.2955 11.9712 45.2987 11.9592 45.3018 11.9474C45.3055 11.9337 45.3091 11.9202 45.3127 11.9069L43.7267 11.7899C43.7267 11.79 43.7267 11.7899 43.7267 11.7899C43.7247 11.8106 43.7223 11.8311 43.7195 11.8511C43.7051 11.9566 43.6815 12.0514 43.6487 12.1279C43.6402 12.158 43.6316 12.1873 43.6227 12.2158C43.5891 12.3244 43.5529 12.4216 43.5137 12.5076C43.3638 12.8368 43.1704 13.0013 42.9077 13.0114C42.8991 13.0118 42.8905 13.0119 42.8817 13.0119C42.6355 13.0119 42.4383 12.8371 42.3006 12.5157C42.2094 12.3029 42.1443 12.0258 42.1083 11.6926C42.106 11.6711 42.1038 11.6494 42.1017 11.6274C42.0967 11.5738 42.0923 11.5189 42.0887 11.4626C42.0887 11.4615 42.0886 11.4604 42.0885 11.4593C42.0847 11.3988 42.0817 11.3369 42.0796 11.2734C42.0795 11.2709 42.0794 11.2685 42.0794 11.2661C42.077 11.1914 42.0757 11.1147 42.0757 11.0359V10.9319H45.4037V10.9059C45.4037 10.8432 45.4026 10.7805 45.4004 10.7179C45.3946 10.5514 45.3811 10.3853 45.3597 10.2214C45.351 10.1548 45.3411 10.0887 45.3298 10.0229C45.3289 10.0175 45.3279 10.0121 45.327 10.0066C45.1659 9.08359 44.75 8.25079 44.0683 7.80427C43.9307 7.7141 43.7822 7.63969 43.6227 7.58346C43.3976 7.50407 43.1507 7.46094 42.8817 7.46094C42.6016 7.46094 42.3361 7.50798 42.0887 7.59562C42.0844 7.59716 42.0801 7.59871 42.0757 7.60027C41.2307 7.90534 40.5997 8.68539 40.3267 9.68135C40.2972 9.78896 40.2719 9.89909 40.2509 10.0114C40.2384 10.0784 40.2275 10.1461 40.2181 10.2146C40.2139 10.2453 40.2101 10.2761 40.2065 10.3071C40.1939 10.417 40.1854 10.5287 40.181 10.6418C40.1788 10.6991 40.1777 10.7569 40.1777 10.8149V10.8279C40.1777 10.8627 40.1781 10.8974 40.1789 10.9319C40.1798 10.9668 40.181 11.0014 40.1826 11.0359C40.1844 11.0743 40.1867 11.1124 40.1894 11.1503C40.1931 11.1995 40.1975 11.2484 40.2027 11.2969C40.2079 11.3448 40.2138 11.3922 40.2205 11.4393C40.3968 12.6802 41.1046 13.6698 42.0757 14.0325C42.0801 14.0342 42.0844 14.0358 42.0887 14.0374C42.1383 14.0555 42.1884 14.0721 42.2393 14.0869C42.4438 14.1467 42.6587 14.1794 42.8817 14.1818C42.8904 14.1819 42.8991 14.1819 42.9077 14.1819C43.1297 14.1819 43.3436 14.1495 43.5465 14.0869C43.5502 14.0858 43.5539 14.0847 43.5575 14.0835C43.5794 14.0766 43.6011 14.0694 43.6227 14.0618C44.2124 13.855 44.7038 13.3881 45.0235 12.7171ZM43.4611 9.05992C43.5523 9.30581 43.6062 9.64617 43.6227 10.0869H42.0887C42.106 9.66754 42.1714 9.32176 42.2796 9.06646C42.4161 8.74407 42.6206 8.56594 42.8817 8.56594C43.1439 8.56594 43.337 8.72562 43.4611 9.05992Z" fill="#0B0000"/>
<path fill-rule="evenodd" clip-rule="evenodd" d="M37.3411 17.9999C35.132 17.9999 33.3411 16.209 33.3411 13.9999H33.9828L36.5438 4.8999H34.6718L33.3411 10.1701V7.6299C33.3411 7.50328 33.347 7.37803 33.3585 7.25442C33.3385 7.09206 33.3281 6.92669 33.3281 6.7589V4.8999C33.3281 2.69076 35.119 0.899902 37.3281 0.899902H39.1351C41.3443 0.899902 43.1351 2.69076 43.1351 4.8999V6.7589C43.1351 6.90606 43.1272 7.05135 43.1117 7.19439C43.1217 7.28666 43.1285 7.37986 43.1321 7.4739C43.1124 7.47182 43.0924 7.46998 43.0724 7.46839C43.0099 7.46343 42.9461 7.4609 42.881 7.4609C42.5662 7.4609 42.2699 7.52028 41.9972 7.6299C41.7595 7.7254 41.5397 7.85902 41.3411 8.02472C40.6594 8.59353 40.2275 9.54036 40.1811 10.6208C40.1783 10.685 40.177 10.7497 40.177 10.8149V10.8279C40.177 11.989 40.627 13 41.3411 13.6005C41.5392 13.7671 41.7576 13.9021 41.9924 13.9999C42.2758 14.118 42.583 14.1819 42.907 14.1819C42.9828 14.1819 43.0577 14.1781 43.1315 14.1706C43.0421 16.3006 41.2871 17.9999 39.1351 17.9999H37.3411ZM43.1351 12.9557V10.9319H42.075V11.0359C42.075 12.2709 42.374 13.0119 42.881 13.0119C42.9738 13.0119 43.0581 12.9933 43.1351 12.9557ZM43.1351 8.62753V10.0869H42.088C42.0996 9.8046 42.133 9.55567 42.1866 9.34523C42.2866 8.95267 42.4567 8.69405 42.6858 8.60269C42.7467 8.57838 42.8119 8.5659 42.881 8.5659C42.9745 8.5659 43.0592 8.58622 43.1351 8.62753ZM37.3281 4.8999V6.7589H39.1351V4.8999H37.3281ZM39.1351 7.6299H37.3411V13.9999H39.1351V7.6299Z" fill="#0B0000"/>
<path fill-rule="evenodd" clip-rule="evenodd" d="M32.0725 17.9999C30.3041 17.9999 28.7456 16.8387 28.2397 15.1443L26.7658 10.2077C26.6997 9.36035 26.4848 8.67444 26.1663 8.19996L25.5227 6.04427C25.1612 4.83358 25.393 3.52328 26.1479 2.51008C26.9028 1.49687 28.092 0.899902 29.3555 0.899902H31.3445C31.9334 0.899902 32.4983 1.02854 33.0085 1.26217C33.5187 1.02856 34.0835 0.899902 34.6725 0.899902H36.5445C37.7969 0.899902 38.977 1.48646 39.7331 2.48479C40.4893 3.48312 40.7342 4.77798 40.3949 5.98352L39.1359 10.4573V7.6299H37.3419V13.9999H38.1389L37.8339 15.0835C37.3485 16.8083 35.7753 17.9999 33.9835 17.9999H32.0725ZM39.1359 6.7589V4.8999H37.3289V6.7589H39.1359ZM32.0725 13.9999H33.9835L36.5445 4.8999H34.6725L33.0215 11.4389L31.3445 4.8999H29.3555L32.0725 13.9999Z" fill="#0B0000"/>
<path fill-rule="evenodd" clip-rule="evenodd" d="M26.7514 11.5049C26.7688 11.3339 26.7801 11.1561 26.7848 10.972C26.785 10.9623 26.7852 10.9526 26.7854 10.9429C26.7866 10.8878 26.7872 10.8321 26.7872 10.7759C26.7872 10.7577 26.7872 10.7396 26.787 10.7215C26.7869 10.7057 26.7868 10.69 26.7866 10.6743C26.784 10.4802 26.7743 10.2931 26.7577 10.1136C26.7564 10.0992 26.755 10.0849 26.7536 10.0706C26.7098 9.62818 26.6243 9.2324 26.5041 8.8909C26.2908 8.28502 25.968 7.85 25.5742 7.62827C25.3791 7.51841 25.1666 7.4609 24.9412 7.4609C24.6374 7.4609 24.3617 7.56419 24.1222 7.74882C23.8437 7.96348 23.6141 8.28809 23.446 8.68817C23.4184 8.75377 23.3924 8.8214 23.3682 8.8909V4.8999H21.5742V13.9999H23.3292V12.6869C23.3528 12.7567 23.378 12.8249 23.4047 12.8911C23.5794 13.3255 23.8185 13.6795 24.1092 13.9061C24.1531 13.9403 24.1981 13.9717 24.2443 13.9999C24.4364 14.1174 24.6481 14.1819 24.8762 14.1819C25.1135 14.1819 25.3379 14.1193 25.5439 13.9999C25.554 13.994 25.5641 13.988 25.5742 13.9818C25.9644 13.7429 26.286 13.2976 26.4997 12.6869C26.6178 12.3495 26.7031 11.9617 26.7488 11.5303C26.7497 11.5218 26.7505 11.5134 26.7514 11.5049ZM24.8818 10.1819C24.8954 10.3637 24.9022 10.5618 24.9022 10.7759C24.9022 11.0197 24.8934 11.2435 24.8762 11.4468C24.8758 11.4513 24.8755 11.4557 24.8751 11.4601C24.8497 11.7522 24.8068 12.0018 24.7474 12.2072C24.6888 12.41 24.6141 12.5698 24.5243 12.6853C24.5239 12.6858 24.5235 12.6864 24.5231 12.6869C24.5106 12.7029 24.4978 12.718 24.4847 12.7323C24.3782 12.8487 24.2525 12.9079 24.1092 12.9079C24.0316 12.9079 23.9595 12.8908 23.893 12.8569C23.8207 12.82 23.7552 12.7633 23.6964 12.6869C23.6953 12.6854 23.6941 12.684 23.693 12.6825C23.6707 12.653 23.6493 12.6207 23.629 12.5855C23.4441 12.2659 23.3421 11.7107 23.3304 10.9301C23.3296 10.8797 23.3292 10.8282 23.3292 10.7759C23.3292 10.7416 23.3294 10.7076 23.3297 10.6741C23.3378 9.86771 23.4431 9.29995 23.6486 8.9886C23.6614 8.9691 23.6747 8.9506 23.6884 8.93311C23.6999 8.91832 23.7117 8.90425 23.7239 8.8909C23.7917 8.81616 23.8685 8.76419 23.9541 8.73545C24.0068 8.71779 24.0628 8.7089 24.1222 8.7089C24.254 8.7089 24.37 8.75722 24.4695 8.85247C24.4821 8.86453 24.4944 8.87734 24.5065 8.8909C24.5188 8.90474 24.5308 8.91935 24.5425 8.93474C24.6249 9.04259 24.6936 9.18862 24.7482 9.37179C24.8131 9.58978 24.8579 9.86039 24.8818 10.1819ZM20.2152 13.9999V7.6299H18.4082V11.4909C18.4082 12.4139 18.1222 12.8949 17.6932 12.8949C17.651 12.8949 17.6114 12.8901 17.5742 12.8808V4.8999C17.5742 2.69076 19.3651 0.899902 21.5742 0.899902H23.3682C25.2665 0.899902 26.8559 2.22217 27.2656 3.99588C28.4065 4.55981 29.2316 5.48779 29.7381 6.37546C29.7824 6.45304 29.825 6.53132 29.8661 6.61022L30.7056 9.4219C30.7622 9.87761 30.7872 10.332 30.7872 10.7759C30.7872 12.2792 30.5004 13.8808 29.706 15.2578C28.8923 16.6681 27.2776 18.1819 24.8762 18.1819C24.3606 18.1819 23.8888 18.1154 23.4578 17.9979C23.4151 17.9992 23.3722 17.9999 23.3292 17.9999H21.5742C19.3651 17.9999 17.5742 16.209 17.5742 13.9999V13.9439C17.8982 13.7472 18.1925 13.3875 18.4342 12.7909V13.9999H20.2152Z" fill="#0B0000"/>
<path fill-rule="evenodd" clip-rule="evenodd" d="M12.3909 4.89988C13.1209 4.1184 14.1606 3.62988 15.3145 3.62988H17.1215C17.3405 3.62988 17.5555 3.64749 17.765 3.68137C17.9744 3.64749 18.1894 3.62988 18.4085 3.62988H20.2155C21.3693 3.62988 22.409 4.1184 23.139 4.89988H21.5745V13.9999H23.3295V12.6869C23.5264 13.269 23.8303 13.7327 24.2155 13.9816V13.9999C24.2155 16.209 22.4246 17.9999 20.2155 17.9999H18.4345C18.3339 17.9999 18.2342 17.9962 18.1355 17.9889C17.6941 18.0957 17.256 18.1429 16.8355 18.1429C14.9618 18.1429 13.3341 17.2443 12.347 15.7637C11.501 14.4947 11.3145 13.0994 11.3145 12.0889V7.62988C11.3145 6.69076 11.6381 5.82722 12.1799 5.14472V13.9999H13.9869V4.89988H12.3909ZM15.3798 12.7909C15.4915 13.3451 15.7501 13.7852 16.1811 13.9999C16.3666 14.0923 16.584 14.1429 16.8355 14.1429C17.0547 14.1429 17.269 14.101 17.4728 13.9999C17.5479 13.9626 17.6215 13.9174 17.6935 13.8632C17.9706 13.6545 18.2227 13.3136 18.4345 12.7909V13.9999H20.2155V7.62988H18.4085V11.4909C18.4085 11.6517 18.3998 11.7991 18.3832 11.9329C18.3764 11.9871 18.3684 12.0391 18.3591 12.0889C18.3123 12.3395 18.2337 12.533 18.1297 12.6674C18.0918 12.7165 18.0506 12.7576 18.0063 12.7909C17.9143 12.86 17.809 12.8949 17.6935 12.8949C17.5758 12.8949 17.4781 12.8572 17.3987 12.7909C17.2677 12.6815 17.1867 12.4943 17.1482 12.2699C17.1382 12.2118 17.1311 12.1512 17.1268 12.0889C17.1232 12.0379 17.1215 11.9858 17.1215 11.9329V7.62988H15.3145V12.0889C15.3145 12.3361 15.3357 12.5724 15.3798 12.7909ZM24.2155 8.71737V12.8964C24.1813 12.904 24.1459 12.9079 24.1095 12.9079C23.6025 12.9079 23.3295 12.1799 23.3295 10.7759C23.3295 9.42388 23.5895 8.70888 24.1225 8.70888C24.1544 8.70888 24.1854 8.71172 24.2155 8.71737ZM24.2155 7.68243V7.62988C24.2155 6.70148 23.8992 5.84696 23.3685 5.16818V8.89088C23.5565 8.35117 23.8475 7.92462 24.2155 7.68243Z" fill="#0B0000"/>
<path fill-rule="evenodd" clip-rule="evenodd" d="M8.17969 12.6787C8.68222 12.5621 9.05392 11.9695 9.23945 10.9839L9.27845 10.6719L11.0985 10.9839C11.0914 11.0473 11.0806 11.1069 11.07 11.1647C11.0611 11.2136 11.0524 11.2612 11.0465 11.3089C10.8441 12.1612 10.474 12.8515 9.98669 13.3431C9.69787 13.6344 9.36787 13.8559 9.00718 13.9999C8.7474 14.1036 8.4717 14.1672 8.18402 14.1876C8.28205 16.3096 10.0335 17.9999 12.1797 17.9999H13.9867C16.1958 17.9999 17.9867 16.209 17.9867 13.9999V13.5785C17.826 13.7737 17.6534 13.9102 17.4726 13.9999C17.2687 14.101 17.0545 14.1429 16.8352 14.1429C16.5838 14.1429 16.3663 14.0923 16.1809 13.9999C16.1805 13.9997 16.1801 13.9995 16.1797 13.9993C15.5795 13.6997 15.3142 12.9625 15.3142 12.0889V7.6299H17.1212V11.9329C17.1212 12.4529 17.2902 12.8949 17.6932 12.8949C17.8008 12.8949 17.8994 12.8647 17.9867 12.8048V4.8999C17.9867 2.69076 16.1958 0.899902 13.9867 0.899902H12.1797C10.0336 0.899902 8.28218 2.59006 8.18403 4.71193C8.47801 4.73216 8.76041 4.79582 9.02708 4.8999C9.37724 5.03657 9.70026 5.24294 9.98669 5.51219C10.4841 5.97973 10.8711 6.63686 11.0985 7.4479C11.1063 7.48305 11.1152 7.51937 11.1243 7.55616C11.1455 7.64184 11.1674 7.73005 11.1765 7.8119L9.27845 8.1239C9.27663 8.10934 9.27481 8.09452 9.27296 8.0794C9.26156 7.98662 9.24881 7.88287 9.22645 7.7599C9.05252 6.86704 8.68207 6.32584 8.17969 6.21933V12.6787ZM12.1797 4.8999V13.9999H13.9867V4.8999H12.1797Z" fill="#0B0000"/>
<path fill-rule="evenodd" clip-rule="evenodd" d="M14.9998 6.56681C14.9848 6.50028 14.968 6.43415 14.9496 6.36848C14.1153 3.3918 11.6562 0.705078 7.97808 0.705078C5.55657 0.705078 3.52072 1.88007 2.21164 3.65644C0.965311 5.34765 0.455078 7.44011 0.455078 9.48908C0.455078 11.539 0.966292 13.6325 2.23855 15.3188C3.57758 17.0936 5.61803 18.1951 7.97808 18.1951C11.8137 18.1951 14.2157 15.2751 14.9379 12.233C14.9654 12.117 14.9878 11.9998 15.0049 11.8818C15.0056 11.8777 15.0065 11.8728 15.0076 11.867L15.0088 11.8603C15.0202 11.7977 15.0512 11.6274 15.0736 11.4258C15.1492 10.7453 15.0491 10.0838 14.8084 9.48819C15.1048 8.84724 15.235 8.1205 15.1516 7.37033C15.1175 7.06372 15.0587 6.81148 15.0343 6.70821C15.0213 6.65356 15.0064 6.59377 15.003 6.5799C15.0015 6.57387 15.0005 6.5696 14.9998 6.56681ZM13.9863 4.90008H12.1793V14.0001H13.9863V4.90008ZM11.0334 11.3614C11.0365 11.3488 11.0396 11.3362 11.0426 11.3236C11.0438 11.3187 11.0449 11.3139 11.0461 11.3091C11.0501 11.2768 11.0554 11.2445 11.0612 11.2118C11.0639 11.1963 11.0668 11.1806 11.0696 11.1649C11.0802 11.107 11.091 11.0475 11.0981 10.9841L9.27808 10.6721L9.23908 10.9841C9.23293 11.0168 9.22657 11.049 9.22001 11.0808C9.20493 11.154 9.18878 11.2248 9.17158 11.2933C9.09053 11.6162 8.98623 11.8871 8.86126 12.1023C8.63428 12.4931 8.3391 12.7001 7.99108 12.7001C7.98674 12.7001 7.9824 12.7 7.97808 12.7C7.40649 12.6923 6.96334 12.1739 6.73405 11.2108C6.69349 11.0404 6.65961 10.8562 6.63291 10.6583C6.62546 10.6031 6.61857 10.5469 6.61225 10.4896C6.60672 10.4395 6.60162 10.3886 6.59697 10.3369C6.5831 10.1829 6.57314 10.0218 6.56729 9.85385C6.56317 9.73567 6.56108 9.61406 6.56108 9.48908C6.56108 9.33289 6.5639 9.18214 6.56948 9.03688C6.5773 8.83302 6.59054 8.63994 6.60897 8.45771C6.61559 8.39229 6.62288 8.32827 6.63083 8.26565C6.6323 8.25409 6.63379 8.24259 6.6353 8.23113C6.66758 7.98636 6.7101 7.76336 6.76223 7.56233C6.99447 6.66679 7.41763 6.20715 7.97808 6.20016C7.9824 6.20011 7.98674 6.20008 7.99108 6.20008C8.32327 6.20008 8.60732 6.37257 8.82763 6.69751C8.98227 6.92558 9.1055 7.22875 9.19194 7.60008C9.20405 7.65208 9.21543 7.70542 9.22608 7.76008C9.23242 7.79498 9.238 7.82834 9.24298 7.86033C9.24862 7.89649 9.25351 7.93092 9.25792 7.96388C9.26069 7.98459 9.26328 8.00472 9.26574 8.02435C9.26811 8.04321 9.27037 8.0616 9.27258 8.07958C9.27444 8.09469 9.27626 8.10951 9.27808 8.12408L11.1761 7.81208C11.1721 7.77618 11.1657 7.73905 11.1579 7.70145C11.148 7.65333 11.1359 7.60443 11.124 7.55634C11.1149 7.51955 11.1059 7.48323 11.0981 7.44808C11.0956 7.43907 11.093 7.43008 11.0904 7.4211C11.0883 7.41345 11.0861 7.40581 11.0838 7.39818C11.0327 7.22234 10.974 7.05389 10.9083 6.89319C10.4585 5.79378 9.67807 5.05743 8.73221 4.80337C8.49473 4.73958 8.24681 4.7062 7.99108 4.70511C7.98675 4.70509 7.98241 4.70508 7.97808 4.70508C5.88508 4.70508 4.45508 6.64208 4.45508 9.48908C4.45508 12.3361 5.88508 14.1951 7.97808 14.1951C7.98241 14.1951 7.98675 14.1951 7.99108 14.195C8.23221 14.194 8.4658 14.1633 8.68965 14.1046C9.65279 13.8519 10.4357 13.0802 10.8638 11.9171C10.9287 11.7407 10.9854 11.5554 11.0334 11.3614Z" fill="#0B0000"/>
</svg>
