<svg width="86" height="19" viewBox="0 0 86 19" fill="none" xmlns="http://www.w3.org/2000/svg">
<path fill-rule="evenodd" clip-rule="evenodd" d="M75.1065 17.9999C73.232 17.9999 71.6089 16.6982 71.2019 14.8684L71.0448 14.1622C71.5591 14.0928 72.0192 13.8421 72.3853 13.4404C72.5825 13.224 72.7524 12.9638 72.8889 12.6645C72.9331 12.5676 72.9737 12.4667 73.0106 12.3619C73.0249 12.3306 73.0379 12.298 73.0499 12.2648C73.0832 12.1724 73.1091 12.0746 73.1333 11.9832C73.1402 11.9571 73.1469 11.9316 73.1536 11.9069L71.5676 11.7899C71.5546 11.9199 71.5286 12.0369 71.4896 12.1279C71.331 12.6892 71.1151 12.9756 70.7882 13.0086L70.3262 10.9319H73.2446V10.9059C73.2446 10.0324 73.0324 9.15549 72.5994 8.50502C72.5066 8.36556 72.4036 8.23651 72.2904 8.12014C72.241 8.0694 72.1897 8.02108 72.1365 7.97535C71.7623 7.65406 71.2919 7.46088 70.7226 7.46088C70.3497 7.46088 70.0027 7.54425 69.69 7.69578C69.6748 6.77167 69.9804 5.86128 70.569 5.12731C71.3282 4.1807 72.4761 3.62988 73.6895 3.62988H75.3665C75.6191 3.62988 75.8669 3.65347 76.1076 3.69871C76.3484 3.65346 76.5961 3.62988 76.8485 3.62988H78.3175C78.5811 3.62988 78.8398 3.65563 79.0907 3.70496C79.3416 3.65565 79.6004 3.62988 79.8645 3.62988H81.5025C82.7105 3.62988 83.8537 4.17578 84.6132 5.11517C85.3726 6.05457 85.6668 7.28684 85.4137 8.468L84.0487 14.838C83.6535 16.6823 82.0236 17.9999 80.1375 17.9999H78.5255C78.2114 17.9999 77.9043 17.9633 77.609 17.8939C77.3136 17.9633 77.0066 17.9999 76.6925 17.9999H75.1065ZM73.6895 7.62988H75.3665L76.0295 11.7899L76.3819 9.99988L76.8485 7.62988H78.3175L78.8286 9.99849L78.8289 9.99988L79.2405 11.9069L79.8645 7.62988H81.5025L80.1375 13.9999H78.5255L77.6155 9.73588L76.6925 13.9999H75.1065L73.6895 7.62988ZM70.1383 10.0869L70.0004 9.46707C70.1177 8.8946 70.3679 8.56588 70.7226 8.56588C71.1776 8.56588 71.4246 9.04688 71.4636 10.0869H70.1383Z" fill="#0B0000"/>
<path fill-rule="evenodd" clip-rule="evenodd" d="M75.1054 13.9999H76.6656C75.7652 16.2289 73.7022 18.1819 70.7476 18.1819C66.2178 18.1819 64.0176 14.0626 64.0176 10.8279V10.8149C64.0176 9.49937 64.3884 7.9783 65.1687 6.6621V6.75894H66.9757V4.89994H66.6426C67.6752 4.02833 69.0266 3.46094 70.7216 3.46094C73.1636 3.46094 74.9627 4.79233 75.9815 6.37008C76.3209 6.89565 76.58 7.44989 76.7725 8.01041L76.0284 11.7899L75.3654 7.62994H73.6884L75.1054 13.9999ZM76.7234 13.8522C76.7267 13.8435 76.73 13.8348 76.7332 13.8261C76.8307 13.5864 76.8938 13.3813 76.9308 13.2544C76.9557 13.1692 76.9759 13.0938 76.9885 13.0463C76.9966 13.0159 77.001 12.9994 77.004 12.9882C77.0072 12.9758 77.0087 12.97 77.0116 12.9594C77.1095 12.6007 77.1558 12.2343 77.1524 11.8702L76.7234 13.8522ZM66.9757 7.62994H65.1817V13.9999H66.9757V7.62994ZM72.8633 12.7171C72.8909 12.6592 72.9173 12.5997 72.9423 12.5388C72.9659 12.4811 72.9884 12.4222 73.0096 12.3619C73.0633 12.2437 73.0993 12.1076 73.1322 11.9832C73.1354 11.9712 73.1385 11.9592 73.1417 11.9474C73.1453 11.9337 73.149 11.9202 73.1526 11.9069L71.5666 11.7899C71.5645 11.8107 71.5621 11.8311 71.5594 11.8511C71.545 11.9566 71.5214 12.0514 71.4886 12.1279C71.4801 12.158 71.4714 12.1873 71.4626 12.2158C71.4289 12.3244 71.3927 12.4216 71.3535 12.5076C71.2036 12.8368 71.0102 13.0013 70.7476 13.0114C70.739 13.0118 70.7303 13.0119 70.7216 13.0119C70.4753 13.0119 70.2781 12.8371 70.1404 12.5157C70.0492 12.3029 69.9841 12.0258 69.9482 11.6926C69.9459 11.6711 69.9437 11.6494 69.9416 11.6274C69.9365 11.5738 69.9322 11.5189 69.9286 11.4626C69.9285 11.4615 69.9284 11.4604 69.9284 11.4593C69.9245 11.3988 69.9216 11.3369 69.9194 11.2734C69.9194 11.2709 69.9193 11.2685 69.9192 11.2661C69.9168 11.1914 69.9156 11.1147 69.9156 11.0359V10.9319H73.2436V10.9059C73.2436 10.8432 73.2425 10.7805 73.2403 10.7178C73.2345 10.5513 73.2209 10.3853 73.1995 10.2214C73.1909 10.1548 73.1809 10.0887 73.1697 10.0229C73.1687 10.0175 73.1678 10.0121 73.1669 10.0066C73.0058 9.0836 72.5899 8.25079 71.9082 7.80427C71.7705 7.7141 71.622 7.63968 71.4626 7.58346C71.2375 7.50407 70.9905 7.46094 70.7216 7.46094C70.4414 7.46094 70.1759 7.50798 69.9286 7.59562C69.9242 7.59716 69.9199 7.59871 69.9156 7.60027C69.0705 7.90534 68.4395 8.68539 68.1665 9.68136C68.137 9.78896 68.1117 9.89909 68.0908 10.0114C68.0783 10.0784 68.0673 10.1461 68.058 10.2146C68.0538 10.2453 68.0499 10.2761 68.0464 10.3071C68.0337 10.417 68.0252 10.5287 68.0209 10.6418C68.0187 10.6991 68.0176 10.7569 68.0176 10.8149V10.8279C68.0176 10.8627 68.018 10.8974 68.0188 10.9319C68.0196 10.9668 68.0208 11.0014 68.0224 11.0359C68.0242 11.0743 68.0265 11.1124 68.0293 11.1503C68.0329 11.1995 68.0373 11.2484 68.0425 11.2969C68.0477 11.3447 68.0536 11.3922 68.0603 11.4393C68.2367 12.6802 68.9445 13.6698 69.9156 14.0325C69.9199 14.0342 69.9242 14.0358 69.9286 14.0374C69.9781 14.0555 70.0283 14.0721 70.0791 14.0869C70.2836 14.1467 70.4986 14.1794 70.7216 14.1818C70.7302 14.1819 70.7389 14.1819 70.7476 14.1819C70.9695 14.1819 71.1834 14.1495 71.3863 14.0869C71.39 14.0858 71.3937 14.0847 71.3974 14.0835C71.4192 14.0766 71.441 14.0694 71.4626 14.0618C72.0523 13.855 72.5436 13.3881 72.8633 12.7171ZM71.3009 9.05992C71.3922 9.30581 71.446 9.64617 71.4626 10.0869H69.9286C69.9458 9.66754 70.0113 9.32176 70.1194 9.06646C70.2559 8.74407 70.4604 8.56594 70.7216 8.56594C70.9837 8.56594 71.1769 8.72562 71.3009 9.05992Z" fill="#0B0000"/>
<path fill-rule="evenodd" clip-rule="evenodd" d="M65.1829 17.9999C62.9738 17.9999 61.1829 16.209 61.1829 13.9999H61.8246L64.3856 4.8999H62.5136L61.1829 10.1701V7.6299C61.1829 7.50328 61.1888 7.37804 61.2003 7.25443C61.1803 7.09207 61.1699 6.92669 61.1699 6.7589V4.8999C61.1699 2.69076 62.9608 0.899902 65.1699 0.899902H66.9769C69.1861 0.899902 70.9769 2.69076 70.9769 4.8999V6.7589C70.9769 6.90606 70.969 7.05135 70.9535 7.19439C70.9635 7.28666 70.9703 7.37986 70.9739 7.4739C70.9542 7.47182 70.9342 7.46998 70.9142 7.46839C70.8517 7.46343 70.7879 7.4609 70.7228 7.4609C70.408 7.4609 70.1117 7.52028 69.839 7.6299C69.6013 7.7254 69.3815 7.85902 69.1829 8.02472C68.5012 8.59352 68.0692 9.54036 68.0229 10.6208C68.0201 10.685 68.0187 10.7497 68.0187 10.8149V10.8279C68.0187 11.989 68.4688 13 69.1829 13.6005C69.381 13.7671 69.5994 13.9021 69.8342 13.9999C70.1176 14.118 70.4248 14.1819 70.7488 14.1819C70.8246 14.1819 70.8995 14.1781 70.9733 14.1706C70.8839 16.3006 69.1289 17.9999 66.9769 17.9999H65.1829ZM70.9769 12.9557V10.9319H69.9168V11.0359C69.9168 12.2709 70.2157 13.0119 70.7228 13.0119C70.8156 13.0119 70.8999 12.9933 70.9769 12.9557ZM70.9769 8.62753V10.0869H69.9298C69.9414 9.8046 69.9748 9.55567 70.0284 9.34522C70.1284 8.95267 70.2985 8.69405 70.5276 8.60269C70.5885 8.57838 70.6537 8.5659 70.7228 8.5659C70.8163 8.5659 70.901 8.58622 70.9769 8.62753ZM65.1699 4.8999V6.7589H66.9769V4.8999H65.1699ZM66.9769 7.6299H65.1829V13.9999H66.9769V7.6299Z" fill="#0B0000"/>
<path fill-rule="evenodd" clip-rule="evenodd" d="M59.9123 17.9999C58.144 17.9999 56.5855 16.8387 56.0795 15.1443L54.4167 9.57495V9.5409C54.4167 8.8779 54.2595 8.2935 53.9224 7.91927L53.3625 6.04427C53.0011 4.83358 53.2329 3.52328 53.9877 2.51008C54.7426 1.49687 55.9318 0.899902 57.1953 0.899902H59.1843C59.7733 0.899902 60.3381 1.02854 60.8483 1.26217C61.3585 1.02856 61.9233 0.899902 62.5123 0.899902H64.3843C65.6367 0.899902 66.8168 1.48646 67.573 2.48479C68.3291 3.48312 68.574 4.77798 68.2348 5.98352L66.9757 10.4573V7.6299H65.1817V13.9999H65.9787L65.6738 15.0835C65.1884 16.8083 63.6152 17.9999 61.8233 17.9999H59.9123ZM66.9757 6.7589V4.8999H65.1687V6.7589H66.9757ZM59.9123 13.9999H61.8233L64.3843 4.8999H62.5123L60.8613 11.4389L59.1843 4.8999H57.1953L59.9123 13.9999Z" fill="#0B0000"/>
<path fill-rule="evenodd" clip-rule="evenodd" d="M45.5156 12.902C45.5944 12.9494 45.6812 12.9731 45.7758 12.9731C46.2698 12.9731 46.5688 12.2581 46.5688 10.8151C46.5688 9.34606 46.2698 8.64406 45.7758 8.64406C45.6812 8.64406 45.5944 8.66728 45.5156 8.7141V12.902ZM45.5191 14.169C45.6077 16.2998 47.3631 18.0001 49.5156 18.0001H51.3096C51.531 18.0001 51.7481 17.9821 51.9596 17.9475C52.1712 17.9821 52.3883 18.0001 52.6096 18.0001H54.4166C56.6258 18.0001 58.4166 16.2092 58.4166 14.0001V9.54106C58.4166 9.34156 58.4092 9.12847 58.3911 8.90538L57.5808 6.19123C57.5161 6.07876 57.4468 5.96697 57.3725 5.85618C56.3924 4.39565 54.7755 3.48706 52.8956 3.48706C52.4769 3.48706 52.0353 3.53338 51.5875 3.64143C51.4872 3.6339 51.3859 3.63006 51.2836 3.63006H49.5156C47.3587 3.63006 45.6005 5.33727 45.5186 7.47414C45.603 7.46547 45.6888 7.46106 45.7758 7.46106C46.0897 7.46106 46.3878 7.51984 46.6635 7.63006C46.8859 7.71895 47.0938 7.8413 47.2836 7.99325C47.3802 8.07051 47.4721 8.15543 47.5588 8.24749C47.7284 8.42734 47.8784 8.63445 48.0056 8.86506C48.2095 9.23459 48.3546 9.66444 48.4272 10.1391C48.4603 10.3556 48.4782 10.5814 48.4798 10.8151C48.4798 11.103 48.4539 11.3798 48.4049 11.6423C48.248 12.4813 47.8541 13.1749 47.3096 13.624C47.1201 13.7804 46.9123 13.9071 46.6898 14.0001C46.4064 14.1185 46.0992 14.1821 45.7758 14.1821C45.6889 14.1821 45.6033 14.1777 45.5191 14.169ZM49.5156 14.0001H51.3096V10.1391C51.3096 9.97824 51.3183 9.83084 51.3349 9.69706C51.3417 9.64282 51.3497 9.59081 51.359 9.54106C51.4041 9.29951 51.4787 9.1111 51.5771 8.97739C51.6089 8.93423 51.6431 8.89677 51.6796 8.86506C51.779 8.77875 51.8953 8.73506 52.0246 8.73506C52.1612 8.73506 52.2711 8.78269 52.3572 8.86506C52.4744 8.97724 52.5474 9.15385 52.5831 9.3624C52.593 9.41977 52.6 9.47954 52.6043 9.54106C52.6079 9.592 52.6096 9.64412 52.6096 9.69706V14.0001H54.4166V9.54106C54.4166 9.30363 54.3965 9.07629 54.3551 8.86506C54.2442 8.29858 53.9807 7.84806 53.5446 7.63006C53.3598 7.53768 53.144 7.48706 52.8956 7.48706C52.6726 7.48706 52.4545 7.52859 52.2479 7.63006C52.1718 7.66745 52.0973 7.71297 52.0246 7.76754C51.7428 7.97923 51.4895 8.32716 51.2836 8.86506V7.63006H49.5156V14.0001Z" fill="#0B0000"/>
<path fill-rule="evenodd" clip-rule="evenodd" d="M52.4795 10.7883L52.4796 10.8149C52.4796 14.1203 50.2747 18.1819 45.7756 18.1819C41.2594 18.1819 39.0586 14.1443 39.0586 10.8149C39.0586 9.43995 39.4359 7.94558 40.1968 6.66528V6.75894H42.0038V4.89994H41.6821C42.7291 4.02269 44.0921 3.46094 45.7756 3.46094C48.9698 3.46094 50.9997 5.49571 51.9141 7.85875C51.6764 8.07452 51.4621 8.39822 51.2834 8.86494V7.62994H49.5154V13.9999H51.3094V10.1389C51.3094 9.21594 51.5954 8.73494 52.0244 8.73494C52.0919 8.73494 52.153 8.74659 52.2078 8.76831C52.3849 9.44531 52.4751 10.1311 52.4795 10.7883ZM40.2098 13.9999V7.62994H42.0038V13.9999H40.2098ZM46.4765 10.3497C46.2499 10.2368 46.0041 10.1819 45.7756 10.1819C45.5241 10.1819 45.2681 10.2436 45.0421 10.3577C45.0201 10.3688 44.9989 10.3802 44.9784 10.3917C45.0061 9.75666 45.0995 9.29917 45.2525 9.01193C45.384 8.76504 45.5596 8.64394 45.7756 8.64394C45.9803 8.64394 46.1515 8.76444 46.2818 9.01009C46.4343 9.29759 46.5309 9.7565 46.5596 10.3942C46.5331 10.379 46.5054 10.3641 46.4765 10.3497ZM48.4372 10.2094C48.4637 10.4043 48.4782 10.6065 48.4796 10.8149C48.4796 11.0151 48.4671 11.2099 48.443 11.3982C48.2339 13.0322 47.1511 14.1819 45.7756 14.1819C44.3762 14.1819 43.3011 13.0416 43.0946 11.3992C43.0709 11.2107 43.0586 11.0157 43.0586 10.8149C43.0586 10.6077 43.0718 10.4063 43.0974 10.2121C43.3108 8.5909 44.3825 7.46094 45.7756 7.46094C47.1456 7.46094 48.215 8.58085 48.4372 10.2094ZM45.2541 12.6051C45.3855 12.8506 45.5605 12.9729 45.7756 12.9729C45.9794 12.9729 46.15 12.8512 46.2802 12.6069C46.432 12.3217 46.5287 11.8695 46.5587 11.2489C46.5319 11.2643 46.5039 11.2793 46.4747 11.2939C46.2491 11.4061 46.0041 11.4609 45.7756 11.4609C45.5358 11.4609 45.2839 11.4031 45.0555 11.2889C45.029 11.2757 45.0036 11.2621 44.9791 11.2482C45.0079 11.8679 45.1015 12.3197 45.2541 12.6051ZM44.9696 10.8383L46.5686 10.8277C46.5686 10.8234 46.5686 10.8192 46.5686 10.8149H44.9696C44.9696 10.8228 44.9696 10.8306 44.9696 10.8383Z" fill="#0B0000"/>
<path fill-rule="evenodd" clip-rule="evenodd" d="M40.2103 17.9999C38.0011 17.9999 36.2103 16.209 36.2103 13.9999V8.7869H36.3455V12.4919C36.3455 13.0509 36.5145 13.4409 36.8135 13.7139C36.9487 13.8378 37.1107 13.9324 37.2943 13.9999C37.5344 14.0881 37.8114 14.1299 38.1135 14.1299C38.4631 14.1299 38.7025 14.084 39.0015 13.9999C39.0583 13.9839 39.1173 13.9666 39.1795 13.9479V12.6739C39.0625 12.7389 38.9065 12.7779 38.7115 12.7779C38.5425 12.7779 38.3995 12.7389 38.2955 12.6349C38.2045 12.5439 38.1525 12.3879 38.1525 12.1539V8.7869H39.1795V7.6299H38.1525V5.4849H36.4625L36.3585 7.6299H36.2103C36.2103 7.50328 36.2161 7.37804 36.2277 7.25443C36.2076 7.09207 36.1973 6.92669 36.1973 6.7589V4.8999C36.1973 2.69076 37.9881 0.899902 40.1973 0.899902H42.0043C44.2134 0.899902 46.0043 2.69076 46.0043 4.8999V6.7589C46.0043 6.90606 45.9963 7.05135 45.9808 7.19439C45.9907 7.28575 45.9975 7.37804 46.0012 7.47114C45.9815 7.46933 45.9617 7.46776 45.9419 7.46643C45.8871 7.46276 45.8319 7.4609 45.7761 7.4609C45.4581 7.4609 45.1569 7.51977 44.8788 7.6299C44.6371 7.72564 44.4129 7.86011 44.2103 8.02833C43.5417 8.58349 43.1091 9.50622 43.0632 10.6172C43.0605 10.6825 43.0591 10.7484 43.0591 10.8149C43.0591 12.022 43.5024 13.0248 44.2103 13.6138C44.4039 13.7749 44.6174 13.905 44.847 13.9999C45.1339 14.1184 45.446 14.1819 45.7761 14.1819C45.8519 14.1819 45.9268 14.1784 46.0007 14.1715C45.9108 16.3011 44.1559 17.9999 42.0043 17.9999H40.2103ZM46.0043 8.70155V12.9144C45.9338 12.9534 45.8576 12.9729 45.7761 12.9729C45.2561 12.9729 44.9701 12.2579 44.9701 10.8149C44.9701 10.1001 45.0378 9.56683 45.1673 9.20774C45.2485 8.98234 45.3541 8.82557 45.4825 8.73555C45.57 8.67426 45.668 8.6439 45.7761 8.6439C45.8576 8.6439 45.9338 8.66302 46.0043 8.70155ZM40.1973 4.8999V6.7589H42.0043V4.8999H40.1973ZM42.0043 7.6299H40.2103V13.9999H42.0043V7.6299Z" fill="#0B0000"/>
<path fill-rule="evenodd" clip-rule="evenodd" d="M40.2111 7.63011H42.0051V14.0001H40.2111V7.63011ZM39.1803 8.78711V7.63011H38.1533V5.48511H36.4633L36.3593 7.63011H35.5273V8.78711H36.3463V12.4921C36.3463 12.5549 36.3485 12.6155 36.3527 12.6741C36.3859 13.1372 36.5489 13.4718 36.8143 13.7141C36.8849 13.7787 36.9627 13.8354 37.047 13.8844C37.0865 13.9073 37.1273 13.9285 37.1695 13.9481C37.4367 14.072 37.7581 14.1301 38.1143 14.1301C38.3455 14.1301 38.5285 14.11 38.7123 14.0721C38.8594 14.0418 39.007 14.0001 39.1803 13.9481V12.6741C39.0874 12.7257 38.97 12.7609 38.8279 12.7733C38.791 12.7765 38.7525 12.7781 38.7123 12.7781C38.5664 12.7781 38.4398 12.749 38.3411 12.6741C38.3254 12.6623 38.3105 12.6493 38.2963 12.6351C38.2596 12.5983 38.2292 12.551 38.206 12.4921C38.18 12.4262 38.1631 12.3459 38.1565 12.2499C38.1564 12.2481 38.1563 12.2463 38.1561 12.2445C38.1543 12.2158 38.1533 12.1857 38.1533 12.1541V8.78711H39.1803ZM34.6545 7.63011H32.8605V14.0001H34.6545V7.63011ZM34.1141 16.6652C32.8267 15.4879 32.3463 13.9361 32.3463 12.4921V11.2126C32.0788 10.8622 31.8678 10.4664 31.727 10.0386C31.6898 9.68068 31.6251 9.35372 31.5366 9.06186C31.5305 8.97108 31.5273 8.87946 31.5273 8.78711V7.63011C31.5273 6.63642 31.8897 5.72737 32.4894 5.02786C32.7183 3.0236 34.4183 1.48511 36.4633 1.48511H38.1533C40.1668 1.48511 41.8329 2.97282 42.1122 4.90898C42.775 5.62283 43.1803 6.57912 43.1803 7.63011V8.78711C43.1803 9.49278 42.9976 10.1558 42.6769 10.7314C43.0017 11.316 43.1803 11.9825 43.1803 12.6741V13.9481C43.1803 15.7145 42.0217 17.2718 40.3297 17.7794C39.7912 17.941 39.0997 18.1301 38.1143 18.1301C37.0133 18.1301 35.4296 17.8694 34.1141 16.6652ZM34.6545 4.90011H32.8475V6.75911H34.6545V4.90011ZM40.1981 6.75911H42.0051V4.90011H40.1981V6.75911Z" fill="#0B0000"/>
<path fill-rule="evenodd" clip-rule="evenodd" d="M32.8607 17.9999C30.6515 17.9999 28.8607 16.209 28.8607 13.9999V13.694C28.9713 13.8176 29.0918 13.9208 29.2212 13.9999C29.4133 14.1174 29.6249 14.1819 29.8531 14.1819C30.0904 14.1819 30.3148 14.1193 30.5207 13.9999C30.5663 13.9735 30.611 13.9443 30.6547 13.9124C31.3221 13.4249 31.7641 12.3039 31.7641 10.7759C31.7641 10.72 31.7635 10.6647 31.7623 10.6099C31.7315 9.17344 31.3 8.13221 30.6547 7.6926C30.6216 7.67012 30.5881 7.64921 30.554 7.6299C30.3581 7.51898 30.1445 7.4609 29.9181 7.4609C29.6874 7.4609 29.473 7.52044 29.2783 7.6299C29.1783 7.68609 29.0836 7.75543 28.9945 7.83663C28.9484 7.87872 28.9037 7.92399 28.8607 7.97227V7.6299C28.8607 7.50328 28.8665 7.37803 28.878 7.25442C28.858 7.09206 28.8477 6.92669 28.8477 6.7589V4.8999C28.8477 2.69076 30.6385 0.899902 32.8477 0.899902H34.6547C36.8638 0.899902 38.6547 2.69076 38.6547 4.8999V6.7589C38.6547 6.90606 38.6467 7.05135 38.6312 7.19439C38.6467 7.33744 38.6547 7.48274 38.6547 7.6299H38.1535V5.4849H36.4635L36.3595 7.6299H35.5275V8.7869H36.3465V12.4919C36.3465 13.0509 36.5155 13.4409 36.8145 13.7139C36.8295 13.7277 36.8449 13.7411 36.8607 13.7542C36.986 13.8586 37.1321 13.94 37.2953 13.9999C37.5354 14.0881 37.8124 14.1299 38.1145 14.1299C38.321 14.1299 38.4892 14.1139 38.6538 14.0834C38.6094 16.254 36.8359 17.9999 34.6547 17.9999H32.8607ZM38.6547 12.7763V8.7869H38.1535V12.1539C38.1535 12.3879 38.2055 12.5439 38.2965 12.6349C38.3884 12.7268 38.5108 12.768 38.6547 12.7763ZM34.6547 6.7589V4.8999H32.8477V6.7589H34.6547ZM32.8607 13.9999H34.6547V7.6299H32.8607V13.9999ZM28.8607 12.8521V8.7653C28.9329 8.72781 29.0124 8.7089 29.0991 8.7089C29.2231 8.7089 29.3332 8.75171 29.4287 8.83619C29.5138 8.91158 29.5874 9.02013 29.649 9.16106C29.8004 9.50762 29.8791 10.0499 29.8791 10.7759C29.8791 12.1669 29.5931 12.9079 29.0861 12.9079C29.0049 12.9079 28.9297 12.8892 28.8607 12.8521Z" fill="#0B0000"/>
<path fill-rule="evenodd" clip-rule="evenodd" d="M31.728 11.5049C31.7454 11.3339 31.7566 11.1561 31.7613 10.972C31.7616 10.9623 31.7618 10.9526 31.762 10.9429C31.7632 10.8878 31.7638 10.8321 31.7638 10.7759C31.7638 10.7577 31.7637 10.7396 31.7636 10.7215C31.7635 10.7057 31.7633 10.69 31.7631 10.6743C31.7606 10.4802 31.7508 10.2931 31.7342 10.1136C31.7329 10.0992 31.7316 10.0849 31.7301 10.0706C31.6863 9.62818 31.6009 9.2324 31.4806 8.8909C31.2673 8.28502 30.9446 7.85 30.5508 7.62827C30.3557 7.51841 30.1431 7.4609 29.9178 7.4609C29.614 7.4609 29.3383 7.56419 29.0988 7.74882C28.8203 7.96348 28.5907 8.28809 28.4225 8.68817C28.3949 8.75377 28.369 8.8214 28.3448 8.8909V4.8999H26.5508V13.9999H28.3058V12.6869C28.3294 12.7567 28.3546 12.8249 28.3812 12.8911C28.556 13.3255 28.795 13.6795 29.0858 13.9061C29.1297 13.9403 29.1747 13.9717 29.2209 13.9999C29.413 14.1174 29.6246 14.1819 29.8528 14.1819C30.0901 14.1819 30.3145 14.1193 30.5204 13.9999C30.5306 13.994 30.5407 13.988 30.5508 13.9818C30.941 13.7429 31.2625 13.2976 31.4763 12.6869C31.5944 12.3495 31.6796 11.9617 31.7253 11.5303C31.7262 11.5218 31.7271 11.5134 31.728 11.5049ZM29.8584 10.1819C29.8719 10.3637 29.8788 10.5618 29.8788 10.7759C29.8788 11.0197 29.87 11.2435 29.8528 11.4468C29.8524 11.4513 29.852 11.4557 29.8516 11.4601C29.8263 11.7522 29.7834 12.0018 29.7239 12.2072C29.6653 12.41 29.5906 12.5698 29.5009 12.6853C29.5005 12.6858 29.5001 12.6864 29.4996 12.6869C29.4872 12.7029 29.4744 12.718 29.4613 12.7323C29.3548 12.8487 29.2291 12.9079 29.0858 12.9079C29.0082 12.9079 28.936 12.8908 28.8695 12.8569C28.7973 12.82 28.7317 12.7633 28.6729 12.6869C28.6718 12.6854 28.6707 12.684 28.6696 12.6825C28.6472 12.653 28.6259 12.6207 28.6055 12.5855C28.4207 12.2659 28.3186 11.7107 28.3069 10.9301C28.3062 10.8797 28.3058 10.8282 28.3058 10.7759C28.3058 10.7416 28.306 10.7076 28.3063 10.6741C28.3144 9.86771 28.4197 9.29995 28.6251 8.9886C28.638 8.9691 28.6513 8.9506 28.6649 8.93311C28.6765 8.91832 28.6883 8.90425 28.7004 8.8909C28.7683 8.81616 28.845 8.76419 28.9307 8.73545C28.9833 8.71779 29.0394 8.7089 29.0988 8.7089C29.2306 8.7089 29.3466 8.75722 29.446 8.85247C29.4586 8.86453 29.471 8.87734 29.483 8.8909C29.4953 8.90474 29.5073 8.91935 29.5191 8.93474C29.6015 9.04259 29.6702 9.18862 29.7247 9.37179C29.7896 9.58978 29.8345 9.86039 29.8584 10.1819ZM25.171 13.9999V7.6299H23.377V13.9999H25.171ZM28.4343 17.9979C28.3917 17.9992 28.3488 17.9999 28.3058 17.9999H26.5508C24.3416 17.9999 22.5508 16.209 22.5508 13.9999V4.8999C22.5508 2.69076 24.3416 0.899902 26.5508 0.899902H28.3448C30.243 0.899902 31.8324 2.22217 32.2422 3.99588C32.736 4.23996 33.1706 4.55222 33.5459 4.8999H32.8474V6.7589H34.6544V6.27204C34.675 6.30656 34.6951 6.34104 34.7147 6.37546C35.1006 7.05178 35.3619 7.78059 35.5272 8.52195V8.7869H35.5821C35.7101 9.45322 35.7638 10.1258 35.7638 10.7759C35.7638 12.2792 35.477 13.8808 34.6825 15.2578C33.8689 16.6681 32.2542 18.1819 29.8528 18.1819C29.3372 18.1819 28.8654 18.1154 28.4343 17.9979ZM32.8604 7.6299V13.9999H34.6544V7.6299H32.8604ZM25.171 4.8999H23.364V6.7589H25.171V4.8999Z" fill="#0B0000"/>
<path fill-rule="evenodd" clip-rule="evenodd" d="M23.3763 17.9999C21.1671 17.9999 19.3763 16.209 19.3763 13.9999V8.83025C19.4655 8.76691 19.5666 8.7349 19.6773 8.7349C19.7707 8.7349 19.853 8.7588 19.9241 8.80266C20.0503 8.88057 20.1412 9.02146 20.1968 9.20327C20.2404 9.34612 20.2623 9.51423 20.2623 9.6969V13.9999H22.0693V9.5409C22.0693 8.67508 21.8026 7.93115 21.1993 7.6299C21.0146 7.53764 20.7982 7.4869 20.5483 7.4869C20.3291 7.4869 20.1134 7.52881 19.9077 7.6299C19.7766 7.69427 19.6496 7.78265 19.5282 7.89947C19.4765 7.94927 19.4258 8.00423 19.3763 8.06472V7.6299C19.3763 7.50328 19.3822 7.37804 19.3937 7.25443C19.3736 7.09207 19.3633 6.92669 19.3633 6.7589V4.8999C19.3633 2.69076 21.1541 0.899902 23.3633 0.899902H25.1703C27.3794 0.899902 29.1703 2.69076 29.1703 4.8999V6.7589C29.1703 6.90606 29.1623 7.05136 29.1468 7.1944C29.1623 7.33744 29.1703 7.48274 29.1703 7.6299V7.69641C29.1232 7.72854 29.0774 7.76372 29.033 7.80179C28.7393 8.0533 28.5044 8.43102 28.3441 8.8909V4.8999H26.5501V13.9999H28.3051V12.6869C28.4984 13.2585 28.795 13.7159 29.1703 13.9679V13.9999C29.1703 16.209 27.3794 17.9999 25.1703 17.9999H23.3763ZM29.1703 8.71395V12.9006C29.1426 12.9055 29.1142 12.9079 29.0851 12.9079C28.5781 12.9079 28.3051 12.1799 28.3051 10.7759C28.3051 9.4239 28.5651 8.7089 29.0981 8.7089C29.1227 8.7089 29.1468 8.71059 29.1703 8.71395ZM25.1703 6.7589V4.8999H23.3633V6.7589H25.1703ZM23.3763 13.9999H25.1703V7.6299H23.3763V13.9999Z" fill="#0B0000"/>
<path fill-rule="evenodd" clip-rule="evenodd" d="M17.168 17.9999C14.9588 17.9999 13.168 16.209 13.168 13.9999V13.0224L13.675 11.9329L14.611 13.9999H16.431L14.741 10.7239L16.34 7.6299H14.585L13.74 9.6579L13.168 8.34552V4.8999C13.168 2.69076 14.9588 0.899902 17.168 0.899902H18.962C20.8579 0.899902 22.4457 2.21892 22.8579 3.98935C23.3561 4.22163 23.8111 4.529 24.2111 4.8999H23.363V6.7589H25.17V6.08146C25.8993 7.28861 26.069 8.58337 26.069 9.5409V13.9999C26.069 16.209 24.2781 17.9999 22.069 17.9999H20.262C20.0406 17.9999 19.8235 17.9819 19.612 17.9474C19.4004 17.9819 19.1833 17.9999 18.962 17.9999H17.168ZM23.376 7.6299V13.9999H25.17V7.6299H23.376ZM17.168 4.8999V13.9999H18.962V10.1389C18.962 9.97808 18.9707 9.83068 18.9873 9.6969C18.994 9.64266 19.002 9.59065 19.0113 9.5409C19.0644 9.25655 19.1585 9.04582 19.284 8.9113C19.342 8.84915 19.4067 8.80327 19.4772 8.7739C19.5395 8.74796 19.6063 8.7349 19.677 8.7349C19.7474 8.7349 19.8114 8.74846 19.8691 8.7739C20.0503 8.85377 20.1688 9.05071 20.2246 9.31264C20.2399 9.38423 20.2505 9.46067 20.2564 9.5409C20.2601 9.59148 20.262 9.64357 20.262 9.6969V13.9999H22.069V9.5409C22.069 9.27003 22.0429 9.01109 21.9885 8.7739C21.8662 8.24005 21.6008 7.81639 21.168 7.61493C20.9901 7.53217 20.784 7.4869 20.548 7.4869C20.2454 7.4869 19.9494 7.5668 19.677 7.77206C19.411 7.97244 19.1675 8.29228 18.962 8.7739V4.8999H17.168Z" fill="#0B0000"/>
<path fill-rule="evenodd" clip-rule="evenodd" d="M7.21342 12.5959C7.27339 12.436 7.34398 12.2789 7.42523 12.1257L8.14148 10.7752L7.5983 9.73588H9.47343V8.37088H7.08015C6.9504 7.68224 7.00348 6.96868 7.23708 6.30388H10.3184V4.89988H8.08733C8.83548 4.09863 9.89063 3.62988 11.011 3.62988H12.857C13.1517 3.62988 13.4413 3.66224 13.7215 3.72424C14.0016 3.66225 14.2912 3.62988 14.586 3.62988H16.341C17.7368 3.62988 19.0317 4.3575 19.7576 5.54973C20.1223 6.14888 20.3169 6.82182 20.3389 7.50045C19.8183 7.56959 19.3299 7.91374 18.9629 8.77388V4.89988H17.1689V13.9999H18.9629V10.1389C18.9629 9.67522 19.0351 9.32309 19.1613 9.08745C19.2864 8.85401 19.4644 8.73488 19.6779 8.73488C19.8642 8.73488 20.006 8.82978 20.1033 8.98841C20.0446 9.15088 19.975 9.31055 19.8945 9.46636L19.2437 10.7255L19.9868 12.166C20.1008 12.387 20.1928 12.6156 20.2629 12.849V13.9999H20.432C20.432 14.7226 20.2363 15.4438 19.8478 16.0813C19.1217 17.2728 17.8273 17.9999 16.432 17.9999H14.612C14.2876 17.9999 13.9694 17.9607 13.663 17.8858C13.3565 17.9607 13.0383 17.9999 12.714 17.9999H10.959C9.55558 17.9999 8.25483 17.2644 7.5314 16.0618C7.15053 15.4287 6.95901 14.7149 6.95898 13.9999H10.5914V12.5959H7.21342ZM10.959 13.9999H12.714L13.676 11.9329L14.612 13.9999H16.432L14.742 10.7239L16.341 7.62988H14.586L13.741 9.65788L12.857 7.62988H11.011L12.662 10.7889L10.959 13.9999Z" fill="#0B0000"/>
<path fill-rule="evenodd" clip-rule="evenodd" d="M4.83203 17.9999C2.62289 17.9999 0.832031 16.209 0.832031 13.9999V4.8999C0.832031 2.69076 2.62289 0.899902 4.83203 0.899902H10.318C12.5272 0.899902 14.318 2.69076 14.318 4.8999V6.3039C14.318 7.23114 14.0025 8.08469 13.473 8.76305V9.0441L12.8566 7.6299H11.0106L12.6616 10.7889L10.9586 13.9999H12.7136L13.6756 11.9329L14.591 13.9545V13.9999C14.591 16.209 12.8002 17.9999 10.591 17.9999H4.83203ZM10.591 12.5959H6.78203V9.7359H9.47303V8.3709H6.78203V6.3039H10.318V4.8999H4.83203V13.9999H10.591V12.5959Z" fill="#0B0000"/>
</svg>
